%TF.GenerationSoftware,KiCad,Pcbnew,8.0.7*%
%TF.CreationDate,2025-01-15T16:40:05+01:00*%
%TF.ProjectId,makita-ps,6d616b69-7461-42d7-9073-2e6b69636164,1*%
%TF.SameCoordinates,Original*%
%TF.FileFunction,Copper,L3,Inr*%
%TF.FilePolarity,Positive*%
%FSLAX46Y46*%
G04 Gerber Fmt 4.6, Leading zero omitted, Abs format (unit mm)*
G04 Created by KiCad (PCBNEW 8.0.7) date 2025-01-15 16:40:05*
%MOMM*%
%LPD*%
G01*
G04 APERTURE LIST*
G04 Aperture macros list*
%AMRoundRect*
0 Rectangle with rounded corners*
0 $1 Rounding radius*
0 $2 $3 $4 $5 $6 $7 $8 $9 X,Y pos of 4 corners*
0 Add a 4 corners polygon primitive as box body*
4,1,4,$2,$3,$4,$5,$6,$7,$8,$9,$2,$3,0*
0 Add four circle primitives for the rounded corners*
1,1,$1+$1,$2,$3*
1,1,$1+$1,$4,$5*
1,1,$1+$1,$6,$7*
1,1,$1+$1,$8,$9*
0 Add four rect primitives between the rounded corners*
20,1,$1+$1,$2,$3,$4,$5,0*
20,1,$1+$1,$4,$5,$6,$7,0*
20,1,$1+$1,$6,$7,$8,$9,0*
20,1,$1+$1,$8,$9,$2,$3,0*%
G04 Aperture macros list end*
%TA.AperFunction,ComponentPad*%
%ADD10RoundRect,0.250002X-1.699998X-1.699998X1.699998X-1.699998X1.699998X1.699998X-1.699998X1.699998X0*%
%TD*%
%TA.AperFunction,ComponentPad*%
%ADD11RoundRect,0.249999X0.790001X1.550001X-0.790001X1.550001X-0.790001X-1.550001X0.790001X-1.550001X0*%
%TD*%
%TA.AperFunction,ComponentPad*%
%ADD12O,2.080000X3.600000*%
%TD*%
%TA.AperFunction,ComponentPad*%
%ADD13R,1.700000X1.700000*%
%TD*%
%TA.AperFunction,ComponentPad*%
%ADD14O,1.700000X1.700000*%
%TD*%
%TA.AperFunction,ComponentPad*%
%ADD15RoundRect,0.250000X0.650000X1.550000X-0.650000X1.550000X-0.650000X-1.550000X0.650000X-1.550000X0*%
%TD*%
%TA.AperFunction,ComponentPad*%
%ADD16O,1.800000X3.600000*%
%TD*%
%TA.AperFunction,ComponentPad*%
%ADD17RoundRect,0.250000X0.600000X0.725000X-0.600000X0.725000X-0.600000X-0.725000X0.600000X-0.725000X0*%
%TD*%
%TA.AperFunction,ComponentPad*%
%ADD18O,1.700000X1.950000*%
%TD*%
%TA.AperFunction,ComponentPad*%
%ADD19C,2.100000*%
%TD*%
%TA.AperFunction,ComponentPad*%
%ADD20C,1.750000*%
%TD*%
%TA.AperFunction,ComponentPad*%
%ADD21R,1.000000X1.000000*%
%TD*%
%TA.AperFunction,ComponentPad*%
%ADD22O,1.000000X1.000000*%
%TD*%
%TA.AperFunction,ComponentPad*%
%ADD23O,3.000000X8.300000*%
%TD*%
%TA.AperFunction,ComponentPad*%
%ADD24C,5.600000*%
%TD*%
%TA.AperFunction,ViaPad*%
%ADD25C,1.200000*%
%TD*%
%TA.AperFunction,ViaPad*%
%ADD26C,0.800000*%
%TD*%
%TA.AperFunction,ViaPad*%
%ADD27C,0.600000*%
%TD*%
%TA.AperFunction,Conductor*%
%ADD28C,0.350000*%
%TD*%
G04 APERTURE END LIST*
D10*
%TO.N,+12V*%
%TO.C,J7*%
X138437000Y-129066000D03*
%TD*%
D11*
%TO.N,PGND*%
%TO.C,J1*%
X138929000Y-72000000D03*
D12*
%TO.N,/+12V_OUT*%
X133849000Y-72000000D03*
%TD*%
D13*
%TO.N,PGND*%
%TO.C,J6*%
X166504000Y-127542000D03*
D14*
%TO.N,+3V3*%
X166504000Y-130082000D03*
%TO.N,/SCL*%
X166504000Y-132622000D03*
%TO.N,/SDA*%
X166504000Y-135162000D03*
%TD*%
D15*
%TO.N,/CAN-*%
%TO.C,J4*%
X162948000Y-72678000D03*
D16*
%TO.N,/CAN+*%
X159448000Y-72678000D03*
%TD*%
D17*
%TO.N,PGND*%
%TO.C,J3*%
X153479000Y-73750000D03*
D18*
%TO.N,/PWR_BTN*%
X150979000Y-73750000D03*
%TO.N,/AUX_R*%
X148479000Y-73750000D03*
%TO.N,+3V3*%
X145979000Y-73750000D03*
%TD*%
D10*
%TO.N,/+12V_CS*%
%TO.C,J5*%
X129479000Y-84250000D03*
%TD*%
D19*
%TO.N,*%
%TO.C,SW1*%
X151754000Y-131547500D03*
X144744000Y-131547500D03*
D20*
%TO.N,PGND*%
X150504000Y-134037500D03*
%TO.N,Net-(RN2D-R4.2)*%
X146004000Y-134037500D03*
%TD*%
D21*
%TO.N,PGND*%
%TO.C,J2*%
X169189000Y-71500000D03*
D22*
%TO.N,/~{RST}*%
X170459000Y-71500000D03*
%TO.N,/SWCLK*%
X171729000Y-71500000D03*
%TO.N,/SWDIO*%
X172999000Y-71500000D03*
%TD*%
D23*
%TO.N,VDD*%
%TO.C,BT1*%
X167729000Y-105075000D03*
%TO.N,/BT_RAW*%
X128729000Y-105075000D03*
D24*
%TO.N,PGND*%
X171624000Y-134000000D03*
X168144000Y-77156000D03*
X128314000Y-77156000D03*
X124834000Y-134000000D03*
D23*
%TO.N,Net-(BT1-PadT)*%
X161229000Y-95075000D03*
%TD*%
D25*
%TO.N,PGND*%
X125729000Y-119000000D03*
D26*
X170644200Y-95639600D03*
X159336000Y-76800000D03*
X139834000Y-101380000D03*
X139834000Y-103285000D03*
X156729000Y-109800000D03*
D25*
X124309000Y-126700000D03*
X125729000Y-122000000D03*
D26*
X156344000Y-113445000D03*
X154439000Y-115350000D03*
X156344000Y-117255000D03*
X161552000Y-88299000D03*
D27*
X149979000Y-97000000D03*
D26*
X171660200Y-96300000D03*
D25*
X128729000Y-122000000D03*
D26*
X148129000Y-112500000D03*
X156344000Y-111540000D03*
X137929000Y-105190000D03*
D25*
X143529000Y-78250000D03*
D27*
X153829000Y-81200000D03*
D25*
X133229000Y-126700000D03*
D26*
X150729000Y-116405000D03*
X136229000Y-105190000D03*
D25*
X131729000Y-125000000D03*
D26*
X139834000Y-107095000D03*
X137924000Y-97700000D03*
X144279000Y-115350000D03*
D25*
X141279000Y-78250000D03*
D26*
X136229000Y-103285000D03*
D27*
X149279000Y-97400000D03*
D25*
X125609000Y-126700000D03*
D26*
X139829000Y-97700000D03*
X154439000Y-117255000D03*
D25*
X131729000Y-119000000D03*
D27*
X149279000Y-96600000D03*
D25*
X131929000Y-126700000D03*
X125729000Y-125000000D03*
D26*
X137929000Y-103285000D03*
D25*
X141279000Y-80500000D03*
D26*
X170644200Y-94420400D03*
X137929000Y-101380000D03*
X144279000Y-111540000D03*
X144279000Y-113445000D03*
X156344000Y-121065000D03*
D25*
X143529000Y-80500000D03*
D26*
X136229000Y-107095000D03*
X171711000Y-99602000D03*
X148129000Y-114405000D03*
X145422012Y-98713000D03*
D25*
X169529000Y-115400000D03*
D26*
X156344000Y-115350000D03*
X141729000Y-97700000D03*
X139829000Y-95900000D03*
D27*
X149279000Y-95000000D03*
D25*
X169429000Y-120100000D03*
D26*
X146184000Y-115350000D03*
X170644200Y-96909600D03*
D27*
X150679000Y-95000000D03*
D26*
X144229000Y-120800000D03*
D27*
X149979000Y-95400000D03*
D26*
X146629000Y-110000000D03*
D27*
X150679000Y-96600000D03*
X125729000Y-92100000D03*
D26*
X146184000Y-113445000D03*
D25*
X169529000Y-117700000D03*
D26*
X157929000Y-83600000D03*
X139829000Y-99500000D03*
D25*
X131729000Y-122000000D03*
D26*
X146184000Y-111540000D03*
D27*
X150679000Y-95800000D03*
D25*
X143529000Y-76000000D03*
D26*
X133729000Y-91632500D03*
X137929000Y-107095000D03*
X136224000Y-99500000D03*
D25*
X130629000Y-126700000D03*
D26*
X136129000Y-95900000D03*
D27*
X150679000Y-97400000D03*
X149979000Y-96200000D03*
X149279000Y-95800000D03*
D26*
X154439000Y-113445000D03*
X154429000Y-121065000D03*
X150029000Y-112500000D03*
X144279000Y-119160000D03*
D25*
X172000000Y-114000000D03*
X128729000Y-125000000D03*
D26*
X136129000Y-97700000D03*
D25*
X172029000Y-121500000D03*
D26*
X154439000Y-119160000D03*
X137924000Y-99500000D03*
D25*
X126909000Y-126700000D03*
X169429000Y-122900000D03*
D26*
X154929000Y-111540000D03*
X144279000Y-117255000D03*
X141729000Y-95900000D03*
D25*
X128729000Y-119000000D03*
D26*
X136229000Y-101380000D03*
X152629000Y-116405000D03*
X137924000Y-95900000D03*
X152629000Y-114500000D03*
X141729000Y-99500000D03*
D25*
X141279000Y-76000000D03*
X160829000Y-133800000D03*
D26*
X156344000Y-119160000D03*
X144829000Y-110000000D03*
X169188132Y-86643846D03*
D27*
%TO.N,Net-(D2-K)*%
X158228992Y-85200000D03*
X160229000Y-88700000D03*
D26*
%TO.N,Net-(Q2-G)*%
X147581000Y-99094000D03*
X140479000Y-105500000D03*
%TO.N,AGND*%
X145295000Y-96681000D03*
D27*
X151645000Y-92871000D03*
X145168000Y-91855000D03*
X145041000Y-93379000D03*
X147479000Y-96450000D03*
X154378258Y-95858258D03*
D26*
%TO.N,Net-(Q3-G)*%
X151264000Y-99982998D03*
X153978992Y-106500000D03*
D27*
%TO.N,Net-(U3-IN-)*%
X132959000Y-78050000D03*
D26*
X135592808Y-88936192D03*
D25*
%TO.N,+12V*%
X136629000Y-113800000D03*
X140029000Y-121900000D03*
X137529000Y-123600000D03*
X136529000Y-110000000D03*
X141729000Y-125400000D03*
X136629000Y-118700000D03*
D26*
%TO.N,VDD*%
X149229000Y-99852996D03*
X159265000Y-104123200D03*
X156217000Y-104123200D03*
X157233000Y-105139200D03*
X158249000Y-103107200D03*
X156217000Y-103107200D03*
D27*
X153929000Y-90500000D03*
D26*
X157233000Y-103107200D03*
X156217000Y-105139200D03*
X157233000Y-102091200D03*
X158249000Y-104123200D03*
D27*
X158829000Y-98400000D03*
D26*
X157233000Y-104123200D03*
X158249000Y-102091200D03*
X159265000Y-102091200D03*
X159265000Y-105139200D03*
X156217000Y-102091200D03*
X158249000Y-105139200D03*
X159265000Y-103107200D03*
D27*
%TO.N,Net-(U3-IN+)*%
X136479000Y-85950016D03*
D26*
X136729000Y-88900000D03*
D25*
%TO.N,/BT_RAW*%
X133229000Y-113240000D03*
X126909000Y-113240000D03*
X124309000Y-113240000D03*
X131929000Y-113240000D03*
X125609000Y-113240000D03*
X130629000Y-113240000D03*
D27*
%TO.N,/EN_12V*%
X166029000Y-88200000D03*
X154129000Y-92490000D03*
%TO.N,/PG_12V*%
X166029000Y-87400000D03*
X156662000Y-89315000D03*
D26*
%TO.N,/SW*%
X146819000Y-104123200D03*
D25*
X148329000Y-107900000D03*
D26*
X143771000Y-103107200D03*
X143771000Y-104123200D03*
X145803000Y-105139200D03*
X146819000Y-105139200D03*
D25*
X152129000Y-107900000D03*
X150229000Y-107900000D03*
D26*
X143771000Y-102091200D03*
X144787000Y-102091200D03*
X146819000Y-103107200D03*
X145803000Y-102091200D03*
X144787000Y-104123200D03*
X145803000Y-104123200D03*
X143771000Y-105139200D03*
X146819000Y-102091200D03*
X144787000Y-103107200D03*
X144787000Y-105139200D03*
X145803000Y-103107200D03*
D25*
%TO.N,/LOUT*%
X152129000Y-122200000D03*
X146929000Y-124900000D03*
X150229000Y-122200000D03*
X144929000Y-126500000D03*
X148329000Y-122200000D03*
X143929000Y-123400000D03*
D27*
%TO.N,+3V3*%
X163929000Y-85561000D03*
D26*
X162829000Y-80425000D03*
X165869000Y-91474000D03*
X161129000Y-83600000D03*
D27*
X165869000Y-98078000D03*
D26*
X167625000Y-91474000D03*
X171711000Y-91474000D03*
X169328997Y-85499997D03*
D27*
X129729000Y-92100000D03*
D26*
X153629000Y-134300000D03*
X164599000Y-98078000D03*
X133729000Y-90125000D03*
X169534000Y-91474000D03*
D27*
%TO.N,/~{RST}*%
X168058000Y-83434519D03*
%TO.N,/SDA*%
X163321000Y-82900000D03*
X166653899Y-83572917D03*
X135104000Y-93600000D03*
%TO.N,/SCL*%
X166055285Y-84182000D03*
X162321000Y-82900000D03*
X133500385Y-93822652D03*
%TO.N,/CAN_TX*%
X157829000Y-80900000D03*
X169128998Y-81200000D03*
%TO.N,/EN_3V3*%
X166829000Y-98100000D03*
X166329000Y-82700006D03*
X159729000Y-85200000D03*
D25*
%TO.N,/+12V_OUT*%
X138229000Y-76250000D03*
X134229000Y-75750000D03*
X138229000Y-80500000D03*
X138229000Y-78250000D03*
D27*
%TO.N,/PWR_BTN*%
X138929000Y-94400000D03*
X144429000Y-129300000D03*
%TO.N,/LED_R*%
X172529000Y-126800000D03*
X172728994Y-89200000D03*
X156229000Y-128500000D03*
%TO.N,/LED_B*%
X154629000Y-129100000D03*
X167429000Y-124500000D03*
X169529000Y-87900000D03*
%TO.N,/LED_G*%
X172629000Y-127600000D03*
X173034711Y-88400000D03*
X155429000Y-129900000D03*
%TO.N,Net-(U4-VOUT)*%
X152661000Y-94776000D03*
X139568306Y-125445414D03*
%TO.N,/AUX*%
X168529000Y-88200000D03*
X148479000Y-79900000D03*
D25*
%TO.N,/+12V_CS*%
X137229000Y-84000000D03*
X137229000Y-87500000D03*
D27*
%TO.N,Net-(JP1-C)*%
X130729000Y-89600000D03*
X136429000Y-91600000D03*
%TO.N,Net-(U4-ISNS+)*%
X145929000Y-122200000D03*
X153458627Y-95160000D03*
%TD*%
D28*
%TO.N,Net-(U3-IN-)*%
X135592808Y-88936192D02*
X135592808Y-81263808D01*
X132959000Y-78630000D02*
X132959000Y-78050000D01*
X135592808Y-81263808D02*
X132959000Y-78630000D01*
%TO.N,Net-(U3-IN+)*%
X136729000Y-88900000D02*
X136072808Y-88243808D01*
X136072808Y-86356208D02*
X136479000Y-85950016D01*
X136072808Y-88243808D02*
X136072808Y-86356208D01*
%TO.N,/PWR_BTN*%
X143229000Y-128100000D02*
X143229000Y-127800000D01*
X141729000Y-123100000D02*
X141729000Y-121400000D01*
X138929000Y-108100000D02*
X138929000Y-94400000D01*
X144429000Y-129300000D02*
X143229000Y-128100000D01*
X143229000Y-124600000D02*
X141729000Y-123100000D01*
X143229000Y-127800000D02*
X143229000Y-124600000D01*
X141729000Y-121400000D02*
X139529000Y-119200000D01*
X139529000Y-119200000D02*
X139529000Y-108700000D01*
X139529000Y-108700000D02*
X138929000Y-108100000D01*
%TO.N,/LED_R*%
X159429000Y-125300000D02*
X156229000Y-128500000D01*
X170729000Y-126800000D02*
X170329000Y-126400000D01*
X169229000Y-125300000D02*
X159429000Y-125300000D01*
X172529000Y-126800000D02*
X170729000Y-126800000D01*
X170329000Y-126400000D02*
X169229000Y-125300000D01*
%TO.N,/LED_B*%
X158929000Y-124800000D02*
X154629000Y-129100000D01*
X167129000Y-124800000D02*
X158929000Y-124800000D01*
X167429000Y-124500000D02*
X167129000Y-124800000D01*
%TO.N,/LED_G*%
X155829000Y-129900000D02*
X155429000Y-129900000D01*
X170829000Y-127600000D02*
X169009000Y-125780000D01*
X172629000Y-127600000D02*
X170829000Y-127600000D01*
X169009000Y-125780000D02*
X159949000Y-125780000D01*
X159949000Y-125780000D02*
X155829000Y-129900000D01*
%TD*%
%TA.AperFunction,Conductor*%
%TO.N,+3V3*%
G36*
X149909968Y-61605962D02*
G01*
X149912698Y-61606024D01*
X151591437Y-61663757D01*
X151594133Y-61663880D01*
X153271147Y-61760070D01*
X153273885Y-61760259D01*
X154948147Y-61894846D01*
X154950886Y-61895097D01*
X156621631Y-62068016D01*
X156624444Y-62068340D01*
X158290727Y-62279494D01*
X158293496Y-62279876D01*
X159954615Y-62529175D01*
X159957295Y-62529608D01*
X161612230Y-62816902D01*
X161614980Y-62817412D01*
X163086300Y-63107711D01*
X163262840Y-63142544D01*
X163265625Y-63143126D01*
X164905670Y-63505950D01*
X164908305Y-63506565D01*
X166539614Y-63906879D01*
X166542272Y-63907564D01*
X168163995Y-64345160D01*
X168166609Y-64345897D01*
X169777831Y-64820528D01*
X169780492Y-64821344D01*
X171380430Y-65332779D01*
X171383049Y-65333649D01*
X172970846Y-65881612D01*
X172973443Y-65882542D01*
X174147628Y-66318124D01*
X174203635Y-66359896D01*
X174228168Y-66425317D01*
X174228500Y-66434382D01*
X174228500Y-71270560D01*
X174208815Y-71337599D01*
X174156011Y-71383354D01*
X174086853Y-71393298D01*
X174023297Y-71364273D01*
X173985840Y-71306556D01*
X173950803Y-71191058D01*
X173927814Y-71115273D01*
X173889704Y-71043974D01*
X173834913Y-70941467D01*
X173834909Y-70941460D01*
X173709883Y-70789116D01*
X173557539Y-70664090D01*
X173557532Y-70664086D01*
X173383733Y-70571188D01*
X173383727Y-70571186D01*
X173195132Y-70513976D01*
X173195129Y-70513975D01*
X172999000Y-70494659D01*
X172802870Y-70513975D01*
X172614266Y-70571188D01*
X172440467Y-70664086D01*
X172435399Y-70667473D01*
X172434305Y-70665836D01*
X172378337Y-70689596D01*
X172309471Y-70677795D01*
X172292843Y-70667109D01*
X172292601Y-70667473D01*
X172287532Y-70664086D01*
X172113733Y-70571188D01*
X172113727Y-70571186D01*
X171925132Y-70513976D01*
X171925129Y-70513975D01*
X171729000Y-70494659D01*
X171532870Y-70513975D01*
X171344266Y-70571188D01*
X171170467Y-70664086D01*
X171165399Y-70667473D01*
X171164305Y-70665836D01*
X171108337Y-70689596D01*
X171039471Y-70677795D01*
X171022843Y-70667109D01*
X171022601Y-70667473D01*
X171017532Y-70664086D01*
X170843733Y-70571188D01*
X170843727Y-70571186D01*
X170655132Y-70513976D01*
X170655129Y-70513975D01*
X170459000Y-70494659D01*
X170262870Y-70513975D01*
X170133462Y-70553231D01*
X170074273Y-70571186D01*
X170074272Y-70571186D01*
X170074267Y-70571188D01*
X170072143Y-70572324D01*
X170070898Y-70572583D01*
X170068641Y-70573518D01*
X170068463Y-70573089D01*
X170003740Y-70586564D01*
X169939382Y-70562231D01*
X169931331Y-70556204D01*
X169931328Y-70556202D01*
X169796482Y-70505908D01*
X169796483Y-70505908D01*
X169736883Y-70499501D01*
X169736881Y-70499500D01*
X169736873Y-70499500D01*
X169736864Y-70499500D01*
X168641129Y-70499500D01*
X168641123Y-70499501D01*
X168581516Y-70505908D01*
X168446671Y-70556202D01*
X168446664Y-70556206D01*
X168331455Y-70642452D01*
X168331452Y-70642455D01*
X168245206Y-70757664D01*
X168245202Y-70757671D01*
X168194908Y-70892517D01*
X168188501Y-70952116D01*
X168188500Y-70952135D01*
X168188500Y-72047870D01*
X168188501Y-72047876D01*
X168194908Y-72107483D01*
X168245202Y-72242328D01*
X168245206Y-72242335D01*
X168331452Y-72357544D01*
X168331455Y-72357547D01*
X168446664Y-72443793D01*
X168446671Y-72443797D01*
X168581517Y-72494091D01*
X168581516Y-72494091D01*
X168588444Y-72494835D01*
X168641127Y-72500500D01*
X169736872Y-72500499D01*
X169796483Y-72494091D01*
X169931331Y-72443796D01*
X169939379Y-72437770D01*
X170004842Y-72413351D01*
X170068474Y-72426895D01*
X170068645Y-72426483D01*
X170070875Y-72427406D01*
X170072146Y-72427677D01*
X170074273Y-72428814D01*
X170262868Y-72486024D01*
X170459000Y-72505341D01*
X170655132Y-72486024D01*
X170843727Y-72428814D01*
X171017538Y-72335910D01*
X171017544Y-72335904D01*
X171022607Y-72332523D01*
X171023703Y-72334164D01*
X171079639Y-72310405D01*
X171148507Y-72322194D01*
X171165148Y-72332888D01*
X171165393Y-72332523D01*
X171170458Y-72335907D01*
X171170462Y-72335910D01*
X171315344Y-72413351D01*
X171342147Y-72427678D01*
X171344273Y-72428814D01*
X171532868Y-72486024D01*
X171729000Y-72505341D01*
X171925132Y-72486024D01*
X172113727Y-72428814D01*
X172287538Y-72335910D01*
X172287544Y-72335904D01*
X172292607Y-72332523D01*
X172293703Y-72334164D01*
X172349639Y-72310405D01*
X172418507Y-72322194D01*
X172435148Y-72332888D01*
X172435393Y-72332523D01*
X172440458Y-72335907D01*
X172440462Y-72335910D01*
X172585344Y-72413351D01*
X172612147Y-72427678D01*
X172614273Y-72428814D01*
X172802868Y-72486024D01*
X172999000Y-72505341D01*
X173195132Y-72486024D01*
X173383727Y-72428814D01*
X173385853Y-72427678D01*
X173517060Y-72357546D01*
X173557538Y-72335910D01*
X173709883Y-72210883D01*
X173834910Y-72058538D01*
X173927814Y-71884727D01*
X173985024Y-71696132D01*
X173985024Y-71696128D01*
X173985839Y-71693443D01*
X174024137Y-71635005D01*
X174087949Y-71606548D01*
X174157016Y-71617109D01*
X174209410Y-71663333D01*
X174228500Y-71729439D01*
X174228500Y-98787117D01*
X174208815Y-98854156D01*
X174162953Y-98896475D01*
X174122456Y-98918121D01*
X174099998Y-98927424D01*
X173935775Y-98977240D01*
X173911934Y-98981982D01*
X173735061Y-98999403D01*
X173722907Y-99000000D01*
X172435907Y-99000000D01*
X172368868Y-98980315D01*
X172343757Y-98958972D01*
X172316870Y-98929111D01*
X172163734Y-98817851D01*
X172163729Y-98817848D01*
X171990807Y-98740857D01*
X171990802Y-98740855D01*
X171845001Y-98709865D01*
X171805646Y-98701500D01*
X171616354Y-98701500D01*
X171583897Y-98708398D01*
X171431197Y-98740855D01*
X171431192Y-98740857D01*
X171258270Y-98817848D01*
X171258265Y-98817851D01*
X171105129Y-98929111D01*
X171078243Y-98958972D01*
X171018756Y-98995621D01*
X170986093Y-99000000D01*
X167331680Y-99000000D01*
X167264641Y-98980315D01*
X167218886Y-98927511D01*
X167208942Y-98858353D01*
X167237967Y-98794797D01*
X167265706Y-98771007D01*
X167331262Y-98729816D01*
X167458816Y-98602262D01*
X167554789Y-98449522D01*
X167614368Y-98279255D01*
X167619668Y-98232216D01*
X167634565Y-98100003D01*
X167634565Y-98099996D01*
X167614369Y-97920750D01*
X167614368Y-97920745D01*
X167614023Y-97919759D01*
X167554789Y-97750478D01*
X167554188Y-97749522D01*
X167469431Y-97614632D01*
X167458816Y-97597738D01*
X167331262Y-97470184D01*
X167331260Y-97470182D01*
X167197027Y-97385837D01*
X167150737Y-97333502D01*
X167139000Y-97280844D01*
X167139000Y-95789000D01*
X167158685Y-95721961D01*
X167211489Y-95676206D01*
X167263000Y-95665000D01*
X168155000Y-95665000D01*
X168155000Y-94420400D01*
X169738740Y-94420400D01*
X169758526Y-94608656D01*
X169758527Y-94608659D01*
X169817018Y-94788677D01*
X169817021Y-94788684D01*
X169911666Y-94952616D01*
X169914936Y-94957116D01*
X169938415Y-95022922D01*
X169922589Y-95090976D01*
X169914936Y-95102884D01*
X169911666Y-95107383D01*
X169817021Y-95271315D01*
X169817018Y-95271322D01*
X169758807Y-95450478D01*
X169758526Y-95451344D01*
X169738740Y-95639600D01*
X169758526Y-95827856D01*
X169758527Y-95827859D01*
X169817018Y-96007877D01*
X169817021Y-96007884D01*
X169911667Y-96171816D01*
X169919284Y-96180275D01*
X169929507Y-96191630D01*
X169959735Y-96254622D01*
X169951109Y-96323957D01*
X169929507Y-96357570D01*
X169911666Y-96377385D01*
X169817021Y-96541315D01*
X169817018Y-96541322D01*
X169769457Y-96687702D01*
X169758526Y-96721344D01*
X169738740Y-96909600D01*
X169758526Y-97097856D01*
X169758527Y-97097859D01*
X169817018Y-97277877D01*
X169817021Y-97277884D01*
X169911667Y-97441816D01*
X169937210Y-97470184D01*
X170038329Y-97582488D01*
X170191465Y-97693748D01*
X170191470Y-97693751D01*
X170364392Y-97770742D01*
X170364397Y-97770744D01*
X170549554Y-97810100D01*
X170549555Y-97810100D01*
X170738844Y-97810100D01*
X170738846Y-97810100D01*
X170924003Y-97770744D01*
X171096930Y-97693751D01*
X171250071Y-97582488D01*
X171376733Y-97441816D01*
X171471379Y-97277884D01*
X171473077Y-97274071D01*
X171518324Y-97220831D01*
X171585172Y-97200506D01*
X171586359Y-97200500D01*
X171754844Y-97200500D01*
X171754846Y-97200500D01*
X171940003Y-97161144D01*
X172112930Y-97084151D01*
X172266071Y-96972888D01*
X172392733Y-96832216D01*
X172487379Y-96668284D01*
X172545874Y-96488256D01*
X172565660Y-96300000D01*
X172545874Y-96111744D01*
X172487379Y-95931716D01*
X172392733Y-95767784D01*
X172266071Y-95627112D01*
X172266070Y-95627111D01*
X172112934Y-95515851D01*
X172112929Y-95515848D01*
X171940007Y-95438857D01*
X171940002Y-95438855D01*
X171794201Y-95407865D01*
X171754846Y-95399500D01*
X171603120Y-95399500D01*
X171536081Y-95379815D01*
X171490326Y-95327011D01*
X171485189Y-95313819D01*
X171482953Y-95306940D01*
X171471379Y-95271316D01*
X171445857Y-95227111D01*
X171376735Y-95107387D01*
X171373468Y-95102891D01*
X171349985Y-95037086D01*
X171365806Y-94969031D01*
X171373468Y-94957109D01*
X171376728Y-94952621D01*
X171376733Y-94952616D01*
X171471379Y-94788684D01*
X171529874Y-94608656D01*
X171549660Y-94420400D01*
X171529874Y-94232144D01*
X171471379Y-94052116D01*
X171376733Y-93888184D01*
X171250071Y-93747512D01*
X171223935Y-93728523D01*
X171096934Y-93636251D01*
X171096929Y-93636248D01*
X170924007Y-93559257D01*
X170924002Y-93559255D01*
X170778201Y-93528265D01*
X170738846Y-93519900D01*
X170549554Y-93519900D01*
X170517097Y-93526798D01*
X170364397Y-93559255D01*
X170364392Y-93559257D01*
X170191470Y-93636248D01*
X170191465Y-93636251D01*
X170038329Y-93747511D01*
X169911666Y-93888185D01*
X169817021Y-94052115D01*
X169817018Y-94052122D01*
X169759282Y-94229816D01*
X169758526Y-94232144D01*
X169738740Y-94420400D01*
X168155000Y-94420400D01*
X168155000Y-93379000D01*
X165234000Y-93379000D01*
X165234000Y-94144000D01*
X165214315Y-94211039D01*
X165161511Y-94256794D01*
X165110000Y-94268000D01*
X163583000Y-94268000D01*
X163583000Y-95665000D01*
X166380000Y-95665000D01*
X166447039Y-95684685D01*
X166492794Y-95737489D01*
X166504000Y-95789000D01*
X166504000Y-97290270D01*
X166484315Y-97357309D01*
X166445972Y-97395264D01*
X166326737Y-97470184D01*
X166199184Y-97597737D01*
X166103211Y-97750476D01*
X166043631Y-97920745D01*
X166043630Y-97920750D01*
X166023435Y-98099996D01*
X166023435Y-98100003D01*
X166043630Y-98279249D01*
X166043631Y-98279254D01*
X166103211Y-98449523D01*
X166197449Y-98599500D01*
X166199184Y-98602262D01*
X166326738Y-98729816D01*
X166392292Y-98771006D01*
X166438583Y-98823341D01*
X166449231Y-98892394D01*
X166420856Y-98956243D01*
X166362467Y-98994615D01*
X166326320Y-99000000D01*
X163017631Y-99000000D01*
X162950592Y-98980315D01*
X162904837Y-98927511D01*
X162894893Y-98858353D01*
X162910244Y-98814000D01*
X162966910Y-98715851D01*
X163027043Y-98611697D01*
X163031399Y-98601182D01*
X163063062Y-98524740D01*
X163127398Y-98369419D01*
X163195270Y-98116116D01*
X163229500Y-97856120D01*
X163229500Y-92293880D01*
X163195270Y-92033884D01*
X163127398Y-91780581D01*
X163095939Y-91704632D01*
X163027046Y-91538309D01*
X163027041Y-91538299D01*
X162895924Y-91311196D01*
X162736281Y-91103148D01*
X162736274Y-91103140D01*
X162550860Y-90917726D01*
X162550851Y-90917718D01*
X162342803Y-90758075D01*
X162115700Y-90626958D01*
X162115690Y-90626953D01*
X161873428Y-90526605D01*
X161873421Y-90526603D01*
X161873419Y-90526602D01*
X161620116Y-90458730D01*
X161562339Y-90451123D01*
X161360127Y-90424500D01*
X161360120Y-90424500D01*
X161097880Y-90424500D01*
X161097872Y-90424500D01*
X160866772Y-90454926D01*
X160837884Y-90458730D01*
X160584581Y-90526602D01*
X160584571Y-90526605D01*
X160342309Y-90626953D01*
X160342299Y-90626958D01*
X160115196Y-90758075D01*
X159907148Y-90917718D01*
X159721718Y-91103148D01*
X159562075Y-91311196D01*
X159430958Y-91538299D01*
X159430953Y-91538309D01*
X159330605Y-91780571D01*
X159330602Y-91780581D01*
X159285335Y-91949523D01*
X159262730Y-92033885D01*
X159228500Y-92293872D01*
X159228500Y-97516936D01*
X159208815Y-97583975D01*
X159156011Y-97629730D01*
X159086853Y-97639674D01*
X159063547Y-97633978D01*
X159008260Y-97614633D01*
X159008249Y-97614630D01*
X158829004Y-97594435D01*
X158828996Y-97594435D01*
X158649750Y-97614630D01*
X158649745Y-97614631D01*
X158479476Y-97674211D01*
X158326737Y-97770184D01*
X158199184Y-97897737D01*
X158103211Y-98050476D01*
X158043631Y-98220745D01*
X158043630Y-98220750D01*
X158023435Y-98399996D01*
X158023435Y-98400003D01*
X158043630Y-98579249D01*
X158043631Y-98579254D01*
X158103211Y-98749523D01*
X158141229Y-98810028D01*
X158160229Y-98877265D01*
X158139861Y-98944100D01*
X158086593Y-98989314D01*
X158036235Y-99000000D01*
X154953000Y-99000000D01*
X154885961Y-98980315D01*
X154840206Y-98927511D01*
X154829000Y-98876000D01*
X154829000Y-98300000D01*
X152479000Y-98300000D01*
X152479000Y-98876000D01*
X152459315Y-98943039D01*
X152406511Y-98988794D01*
X152355000Y-99000000D01*
X149553460Y-99000000D01*
X149515604Y-98991943D01*
X149514982Y-98993860D01*
X149508805Y-98991853D01*
X149508803Y-98991852D01*
X149508800Y-98991851D01*
X149508799Y-98991851D01*
X149395571Y-98967784D01*
X149323646Y-98952496D01*
X149134354Y-98952496D01*
X149065897Y-98967046D01*
X148949200Y-98991851D01*
X148943018Y-98993860D01*
X148942395Y-98991943D01*
X148904540Y-99000000D01*
X148587122Y-99000000D01*
X148520083Y-98980315D01*
X148474328Y-98927511D01*
X148469132Y-98911777D01*
X148468682Y-98911924D01*
X148408181Y-98725722D01*
X148408180Y-98725721D01*
X148408179Y-98725716D01*
X148313533Y-98561784D01*
X148186871Y-98421112D01*
X148157813Y-98400000D01*
X148033734Y-98309851D01*
X148033729Y-98309848D01*
X147860807Y-98232857D01*
X147860802Y-98232855D01*
X147715001Y-98201865D01*
X147675646Y-98193500D01*
X147486354Y-98193500D01*
X147453897Y-98200398D01*
X147301197Y-98232855D01*
X147301192Y-98232857D01*
X147128270Y-98309848D01*
X147128265Y-98309851D01*
X146975129Y-98421111D01*
X146848466Y-98561785D01*
X146753821Y-98725715D01*
X146753818Y-98725722D01*
X146693318Y-98911924D01*
X146691085Y-98911198D01*
X146662971Y-98963268D01*
X146601806Y-98997041D01*
X146574878Y-99000000D01*
X146435023Y-99000000D01*
X146367984Y-98980315D01*
X146322229Y-98927511D01*
X146311702Y-98863040D01*
X146327472Y-98713000D01*
X146307686Y-98524744D01*
X146249191Y-98344716D01*
X146154545Y-98180784D01*
X146027883Y-98040112D01*
X146013712Y-98029816D01*
X145874746Y-97928851D01*
X145874741Y-97928848D01*
X145701819Y-97851857D01*
X145701814Y-97851855D01*
X145556013Y-97820865D01*
X145516658Y-97812500D01*
X145482656Y-97812500D01*
X145415617Y-97792815D01*
X145369862Y-97740011D01*
X145359918Y-97670853D01*
X145388943Y-97607297D01*
X145447721Y-97569523D01*
X145456876Y-97567210D01*
X145466380Y-97565189D01*
X145574803Y-97542144D01*
X145747730Y-97465151D01*
X145900871Y-97353888D01*
X146027533Y-97213216D01*
X146122179Y-97049284D01*
X146180674Y-96869256D01*
X146200460Y-96681000D01*
X146180674Y-96492744D01*
X146166784Y-96449996D01*
X146673435Y-96449996D01*
X146673435Y-96450003D01*
X146693630Y-96629249D01*
X146693631Y-96629254D01*
X146753211Y-96799523D01*
X146824074Y-96912300D01*
X146849184Y-96952262D01*
X146976738Y-97079816D01*
X147067080Y-97136582D01*
X147116739Y-97167785D01*
X147129478Y-97175789D01*
X147257932Y-97220737D01*
X147299745Y-97235368D01*
X147299750Y-97235369D01*
X147478996Y-97255565D01*
X147479000Y-97255565D01*
X147479004Y-97255565D01*
X147658249Y-97235369D01*
X147658252Y-97235368D01*
X147658255Y-97235368D01*
X147828522Y-97175789D01*
X147981262Y-97079816D01*
X148108816Y-96952262D01*
X148204789Y-96799522D01*
X148245571Y-96682972D01*
X148286293Y-96626197D01*
X148351245Y-96600449D01*
X148419807Y-96613905D01*
X148470210Y-96662292D01*
X148485833Y-96710043D01*
X148493630Y-96779250D01*
X148493633Y-96779262D01*
X148555510Y-96956094D01*
X148553364Y-96956844D01*
X148562962Y-97015144D01*
X148554609Y-97043590D01*
X148555510Y-97043906D01*
X148493633Y-97220737D01*
X148493630Y-97220750D01*
X148473435Y-97399996D01*
X148473435Y-97400003D01*
X148493630Y-97579249D01*
X148493631Y-97579254D01*
X148553211Y-97749523D01*
X148620191Y-97856120D01*
X148649184Y-97902262D01*
X148776738Y-98029816D01*
X148842354Y-98071045D01*
X148914083Y-98116116D01*
X148929478Y-98125789D01*
X149086645Y-98180784D01*
X149099745Y-98185368D01*
X149099750Y-98185369D01*
X149278996Y-98205565D01*
X149279000Y-98205565D01*
X149279004Y-98205565D01*
X149458249Y-98185369D01*
X149458252Y-98185368D01*
X149458255Y-98185368D01*
X149628522Y-98125789D01*
X149781262Y-98029816D01*
X149891319Y-97919759D01*
X149952642Y-97886274D01*
X150022334Y-97891258D01*
X150066681Y-97919759D01*
X150176738Y-98029816D01*
X150242354Y-98071045D01*
X150314083Y-98116116D01*
X150329478Y-98125789D01*
X150486645Y-98180784D01*
X150499745Y-98185368D01*
X150499750Y-98185369D01*
X150678996Y-98205565D01*
X150679000Y-98205565D01*
X150679004Y-98205565D01*
X150858249Y-98185369D01*
X150858252Y-98185368D01*
X150858255Y-98185368D01*
X151028522Y-98125789D01*
X151181262Y-98029816D01*
X151308816Y-97902262D01*
X151404789Y-97749522D01*
X151464368Y-97579255D01*
X151465725Y-97567210D01*
X151484565Y-97400003D01*
X151484565Y-97399996D01*
X151464369Y-97220750D01*
X151464366Y-97220737D01*
X151402489Y-97043905D01*
X151404637Y-97043153D01*
X151395035Y-96984872D01*
X151403392Y-96956411D01*
X151402489Y-96956095D01*
X151464366Y-96779262D01*
X151464369Y-96779249D01*
X151484565Y-96600003D01*
X151484565Y-96599996D01*
X151464369Y-96420750D01*
X151464366Y-96420737D01*
X151402489Y-96243905D01*
X151404637Y-96243153D01*
X151395035Y-96184872D01*
X151403392Y-96156411D01*
X151402489Y-96156095D01*
X151464366Y-95979262D01*
X151464369Y-95979249D01*
X151484565Y-95800003D01*
X151484565Y-95799996D01*
X151464369Y-95620750D01*
X151464366Y-95620737D01*
X151402489Y-95443905D01*
X151404637Y-95443153D01*
X151395035Y-95384872D01*
X151403392Y-95356411D01*
X151402489Y-95356095D01*
X151464366Y-95179262D01*
X151464369Y-95179249D01*
X151484565Y-95000003D01*
X151484565Y-94999996D01*
X151464369Y-94820750D01*
X151464368Y-94820745D01*
X151460775Y-94810476D01*
X151448710Y-94775996D01*
X151855435Y-94775996D01*
X151855435Y-94776003D01*
X151875630Y-94955249D01*
X151875631Y-94955254D01*
X151935211Y-95125523D01*
X151999044Y-95227112D01*
X152031184Y-95278262D01*
X152158738Y-95405816D01*
X152311478Y-95501789D01*
X152397022Y-95531722D01*
X152481745Y-95561368D01*
X152481750Y-95561369D01*
X152660997Y-95581565D01*
X152660999Y-95581565D01*
X152660999Y-95581564D01*
X152661000Y-95581565D01*
X152692937Y-95577966D01*
X152761758Y-95590019D01*
X152811815Y-95635213D01*
X152828811Y-95662262D01*
X152956365Y-95789816D01*
X153109105Y-95885789D01*
X153149718Y-95900000D01*
X153279372Y-95945368D01*
X153279377Y-95945369D01*
X153458624Y-95965565D01*
X153458626Y-95965565D01*
X153458626Y-95965564D01*
X153458627Y-95965565D01*
X153465308Y-95964812D01*
X153534130Y-95976865D01*
X153585510Y-96024213D01*
X153596235Y-96047077D01*
X153652467Y-96207777D01*
X153746588Y-96357570D01*
X153748442Y-96360520D01*
X153875996Y-96488074D01*
X153960730Y-96541316D01*
X154010976Y-96572888D01*
X154028736Y-96584047D01*
X154149194Y-96626197D01*
X154199003Y-96643626D01*
X154199008Y-96643627D01*
X154378254Y-96663823D01*
X154378258Y-96663823D01*
X154378262Y-96663823D01*
X154557507Y-96643627D01*
X154557510Y-96643626D01*
X154557513Y-96643626D01*
X154727780Y-96584047D01*
X154880520Y-96488074D01*
X155008074Y-96360520D01*
X155104047Y-96207780D01*
X155163626Y-96037513D01*
X155166939Y-96008111D01*
X155183823Y-95858261D01*
X155183823Y-95858254D01*
X155163627Y-95679008D01*
X155163626Y-95679003D01*
X155149838Y-95639600D01*
X155104047Y-95508736D01*
X155099681Y-95501788D01*
X155039377Y-95405815D01*
X155008074Y-95355996D01*
X154880520Y-95228442D01*
X154802251Y-95179262D01*
X154727781Y-95132469D01*
X154557512Y-95072889D01*
X154557507Y-95072888D01*
X154378262Y-95052693D01*
X154378252Y-95052693D01*
X154371565Y-95053446D01*
X154302744Y-95041387D01*
X154251368Y-94994034D01*
X154240648Y-94971180D01*
X154235075Y-94955254D01*
X154184416Y-94810478D01*
X154088443Y-94657738D01*
X153960889Y-94530184D01*
X153934696Y-94513726D01*
X153808150Y-94434211D01*
X153637881Y-94374631D01*
X153637876Y-94374630D01*
X153458631Y-94354435D01*
X153458623Y-94354435D01*
X153426686Y-94358033D01*
X153357864Y-94345978D01*
X153307810Y-94300784D01*
X153290817Y-94273740D01*
X153290815Y-94273737D01*
X153163262Y-94146184D01*
X153010523Y-94050211D01*
X152840254Y-93990631D01*
X152840249Y-93990630D01*
X152661004Y-93970435D01*
X152660996Y-93970435D01*
X152481750Y-93990630D01*
X152481745Y-93990631D01*
X152311476Y-94050211D01*
X152158737Y-94146184D01*
X152031184Y-94273737D01*
X151935211Y-94426476D01*
X151875631Y-94596745D01*
X151875630Y-94596750D01*
X151855435Y-94775996D01*
X151448710Y-94775996D01*
X151404789Y-94650478D01*
X151390801Y-94628217D01*
X151308815Y-94497737D01*
X151181262Y-94370184D01*
X151028523Y-94274211D01*
X150858254Y-94214631D01*
X150858249Y-94214630D01*
X150679004Y-94194435D01*
X150678996Y-94194435D01*
X150499750Y-94214630D01*
X150499745Y-94214631D01*
X150329476Y-94274211D01*
X150176737Y-94370184D01*
X150066681Y-94480241D01*
X150005358Y-94513726D01*
X149935666Y-94508742D01*
X149891319Y-94480241D01*
X149781262Y-94370184D01*
X149628523Y-94274211D01*
X149458254Y-94214631D01*
X149458249Y-94214630D01*
X149279004Y-94194435D01*
X149278996Y-94194435D01*
X149099750Y-94214630D01*
X149099745Y-94214631D01*
X148929476Y-94274211D01*
X148776737Y-94370184D01*
X148649184Y-94497737D01*
X148553211Y-94650476D01*
X148493631Y-94820745D01*
X148493630Y-94820750D01*
X148473435Y-94999996D01*
X148473435Y-95000003D01*
X148493630Y-95179249D01*
X148493633Y-95179262D01*
X148555510Y-95356094D01*
X148553364Y-95356844D01*
X148562962Y-95415144D01*
X148554609Y-95443590D01*
X148555510Y-95443906D01*
X148493633Y-95620737D01*
X148493630Y-95620750D01*
X148473435Y-95799996D01*
X148473435Y-95800003D01*
X148493630Y-95979249D01*
X148493633Y-95979262D01*
X148555510Y-96156094D01*
X148553364Y-96156844D01*
X148562962Y-96215144D01*
X148554608Y-96243591D01*
X148555510Y-96243907D01*
X148512427Y-96367028D01*
X148471705Y-96423803D01*
X148406752Y-96449550D01*
X148338191Y-96436093D01*
X148287788Y-96387706D01*
X148272166Y-96339954D01*
X148264369Y-96270750D01*
X148264368Y-96270745D01*
X148242336Y-96207781D01*
X148204789Y-96100478D01*
X148197109Y-96088256D01*
X148156868Y-96024213D01*
X148108816Y-95947738D01*
X147981262Y-95820184D01*
X147949144Y-95800003D01*
X147828523Y-95724211D01*
X147658254Y-95664631D01*
X147658249Y-95664630D01*
X147479004Y-95644435D01*
X147478996Y-95644435D01*
X147299750Y-95664630D01*
X147299745Y-95664631D01*
X147129476Y-95724211D01*
X146976737Y-95820184D01*
X146849184Y-95947737D01*
X146753211Y-96100476D01*
X146693631Y-96270745D01*
X146693630Y-96270750D01*
X146673435Y-96449996D01*
X146166784Y-96449996D01*
X146122179Y-96312716D01*
X146027533Y-96148784D01*
X145900871Y-96008112D01*
X145900870Y-96008111D01*
X145747734Y-95896851D01*
X145747729Y-95896848D01*
X145574807Y-95819857D01*
X145574802Y-95819855D01*
X145429001Y-95788865D01*
X145389646Y-95780500D01*
X145200354Y-95780500D01*
X145167897Y-95787398D01*
X145015197Y-95819855D01*
X145015192Y-95819857D01*
X144842270Y-95896848D01*
X144842265Y-95896851D01*
X144689129Y-96008111D01*
X144562466Y-96148785D01*
X144467821Y-96312715D01*
X144467818Y-96312722D01*
X144410843Y-96488074D01*
X144409326Y-96492744D01*
X144389540Y-96681000D01*
X144409326Y-96869256D01*
X144409327Y-96869259D01*
X144467818Y-97049277D01*
X144467821Y-97049284D01*
X144562467Y-97213216D01*
X144666678Y-97328954D01*
X144689129Y-97353888D01*
X144842265Y-97465148D01*
X144842270Y-97465151D01*
X145015192Y-97542142D01*
X145015197Y-97542144D01*
X145200354Y-97581500D01*
X145200355Y-97581500D01*
X145234356Y-97581500D01*
X145301395Y-97601185D01*
X145347150Y-97653989D01*
X145357094Y-97723147D01*
X145328069Y-97786703D01*
X145269291Y-97824477D01*
X145260136Y-97826790D01*
X145142211Y-97851855D01*
X145142204Y-97851857D01*
X144969282Y-97928848D01*
X144969277Y-97928851D01*
X144816141Y-98040111D01*
X144689478Y-98180785D01*
X144594833Y-98344715D01*
X144594830Y-98344722D01*
X144540785Y-98511057D01*
X144536338Y-98524744D01*
X144522019Y-98660982D01*
X144516626Y-98712300D01*
X144516552Y-98713000D01*
X144532321Y-98863040D01*
X144519753Y-98931768D01*
X144472020Y-98982792D01*
X144409001Y-99000000D01*
X142545749Y-99000000D01*
X142478710Y-98980315D01*
X142453599Y-98958972D01*
X142334870Y-98827111D01*
X142181734Y-98715851D01*
X142181731Y-98715850D01*
X142181730Y-98715849D01*
X142175957Y-98713279D01*
X142122721Y-98668031D01*
X142102399Y-98601182D01*
X142121443Y-98533958D01*
X142173809Y-98487702D01*
X142175920Y-98486737D01*
X142181730Y-98484151D01*
X142334871Y-98372888D01*
X142461533Y-98232216D01*
X142556179Y-98068284D01*
X142614674Y-97888256D01*
X142634460Y-97700000D01*
X142614674Y-97511744D01*
X142556179Y-97331716D01*
X142461533Y-97167784D01*
X142334871Y-97027112D01*
X142334870Y-97027111D01*
X142181734Y-96915851D01*
X142181731Y-96915850D01*
X142181730Y-96915849D01*
X142175957Y-96913279D01*
X142122721Y-96868031D01*
X142102399Y-96801182D01*
X142121443Y-96733958D01*
X142173809Y-96687702D01*
X142175920Y-96686737D01*
X142181730Y-96684151D01*
X142334871Y-96572888D01*
X142461533Y-96432216D01*
X142556179Y-96268284D01*
X142614674Y-96088256D01*
X142634460Y-95900000D01*
X142614674Y-95711744D01*
X142556179Y-95531716D01*
X142461533Y-95367784D01*
X142334871Y-95227112D01*
X142334870Y-95227111D01*
X142181734Y-95115851D01*
X142181729Y-95115848D01*
X142008807Y-95038857D01*
X142008802Y-95038855D01*
X141826012Y-95000003D01*
X141823646Y-94999500D01*
X141634354Y-94999500D01*
X141631988Y-95000003D01*
X141449197Y-95038855D01*
X141449192Y-95038857D01*
X141276270Y-95115848D01*
X141276265Y-95115851D01*
X141123129Y-95227111D01*
X140996466Y-95367785D01*
X140901821Y-95531715D01*
X140901820Y-95531717D01*
X140896931Y-95546766D01*
X140857492Y-95604440D01*
X140793133Y-95631638D01*
X140724287Y-95619723D01*
X140672812Y-95572478D01*
X140661069Y-95546766D01*
X140656179Y-95531717D01*
X140656178Y-95531715D01*
X140647018Y-95515849D01*
X140561533Y-95367784D01*
X140434871Y-95227112D01*
X140434870Y-95227111D01*
X140281734Y-95115851D01*
X140281729Y-95115848D01*
X140108807Y-95038857D01*
X140108802Y-95038855D01*
X139926012Y-95000003D01*
X139923646Y-94999500D01*
X139734354Y-94999500D01*
X139728500Y-94999500D01*
X139661461Y-94979815D01*
X139615706Y-94927011D01*
X139604500Y-94875500D01*
X139604500Y-94865280D01*
X139623507Y-94799307D01*
X139654788Y-94749524D01*
X139654789Y-94749522D01*
X139714368Y-94579255D01*
X139719897Y-94530184D01*
X139734565Y-94400003D01*
X139734565Y-94399996D01*
X139714369Y-94220750D01*
X139714368Y-94220745D01*
X139687514Y-94144000D01*
X139654789Y-94050478D01*
X139653055Y-94047719D01*
X139558815Y-93897737D01*
X139431262Y-93770184D01*
X139278523Y-93674211D01*
X139108254Y-93614631D01*
X139108249Y-93614630D01*
X138929004Y-93594435D01*
X138928996Y-93594435D01*
X138749750Y-93614630D01*
X138749745Y-93614631D01*
X138579476Y-93674211D01*
X138426737Y-93770184D01*
X138299184Y-93897737D01*
X138203211Y-94050476D01*
X138143631Y-94220745D01*
X138143630Y-94220750D01*
X138123435Y-94399996D01*
X138123435Y-94400003D01*
X138143630Y-94579249D01*
X138143631Y-94579254D01*
X138203211Y-94749524D01*
X138234493Y-94799307D01*
X138253500Y-94865280D01*
X138253500Y-94896292D01*
X138233815Y-94963331D01*
X138181011Y-95009086D01*
X138111853Y-95019030D01*
X138103723Y-95017583D01*
X138018646Y-94999500D01*
X137829354Y-94999500D01*
X137826988Y-95000003D01*
X137644197Y-95038855D01*
X137644192Y-95038857D01*
X137471270Y-95115848D01*
X137471265Y-95115851D01*
X137318129Y-95227111D01*
X137191465Y-95367785D01*
X137133887Y-95467515D01*
X137083320Y-95515731D01*
X137014713Y-95528954D01*
X136949848Y-95502986D01*
X136919113Y-95467515D01*
X136861534Y-95367785D01*
X136774669Y-95271312D01*
X136734871Y-95227112D01*
X136734870Y-95227111D01*
X136581734Y-95115851D01*
X136581729Y-95115848D01*
X136408807Y-95038857D01*
X136408802Y-95038855D01*
X136226012Y-95000003D01*
X136223646Y-94999500D01*
X136034354Y-94999500D01*
X136031988Y-95000003D01*
X135849197Y-95038855D01*
X135849192Y-95038857D01*
X135676270Y-95115848D01*
X135676265Y-95115851D01*
X135523129Y-95227111D01*
X135396466Y-95367785D01*
X135301821Y-95531715D01*
X135301818Y-95531722D01*
X135252118Y-95684685D01*
X135243326Y-95711744D01*
X135223540Y-95900000D01*
X135243326Y-96088256D01*
X135243327Y-96088259D01*
X135301818Y-96268277D01*
X135301821Y-96268284D01*
X135396467Y-96432216D01*
X135494707Y-96541322D01*
X135523129Y-96572888D01*
X135676265Y-96684148D01*
X135676267Y-96684149D01*
X135676270Y-96684151D01*
X135682043Y-96686721D01*
X135735280Y-96731972D01*
X135755600Y-96798822D01*
X135736554Y-96866045D01*
X135684187Y-96912300D01*
X135682072Y-96913265D01*
X135679151Y-96914566D01*
X135676267Y-96915850D01*
X135676265Y-96915851D01*
X135523129Y-97027111D01*
X135396466Y-97167785D01*
X135301821Y-97331715D01*
X135301818Y-97331722D01*
X135243327Y-97511740D01*
X135243326Y-97511744D01*
X135223540Y-97700000D01*
X135243326Y-97888256D01*
X135243327Y-97888259D01*
X135301818Y-98068277D01*
X135301821Y-98068284D01*
X135396467Y-98232216D01*
X135520014Y-98369428D01*
X135523129Y-98372888D01*
X135676265Y-98484148D01*
X135676270Y-98484151D01*
X135736701Y-98511057D01*
X135789938Y-98556307D01*
X135810259Y-98623156D01*
X135791213Y-98690380D01*
X135759150Y-98724654D01*
X135618129Y-98827111D01*
X135499401Y-98958972D01*
X135439914Y-98995621D01*
X135407251Y-99000000D01*
X122730587Y-99000000D01*
X122718432Y-98999403D01*
X122541542Y-98981979D01*
X122517698Y-98977235D01*
X122353462Y-98927409D01*
X122331005Y-98918107D01*
X122300863Y-98901994D01*
X122290424Y-98896414D01*
X122240582Y-98847451D01*
X122224881Y-98787043D01*
X122225580Y-93822648D01*
X132694820Y-93822648D01*
X132694820Y-93822655D01*
X132715015Y-94001901D01*
X132715016Y-94001906D01*
X132774596Y-94172175D01*
X132838412Y-94273737D01*
X132870569Y-94324914D01*
X132998123Y-94452468D01*
X133150863Y-94548441D01*
X133288908Y-94596745D01*
X133321130Y-94608020D01*
X133321135Y-94608021D01*
X133500381Y-94628217D01*
X133500385Y-94628217D01*
X133500389Y-94628217D01*
X133679634Y-94608021D01*
X133679637Y-94608020D01*
X133679640Y-94608020D01*
X133849907Y-94548441D01*
X134002647Y-94452468D01*
X134130201Y-94324914D01*
X134226174Y-94172174D01*
X134245555Y-94116787D01*
X134286277Y-94060010D01*
X134351230Y-94034263D01*
X134419791Y-94047719D01*
X134467590Y-94091769D01*
X134474179Y-94102256D01*
X134474184Y-94102262D01*
X134601738Y-94229816D01*
X134754478Y-94325789D01*
X134894063Y-94374632D01*
X134924745Y-94385368D01*
X134924750Y-94385369D01*
X135103996Y-94405565D01*
X135104000Y-94405565D01*
X135104004Y-94405565D01*
X135283249Y-94385369D01*
X135283252Y-94385368D01*
X135283255Y-94385368D01*
X135453522Y-94325789D01*
X135606262Y-94229816D01*
X135733816Y-94102262D01*
X135829789Y-93949522D01*
X135889368Y-93779255D01*
X135895084Y-93728523D01*
X135909565Y-93600003D01*
X135909565Y-93599996D01*
X135889369Y-93420750D01*
X135889368Y-93420745D01*
X135874759Y-93378996D01*
X144235435Y-93378996D01*
X144235435Y-93379000D01*
X144255630Y-93558249D01*
X144255631Y-93558254D01*
X144315211Y-93728523D01*
X144374354Y-93822648D01*
X144411184Y-93881262D01*
X144538738Y-94008816D01*
X144607659Y-94052122D01*
X144687446Y-94102256D01*
X144691478Y-94104789D01*
X144803537Y-94144000D01*
X144861745Y-94164368D01*
X144861750Y-94164369D01*
X145040996Y-94184565D01*
X145041000Y-94184565D01*
X145041004Y-94184565D01*
X145220249Y-94164369D01*
X145220252Y-94164368D01*
X145220255Y-94164368D01*
X145390522Y-94104789D01*
X145543262Y-94008816D01*
X145670816Y-93881262D01*
X145766789Y-93728522D01*
X145826368Y-93558255D01*
X145835960Y-93473128D01*
X145846565Y-93379000D01*
X145846565Y-93378996D01*
X145826369Y-93199750D01*
X145826368Y-93199745D01*
X145823950Y-93192836D01*
X145766789Y-93029478D01*
X145670816Y-92876738D01*
X145665074Y-92870996D01*
X150839435Y-92870996D01*
X150839435Y-92871003D01*
X150859630Y-93050249D01*
X150859631Y-93050254D01*
X150919211Y-93220523D01*
X150981962Y-93320390D01*
X151015184Y-93373262D01*
X151142738Y-93500816D01*
X151173110Y-93519900D01*
X151291731Y-93594435D01*
X151295478Y-93596789D01*
X151408248Y-93636249D01*
X151465745Y-93656368D01*
X151465750Y-93656369D01*
X151644996Y-93676565D01*
X151645000Y-93676565D01*
X151645004Y-93676565D01*
X151824249Y-93656369D01*
X151824252Y-93656368D01*
X151824255Y-93656368D01*
X151994522Y-93596789D01*
X152147262Y-93500816D01*
X152274816Y-93373262D01*
X152370789Y-93220522D01*
X152430368Y-93050255D01*
X152430369Y-93050249D01*
X152450565Y-92871003D01*
X152450565Y-92870996D01*
X152430369Y-92691750D01*
X152430368Y-92691745D01*
X152411988Y-92639219D01*
X152370789Y-92521478D01*
X152353298Y-92493642D01*
X152351007Y-92489996D01*
X153323435Y-92489996D01*
X153323435Y-92490003D01*
X153343630Y-92669249D01*
X153343631Y-92669254D01*
X153403211Y-92839523D01*
X153485311Y-92970184D01*
X153499184Y-92992262D01*
X153626738Y-93119816D01*
X153717080Y-93176582D01*
X153742948Y-93192836D01*
X153779478Y-93215789D01*
X153949745Y-93275368D01*
X153949750Y-93275369D01*
X154128996Y-93295565D01*
X154129000Y-93295565D01*
X154129004Y-93295565D01*
X154308249Y-93275369D01*
X154308252Y-93275368D01*
X154308255Y-93275368D01*
X154478522Y-93215789D01*
X154631262Y-93119816D01*
X154758816Y-92992262D01*
X154854789Y-92839522D01*
X154914368Y-92669255D01*
X154916176Y-92653211D01*
X154934565Y-92490003D01*
X154934565Y-92489996D01*
X154914369Y-92310750D01*
X154914368Y-92310745D01*
X154854789Y-92140478D01*
X154829352Y-92099996D01*
X154807636Y-92065435D01*
X154758816Y-91987738D01*
X154631262Y-91860184D01*
X154478523Y-91764211D01*
X154308254Y-91704631D01*
X154308249Y-91704630D01*
X154129004Y-91684435D01*
X154128996Y-91684435D01*
X153949750Y-91704630D01*
X153949745Y-91704631D01*
X153779476Y-91764211D01*
X153626737Y-91860184D01*
X153499184Y-91987737D01*
X153403211Y-92140476D01*
X153343631Y-92310745D01*
X153343630Y-92310750D01*
X153323435Y-92489996D01*
X152351007Y-92489996D01*
X152274815Y-92368737D01*
X152147262Y-92241184D01*
X151994523Y-92145211D01*
X151824254Y-92085631D01*
X151824249Y-92085630D01*
X151645004Y-92065435D01*
X151644996Y-92065435D01*
X151465750Y-92085630D01*
X151465745Y-92085631D01*
X151295476Y-92145211D01*
X151142737Y-92241184D01*
X151015184Y-92368737D01*
X150919211Y-92521476D01*
X150859631Y-92691745D01*
X150859630Y-92691750D01*
X150839435Y-92870996D01*
X145665074Y-92870996D01*
X145543262Y-92749184D01*
X145539863Y-92745785D01*
X145506378Y-92684462D01*
X145511362Y-92614770D01*
X145553234Y-92558837D01*
X145561563Y-92553116D01*
X145670262Y-92484816D01*
X145797816Y-92357262D01*
X145893789Y-92204522D01*
X145953368Y-92034255D01*
X145953410Y-92033884D01*
X145973565Y-91855003D01*
X145973565Y-91854996D01*
X145953369Y-91675750D01*
X145953368Y-91675745D01*
X145905275Y-91538303D01*
X145893789Y-91505478D01*
X145797816Y-91352738D01*
X145670262Y-91225184D01*
X145517523Y-91129211D01*
X145347254Y-91069631D01*
X145347249Y-91069630D01*
X145168004Y-91049435D01*
X145167996Y-91049435D01*
X144988750Y-91069630D01*
X144988745Y-91069631D01*
X144818476Y-91129211D01*
X144665737Y-91225184D01*
X144538184Y-91352737D01*
X144442211Y-91505476D01*
X144382631Y-91675745D01*
X144382630Y-91675750D01*
X144362435Y-91854996D01*
X144362435Y-91855003D01*
X144382630Y-92034249D01*
X144382631Y-92034254D01*
X144442211Y-92204523D01*
X144538184Y-92357262D01*
X144669136Y-92488214D01*
X144702621Y-92549537D01*
X144697637Y-92619229D01*
X144655765Y-92675162D01*
X144647428Y-92680888D01*
X144538740Y-92749182D01*
X144538737Y-92749184D01*
X144411184Y-92876737D01*
X144315211Y-93029476D01*
X144255631Y-93199745D01*
X144255630Y-93199750D01*
X144235435Y-93378996D01*
X135874759Y-93378996D01*
X135849170Y-93305867D01*
X135829789Y-93250478D01*
X135810966Y-93220522D01*
X135790582Y-93188080D01*
X135733816Y-93097738D01*
X135606262Y-92970184D01*
X135503422Y-92905565D01*
X135453523Y-92874211D01*
X135283254Y-92814631D01*
X135283249Y-92814630D01*
X135104004Y-92794435D01*
X135103996Y-92794435D01*
X134924750Y-92814630D01*
X134924745Y-92814631D01*
X134754476Y-92874211D01*
X134601737Y-92970184D01*
X134474184Y-93097737D01*
X134378210Y-93250478D01*
X134358828Y-93305867D01*
X134318105Y-93362642D01*
X134253152Y-93388388D01*
X134184591Y-93374931D01*
X134136794Y-93330883D01*
X134130201Y-93320390D01*
X134002647Y-93192836D01*
X133849908Y-93096863D01*
X133679639Y-93037283D01*
X133679634Y-93037282D01*
X133500389Y-93017087D01*
X133500381Y-93017087D01*
X133321135Y-93037282D01*
X133321130Y-93037283D01*
X133150861Y-93096863D01*
X132998122Y-93192836D01*
X132870569Y-93320389D01*
X132774596Y-93473128D01*
X132715016Y-93643397D01*
X132715015Y-93643402D01*
X132694820Y-93822648D01*
X122225580Y-93822648D01*
X122225823Y-92099996D01*
X124923435Y-92099996D01*
X124923435Y-92100003D01*
X124943630Y-92279249D01*
X124943631Y-92279254D01*
X125003211Y-92449523D01*
X125068300Y-92553110D01*
X125099184Y-92602262D01*
X125226738Y-92729816D01*
X125257559Y-92749182D01*
X125361721Y-92814632D01*
X125379478Y-92825789D01*
X125418725Y-92839522D01*
X125549745Y-92885368D01*
X125549750Y-92885369D01*
X125728996Y-92905565D01*
X125729000Y-92905565D01*
X125729004Y-92905565D01*
X125908249Y-92885369D01*
X125908252Y-92885368D01*
X125908255Y-92885368D01*
X126078522Y-92825789D01*
X126231262Y-92729816D01*
X126358816Y-92602262D01*
X126454789Y-92449522D01*
X126514368Y-92279255D01*
X126518658Y-92241184D01*
X126534565Y-92100003D01*
X126534565Y-92099996D01*
X126514369Y-91920750D01*
X126514368Y-91920745D01*
X126465319Y-91780571D01*
X126454789Y-91750478D01*
X126380658Y-91632500D01*
X132823540Y-91632500D01*
X132843326Y-91820756D01*
X132843327Y-91820759D01*
X132901818Y-92000777D01*
X132901821Y-92000784D01*
X132996467Y-92164716D01*
X133099593Y-92279249D01*
X133123129Y-92305388D01*
X133276265Y-92416648D01*
X133276270Y-92416651D01*
X133449192Y-92493642D01*
X133449197Y-92493644D01*
X133634354Y-92533000D01*
X133634355Y-92533000D01*
X133823644Y-92533000D01*
X133823646Y-92533000D01*
X134008803Y-92493644D01*
X134181730Y-92416651D01*
X134334871Y-92305388D01*
X134461533Y-92164716D01*
X134556179Y-92000784D01*
X134614674Y-91820756D01*
X134634460Y-91632500D01*
X134631044Y-91599996D01*
X135623435Y-91599996D01*
X135623435Y-91600003D01*
X135643630Y-91779249D01*
X135643631Y-91779254D01*
X135703211Y-91949523D01*
X135756452Y-92034255D01*
X135799184Y-92102262D01*
X135926738Y-92229816D01*
X136005410Y-92279249D01*
X136055543Y-92310750D01*
X136079478Y-92325789D01*
X136202219Y-92368738D01*
X136249745Y-92385368D01*
X136249750Y-92385369D01*
X136428996Y-92405565D01*
X136429000Y-92405565D01*
X136429004Y-92405565D01*
X136608249Y-92385369D01*
X136608252Y-92385368D01*
X136608255Y-92385368D01*
X136778522Y-92325789D01*
X136931262Y-92229816D01*
X137058816Y-92102262D01*
X137154789Y-91949522D01*
X137214368Y-91779255D01*
X137216063Y-91764211D01*
X137234565Y-91600003D01*
X137234565Y-91599996D01*
X137214369Y-91420750D01*
X137214368Y-91420745D01*
X137166998Y-91285369D01*
X137154789Y-91250478D01*
X137058816Y-91097738D01*
X136931262Y-90970184D01*
X136847763Y-90917718D01*
X136778523Y-90874211D01*
X136608254Y-90814631D01*
X136608249Y-90814630D01*
X136429004Y-90794435D01*
X136428996Y-90794435D01*
X136249750Y-90814630D01*
X136249745Y-90814631D01*
X136079476Y-90874211D01*
X135926737Y-90970184D01*
X135799184Y-91097737D01*
X135703211Y-91250476D01*
X135643631Y-91420745D01*
X135643630Y-91420750D01*
X135623435Y-91599996D01*
X134631044Y-91599996D01*
X134614674Y-91444244D01*
X134556179Y-91264216D01*
X134461533Y-91100284D01*
X134334871Y-90959612D01*
X134277209Y-90917718D01*
X134181734Y-90848351D01*
X134181729Y-90848348D01*
X134008807Y-90771357D01*
X134008802Y-90771355D01*
X133863001Y-90740365D01*
X133823646Y-90732000D01*
X133634354Y-90732000D01*
X133601897Y-90738898D01*
X133449197Y-90771355D01*
X133449192Y-90771357D01*
X133276270Y-90848348D01*
X133276265Y-90848351D01*
X133123129Y-90959611D01*
X132996466Y-91100285D01*
X132901821Y-91264215D01*
X132901818Y-91264222D01*
X132843327Y-91444240D01*
X132843326Y-91444244D01*
X132823540Y-91632500D01*
X126380658Y-91632500D01*
X126358816Y-91597738D01*
X126231262Y-91470184D01*
X126189979Y-91444244D01*
X126078523Y-91374211D01*
X125908254Y-91314631D01*
X125908249Y-91314630D01*
X125729004Y-91294435D01*
X125728996Y-91294435D01*
X125549750Y-91314630D01*
X125549745Y-91314631D01*
X125379476Y-91374211D01*
X125226737Y-91470184D01*
X125099184Y-91597737D01*
X125003211Y-91750476D01*
X124943631Y-91920745D01*
X124943630Y-91920750D01*
X124923435Y-92099996D01*
X122225823Y-92099996D01*
X122226048Y-90499996D01*
X153123435Y-90499996D01*
X153123435Y-90500003D01*
X153143630Y-90679249D01*
X153143631Y-90679254D01*
X153203211Y-90849523D01*
X153272385Y-90959612D01*
X153299184Y-91002262D01*
X153426738Y-91129816D01*
X153579478Y-91225789D01*
X153749745Y-91285368D01*
X153749750Y-91285369D01*
X153928996Y-91305565D01*
X153929000Y-91305565D01*
X153929004Y-91305565D01*
X154108249Y-91285369D01*
X154108252Y-91285368D01*
X154108255Y-91285368D01*
X154278522Y-91225789D01*
X154431262Y-91129816D01*
X154558816Y-91002262D01*
X154654789Y-90849522D01*
X154714368Y-90679255D01*
X154714369Y-90679249D01*
X154734565Y-90500003D01*
X154734565Y-90499996D01*
X154714369Y-90320750D01*
X154714368Y-90320745D01*
X154654789Y-90150478D01*
X154635993Y-90120565D01*
X154558815Y-89997737D01*
X154431262Y-89870184D01*
X154278523Y-89774211D01*
X154108254Y-89714631D01*
X154108249Y-89714630D01*
X153929004Y-89694435D01*
X153928996Y-89694435D01*
X153749750Y-89714630D01*
X153749745Y-89714631D01*
X153579476Y-89774211D01*
X153426737Y-89870184D01*
X153299184Y-89997737D01*
X153203211Y-90150476D01*
X153143631Y-90320745D01*
X153143630Y-90320750D01*
X153123435Y-90499996D01*
X122226048Y-90499996D01*
X122226175Y-89599996D01*
X129923435Y-89599996D01*
X129923435Y-89600003D01*
X129943630Y-89779249D01*
X129943631Y-89779254D01*
X130003211Y-89949523D01*
X130033507Y-89997738D01*
X130099184Y-90102262D01*
X130226738Y-90229816D01*
X130317080Y-90286582D01*
X130371450Y-90320745D01*
X130379478Y-90325789D01*
X130549745Y-90385368D01*
X130549750Y-90385369D01*
X130728996Y-90405565D01*
X130729000Y-90405565D01*
X130729004Y-90405565D01*
X130908249Y-90385369D01*
X130908252Y-90385368D01*
X130908255Y-90385368D01*
X131078522Y-90325789D01*
X131231262Y-90229816D01*
X131358816Y-90102262D01*
X131454789Y-89949522D01*
X131514368Y-89779255D01*
X131514369Y-89779249D01*
X131534565Y-89600003D01*
X131534565Y-89599996D01*
X131514369Y-89420750D01*
X131514368Y-89420745D01*
X131499848Y-89379249D01*
X131454789Y-89250478D01*
X131358816Y-89097738D01*
X131231262Y-88970184D01*
X131078523Y-88874211D01*
X130908254Y-88814631D01*
X130908249Y-88814630D01*
X130729004Y-88794435D01*
X130728996Y-88794435D01*
X130549750Y-88814630D01*
X130549745Y-88814631D01*
X130379476Y-88874211D01*
X130226737Y-88970184D01*
X130099184Y-89097737D01*
X130003211Y-89250476D01*
X129943631Y-89420745D01*
X129943630Y-89420750D01*
X129923435Y-89599996D01*
X122226175Y-89599996D01*
X122227175Y-82499985D01*
X127028500Y-82499985D01*
X127028500Y-85999999D01*
X127028501Y-86000016D01*
X127039000Y-86102795D01*
X127039001Y-86102798D01*
X127047775Y-86129275D01*
X127094186Y-86269333D01*
X127186289Y-86418655D01*
X127310345Y-86542711D01*
X127459667Y-86634814D01*
X127626204Y-86689999D01*
X127728993Y-86700500D01*
X131229006Y-86700499D01*
X131331796Y-86689999D01*
X131498333Y-86634814D01*
X131647655Y-86542711D01*
X131771711Y-86418655D01*
X131863814Y-86269333D01*
X131918999Y-86102796D01*
X131929500Y-86000007D01*
X131929499Y-82499994D01*
X131918999Y-82397204D01*
X131863814Y-82230667D01*
X131771711Y-82081345D01*
X131647655Y-81957289D01*
X131498333Y-81865186D01*
X131331796Y-81810001D01*
X131331794Y-81810000D01*
X131229008Y-81799500D01*
X127729000Y-81799500D01*
X127728983Y-81799501D01*
X127626204Y-81810000D01*
X127626201Y-81810001D01*
X127459669Y-81865185D01*
X127459664Y-81865187D01*
X127310343Y-81957290D01*
X127186290Y-82081343D01*
X127094187Y-82230664D01*
X127094185Y-82230669D01*
X127081091Y-82270184D01*
X127039001Y-82397204D01*
X127039001Y-82397205D01*
X127039000Y-82397205D01*
X127028500Y-82499985D01*
X122227175Y-82499985D01*
X122227928Y-77155997D01*
X125008652Y-77155997D01*
X125008652Y-77156002D01*
X125028028Y-77513368D01*
X125028029Y-77513385D01*
X125085926Y-77866539D01*
X125085932Y-77866565D01*
X125181672Y-78211392D01*
X125181674Y-78211399D01*
X125314142Y-78543870D01*
X125314151Y-78543888D01*
X125481784Y-78860077D01*
X125481787Y-78860082D01*
X125481789Y-78860085D01*
X125666138Y-79131980D01*
X125682634Y-79156309D01*
X125682641Y-79156319D01*
X125887704Y-79397737D01*
X125914332Y-79429086D01*
X126174163Y-79675211D01*
X126459081Y-79891800D01*
X126765747Y-80076315D01*
X126765749Y-80076316D01*
X126765751Y-80076317D01*
X126765755Y-80076319D01*
X126977347Y-80174211D01*
X127090565Y-80226591D01*
X127429726Y-80340868D01*
X127779254Y-80417805D01*
X128135052Y-80456500D01*
X128135058Y-80456500D01*
X128492942Y-80456500D01*
X128492948Y-80456500D01*
X128848746Y-80417805D01*
X129198274Y-80340868D01*
X129537435Y-80226591D01*
X129862253Y-80076315D01*
X130168919Y-79891800D01*
X130453837Y-79675211D01*
X130713668Y-79429086D01*
X130945365Y-79156311D01*
X131146211Y-78860085D01*
X131313853Y-78543880D01*
X131446324Y-78211403D01*
X131491138Y-78049996D01*
X132153435Y-78049996D01*
X132153435Y-78050003D01*
X132173630Y-78229249D01*
X132173631Y-78229254D01*
X132233211Y-78399524D01*
X132264493Y-78449307D01*
X132283500Y-78515280D01*
X132283500Y-78696535D01*
X132309457Y-78827028D01*
X132309459Y-78827036D01*
X132360378Y-78949965D01*
X132360383Y-78949975D01*
X132434304Y-79060605D01*
X132434307Y-79060609D01*
X134880989Y-81507290D01*
X134914474Y-81568613D01*
X134917308Y-81594971D01*
X134917308Y-88293034D01*
X134897623Y-88360073D01*
X134885458Y-88376006D01*
X134860278Y-88403970D01*
X134860273Y-88403977D01*
X134765629Y-88567907D01*
X134765626Y-88567914D01*
X134707135Y-88747932D01*
X134707134Y-88747936D01*
X134687348Y-88936192D01*
X134707134Y-89124448D01*
X134707135Y-89124451D01*
X134765626Y-89304469D01*
X134765629Y-89304476D01*
X134860275Y-89468408D01*
X134978758Y-89599996D01*
X134986937Y-89609080D01*
X135140073Y-89720340D01*
X135140078Y-89720343D01*
X135313000Y-89797334D01*
X135313005Y-89797336D01*
X135498162Y-89836692D01*
X135498163Y-89836692D01*
X135687452Y-89836692D01*
X135687454Y-89836692D01*
X135872611Y-89797336D01*
X136045538Y-89720343D01*
X136112924Y-89671383D01*
X136178730Y-89647903D01*
X136246784Y-89663728D01*
X136258694Y-89671382D01*
X136276266Y-89684148D01*
X136276270Y-89684151D01*
X136449192Y-89761142D01*
X136449197Y-89761144D01*
X136634354Y-89800500D01*
X136634355Y-89800500D01*
X136823644Y-89800500D01*
X136823646Y-89800500D01*
X137008803Y-89761144D01*
X137181730Y-89684151D01*
X137334871Y-89572888D01*
X137461533Y-89432216D01*
X137529210Y-89314996D01*
X155856435Y-89314996D01*
X155856435Y-89315003D01*
X155876630Y-89494249D01*
X155876631Y-89494254D01*
X155936211Y-89664523D01*
X156019662Y-89797334D01*
X156032184Y-89817262D01*
X156159738Y-89944816D01*
X156312478Y-90040789D01*
X156482745Y-90100368D01*
X156482750Y-90100369D01*
X156661996Y-90120565D01*
X156662000Y-90120565D01*
X156662004Y-90120565D01*
X156841249Y-90100369D01*
X156841252Y-90100368D01*
X156841255Y-90100368D01*
X157011522Y-90040789D01*
X157164262Y-89944816D01*
X157291816Y-89817262D01*
X157387789Y-89664522D01*
X157447368Y-89494255D01*
X157447369Y-89494249D01*
X157467565Y-89315003D01*
X157467565Y-89314996D01*
X157447369Y-89135750D01*
X157447368Y-89135745D01*
X157430751Y-89088256D01*
X157387789Y-88965478D01*
X157369387Y-88936192D01*
X157330442Y-88874211D01*
X157291816Y-88812738D01*
X157179074Y-88699996D01*
X159423435Y-88699996D01*
X159423435Y-88700003D01*
X159443630Y-88879249D01*
X159443631Y-88879254D01*
X159503211Y-89049523D01*
X159572718Y-89160142D01*
X159599184Y-89202262D01*
X159726738Y-89329816D01*
X159805410Y-89379249D01*
X159871450Y-89420745D01*
X159879478Y-89425789D01*
X160001276Y-89468408D01*
X160049745Y-89485368D01*
X160049750Y-89485369D01*
X160228996Y-89505565D01*
X160229000Y-89505565D01*
X160229004Y-89505565D01*
X160408249Y-89485369D01*
X160408252Y-89485368D01*
X160408255Y-89485368D01*
X160578522Y-89425789D01*
X160731262Y-89329816D01*
X160858816Y-89202262D01*
X160860240Y-89199996D01*
X171923429Y-89199996D01*
X171923429Y-89200003D01*
X171943624Y-89379249D01*
X171943625Y-89379254D01*
X172003205Y-89549523D01*
X172046502Y-89618429D01*
X172099178Y-89702262D01*
X172226732Y-89829816D01*
X172379472Y-89925789D01*
X172447300Y-89949523D01*
X172549739Y-89985368D01*
X172549744Y-89985369D01*
X172728990Y-90005565D01*
X172728994Y-90005565D01*
X172728998Y-90005565D01*
X172908243Y-89985369D01*
X172908246Y-89985368D01*
X172908249Y-89985368D01*
X173078516Y-89925789D01*
X173231256Y-89829816D01*
X173358810Y-89702262D01*
X173454783Y-89549522D01*
X173514362Y-89379255D01*
X173514363Y-89379249D01*
X173534559Y-89200003D01*
X173534559Y-89199997D01*
X173524256Y-89108559D01*
X173536310Y-89039737D01*
X173559795Y-89006994D01*
X173601313Y-88965476D01*
X173664527Y-88902262D01*
X173760500Y-88749522D01*
X173820079Y-88579255D01*
X173821357Y-88567914D01*
X173840276Y-88400003D01*
X173840276Y-88399996D01*
X173820080Y-88220750D01*
X173820079Y-88220745D01*
X173812819Y-88199996D01*
X173760500Y-88050478D01*
X173741817Y-88020745D01*
X173685248Y-87930715D01*
X173664527Y-87897738D01*
X173536973Y-87770184D01*
X173515743Y-87756844D01*
X173384234Y-87674211D01*
X173213965Y-87614631D01*
X173213960Y-87614630D01*
X173034715Y-87594435D01*
X173034707Y-87594435D01*
X172855461Y-87614630D01*
X172855456Y-87614631D01*
X172685187Y-87674211D01*
X172532448Y-87770184D01*
X172404895Y-87897737D01*
X172308922Y-88050476D01*
X172249342Y-88220745D01*
X172249341Y-88220750D01*
X172229146Y-88399996D01*
X172229146Y-88400003D01*
X172239448Y-88491441D01*
X172227393Y-88560263D01*
X172203910Y-88593004D01*
X172099179Y-88697736D01*
X172099178Y-88697737D01*
X172003205Y-88850476D01*
X171943625Y-89020745D01*
X171943624Y-89020750D01*
X171923429Y-89199996D01*
X160860240Y-89199996D01*
X160914997Y-89112849D01*
X160967330Y-89066560D01*
X161036384Y-89055911D01*
X161092877Y-89078506D01*
X161099269Y-89083150D01*
X161099270Y-89083151D01*
X161272192Y-89160142D01*
X161272197Y-89160144D01*
X161457354Y-89199500D01*
X161457355Y-89199500D01*
X161646644Y-89199500D01*
X161646646Y-89199500D01*
X161831803Y-89160144D01*
X162004730Y-89083151D01*
X162157871Y-88971888D01*
X162284533Y-88831216D01*
X162379179Y-88667284D01*
X162437674Y-88487256D01*
X162457460Y-88299000D01*
X162437674Y-88110744D01*
X162379179Y-87930716D01*
X162284533Y-87766784D01*
X162157871Y-87626112D01*
X162157870Y-87626111D01*
X162004734Y-87514851D01*
X162004729Y-87514848D01*
X161831807Y-87437857D01*
X161831802Y-87437855D01*
X161686001Y-87406865D01*
X161653684Y-87399996D01*
X165223435Y-87399996D01*
X165223435Y-87400003D01*
X165243630Y-87579249D01*
X165243633Y-87579262D01*
X165305510Y-87756094D01*
X165303364Y-87756844D01*
X165312962Y-87815144D01*
X165304609Y-87843590D01*
X165305510Y-87843906D01*
X165243633Y-88020737D01*
X165243630Y-88020750D01*
X165223435Y-88199996D01*
X165223435Y-88200003D01*
X165243630Y-88379249D01*
X165243631Y-88379254D01*
X165303211Y-88549523D01*
X165356069Y-88633645D01*
X165399184Y-88702262D01*
X165526738Y-88829816D01*
X165679478Y-88925789D01*
X165849745Y-88985368D01*
X165849750Y-88985369D01*
X166028996Y-89005565D01*
X166029000Y-89005565D01*
X166029004Y-89005565D01*
X166208249Y-88985369D01*
X166208252Y-88985368D01*
X166208255Y-88985368D01*
X166378522Y-88925789D01*
X166531262Y-88829816D01*
X166658816Y-88702262D01*
X166754789Y-88549522D01*
X166814368Y-88379255D01*
X166814734Y-88376006D01*
X166834565Y-88200003D01*
X166834565Y-88199996D01*
X167723435Y-88199996D01*
X167723435Y-88200003D01*
X167743630Y-88379249D01*
X167743631Y-88379254D01*
X167803211Y-88549523D01*
X167856069Y-88633645D01*
X167899184Y-88702262D01*
X168026738Y-88829816D01*
X168179478Y-88925789D01*
X168349745Y-88985368D01*
X168349750Y-88985369D01*
X168528996Y-89005565D01*
X168529000Y-89005565D01*
X168529004Y-89005565D01*
X168708249Y-88985369D01*
X168708252Y-88985368D01*
X168708255Y-88985368D01*
X168878522Y-88925789D01*
X169031262Y-88829816D01*
X169158816Y-88702262D01*
X169158816Y-88702261D01*
X169163741Y-88697337D01*
X169165473Y-88699069D01*
X169213306Y-88665477D01*
X169283116Y-88662609D01*
X169294042Y-88665876D01*
X169349745Y-88685368D01*
X169349751Y-88685368D01*
X169349753Y-88685369D01*
X169528996Y-88705565D01*
X169529000Y-88705565D01*
X169529004Y-88705565D01*
X169708249Y-88685369D01*
X169708252Y-88685368D01*
X169708255Y-88685368D01*
X169878522Y-88625789D01*
X170031262Y-88529816D01*
X170158816Y-88402262D01*
X170254789Y-88249522D01*
X170314368Y-88079255D01*
X170315390Y-88070184D01*
X170334565Y-87900003D01*
X170334565Y-87899996D01*
X170314369Y-87720750D01*
X170314368Y-87720745D01*
X170308187Y-87703082D01*
X170254789Y-87550478D01*
X170158816Y-87397738D01*
X170031262Y-87270184D01*
X170031261Y-87270183D01*
X170011369Y-87257684D01*
X169965078Y-87205349D01*
X169954430Y-87136296D01*
X169969954Y-87090690D01*
X170015311Y-87012130D01*
X170073806Y-86832102D01*
X170093592Y-86643846D01*
X170073806Y-86455590D01*
X170015311Y-86275562D01*
X169920665Y-86111630D01*
X169794003Y-85970958D01*
X169765179Y-85950016D01*
X169640866Y-85859697D01*
X169640861Y-85859694D01*
X169467939Y-85782703D01*
X169467934Y-85782701D01*
X169322133Y-85751711D01*
X169282778Y-85743346D01*
X169093486Y-85743346D01*
X169061029Y-85750244D01*
X168908329Y-85782701D01*
X168908324Y-85782703D01*
X168735402Y-85859694D01*
X168735397Y-85859697D01*
X168582261Y-85970957D01*
X168455598Y-86111631D01*
X168360953Y-86275561D01*
X168360950Y-86275568D01*
X168302459Y-86455586D01*
X168302458Y-86455590D01*
X168282672Y-86643846D01*
X168302458Y-86832102D01*
X168302459Y-86832105D01*
X168360950Y-87012123D01*
X168360953Y-87012130D01*
X168455599Y-87176062D01*
X168471482Y-87193702D01*
X168479526Y-87202636D01*
X168509755Y-87265627D01*
X168501129Y-87334963D01*
X168456387Y-87388628D01*
X168401259Y-87408827D01*
X168349749Y-87414630D01*
X168349745Y-87414631D01*
X168179476Y-87474211D01*
X168026737Y-87570184D01*
X167899184Y-87697737D01*
X167803211Y-87850476D01*
X167743631Y-88020745D01*
X167743630Y-88020750D01*
X167723435Y-88199996D01*
X166834565Y-88199996D01*
X166814369Y-88020750D01*
X166814366Y-88020737D01*
X166752489Y-87843905D01*
X166754637Y-87843153D01*
X166745035Y-87784872D01*
X166753392Y-87756411D01*
X166752489Y-87756095D01*
X166814366Y-87579262D01*
X166814369Y-87579249D01*
X166834565Y-87400003D01*
X166834565Y-87399996D01*
X166814369Y-87220750D01*
X166814368Y-87220745D01*
X166784818Y-87136296D01*
X166754789Y-87050478D01*
X166658816Y-86897738D01*
X166531262Y-86770184D01*
X166420361Y-86700500D01*
X166378523Y-86674211D01*
X166208254Y-86614631D01*
X166208249Y-86614630D01*
X166029004Y-86594435D01*
X166028996Y-86594435D01*
X165849750Y-86614630D01*
X165849745Y-86614631D01*
X165679476Y-86674211D01*
X165526737Y-86770184D01*
X165399184Y-86897737D01*
X165303211Y-87050476D01*
X165243631Y-87220745D01*
X165243630Y-87220750D01*
X165223435Y-87399996D01*
X161653684Y-87399996D01*
X161646646Y-87398500D01*
X161457354Y-87398500D01*
X161424897Y-87405398D01*
X161272197Y-87437855D01*
X161272192Y-87437857D01*
X161099270Y-87514848D01*
X161099265Y-87514851D01*
X160946129Y-87626111D01*
X160819465Y-87766785D01*
X160730710Y-87920515D01*
X160680143Y-87968731D01*
X160611536Y-87981954D01*
X160582368Y-87975556D01*
X160408262Y-87914633D01*
X160408249Y-87914630D01*
X160229004Y-87894435D01*
X160228996Y-87894435D01*
X160049750Y-87914630D01*
X160049745Y-87914631D01*
X159879476Y-87974211D01*
X159726737Y-88070184D01*
X159599184Y-88197737D01*
X159503211Y-88350476D01*
X159443631Y-88520745D01*
X159443630Y-88520750D01*
X159423435Y-88699996D01*
X157179074Y-88699996D01*
X157164262Y-88685184D01*
X157011523Y-88589211D01*
X156841254Y-88529631D01*
X156841249Y-88529630D01*
X156662004Y-88509435D01*
X156661996Y-88509435D01*
X156482750Y-88529630D01*
X156482745Y-88529631D01*
X156312476Y-88589211D01*
X156159737Y-88685184D01*
X156032184Y-88812737D01*
X155936211Y-88965476D01*
X155876631Y-89135745D01*
X155876630Y-89135750D01*
X155856435Y-89314996D01*
X137529210Y-89314996D01*
X137556179Y-89268284D01*
X137614674Y-89088256D01*
X137634460Y-88900000D01*
X137614674Y-88711744D01*
X137598700Y-88662584D01*
X137596704Y-88592745D01*
X137632784Y-88532911D01*
X137671837Y-88508640D01*
X137721637Y-88489348D01*
X137895041Y-88381981D01*
X138045764Y-88244579D01*
X138168673Y-88081821D01*
X138259582Y-87899250D01*
X138315397Y-87703083D01*
X138334215Y-87500000D01*
X138326304Y-87414630D01*
X138315397Y-87296917D01*
X138288571Y-87202636D01*
X138259582Y-87100750D01*
X138168673Y-86918179D01*
X138103671Y-86832102D01*
X138045762Y-86755418D01*
X137895041Y-86618019D01*
X137895039Y-86618017D01*
X137721642Y-86510655D01*
X137721635Y-86510651D01*
X137626546Y-86473814D01*
X137531456Y-86436976D01*
X137330976Y-86399500D01*
X137330974Y-86399500D01*
X137325341Y-86398447D01*
X137325647Y-86396808D01*
X137267926Y-86373874D01*
X137227251Y-86317065D01*
X137223745Y-86247284D01*
X137227280Y-86235261D01*
X137264368Y-86129271D01*
X137267351Y-86102795D01*
X137284565Y-85950019D01*
X137284565Y-85950012D01*
X137264369Y-85770766D01*
X137264368Y-85770761D01*
X137221942Y-85649515D01*
X137204789Y-85600494D01*
X137108816Y-85447754D01*
X136981262Y-85320200D01*
X136981259Y-85320198D01*
X136973391Y-85315254D01*
X136927100Y-85262919D01*
X136916453Y-85193865D01*
X136944829Y-85130017D01*
X137003219Y-85091646D01*
X137062145Y-85088372D01*
X137127024Y-85100500D01*
X137127027Y-85100500D01*
X137330974Y-85100500D01*
X137330976Y-85100500D01*
X137531456Y-85063024D01*
X137721637Y-84989348D01*
X137895041Y-84881981D01*
X138045764Y-84744579D01*
X138168673Y-84581821D01*
X138259582Y-84399250D01*
X138315397Y-84203083D01*
X138334215Y-84000000D01*
X138331275Y-83968277D01*
X138315397Y-83796917D01*
X138266706Y-83625788D01*
X138259582Y-83600750D01*
X138259209Y-83600000D01*
X157023540Y-83600000D01*
X157043326Y-83788256D01*
X157043327Y-83788259D01*
X157101818Y-83968277D01*
X157101821Y-83968284D01*
X157196467Y-84132216D01*
X157293592Y-84240084D01*
X157323129Y-84272888D01*
X157476265Y-84384148D01*
X157476270Y-84384151D01*
X157613470Y-84445238D01*
X157666707Y-84490489D01*
X157687028Y-84557338D01*
X157667982Y-84624561D01*
X157650716Y-84646197D01*
X157599176Y-84697737D01*
X157503203Y-84850476D01*
X157443623Y-85020745D01*
X157443622Y-85020750D01*
X157423427Y-85199996D01*
X157423427Y-85200003D01*
X157443622Y-85379249D01*
X157443623Y-85379254D01*
X157503203Y-85549523D01*
X157554895Y-85631789D01*
X157599176Y-85702262D01*
X157726730Y-85829816D01*
X157879470Y-85925789D01*
X158008553Y-85970957D01*
X158049737Y-85985368D01*
X158049742Y-85985369D01*
X158228988Y-86005565D01*
X158228992Y-86005565D01*
X158228996Y-86005565D01*
X158408241Y-85985369D01*
X158408244Y-85985368D01*
X158408247Y-85985368D01*
X158578514Y-85925789D01*
X158731254Y-85829816D01*
X158858808Y-85702262D01*
X158874002Y-85678081D01*
X158926336Y-85631789D01*
X158995389Y-85621140D01*
X159059238Y-85649515D01*
X159083990Y-85678081D01*
X159099181Y-85702259D01*
X159099184Y-85702262D01*
X159226738Y-85829816D01*
X159379478Y-85925789D01*
X159508561Y-85970957D01*
X159549745Y-85985368D01*
X159549750Y-85985369D01*
X159728996Y-86005565D01*
X159729000Y-86005565D01*
X159729004Y-86005565D01*
X159908249Y-85985369D01*
X159908252Y-85985368D01*
X159908255Y-85985368D01*
X160078522Y-85925789D01*
X160231262Y-85829816D01*
X160358816Y-85702262D01*
X160454789Y-85549522D01*
X160514368Y-85379255D01*
X160527476Y-85262919D01*
X160534565Y-85200003D01*
X160534565Y-85199996D01*
X160514369Y-85020750D01*
X160514368Y-85020745D01*
X160495691Y-84967369D01*
X160454789Y-84850478D01*
X160430495Y-84811815D01*
X160388248Y-84744579D01*
X160358816Y-84697738D01*
X160231262Y-84570184D01*
X160182601Y-84539608D01*
X160078523Y-84474211D01*
X159908254Y-84414631D01*
X159908249Y-84414630D01*
X159729004Y-84394435D01*
X159728996Y-84394435D01*
X159549750Y-84414630D01*
X159549745Y-84414631D01*
X159379476Y-84474211D01*
X159226737Y-84570184D01*
X159099184Y-84697737D01*
X159099182Y-84697740D01*
X159083989Y-84721920D01*
X159031654Y-84768211D01*
X158962601Y-84778858D01*
X158898753Y-84750483D01*
X158874003Y-84721920D01*
X158858809Y-84697740D01*
X158858807Y-84697737D01*
X158731254Y-84570184D01*
X158578508Y-84474207D01*
X158572239Y-84471188D01*
X158573401Y-84468773D01*
X158526557Y-84435149D01*
X158500833Y-84370187D01*
X158514314Y-84301630D01*
X158532166Y-84275891D01*
X158534867Y-84272890D01*
X158534871Y-84272888D01*
X158616711Y-84181996D01*
X165249720Y-84181996D01*
X165249720Y-84182003D01*
X165269915Y-84361249D01*
X165269916Y-84361254D01*
X165329496Y-84531523D01*
X165361101Y-84581821D01*
X165425469Y-84684262D01*
X165553023Y-84811816D01*
X165705763Y-84907789D01*
X165739746Y-84919680D01*
X165876030Y-84967368D01*
X165876035Y-84967369D01*
X166055281Y-84987565D01*
X166055285Y-84987565D01*
X166055289Y-84987565D01*
X166234534Y-84967369D01*
X166234537Y-84967368D01*
X166234540Y-84967368D01*
X166404807Y-84907789D01*
X166557547Y-84811816D01*
X166685101Y-84684262D01*
X166781074Y-84531522D01*
X166823161Y-84411242D01*
X166863881Y-84354469D01*
X166899245Y-84335158D01*
X167003421Y-84298706D01*
X167156161Y-84202733D01*
X167283715Y-84075179D01*
X167310141Y-84033121D01*
X167362476Y-83986831D01*
X167431529Y-83976183D01*
X167495378Y-84004558D01*
X167502816Y-84011413D01*
X167555738Y-84064335D01*
X167708478Y-84160308D01*
X167770479Y-84182003D01*
X167878745Y-84219887D01*
X167878750Y-84219888D01*
X168057996Y-84240084D01*
X168058000Y-84240084D01*
X168058004Y-84240084D01*
X168237249Y-84219888D01*
X168237252Y-84219887D01*
X168237255Y-84219887D01*
X168407522Y-84160308D01*
X168560262Y-84064335D01*
X168687816Y-83936781D01*
X168783789Y-83784041D01*
X168843368Y-83613774D01*
X168843369Y-83613768D01*
X168863565Y-83434522D01*
X168863565Y-83434515D01*
X168843369Y-83255269D01*
X168843368Y-83255264D01*
X168795343Y-83118017D01*
X168783789Y-83084997D01*
X168780180Y-83079254D01*
X168714242Y-82974314D01*
X168687816Y-82932257D01*
X168560262Y-82804703D01*
X168455469Y-82738857D01*
X168407523Y-82708730D01*
X168237254Y-82649150D01*
X168237249Y-82649149D01*
X168058004Y-82628954D01*
X168057996Y-82628954D01*
X167878750Y-82649149D01*
X167878745Y-82649150D01*
X167708476Y-82708730D01*
X167555737Y-82804703D01*
X167428184Y-82932256D01*
X167401758Y-82974314D01*
X167349423Y-83020605D01*
X167280370Y-83031253D01*
X167216521Y-83002878D01*
X167209083Y-82996023D01*
X167154360Y-82941300D01*
X167120875Y-82879977D01*
X167118821Y-82839735D01*
X167121513Y-82815851D01*
X167134565Y-82700006D01*
X167128835Y-82649151D01*
X167114369Y-82520756D01*
X167114368Y-82520751D01*
X167071324Y-82397738D01*
X167054789Y-82350484D01*
X166958816Y-82197744D01*
X166831262Y-82070190D01*
X166678523Y-81974217D01*
X166508254Y-81914637D01*
X166508249Y-81914636D01*
X166329004Y-81894441D01*
X166328996Y-81894441D01*
X166149750Y-81914636D01*
X166149745Y-81914637D01*
X165979476Y-81974217D01*
X165826737Y-82070190D01*
X165699184Y-82197743D01*
X165603211Y-82350482D01*
X165543631Y-82520751D01*
X165543630Y-82520756D01*
X165523435Y-82700002D01*
X165523435Y-82700009D01*
X165543630Y-82879255D01*
X165543631Y-82879260D01*
X165603211Y-83049529D01*
X165699184Y-83202268D01*
X165749463Y-83252547D01*
X165782948Y-83313870D01*
X165777964Y-83383562D01*
X165736092Y-83439495D01*
X165711696Y-83452498D01*
X165712031Y-83453193D01*
X165705760Y-83456212D01*
X165553022Y-83552184D01*
X165425469Y-83679737D01*
X165329496Y-83832476D01*
X165269916Y-84002745D01*
X165269915Y-84002750D01*
X165249720Y-84181996D01*
X158616711Y-84181996D01*
X158661533Y-84132216D01*
X158756179Y-83968284D01*
X158814674Y-83788256D01*
X158834460Y-83600000D01*
X158814674Y-83411744D01*
X158756179Y-83231716D01*
X158661533Y-83067784D01*
X158534871Y-82927112D01*
X158534870Y-82927111D01*
X158497549Y-82899996D01*
X161515435Y-82899996D01*
X161515435Y-82900003D01*
X161535630Y-83079249D01*
X161535631Y-83079254D01*
X161595211Y-83249523D01*
X161645667Y-83329822D01*
X161691184Y-83402262D01*
X161818738Y-83529816D01*
X161886973Y-83572691D01*
X161952354Y-83613773D01*
X161971478Y-83625789D01*
X162125653Y-83679737D01*
X162141745Y-83685368D01*
X162141750Y-83685369D01*
X162320996Y-83705565D01*
X162321000Y-83705565D01*
X162321004Y-83705565D01*
X162500249Y-83685369D01*
X162500252Y-83685368D01*
X162500255Y-83685368D01*
X162670522Y-83625789D01*
X162689646Y-83613773D01*
X162755027Y-83572691D01*
X162822264Y-83553690D01*
X162886973Y-83572691D01*
X162971475Y-83625788D01*
X163141745Y-83685368D01*
X163141750Y-83685369D01*
X163320996Y-83705565D01*
X163321000Y-83705565D01*
X163321004Y-83705565D01*
X163500249Y-83685369D01*
X163500252Y-83685368D01*
X163500255Y-83685368D01*
X163670522Y-83625789D01*
X163823262Y-83529816D01*
X163950816Y-83402262D01*
X164046789Y-83249522D01*
X164106368Y-83079255D01*
X164107337Y-83070655D01*
X164126565Y-82900003D01*
X164126565Y-82899996D01*
X164106369Y-82720750D01*
X164106368Y-82720745D01*
X164046788Y-82550476D01*
X163950815Y-82397737D01*
X163823262Y-82270184D01*
X163670523Y-82174211D01*
X163500254Y-82114631D01*
X163500249Y-82114630D01*
X163321004Y-82094435D01*
X163320996Y-82094435D01*
X163141750Y-82114630D01*
X163141737Y-82114633D01*
X162971479Y-82174209D01*
X162886971Y-82227309D01*
X162819734Y-82246309D01*
X162755029Y-82227309D01*
X162670520Y-82174209D01*
X162500262Y-82114633D01*
X162500249Y-82114630D01*
X162321004Y-82094435D01*
X162320996Y-82094435D01*
X162141750Y-82114630D01*
X162141745Y-82114631D01*
X161971476Y-82174211D01*
X161818737Y-82270184D01*
X161691184Y-82397737D01*
X161595211Y-82550476D01*
X161535631Y-82720745D01*
X161535630Y-82720750D01*
X161515435Y-82899996D01*
X158497549Y-82899996D01*
X158381734Y-82815851D01*
X158381729Y-82815848D01*
X158208807Y-82738857D01*
X158208802Y-82738855D01*
X158063001Y-82707865D01*
X158023646Y-82699500D01*
X157834354Y-82699500D01*
X157801897Y-82706398D01*
X157649197Y-82738855D01*
X157649192Y-82738857D01*
X157476270Y-82815848D01*
X157476265Y-82815851D01*
X157323129Y-82927111D01*
X157196466Y-83067785D01*
X157101821Y-83231715D01*
X157101818Y-83231722D01*
X157075127Y-83313870D01*
X157043326Y-83411744D01*
X157023540Y-83600000D01*
X138259209Y-83600000D01*
X138245610Y-83572691D01*
X138187611Y-83456212D01*
X138168673Y-83418179D01*
X138045764Y-83255421D01*
X138045762Y-83255418D01*
X137895041Y-83118019D01*
X137895039Y-83118017D01*
X137721642Y-83010655D01*
X137721635Y-83010651D01*
X137626546Y-82973814D01*
X137531456Y-82936976D01*
X137330976Y-82899500D01*
X137127024Y-82899500D01*
X136926544Y-82936976D01*
X136926541Y-82936976D01*
X136926541Y-82936977D01*
X136736364Y-83010651D01*
X136736357Y-83010655D01*
X136562960Y-83118017D01*
X136562957Y-83118019D01*
X136475846Y-83197432D01*
X136413042Y-83228049D01*
X136343655Y-83219851D01*
X136289715Y-83175441D01*
X136268347Y-83108919D01*
X136268308Y-83105795D01*
X136268308Y-81197274D01*
X136245342Y-81081821D01*
X136242349Y-81066772D01*
X136191428Y-80943839D01*
X136191427Y-80943838D01*
X136191424Y-80943832D01*
X136117503Y-80833202D01*
X136117500Y-80833198D01*
X133739632Y-78455331D01*
X133706147Y-78394008D01*
X133710271Y-78326696D01*
X133737109Y-78250000D01*
X133744367Y-78229259D01*
X133744369Y-78229249D01*
X133764565Y-78050003D01*
X133764565Y-78049996D01*
X133744369Y-77870750D01*
X133744368Y-77870745D01*
X133725718Y-77817447D01*
X133684789Y-77700478D01*
X133588816Y-77547738D01*
X133461262Y-77420184D01*
X133378244Y-77368020D01*
X133308523Y-77324211D01*
X133138254Y-77264631D01*
X133138249Y-77264630D01*
X132959004Y-77244435D01*
X132958996Y-77244435D01*
X132779750Y-77264630D01*
X132779745Y-77264631D01*
X132609476Y-77324211D01*
X132456737Y-77420184D01*
X132329184Y-77547737D01*
X132233211Y-77700476D01*
X132173631Y-77870745D01*
X132173630Y-77870750D01*
X132153435Y-78049996D01*
X131491138Y-78049996D01*
X131542071Y-77866552D01*
X131599972Y-77513371D01*
X131619348Y-77156000D01*
X131618728Y-77144573D01*
X131610596Y-76994579D01*
X131599972Y-76798629D01*
X131591111Y-76744581D01*
X131542073Y-76445460D01*
X131542072Y-76445459D01*
X131542071Y-76445448D01*
X131459835Y-76149260D01*
X131446327Y-76100607D01*
X131446325Y-76100600D01*
X131313857Y-75768129D01*
X131313848Y-75768111D01*
X131304246Y-75749999D01*
X133123785Y-75749999D01*
X133123785Y-75750000D01*
X133142602Y-75953082D01*
X133198417Y-76149247D01*
X133198422Y-76149260D01*
X133289327Y-76331821D01*
X133412237Y-76494581D01*
X133562958Y-76631980D01*
X133562960Y-76631982D01*
X133662141Y-76693392D01*
X133736363Y-76739348D01*
X133926544Y-76813024D01*
X134127024Y-76850500D01*
X134127026Y-76850500D01*
X134330974Y-76850500D01*
X134330976Y-76850500D01*
X134531456Y-76813024D01*
X134721637Y-76739348D01*
X134895041Y-76631981D01*
X135045764Y-76494579D01*
X135168673Y-76331821D01*
X135209415Y-76249999D01*
X137123785Y-76249999D01*
X137123785Y-76250000D01*
X137142602Y-76453082D01*
X137198417Y-76649247D01*
X137198422Y-76649260D01*
X137289327Y-76831821D01*
X137412237Y-76994581D01*
X137488614Y-77064207D01*
X137562959Y-77131981D01*
X137583294Y-77144572D01*
X137583296Y-77144573D01*
X137629931Y-77196601D01*
X137641035Y-77265583D01*
X137613082Y-77329617D01*
X137583296Y-77355427D01*
X137562957Y-77368020D01*
X137412237Y-77505418D01*
X137289327Y-77668178D01*
X137198422Y-77850739D01*
X137198417Y-77850752D01*
X137142602Y-78046917D01*
X137123785Y-78249999D01*
X137123785Y-78250000D01*
X137142602Y-78453082D01*
X137198417Y-78649247D01*
X137198422Y-78649260D01*
X137289327Y-78831821D01*
X137412237Y-78994581D01*
X137562958Y-79131980D01*
X137562960Y-79131982D01*
X137602250Y-79156309D01*
X137736363Y-79239348D01*
X137736371Y-79239351D01*
X137736373Y-79239352D01*
X137788054Y-79259374D01*
X137843456Y-79301946D01*
X137867046Y-79367713D01*
X137851335Y-79435794D01*
X137801311Y-79484572D01*
X137788054Y-79490626D01*
X137736373Y-79510647D01*
X137736357Y-79510655D01*
X137562960Y-79618017D01*
X137562958Y-79618019D01*
X137412237Y-79755418D01*
X137289327Y-79918178D01*
X137198422Y-80100739D01*
X137198417Y-80100752D01*
X137142602Y-80296917D01*
X137123785Y-80499999D01*
X137123785Y-80500000D01*
X137142602Y-80703082D01*
X137198417Y-80899247D01*
X137198422Y-80899260D01*
X137289327Y-81081821D01*
X137412237Y-81244581D01*
X137562958Y-81381980D01*
X137562960Y-81381982D01*
X137595714Y-81402262D01*
X137736363Y-81489348D01*
X137926544Y-81563024D01*
X138127024Y-81600500D01*
X138127026Y-81600500D01*
X138330974Y-81600500D01*
X138330976Y-81600500D01*
X138531456Y-81563024D01*
X138721637Y-81489348D01*
X138895041Y-81381981D01*
X139045764Y-81244579D01*
X139168673Y-81081821D01*
X139259582Y-80899250D01*
X139315397Y-80703083D01*
X139334215Y-80500000D01*
X139326304Y-80414630D01*
X139315397Y-80296917D01*
X139295387Y-80226589D01*
X139259582Y-80100750D01*
X139248878Y-80079254D01*
X139215272Y-80011764D01*
X139168673Y-79918179D01*
X139045764Y-79755421D01*
X139045762Y-79755418D01*
X138895041Y-79618019D01*
X138895039Y-79618017D01*
X138721642Y-79510655D01*
X138721635Y-79510651D01*
X138704352Y-79503955D01*
X138669943Y-79490626D01*
X138614544Y-79448054D01*
X138590953Y-79382287D01*
X138606664Y-79314207D01*
X138656688Y-79265428D01*
X138669938Y-79259375D01*
X138721637Y-79239348D01*
X138895041Y-79131981D01*
X139045764Y-78994579D01*
X139168673Y-78831821D01*
X139259582Y-78649250D01*
X139315397Y-78453083D01*
X139334215Y-78250000D01*
X139315397Y-78046917D01*
X139259582Y-77850750D01*
X139168673Y-77668179D01*
X139051768Y-77513371D01*
X139045762Y-77505418D01*
X138895042Y-77368019D01*
X138883723Y-77361011D01*
X138874704Y-77355426D01*
X138828069Y-77303401D01*
X138816964Y-77234419D01*
X138844916Y-77170385D01*
X138874703Y-77144573D01*
X138895041Y-77131981D01*
X139045764Y-76994579D01*
X139168673Y-76831821D01*
X139259582Y-76649250D01*
X139315397Y-76453083D01*
X139334215Y-76250000D01*
X139315397Y-76046917D01*
X139302048Y-75999999D01*
X140173785Y-75999999D01*
X140173785Y-76000000D01*
X140192602Y-76203082D01*
X140248417Y-76399247D01*
X140248422Y-76399260D01*
X140339327Y-76581821D01*
X140462237Y-76744581D01*
X140612958Y-76881980D01*
X140612960Y-76881982D01*
X140712141Y-76943392D01*
X140786363Y-76989348D01*
X140786371Y-76989351D01*
X140786373Y-76989352D01*
X140838054Y-77009374D01*
X140893456Y-77051946D01*
X140917046Y-77117713D01*
X140901335Y-77185794D01*
X140851311Y-77234572D01*
X140838054Y-77240626D01*
X140786373Y-77260647D01*
X140786357Y-77260655D01*
X140612960Y-77368017D01*
X140612958Y-77368019D01*
X140462237Y-77505418D01*
X140339327Y-77668178D01*
X140248422Y-77850739D01*
X140248417Y-77850752D01*
X140192602Y-78046917D01*
X140173785Y-78249999D01*
X140173785Y-78250000D01*
X140192602Y-78453082D01*
X140248417Y-78649247D01*
X140248422Y-78649260D01*
X140339327Y-78831821D01*
X140462237Y-78994581D01*
X140612958Y-79131980D01*
X140612960Y-79131982D01*
X140652250Y-79156309D01*
X140786363Y-79239348D01*
X140786371Y-79239351D01*
X140786373Y-79239352D01*
X140838054Y-79259374D01*
X140893456Y-79301946D01*
X140917046Y-79367713D01*
X140901335Y-79435794D01*
X140851311Y-79484572D01*
X140838054Y-79490626D01*
X140786373Y-79510647D01*
X140786357Y-79510655D01*
X140612960Y-79618017D01*
X140612958Y-79618019D01*
X140462237Y-79755418D01*
X140339327Y-79918178D01*
X140248422Y-80100739D01*
X140248417Y-80100752D01*
X140192602Y-80296917D01*
X140173785Y-80499999D01*
X140173785Y-80500000D01*
X140192602Y-80703082D01*
X140248417Y-80899247D01*
X140248422Y-80899260D01*
X140339327Y-81081821D01*
X140462237Y-81244581D01*
X140612958Y-81381980D01*
X140612960Y-81381982D01*
X140645714Y-81402262D01*
X140786363Y-81489348D01*
X140976544Y-81563024D01*
X141177024Y-81600500D01*
X141177026Y-81600500D01*
X141380974Y-81600500D01*
X141380976Y-81600500D01*
X141581456Y-81563024D01*
X141771637Y-81489348D01*
X141945041Y-81381981D01*
X142095764Y-81244579D01*
X142218673Y-81081821D01*
X142274800Y-80969100D01*
X142293000Y-80932552D01*
X142340503Y-80881315D01*
X142408166Y-80863894D01*
X142474506Y-80885820D01*
X142515000Y-80932552D01*
X142589327Y-81081821D01*
X142712237Y-81244581D01*
X142862958Y-81381980D01*
X142862960Y-81381982D01*
X142895714Y-81402262D01*
X143036363Y-81489348D01*
X143226544Y-81563024D01*
X143427024Y-81600500D01*
X143427026Y-81600500D01*
X143630974Y-81600500D01*
X143630976Y-81600500D01*
X143831456Y-81563024D01*
X144021637Y-81489348D01*
X144195041Y-81381981D01*
X144345764Y-81244579D01*
X144379431Y-81199996D01*
X153023435Y-81199996D01*
X153023435Y-81200003D01*
X153043630Y-81379249D01*
X153043631Y-81379254D01*
X153103211Y-81549523D01*
X153188569Y-81685368D01*
X153199184Y-81702262D01*
X153326738Y-81829816D01*
X153383029Y-81865186D01*
X153461729Y-81914637D01*
X153479478Y-81925789D01*
X153569500Y-81957289D01*
X153649745Y-81985368D01*
X153649750Y-81985369D01*
X153828996Y-82005565D01*
X153829000Y-82005565D01*
X153829004Y-82005565D01*
X154008249Y-81985369D01*
X154008252Y-81985368D01*
X154008255Y-81985368D01*
X154178522Y-81925789D01*
X154331262Y-81829816D01*
X154458816Y-81702262D01*
X154554789Y-81549522D01*
X154614368Y-81379255D01*
X154628985Y-81249523D01*
X154634565Y-81200003D01*
X154634565Y-81199996D01*
X154614369Y-81020750D01*
X154614368Y-81020745D01*
X154583508Y-80932552D01*
X154572116Y-80899996D01*
X157023435Y-80899996D01*
X157023435Y-80900003D01*
X157043630Y-81079249D01*
X157043631Y-81079254D01*
X157103211Y-81249523D01*
X157184724Y-81379249D01*
X157199184Y-81402262D01*
X157326738Y-81529816D01*
X157479478Y-81625789D01*
X157649745Y-81685368D01*
X157649750Y-81685369D01*
X157828996Y-81705565D01*
X157829000Y-81705565D01*
X157829004Y-81705565D01*
X158008249Y-81685369D01*
X158008252Y-81685368D01*
X158008255Y-81685368D01*
X158178522Y-81625789D01*
X158331262Y-81529816D01*
X158458816Y-81402262D01*
X158554789Y-81249522D01*
X158614368Y-81079255D01*
X158615774Y-81066775D01*
X158634565Y-80900003D01*
X158634565Y-80899996D01*
X158614369Y-80720750D01*
X158614368Y-80720745D01*
X158608187Y-80703082D01*
X158554789Y-80550478D01*
X158458816Y-80397738D01*
X158331262Y-80270184D01*
X158298379Y-80249522D01*
X158178523Y-80174211D01*
X158008254Y-80114631D01*
X158008249Y-80114630D01*
X157829004Y-80094435D01*
X157828996Y-80094435D01*
X157649750Y-80114630D01*
X157649745Y-80114631D01*
X157479476Y-80174211D01*
X157326737Y-80270184D01*
X157199184Y-80397737D01*
X157103211Y-80550476D01*
X157043631Y-80720745D01*
X157043630Y-80720750D01*
X157023435Y-80899996D01*
X154572116Y-80899996D01*
X154554789Y-80850478D01*
X154458816Y-80697738D01*
X154331262Y-80570184D01*
X154267017Y-80529816D01*
X154178523Y-80474211D01*
X154008254Y-80414631D01*
X154008249Y-80414630D01*
X153829004Y-80394435D01*
X153828996Y-80394435D01*
X153649750Y-80414630D01*
X153649745Y-80414631D01*
X153479476Y-80474211D01*
X153326737Y-80570184D01*
X153199184Y-80697737D01*
X153103211Y-80850476D01*
X153043631Y-81020745D01*
X153043630Y-81020750D01*
X153023435Y-81199996D01*
X144379431Y-81199996D01*
X144468673Y-81081821D01*
X144559582Y-80899250D01*
X144615397Y-80703083D01*
X144634215Y-80500000D01*
X144626304Y-80414630D01*
X144615397Y-80296917D01*
X144595387Y-80226589D01*
X144559582Y-80100750D01*
X144548878Y-80079254D01*
X144515272Y-80011764D01*
X144468673Y-79918179D01*
X144454942Y-79899996D01*
X147673435Y-79899996D01*
X147673435Y-79900003D01*
X147693630Y-80079249D01*
X147693631Y-80079254D01*
X147753211Y-80249523D01*
X147844266Y-80394435D01*
X147849184Y-80402262D01*
X147976738Y-80529816D01*
X148129478Y-80625789D01*
X148211778Y-80654587D01*
X148299745Y-80685368D01*
X148299750Y-80685369D01*
X148478996Y-80705565D01*
X148479000Y-80705565D01*
X148479004Y-80705565D01*
X148658249Y-80685369D01*
X148658252Y-80685368D01*
X148658255Y-80685368D01*
X148828522Y-80625789D01*
X148981262Y-80529816D01*
X149108816Y-80402262D01*
X149204789Y-80249522D01*
X149264368Y-80079255D01*
X149264699Y-80076317D01*
X149284565Y-79900003D01*
X149284565Y-79899996D01*
X149264369Y-79720750D01*
X149264368Y-79720745D01*
X149248435Y-79675210D01*
X149204789Y-79550478D01*
X149179761Y-79510647D01*
X149128513Y-79429086D01*
X149108816Y-79397738D01*
X148981262Y-79270184D01*
X148964058Y-79259374D01*
X148828523Y-79174211D01*
X148658254Y-79114631D01*
X148658249Y-79114630D01*
X148479004Y-79094435D01*
X148478996Y-79094435D01*
X148299750Y-79114630D01*
X148299745Y-79114631D01*
X148129476Y-79174211D01*
X147976737Y-79270184D01*
X147849184Y-79397737D01*
X147753211Y-79550476D01*
X147693631Y-79720745D01*
X147693630Y-79720750D01*
X147673435Y-79899996D01*
X144454942Y-79899996D01*
X144345764Y-79755421D01*
X144345762Y-79755418D01*
X144195041Y-79618019D01*
X144195039Y-79618017D01*
X144021642Y-79510655D01*
X144021635Y-79510651D01*
X144004352Y-79503955D01*
X143969943Y-79490626D01*
X143914544Y-79448054D01*
X143890953Y-79382287D01*
X143906664Y-79314207D01*
X143956688Y-79265428D01*
X143969938Y-79259375D01*
X144021637Y-79239348D01*
X144195041Y-79131981D01*
X144345764Y-78994579D01*
X144468673Y-78831821D01*
X144559582Y-78649250D01*
X144615397Y-78453083D01*
X144634215Y-78250000D01*
X144615397Y-78046917D01*
X144559582Y-77850750D01*
X144468673Y-77668179D01*
X144351768Y-77513371D01*
X144345762Y-77505418D01*
X144195041Y-77368019D01*
X144195039Y-77368017D01*
X144021642Y-77260655D01*
X144021635Y-77260651D01*
X144004352Y-77253955D01*
X143969943Y-77240626D01*
X143914544Y-77198054D01*
X143890953Y-77132287D01*
X143906664Y-77064207D01*
X143956688Y-77015428D01*
X143969938Y-77009375D01*
X144021637Y-76989348D01*
X144195041Y-76881981D01*
X144284970Y-76800000D01*
X158430540Y-76800000D01*
X158450326Y-76988256D01*
X158450327Y-76988259D01*
X158508818Y-77168277D01*
X158508821Y-77168284D01*
X158603467Y-77332216D01*
X158682674Y-77420184D01*
X158730129Y-77472888D01*
X158883265Y-77584148D01*
X158883270Y-77584151D01*
X159056192Y-77661142D01*
X159056197Y-77661144D01*
X159241354Y-77700500D01*
X159241355Y-77700500D01*
X159430644Y-77700500D01*
X159430646Y-77700500D01*
X159615803Y-77661144D01*
X159788730Y-77584151D01*
X159941871Y-77472888D01*
X160068533Y-77332216D01*
X160163179Y-77168284D01*
X160167171Y-77155997D01*
X164838652Y-77155997D01*
X164838652Y-77156002D01*
X164858028Y-77513368D01*
X164858029Y-77513385D01*
X164915926Y-77866539D01*
X164915932Y-77866565D01*
X165011672Y-78211392D01*
X165011674Y-78211399D01*
X165144142Y-78543870D01*
X165144151Y-78543888D01*
X165311784Y-78860077D01*
X165311787Y-78860082D01*
X165311789Y-78860085D01*
X165496138Y-79131980D01*
X165512634Y-79156309D01*
X165512641Y-79156319D01*
X165717704Y-79397737D01*
X165744332Y-79429086D01*
X166004163Y-79675211D01*
X166289081Y-79891800D01*
X166595747Y-80076315D01*
X166595749Y-80076316D01*
X166595751Y-80076317D01*
X166595755Y-80076319D01*
X166807347Y-80174211D01*
X166920565Y-80226591D01*
X167259726Y-80340868D01*
X167609254Y-80417805D01*
X167965052Y-80456500D01*
X167965058Y-80456500D01*
X168322942Y-80456500D01*
X168322948Y-80456500D01*
X168441245Y-80443634D01*
X168510018Y-80455955D01*
X168561214Y-80503502D01*
X168578576Y-80571180D01*
X168556593Y-80637501D01*
X168542332Y-80654587D01*
X168499182Y-80697737D01*
X168403209Y-80850476D01*
X168343629Y-81020745D01*
X168343628Y-81020750D01*
X168323433Y-81199996D01*
X168323433Y-81200003D01*
X168343628Y-81379249D01*
X168343629Y-81379254D01*
X168403209Y-81549523D01*
X168488567Y-81685368D01*
X168499182Y-81702262D01*
X168626736Y-81829816D01*
X168683027Y-81865186D01*
X168761727Y-81914637D01*
X168779476Y-81925789D01*
X168869498Y-81957289D01*
X168949743Y-81985368D01*
X168949748Y-81985369D01*
X169128994Y-82005565D01*
X169128998Y-82005565D01*
X169129002Y-82005565D01*
X169308247Y-81985369D01*
X169308250Y-81985368D01*
X169308253Y-81985368D01*
X169478520Y-81925789D01*
X169631260Y-81829816D01*
X169758814Y-81702262D01*
X169854787Y-81549522D01*
X169914366Y-81379255D01*
X169928983Y-81249523D01*
X169934563Y-81200003D01*
X169934563Y-81199996D01*
X169914367Y-81020750D01*
X169914366Y-81020745D01*
X169883506Y-80932552D01*
X169854787Y-80850478D01*
X169758814Y-80697738D01*
X169631260Y-80570184D01*
X169567015Y-80529816D01*
X169478521Y-80474211D01*
X169399398Y-80446525D01*
X169342622Y-80405803D01*
X169316875Y-80340850D01*
X169330331Y-80272288D01*
X169378718Y-80221886D01*
X169388270Y-80216951D01*
X169692253Y-80076315D01*
X169998919Y-79891800D01*
X170283837Y-79675211D01*
X170543668Y-79429086D01*
X170775365Y-79156311D01*
X170976211Y-78860085D01*
X171143853Y-78543880D01*
X171276324Y-78211403D01*
X171372071Y-77866552D01*
X171429972Y-77513371D01*
X171449348Y-77156000D01*
X171448728Y-77144573D01*
X171440596Y-76994579D01*
X171429972Y-76798629D01*
X171421111Y-76744581D01*
X171372073Y-76445460D01*
X171372072Y-76445459D01*
X171372071Y-76445448D01*
X171289835Y-76149260D01*
X171276327Y-76100607D01*
X171276325Y-76100600D01*
X171143857Y-75768129D01*
X171143848Y-75768111D01*
X170976215Y-75451922D01*
X170976213Y-75451919D01*
X170976211Y-75451915D01*
X170775365Y-75155689D01*
X170775361Y-75155684D01*
X170775358Y-75155680D01*
X170543668Y-74882914D01*
X170536258Y-74875895D01*
X170283837Y-74636789D01*
X170283830Y-74636783D01*
X170283827Y-74636781D01*
X170166432Y-74547540D01*
X169998919Y-74420200D01*
X169692253Y-74235685D01*
X169692252Y-74235684D01*
X169692248Y-74235682D01*
X169692244Y-74235680D01*
X169367447Y-74085414D01*
X169367441Y-74085411D01*
X169367435Y-74085409D01*
X169169320Y-74018656D01*
X169028273Y-73971131D01*
X168678744Y-73894194D01*
X168322949Y-73855500D01*
X168322948Y-73855500D01*
X167965052Y-73855500D01*
X167965050Y-73855500D01*
X167609255Y-73894194D01*
X167259726Y-73971131D01*
X167003970Y-74057306D01*
X166920565Y-74085409D01*
X166920563Y-74085410D01*
X166920552Y-74085414D01*
X166595755Y-74235680D01*
X166595751Y-74235682D01*
X166427997Y-74336617D01*
X166289081Y-74420200D01*
X166247875Y-74451524D01*
X166004172Y-74636781D01*
X166004163Y-74636789D01*
X165744331Y-74882914D01*
X165512641Y-75155680D01*
X165512634Y-75155690D01*
X165311790Y-75451913D01*
X165311784Y-75451922D01*
X165144151Y-75768111D01*
X165144142Y-75768129D01*
X165011674Y-76100600D01*
X165011672Y-76100607D01*
X164915932Y-76445434D01*
X164915926Y-76445460D01*
X164858029Y-76798614D01*
X164858028Y-76798631D01*
X164838652Y-77155997D01*
X160167171Y-77155997D01*
X160221674Y-76988256D01*
X160241460Y-76800000D01*
X160221674Y-76611744D01*
X160163179Y-76431716D01*
X160068533Y-76267784D01*
X159941871Y-76127112D01*
X159905390Y-76100607D01*
X159788734Y-76015851D01*
X159788729Y-76015848D01*
X159615807Y-75938857D01*
X159615802Y-75938855D01*
X159470001Y-75907865D01*
X159430646Y-75899500D01*
X159241354Y-75899500D01*
X159208897Y-75906398D01*
X159056197Y-75938855D01*
X159056192Y-75938857D01*
X158883270Y-76015848D01*
X158883265Y-76015851D01*
X158730129Y-76127111D01*
X158603466Y-76267785D01*
X158508821Y-76431715D01*
X158508818Y-76431722D01*
X158450327Y-76611740D01*
X158450326Y-76611744D01*
X158430540Y-76800000D01*
X144284970Y-76800000D01*
X144345764Y-76744579D01*
X144468673Y-76581821D01*
X144559582Y-76399250D01*
X144615397Y-76203083D01*
X144634215Y-76000000D01*
X144615397Y-75796917D01*
X144559582Y-75600750D01*
X144468673Y-75418179D01*
X144349717Y-75260655D01*
X144345762Y-75255418D01*
X144195041Y-75118019D01*
X144195039Y-75118017D01*
X144021642Y-75010655D01*
X144021635Y-75010651D01*
X143911536Y-74967999D01*
X143831456Y-74936976D01*
X143630976Y-74899500D01*
X143427024Y-74899500D01*
X143226544Y-74936976D01*
X143226541Y-74936976D01*
X143226541Y-74936977D01*
X143036364Y-75010651D01*
X143036357Y-75010655D01*
X142862960Y-75118017D01*
X142862958Y-75118019D01*
X142712237Y-75255418D01*
X142589327Y-75418178D01*
X142515000Y-75567447D01*
X142467497Y-75618684D01*
X142399834Y-75636105D01*
X142333494Y-75614179D01*
X142293000Y-75567447D01*
X142235470Y-75451913D01*
X142218673Y-75418179D01*
X142099717Y-75260655D01*
X142095762Y-75255418D01*
X141945041Y-75118019D01*
X141945039Y-75118017D01*
X141771642Y-75010655D01*
X141771635Y-75010651D01*
X141661536Y-74967999D01*
X141581456Y-74936976D01*
X141380976Y-74899500D01*
X141177024Y-74899500D01*
X140976544Y-74936976D01*
X140976541Y-74936976D01*
X140976541Y-74936977D01*
X140786364Y-75010651D01*
X140786357Y-75010655D01*
X140612960Y-75118017D01*
X140612958Y-75118019D01*
X140462237Y-75255418D01*
X140339327Y-75418178D01*
X140248422Y-75600739D01*
X140248417Y-75600752D01*
X140192602Y-75796917D01*
X140173785Y-75999999D01*
X139302048Y-75999999D01*
X139259582Y-75850750D01*
X139168673Y-75668179D01*
X139045764Y-75505421D01*
X139045762Y-75505418D01*
X138895041Y-75368019D01*
X138895039Y-75368017D01*
X138721642Y-75260655D01*
X138721635Y-75260651D01*
X138603792Y-75214999D01*
X138531456Y-75186976D01*
X138330976Y-75149500D01*
X138127024Y-75149500D01*
X137926544Y-75186976D01*
X137926541Y-75186976D01*
X137926541Y-75186977D01*
X137736364Y-75260651D01*
X137736357Y-75260655D01*
X137562960Y-75368017D01*
X137562958Y-75368019D01*
X137412237Y-75505418D01*
X137289327Y-75668178D01*
X137198422Y-75850739D01*
X137198417Y-75850752D01*
X137142602Y-76046917D01*
X137123785Y-76249999D01*
X135209415Y-76249999D01*
X135259582Y-76149250D01*
X135315397Y-75953083D01*
X135334215Y-75750000D01*
X135315397Y-75546917D01*
X135259582Y-75350750D01*
X135168673Y-75168179D01*
X135064364Y-75030051D01*
X135045762Y-75005418D01*
X134895041Y-74868019D01*
X134895039Y-74868017D01*
X134721642Y-74760655D01*
X134721635Y-74760651D01*
X134626546Y-74723814D01*
X134531456Y-74686976D01*
X134330976Y-74649500D01*
X134127024Y-74649500D01*
X133926544Y-74686976D01*
X133926541Y-74686976D01*
X133926541Y-74686977D01*
X133736364Y-74760651D01*
X133736357Y-74760655D01*
X133562960Y-74868017D01*
X133562958Y-74868019D01*
X133412237Y-75005418D01*
X133289327Y-75168178D01*
X133198422Y-75350739D01*
X133198417Y-75350752D01*
X133142602Y-75546917D01*
X133123785Y-75749999D01*
X131304246Y-75749999D01*
X131146215Y-75451922D01*
X131146213Y-75451919D01*
X131146211Y-75451915D01*
X130945365Y-75155689D01*
X130945361Y-75155684D01*
X130945358Y-75155680D01*
X130713668Y-74882914D01*
X130706258Y-74875895D01*
X130453837Y-74636789D01*
X130453830Y-74636783D01*
X130453827Y-74636781D01*
X130336432Y-74547540D01*
X130273894Y-74500000D01*
X145073415Y-74500000D01*
X145139963Y-74591597D01*
X145229000Y-74680634D01*
X145229000Y-74500000D01*
X145073415Y-74500000D01*
X130273894Y-74500000D01*
X130168919Y-74420200D01*
X129862253Y-74235685D01*
X129862252Y-74235684D01*
X129862248Y-74235682D01*
X129862244Y-74235680D01*
X129537447Y-74085414D01*
X129537441Y-74085411D01*
X129537435Y-74085409D01*
X129339320Y-74018656D01*
X129198273Y-73971131D01*
X128848744Y-73894194D01*
X128492949Y-73855500D01*
X128492948Y-73855500D01*
X128135052Y-73855500D01*
X128135050Y-73855500D01*
X127779255Y-73894194D01*
X127429726Y-73971131D01*
X127173970Y-74057306D01*
X127090565Y-74085409D01*
X127090563Y-74085410D01*
X127090552Y-74085414D01*
X126765755Y-74235680D01*
X126765751Y-74235682D01*
X126597997Y-74336617D01*
X126459081Y-74420200D01*
X126417875Y-74451524D01*
X126174172Y-74636781D01*
X126174163Y-74636789D01*
X125914331Y-74882914D01*
X125682641Y-75155680D01*
X125682634Y-75155690D01*
X125481790Y-75451913D01*
X125481784Y-75451922D01*
X125314151Y-75768111D01*
X125314142Y-75768129D01*
X125181674Y-76100600D01*
X125181672Y-76100607D01*
X125085932Y-76445434D01*
X125085926Y-76445460D01*
X125028029Y-76798614D01*
X125028028Y-76798631D01*
X125008652Y-77155997D01*
X122227928Y-77155997D01*
X122228778Y-71118754D01*
X132308500Y-71118754D01*
X132308500Y-72881245D01*
X132346432Y-73120736D01*
X132421360Y-73351344D01*
X132475879Y-73458343D01*
X132531068Y-73566657D01*
X132531448Y-73567401D01*
X132673966Y-73763562D01*
X132673970Y-73763567D01*
X132845432Y-73935029D01*
X132845437Y-73935033D01*
X132960537Y-74018657D01*
X133041602Y-74077554D01*
X133257653Y-74187638D01*
X133257655Y-74187639D01*
X133372642Y-74225000D01*
X133488265Y-74262568D01*
X133599186Y-74280136D01*
X133727755Y-74300500D01*
X133727760Y-74300500D01*
X133970245Y-74300500D01*
X134087664Y-74281902D01*
X134209735Y-74262568D01*
X134440347Y-74187638D01*
X134656398Y-74077554D01*
X134852569Y-73935028D01*
X135024028Y-73763569D01*
X135166554Y-73567398D01*
X135276638Y-73351347D01*
X135351568Y-73120735D01*
X135378220Y-72952459D01*
X135389500Y-72881245D01*
X135389500Y-71118754D01*
X135363106Y-70952116D01*
X135351568Y-70879265D01*
X135296492Y-70709758D01*
X135276639Y-70648655D01*
X135245002Y-70586564D01*
X135166554Y-70432602D01*
X135142854Y-70399982D01*
X137388500Y-70399982D01*
X137388500Y-73600017D01*
X137399000Y-73702796D01*
X137454185Y-73869332D01*
X137454187Y-73869337D01*
X137489070Y-73925890D01*
X137546288Y-74018656D01*
X137670344Y-74142712D01*
X137819665Y-74234814D01*
X137986202Y-74289999D01*
X138088990Y-74300500D01*
X138088995Y-74300500D01*
X139769005Y-74300500D01*
X139769010Y-74300500D01*
X139871798Y-74289999D01*
X140038335Y-74234814D01*
X140187656Y-74142712D01*
X140311712Y-74018656D01*
X140403814Y-73869335D01*
X140458999Y-73702798D01*
X140460565Y-73687465D01*
X145504000Y-73687465D01*
X145504000Y-73812535D01*
X145536370Y-73933343D01*
X145598905Y-74041657D01*
X145687343Y-74130095D01*
X145795657Y-74192630D01*
X145916465Y-74225000D01*
X146041535Y-74225000D01*
X146162343Y-74192630D01*
X146270657Y-74130095D01*
X146359095Y-74041657D01*
X146421630Y-73933343D01*
X146454000Y-73812535D01*
X146454000Y-73687465D01*
X146421630Y-73566657D01*
X146359095Y-73458343D01*
X146270657Y-73369905D01*
X146162343Y-73307370D01*
X146041535Y-73275000D01*
X145916465Y-73275000D01*
X145795657Y-73307370D01*
X145687343Y-73369905D01*
X145598905Y-73458343D01*
X145536370Y-73566657D01*
X145504000Y-73687465D01*
X140460565Y-73687465D01*
X140469500Y-73600010D01*
X140469500Y-72999999D01*
X145073415Y-72999999D01*
X145073415Y-73000000D01*
X145229000Y-73000000D01*
X145229000Y-72819366D01*
X146729000Y-72819366D01*
X146729000Y-74680633D01*
X146818035Y-74591598D01*
X146919804Y-74451524D01*
X146983275Y-74326956D01*
X147031250Y-74276160D01*
X147099071Y-74259365D01*
X147165205Y-74281902D01*
X147208657Y-74336617D01*
X147211691Y-74344932D01*
X147227444Y-74393416D01*
X147323951Y-74582820D01*
X147448890Y-74754786D01*
X147599213Y-74905109D01*
X147771179Y-75030048D01*
X147771181Y-75030049D01*
X147771184Y-75030051D01*
X147960588Y-75126557D01*
X148162757Y-75192246D01*
X148372713Y-75225500D01*
X148372714Y-75225500D01*
X148585286Y-75225500D01*
X148585287Y-75225500D01*
X148795243Y-75192246D01*
X148997412Y-75126557D01*
X149186816Y-75030051D01*
X149208789Y-75014086D01*
X149358786Y-74905109D01*
X149358788Y-74905106D01*
X149358792Y-74905104D01*
X149509104Y-74754792D01*
X149628683Y-74590204D01*
X149684011Y-74547540D01*
X149753624Y-74541561D01*
X149815420Y-74574166D01*
X149829313Y-74590199D01*
X149899626Y-74686977D01*
X149948896Y-74754792D01*
X150099213Y-74905109D01*
X150271179Y-75030048D01*
X150271181Y-75030049D01*
X150271184Y-75030051D01*
X150460588Y-75126557D01*
X150662757Y-75192246D01*
X150872713Y-75225500D01*
X150872714Y-75225500D01*
X151085286Y-75225500D01*
X151085287Y-75225500D01*
X151295243Y-75192246D01*
X151497412Y-75126557D01*
X151686816Y-75030051D01*
X151858792Y-74905104D01*
X151997604Y-74766291D01*
X152058923Y-74732809D01*
X152128615Y-74737793D01*
X152184549Y-74779664D01*
X152190821Y-74788878D01*
X152194185Y-74794333D01*
X152194186Y-74794334D01*
X152286288Y-74943656D01*
X152410344Y-75067712D01*
X152559666Y-75159814D01*
X152726203Y-75214999D01*
X152828991Y-75225500D01*
X154129008Y-75225499D01*
X154231797Y-75214999D01*
X154398334Y-75159814D01*
X154547656Y-75067712D01*
X154671712Y-74943656D01*
X154763814Y-74794334D01*
X154818999Y-74627797D01*
X154829500Y-74525009D01*
X154829499Y-72974992D01*
X154818999Y-72872203D01*
X154763814Y-72705666D01*
X154671712Y-72556344D01*
X154547656Y-72432288D01*
X154398334Y-72340186D01*
X154231797Y-72285001D01*
X154231795Y-72285000D01*
X154129010Y-72274500D01*
X152828998Y-72274500D01*
X152828981Y-72274501D01*
X152726203Y-72285000D01*
X152726200Y-72285001D01*
X152559668Y-72340185D01*
X152559663Y-72340187D01*
X152410342Y-72432289D01*
X152286289Y-72556342D01*
X152190821Y-72711121D01*
X152138873Y-72757845D01*
X152069910Y-72769068D01*
X152005828Y-72741224D01*
X151997601Y-72733705D01*
X151858786Y-72594890D01*
X151686820Y-72469951D01*
X151497414Y-72373444D01*
X151497413Y-72373443D01*
X151497412Y-72373443D01*
X151295243Y-72307754D01*
X151295241Y-72307753D01*
X151295240Y-72307753D01*
X151133957Y-72282208D01*
X151085287Y-72274500D01*
X150872713Y-72274500D01*
X150824042Y-72282208D01*
X150662760Y-72307753D01*
X150460585Y-72373444D01*
X150271179Y-72469951D01*
X150099213Y-72594890D01*
X149948894Y-72745209D01*
X149948890Y-72745214D01*
X149829318Y-72909793D01*
X149773989Y-72952459D01*
X149704375Y-72958438D01*
X149642580Y-72925833D01*
X149628682Y-72909793D01*
X149509109Y-72745214D01*
X149509105Y-72745209D01*
X149358786Y-72594890D01*
X149186820Y-72469951D01*
X148997414Y-72373444D01*
X148997413Y-72373443D01*
X148997412Y-72373443D01*
X148795243Y-72307754D01*
X148795241Y-72307753D01*
X148795240Y-72307753D01*
X148633957Y-72282208D01*
X148585287Y-72274500D01*
X148372713Y-72274500D01*
X148324042Y-72282208D01*
X148162760Y-72307753D01*
X147960585Y-72373444D01*
X147771179Y-72469951D01*
X147599213Y-72594890D01*
X147448890Y-72745213D01*
X147323951Y-72917179D01*
X147227442Y-73106587D01*
X147211690Y-73155068D01*
X147172252Y-73212743D01*
X147107893Y-73239940D01*
X147039047Y-73228025D01*
X146987572Y-73180780D01*
X146983275Y-73173043D01*
X146919804Y-73048475D01*
X146818035Y-72908401D01*
X146729000Y-72819366D01*
X145229000Y-72819366D01*
X145229000Y-72819365D01*
X145139963Y-72908402D01*
X145073415Y-72999999D01*
X140469500Y-72999999D01*
X140469500Y-71667778D01*
X158047500Y-71667778D01*
X158047500Y-73688221D01*
X158081985Y-73905952D01*
X158150103Y-74115603D01*
X158150104Y-74115606D01*
X158210844Y-74234812D01*
X158244314Y-74300500D01*
X158250187Y-74312025D01*
X158379752Y-74490358D01*
X158379756Y-74490363D01*
X158535636Y-74646243D01*
X158535641Y-74646247D01*
X158654785Y-74732809D01*
X158713978Y-74775815D01*
X158842375Y-74841237D01*
X158910393Y-74875895D01*
X158910396Y-74875896D01*
X159000291Y-74905104D01*
X159120049Y-74944015D01*
X159337778Y-74978500D01*
X159337779Y-74978500D01*
X159558221Y-74978500D01*
X159558222Y-74978500D01*
X159775951Y-74944015D01*
X159985606Y-74875895D01*
X160182022Y-74775815D01*
X160360365Y-74646242D01*
X160516242Y-74490365D01*
X160645815Y-74312022D01*
X160745895Y-74115606D01*
X160814015Y-73905951D01*
X160848500Y-73688222D01*
X160848500Y-71667778D01*
X160814015Y-71450049D01*
X160766519Y-71303868D01*
X160745896Y-71240396D01*
X160745895Y-71240393D01*
X160711237Y-71172375D01*
X160663142Y-71077983D01*
X161547500Y-71077983D01*
X161547500Y-74278001D01*
X161547501Y-74278018D01*
X161558000Y-74380796D01*
X161558001Y-74380799D01*
X161613185Y-74547331D01*
X161613187Y-74547336D01*
X161640487Y-74591597D01*
X161705288Y-74696656D01*
X161829344Y-74820712D01*
X161978666Y-74912814D01*
X162145203Y-74967999D01*
X162247991Y-74978500D01*
X163648008Y-74978499D01*
X163750797Y-74967999D01*
X163917334Y-74912814D01*
X164066656Y-74820712D01*
X164190712Y-74696656D01*
X164282814Y-74547334D01*
X164337999Y-74380797D01*
X164348500Y-74278009D01*
X164348499Y-71077992D01*
X164345024Y-71043978D01*
X164337999Y-70975203D01*
X164337998Y-70975200D01*
X164326818Y-70941460D01*
X164282814Y-70808666D01*
X164190712Y-70659344D01*
X164066656Y-70535288D01*
X163917334Y-70443186D01*
X163750797Y-70388001D01*
X163750795Y-70388000D01*
X163648010Y-70377500D01*
X162247998Y-70377500D01*
X162247981Y-70377501D01*
X162145203Y-70388000D01*
X162145200Y-70388001D01*
X161978668Y-70443185D01*
X161978663Y-70443187D01*
X161829342Y-70535289D01*
X161705289Y-70659342D01*
X161613187Y-70808663D01*
X161613186Y-70808666D01*
X161558001Y-70975203D01*
X161558001Y-70975204D01*
X161558000Y-70975204D01*
X161547500Y-71077983D01*
X160663142Y-71077983D01*
X160645815Y-71043978D01*
X160595848Y-70975204D01*
X160516247Y-70865641D01*
X160516243Y-70865636D01*
X160360363Y-70709756D01*
X160360358Y-70709752D01*
X160182025Y-70580187D01*
X160182024Y-70580186D01*
X160182022Y-70580185D01*
X160093908Y-70535288D01*
X159985606Y-70480104D01*
X159985603Y-70480103D01*
X159775952Y-70411985D01*
X159624516Y-70388000D01*
X159558222Y-70377500D01*
X159337778Y-70377500D01*
X159271484Y-70388000D01*
X159120047Y-70411985D01*
X158910396Y-70480103D01*
X158910393Y-70480104D01*
X158713974Y-70580187D01*
X158535641Y-70709752D01*
X158535636Y-70709756D01*
X158379756Y-70865636D01*
X158379752Y-70865641D01*
X158250187Y-71043974D01*
X158150104Y-71240393D01*
X158150103Y-71240396D01*
X158081985Y-71450047D01*
X158047500Y-71667778D01*
X140469500Y-71667778D01*
X140469500Y-70399990D01*
X140458999Y-70297202D01*
X140403814Y-70130665D01*
X140311712Y-69981344D01*
X140187656Y-69857288D01*
X140038335Y-69765186D01*
X139871798Y-69710001D01*
X139871796Y-69710000D01*
X139769017Y-69699500D01*
X139769010Y-69699500D01*
X138088990Y-69699500D01*
X138088982Y-69699500D01*
X137986203Y-69710000D01*
X137986202Y-69710001D01*
X137903669Y-69737349D01*
X137819667Y-69765185D01*
X137819662Y-69765187D01*
X137670342Y-69857289D01*
X137546289Y-69981342D01*
X137454187Y-70130662D01*
X137454186Y-70130665D01*
X137399001Y-70297202D01*
X137399001Y-70297203D01*
X137399000Y-70297203D01*
X137388500Y-70399982D01*
X135142854Y-70399982D01*
X135126520Y-70377500D01*
X135024033Y-70236437D01*
X135024029Y-70236432D01*
X134852567Y-70064970D01*
X134852562Y-70064966D01*
X134656401Y-69922448D01*
X134656400Y-69922447D01*
X134656398Y-69922446D01*
X134528519Y-69857288D01*
X134440344Y-69812360D01*
X134209736Y-69737432D01*
X133970245Y-69699500D01*
X133970240Y-69699500D01*
X133727760Y-69699500D01*
X133727755Y-69699500D01*
X133488263Y-69737432D01*
X133257655Y-69812360D01*
X133041598Y-69922448D01*
X132845437Y-70064966D01*
X132845432Y-70064970D01*
X132673970Y-70236432D01*
X132673966Y-70236437D01*
X132531448Y-70432598D01*
X132421360Y-70648655D01*
X132346432Y-70879263D01*
X132308500Y-71118754D01*
X122228778Y-71118754D01*
X122229438Y-66434382D01*
X122249131Y-66367350D01*
X122301941Y-66321602D01*
X122310282Y-66318157D01*
X123484583Y-65882532D01*
X123487125Y-65881621D01*
X125074976Y-65333640D01*
X125077543Y-65332787D01*
X126677532Y-64821336D01*
X126680143Y-64820535D01*
X128291413Y-64345891D01*
X128293981Y-64345166D01*
X129915748Y-63907558D01*
X129918364Y-63906884D01*
X131549714Y-63506560D01*
X131552310Y-63505954D01*
X133192391Y-63143122D01*
X133195144Y-63142546D01*
X134843034Y-62817408D01*
X134845753Y-62816904D01*
X136500718Y-62529606D01*
X136503370Y-62529177D01*
X138164515Y-62279875D01*
X138167260Y-62279495D01*
X139833565Y-62068339D01*
X139836358Y-62068017D01*
X141507121Y-61895097D01*
X141509844Y-61894846D01*
X143184120Y-61760259D01*
X143186846Y-61760070D01*
X144863870Y-61663880D01*
X144866558Y-61663757D01*
X146545303Y-61606024D01*
X146548029Y-61605962D01*
X148227604Y-61586715D01*
X148230396Y-61586715D01*
X149909968Y-61605962D01*
G37*
%TD.AperFunction*%
%TD*%
M02*
