M48
; DRILL file {KiCad 8.0.7} date 2025-01-15T16:40:52+0100
; FORMAT={-:-/ absolute / inch / decimal}
; #@! TF.CreationDate,2025-01-15T16:40:52+01:00
; #@! TF.GenerationSoftware,Kicad,Pcbnew,8.0.7
; #@! TF.FileFunction,Plated,1,4,PTH
FMAT,2
INCH
; #@! TA.AperFunction,Plated,PTH,ViaDrill
T1C0.0118
; #@! TA.AperFunction,Plated,PTH,ViaDrill
T2C0.0157
; #@! TA.AperFunction,Plated,PTH,ComponentDrill
T3C0.0256
; #@! TA.AperFunction,Plated,PTH,ViaDrill
T4C0.0315
; #@! TA.AperFunction,Plated,PTH,ComponentDrill
T5C0.0374
; #@! TA.AperFunction,Plated,PTH,ComponentDrill
T6C0.0390
; #@! TA.AperFunction,Plated,PTH,ComponentDrill
T7C0.0394
; #@! TA.AperFunction,Plated,PTH,ComponentDrill
T8C0.0472
; #@! TA.AperFunction,Plated,PTH,ComponentDrill
T9C0.0512
; #@! TA.AperFunction,Plated,PTH,ComponentDrill
T10C0.0551
; #@! TA.AperFunction,Plated,PTH,ComponentDrill
T11C0.0984
; #@! TA.AperFunction,Plated,PTH,ComponentDrill
T12C0.1260
%
G90
G05
T1
X4.95Y-3.626
X5.1074Y-3.626
X5.1468Y-3.5276
X5.2346Y-3.0728
X5.2559Y-3.6938
X5.3191Y-3.685
X5.3712Y-3.6063
X5.3732Y-3.3839
X5.4696Y-3.7165
X5.4948Y-4.9388
X5.6862Y-5.0906
X5.7103Y-3.6763
X5.7153Y-3.6163
X5.7452Y-4.811
X5.8063Y-3.7972
X5.8456Y-3.1457
X5.8771Y-3.7402
X5.8771Y-3.7717
X5.8771Y-3.8031
X5.8771Y-3.8346
X5.9047Y-3.7559
X5.9047Y-3.7874
X5.9047Y-3.8189
X5.9322Y-3.7402
X5.9322Y-3.7717
X5.9322Y-3.8031
X5.9322Y-3.8346
X5.9703Y-3.6563
X6.0103Y-3.7313
X6.0417Y-3.7465
X6.0563Y-3.1969
X6.0602Y-3.563
X6.0681Y-3.6413
X6.0779Y-3.7739
X6.0878Y-5.0827
X6.1193Y-5.1142
X6.1507Y-5.0591
X6.1678Y-3.5163
X6.2137Y-3.185
X6.2295Y-3.3543
X6.2531Y-3.874
X6.2885Y-3.3543
X6.3082Y-3.4921
X6.3906Y-3.2638
X6.43Y-3.2638
X6.4539Y-3.3685
X6.5303Y-3.8613
X6.5366Y-3.4409
X6.5366Y-3.4724
X6.5376Y-3.3143
X6.5484Y-3.2559
X6.5612Y-3.2903
X6.5681Y-3.8622
X6.5917Y-4.9016
X6.6165Y-3.2848
X6.635Y-3.4724
X6.6586Y-3.1969
X6.6744Y-3.4606
X6.7925Y-4.9921
X6.7964Y-5.0236
X6.8004Y-3.5118
X6.8124Y-3.4803
T2
X5.2649Y-3.5482
X5.2649Y-3.6076
X5.3383Y-3.5014
X5.3594Y-3.7756
X5.3594Y-3.8465
X5.3631Y-3.9173
X5.3633Y-3.9913
X5.3633Y-4.0663
X5.3633Y-4.1413
X5.3633Y-4.2163
X5.383Y-3.5
X5.4301Y-3.7756
X5.4301Y-3.8465
X5.4301Y-3.9173
X5.4303Y-3.9913
X5.4303Y-4.0663
X5.4303Y-4.1413
X5.4303Y-4.2163
X5.5051Y-3.7756
X5.5051Y-3.8465
X5.5051Y-3.9173
X5.5053Y-3.9913
X5.5053Y-4.0663
X5.5053Y-4.2163
X5.5307Y-4.1535
X5.5799Y-3.7756
X5.5799Y-3.8465
X5.5799Y-3.9173
X5.6603Y-4.0193
X5.6603Y-4.0593
X5.6603Y-4.0993
X5.6603Y-4.1393
X5.6783Y-4.7559
X5.6803Y-4.3913
X5.6803Y-4.4663
X5.6803Y-4.5413
X5.6803Y-4.6163
X5.6803Y-4.6913
X5.7003Y-4.0193
X5.7003Y-4.0593
X5.7003Y-4.0993
X5.7003Y-4.1393
X5.7019Y-4.3307
X5.7203Y-3.8063
X5.7253Y-3.8863
X5.7403Y-4.0193
X5.7403Y-4.0593
X5.7403Y-4.0993
X5.7403Y-4.1393
X5.7553Y-4.3913
X5.7553Y-4.4663
X5.7553Y-4.5413
X5.7728Y-4.3307
X5.7803Y-4.0193
X5.7803Y-4.0593
X5.7803Y-4.0993
X5.7803Y-4.1393
X5.8103Y-3.9013
X5.8319Y-4.4291
X5.8319Y-4.5041
X5.8752Y-3.9312
X5.9067Y-4.4291
X5.9342Y-4.5829
X5.9553Y-3.9363
X6.009Y-4.5079
X6.009Y-4.5829
X6.0484Y-5.2874
X6.0622Y-4.1929
X6.0799Y-4.7663
X6.0803Y-4.4663
X6.0803Y-4.5413
X6.0803Y-4.6163
X6.0803Y-4.6913
X6.0996Y-4.3913
X6.1503Y-4.0193
X6.1503Y-4.0593
X6.1503Y-4.0993
X6.1503Y-4.1393
X6.1553Y-4.3913
X6.1553Y-4.4663
X6.1553Y-4.5413
X6.1553Y-4.6163
X6.1553Y-4.6913
X6.1553Y-4.7663
X6.1704Y-4.3228
X6.1903Y-4.0193
X6.1903Y-4.0593
X6.1903Y-4.0993
X6.1903Y-4.1393
X6.2177Y-3.2913
X6.2303Y-4.0193
X6.2303Y-4.0593
X6.2303Y-4.0993
X6.2303Y-4.1393
X6.2703Y-4.0193
X6.2703Y-4.0593
X6.2703Y-4.0993
X6.2703Y-4.1393
X6.2731Y-3.0236
X6.3437Y-3.2913
X6.3603Y-3.4763
X6.4106Y-3.1663
X6.4803Y-3.8613
X6.5303Y-3.6013
X6.5994Y-3.6013
X6.661Y-3.4112
X6.6665Y-3.3661
X6.6746Y-3.6013
X6.7183Y-3.7173
X6.7183Y-3.7653
X6.7183Y-3.8153
X6.7583Y-3.7913
X6.7603Y-3.6013
X6.7603Y-3.9213
T3
X6.661Y-2.815
X6.711Y-2.815
X6.761Y-2.815
X6.811Y-2.815
T4
X4.8941Y-4.4583
X4.8941Y-4.9882
X4.9452Y-4.4583
X4.9452Y-4.9882
X4.95Y-4.685
X4.95Y-4.8031
X4.95Y-4.9213
X4.9964Y-4.4583
X4.9964Y-4.9882
X5.0681Y-4.685
X5.0681Y-4.8031
X5.0681Y-4.9213
X5.1429Y-4.4583
X5.1429Y-4.9882
X5.1862Y-4.685
X5.1862Y-4.8031
X5.1862Y-4.9213
X5.1941Y-4.4583
X5.1941Y-4.9882
X5.2452Y-4.4583
X5.2452Y-4.9882
X5.2846Y-2.9823
X5.3752Y-4.3307
X5.3791Y-4.4803
X5.3791Y-4.6732
X5.4027Y-3.3071
X5.4027Y-3.4449
X5.4145Y-4.8661
X5.4421Y-3.002
X5.4421Y-3.0807
X5.4421Y-3.1693
X5.513Y-4.7992
X5.5622Y-2.9921
X5.5622Y-3.0807
X5.5622Y-3.1693
X5.5799Y-4.937
X5.6507Y-2.9921
X5.6507Y-3.0807
X5.6507Y-3.1693
X5.6665Y-4.8583
X5.7059Y-4.9803
X5.7846Y-4.9173
X5.8397Y-4.248
X5.8397Y-4.811
X5.9145Y-4.248
X5.9145Y-4.811
X5.9893Y-4.248
X5.9893Y-4.811
X6.3319Y-5.2677
X6.6704Y-4.7283
X6.6704Y-4.8386
X6.6744Y-4.5433
X6.6744Y-4.6339
X6.7717Y-4.4882
X6.7728Y-4.7835
T5
X5.7472Y-2.9035
X5.8456Y-2.9035
X5.9441Y-2.9035
X6.0425Y-2.9035
T6
X5.7482Y-5.2771
X5.9254Y-5.2771
T7
X6.5553Y-5.0213
X6.5553Y-5.1213
X6.5553Y-5.2213
X6.5553Y-5.3213
T8
X6.2775Y-2.8613
X6.4153Y-2.8613
T9
X5.6986Y-5.179
X5.9746Y-5.179
T10
X5.2696Y-2.8346
X5.4696Y-2.8346
T11
X5.0976Y-3.3169
X5.4503Y-5.0813
T12
X4.9147Y-5.2756
X5.0517Y-3.0376
X6.6198Y-3.0376
X6.7569Y-5.2756
T7
G00X5.0681Y-4.2411
M15
G01X5.0681Y-4.0325
M16
G05
G00X6.3476Y-3.8474
M15
G01X6.3476Y-3.6388
M16
G05
G00X6.6035Y-4.2411
M15
G01X6.6035Y-4.0325
M16
G05
M30
