%TF.GenerationSoftware,KiCad,Pcbnew,8.0.7*%
%TF.CreationDate,2025-01-15T16:40:05+01:00*%
%TF.ProjectId,makita-ps,6d616b69-7461-42d7-9073-2e6b69636164,1*%
%TF.SameCoordinates,Original*%
%TF.FileFunction,Soldermask,Top*%
%TF.FilePolarity,Negative*%
%FSLAX46Y46*%
G04 Gerber Fmt 4.6, Leading zero omitted, Abs format (unit mm)*
G04 Created by KiCad (PCBNEW 8.0.7) date 2025-01-15 16:40:05*
%MOMM*%
%LPD*%
G01*
G04 APERTURE LIST*
G04 Aperture macros list*
%AMRoundRect*
0 Rectangle with rounded corners*
0 $1 Rounding radius*
0 $2 $3 $4 $5 $6 $7 $8 $9 X,Y pos of 4 corners*
0 Add a 4 corners polygon primitive as box body*
4,1,4,$2,$3,$4,$5,$6,$7,$8,$9,$2,$3,0*
0 Add four circle primitives for the rounded corners*
1,1,$1+$1,$2,$3*
1,1,$1+$1,$4,$5*
1,1,$1+$1,$6,$7*
1,1,$1+$1,$8,$9*
0 Add four rect primitives between the rounded corners*
20,1,$1+$1,$2,$3,$4,$5,0*
20,1,$1+$1,$4,$5,$6,$7,0*
20,1,$1+$1,$6,$7,$8,$9,0*
20,1,$1+$1,$8,$9,$2,$3,0*%
%AMFreePoly0*
4,1,9,2.975000,-2.350000,1.425000,-2.350000,1.425000,-2.100000,-1.650000,-2.100000,-1.650000,2.100000,1.425000,2.100000,1.425000,2.350000,2.975000,2.350000,2.975000,-2.350000,2.975000,-2.350000,$1*%
%AMFreePoly1*
4,1,6,1.000000,0.000000,0.500000,-0.750000,-0.500000,-0.750000,-0.500000,0.750000,0.500000,0.750000,1.000000,0.000000,1.000000,0.000000,$1*%
%AMFreePoly2*
4,1,12,0.140000,-0.355000,0.136651,-0.355000,0.121244,-0.412500,0.070000,-0.463744,0.000000,-0.482500,-0.070000,-0.463744,-0.121244,-0.412500,-0.136651,-0.355000,-0.140000,-0.355000,-0.140000,0.355000,0.140000,0.355000,0.140000,-0.355000,0.140000,-0.355000,$1*%
%AMFreePoly3*
4,1,10,0.425000,0.121244,0.476244,0.070000,0.495000,0.000000,0.476244,-0.070000,0.425000,-0.121244,0.355000,-0.140000,-0.355000,-0.140000,-0.355000,0.140000,0.355000,0.140000,0.425000,0.121244,0.425000,0.121244,$1*%
%AMFreePoly4*
4,1,12,0.355000,0.136650,0.412500,0.121244,0.463744,0.070000,0.482500,0.000000,0.463744,-0.070000,0.412500,-0.121244,0.355000,-0.136650,0.355000,-0.140000,-0.355000,-0.140000,-0.355000,0.140000,0.355000,0.140000,0.355000,0.136650,0.355000,0.136650,$1*%
%AMFreePoly5*
4,1,12,0.070000,0.463744,0.121244,0.412500,0.136651,0.355000,0.140000,0.355000,0.140000,-0.355000,-0.140000,-0.355000,-0.140000,0.355000,-0.136651,0.355000,-0.121244,0.412500,-0.070000,0.463744,0.000000,0.482500,0.070000,0.463744,0.070000,0.463744,$1*%
%AMFreePoly6*
4,1,12,0.355000,-0.140000,-0.355000,-0.140000,-0.355000,-0.136650,-0.412500,-0.121244,-0.463744,-0.070000,-0.482500,0.000000,-0.463744,0.070000,-0.412500,0.121244,-0.355000,0.136650,-0.355000,0.140000,0.355000,0.140000,0.355000,-0.140000,0.355000,-0.140000,$1*%
G04 Aperture macros list end*
%ADD10RoundRect,0.200000X0.200000X0.275000X-0.200000X0.275000X-0.200000X-0.275000X0.200000X-0.275000X0*%
%ADD11RoundRect,0.250000X0.475000X-0.250000X0.475000X0.250000X-0.475000X0.250000X-0.475000X-0.250000X0*%
%ADD12RoundRect,0.250002X-1.699998X-1.699998X1.699998X-1.699998X1.699998X1.699998X-1.699998X1.699998X0*%
%ADD13RoundRect,0.250000X-0.550000X1.500000X-0.550000X-1.500000X0.550000X-1.500000X0.550000X1.500000X0*%
%ADD14RoundRect,0.250000X-0.325000X-0.650000X0.325000X-0.650000X0.325000X0.650000X-0.325000X0.650000X0*%
%ADD15RoundRect,0.250000X0.250000X0.475000X-0.250000X0.475000X-0.250000X-0.475000X0.250000X-0.475000X0*%
%ADD16RoundRect,0.200000X0.275000X-0.200000X0.275000X0.200000X-0.275000X0.200000X-0.275000X-0.200000X0*%
%ADD17RoundRect,0.250000X-1.500000X-0.550000X1.500000X-0.550000X1.500000X0.550000X-1.500000X0.550000X0*%
%ADD18RoundRect,0.249999X0.790001X1.550001X-0.790001X1.550001X-0.790001X-1.550001X0.790001X-1.550001X0*%
%ADD19O,2.080000X3.600000*%
%ADD20RoundRect,0.150000X0.150000X-0.512500X0.150000X0.512500X-0.150000X0.512500X-0.150000X-0.512500X0*%
%ADD21RoundRect,0.200000X-0.275000X0.200000X-0.275000X-0.200000X0.275000X-0.200000X0.275000X0.200000X0*%
%ADD22RoundRect,0.225000X0.250000X-0.225000X0.250000X0.225000X-0.250000X0.225000X-0.250000X-0.225000X0*%
%ADD23RoundRect,0.175000X-0.400000X0.175000X-0.400000X-0.175000X0.400000X-0.175000X0.400000X0.175000X0*%
%ADD24FreePoly0,0.000000*%
%ADD25RoundRect,0.112500X0.112500X-0.187500X0.112500X0.187500X-0.112500X0.187500X-0.112500X-0.187500X0*%
%ADD26R,1.500000X1.500000*%
%ADD27FreePoly1,0.000000*%
%ADD28FreePoly1,180.000000*%
%ADD29R,1.700000X1.700000*%
%ADD30O,1.700000X1.700000*%
%ADD31FreePoly2,0.000000*%
%ADD32FreePoly3,0.000000*%
%ADD33FreePoly4,0.000000*%
%ADD34FreePoly5,0.000000*%
%ADD35FreePoly6,0.000000*%
%ADD36R,2.050000X3.100000*%
%ADD37RoundRect,0.243600X0.771400X-1.406400X0.771400X1.406400X-0.771400X1.406400X-0.771400X-1.406400X0*%
%ADD38RoundRect,0.190000X0.190000X-0.510000X0.190000X0.510000X-0.190000X0.510000X-0.190000X-0.510000X0*%
%ADD39RoundRect,0.250000X0.650000X1.550000X-0.650000X1.550000X-0.650000X-1.550000X0.650000X-1.550000X0*%
%ADD40O,1.800000X3.600000*%
%ADD41RoundRect,0.125000X-0.125000X0.537500X-0.125000X-0.537500X0.125000X-0.537500X0.125000X0.537500X0*%
%ADD42R,0.530000X0.440000*%
%ADD43R,1.000000X0.880000*%
%ADD44RoundRect,0.200000X-0.200000X-0.275000X0.200000X-0.275000X0.200000X0.275000X-0.200000X0.275000X0*%
%ADD45RoundRect,0.250000X0.600000X0.725000X-0.600000X0.725000X-0.600000X-0.725000X0.600000X-0.725000X0*%
%ADD46O,1.700000X1.950000*%
%ADD47RoundRect,0.125000X0.125000X-0.537500X0.125000X0.537500X-0.125000X0.537500X-0.125000X-0.537500X0*%
%ADD48R,0.500000X0.800000*%
%ADD49RoundRect,0.250000X-0.475000X0.250000X-0.475000X-0.250000X0.475000X-0.250000X0.475000X0.250000X0*%
%ADD50RoundRect,0.112500X-0.112500X-0.237500X0.112500X-0.237500X0.112500X0.237500X-0.112500X0.237500X0*%
%ADD51RoundRect,0.225000X-0.225000X-0.250000X0.225000X-0.250000X0.225000X0.250000X-0.225000X0.250000X0*%
%ADD52RoundRect,0.150000X0.150000X-0.587500X0.150000X0.587500X-0.150000X0.587500X-0.150000X-0.587500X0*%
%ADD53C,2.100000*%
%ADD54C,1.750000*%
%ADD55R,1.000000X1.000000*%
%ADD56O,1.000000X1.000000*%
%ADD57RoundRect,0.102000X1.410000X-0.785000X1.410000X0.785000X-1.410000X0.785000X-1.410000X-0.785000X0*%
%ADD58RoundRect,0.100000X-0.637500X-0.100000X0.637500X-0.100000X0.637500X0.100000X-0.637500X0.100000X0*%
%ADD59RoundRect,0.250000X-0.450000X0.262500X-0.450000X-0.262500X0.450000X-0.262500X0.450000X0.262500X0*%
%ADD60RoundRect,0.243600X1.406400X0.771400X-1.406400X0.771400X-1.406400X-0.771400X1.406400X-0.771400X0*%
%ADD61RoundRect,0.190000X0.510000X0.190000X-0.510000X0.190000X-0.510000X-0.190000X0.510000X-0.190000X0*%
%ADD62R,5.000000X3.100000*%
%ADD63R,0.400000X0.800000*%
%ADD64R,2.700000X1.000000*%
%ADD65RoundRect,0.093750X-0.093750X-0.106250X0.093750X-0.106250X0.093750X0.106250X-0.093750X0.106250X0*%
%ADD66R,1.000000X1.600000*%
%ADD67O,3.000000X8.300000*%
%ADD68C,5.600000*%
G04 APERTURE END LIST*
D10*
%TO.C,R1*%
X166254000Y-81500000D03*
X164604000Y-81500000D03*
%TD*%
D11*
%TO.C,C4*%
X169552000Y-94893000D03*
X169552000Y-92993000D03*
%TD*%
D12*
%TO.C,J7*%
X138437000Y-129066000D03*
%TD*%
D13*
%TO.C,C23*%
X160789000Y-125625000D03*
X160789000Y-131225000D03*
%TD*%
D14*
%TO.C,C15*%
X139479000Y-114950000D03*
X142429000Y-114950000D03*
%TD*%
D15*
%TO.C,C16*%
X159679000Y-114334000D03*
X157779000Y-114334000D03*
%TD*%
D16*
%TO.C,R7*%
X163194000Y-86102000D03*
X163194000Y-84452000D03*
%TD*%
D11*
%TO.C,C5*%
X171711000Y-94898000D03*
X171711000Y-92998000D03*
%TD*%
D17*
%TO.C,C17*%
X163929000Y-114000000D03*
X169529000Y-114000000D03*
%TD*%
D18*
%TO.C,J1*%
X138929000Y-72000000D03*
D19*
X133849000Y-72000000D03*
%TD*%
D15*
%TO.C,C6*%
X146479000Y-96705000D03*
X144579000Y-96705000D03*
%TD*%
D20*
%TO.C,U5*%
X165869000Y-98895000D03*
X166819000Y-98895000D03*
X167769000Y-98895000D03*
X167769000Y-96620000D03*
X166819000Y-96620000D03*
X165869000Y-96620000D03*
%TD*%
D21*
%TO.C,R4*%
X150129000Y-84975000D03*
X150129000Y-86625000D03*
%TD*%
D22*
%TO.C,C3*%
X132929000Y-91675000D03*
X132929000Y-90125000D03*
%TD*%
D16*
%TO.C,R9*%
X155229000Y-88525000D03*
X155229000Y-86875000D03*
%TD*%
D10*
%TO.C,R14*%
X166354000Y-90200000D03*
X164704000Y-90200000D03*
%TD*%
D23*
%TO.C,Q2*%
X141559000Y-101710000D03*
X141559000Y-102980000D03*
X141559000Y-104260000D03*
X141559000Y-105530000D03*
D24*
X144829000Y-103620000D03*
%TD*%
D25*
%TO.C,D2*%
X152929000Y-83850000D03*
X152929000Y-81750000D03*
%TD*%
D26*
%TO.C,JP2*%
X126529000Y-93500000D03*
X128929000Y-93500000D03*
D27*
X125729000Y-93500000D03*
D28*
X129729000Y-93500000D03*
%TD*%
D10*
%TO.C,R16*%
X146079000Y-93400000D03*
X144429000Y-93400000D03*
%TD*%
%TO.C,R12*%
X146229000Y-91900000D03*
X144579000Y-91900000D03*
%TD*%
D29*
%TO.C,J6*%
X166504000Y-127542000D03*
D30*
X166504000Y-130082000D03*
X166504000Y-132622000D03*
X166504000Y-135162000D03*
%TD*%
D22*
%TO.C,C2*%
X172465000Y-86687000D03*
X172465000Y-85137000D03*
%TD*%
D16*
%TO.C,R3*%
X154729000Y-83725000D03*
X154729000Y-82075000D03*
%TD*%
D31*
%TO.C,U4*%
X149229000Y-93410000D03*
D32*
X148184000Y-93955000D03*
D33*
X148184000Y-94455000D03*
X148184000Y-94955000D03*
X148184000Y-95455000D03*
X148184000Y-95955000D03*
X148184000Y-96455000D03*
X148184000Y-96955000D03*
X148184000Y-97455000D03*
X148184000Y-97955000D03*
X148184000Y-98455000D03*
D34*
X149229000Y-99000000D03*
X150729000Y-99000000D03*
D35*
X151774000Y-98455000D03*
X151774000Y-97955000D03*
X151774000Y-97455000D03*
X151774000Y-96955000D03*
X151774000Y-96455000D03*
X151774000Y-95955000D03*
X151774000Y-95455000D03*
X151774000Y-94955000D03*
X151774000Y-94455000D03*
X151774000Y-93955000D03*
D31*
X150729000Y-93410000D03*
D36*
X149979000Y-96205000D03*
%TD*%
D37*
%TO.C,R2*%
X133594000Y-84980000D03*
D38*
X135499000Y-85930000D03*
X132959000Y-79070000D03*
D37*
X134864000Y-80020000D03*
%TD*%
D39*
%TO.C,J4*%
X162948000Y-72678000D03*
D40*
X159448000Y-72678000D03*
%TD*%
D26*
%TO.C,JP1*%
X126529000Y-90750000D03*
X128929000Y-90750000D03*
D27*
X125729000Y-90750000D03*
D28*
X129729000Y-90750000D03*
%TD*%
D41*
%TO.C,U3*%
X136404000Y-90325000D03*
X135754000Y-90325000D03*
X135104000Y-90325000D03*
X134454000Y-90325000D03*
X134454000Y-92600000D03*
X135104000Y-92600000D03*
X135754000Y-92600000D03*
X136404000Y-92600000D03*
%TD*%
D14*
%TO.C,C18*%
X139479000Y-117450000D03*
X142429000Y-117450000D03*
%TD*%
D10*
%TO.C,R8*%
X153554000Y-89400000D03*
X151904000Y-89400000D03*
%TD*%
D15*
%TO.C,C9*%
X146479000Y-98750000D03*
X144579000Y-98750000D03*
%TD*%
D42*
%TO.C,D3*%
X154639000Y-135170000D03*
X155419000Y-135170000D03*
D43*
X153579000Y-135390000D03*
X156479000Y-135390000D03*
%TD*%
D44*
%TO.C,R6*%
X157479000Y-85200000D03*
X159129000Y-85200000D03*
%TD*%
%TO.C,R5*%
X156662000Y-86902000D03*
X158312000Y-86902000D03*
%TD*%
D45*
%TO.C,J3*%
X153479000Y-73750000D03*
D46*
X150979000Y-73750000D03*
X148479000Y-73750000D03*
X145979000Y-73750000D03*
%TD*%
D47*
%TO.C,U1*%
X158454000Y-81937500D03*
X159104000Y-81937500D03*
X159754000Y-81937500D03*
X160404000Y-81937500D03*
X160404000Y-79662500D03*
X159754000Y-79662500D03*
X159104000Y-79662500D03*
X158454000Y-79662500D03*
%TD*%
D48*
%TO.C,RN1*%
X162321000Y-82225000D03*
X163321000Y-82225000D03*
X163321000Y-80425000D03*
X162321000Y-80425000D03*
%TD*%
D49*
%TO.C,C8*%
X169552000Y-96559000D03*
X169552000Y-98459000D03*
%TD*%
D44*
%TO.C,R13*%
X151579000Y-92000000D03*
X153229000Y-92000000D03*
%TD*%
D50*
%TO.C,D1*%
X158865000Y-77995500D03*
X160165000Y-77995500D03*
X159515000Y-75995500D03*
%TD*%
D51*
%TO.C,C1*%
X158740000Y-83599500D03*
X160290000Y-83599500D03*
%TD*%
D12*
%TO.C,J5*%
X129479000Y-84250000D03*
%TD*%
D52*
%TO.C,Q1*%
X151729000Y-87600000D03*
X153629000Y-87600000D03*
X152679000Y-85725000D03*
%TD*%
D49*
%TO.C,C10*%
X153479000Y-97300000D03*
X153479000Y-99200000D03*
%TD*%
D53*
%TO.C,SW1*%
X151754000Y-131547500D03*
X144744000Y-131547500D03*
D54*
X150504000Y-134037500D03*
X146004000Y-134037500D03*
%TD*%
D14*
%TO.C,C13*%
X139479000Y-112450000D03*
X142429000Y-112450000D03*
%TD*%
%TO.C,C11*%
X139504000Y-109950000D03*
X142454000Y-109950000D03*
%TD*%
D55*
%TO.C,J2*%
X169189000Y-71500000D03*
D56*
X170459000Y-71500000D03*
X171729000Y-71500000D03*
X172999000Y-71500000D03*
%TD*%
D14*
%TO.C,C20*%
X139479000Y-119950000D03*
X142429000Y-119950000D03*
%TD*%
D57*
%TO.C,F1*%
X125609000Y-126700000D03*
X131929000Y-126700000D03*
X125609000Y-113240000D03*
X131929000Y-113240000D03*
%TD*%
D58*
%TO.C,U2*%
X164972000Y-82961000D03*
X164972000Y-83611000D03*
X164972000Y-84261000D03*
X164972000Y-84911000D03*
X164972000Y-85561000D03*
X164972000Y-86211000D03*
X164972000Y-86861000D03*
X164972000Y-87511000D03*
X164972000Y-88161000D03*
X164972000Y-88811000D03*
X170697000Y-88811000D03*
X170697000Y-88161000D03*
X170697000Y-87511000D03*
X170697000Y-86861000D03*
X170697000Y-86211000D03*
X170697000Y-85561000D03*
X170697000Y-84911000D03*
X170697000Y-84261000D03*
X170697000Y-83611000D03*
X170697000Y-82961000D03*
%TD*%
D22*
%TO.C,C7*%
X164218000Y-96506000D03*
X164218000Y-94956000D03*
%TD*%
D59*
%TO.C,R19*%
X157106000Y-96427000D03*
X157106000Y-98252000D03*
%TD*%
D10*
%TO.C,R11*%
X163202000Y-87537000D03*
X161552000Y-87537000D03*
%TD*%
D15*
%TO.C,C19*%
X159707000Y-116620000D03*
X157807000Y-116620000D03*
%TD*%
D10*
%TO.C,R10*%
X163202000Y-89061000D03*
X161552000Y-89061000D03*
%TD*%
D15*
%TO.C,C12*%
X159679000Y-109762000D03*
X157779000Y-109762000D03*
%TD*%
D21*
%TO.C,R21*%
X148484000Y-78980000D03*
X148484000Y-80630000D03*
%TD*%
D16*
%TO.C,R15*%
X143029000Y-95025000D03*
X143029000Y-93375000D03*
%TD*%
D17*
%TO.C,C22*%
X164029000Y-121500000D03*
X169429000Y-121500000D03*
%TD*%
D60*
%TO.C,R20*%
X144959000Y-124835000D03*
D61*
X145909000Y-122930000D03*
X139049000Y-125470000D03*
D60*
X139999000Y-123565000D03*
%TD*%
D62*
%TO.C,L2*%
X150229000Y-109450000D03*
X150229000Y-120550000D03*
%TD*%
D59*
%TO.C,R18*%
X157106000Y-92951000D03*
X157106000Y-94776000D03*
%TD*%
D48*
%TO.C,RN2*%
X156229000Y-131100000D03*
D63*
X155429000Y-131100000D03*
X154629000Y-131100000D03*
D48*
X153829000Y-131100000D03*
X153829000Y-132900000D03*
D63*
X154629000Y-132900000D03*
X155429000Y-132900000D03*
D48*
X156229000Y-132900000D03*
%TD*%
D64*
%TO.C,L1*%
X166758000Y-94842000D03*
X166758000Y-92642000D03*
%TD*%
D15*
%TO.C,C21*%
X159707000Y-118906000D03*
X157807000Y-118906000D03*
%TD*%
D10*
%TO.C,R17*%
X146079000Y-94900000D03*
X144429000Y-94900000D03*
%TD*%
D23*
%TO.C,Q3*%
X154009000Y-101670000D03*
X154009000Y-102940000D03*
X154009000Y-104220000D03*
X154009000Y-105490000D03*
D24*
X157279000Y-103580000D03*
%TD*%
D15*
%TO.C,C14*%
X159679000Y-112048000D03*
X157779000Y-112048000D03*
%TD*%
D65*
%TO.C,U6*%
X157404000Y-120777000D03*
X157404000Y-121427000D03*
X157404000Y-122077000D03*
X159179000Y-122077000D03*
X159179000Y-121427000D03*
X159179000Y-120777000D03*
D66*
X158291500Y-121427000D03*
%TD*%
D67*
%TO.C,BT1*%
X167729000Y-105075000D03*
X128729000Y-105075000D03*
D68*
X171624000Y-134000000D03*
X168144000Y-77156000D03*
X128314000Y-77156000D03*
X124834000Y-134000000D03*
D67*
X161229000Y-95075000D03*
%TD*%
M02*
