%TF.GenerationSoftware,KiCad,Pcbnew,8.0.7*%
%TF.CreationDate,2025-01-15T16:40:05+01:00*%
%TF.ProjectId,makita-ps,6d616b69-7461-42d7-9073-2e6b69636164,1*%
%TF.SameCoordinates,Original*%
%TF.FileFunction,Copper,L4,Bot*%
%TF.FilePolarity,Positive*%
%FSLAX46Y46*%
G04 Gerber Fmt 4.6, Leading zero omitted, Abs format (unit mm)*
G04 Created by KiCad (PCBNEW 8.0.7) date 2025-01-15 16:40:05*
%MOMM*%
%LPD*%
G01*
G04 APERTURE LIST*
G04 Aperture macros list*
%AMRoundRect*
0 Rectangle with rounded corners*
0 $1 Rounding radius*
0 $2 $3 $4 $5 $6 $7 $8 $9 X,Y pos of 4 corners*
0 Add a 4 corners polygon primitive as box body*
4,1,4,$2,$3,$4,$5,$6,$7,$8,$9,$2,$3,0*
0 Add four circle primitives for the rounded corners*
1,1,$1+$1,$2,$3*
1,1,$1+$1,$4,$5*
1,1,$1+$1,$6,$7*
1,1,$1+$1,$8,$9*
0 Add four rect primitives between the rounded corners*
20,1,$1+$1,$2,$3,$4,$5,0*
20,1,$1+$1,$4,$5,$6,$7,0*
20,1,$1+$1,$6,$7,$8,$9,0*
20,1,$1+$1,$8,$9,$2,$3,0*%
G04 Aperture macros list end*
%TA.AperFunction,ComponentPad*%
%ADD10RoundRect,0.250002X-1.699998X-1.699998X1.699998X-1.699998X1.699998X1.699998X-1.699998X1.699998X0*%
%TD*%
%TA.AperFunction,ComponentPad*%
%ADD11RoundRect,0.249999X0.790001X1.550001X-0.790001X1.550001X-0.790001X-1.550001X0.790001X-1.550001X0*%
%TD*%
%TA.AperFunction,ComponentPad*%
%ADD12O,2.080000X3.600000*%
%TD*%
%TA.AperFunction,ComponentPad*%
%ADD13R,1.700000X1.700000*%
%TD*%
%TA.AperFunction,ComponentPad*%
%ADD14O,1.700000X1.700000*%
%TD*%
%TA.AperFunction,ComponentPad*%
%ADD15RoundRect,0.250000X0.650000X1.550000X-0.650000X1.550000X-0.650000X-1.550000X0.650000X-1.550000X0*%
%TD*%
%TA.AperFunction,ComponentPad*%
%ADD16O,1.800000X3.600000*%
%TD*%
%TA.AperFunction,ComponentPad*%
%ADD17RoundRect,0.250000X0.600000X0.725000X-0.600000X0.725000X-0.600000X-0.725000X0.600000X-0.725000X0*%
%TD*%
%TA.AperFunction,ComponentPad*%
%ADD18O,1.700000X1.950000*%
%TD*%
%TA.AperFunction,ComponentPad*%
%ADD19C,2.100000*%
%TD*%
%TA.AperFunction,ComponentPad*%
%ADD20C,1.750000*%
%TD*%
%TA.AperFunction,ComponentPad*%
%ADD21R,1.000000X1.000000*%
%TD*%
%TA.AperFunction,ComponentPad*%
%ADD22O,1.000000X1.000000*%
%TD*%
%TA.AperFunction,ComponentPad*%
%ADD23O,3.000000X8.300000*%
%TD*%
%TA.AperFunction,ComponentPad*%
%ADD24C,5.600000*%
%TD*%
%TA.AperFunction,ViaPad*%
%ADD25C,1.200000*%
%TD*%
%TA.AperFunction,ViaPad*%
%ADD26C,0.800000*%
%TD*%
%TA.AperFunction,ViaPad*%
%ADD27C,0.600000*%
%TD*%
%TA.AperFunction,Conductor*%
%ADD28C,0.350000*%
%TD*%
%TA.AperFunction,Conductor*%
%ADD29C,0.750000*%
%TD*%
G04 APERTURE END LIST*
D10*
%TO.P,J7,1,Pin_1*%
%TO.N,+12V*%
X138437000Y-129066000D03*
%TD*%
D11*
%TO.P,J1,1,Pin_1*%
%TO.N,PGND*%
X138929000Y-72000000D03*
D12*
%TO.P,J1,2,Pin_2*%
%TO.N,/+12V_OUT*%
X133849000Y-72000000D03*
%TD*%
D13*
%TO.P,J6,1,Pin_1*%
%TO.N,PGND*%
X166504000Y-127542000D03*
D14*
%TO.P,J6,2,Pin_2*%
%TO.N,+3V3*%
X166504000Y-130082000D03*
%TO.P,J6,3,Pin_3*%
%TO.N,/SCL*%
X166504000Y-132622000D03*
%TO.P,J6,4,Pin_4*%
%TO.N,/SDA*%
X166504000Y-135162000D03*
%TD*%
D15*
%TO.P,J4,1,Pin_1*%
%TO.N,/CAN-*%
X162948000Y-72678000D03*
D16*
%TO.P,J4,2,Pin_2*%
%TO.N,/CAN+*%
X159448000Y-72678000D03*
%TD*%
D17*
%TO.P,J3,1,Pin_1*%
%TO.N,PGND*%
X153479000Y-73750000D03*
D18*
%TO.P,J3,2,Pin_2*%
%TO.N,/PWR_BTN*%
X150979000Y-73750000D03*
%TO.P,J3,3,Pin_3*%
%TO.N,/AUX_R*%
X148479000Y-73750000D03*
%TO.P,J3,4,Pin_4*%
%TO.N,+3V3*%
X145979000Y-73750000D03*
%TD*%
D10*
%TO.P,J5,1,Pin_1*%
%TO.N,/+12V_CS*%
X129479000Y-84250000D03*
%TD*%
D19*
%TO.P,SW1,*%
%TO.N,*%
X151754000Y-131547500D03*
X144744000Y-131547500D03*
D20*
%TO.P,SW1,1,1*%
%TO.N,PGND*%
X150504000Y-134037500D03*
%TO.P,SW1,2,2*%
%TO.N,Net-(RN2D-R4.2)*%
X146004000Y-134037500D03*
%TD*%
D21*
%TO.P,J2,1,Pin_1*%
%TO.N,PGND*%
X169189000Y-71500000D03*
D22*
%TO.P,J2,2,Pin_2*%
%TO.N,/~{RST}*%
X170459000Y-71500000D03*
%TO.P,J2,3,Pin_3*%
%TO.N,/SWCLK*%
X171729000Y-71500000D03*
%TO.P,J2,4,Pin_4*%
%TO.N,/SWDIO*%
X172999000Y-71500000D03*
%TD*%
D23*
%TO.P,BT1,+,+*%
%TO.N,VDD*%
X167729000Y-105075000D03*
%TO.P,BT1,-,-*%
%TO.N,/BT_RAW*%
X128729000Y-105075000D03*
D24*
%TO.P,BT1,M,M*%
%TO.N,PGND*%
X171624000Y-134000000D03*
X168144000Y-77156000D03*
X128314000Y-77156000D03*
X124834000Y-134000000D03*
D23*
%TO.P,BT1,T,T*%
%TO.N,Net-(BT1-PadT)*%
X161229000Y-95075000D03*
%TD*%
D25*
%TO.N,PGND*%
X125729000Y-119000000D03*
D26*
X170644200Y-95639600D03*
X159336000Y-76800000D03*
X139834000Y-101380000D03*
X139834000Y-103285000D03*
X156729000Y-109800000D03*
D25*
X124309000Y-126700000D03*
X125729000Y-122000000D03*
D26*
X156344000Y-113445000D03*
X154439000Y-115350000D03*
X156344000Y-117255000D03*
X161552000Y-88299000D03*
D27*
X149979000Y-97000000D03*
D26*
X171660200Y-96300000D03*
D25*
X128729000Y-122000000D03*
D26*
X148129000Y-112500000D03*
X156344000Y-111540000D03*
X137929000Y-105190000D03*
D25*
X143529000Y-78250000D03*
D27*
X153829000Y-81200000D03*
D25*
X133229000Y-126700000D03*
D26*
X150729000Y-116405000D03*
X136229000Y-105190000D03*
D25*
X131729000Y-125000000D03*
D26*
X139834000Y-107095000D03*
X137924000Y-97700000D03*
X144279000Y-115350000D03*
D25*
X141279000Y-78250000D03*
D26*
X136229000Y-103285000D03*
D27*
X149279000Y-97400000D03*
D25*
X125609000Y-126700000D03*
D26*
X139829000Y-97700000D03*
X154439000Y-117255000D03*
D25*
X131729000Y-119000000D03*
D27*
X149279000Y-96600000D03*
D25*
X131929000Y-126700000D03*
X125729000Y-125000000D03*
D26*
X137929000Y-103285000D03*
D25*
X141279000Y-80500000D03*
D26*
X170644200Y-94420400D03*
X137929000Y-101380000D03*
X144279000Y-111540000D03*
X144279000Y-113445000D03*
X156344000Y-121065000D03*
D25*
X143529000Y-80500000D03*
D26*
X136229000Y-107095000D03*
X171711000Y-99602000D03*
X148129000Y-114405000D03*
X145422012Y-98713000D03*
D25*
X169529000Y-115400000D03*
D26*
X156344000Y-115350000D03*
X141729000Y-97700000D03*
X139829000Y-95900000D03*
D27*
X149279000Y-95000000D03*
D25*
X169429000Y-120100000D03*
D26*
X146184000Y-115350000D03*
X170644200Y-96909600D03*
D27*
X150679000Y-95000000D03*
D26*
X144229000Y-120800000D03*
D27*
X149979000Y-95400000D03*
D26*
X146629000Y-110000000D03*
D27*
X150679000Y-96600000D03*
X125729000Y-92100000D03*
D26*
X146184000Y-113445000D03*
D25*
X169529000Y-117700000D03*
D26*
X157929000Y-83600000D03*
X139829000Y-99500000D03*
D25*
X131729000Y-122000000D03*
D26*
X146184000Y-111540000D03*
D27*
X150679000Y-95800000D03*
D25*
X143529000Y-76000000D03*
D26*
X133729000Y-91632500D03*
X137929000Y-107095000D03*
X136224000Y-99500000D03*
D25*
X130629000Y-126700000D03*
D26*
X136129000Y-95900000D03*
D27*
X150679000Y-97400000D03*
X149979000Y-96200000D03*
X149279000Y-95800000D03*
D26*
X154439000Y-113445000D03*
X154429000Y-121065000D03*
X150029000Y-112500000D03*
X144279000Y-119160000D03*
D25*
X172000000Y-114000000D03*
X128729000Y-125000000D03*
D26*
X136129000Y-97700000D03*
D25*
X172029000Y-121500000D03*
D26*
X154439000Y-119160000D03*
X137924000Y-99500000D03*
D25*
X126909000Y-126700000D03*
X169429000Y-122900000D03*
D26*
X154929000Y-111540000D03*
X144279000Y-117255000D03*
X141729000Y-95900000D03*
D25*
X128729000Y-119000000D03*
D26*
X136229000Y-101380000D03*
X152629000Y-116405000D03*
X137924000Y-95900000D03*
X152629000Y-114500000D03*
X141729000Y-99500000D03*
D25*
X141279000Y-76000000D03*
X160829000Y-133800000D03*
D26*
X156344000Y-119160000D03*
X144829000Y-110000000D03*
X169188132Y-86643846D03*
D27*
%TO.N,Net-(D2-K)*%
X158228992Y-85200000D03*
X160229000Y-88700000D03*
D26*
%TO.N,Net-(Q2-G)*%
X147581000Y-99094000D03*
X140479000Y-105500000D03*
%TO.N,AGND*%
X145295000Y-96681000D03*
D27*
X151645000Y-92871000D03*
X145168000Y-91855000D03*
X145041000Y-93379000D03*
X147479000Y-96450000D03*
X154378258Y-95858258D03*
D26*
%TO.N,Net-(Q3-G)*%
X151264000Y-99982998D03*
X153978992Y-106500000D03*
D27*
%TO.N,Net-(U3-IN-)*%
X132959000Y-78050000D03*
D26*
X135592808Y-88936192D03*
D25*
%TO.N,+12V*%
X136629000Y-113800000D03*
X140029000Y-121900000D03*
X137529000Y-123600000D03*
X136529000Y-110000000D03*
X141729000Y-125400000D03*
X136629000Y-118700000D03*
D26*
%TO.N,VDD*%
X149229000Y-99852996D03*
X159265000Y-104123200D03*
X156217000Y-104123200D03*
X157233000Y-105139200D03*
X158249000Y-103107200D03*
X156217000Y-103107200D03*
D27*
X153929000Y-90500000D03*
D26*
X157233000Y-103107200D03*
X156217000Y-105139200D03*
X157233000Y-102091200D03*
X158249000Y-104123200D03*
D27*
X158829000Y-98400000D03*
D26*
X157233000Y-104123200D03*
X158249000Y-102091200D03*
X159265000Y-102091200D03*
X159265000Y-105139200D03*
X156217000Y-102091200D03*
X158249000Y-105139200D03*
X159265000Y-103107200D03*
D27*
%TO.N,Net-(U3-IN+)*%
X136479000Y-85950016D03*
D26*
X136729000Y-88900000D03*
D25*
%TO.N,/BT_RAW*%
X133229000Y-113240000D03*
X126909000Y-113240000D03*
X124309000Y-113240000D03*
X131929000Y-113240000D03*
X125609000Y-113240000D03*
X130629000Y-113240000D03*
D27*
%TO.N,/EN_12V*%
X166029000Y-88200000D03*
X154129000Y-92490000D03*
%TO.N,/PG_12V*%
X166029000Y-87400000D03*
X156662000Y-89315000D03*
D26*
%TO.N,/SW*%
X146819000Y-104123200D03*
D25*
X148329000Y-107900000D03*
D26*
X143771000Y-103107200D03*
X143771000Y-104123200D03*
X145803000Y-105139200D03*
X146819000Y-105139200D03*
D25*
X152129000Y-107900000D03*
X150229000Y-107900000D03*
D26*
X143771000Y-102091200D03*
X144787000Y-102091200D03*
X146819000Y-103107200D03*
X145803000Y-102091200D03*
X144787000Y-104123200D03*
X145803000Y-104123200D03*
X143771000Y-105139200D03*
X146819000Y-102091200D03*
X144787000Y-103107200D03*
X144787000Y-105139200D03*
X145803000Y-103107200D03*
D25*
%TO.N,/LOUT*%
X152129000Y-122200000D03*
X146929000Y-124900000D03*
X150229000Y-122200000D03*
X144929000Y-126500000D03*
X148329000Y-122200000D03*
X143929000Y-123400000D03*
D27*
%TO.N,+3V3*%
X163929000Y-85561000D03*
D26*
X162829000Y-80425000D03*
X165869000Y-91474000D03*
X161129000Y-83600000D03*
D27*
X165869000Y-98078000D03*
D26*
X167625000Y-91474000D03*
X171711000Y-91474000D03*
X169328997Y-85499997D03*
D27*
X129729000Y-92100000D03*
D26*
X153629000Y-134300000D03*
X164599000Y-98078000D03*
X133729000Y-90125000D03*
X169534000Y-91474000D03*
D27*
%TO.N,/~{RST}*%
X168058000Y-83434519D03*
%TO.N,/SDA*%
X163321000Y-82900000D03*
X166653899Y-83572917D03*
X135104000Y-93600000D03*
%TO.N,/SCL*%
X166055285Y-84182000D03*
X162321000Y-82900000D03*
X133500385Y-93822652D03*
%TO.N,/CAN_TX*%
X157829000Y-80900000D03*
X169128998Y-81200000D03*
%TO.N,/EN_3V3*%
X166829000Y-98100000D03*
X166329000Y-82700006D03*
X159729000Y-85200000D03*
D25*
%TO.N,/+12V_OUT*%
X138229000Y-76250000D03*
X134229000Y-75750000D03*
X138229000Y-80500000D03*
X138229000Y-78250000D03*
D27*
%TO.N,/PWR_BTN*%
X138929000Y-94400000D03*
X144429000Y-129300000D03*
%TO.N,/LED_R*%
X172529000Y-126800000D03*
X172728994Y-89200000D03*
X156229000Y-128500000D03*
%TO.N,/LED_B*%
X154629000Y-129100000D03*
X167429000Y-124500000D03*
X169529000Y-87900000D03*
%TO.N,/LED_G*%
X172629000Y-127600000D03*
X173034711Y-88400000D03*
X155429000Y-129900000D03*
%TO.N,Net-(U4-VOUT)*%
X152661000Y-94776000D03*
X139568306Y-125445414D03*
%TO.N,/AUX*%
X168529000Y-88200000D03*
X148479000Y-79900000D03*
D25*
%TO.N,/+12V_CS*%
X137229000Y-84000000D03*
X137229000Y-87500000D03*
D27*
%TO.N,Net-(JP1-C)*%
X130729000Y-89600000D03*
X136429000Y-91600000D03*
%TO.N,Net-(U4-ISNS+)*%
X145929000Y-122200000D03*
X153458627Y-95160000D03*
%TD*%
D28*
%TO.N,Net-(D2-K)*%
X158228992Y-86699992D02*
X158228992Y-85200000D01*
X160229000Y-88700000D02*
X158228992Y-86699992D01*
%TO.N,Net-(Q2-G)*%
X146361800Y-100313200D02*
X147581000Y-99094000D01*
X143415400Y-100313200D02*
X146361800Y-100313200D01*
X142329000Y-103650000D02*
X142329000Y-101399600D01*
X142329000Y-101399600D02*
X143415400Y-100313200D01*
X140479000Y-105500000D02*
X142329000Y-103650000D01*
%TO.N,AGND*%
X153304516Y-94141000D02*
X151645000Y-94141000D01*
X147528977Y-95764023D02*
X147528977Y-96500000D01*
X151645000Y-92871000D02*
X151645000Y-94141000D01*
X154378258Y-95214742D02*
X153304516Y-94141000D01*
X151645000Y-94141000D02*
X149152000Y-94141000D01*
X149152000Y-94141000D02*
X147528977Y-95764023D01*
X154378258Y-95858258D02*
X154378258Y-95214742D01*
%TO.N,Net-(Q3-G)*%
X154226488Y-106500000D02*
X155004000Y-105722488D01*
X155004000Y-105722488D02*
X155004000Y-100785809D01*
X155004000Y-100785809D02*
X154201189Y-99982998D01*
X154201189Y-99982998D02*
X151264000Y-99982998D01*
X153978992Y-106500000D02*
X154226488Y-106500000D01*
%TO.N,VDD*%
X153329000Y-91100000D02*
X153329000Y-92900000D01*
X153329000Y-92900000D02*
X158829000Y-98400000D01*
X153929000Y-90500000D02*
X153329000Y-91100000D01*
%TO.N,/EN_12V*%
X154129000Y-92100000D02*
X154129000Y-92490000D01*
X166029000Y-88200000D02*
X163829000Y-88200000D01*
X162029000Y-90000000D02*
X156229000Y-90000000D01*
X163829000Y-88200000D02*
X162029000Y-90000000D01*
X156229000Y-90000000D02*
X154129000Y-92100000D01*
%TO.N,/PG_12V*%
X166029000Y-87400000D02*
X163929000Y-87400000D01*
X162014000Y-89315000D02*
X156662000Y-89315000D01*
X163929000Y-87400000D02*
X162014000Y-89315000D01*
D29*
%TO.N,+3V3*%
X163229000Y-100718000D02*
X164599000Y-99348000D01*
D28*
X161122000Y-126807000D02*
X163229000Y-126807000D01*
D29*
X166504000Y-130082000D02*
X163229000Y-126807000D01*
D28*
X153629000Y-134300000D02*
X161122000Y-126807000D01*
D29*
X164599000Y-99348000D02*
X164599000Y-98078000D01*
X163229000Y-126807000D02*
X163229000Y-100718000D01*
D28*
%TO.N,/~{RST}*%
X171979000Y-74750000D02*
X170459000Y-73230000D01*
X168058000Y-83434519D02*
X171979000Y-79513519D01*
X171979000Y-79513519D02*
X171979000Y-74750000D01*
X170459000Y-73230000D02*
X170459000Y-71500000D01*
%TO.N,/SDA*%
X169529000Y-97200000D02*
X169529000Y-93000000D01*
X168829000Y-92300000D02*
X168829000Y-90700000D01*
X166653899Y-84024899D02*
X166653899Y-83572917D01*
X166504000Y-135162000D02*
X167659000Y-134007000D01*
X162521000Y-82100000D02*
X147100000Y-82100000D01*
X135600000Y-93600000D02*
X135104000Y-93600000D01*
X167659000Y-131748823D02*
X168709000Y-130698823D01*
X168829000Y-90700000D02*
X167820000Y-89691000D01*
X167820000Y-89691000D02*
X167820000Y-85191000D01*
X163321000Y-82900000D02*
X162521000Y-82100000D01*
X168709000Y-130698823D02*
X168709000Y-126758177D01*
X167659000Y-134007000D02*
X167659000Y-131748823D01*
X168709000Y-126758177D02*
X164729000Y-122778177D01*
X169529000Y-93000000D02*
X168829000Y-92300000D01*
X147100000Y-82100000D02*
X135600000Y-93600000D01*
X164729000Y-102000000D02*
X169529000Y-97200000D01*
X164729000Y-122778177D02*
X164729000Y-102000000D01*
X167820000Y-85191000D02*
X166653899Y-84024899D01*
%TO.N,/SCL*%
X133882733Y-94205000D02*
X133500385Y-93822652D01*
X166504000Y-132225000D02*
X166504000Y-132622000D01*
X167340000Y-85466715D02*
X167340000Y-89911000D01*
X164229000Y-101750000D02*
X164229000Y-123000000D01*
X162321000Y-82900000D02*
X162021000Y-82600000D01*
X164229000Y-123000000D02*
X168229000Y-127000000D01*
X147329000Y-82600000D02*
X135724000Y-94205000D01*
X167340000Y-89911000D02*
X168330000Y-90901000D01*
X168330000Y-92501000D02*
X169029000Y-93200000D01*
X168229000Y-127000000D02*
X168229000Y-130500000D01*
X166055285Y-84182000D02*
X167340000Y-85466715D01*
X162021000Y-82600000D02*
X147329000Y-82600000D01*
X168330000Y-90901000D02*
X168330000Y-92501000D01*
X135724000Y-94205000D02*
X133882733Y-94205000D01*
X168229000Y-130500000D02*
X166504000Y-132225000D01*
X169029000Y-93200000D02*
X169029000Y-96950000D01*
X169029000Y-96950000D02*
X164229000Y-101750000D01*
%TO.N,/CAN_TX*%
X157829000Y-80900000D02*
X158069000Y-81140000D01*
X169068998Y-81140000D02*
X169128998Y-81200000D01*
X158069000Y-81140000D02*
X169068998Y-81140000D01*
%TO.N,/EN_3V3*%
X166829000Y-98100000D02*
X168330000Y-96599000D01*
X162329000Y-85200000D02*
X163129000Y-84400000D01*
X165529000Y-84600000D02*
X165329000Y-84400000D01*
X165329000Y-83700006D02*
X166329000Y-82700006D01*
X163129000Y-84400000D02*
X165329000Y-84400000D01*
X166629000Y-85700000D02*
X165529000Y-84600000D01*
X168330000Y-93301000D02*
X166929000Y-91900000D01*
X159729000Y-85200000D02*
X162329000Y-85200000D01*
X168330000Y-96599000D02*
X168330000Y-93301000D01*
X166829000Y-91800000D02*
X166829000Y-91500000D01*
X166829000Y-91500000D02*
X166829000Y-85900000D01*
X166829000Y-85900000D02*
X166629000Y-85700000D01*
X166929000Y-91900000D02*
X166829000Y-91800000D01*
X165329000Y-84400000D02*
X165329000Y-83700006D01*
%TO.N,/LED_R*%
X172529000Y-126800000D02*
X173029000Y-126300000D01*
X173029000Y-126300000D02*
X173029000Y-89500006D01*
X173029000Y-89500006D02*
X172728994Y-89200000D01*
%TO.N,/LED_B*%
X170829000Y-108700000D02*
X165209000Y-114320000D01*
X170729000Y-89100000D02*
X170729000Y-92200000D01*
X170829000Y-98900000D02*
X170829000Y-108700000D01*
X165209000Y-114320000D02*
X165209000Y-122579355D01*
X170729000Y-92200000D02*
X172529000Y-94000000D01*
X165209000Y-122579355D02*
X167129645Y-124500000D01*
X169529000Y-87900000D02*
X170729000Y-89100000D01*
X172529000Y-97200000D02*
X170829000Y-98900000D01*
X167129645Y-124500000D02*
X167429000Y-124500000D01*
X172529000Y-94000000D02*
X172529000Y-97200000D01*
%TO.N,/LED_G*%
X173529000Y-126700000D02*
X173529000Y-88894289D01*
X173529000Y-88894289D02*
X173034711Y-88400000D01*
X172629000Y-127600000D02*
X173529000Y-126700000D01*
%TO.N,Net-(U4-VOUT)*%
X144729000Y-121900000D02*
X143113720Y-121900000D01*
X145422000Y-118842500D02*
X145422000Y-121207000D01*
X152661000Y-95708822D02*
X154014178Y-97062000D01*
X155702100Y-97062000D02*
X161043000Y-102402900D01*
X152661000Y-94776000D02*
X152661000Y-95708822D01*
X154014178Y-97062000D02*
X155702100Y-97062000D01*
X156026500Y-108238000D02*
X145422000Y-118842500D01*
X161043000Y-102402900D02*
X161043000Y-107305178D01*
X161043000Y-107305178D02*
X160110178Y-108238000D01*
X145422000Y-121207000D02*
X144729000Y-121900000D01*
X143113720Y-121900000D02*
X139568306Y-125445414D01*
X160110178Y-108238000D02*
X156026500Y-108238000D01*
%TO.N,/AUX*%
X155349000Y-81620000D02*
X154529000Y-80800000D01*
X156349000Y-81620000D02*
X155349000Y-81620000D01*
X168300000Y-87971000D02*
X168300000Y-84871000D01*
X167329000Y-82400000D02*
X166549000Y-81620000D01*
X168300000Y-84871000D02*
X167329000Y-83900000D01*
X149079000Y-80500000D02*
X148479000Y-79900000D01*
X152329000Y-80500000D02*
X149079000Y-80500000D01*
X168529000Y-88200000D02*
X168300000Y-87971000D01*
X154229000Y-80500000D02*
X152329000Y-80500000D01*
X167329000Y-83900000D02*
X167329000Y-82400000D01*
X154529000Y-80800000D02*
X154229000Y-80500000D01*
X166549000Y-81620000D02*
X156349000Y-81620000D01*
%TO.N,Net-(JP1-C)*%
X136429000Y-91600000D02*
X135729000Y-90900000D01*
X132029000Y-90900000D02*
X130729000Y-89600000D01*
X135729000Y-90900000D02*
X132029000Y-90900000D01*
%TO.N,Net-(U4-ISNS+)*%
X160281000Y-108746000D02*
X161551000Y-107476000D01*
X154094258Y-96463258D02*
X155892258Y-96463258D01*
X145929000Y-119034000D02*
X156217000Y-108746000D01*
X161551000Y-107476000D02*
X161551000Y-102122000D01*
X155892258Y-96463258D02*
X159671400Y-100242400D01*
X145929000Y-122200000D02*
X145929000Y-119034000D01*
X153458627Y-95160000D02*
X153458627Y-95827627D01*
X153458627Y-95827627D02*
X154094258Y-96463258D01*
X161551000Y-102122000D02*
X159671400Y-100242400D01*
X156217000Y-108746000D02*
X160281000Y-108746000D01*
%TD*%
%TA.AperFunction,Conductor*%
%TO.N,/BT_RAW*%
G36*
X132845061Y-97655597D02*
G01*
X133021941Y-97673018D01*
X133045769Y-97677757D01*
X133210001Y-97727576D01*
X133232453Y-97736877D01*
X133383798Y-97817772D01*
X133404010Y-97831277D01*
X133536666Y-97940145D01*
X133553854Y-97957333D01*
X133662722Y-98089989D01*
X133676227Y-98110201D01*
X133757121Y-98261543D01*
X133766424Y-98284001D01*
X133816240Y-98448224D01*
X133820982Y-98472065D01*
X133838403Y-98648938D01*
X133839000Y-98661092D01*
X133839000Y-99180609D01*
X133838022Y-99196154D01*
X133837718Y-99198554D01*
X133818754Y-99499994D01*
X133818754Y-99500005D01*
X133837719Y-99801456D01*
X133838021Y-99803844D01*
X133839000Y-99819391D01*
X133839000Y-101133778D01*
X133838755Y-101141564D01*
X133823754Y-101379994D01*
X133823754Y-101380005D01*
X133838755Y-101618434D01*
X133839000Y-101626220D01*
X133839000Y-103038778D01*
X133838755Y-103046564D01*
X133823754Y-103284994D01*
X133823754Y-103285005D01*
X133838755Y-103523434D01*
X133839000Y-103531220D01*
X133839000Y-104943778D01*
X133838755Y-104951564D01*
X133823754Y-105189994D01*
X133823754Y-105190005D01*
X133838755Y-105428434D01*
X133839000Y-105436220D01*
X133839000Y-106848778D01*
X133838755Y-106856564D01*
X133823754Y-107094994D01*
X133823754Y-107095005D01*
X133838755Y-107333434D01*
X133839000Y-107341220D01*
X133839000Y-114418907D01*
X133838403Y-114431061D01*
X133820982Y-114607934D01*
X133816240Y-114631775D01*
X133766424Y-114795998D01*
X133757121Y-114818456D01*
X133676227Y-114969798D01*
X133662722Y-114990010D01*
X133553854Y-115122666D01*
X133536666Y-115139854D01*
X133404010Y-115248722D01*
X133383798Y-115262227D01*
X133232456Y-115343121D01*
X133209998Y-115352424D01*
X133045775Y-115402240D01*
X133021934Y-115406982D01*
X132845061Y-115424403D01*
X132832907Y-115425000D01*
X124705093Y-115425000D01*
X124692939Y-115424403D01*
X124516065Y-115406982D01*
X124492224Y-115402240D01*
X124328001Y-115352424D01*
X124305543Y-115343121D01*
X124154201Y-115262227D01*
X124133989Y-115248722D01*
X124001333Y-115139854D01*
X123984145Y-115122666D01*
X123875277Y-114990010D01*
X123861772Y-114969798D01*
X123780878Y-114818456D01*
X123771575Y-114795998D01*
X123721757Y-114631769D01*
X123717018Y-114607941D01*
X123699597Y-114431061D01*
X123699000Y-114418907D01*
X123699000Y-107839694D01*
X126979000Y-107839694D01*
X126979001Y-107839710D01*
X127008942Y-108067137D01*
X127068318Y-108288730D01*
X127156102Y-108500659D01*
X127156106Y-108500668D01*
X127270809Y-108699338D01*
X127410455Y-108881329D01*
X127410461Y-108881336D01*
X127572663Y-109043538D01*
X127572670Y-109043544D01*
X127754661Y-109183190D01*
X127953331Y-109297893D01*
X127953345Y-109297900D01*
X127978999Y-109308526D01*
X127979000Y-109308526D01*
X129479000Y-109308526D01*
X129504654Y-109297900D01*
X129504668Y-109297893D01*
X129703338Y-109183190D01*
X129885329Y-109043544D01*
X129885336Y-109043538D01*
X130047538Y-108881336D01*
X130047544Y-108881329D01*
X130187190Y-108699338D01*
X130301893Y-108500668D01*
X130301897Y-108500659D01*
X130389681Y-108288730D01*
X130449057Y-108067137D01*
X130478998Y-107839710D01*
X130479000Y-107839694D01*
X130479000Y-105825000D01*
X129479000Y-105825000D01*
X129479000Y-109308526D01*
X127979000Y-109308526D01*
X127979000Y-105825000D01*
X126979000Y-105825000D01*
X126979000Y-107839694D01*
X123699000Y-107839694D01*
X123699000Y-102310305D01*
X126979000Y-102310305D01*
X126979000Y-104325000D01*
X127979000Y-104325000D01*
X127979000Y-102359174D01*
X128229000Y-102359174D01*
X128229000Y-107790826D01*
X128263075Y-107917993D01*
X128328901Y-108032007D01*
X128421993Y-108125099D01*
X128536007Y-108190925D01*
X128663174Y-108225000D01*
X128794826Y-108225000D01*
X128921993Y-108190925D01*
X129036007Y-108125099D01*
X129129099Y-108032007D01*
X129194925Y-107917993D01*
X129229000Y-107790826D01*
X129229000Y-104325000D01*
X129479000Y-104325000D01*
X130479000Y-104325000D01*
X130479000Y-102310305D01*
X130478998Y-102310289D01*
X130449057Y-102082862D01*
X130389681Y-101861269D01*
X130301897Y-101649340D01*
X130301893Y-101649331D01*
X130187190Y-101450661D01*
X130047544Y-101268670D01*
X130047538Y-101268663D01*
X129885336Y-101106461D01*
X129885329Y-101106455D01*
X129703338Y-100966809D01*
X129504666Y-100852105D01*
X129504655Y-100852100D01*
X129479000Y-100841472D01*
X129479000Y-104325000D01*
X129229000Y-104325000D01*
X129229000Y-102359174D01*
X129194925Y-102232007D01*
X129129099Y-102117993D01*
X129036007Y-102024901D01*
X128921993Y-101959075D01*
X128794826Y-101925000D01*
X128663174Y-101925000D01*
X128536007Y-101959075D01*
X128421993Y-102024901D01*
X128328901Y-102117993D01*
X128263075Y-102232007D01*
X128229000Y-102359174D01*
X127979000Y-102359174D01*
X127979000Y-100841473D01*
X127978999Y-100841472D01*
X127953344Y-100852100D01*
X127953333Y-100852105D01*
X127754661Y-100966809D01*
X127572670Y-101106455D01*
X127572663Y-101106461D01*
X127410461Y-101268663D01*
X127410455Y-101268670D01*
X127270809Y-101450661D01*
X127156106Y-101649331D01*
X127156102Y-101649340D01*
X127068318Y-101861269D01*
X127008942Y-102082862D01*
X126979001Y-102310289D01*
X126979000Y-102310305D01*
X123699000Y-102310305D01*
X123699000Y-98661092D01*
X123699597Y-98648938D01*
X123717018Y-98472056D01*
X123721757Y-98448232D01*
X123771577Y-98283994D01*
X123780875Y-98261549D01*
X123861775Y-98110195D01*
X123875272Y-98089995D01*
X123984149Y-97957328D01*
X124001328Y-97940149D01*
X124133995Y-97831272D01*
X124154195Y-97817775D01*
X124305549Y-97736875D01*
X124327994Y-97727577D01*
X124492232Y-97677757D01*
X124516056Y-97673018D01*
X124692939Y-97655597D01*
X124705093Y-97655000D01*
X132832907Y-97655000D01*
X132845061Y-97655597D01*
G37*
%TD.AperFunction*%
%TD*%
%TA.AperFunction,Conductor*%
%TO.N,PGND*%
G36*
X123351221Y-134614187D02*
G01*
X123465557Y-134838583D01*
X123613588Y-135042330D01*
X123791670Y-135220412D01*
X123995417Y-135368443D01*
X124219813Y-135482779D01*
X124364778Y-135529880D01*
X123431480Y-136463181D01*
X123370157Y-136496666D01*
X123343799Y-136499500D01*
X122343588Y-136499500D01*
X122276549Y-136479815D01*
X122230794Y-136427011D01*
X122219588Y-136375483D01*
X122219612Y-136206775D01*
X122219696Y-135604982D01*
X122239390Y-135537949D01*
X122256015Y-135517322D01*
X123304118Y-134469219D01*
X123351221Y-134614187D01*
G37*
%TD.AperFunction*%
%TA.AperFunction,Conductor*%
G36*
X132735061Y-117500597D02*
G01*
X132911941Y-117518018D01*
X132935769Y-117522757D01*
X133100001Y-117572576D01*
X133122453Y-117581877D01*
X133170234Y-117607416D01*
X133273798Y-117662772D01*
X133294010Y-117676277D01*
X133426666Y-117785145D01*
X133443854Y-117802333D01*
X133552722Y-117934989D01*
X133566225Y-117955197D01*
X133603859Y-118025605D01*
X133618500Y-118084055D01*
X133618500Y-132311007D01*
X133630876Y-132468267D01*
X133630877Y-132468279D01*
X133635723Y-132498881D01*
X133648230Y-132563908D01*
X133648230Y-132563911D01*
X133713059Y-132756763D01*
X133715656Y-132762490D01*
X133714295Y-132763107D01*
X133729000Y-132817609D01*
X133729000Y-135993907D01*
X133728403Y-136006061D01*
X133710982Y-136182934D01*
X133706240Y-136206775D01*
X133656424Y-136370998D01*
X133647122Y-136393454D01*
X133625477Y-136433951D01*
X133576516Y-136483796D01*
X133516118Y-136499500D01*
X126324201Y-136499500D01*
X126257162Y-136479815D01*
X126236520Y-136463181D01*
X125303221Y-135529880D01*
X125448187Y-135482779D01*
X125672583Y-135368443D01*
X125876330Y-135220412D01*
X126054412Y-135042330D01*
X126202443Y-134838583D01*
X126316779Y-134614187D01*
X126363881Y-134469221D01*
X127455936Y-135561276D01*
X127586290Y-135325419D01*
X127717380Y-135008935D01*
X127812214Y-134679762D01*
X127812216Y-134679754D01*
X127869596Y-134342037D01*
X127869598Y-134342025D01*
X127888805Y-134000000D01*
X127869598Y-133657974D01*
X127869596Y-133657962D01*
X127812216Y-133320245D01*
X127812214Y-133320237D01*
X127717380Y-132991064D01*
X127586288Y-132674575D01*
X127586286Y-132674571D01*
X127455936Y-132438722D01*
X126363880Y-133530777D01*
X126316779Y-133385813D01*
X126202443Y-133161417D01*
X126054412Y-132957670D01*
X125876330Y-132779588D01*
X125672583Y-132631557D01*
X125448187Y-132517221D01*
X125303220Y-132470118D01*
X126395276Y-131378062D01*
X126159428Y-131247713D01*
X126159424Y-131247711D01*
X125842935Y-131116619D01*
X125513762Y-131021785D01*
X125513754Y-131021783D01*
X125176037Y-130964403D01*
X125176025Y-130964401D01*
X124834000Y-130945194D01*
X124491974Y-130964401D01*
X124491962Y-130964403D01*
X124154245Y-131021783D01*
X124154237Y-131021785D01*
X123825064Y-131116619D01*
X123508575Y-131247711D01*
X123508571Y-131247713D01*
X123272722Y-131378062D01*
X124364779Y-132470118D01*
X124219813Y-132517221D01*
X123995417Y-132631557D01*
X123791670Y-132779588D01*
X123613588Y-132957670D01*
X123465557Y-133161417D01*
X123351221Y-133385813D01*
X123304118Y-133530779D01*
X122256467Y-132483128D01*
X122222982Y-132421805D01*
X122220148Y-132395439D01*
X122222216Y-117716753D01*
X122241909Y-117649721D01*
X122287760Y-117607418D01*
X122335547Y-117581876D01*
X122357998Y-117572576D01*
X122522232Y-117522757D01*
X122546056Y-117518018D01*
X122722939Y-117500597D01*
X122735093Y-117500000D01*
X132722907Y-117500000D01*
X132735061Y-117500597D01*
G37*
%TD.AperFunction*%
%TD*%
%TA.AperFunction,Conductor*%
%TO.N,/+12V_CS*%
G36*
X131490922Y-81600779D02*
G01*
X131653699Y-81619120D01*
X131680763Y-81625297D01*
X131828768Y-81677087D01*
X131853778Y-81689130D01*
X131970978Y-81762772D01*
X131986551Y-81772557D01*
X132008260Y-81789870D01*
X132119129Y-81900739D01*
X132136442Y-81922448D01*
X132219867Y-82055218D01*
X132231914Y-82080235D01*
X132283701Y-82228232D01*
X132289880Y-82255303D01*
X132306736Y-82404910D01*
X132308996Y-82424963D01*
X132308998Y-82425000D01*
X132309000Y-82425000D01*
X132309000Y-83250000D01*
X133133987Y-83253341D01*
X133133988Y-83253342D01*
X133133990Y-83253343D01*
X133271240Y-83253899D01*
X137476981Y-83270940D01*
X137489087Y-83271582D01*
X137665454Y-83289629D01*
X137689203Y-83294441D01*
X137852854Y-83344672D01*
X137875206Y-83354010D01*
X138025950Y-83435125D01*
X138046070Y-83448643D01*
X138178141Y-83557536D01*
X138195244Y-83574708D01*
X138303604Y-83707222D01*
X138317040Y-83727398D01*
X138397538Y-83878458D01*
X138406794Y-83900868D01*
X138456356Y-84064703D01*
X138461074Y-84088485D01*
X138478406Y-84264909D01*
X138479000Y-84277032D01*
X138479000Y-87093907D01*
X138478403Y-87106061D01*
X138460982Y-87282934D01*
X138456240Y-87306775D01*
X138406424Y-87470998D01*
X138397121Y-87493456D01*
X138316227Y-87644798D01*
X138302722Y-87665010D01*
X138193854Y-87797666D01*
X138176666Y-87814854D01*
X138044010Y-87923722D01*
X138023798Y-87937227D01*
X137872456Y-88018121D01*
X137849998Y-88027424D01*
X137685775Y-88077240D01*
X137661934Y-88081982D01*
X137485061Y-88099403D01*
X137472907Y-88100000D01*
X126535093Y-88100000D01*
X126522939Y-88099403D01*
X126346065Y-88081982D01*
X126322224Y-88077240D01*
X126158001Y-88027424D01*
X126135543Y-88018121D01*
X125984201Y-87937227D01*
X125963989Y-87923722D01*
X125831333Y-87814854D01*
X125814145Y-87797666D01*
X125705277Y-87665010D01*
X125691772Y-87644798D01*
X125610878Y-87493456D01*
X125601575Y-87470998D01*
X125551757Y-87306769D01*
X125547018Y-87282941D01*
X125529597Y-87106061D01*
X125529000Y-87093907D01*
X125529000Y-82606092D01*
X125529597Y-82593938D01*
X125538635Y-82502174D01*
X125538637Y-82502157D01*
X127279000Y-82502157D01*
X127279000Y-83500000D01*
X128478822Y-83500000D01*
X128409904Y-83594857D01*
X128320580Y-83770167D01*
X128259779Y-83957291D01*
X128229000Y-84151623D01*
X128229000Y-84348377D01*
X128259779Y-84542709D01*
X128320580Y-84729833D01*
X128409904Y-84905143D01*
X128478822Y-85000000D01*
X127279000Y-85000000D01*
X127279000Y-85997842D01*
X127285402Y-86057375D01*
X127285403Y-86057380D01*
X127335647Y-86192087D01*
X127421811Y-86307188D01*
X127536912Y-86393352D01*
X127536911Y-86393352D01*
X127671619Y-86443596D01*
X127671624Y-86443597D01*
X127731157Y-86449999D01*
X127731174Y-86450000D01*
X128729000Y-86450000D01*
X128729000Y-85250177D01*
X128823857Y-85319096D01*
X128999167Y-85408420D01*
X129186291Y-85469221D01*
X129380623Y-85500000D01*
X129577377Y-85500000D01*
X129771709Y-85469221D01*
X129958833Y-85408420D01*
X130134143Y-85319096D01*
X130229000Y-85250177D01*
X130229000Y-86450000D01*
X131226826Y-86450000D01*
X131226842Y-86449999D01*
X131286375Y-86443597D01*
X131286380Y-86443596D01*
X131421087Y-86393352D01*
X131536188Y-86307188D01*
X131622352Y-86192087D01*
X131672596Y-86057380D01*
X131672597Y-86057375D01*
X131678999Y-85997842D01*
X131679000Y-85997825D01*
X131679000Y-85950015D01*
X135823722Y-85950015D01*
X135823722Y-85950016D01*
X135842762Y-86106834D01*
X135875095Y-86192087D01*
X135898780Y-86254539D01*
X135988517Y-86384546D01*
X136106760Y-86489299D01*
X136106762Y-86489300D01*
X136246634Y-86562712D01*
X136400014Y-86600516D01*
X136400015Y-86600516D01*
X136557985Y-86600516D01*
X136711365Y-86562712D01*
X136851240Y-86489299D01*
X136969483Y-86384546D01*
X137059220Y-86254539D01*
X137115237Y-86106834D01*
X137134278Y-85950016D01*
X137115237Y-85793198D01*
X137059220Y-85645493D01*
X136969483Y-85515486D01*
X136851240Y-85410733D01*
X136851238Y-85410732D01*
X136851237Y-85410731D01*
X136711365Y-85337319D01*
X136557986Y-85299516D01*
X136557985Y-85299516D01*
X136400015Y-85299516D01*
X136400014Y-85299516D01*
X136246634Y-85337319D01*
X136106762Y-85410731D01*
X135988516Y-85515487D01*
X135898781Y-85645491D01*
X135898780Y-85645492D01*
X135842762Y-85793197D01*
X135823722Y-85950015D01*
X131679000Y-85950015D01*
X131679000Y-85000000D01*
X130479178Y-85000000D01*
X130548096Y-84905143D01*
X130637420Y-84729833D01*
X130698221Y-84542709D01*
X130729000Y-84348377D01*
X130729000Y-84151623D01*
X130698221Y-83957291D01*
X130637420Y-83770167D01*
X130548096Y-83594857D01*
X130479178Y-83500000D01*
X131679000Y-83500000D01*
X131679000Y-82502174D01*
X131678999Y-82502157D01*
X131672597Y-82442624D01*
X131672596Y-82442619D01*
X131622352Y-82307912D01*
X131536188Y-82192811D01*
X131421087Y-82106647D01*
X131421088Y-82106647D01*
X131286380Y-82056403D01*
X131286375Y-82056402D01*
X131226842Y-82050000D01*
X130229000Y-82050000D01*
X130229000Y-83249822D01*
X130134143Y-83180904D01*
X129958833Y-83091580D01*
X129771709Y-83030779D01*
X129577377Y-83000000D01*
X129380623Y-83000000D01*
X129186291Y-83030779D01*
X128999167Y-83091580D01*
X128823857Y-83180904D01*
X128729000Y-83249822D01*
X128729000Y-82050000D01*
X127731157Y-82050000D01*
X127671624Y-82056402D01*
X127671619Y-82056403D01*
X127536912Y-82106647D01*
X127421811Y-82192811D01*
X127335647Y-82307912D01*
X127285403Y-82442619D01*
X127285402Y-82442624D01*
X127279000Y-82502157D01*
X125538637Y-82502157D01*
X125547018Y-82417056D01*
X125551757Y-82393232D01*
X125601577Y-82228994D01*
X125610875Y-82206549D01*
X125691775Y-82055195D01*
X125705272Y-82034995D01*
X125814149Y-81902328D01*
X125831328Y-81885149D01*
X125963995Y-81776272D01*
X125984195Y-81762775D01*
X126135549Y-81681875D01*
X126157994Y-81672577D01*
X126322232Y-81622757D01*
X126346056Y-81618018D01*
X126522939Y-81600597D01*
X126535093Y-81600000D01*
X131477040Y-81600000D01*
X131490922Y-81600779D01*
G37*
%TD.AperFunction*%
%TD*%
%TA.AperFunction,Conductor*%
%TO.N,PGND*%
G36*
X158688191Y-109440407D02*
G01*
X158724155Y-109489907D01*
X158729000Y-109520500D01*
X158729000Y-122712000D01*
X158710093Y-122770191D01*
X158660593Y-122806155D01*
X158630000Y-122811000D01*
X153833500Y-122811000D01*
X153775309Y-122792093D01*
X153739345Y-122742593D01*
X153734500Y-122712000D01*
X153734500Y-119004849D01*
X153734464Y-119003767D01*
X153733418Y-118971793D01*
X153732785Y-118962134D01*
X153729542Y-118929208D01*
X153714409Y-118814265D01*
X153701509Y-118749413D01*
X153696509Y-118730753D01*
X153675255Y-118668141D01*
X153632762Y-118565554D01*
X153603518Y-118506252D01*
X153593859Y-118489522D01*
X153557121Y-118434540D01*
X153489522Y-118346444D01*
X153445925Y-118296733D01*
X153432266Y-118283074D01*
X153432256Y-118283065D01*
X153382567Y-118239487D01*
X153382537Y-118239463D01*
X153294470Y-118171885D01*
X153294465Y-118171882D01*
X153293011Y-118170911D01*
X153239488Y-118135147D01*
X153233911Y-118131927D01*
X153222763Y-118125490D01*
X153163445Y-118096237D01*
X153163436Y-118096233D01*
X153060860Y-118053744D01*
X152998249Y-118032490D01*
X152998237Y-118032487D01*
X152979611Y-118027495D01*
X152979592Y-118027491D01*
X152914743Y-118014590D01*
X152914717Y-118014586D01*
X152799805Y-117999459D01*
X152799789Y-117999457D01*
X152799786Y-117999457D01*
X152766865Y-117996215D01*
X152766856Y-117996214D01*
X152766852Y-117996214D01*
X152757204Y-117995581D01*
X152724149Y-117994500D01*
X148162809Y-117994500D01*
X148104618Y-117975593D01*
X148068654Y-117926093D01*
X148068654Y-117864907D01*
X148092805Y-117825496D01*
X156467805Y-109450496D01*
X156522322Y-109422719D01*
X156537809Y-109421500D01*
X158630000Y-109421500D01*
X158688191Y-109440407D01*
G37*
%TD.AperFunction*%
%TA.AperFunction,Conductor*%
G36*
X142462691Y-95468907D02*
G01*
X142498655Y-95518407D01*
X142503500Y-95549000D01*
X142503500Y-98741000D01*
X142505741Y-98769474D01*
X142509721Y-98820062D01*
X142509722Y-98820067D01*
X142514567Y-98850662D01*
X142536126Y-98935134D01*
X142537743Y-98941467D01*
X142604887Y-99068719D01*
X142638754Y-99115333D01*
X142657661Y-99173523D01*
X142656704Y-99187252D01*
X142637863Y-99321794D01*
X142637861Y-99321815D01*
X142639185Y-99682405D01*
X142640134Y-99711570D01*
X142641009Y-99725815D01*
X142643632Y-99754824D01*
X142680866Y-99893795D01*
X142680868Y-99893800D01*
X142700470Y-99939579D01*
X142708369Y-99958025D01*
X142709991Y-99961171D01*
X142709196Y-99961580D01*
X142722471Y-100017519D01*
X142698908Y-100073985D01*
X142693801Y-100079495D01*
X141804303Y-100968995D01*
X141730383Y-101079623D01*
X141730379Y-101079632D01*
X141679460Y-101202560D01*
X141679458Y-101202566D01*
X141653500Y-101333066D01*
X141653500Y-103329191D01*
X141634593Y-103387382D01*
X141624504Y-103399195D01*
X140453195Y-104570504D01*
X140398678Y-104598281D01*
X140387811Y-104599136D01*
X140384362Y-104599498D01*
X140199200Y-104638855D01*
X140199194Y-104638857D01*
X140026277Y-104715845D01*
X140026268Y-104715850D01*
X139873129Y-104827111D01*
X139873124Y-104827116D01*
X139746469Y-104967781D01*
X139746465Y-104967787D01*
X139651825Y-105131706D01*
X139651819Y-105131720D01*
X139593327Y-105311738D01*
X139593326Y-105311742D01*
X139593326Y-105311744D01*
X139580242Y-105436234D01*
X139573540Y-105500000D01*
X139593327Y-105688261D01*
X139651819Y-105868279D01*
X139651825Y-105868293D01*
X139727015Y-105998525D01*
X139746467Y-106032216D01*
X139873129Y-106172888D01*
X140026270Y-106284151D01*
X140199197Y-106361144D01*
X140384354Y-106400500D01*
X140384357Y-106400500D01*
X140573643Y-106400500D01*
X140573646Y-106400500D01*
X140758803Y-106361144D01*
X140931730Y-106284151D01*
X141084871Y-106172888D01*
X141211533Y-106032216D01*
X141306179Y-105868284D01*
X141364674Y-105688256D01*
X141374941Y-105590558D01*
X141399827Y-105534664D01*
X141403376Y-105530923D01*
X142504497Y-104429803D01*
X142559013Y-104402027D01*
X142619445Y-104411598D01*
X142662710Y-104454863D01*
X142673500Y-104499808D01*
X142673500Y-108519649D01*
X142674582Y-108552718D01*
X142675431Y-108565654D01*
X142678669Y-108598537D01*
X142693149Y-108708549D01*
X142693152Y-108708567D01*
X142693153Y-108708570D01*
X142706050Y-108773421D01*
X142706053Y-108773432D01*
X142706054Y-108773437D01*
X142712735Y-108798374D01*
X142733986Y-108860986D01*
X142773950Y-108957482D01*
X142773957Y-108957498D01*
X142803180Y-109016765D01*
X142803184Y-109016773D01*
X142816101Y-109039150D01*
X142852822Y-109094118D01*
X142852824Y-109094120D01*
X142916401Y-109176995D01*
X142959968Y-109226687D01*
X142959971Y-109226690D01*
X142978209Y-109244935D01*
X142978218Y-109244943D01*
X142978232Y-109244957D01*
X143027940Y-109288564D01*
X143027951Y-109288572D01*
X143027960Y-109288580D01*
X143110784Y-109352154D01*
X143110811Y-109352173D01*
X143165759Y-109388900D01*
X143165766Y-109388904D01*
X143165773Y-109388909D01*
X143165780Y-109388913D01*
X143165788Y-109388918D01*
X143175706Y-109394645D01*
X143188147Y-109401831D01*
X143244474Y-109429621D01*
X143247423Y-109431076D01*
X143291053Y-109449158D01*
X143343898Y-109471060D01*
X143359786Y-109476457D01*
X143406486Y-109492321D01*
X143416385Y-109494976D01*
X143431440Y-109499014D01*
X143496288Y-109511931D01*
X143606324Y-109526446D01*
X143631317Y-109528912D01*
X143639265Y-109529697D01*
X143639270Y-109529697D01*
X143639277Y-109529698D01*
X143652193Y-109530547D01*
X143669972Y-109531133D01*
X143685206Y-109531636D01*
X143735521Y-109531649D01*
X147630027Y-109532707D01*
X147688212Y-109551630D01*
X147724163Y-109601140D01*
X147729000Y-109631707D01*
X147729000Y-111000000D01*
X152070191Y-111000000D01*
X152128382Y-111018907D01*
X152164346Y-111068407D01*
X152164346Y-111129593D01*
X152140195Y-111169004D01*
X144897301Y-118411898D01*
X144823383Y-118522523D01*
X144823379Y-118522532D01*
X144772460Y-118645460D01*
X144772458Y-118645466D01*
X144751780Y-118749424D01*
X144746500Y-118775966D01*
X144746500Y-120886191D01*
X144727593Y-120944382D01*
X144717504Y-120956195D01*
X144478195Y-121195504D01*
X144423678Y-121223281D01*
X144408191Y-121224500D01*
X143047186Y-121224500D01*
X142916684Y-121250459D01*
X142916682Y-121250459D01*
X142829758Y-121286463D01*
X142829759Y-121286464D01*
X142793751Y-121301379D01*
X142737664Y-121338856D01*
X142683114Y-121375304D01*
X142383222Y-121675195D01*
X142328706Y-121702972D01*
X142268274Y-121693400D01*
X142246280Y-121678130D01*
X142162925Y-121601629D01*
X142162924Y-121601628D01*
X142033810Y-121538148D01*
X141975592Y-121519232D01*
X141961827Y-121514976D01*
X141961813Y-121514973D01*
X141819416Y-121494500D01*
X141819411Y-121494500D01*
X141333500Y-121494500D01*
X141275309Y-121475593D01*
X141239345Y-121426093D01*
X141234500Y-121395500D01*
X141234500Y-108599006D01*
X141234500Y-108599000D01*
X141228278Y-108519930D01*
X141223433Y-108489337D01*
X141200257Y-108398533D01*
X141133113Y-108271281D01*
X141097149Y-108221781D01*
X141079518Y-108198917D01*
X140973514Y-108101629D01*
X140973513Y-108101628D01*
X140844399Y-108038148D01*
X140786181Y-108019232D01*
X140772416Y-108014976D01*
X140772402Y-108014973D01*
X140630005Y-107994500D01*
X140630000Y-107994500D01*
X135943500Y-107994500D01*
X135885309Y-107975593D01*
X135849345Y-107926093D01*
X135844500Y-107895500D01*
X135844500Y-107341234D01*
X135843508Y-107278130D01*
X135843263Y-107270368D01*
X135843263Y-107270359D01*
X135840297Y-107207505D01*
X135833609Y-107101213D01*
X135833609Y-107088783D01*
X135836339Y-107045394D01*
X135840297Y-106982493D01*
X135843263Y-106919639D01*
X135843508Y-106911853D01*
X135844500Y-106848778D01*
X135844500Y-105436220D01*
X135843508Y-105373145D01*
X135843263Y-105365359D01*
X135840297Y-105302505D01*
X135833609Y-105196213D01*
X135833609Y-105183783D01*
X135840297Y-105077493D01*
X135843263Y-105014639D01*
X135843508Y-105006853D01*
X135844500Y-104943778D01*
X135844500Y-103531220D01*
X135843508Y-103468145D01*
X135843263Y-103460359D01*
X135840297Y-103397505D01*
X135833609Y-103291213D01*
X135833609Y-103278783D01*
X135840297Y-103172493D01*
X135843263Y-103109639D01*
X135843508Y-103101853D01*
X135844500Y-103038778D01*
X135844500Y-101626220D01*
X135843508Y-101563145D01*
X135843263Y-101555359D01*
X135840297Y-101492505D01*
X135833609Y-101386213D01*
X135833609Y-101373783D01*
X135840297Y-101267493D01*
X135843263Y-101204639D01*
X135843508Y-101196853D01*
X135844500Y-101133778D01*
X135844500Y-99819391D01*
X135840536Y-99693354D01*
X135839557Y-99677807D01*
X135839250Y-99674568D01*
X135839005Y-99671459D01*
X135828609Y-99506213D01*
X135828609Y-99493781D01*
X135835017Y-99391924D01*
X135839012Y-99328413D01*
X135839256Y-99325336D01*
X135839565Y-99322079D01*
X135840543Y-99306534D01*
X135844500Y-99180609D01*
X135844500Y-98661092D01*
X135844427Y-98658134D01*
X135842085Y-98562713D01*
X135842085Y-98562701D01*
X135841488Y-98550547D01*
X135834245Y-98452359D01*
X135816824Y-98275486D01*
X135787951Y-98080833D01*
X135783209Y-98056992D01*
X135735385Y-97866063D01*
X135685569Y-97701840D01*
X135685560Y-97701817D01*
X135685556Y-97701802D01*
X135619250Y-97516497D01*
X135619247Y-97516488D01*
X135609944Y-97494030D01*
X135588147Y-97447947D01*
X135578642Y-97405602D01*
X135578982Y-95548982D01*
X135597900Y-95490795D01*
X135647407Y-95454840D01*
X135677982Y-95450000D01*
X142404500Y-95450000D01*
X142462691Y-95468907D01*
G37*
%TD.AperFunction*%
%TD*%
%TA.AperFunction,Conductor*%
%TO.N,/+12V_OUT*%
G36*
X136228656Y-67500602D02*
G01*
X136406241Y-67518164D01*
X136430176Y-67522945D01*
X136595007Y-67573162D01*
X136617529Y-67582533D01*
X136769337Y-67664067D01*
X136789589Y-67677670D01*
X136922483Y-67787358D01*
X136939682Y-67804668D01*
X137047201Y-67936648D01*
X137048511Y-67938255D01*
X137061990Y-67958604D01*
X137142544Y-68110922D01*
X137151776Y-68133516D01*
X137200934Y-68298662D01*
X137205561Y-68322625D01*
X137221986Y-68500326D01*
X137222509Y-68512534D01*
X137185450Y-74293582D01*
X137185451Y-74293595D01*
X137179000Y-75300000D01*
X138409522Y-75300000D01*
X138421778Y-75300607D01*
X138600129Y-75318322D01*
X138624153Y-75323142D01*
X138789633Y-75373789D01*
X138812248Y-75383245D01*
X138964518Y-75465447D01*
X138984832Y-75479166D01*
X139117966Y-75589723D01*
X139135184Y-75607171D01*
X139243964Y-75741752D01*
X139257413Y-75762245D01*
X139337595Y-75915598D01*
X139346750Y-75938337D01*
X139395198Y-76104465D01*
X139399701Y-76128559D01*
X139415053Y-76307121D01*
X139415498Y-76319385D01*
X139342149Y-81857206D01*
X139341403Y-81869249D01*
X139321953Y-82044407D01*
X139316976Y-82067992D01*
X139265830Y-82230288D01*
X139256386Y-82252464D01*
X139174804Y-82401808D01*
X139161246Y-82421739D01*
X139052316Y-82552471D01*
X139035160Y-82569401D01*
X138902996Y-82676590D01*
X138882888Y-82689882D01*
X138732485Y-82769476D01*
X138710185Y-82778627D01*
X138547219Y-82827620D01*
X138523572Y-82832283D01*
X138365276Y-82847742D01*
X138348166Y-82849413D01*
X138336116Y-82850000D01*
X137982566Y-82850000D01*
X137946181Y-82844542D01*
X137942335Y-82843361D01*
X137837536Y-82811194D01*
X137837535Y-82811194D01*
X137789579Y-82799007D01*
X137765864Y-82794201D01*
X137765813Y-82794192D01*
X137716940Y-82786759D01*
X137716918Y-82786756D01*
X137716911Y-82786755D01*
X137716906Y-82786754D01*
X137716895Y-82786753D01*
X137540554Y-82768709D01*
X137540553Y-82768708D01*
X137540544Y-82768708D01*
X137531078Y-82767973D01*
X137515823Y-82766788D01*
X137503788Y-82766150D01*
X137479010Y-82765443D01*
X133273288Y-82748403D01*
X133272524Y-82748399D01*
X133140663Y-82747865D01*
X133140620Y-82747863D01*
X132937997Y-82747042D01*
X132871038Y-82727086D01*
X132825498Y-82674097D01*
X132814500Y-82623043D01*
X132814500Y-82444384D01*
X132816006Y-82439253D01*
X132813760Y-82397692D01*
X132813759Y-82397679D01*
X132811316Y-82368351D01*
X132809056Y-82348298D01*
X132805692Y-82318436D01*
X132792205Y-82198728D01*
X132792203Y-82198716D01*
X132792202Y-82198707D01*
X132782705Y-82142815D01*
X132776526Y-82115744D01*
X132760833Y-82061274D01*
X132760830Y-82061267D01*
X132760828Y-82061258D01*
X132760827Y-82061255D01*
X132709048Y-81913283D01*
X132687356Y-81860911D01*
X132687348Y-81860895D01*
X132675313Y-81835903D01*
X132675311Y-81835898D01*
X132647886Y-81786276D01*
X132564461Y-81653506D01*
X132531652Y-81607267D01*
X132514339Y-81585558D01*
X132476571Y-81543297D01*
X132476563Y-81543288D01*
X132365710Y-81432435D01*
X132356831Y-81424500D01*
X132323441Y-81394660D01*
X132301732Y-81377347D01*
X132255490Y-81344536D01*
X132252194Y-81342465D01*
X132225096Y-81325438D01*
X132225091Y-81325436D01*
X132122721Y-81261112D01*
X132122712Y-81261107D01*
X132122708Y-81261104D01*
X132073095Y-81233685D01*
X132073092Y-81233683D01*
X132073089Y-81233682D01*
X132064304Y-81229451D01*
X132048085Y-81221641D01*
X131995716Y-81199951D01*
X131847732Y-81148168D01*
X131815989Y-81139023D01*
X131793244Y-81132470D01*
X131793241Y-81132469D01*
X131793233Y-81132467D01*
X131793229Y-81132466D01*
X131766181Y-81126293D01*
X131766165Y-81126290D01*
X131710301Y-81116799D01*
X131710270Y-81116795D01*
X131547523Y-81098458D01*
X131519241Y-81096072D01*
X131505358Y-81095293D01*
X131493403Y-81094958D01*
X131426942Y-81073402D01*
X131382685Y-81019337D01*
X131372880Y-80971411D01*
X131365988Y-78855565D01*
X131364636Y-78440618D01*
X131373441Y-78394324D01*
X131446324Y-78211403D01*
X131491138Y-78049996D01*
X132153435Y-78049996D01*
X132153435Y-78050003D01*
X132173630Y-78229249D01*
X132173631Y-78229254D01*
X132233211Y-78399523D01*
X132323917Y-78543880D01*
X132329184Y-78552262D01*
X132456738Y-78679816D01*
X132609478Y-78775789D01*
X132769608Y-78831821D01*
X132779745Y-78835368D01*
X132779750Y-78835369D01*
X132958996Y-78855565D01*
X132959000Y-78855565D01*
X132959004Y-78855565D01*
X133138249Y-78835369D01*
X133138252Y-78835368D01*
X133138255Y-78835368D01*
X133308522Y-78775789D01*
X133461262Y-78679816D01*
X133588816Y-78552262D01*
X133684789Y-78399522D01*
X133744368Y-78229255D01*
X133744369Y-78229249D01*
X133764565Y-78050003D01*
X133764565Y-78049996D01*
X133744369Y-77870750D01*
X133744368Y-77870745D01*
X133684788Y-77700476D01*
X133588815Y-77547737D01*
X133461262Y-77420184D01*
X133308523Y-77324211D01*
X133138254Y-77264631D01*
X133138249Y-77264630D01*
X132959004Y-77244435D01*
X132958996Y-77244435D01*
X132779750Y-77264630D01*
X132779745Y-77264631D01*
X132609476Y-77324211D01*
X132456737Y-77420184D01*
X132329184Y-77547737D01*
X132233211Y-77700476D01*
X132173631Y-77870745D01*
X132173630Y-77870750D01*
X132153435Y-78049996D01*
X131491138Y-78049996D01*
X131542071Y-77866552D01*
X131599972Y-77513371D01*
X131619348Y-77156000D01*
X131599972Y-76798629D01*
X131542071Y-76445448D01*
X131446324Y-76100597D01*
X131365006Y-75896505D01*
X131356201Y-75851015D01*
X131355912Y-75762245D01*
X131346464Y-72861530D01*
X132559000Y-72861530D01*
X132590763Y-73062076D01*
X132653511Y-73255192D01*
X132745695Y-73436110D01*
X132865037Y-73600372D01*
X132865041Y-73600377D01*
X133008619Y-73743955D01*
X133008622Y-73743957D01*
X133099000Y-73809619D01*
X133099000Y-73809618D01*
X134599000Y-73809618D01*
X134689377Y-73743957D01*
X134689380Y-73743955D01*
X134832958Y-73600377D01*
X134832962Y-73600372D01*
X134952304Y-73436110D01*
X135044488Y-73255192D01*
X135107236Y-73062076D01*
X135139000Y-72861530D01*
X135139000Y-72750000D01*
X134599000Y-72750000D01*
X134599000Y-73809618D01*
X133099000Y-73809618D01*
X133099000Y-72750000D01*
X132559000Y-72750000D01*
X132559000Y-72861530D01*
X131346464Y-72861530D01*
X131343433Y-71931056D01*
X133149000Y-71931056D01*
X133149000Y-72068944D01*
X133175901Y-72204182D01*
X133228668Y-72331574D01*
X133305274Y-72446224D01*
X133402776Y-72543726D01*
X133517426Y-72620332D01*
X133644818Y-72673099D01*
X133780056Y-72700000D01*
X133917944Y-72700000D01*
X134053182Y-72673099D01*
X134180574Y-72620332D01*
X134295224Y-72543726D01*
X134392726Y-72446224D01*
X134469332Y-72331574D01*
X134522099Y-72204182D01*
X134549000Y-72068944D01*
X134549000Y-71931056D01*
X134522099Y-71795818D01*
X134469332Y-71668426D01*
X134392726Y-71553776D01*
X134295224Y-71456274D01*
X134180574Y-71379668D01*
X134053182Y-71326901D01*
X133917944Y-71300000D01*
X133780056Y-71300000D01*
X133644818Y-71326901D01*
X133517426Y-71379668D01*
X133402776Y-71456274D01*
X133305274Y-71553776D01*
X133228668Y-71668426D01*
X133175901Y-71795818D01*
X133149000Y-71931056D01*
X131343433Y-71931056D01*
X131340851Y-71138469D01*
X132559000Y-71138469D01*
X132559000Y-71250000D01*
X133099000Y-71250000D01*
X134599000Y-71250000D01*
X135139000Y-71250000D01*
X135139000Y-71138469D01*
X135107236Y-70937923D01*
X135044488Y-70744807D01*
X134952304Y-70563889D01*
X134832962Y-70399627D01*
X134832958Y-70399622D01*
X134689379Y-70256043D01*
X134599000Y-70190379D01*
X134599000Y-71250000D01*
X133099000Y-71250000D01*
X133099000Y-70190379D01*
X133008620Y-70256043D01*
X132865041Y-70399622D01*
X132865037Y-70399627D01*
X132745695Y-70563889D01*
X132653511Y-70744807D01*
X132590763Y-70937923D01*
X132559000Y-71138469D01*
X131340851Y-71138469D01*
X131332287Y-68509342D01*
X131332846Y-68497196D01*
X131349763Y-68319882D01*
X131354444Y-68295991D01*
X131403930Y-68131291D01*
X131413191Y-68108777D01*
X131493922Y-67956924D01*
X131507402Y-67936659D01*
X131616267Y-67803509D01*
X131633449Y-67786272D01*
X131766233Y-67676982D01*
X131786456Y-67663434D01*
X131938040Y-67582212D01*
X131960533Y-67572873D01*
X132125074Y-67522850D01*
X132148950Y-67518092D01*
X132317757Y-67501431D01*
X132326184Y-67500600D01*
X132338363Y-67500000D01*
X136216453Y-67500000D01*
X136228656Y-67500602D01*
G37*
%TD.AperFunction*%
%TD*%
%TA.AperFunction,Conductor*%
%TO.N,+12V*%
G36*
X140688191Y-108518907D02*
G01*
X140724155Y-108568407D01*
X140729000Y-108599000D01*
X140729000Y-122000000D01*
X141819411Y-122000000D01*
X141877602Y-122018907D01*
X141913566Y-122068407D01*
X141913566Y-122129593D01*
X141889415Y-122169004D01*
X139419365Y-124639052D01*
X139382059Y-124662492D01*
X139218783Y-124719625D01*
X139218782Y-124719625D01*
X139066047Y-124815595D01*
X138938487Y-124943155D01*
X138842517Y-125095890D01*
X138842517Y-125095891D01*
X138782939Y-125266152D01*
X138782938Y-125266156D01*
X138762741Y-125445414D01*
X138782938Y-125624671D01*
X138782939Y-125624675D01*
X138842517Y-125794936D01*
X138842517Y-125794937D01*
X138938487Y-125947672D01*
X138938490Y-125947676D01*
X139066044Y-126075230D01*
X139218784Y-126171203D01*
X139286963Y-126195060D01*
X139389044Y-126230780D01*
X139389048Y-126230781D01*
X139389051Y-126230782D01*
X139568306Y-126250979D01*
X139747561Y-126230782D01*
X139917828Y-126171203D01*
X140070568Y-126075230D01*
X140198122Y-125947676D01*
X140294095Y-125794936D01*
X140351230Y-125631652D01*
X140374666Y-125594353D01*
X142259997Y-123709023D01*
X142314513Y-123681247D01*
X142374945Y-123690818D01*
X142418210Y-123734083D01*
X142429000Y-123779028D01*
X142429000Y-132311000D01*
X142410093Y-132369191D01*
X142360593Y-132405155D01*
X142330000Y-132410000D01*
X134723000Y-132410000D01*
X134664809Y-132391093D01*
X134628845Y-132341593D01*
X134624000Y-132311000D01*
X134624000Y-127311789D01*
X136287000Y-127311789D01*
X136287000Y-128315999D01*
X136287001Y-128316000D01*
X137436822Y-128316000D01*
X137367904Y-128410857D01*
X137278580Y-128586167D01*
X137217779Y-128773291D01*
X137187000Y-128967623D01*
X137187000Y-129164377D01*
X137217779Y-129358709D01*
X137278580Y-129545833D01*
X137367904Y-129721143D01*
X137436822Y-129816000D01*
X136287001Y-129816000D01*
X136287000Y-129816001D01*
X136287000Y-130820210D01*
X136289850Y-130850600D01*
X136334655Y-130978648D01*
X136415203Y-131087786D01*
X136415213Y-131087796D01*
X136524351Y-131168344D01*
X136652399Y-131213149D01*
X136682789Y-131215999D01*
X136682791Y-131216000D01*
X137686999Y-131216000D01*
X137687000Y-131215999D01*
X137687000Y-130066177D01*
X137781857Y-130135096D01*
X137957167Y-130224420D01*
X138144291Y-130285221D01*
X138338623Y-130316000D01*
X138535377Y-130316000D01*
X138729709Y-130285221D01*
X138916833Y-130224420D01*
X139092143Y-130135096D01*
X139187000Y-130066177D01*
X139187000Y-131215999D01*
X139187001Y-131216000D01*
X140191209Y-131216000D01*
X140191210Y-131215999D01*
X140221600Y-131213149D01*
X140349648Y-131168344D01*
X140458786Y-131087796D01*
X140458796Y-131087786D01*
X140539344Y-130978648D01*
X140584149Y-130850600D01*
X140586999Y-130820210D01*
X140587000Y-130820209D01*
X140587000Y-129816001D01*
X140586999Y-129816000D01*
X139437178Y-129816000D01*
X139506096Y-129721143D01*
X139595420Y-129545833D01*
X139656221Y-129358709D01*
X139687000Y-129164377D01*
X139687000Y-128967623D01*
X139656221Y-128773291D01*
X139595420Y-128586167D01*
X139506096Y-128410857D01*
X139437178Y-128316000D01*
X140586999Y-128316000D01*
X140587000Y-128315999D01*
X140587000Y-127311791D01*
X140586999Y-127311789D01*
X140584149Y-127281399D01*
X140539344Y-127153351D01*
X140458796Y-127044213D01*
X140458786Y-127044203D01*
X140349648Y-126963655D01*
X140221600Y-126918850D01*
X140191210Y-126916000D01*
X139187001Y-126916000D01*
X139187000Y-126916001D01*
X139187000Y-128065822D01*
X139092143Y-127996904D01*
X138916833Y-127907580D01*
X138729709Y-127846779D01*
X138535377Y-127816000D01*
X138338623Y-127816000D01*
X138144291Y-127846779D01*
X137957167Y-127907580D01*
X137781857Y-127996904D01*
X137687000Y-128065822D01*
X137687000Y-126916001D01*
X137686999Y-126916000D01*
X136682789Y-126916000D01*
X136652399Y-126918850D01*
X136524351Y-126963655D01*
X136415213Y-127044203D01*
X136415203Y-127044213D01*
X136334655Y-127153351D01*
X136289850Y-127281399D01*
X136287000Y-127311789D01*
X134624000Y-127311789D01*
X134624000Y-116887603D01*
X134642907Y-116829412D01*
X134664023Y-116808088D01*
X134676286Y-116798994D01*
X134808942Y-116690126D01*
X134954769Y-116557957D01*
X134971957Y-116540769D01*
X135104126Y-116394942D01*
X135212994Y-116262286D01*
X135330243Y-116104193D01*
X135343748Y-116083981D01*
X135444920Y-115915184D01*
X135525814Y-115763842D01*
X135609944Y-115585969D01*
X135619247Y-115563511D01*
X135685569Y-115378159D01*
X135735385Y-115213936D01*
X135783209Y-115023007D01*
X135787951Y-114999166D01*
X135816824Y-114804513D01*
X135834245Y-114627640D01*
X135841488Y-114529452D01*
X135842085Y-114517298D01*
X135844500Y-114418907D01*
X135844500Y-108599000D01*
X135863407Y-108540809D01*
X135912907Y-108504845D01*
X135943500Y-108500000D01*
X140630000Y-108500000D01*
X140688191Y-108518907D01*
G37*
%TD.AperFunction*%
%TD*%
%TA.AperFunction,Conductor*%
%TO.N,/LOUT*%
G36*
X152733808Y-118500633D02*
G01*
X152848753Y-118515765D01*
X152867408Y-118520764D01*
X152969999Y-118563258D01*
X152986728Y-118572917D01*
X153074824Y-118640516D01*
X153088483Y-118654175D01*
X153156082Y-118742271D01*
X153165741Y-118759001D01*
X153208234Y-118861588D01*
X153213234Y-118880248D01*
X153228367Y-118995191D01*
X153229000Y-119004850D01*
X153229000Y-127895149D01*
X153228367Y-127904808D01*
X153213234Y-128019751D01*
X153208234Y-128038411D01*
X153165741Y-128140998D01*
X153156082Y-128157728D01*
X153088483Y-128245824D01*
X153074824Y-128259483D01*
X152986728Y-128327082D01*
X152969998Y-128336741D01*
X152867411Y-128379234D01*
X152848751Y-128384234D01*
X152733808Y-128399367D01*
X152724149Y-128400000D01*
X143483851Y-128400000D01*
X143474192Y-128399367D01*
X143359248Y-128384234D01*
X143340588Y-128379234D01*
X143238001Y-128336741D01*
X143221271Y-128327082D01*
X143133175Y-128259483D01*
X143119516Y-128245824D01*
X143051917Y-128157728D01*
X143042258Y-128140998D01*
X142999765Y-128038411D01*
X142994765Y-128019751D01*
X142979633Y-127904808D01*
X142979000Y-127895149D01*
X142979000Y-123304850D01*
X142979633Y-123295191D01*
X142994766Y-123180244D01*
X142999763Y-123161593D01*
X143042260Y-123058996D01*
X143051914Y-123042274D01*
X143119520Y-122954170D01*
X143133170Y-122940520D01*
X143221274Y-122872914D01*
X143237996Y-122863260D01*
X143340593Y-122820763D01*
X143359244Y-122815766D01*
X143474192Y-122800633D01*
X143483851Y-122800000D01*
X145366271Y-122800000D01*
X145418595Y-122821673D01*
X145426738Y-122829816D01*
X145479964Y-122863260D01*
X145579479Y-122925790D01*
X145749736Y-122985365D01*
X145749745Y-122985368D01*
X145929000Y-123005565D01*
X146108255Y-122985368D01*
X146197414Y-122954170D01*
X146278520Y-122925790D01*
X146278522Y-122925789D01*
X146431262Y-122829816D01*
X146439404Y-122821673D01*
X146491729Y-122800000D01*
X146728998Y-122800000D01*
X146729000Y-122800000D01*
X147229000Y-122800000D01*
X147229000Y-119004850D01*
X147229633Y-118995191D01*
X147244766Y-118880244D01*
X147249763Y-118861593D01*
X147292260Y-118758996D01*
X147301914Y-118742274D01*
X147369520Y-118654170D01*
X147383170Y-118640520D01*
X147471274Y-118572914D01*
X147487996Y-118563260D01*
X147590593Y-118520763D01*
X147609244Y-118515766D01*
X147724192Y-118500633D01*
X147733851Y-118500000D01*
X152724149Y-118500000D01*
X152733808Y-118500633D01*
G37*
%TD.AperFunction*%
%TD*%
%TA.AperFunction,Conductor*%
%TO.N,PGND*%
G36*
X143185061Y-67500597D02*
G01*
X143361941Y-67518018D01*
X143385769Y-67522757D01*
X143550001Y-67572576D01*
X143572453Y-67581877D01*
X143620264Y-67607432D01*
X143723798Y-67662772D01*
X143744010Y-67676277D01*
X143876666Y-67785145D01*
X143893854Y-67802333D01*
X144002722Y-67934989D01*
X144016227Y-67955201D01*
X144097121Y-68106543D01*
X144106424Y-68129001D01*
X144156240Y-68293224D01*
X144160982Y-68317065D01*
X144178403Y-68493938D01*
X144179000Y-68506092D01*
X144179000Y-73176581D01*
X144174775Y-73208674D01*
X144160161Y-73263212D01*
X144128500Y-73503711D01*
X144128500Y-73503712D01*
X144128500Y-73996288D01*
X144160162Y-74236789D01*
X144174775Y-74291326D01*
X144179000Y-74323417D01*
X144179000Y-80493907D01*
X144178403Y-80506061D01*
X144160982Y-80682934D01*
X144156240Y-80706775D01*
X144106424Y-80870998D01*
X144097121Y-80893456D01*
X144016227Y-81044798D01*
X144002722Y-81065010D01*
X143893854Y-81197666D01*
X143876666Y-81214854D01*
X143744010Y-81323722D01*
X143723798Y-81337227D01*
X143572456Y-81418121D01*
X143549998Y-81427424D01*
X143385775Y-81477240D01*
X143361934Y-81481982D01*
X143185061Y-81499403D01*
X143172907Y-81500000D01*
X140478122Y-81500000D01*
X140411083Y-81480315D01*
X140365328Y-81427511D01*
X140354133Y-81374358D01*
X140392947Y-78443894D01*
X140420910Y-76332702D01*
X140420337Y-76282924D01*
X140419892Y-76270660D01*
X140416857Y-76220990D01*
X140401505Y-76042428D01*
X140388087Y-75943836D01*
X140383584Y-75919742D01*
X140360487Y-75822957D01*
X140312039Y-75656829D01*
X140279491Y-75562804D01*
X140270336Y-75540065D01*
X140228646Y-75449704D01*
X140148464Y-75296351D01*
X140148455Y-75296335D01*
X140148447Y-75296321D01*
X140098059Y-75210572D01*
X140098053Y-75210564D01*
X140098050Y-75210558D01*
X140084601Y-75190065D01*
X140025957Y-75109678D01*
X140016306Y-75097738D01*
X139917200Y-74975125D01*
X139917193Y-74975117D01*
X139917177Y-74975097D01*
X139850881Y-74900908D01*
X139850877Y-74900903D01*
X139850861Y-74900887D01*
X139833687Y-74883484D01*
X139833680Y-74883477D01*
X139833663Y-74883460D01*
X139833643Y-74883441D01*
X139833633Y-74883432D01*
X139760353Y-74816181D01*
X139760332Y-74816162D01*
X139627209Y-74705614D01*
X139547585Y-74645896D01*
X139547581Y-74645893D01*
X139527267Y-74632174D01*
X139493646Y-74611814D01*
X139442189Y-74580653D01*
X139442178Y-74580647D01*
X139442173Y-74580644D01*
X139289903Y-74498442D01*
X139289898Y-74498440D01*
X139289884Y-74498432D01*
X139200156Y-74455584D01*
X139200141Y-74455577D01*
X139200143Y-74455577D01*
X139200135Y-74455574D01*
X139177520Y-74446118D01*
X139177518Y-74446117D01*
X139177515Y-74446116D01*
X139177504Y-74446112D01*
X139083911Y-74412315D01*
X139083904Y-74412313D01*
X139013089Y-74390639D01*
X138918423Y-74361666D01*
X138918401Y-74361660D01*
X138918396Y-74361659D01*
X138821960Y-74337291D01*
X138821954Y-74337289D01*
X138821947Y-74337288D01*
X138797923Y-74332468D01*
X138797919Y-74332467D01*
X138797917Y-74332467D01*
X138699520Y-74317747D01*
X138699524Y-74317747D01*
X138521133Y-74300027D01*
X138471528Y-74296338D01*
X138459263Y-74295731D01*
X138409523Y-74294500D01*
X138409522Y-74294500D01*
X138315761Y-74294500D01*
X138248722Y-74274815D01*
X138202967Y-74222011D01*
X138191764Y-74169705D01*
X138192531Y-74049999D01*
X139679000Y-74049999D01*
X139766825Y-74049999D01*
X139766831Y-74049998D01*
X139826376Y-74043598D01*
X139961086Y-73993354D01*
X139961088Y-73993353D01*
X140076189Y-73907189D01*
X140162353Y-73792088D01*
X140162354Y-73792086D01*
X140212598Y-73657375D01*
X140218999Y-73597845D01*
X140219000Y-73597828D01*
X140219000Y-72750000D01*
X139679000Y-72750000D01*
X139679000Y-74049999D01*
X138192531Y-74049999D01*
X138205673Y-72000000D01*
X138206115Y-71931056D01*
X138229000Y-71931056D01*
X138229000Y-72068944D01*
X138255901Y-72204182D01*
X138308668Y-72331574D01*
X138385274Y-72446224D01*
X138482776Y-72543726D01*
X138597426Y-72620332D01*
X138724818Y-72673099D01*
X138860056Y-72700000D01*
X138997944Y-72700000D01*
X139133182Y-72673099D01*
X139260574Y-72620332D01*
X139375224Y-72543726D01*
X139472726Y-72446224D01*
X139549332Y-72331574D01*
X139602099Y-72204182D01*
X139629000Y-72068944D01*
X139629000Y-71931056D01*
X139602099Y-71795818D01*
X139549332Y-71668426D01*
X139472726Y-71553776D01*
X139375224Y-71456274D01*
X139260574Y-71379668D01*
X139133182Y-71326901D01*
X138997944Y-71300000D01*
X138860056Y-71300000D01*
X138724818Y-71326901D01*
X138597426Y-71379668D01*
X138482776Y-71456274D01*
X138385274Y-71553776D01*
X138308668Y-71668426D01*
X138255901Y-71795818D01*
X138229000Y-71931056D01*
X138206115Y-71931056D01*
X138209158Y-71456274D01*
X138210480Y-71250000D01*
X139679000Y-71250000D01*
X140218999Y-71250000D01*
X140218999Y-70402174D01*
X140218998Y-70402168D01*
X140212598Y-70342623D01*
X140162354Y-70207913D01*
X140162353Y-70207911D01*
X140076189Y-70092810D01*
X139961088Y-70006646D01*
X139961086Y-70006645D01*
X139826375Y-69956401D01*
X139826376Y-69956401D01*
X139766845Y-69950000D01*
X139679000Y-69950000D01*
X139679000Y-71250000D01*
X138210480Y-71250000D01*
X138227988Y-68518980D01*
X138227088Y-68469497D01*
X138226565Y-68457289D01*
X138223218Y-68407782D01*
X138206793Y-68230081D01*
X138192825Y-68131995D01*
X138188198Y-68108032D01*
X138164646Y-68011800D01*
X138115488Y-67846654D01*
X138082572Y-67753189D01*
X138073340Y-67730595D01*
X138048060Y-67676501D01*
X138037509Y-67607432D01*
X138065974Y-67543624D01*
X138124418Y-67505334D01*
X138160397Y-67500000D01*
X143172907Y-67500000D01*
X143185061Y-67500597D01*
G37*
%TD.AperFunction*%
%TD*%
%TA.AperFunction,Conductor*%
%TO.N,VDD*%
G36*
X148570707Y-97335685D02*
G01*
X148616462Y-97388489D01*
X148626764Y-97425054D01*
X148642762Y-97556818D01*
X148681921Y-97660070D01*
X148698780Y-97704523D01*
X148788517Y-97834530D01*
X148906760Y-97939283D01*
X148906762Y-97939284D01*
X149046634Y-98012696D01*
X149200014Y-98050500D01*
X149200015Y-98050500D01*
X149357985Y-98050500D01*
X149511365Y-98012696D01*
X149651240Y-97939283D01*
X149769483Y-97834530D01*
X149838708Y-97734239D01*
X149859540Y-97704060D01*
X149913823Y-97660070D01*
X149961590Y-97650500D01*
X149996410Y-97650500D01*
X150063449Y-97670185D01*
X150098460Y-97704060D01*
X150145464Y-97772157D01*
X150188517Y-97834530D01*
X150306760Y-97939283D01*
X150306762Y-97939284D01*
X150446634Y-98012696D01*
X150600014Y-98050500D01*
X150600015Y-98050500D01*
X150757985Y-98050500D01*
X150911365Y-98012696D01*
X151051240Y-97939283D01*
X151169483Y-97834530D01*
X151259220Y-97704523D01*
X151315237Y-97556818D01*
X151331236Y-97425054D01*
X151358858Y-97360876D01*
X151416792Y-97321819D01*
X151454332Y-97316000D01*
X153473646Y-97316000D01*
X153540685Y-97335685D01*
X153561327Y-97352319D01*
X153691513Y-97482505D01*
X153691514Y-97482506D01*
X153691516Y-97482507D01*
X153811339Y-97551687D01*
X153811340Y-97551687D01*
X153811343Y-97551689D01*
X153944995Y-97587501D01*
X153944997Y-97587501D01*
X154090958Y-97587501D01*
X154090974Y-97587500D01*
X155433069Y-97587500D01*
X155500108Y-97607185D01*
X155520750Y-97623819D01*
X160481181Y-102584250D01*
X160514666Y-102645573D01*
X160517500Y-102671931D01*
X160517500Y-107036146D01*
X160497815Y-107103185D01*
X160481181Y-107123827D01*
X159928828Y-107676181D01*
X159867505Y-107709666D01*
X159841147Y-107712500D01*
X156103296Y-107712500D01*
X156103280Y-107712499D01*
X156095684Y-107712499D01*
X155957317Y-107712499D01*
X155839452Y-107744080D01*
X155823661Y-107748312D01*
X155703838Y-107817492D01*
X155703832Y-107817497D01*
X154547613Y-108973715D01*
X154486290Y-109007200D01*
X154460107Y-109010034D01*
X153902393Y-109010823D01*
X153835326Y-108991233D01*
X153789497Y-108938494D01*
X153779455Y-108869350D01*
X153787661Y-108839360D01*
X153801396Y-108806208D01*
X153816345Y-108762178D01*
X153823037Y-108737211D01*
X153832115Y-108691586D01*
X153846610Y-108581509D01*
X153848892Y-108558344D01*
X153849739Y-108545419D01*
X153850500Y-108522172D01*
X153850500Y-107379249D01*
X153870185Y-107312210D01*
X153922989Y-107266455D01*
X153974500Y-107255249D01*
X153978995Y-107255249D01*
X154147048Y-107236314D01*
X154147051Y-107236313D01*
X154306682Y-107180456D01*
X154306684Y-107180454D01*
X154306686Y-107180454D01*
X154306689Y-107180452D01*
X154449876Y-107090481D01*
X154449877Y-107090480D01*
X154449882Y-107090477D01*
X154569469Y-106970890D01*
X154659448Y-106827690D01*
X154659507Y-106827520D01*
X154659601Y-106827371D01*
X154662469Y-106821416D01*
X154663139Y-106821739D01*
X154688868Y-106780787D01*
X155316455Y-106153201D01*
X155316460Y-106153197D01*
X155326663Y-106142993D01*
X155326665Y-106142993D01*
X155424505Y-106045153D01*
X155493688Y-105925324D01*
X155507035Y-105875513D01*
X155529501Y-105791671D01*
X155529501Y-105653305D01*
X155529501Y-105645710D01*
X155529500Y-105645692D01*
X155529500Y-100716628D01*
X155529500Y-100716626D01*
X155493688Y-100582973D01*
X155424505Y-100463144D01*
X155326665Y-100365304D01*
X155326664Y-100365303D01*
X155322334Y-100360973D01*
X155322323Y-100360963D01*
X154865319Y-99903959D01*
X154831834Y-99842636D01*
X154829000Y-99816278D01*
X154829000Y-98300000D01*
X152479000Y-98300000D01*
X152479000Y-99333498D01*
X152459315Y-99400537D01*
X152406511Y-99446292D01*
X152355000Y-99457498D01*
X151851229Y-99457498D01*
X151784190Y-99437813D01*
X151763548Y-99421179D01*
X151734890Y-99392521D01*
X151734884Y-99392516D01*
X151591697Y-99302545D01*
X151591694Y-99302543D01*
X151432056Y-99246683D01*
X151264003Y-99227749D01*
X151263997Y-99227749D01*
X151095943Y-99246683D01*
X150936305Y-99302543D01*
X150936302Y-99302545D01*
X150793115Y-99392516D01*
X150793109Y-99392521D01*
X150673523Y-99512107D01*
X150673518Y-99512113D01*
X150583547Y-99655300D01*
X150583545Y-99655303D01*
X150527685Y-99814941D01*
X150508751Y-99982995D01*
X150508751Y-99983001D01*
X150510285Y-99996617D01*
X150498230Y-100065439D01*
X150450881Y-100116818D01*
X150387065Y-100134500D01*
X149654360Y-100134500D01*
X149555950Y-100148394D01*
X149555939Y-100148396D01*
X149503272Y-100163571D01*
X149503268Y-100163572D01*
X149412565Y-100204159D01*
X149408728Y-100206211D01*
X149408596Y-100205964D01*
X149388283Y-100215743D01*
X149330634Y-100235915D01*
X149303563Y-100242093D01*
X149242882Y-100248930D01*
X149215116Y-100248930D01*
X149154434Y-100242093D01*
X149127361Y-100235914D01*
X149114380Y-100231371D01*
X149114191Y-100231305D01*
X149069718Y-100215744D01*
X149049413Y-100205964D01*
X149049280Y-100206215D01*
X149045445Y-100204165D01*
X148954727Y-100163571D01*
X148954725Y-100163570D01*
X148943095Y-100160219D01*
X148902060Y-100148396D01*
X148902049Y-100148394D01*
X148803639Y-100134500D01*
X148803635Y-100134500D01*
X147583030Y-100134500D01*
X147515991Y-100114815D01*
X147470236Y-100062011D01*
X147460292Y-99992853D01*
X147489317Y-99929297D01*
X147495348Y-99922820D01*
X147514209Y-99903959D01*
X147536704Y-99881463D01*
X147598024Y-99847979D01*
X147610501Y-99845925D01*
X147749055Y-99830314D01*
X147749057Y-99830313D01*
X147749059Y-99830313D01*
X147908690Y-99774456D01*
X147908692Y-99774454D01*
X147908694Y-99774454D01*
X147908697Y-99774452D01*
X148051884Y-99684481D01*
X148051885Y-99684480D01*
X148051890Y-99684477D01*
X148171477Y-99564890D01*
X148171481Y-99564884D01*
X148261452Y-99421697D01*
X148261454Y-99421694D01*
X148261454Y-99421692D01*
X148261456Y-99421690D01*
X148317313Y-99262059D01*
X148317313Y-99262058D01*
X148317314Y-99262056D01*
X148336249Y-99094002D01*
X148336249Y-99093997D01*
X148317314Y-98925943D01*
X148261454Y-98766305D01*
X148261452Y-98766302D01*
X148171481Y-98623115D01*
X148171476Y-98623109D01*
X148051890Y-98503523D01*
X148051884Y-98503518D01*
X147908691Y-98413543D01*
X147891340Y-98407472D01*
X147834564Y-98366750D01*
X147808818Y-98301797D01*
X147809598Y-98277965D01*
X147809118Y-98277928D01*
X147809500Y-98273076D01*
X147809500Y-97440000D01*
X147829185Y-97372961D01*
X147881989Y-97327206D01*
X147933500Y-97316000D01*
X148503668Y-97316000D01*
X148570707Y-97335685D01*
G37*
%TD.AperFunction*%
%TA.AperFunction,Conductor*%
G36*
X159321539Y-97335685D02*
G01*
X159367294Y-97388489D01*
X159378500Y-97440000D01*
X159378500Y-97846288D01*
X159410161Y-98086785D01*
X159472947Y-98321104D01*
X159528512Y-98455249D01*
X159565776Y-98545212D01*
X159687064Y-98755289D01*
X159687066Y-98755292D01*
X159687067Y-98755293D01*
X159834733Y-98947736D01*
X159834739Y-98947743D01*
X160006256Y-99119260D01*
X160006263Y-99119266D01*
X160069465Y-99167762D01*
X160198711Y-99266936D01*
X160408788Y-99388224D01*
X160632900Y-99481054D01*
X160867211Y-99543838D01*
X161027074Y-99564884D01*
X161107711Y-99575500D01*
X161107712Y-99575500D01*
X161350281Y-99575500D01*
X161350288Y-99575500D01*
X161410816Y-99567531D01*
X161479849Y-99578296D01*
X161532105Y-99624675D01*
X161551000Y-99690470D01*
X161551000Y-101079468D01*
X161531315Y-101146507D01*
X161478511Y-101192262D01*
X161409353Y-101202206D01*
X161345797Y-101173181D01*
X161339319Y-101167149D01*
X159994065Y-99821896D01*
X157699850Y-97527681D01*
X157666365Y-97466358D01*
X157671349Y-97396666D01*
X157713221Y-97340733D01*
X157778685Y-97316316D01*
X157787531Y-97316000D01*
X159254500Y-97316000D01*
X159321539Y-97335685D01*
G37*
%TD.AperFunction*%
%TD*%
%TA.AperFunction,Conductor*%
%TO.N,/SW*%
G36*
X148856307Y-100505175D02*
G01*
X148901305Y-100533450D01*
X148901308Y-100533450D01*
X148901310Y-100533452D01*
X148995690Y-100566476D01*
X149060934Y-100589307D01*
X149060938Y-100589308D01*
X149060941Y-100589309D01*
X149060942Y-100589309D01*
X149060946Y-100589310D01*
X149228996Y-100608245D01*
X149229000Y-100608245D01*
X149229004Y-100608245D01*
X149397053Y-100589310D01*
X149397055Y-100589309D01*
X149397059Y-100589309D01*
X149556690Y-100533452D01*
X149556692Y-100533450D01*
X149556694Y-100533450D01*
X149601693Y-100505175D01*
X149654365Y-100490000D01*
X150668627Y-100490000D01*
X150726818Y-100508907D01*
X150738630Y-100518996D01*
X150793108Y-100573473D01*
X150793110Y-100573475D01*
X150793112Y-100573476D01*
X150793113Y-100573477D01*
X150892402Y-100635865D01*
X150936310Y-100663454D01*
X151000232Y-100685821D01*
X151095934Y-100719309D01*
X151095938Y-100719310D01*
X151095941Y-100719311D01*
X151095942Y-100719311D01*
X151095946Y-100719312D01*
X151263996Y-100738247D01*
X151264000Y-100738247D01*
X151264004Y-100738247D01*
X151432053Y-100719312D01*
X151432055Y-100719311D01*
X151432059Y-100719311D01*
X151591690Y-100663454D01*
X151734890Y-100573475D01*
X151752881Y-100555483D01*
X151770872Y-100537494D01*
X151825389Y-100509717D01*
X151840875Y-100508498D01*
X152380000Y-100508498D01*
X152438191Y-100527405D01*
X152474155Y-100576905D01*
X152479000Y-100607498D01*
X152479000Y-100858297D01*
X153390840Y-100858297D01*
X153449031Y-100877204D01*
X153484995Y-100926704D01*
X153488993Y-100944374D01*
X153494153Y-100983565D01*
X153495000Y-100996488D01*
X153495000Y-105881617D01*
X153476093Y-105939808D01*
X153466004Y-105951620D01*
X153388516Y-106029108D01*
X153388512Y-106029113D01*
X153298536Y-106172308D01*
X153298536Y-106172309D01*
X153242680Y-106331934D01*
X153242677Y-106331946D01*
X153223743Y-106499995D01*
X153223743Y-106500004D01*
X153242677Y-106668053D01*
X153242680Y-106668065D01*
X153298536Y-106827690D01*
X153298536Y-106827691D01*
X153388512Y-106970886D01*
X153388515Y-106970890D01*
X153466005Y-107048380D01*
X153493781Y-107102895D01*
X153495000Y-107118382D01*
X153495000Y-108522172D01*
X153494153Y-108535097D01*
X153479658Y-108645174D01*
X153472966Y-108670141D01*
X153432979Y-108766659D01*
X153420053Y-108789043D01*
X153356443Y-108871922D01*
X153338163Y-108890197D01*
X153255264Y-108953787D01*
X153232876Y-108966708D01*
X153136343Y-109006670D01*
X153111374Y-109013354D01*
X153001300Y-109027818D01*
X152988375Y-109028662D01*
X151091827Y-109028147D01*
X148932887Y-109027561D01*
X143685349Y-109026136D01*
X143672433Y-109025287D01*
X143562397Y-109010772D01*
X143537440Y-109004078D01*
X143440961Y-108964092D01*
X143418587Y-108951170D01*
X143335733Y-108887573D01*
X143317468Y-108869302D01*
X143253897Y-108786435D01*
X143240980Y-108764058D01*
X143201016Y-108667561D01*
X143194330Y-108642605D01*
X143179847Y-108532569D01*
X143179000Y-108519650D01*
X143179000Y-101333776D01*
X143197907Y-101275585D01*
X143207997Y-101263772D01*
X143246762Y-101225008D01*
X143604074Y-100867696D01*
X143658590Y-100839919D01*
X143674077Y-100838700D01*
X146286538Y-100838700D01*
X146286554Y-100838701D01*
X146292617Y-100838701D01*
X146430983Y-100838701D01*
X146536391Y-100810456D01*
X146564636Y-100802888D01*
X146684465Y-100733705D01*
X146782305Y-100635865D01*
X146782305Y-100635863D01*
X146790455Y-100627714D01*
X146790457Y-100627711D01*
X146899173Y-100518996D01*
X146953689Y-100491219D01*
X146969176Y-100490000D01*
X148803635Y-100490000D01*
X148856307Y-100505175D01*
G37*
%TD.AperFunction*%
%TD*%
%TA.AperFunction,Conductor*%
%TO.N,AGND*%
G36*
X147413191Y-91238907D02*
G01*
X147449155Y-91288407D01*
X147454000Y-91319000D01*
X147454000Y-98273075D01*
X147435093Y-98331266D01*
X147387698Y-98366519D01*
X147253309Y-98413544D01*
X147253308Y-98413544D01*
X147110113Y-98503520D01*
X146990520Y-98623113D01*
X146900545Y-98766307D01*
X146900544Y-98766310D01*
X146898696Y-98771593D01*
X146897960Y-98773696D01*
X146860895Y-98822377D01*
X146804515Y-98840000D01*
X146273732Y-98840000D01*
X146215541Y-98821093D01*
X146179577Y-98771593D01*
X146175355Y-98729913D01*
X146177261Y-98713000D01*
X146177261Y-98712995D01*
X146158326Y-98544946D01*
X146158323Y-98544934D01*
X146135492Y-98479690D01*
X146102468Y-98385310D01*
X146012489Y-98242110D01*
X145892902Y-98122523D01*
X145892899Y-98122521D01*
X145892898Y-98122520D01*
X145749703Y-98032544D01*
X145590077Y-97976688D01*
X145590065Y-97976685D01*
X145422016Y-97957751D01*
X145422008Y-97957751D01*
X145253958Y-97976685D01*
X145253946Y-97976688D01*
X145094321Y-98032544D01*
X145094320Y-98032544D01*
X144951125Y-98122520D01*
X144831532Y-98242113D01*
X144741556Y-98385308D01*
X144741556Y-98385309D01*
X144685700Y-98544934D01*
X144685697Y-98544946D01*
X144666763Y-98712995D01*
X144666763Y-98713000D01*
X144668669Y-98729913D01*
X144656398Y-98789855D01*
X144611237Y-98831136D01*
X144570292Y-98840000D01*
X143108000Y-98840000D01*
X143049809Y-98821093D01*
X143013845Y-98771593D01*
X143009000Y-98741000D01*
X143009000Y-91319000D01*
X143027907Y-91260809D01*
X143077407Y-91224845D01*
X143108000Y-91220000D01*
X147355000Y-91220000D01*
X147413191Y-91238907D01*
G37*
%TD.AperFunction*%
%TD*%
M02*
