%TF.GenerationSoftware,KiCad,Pcbnew,8.0.7*%
%TF.CreationDate,2025-01-15T16:40:05+01:00*%
%TF.ProjectId,makita-ps,6d616b69-7461-42d7-9073-2e6b69636164,1*%
%TF.SameCoordinates,Original*%
%TF.FileFunction,Copper,L1,Top*%
%TF.FilePolarity,Positive*%
%FSLAX46Y46*%
G04 Gerber Fmt 4.6, Leading zero omitted, Abs format (unit mm)*
G04 Created by KiCad (PCBNEW 8.0.7) date 2025-01-15 16:40:05*
%MOMM*%
%LPD*%
G01*
G04 APERTURE LIST*
G04 Aperture macros list*
%AMRoundRect*
0 Rectangle with rounded corners*
0 $1 Rounding radius*
0 $2 $3 $4 $5 $6 $7 $8 $9 X,Y pos of 4 corners*
0 Add a 4 corners polygon primitive as box body*
4,1,4,$2,$3,$4,$5,$6,$7,$8,$9,$2,$3,0*
0 Add four circle primitives for the rounded corners*
1,1,$1+$1,$2,$3*
1,1,$1+$1,$4,$5*
1,1,$1+$1,$6,$7*
1,1,$1+$1,$8,$9*
0 Add four rect primitives between the rounded corners*
20,1,$1+$1,$2,$3,$4,$5,0*
20,1,$1+$1,$4,$5,$6,$7,0*
20,1,$1+$1,$6,$7,$8,$9,0*
20,1,$1+$1,$8,$9,$2,$3,0*%
%AMFreePoly0*
4,1,9,2.975000,-2.350000,1.425000,-2.350000,1.425000,-2.100000,-1.650000,-2.100000,-1.650000,2.100000,1.425000,2.100000,1.425000,2.350000,2.975000,2.350000,2.975000,-2.350000,2.975000,-2.350000,$1*%
%AMFreePoly1*
4,1,6,1.000000,0.000000,0.500000,-0.750000,-0.500000,-0.750000,-0.500000,0.750000,0.500000,0.750000,1.000000,0.000000,1.000000,0.000000,$1*%
%AMFreePoly2*
4,1,7,0.700000,0.000000,1.200000,-0.750000,-1.200000,-0.750000,-0.700000,0.000000,-1.200000,0.750000,1.200000,0.750000,0.700000,0.000000,0.700000,0.000000,$1*%
%AMFreePoly3*
4,1,12,0.140000,-0.355000,0.136651,-0.355000,0.121244,-0.412500,0.070000,-0.463744,0.000000,-0.482500,-0.070000,-0.463744,-0.121244,-0.412500,-0.136651,-0.355000,-0.140000,-0.355000,-0.140000,0.355000,0.140000,0.355000,0.140000,-0.355000,0.140000,-0.355000,$1*%
%AMFreePoly4*
4,1,10,0.425000,0.121244,0.476244,0.070000,0.495000,0.000000,0.476244,-0.070000,0.425000,-0.121244,0.355000,-0.140000,-0.355000,-0.140000,-0.355000,0.140000,0.355000,0.140000,0.425000,0.121244,0.425000,0.121244,$1*%
%AMFreePoly5*
4,1,12,0.355000,0.136650,0.412500,0.121244,0.463744,0.070000,0.482500,0.000000,0.463744,-0.070000,0.412500,-0.121244,0.355000,-0.136650,0.355000,-0.140000,-0.355000,-0.140000,-0.355000,0.140000,0.355000,0.140000,0.355000,0.136650,0.355000,0.136650,$1*%
%AMFreePoly6*
4,1,12,0.070000,0.463744,0.121244,0.412500,0.136651,0.355000,0.140000,0.355000,0.140000,-0.355000,-0.140000,-0.355000,-0.140000,0.355000,-0.136651,0.355000,-0.121244,0.412500,-0.070000,0.463744,0.000000,0.482500,0.070000,0.463744,0.070000,0.463744,$1*%
%AMFreePoly7*
4,1,12,0.355000,-0.140000,-0.355000,-0.140000,-0.355000,-0.136650,-0.412500,-0.121244,-0.463744,-0.070000,-0.482500,0.000000,-0.463744,0.070000,-0.412500,0.121244,-0.355000,0.136650,-0.355000,0.140000,0.355000,0.140000,0.355000,-0.140000,0.355000,-0.140000,$1*%
G04 Aperture macros list end*
%TA.AperFunction,EtchedComponent*%
%ADD10C,0.000000*%
%TD*%
%TA.AperFunction,SMDPad,CuDef*%
%ADD11RoundRect,0.200000X0.200000X0.275000X-0.200000X0.275000X-0.200000X-0.275000X0.200000X-0.275000X0*%
%TD*%
%TA.AperFunction,SMDPad,CuDef*%
%ADD12RoundRect,0.250000X0.475000X-0.250000X0.475000X0.250000X-0.475000X0.250000X-0.475000X-0.250000X0*%
%TD*%
%TA.AperFunction,ComponentPad*%
%ADD13RoundRect,0.250002X-1.699998X-1.699998X1.699998X-1.699998X1.699998X1.699998X-1.699998X1.699998X0*%
%TD*%
%TA.AperFunction,SMDPad,CuDef*%
%ADD14RoundRect,0.250000X-0.550000X1.500000X-0.550000X-1.500000X0.550000X-1.500000X0.550000X1.500000X0*%
%TD*%
%TA.AperFunction,SMDPad,CuDef*%
%ADD15RoundRect,0.250000X-0.325000X-0.650000X0.325000X-0.650000X0.325000X0.650000X-0.325000X0.650000X0*%
%TD*%
%TA.AperFunction,SMDPad,CuDef*%
%ADD16C,0.290000*%
%TD*%
%TA.AperFunction,SMDPad,CuDef*%
%ADD17RoundRect,0.250000X0.250000X0.475000X-0.250000X0.475000X-0.250000X-0.475000X0.250000X-0.475000X0*%
%TD*%
%TA.AperFunction,SMDPad,CuDef*%
%ADD18RoundRect,0.200000X0.275000X-0.200000X0.275000X0.200000X-0.275000X0.200000X-0.275000X-0.200000X0*%
%TD*%
%TA.AperFunction,SMDPad,CuDef*%
%ADD19RoundRect,0.250000X-1.500000X-0.550000X1.500000X-0.550000X1.500000X0.550000X-1.500000X0.550000X0*%
%TD*%
%TA.AperFunction,ComponentPad*%
%ADD20RoundRect,0.249999X0.790001X1.550001X-0.790001X1.550001X-0.790001X-1.550001X0.790001X-1.550001X0*%
%TD*%
%TA.AperFunction,ComponentPad*%
%ADD21O,2.080000X3.600000*%
%TD*%
%TA.AperFunction,SMDPad,CuDef*%
%ADD22RoundRect,0.150000X0.150000X-0.512500X0.150000X0.512500X-0.150000X0.512500X-0.150000X-0.512500X0*%
%TD*%
%TA.AperFunction,SMDPad,CuDef*%
%ADD23RoundRect,0.200000X-0.275000X0.200000X-0.275000X-0.200000X0.275000X-0.200000X0.275000X0.200000X0*%
%TD*%
%TA.AperFunction,SMDPad,CuDef*%
%ADD24RoundRect,0.225000X0.250000X-0.225000X0.250000X0.225000X-0.250000X0.225000X-0.250000X-0.225000X0*%
%TD*%
%TA.AperFunction,SMDPad,CuDef*%
%ADD25RoundRect,0.175000X-0.400000X0.175000X-0.400000X-0.175000X0.400000X-0.175000X0.400000X0.175000X0*%
%TD*%
%TA.AperFunction,SMDPad,CuDef*%
%ADD26FreePoly0,0.000000*%
%TD*%
%TA.AperFunction,SMDPad,CuDef*%
%ADD27RoundRect,0.112500X0.112500X-0.187500X0.112500X0.187500X-0.112500X0.187500X-0.112500X-0.187500X0*%
%TD*%
%TA.AperFunction,SMDPad,CuDef*%
%ADD28FreePoly1,0.000000*%
%TD*%
%TA.AperFunction,SMDPad,CuDef*%
%ADD29FreePoly2,0.000000*%
%TD*%
%TA.AperFunction,SMDPad,CuDef*%
%ADD30FreePoly1,180.000000*%
%TD*%
%TA.AperFunction,ComponentPad*%
%ADD31R,1.700000X1.700000*%
%TD*%
%TA.AperFunction,ComponentPad*%
%ADD32O,1.700000X1.700000*%
%TD*%
%TA.AperFunction,SMDPad,CuDef*%
%ADD33FreePoly3,0.000000*%
%TD*%
%TA.AperFunction,SMDPad,CuDef*%
%ADD34FreePoly4,0.000000*%
%TD*%
%TA.AperFunction,SMDPad,CuDef*%
%ADD35FreePoly5,0.000000*%
%TD*%
%TA.AperFunction,SMDPad,CuDef*%
%ADD36FreePoly6,0.000000*%
%TD*%
%TA.AperFunction,SMDPad,CuDef*%
%ADD37FreePoly7,0.000000*%
%TD*%
%TA.AperFunction,SMDPad,CuDef*%
%ADD38R,2.050000X3.100000*%
%TD*%
%TA.AperFunction,SMDPad,CuDef*%
%ADD39RoundRect,0.243600X0.771400X-1.406400X0.771400X1.406400X-0.771400X1.406400X-0.771400X-1.406400X0*%
%TD*%
%TA.AperFunction,SMDPad,CuDef*%
%ADD40RoundRect,0.190000X0.190000X-0.510000X0.190000X0.510000X-0.190000X0.510000X-0.190000X-0.510000X0*%
%TD*%
%TA.AperFunction,ComponentPad*%
%ADD41RoundRect,0.250000X0.650000X1.550000X-0.650000X1.550000X-0.650000X-1.550000X0.650000X-1.550000X0*%
%TD*%
%TA.AperFunction,ComponentPad*%
%ADD42O,1.800000X3.600000*%
%TD*%
%TA.AperFunction,SMDPad,CuDef*%
%ADD43RoundRect,0.125000X-0.125000X0.537500X-0.125000X-0.537500X0.125000X-0.537500X0.125000X0.537500X0*%
%TD*%
%TA.AperFunction,SMDPad,CuDef*%
%ADD44R,0.530000X0.440000*%
%TD*%
%TA.AperFunction,SMDPad,CuDef*%
%ADD45R,1.000000X0.880000*%
%TD*%
%TA.AperFunction,SMDPad,CuDef*%
%ADD46RoundRect,0.200000X-0.200000X-0.275000X0.200000X-0.275000X0.200000X0.275000X-0.200000X0.275000X0*%
%TD*%
%TA.AperFunction,ComponentPad*%
%ADD47RoundRect,0.250000X0.600000X0.725000X-0.600000X0.725000X-0.600000X-0.725000X0.600000X-0.725000X0*%
%TD*%
%TA.AperFunction,ComponentPad*%
%ADD48O,1.700000X1.950000*%
%TD*%
%TA.AperFunction,SMDPad,CuDef*%
%ADD49RoundRect,0.125000X0.125000X-0.537500X0.125000X0.537500X-0.125000X0.537500X-0.125000X-0.537500X0*%
%TD*%
%TA.AperFunction,SMDPad,CuDef*%
%ADD50R,0.500000X0.800000*%
%TD*%
%TA.AperFunction,SMDPad,CuDef*%
%ADD51RoundRect,0.250000X-0.475000X0.250000X-0.475000X-0.250000X0.475000X-0.250000X0.475000X0.250000X0*%
%TD*%
%TA.AperFunction,SMDPad,CuDef*%
%ADD52RoundRect,0.112500X-0.112500X-0.237500X0.112500X-0.237500X0.112500X0.237500X-0.112500X0.237500X0*%
%TD*%
%TA.AperFunction,SMDPad,CuDef*%
%ADD53RoundRect,0.225000X-0.225000X-0.250000X0.225000X-0.250000X0.225000X0.250000X-0.225000X0.250000X0*%
%TD*%
%TA.AperFunction,SMDPad,CuDef*%
%ADD54RoundRect,0.150000X0.150000X-0.587500X0.150000X0.587500X-0.150000X0.587500X-0.150000X-0.587500X0*%
%TD*%
%TA.AperFunction,ComponentPad*%
%ADD55C,2.100000*%
%TD*%
%TA.AperFunction,ComponentPad*%
%ADD56C,1.750000*%
%TD*%
%TA.AperFunction,ComponentPad*%
%ADD57R,1.000000X1.000000*%
%TD*%
%TA.AperFunction,ComponentPad*%
%ADD58O,1.000000X1.000000*%
%TD*%
%TA.AperFunction,SMDPad,CuDef*%
%ADD59R,2.820000X1.570000*%
%TD*%
%TA.AperFunction,SMDPad,CuDef*%
%ADD60RoundRect,0.100000X-0.637500X-0.100000X0.637500X-0.100000X0.637500X0.100000X-0.637500X0.100000X0*%
%TD*%
%TA.AperFunction,SMDPad,CuDef*%
%ADD61RoundRect,0.250000X-0.450000X0.262500X-0.450000X-0.262500X0.450000X-0.262500X0.450000X0.262500X0*%
%TD*%
%TA.AperFunction,SMDPad,CuDef*%
%ADD62RoundRect,0.243600X1.406400X0.771400X-1.406400X0.771400X-1.406400X-0.771400X1.406400X-0.771400X0*%
%TD*%
%TA.AperFunction,SMDPad,CuDef*%
%ADD63RoundRect,0.190000X0.510000X0.190000X-0.510000X0.190000X-0.510000X-0.190000X0.510000X-0.190000X0*%
%TD*%
%TA.AperFunction,SMDPad,CuDef*%
%ADD64R,5.000000X3.100000*%
%TD*%
%TA.AperFunction,SMDPad,CuDef*%
%ADD65R,0.400000X0.800000*%
%TD*%
%TA.AperFunction,SMDPad,CuDef*%
%ADD66R,2.700000X1.000000*%
%TD*%
%TA.AperFunction,SMDPad,CuDef*%
%ADD67RoundRect,0.093750X-0.093750X-0.106250X0.093750X-0.106250X0.093750X0.106250X-0.093750X0.106250X0*%
%TD*%
%TA.AperFunction,HeatsinkPad*%
%ADD68R,1.000000X1.600000*%
%TD*%
%TA.AperFunction,ComponentPad*%
%ADD69O,3.000000X8.300000*%
%TD*%
%TA.AperFunction,ComponentPad*%
%ADD70C,5.600000*%
%TD*%
%TA.AperFunction,ViaPad*%
%ADD71C,1.200000*%
%TD*%
%TA.AperFunction,ViaPad*%
%ADD72C,0.800000*%
%TD*%
%TA.AperFunction,ViaPad*%
%ADD73C,0.600000*%
%TD*%
%TA.AperFunction,Conductor*%
%ADD74C,0.250000*%
%TD*%
%TA.AperFunction,Conductor*%
%ADD75C,0.500000*%
%TD*%
%TA.AperFunction,Conductor*%
%ADD76C,0.350000*%
%TD*%
%TA.AperFunction,Conductor*%
%ADD77C,0.290000*%
%TD*%
G04 APERTURE END LIST*
D10*
%TA.AperFunction,EtchedComponent*%
%TO.C,NT1*%
G36*
X149274000Y-96595000D02*
G01*
X148274000Y-96595000D01*
X148274000Y-96315000D01*
X149274000Y-96315000D01*
X149274000Y-96595000D01*
G37*
%TD.AperFunction*%
%TD*%
D11*
%TO.P,R1,1*%
%TO.N,/EN_3V3*%
X166254000Y-81500000D03*
%TO.P,R1,2*%
%TO.N,/PWR_ENABLE*%
X164604000Y-81500000D03*
%TD*%
D12*
%TO.P,C4,1*%
%TO.N,PGND*%
X169552000Y-94893000D03*
%TO.P,C4,2*%
%TO.N,+3V3*%
X169552000Y-92993000D03*
%TD*%
D13*
%TO.P,J7,1,Pin_1*%
%TO.N,+12V*%
X138437000Y-129066000D03*
%TD*%
D14*
%TO.P,C23,1*%
%TO.N,VDD*%
X160789000Y-125625000D03*
%TO.P,C23,2*%
%TO.N,PGND*%
X160789000Y-131225000D03*
%TD*%
D15*
%TO.P,C15,1*%
%TO.N,+12V*%
X139479000Y-114950000D03*
%TO.P,C15,2*%
%TO.N,PGND*%
X142429000Y-114950000D03*
%TD*%
D16*
%TO.P,NT1,1,1*%
%TO.N,AGND*%
X148274000Y-96455000D03*
%TO.P,NT1,2,2*%
%TO.N,PGND*%
X149274000Y-96455000D03*
%TD*%
D17*
%TO.P,C16,1*%
%TO.N,VDD*%
X159679000Y-114334000D03*
%TO.P,C16,2*%
%TO.N,PGND*%
X157779000Y-114334000D03*
%TD*%
D18*
%TO.P,R7,1*%
%TO.N,+3V3*%
X163194000Y-86102000D03*
%TO.P,R7,2*%
%TO.N,/~{RST}*%
X163194000Y-84452000D03*
%TD*%
D12*
%TO.P,C5,1*%
%TO.N,PGND*%
X171711000Y-94898000D03*
%TO.P,C5,2*%
%TO.N,+3V3*%
X171711000Y-92998000D03*
%TD*%
D19*
%TO.P,C17,1*%
%TO.N,VDD*%
X163929000Y-114000000D03*
%TO.P,C17,2*%
%TO.N,PGND*%
X169529000Y-114000000D03*
%TD*%
D20*
%TO.P,J1,1,Pin_1*%
%TO.N,PGND*%
X138929000Y-72000000D03*
D21*
%TO.P,J1,2,Pin_2*%
%TO.N,/+12V_OUT*%
X133849000Y-72000000D03*
%TD*%
D17*
%TO.P,C6,1*%
%TO.N,Net-(U4-VDDA)*%
X146479000Y-96705000D03*
%TO.P,C6,2*%
%TO.N,AGND*%
X144579000Y-96705000D03*
%TD*%
D22*
%TO.P,U5,1,FB*%
%TO.N,+3V3*%
X165869000Y-98895000D03*
%TO.P,U5,2,EN*%
%TO.N,/EN_3V3*%
X166819000Y-98895000D03*
%TO.P,U5,3,IN*%
%TO.N,VDD*%
X167769000Y-98895000D03*
%TO.P,U5,4,GND*%
%TO.N,PGND*%
X167769000Y-96620000D03*
%TO.P,U5,5,SW*%
%TO.N,/SW_3V3*%
X166819000Y-96620000D03*
%TO.P,U5,6,BST*%
%TO.N,/BST_3V3*%
X165869000Y-96620000D03*
%TD*%
D23*
%TO.P,R4,1*%
%TO.N,/PWR_BTN*%
X150129000Y-84975000D03*
%TO.P,R4,2*%
%TO.N,Net-(Q1-B)*%
X150129000Y-86625000D03*
%TD*%
D24*
%TO.P,C3,1*%
%TO.N,PGND*%
X132929000Y-91675000D03*
%TO.P,C3,2*%
%TO.N,+3V3*%
X132929000Y-90125000D03*
%TD*%
D18*
%TO.P,R9,1*%
%TO.N,Net-(Q1-C)*%
X155229000Y-88525000D03*
%TO.P,R9,2*%
%TO.N,Net-(D2-K)*%
X155229000Y-86875000D03*
%TD*%
D11*
%TO.P,R14,1*%
%TO.N,/PWR_BTN_SENSE*%
X166354000Y-90200000D03*
%TO.P,R14,2*%
%TO.N,Net-(D2-K)*%
X164704000Y-90200000D03*
%TD*%
D25*
%TO.P,Q2,1,S*%
%TO.N,PGND*%
X141559000Y-101710000D03*
%TO.P,Q2,2,S*%
X141559000Y-102980000D03*
%TO.P,Q2,3,S*%
X141559000Y-104260000D03*
%TO.P,Q2,4,G*%
%TO.N,Net-(Q2-G)*%
X141559000Y-105530000D03*
D26*
%TO.P,Q2,5,D*%
%TO.N,/SW*%
X144829000Y-103620000D03*
%TD*%
D27*
%TO.P,D2,1,K*%
%TO.N,Net-(D2-K)*%
X152929000Y-83850000D03*
%TO.P,D2,2,A*%
%TO.N,PGND*%
X152929000Y-81750000D03*
%TD*%
D28*
%TO.P,JP2,1,A*%
%TO.N,PGND*%
X125729000Y-93500000D03*
D29*
%TO.P,JP2,2,C*%
%TO.N,Net-(JP2-C)*%
X127729000Y-93500000D03*
D30*
%TO.P,JP2,3,B*%
%TO.N,+3V3*%
X129729000Y-93500000D03*
%TD*%
D11*
%TO.P,R16,1*%
%TO.N,Net-(U4-RT)*%
X146079000Y-93400000D03*
%TO.P,R16,2*%
%TO.N,AGND*%
X144429000Y-93400000D03*
%TD*%
%TO.P,R12,1*%
%TO.N,Net-(U4-CNFG)*%
X146229000Y-91900000D03*
%TO.P,R12,2*%
%TO.N,AGND*%
X144579000Y-91900000D03*
%TD*%
D31*
%TO.P,J6,1,Pin_1*%
%TO.N,PGND*%
X166504000Y-127542000D03*
D32*
%TO.P,J6,2,Pin_2*%
%TO.N,+3V3*%
X166504000Y-130082000D03*
%TO.P,J6,3,Pin_3*%
%TO.N,/SCL*%
X166504000Y-132622000D03*
%TO.P,J6,4,Pin_4*%
%TO.N,/SDA*%
X166504000Y-135162000D03*
%TD*%
D24*
%TO.P,C2,1*%
%TO.N,PGND*%
X172465000Y-86687000D03*
%TO.P,C2,2*%
%TO.N,+3V3*%
X172465000Y-85137000D03*
%TD*%
D18*
%TO.P,R3,1*%
%TO.N,Net-(D2-K)*%
X154729000Y-83725000D03*
%TO.P,R3,2*%
%TO.N,PGND*%
X154729000Y-82075000D03*
%TD*%
D33*
%TO.P,U4,1,NC*%
%TO.N,PGND*%
X149229000Y-93410000D03*
D34*
%TO.P,U4,2,NC*%
X148184000Y-93955000D03*
D35*
%TO.P,U4,3,CNFG*%
%TO.N,Net-(U4-CNFG)*%
X148184000Y-94455000D03*
%TO.P,U4,4,RT*%
%TO.N,Net-(U4-RT)*%
X148184000Y-94955000D03*
%TO.P,U4,5,EXTCOMP*%
%TO.N,Net-(U4-EXTCOMP)*%
X148184000Y-95455000D03*
%TO.P,U4,6,FB*%
%TO.N,Net-(U4-FB)*%
X148184000Y-95955000D03*
%TO.P,U4,7,AGND*%
%TO.N,AGND*%
X148184000Y-96455000D03*
%TO.P,U4,8,VDDA*%
%TO.N,Net-(U4-VDDA)*%
X148184000Y-96955000D03*
%TO.P,U4,9,VCC*%
%TO.N,Net-(U4-VCC)*%
X148184000Y-97455000D03*
%TO.P,U4,10,PGND*%
%TO.N,PGND*%
X148184000Y-97955000D03*
%TO.P,U4,11,LO*%
%TO.N,Net-(Q2-G)*%
X148184000Y-98455000D03*
D36*
%TO.P,U4,12,VIN*%
%TO.N,VDD*%
X149229000Y-99000000D03*
%TO.P,U4,13,HO*%
%TO.N,Net-(Q3-G)*%
X150729000Y-99000000D03*
D37*
%TO.P,U4,14,SW*%
%TO.N,/SW*%
X151774000Y-98455000D03*
%TO.P,U4,15,CBOOT*%
%TO.N,Net-(U4-CBOOT)*%
X151774000Y-97955000D03*
%TO.P,U4,16,VCCX*%
%TO.N,unconnected-(U4-VCCX-Pad16)*%
X151774000Y-97455000D03*
%TO.P,U4,17,PG/SYNCOUT*%
%TO.N,/PG_12V*%
X151774000Y-96955000D03*
%TO.P,U4,18,PFM/SYNC*%
%TO.N,AGND*%
X151774000Y-96455000D03*
%TO.P,U4,19,EN*%
%TO.N,/EN_12V*%
X151774000Y-95955000D03*
%TO.P,U4,20,ISNS+*%
%TO.N,Net-(U4-ISNS+)*%
X151774000Y-95455000D03*
%TO.P,U4,21,VOUT*%
%TO.N,Net-(U4-VOUT)*%
X151774000Y-94955000D03*
%TO.P,U4,22,NC*%
%TO.N,PGND*%
X151774000Y-94455000D03*
%TO.P,U4,23,NC*%
X151774000Y-93955000D03*
D33*
%TO.P,U4,24,NC*%
X150729000Y-93410000D03*
D38*
%TO.P,U4,25,EP*%
X149979000Y-96205000D03*
%TD*%
D39*
%TO.P,R2,1,1*%
%TO.N,/+12V_CS*%
X133594000Y-84980000D03*
D40*
%TO.P,R2,2,2*%
%TO.N,Net-(U3-IN+)*%
X135499000Y-85930000D03*
%TO.P,R2,3,3*%
%TO.N,Net-(U3-IN-)*%
X132959000Y-79070000D03*
D39*
%TO.P,R2,4,4*%
%TO.N,/+12V_OUT*%
X134864000Y-80020000D03*
%TD*%
D41*
%TO.P,J4,1,Pin_1*%
%TO.N,/CAN-*%
X162948000Y-72678000D03*
D42*
%TO.P,J4,2,Pin_2*%
%TO.N,/CAN+*%
X159448000Y-72678000D03*
%TD*%
D28*
%TO.P,JP1,1,A*%
%TO.N,PGND*%
X125729000Y-90750000D03*
D29*
%TO.P,JP1,2,C*%
%TO.N,Net-(JP1-C)*%
X127729000Y-90750000D03*
D30*
%TO.P,JP1,3,B*%
%TO.N,+3V3*%
X129729000Y-90750000D03*
%TD*%
D43*
%TO.P,U3,1,IN+*%
%TO.N,Net-(U3-IN+)*%
X136404000Y-90325000D03*
%TO.P,U3,2,IN-*%
%TO.N,Net-(U3-IN-)*%
X135754000Y-90325000D03*
%TO.P,U3,3,GND*%
%TO.N,PGND*%
X135104000Y-90325000D03*
%TO.P,U3,4,VS*%
%TO.N,+3V3*%
X134454000Y-90325000D03*
%TO.P,U3,5,SCL*%
%TO.N,/SCL*%
X134454000Y-92600000D03*
%TO.P,U3,6,SDA*%
%TO.N,/SDA*%
X135104000Y-92600000D03*
%TO.P,U3,7,A0*%
%TO.N,Net-(JP2-C)*%
X135754000Y-92600000D03*
%TO.P,U3,8,A1*%
%TO.N,Net-(JP1-C)*%
X136404000Y-92600000D03*
%TD*%
D15*
%TO.P,C18,1*%
%TO.N,+12V*%
X139479000Y-117450000D03*
%TO.P,C18,2*%
%TO.N,PGND*%
X142429000Y-117450000D03*
%TD*%
D11*
%TO.P,R8,1*%
%TO.N,VDD*%
X153554000Y-89400000D03*
%TO.P,R8,2*%
%TO.N,Net-(Q1-B)*%
X151904000Y-89400000D03*
%TD*%
D17*
%TO.P,C9,1*%
%TO.N,Net-(U4-VCC)*%
X146479000Y-98750000D03*
%TO.P,C9,2*%
%TO.N,PGND*%
X144579000Y-98750000D03*
%TD*%
D44*
%TO.P,D3,1,BK*%
%TO.N,Net-(D3-BK)*%
X154639000Y-135170000D03*
%TO.P,D3,2,GK*%
%TO.N,Net-(D3-GK)*%
X155419000Y-135170000D03*
D45*
%TO.P,D3,3,A*%
%TO.N,+3V3*%
X153579000Y-135390000D03*
%TO.P,D3,4,RK*%
%TO.N,Net-(D3-RK)*%
X156479000Y-135390000D03*
%TD*%
D46*
%TO.P,R6,1*%
%TO.N,Net-(D2-K)*%
X157479000Y-85200000D03*
%TO.P,R6,2*%
%TO.N,/EN_3V3*%
X159129000Y-85200000D03*
%TD*%
%TO.P,R5,1*%
%TO.N,/PG_12V*%
X156662000Y-86902000D03*
%TO.P,R5,2*%
%TO.N,+3V3*%
X158312000Y-86902000D03*
%TD*%
D47*
%TO.P,J3,1,Pin_1*%
%TO.N,PGND*%
X153479000Y-73750000D03*
D48*
%TO.P,J3,2,Pin_2*%
%TO.N,/PWR_BTN*%
X150979000Y-73750000D03*
%TO.P,J3,3,Pin_3*%
%TO.N,/AUX_R*%
X148479000Y-73750000D03*
%TO.P,J3,4,Pin_4*%
%TO.N,+3V3*%
X145979000Y-73750000D03*
%TD*%
D49*
%TO.P,U1,1,TXD*%
%TO.N,/CAN_TX*%
X158454000Y-81937500D03*
%TO.P,U1,2,GND*%
%TO.N,PGND*%
X159104000Y-81937500D03*
%TO.P,U1,3,VCC*%
%TO.N,+3V3*%
X159754000Y-81937500D03*
%TO.P,U1,4,RXD*%
%TO.N,/CAN_RX*%
X160404000Y-81937500D03*
%TO.P,U1,5,SHDN*%
%TO.N,+3V3*%
X160404000Y-79662500D03*
%TO.P,U1,6,CANL*%
%TO.N,/CAN-*%
X159754000Y-79662500D03*
%TO.P,U1,7,CANH*%
%TO.N,/CAN+*%
X159104000Y-79662500D03*
%TO.P,U1,8,S*%
%TO.N,PGND*%
X158454000Y-79662500D03*
%TD*%
D50*
%TO.P,RN1,1,R1.1*%
%TO.N,/SCL*%
X162321000Y-82225000D03*
%TO.P,RN1,2,R2.1*%
%TO.N,/SDA*%
X163321000Y-82225000D03*
%TO.P,RN1,3,R2.2*%
%TO.N,+3V3*%
X163321000Y-80425000D03*
%TO.P,RN1,4,R1.2*%
X162321000Y-80425000D03*
%TD*%
D51*
%TO.P,C8,1*%
%TO.N,PGND*%
X169552000Y-96559000D03*
%TO.P,C8,2*%
%TO.N,VDD*%
X169552000Y-98459000D03*
%TD*%
D46*
%TO.P,R13,1*%
%TO.N,AGND*%
X151579000Y-92000000D03*
%TO.P,R13,2*%
%TO.N,/EN_12V*%
X153229000Y-92000000D03*
%TD*%
D52*
%TO.P,D1,1,K*%
%TO.N,/CAN+*%
X158865000Y-77995500D03*
%TO.P,D1,2,K*%
%TO.N,/CAN-*%
X160165000Y-77995500D03*
%TO.P,D1,3,A*%
%TO.N,PGND*%
X159515000Y-75995500D03*
%TD*%
D53*
%TO.P,C1,1*%
%TO.N,PGND*%
X158740000Y-83599500D03*
%TO.P,C1,2*%
%TO.N,+3V3*%
X160290000Y-83599500D03*
%TD*%
D13*
%TO.P,J5,1,Pin_1*%
%TO.N,/+12V_CS*%
X129479000Y-84250000D03*
%TD*%
D54*
%TO.P,Q1,1,B*%
%TO.N,Net-(Q1-B)*%
X151729000Y-87600000D03*
%TO.P,Q1,2,E*%
%TO.N,VDD*%
X153629000Y-87600000D03*
%TO.P,Q1,3,C*%
%TO.N,Net-(Q1-C)*%
X152679000Y-85725000D03*
%TD*%
D51*
%TO.P,C10,1*%
%TO.N,Net-(U4-CBOOT)*%
X153479000Y-97300000D03*
%TO.P,C10,2*%
%TO.N,/SW*%
X153479000Y-99200000D03*
%TD*%
D55*
%TO.P,SW1,*%
%TO.N,*%
X151754000Y-131547500D03*
X144744000Y-131547500D03*
D56*
%TO.P,SW1,1,1*%
%TO.N,PGND*%
X150504000Y-134037500D03*
%TO.P,SW1,2,2*%
%TO.N,Net-(RN2D-R4.2)*%
X146004000Y-134037500D03*
%TD*%
D15*
%TO.P,C13,1*%
%TO.N,+12V*%
X139479000Y-112450000D03*
%TO.P,C13,2*%
%TO.N,PGND*%
X142429000Y-112450000D03*
%TD*%
%TO.P,C11,1*%
%TO.N,+12V*%
X139504000Y-109950000D03*
%TO.P,C11,2*%
%TO.N,PGND*%
X142454000Y-109950000D03*
%TD*%
D57*
%TO.P,J2,1,Pin_1*%
%TO.N,PGND*%
X169189000Y-71500000D03*
D58*
%TO.P,J2,2,Pin_2*%
%TO.N,/~{RST}*%
X170459000Y-71500000D03*
%TO.P,J2,3,Pin_3*%
%TO.N,/SWCLK*%
X171729000Y-71500000D03*
%TO.P,J2,4,Pin_4*%
%TO.N,/SWDIO*%
X172999000Y-71500000D03*
%TD*%
D15*
%TO.P,C20,1*%
%TO.N,+12V*%
X139479000Y-119950000D03*
%TO.P,C20,2*%
%TO.N,PGND*%
X142429000Y-119950000D03*
%TD*%
D59*
%TO.P,F1,1*%
%TO.N,PGND*%
X125609000Y-126700000D03*
X131929000Y-126700000D03*
%TO.P,F1,2*%
%TO.N,/BT_RAW*%
X125609000Y-113240000D03*
X131929000Y-113240000D03*
%TD*%
D60*
%TO.P,U2,1,PB8*%
%TO.N,/PWR_ENABLE*%
X164972000Y-82961000D03*
%TO.P,U2,2,PF0*%
%TO.N,/SDA*%
X164972000Y-83611000D03*
%TO.P,U2,3,PF1*%
%TO.N,/SCL*%
X164972000Y-84261000D03*
%TO.P,U2,4,NRST*%
%TO.N,/~{RST}*%
X164972000Y-84911000D03*
%TO.P,U2,5,VDDA*%
%TO.N,+3V3*%
X164972000Y-85561000D03*
%TO.P,U2,6,PA0*%
%TO.N,/VMON_BAT*%
X164972000Y-86211000D03*
%TO.P,U2,7,PA1*%
%TO.N,/SMON_BAT*%
X164972000Y-86861000D03*
%TO.P,U2,8,PA2*%
%TO.N,/PG_12V*%
X164972000Y-87511000D03*
%TO.P,U2,9,PA3*%
%TO.N,/EN_12V*%
X164972000Y-88161000D03*
%TO.P,U2,10,PA4*%
%TO.N,/PWR_BTN_SENSE*%
X164972000Y-88811000D03*
%TO.P,U2,11,PA5*%
%TO.N,/AUX*%
X170697000Y-88811000D03*
%TO.P,U2,12,PA6*%
%TO.N,/LED_R*%
X170697000Y-88161000D03*
%TO.P,U2,13,PA7*%
%TO.N,/LED_G*%
X170697000Y-87511000D03*
%TO.P,U2,14,PB1*%
%TO.N,/LED_B*%
X170697000Y-86861000D03*
%TO.P,U2,15,VSSA*%
%TO.N,PGND*%
X170697000Y-86211000D03*
%TO.P,U2,16,VDD*%
%TO.N,+3V3*%
X170697000Y-85561000D03*
%TO.P,U2,17,PA9/PA11*%
%TO.N,/CAN_RX*%
X170697000Y-84911000D03*
%TO.P,U2,18,PA10/PA12*%
%TO.N,/CAN_TX*%
X170697000Y-84261000D03*
%TO.P,U2,19,PA13*%
%TO.N,/SWDIO*%
X170697000Y-83611000D03*
%TO.P,U2,20,PA14*%
%TO.N,/SWCLK*%
X170697000Y-82961000D03*
%TD*%
D24*
%TO.P,C7,1*%
%TO.N,/BST_3V3*%
X164218000Y-96506000D03*
%TO.P,C7,2*%
%TO.N,/SW_3V3*%
X164218000Y-94956000D03*
%TD*%
D61*
%TO.P,R19,1*%
%TO.N,/VMON_BAT*%
X157106000Y-96427000D03*
%TO.P,R19,2*%
%TO.N,VDD*%
X157106000Y-98252000D03*
%TD*%
D11*
%TO.P,R11,1*%
%TO.N,/VMON_BAT*%
X163202000Y-87537000D03*
%TO.P,R11,2*%
%TO.N,PGND*%
X161552000Y-87537000D03*
%TD*%
D17*
%TO.P,C19,1*%
%TO.N,VDD*%
X159707000Y-116620000D03*
%TO.P,C19,2*%
%TO.N,PGND*%
X157807000Y-116620000D03*
%TD*%
D11*
%TO.P,R10,1*%
%TO.N,/SMON_BAT*%
X163202000Y-89061000D03*
%TO.P,R10,2*%
%TO.N,PGND*%
X161552000Y-89061000D03*
%TD*%
D17*
%TO.P,C12,1*%
%TO.N,VDD*%
X159679000Y-109762000D03*
%TO.P,C12,2*%
%TO.N,PGND*%
X157779000Y-109762000D03*
%TD*%
D23*
%TO.P,R21,1*%
%TO.N,/AUX_R*%
X148484000Y-78980000D03*
%TO.P,R21,2*%
%TO.N,/AUX*%
X148484000Y-80630000D03*
%TD*%
D18*
%TO.P,R15,1*%
%TO.N,Net-(U4-VDDA)*%
X143029000Y-95025000D03*
%TO.P,R15,2*%
%TO.N,Net-(U4-EXTCOMP)*%
X143029000Y-93375000D03*
%TD*%
D19*
%TO.P,C22,1*%
%TO.N,VDD*%
X164029000Y-121500000D03*
%TO.P,C22,2*%
%TO.N,PGND*%
X169429000Y-121500000D03*
%TD*%
D62*
%TO.P,R20,1,1*%
%TO.N,/LOUT*%
X144959000Y-124835000D03*
D63*
%TO.P,R20,2,2*%
%TO.N,Net-(U4-ISNS+)*%
X145909000Y-122930000D03*
%TO.P,R20,3,3*%
%TO.N,Net-(U4-VOUT)*%
X139049000Y-125470000D03*
D62*
%TO.P,R20,4,4*%
%TO.N,+12V*%
X139999000Y-123565000D03*
%TD*%
D64*
%TO.P,L2,1,1*%
%TO.N,/SW*%
X150229000Y-109450000D03*
%TO.P,L2,2,2*%
%TO.N,/LOUT*%
X150229000Y-120550000D03*
%TD*%
D61*
%TO.P,R18,1*%
%TO.N,/SMON_BAT*%
X157106000Y-92951000D03*
%TO.P,R18,2*%
%TO.N,Net-(BT1-PadT)*%
X157106000Y-94776000D03*
%TD*%
D50*
%TO.P,RN2,1,R1.1*%
%TO.N,/LED_R*%
X156229000Y-131100000D03*
D65*
%TO.P,RN2,2,R2.1*%
%TO.N,/LED_G*%
X155429000Y-131100000D03*
%TO.P,RN2,3,R3.1*%
%TO.N,/LED_B*%
X154629000Y-131100000D03*
D50*
%TO.P,RN2,4,R4.1*%
%TO.N,/PWR_BTN*%
X153829000Y-131100000D03*
%TO.P,RN2,5,R4.2*%
%TO.N,Net-(RN2D-R4.2)*%
X153829000Y-132900000D03*
D65*
%TO.P,RN2,6,R3.2*%
%TO.N,Net-(D3-BK)*%
X154629000Y-132900000D03*
%TO.P,RN2,7,R2.2*%
%TO.N,Net-(D3-GK)*%
X155429000Y-132900000D03*
D50*
%TO.P,RN2,8,R1.2*%
%TO.N,Net-(D3-RK)*%
X156229000Y-132900000D03*
%TD*%
D66*
%TO.P,L1,1,1*%
%TO.N,/SW_3V3*%
X166758000Y-94842000D03*
%TO.P,L1,2,2*%
%TO.N,+3V3*%
X166758000Y-92642000D03*
%TD*%
D17*
%TO.P,C21,1*%
%TO.N,VDD*%
X159707000Y-118906000D03*
%TO.P,C21,2*%
%TO.N,PGND*%
X157807000Y-118906000D03*
%TD*%
D11*
%TO.P,R17,1*%
%TO.N,Net-(U4-FB)*%
X146079000Y-94900000D03*
%TO.P,R17,2*%
%TO.N,Net-(U4-VDDA)*%
X144429000Y-94900000D03*
%TD*%
D25*
%TO.P,Q3,1,S*%
%TO.N,/SW*%
X154009000Y-101670000D03*
%TO.P,Q3,2,S*%
X154009000Y-102940000D03*
%TO.P,Q3,3,S*%
X154009000Y-104220000D03*
%TO.P,Q3,4,G*%
%TO.N,Net-(Q3-G)*%
X154009000Y-105490000D03*
D26*
%TO.P,Q3,5,D*%
%TO.N,VDD*%
X157279000Y-103580000D03*
%TD*%
D17*
%TO.P,C14,1*%
%TO.N,VDD*%
X159679000Y-112048000D03*
%TO.P,C14,2*%
%TO.N,PGND*%
X157779000Y-112048000D03*
%TD*%
D67*
%TO.P,U6,1,GND*%
%TO.N,PGND*%
X157404000Y-120777000D03*
%TO.P,U6,2,GND*%
X157404000Y-121427000D03*
%TO.P,U6,3,GND*%
X157404000Y-122077000D03*
%TO.P,U6,4,IN*%
%TO.N,VDD*%
X159179000Y-122077000D03*
%TO.P,U6,5,IN*%
X159179000Y-121427000D03*
%TO.P,U6,6,IN*%
X159179000Y-120777000D03*
D68*
%TO.P,U6,7,GND*%
%TO.N,PGND*%
X158291500Y-121427000D03*
%TD*%
D69*
%TO.P,BT1,+,+*%
%TO.N,VDD*%
X167729000Y-105075000D03*
%TO.P,BT1,-,-*%
%TO.N,/BT_RAW*%
X128729000Y-105075000D03*
D70*
%TO.P,BT1,M,M*%
%TO.N,PGND*%
X171624000Y-134000000D03*
X168144000Y-77156000D03*
X128314000Y-77156000D03*
X124834000Y-134000000D03*
D69*
%TO.P,BT1,T,T*%
%TO.N,Net-(BT1-PadT)*%
X161229000Y-95075000D03*
%TD*%
D71*
%TO.N,PGND*%
X125729000Y-119000000D03*
D72*
X170644200Y-95639600D03*
X159336000Y-76800000D03*
X139834000Y-101380000D03*
X139834000Y-103285000D03*
X156729000Y-109800000D03*
D71*
X124309000Y-126700000D03*
X125729000Y-122000000D03*
D72*
X156344000Y-113445000D03*
X154439000Y-115350000D03*
X156344000Y-117255000D03*
X161552000Y-88299000D03*
D73*
X149979000Y-97000000D03*
D72*
X171660200Y-96300000D03*
D71*
X128729000Y-122000000D03*
D72*
X148129000Y-112500000D03*
X156344000Y-111540000D03*
X137929000Y-105190000D03*
D71*
X143529000Y-78250000D03*
D73*
X153829000Y-81200000D03*
D71*
X133229000Y-126700000D03*
D72*
X150729000Y-116405000D03*
X136229000Y-105190000D03*
D71*
X131729000Y-125000000D03*
D72*
X139834000Y-107095000D03*
X137924000Y-97700000D03*
X144279000Y-115350000D03*
D71*
X141279000Y-78250000D03*
D72*
X136229000Y-103285000D03*
D73*
X149279000Y-97400000D03*
D71*
X125609000Y-126700000D03*
D72*
X139829000Y-97700000D03*
X154439000Y-117255000D03*
D71*
X131729000Y-119000000D03*
D73*
X149279000Y-96600000D03*
D71*
X131929000Y-126700000D03*
X125729000Y-125000000D03*
D72*
X137929000Y-103285000D03*
D71*
X141279000Y-80500000D03*
D72*
X170644200Y-94420400D03*
X137929000Y-101380000D03*
X144279000Y-111540000D03*
X144279000Y-113445000D03*
X156344000Y-121065000D03*
D71*
X143529000Y-80500000D03*
D72*
X136229000Y-107095000D03*
X171711000Y-99602000D03*
X148129000Y-114405000D03*
X145422012Y-98713000D03*
D71*
X169529000Y-115400000D03*
D72*
X156344000Y-115350000D03*
X141729000Y-97700000D03*
X139829000Y-95900000D03*
D73*
X149279000Y-95000000D03*
D71*
X169429000Y-120100000D03*
D72*
X146184000Y-115350000D03*
X170644200Y-96909600D03*
D73*
X150679000Y-95000000D03*
D72*
X144229000Y-120800000D03*
D73*
X149979000Y-95400000D03*
D72*
X146629000Y-110000000D03*
D73*
X150679000Y-96600000D03*
X125729000Y-92100000D03*
D72*
X146184000Y-113445000D03*
D71*
X169529000Y-117700000D03*
D72*
X157929000Y-83600000D03*
X139829000Y-99500000D03*
D71*
X131729000Y-122000000D03*
D72*
X146184000Y-111540000D03*
D73*
X150679000Y-95800000D03*
D71*
X143529000Y-76000000D03*
D72*
X133729000Y-91632500D03*
X137929000Y-107095000D03*
X136224000Y-99500000D03*
D71*
X130629000Y-126700000D03*
D72*
X136129000Y-95900000D03*
D73*
X150679000Y-97400000D03*
X149979000Y-96200000D03*
X149279000Y-95800000D03*
D72*
X154439000Y-113445000D03*
X154429000Y-121065000D03*
X150029000Y-112500000D03*
X144279000Y-119160000D03*
D71*
X172000000Y-114000000D03*
X128729000Y-125000000D03*
D72*
X136129000Y-97700000D03*
D71*
X172029000Y-121500000D03*
D72*
X154439000Y-119160000D03*
X137924000Y-99500000D03*
D71*
X126909000Y-126700000D03*
X169429000Y-122900000D03*
D72*
X154929000Y-111540000D03*
X144279000Y-117255000D03*
X141729000Y-95900000D03*
D71*
X128729000Y-119000000D03*
D72*
X136229000Y-101380000D03*
X152629000Y-116405000D03*
X137924000Y-95900000D03*
X152629000Y-114500000D03*
X141729000Y-99500000D03*
D71*
X141279000Y-76000000D03*
X160829000Y-133800000D03*
D72*
X156344000Y-119160000D03*
X144829000Y-110000000D03*
X169188132Y-86643846D03*
D73*
%TO.N,Net-(D2-K)*%
X158228992Y-85200000D03*
X160229000Y-88700000D03*
D72*
%TO.N,Net-(Q2-G)*%
X147581000Y-99094000D03*
X140479000Y-105500000D03*
%TO.N,AGND*%
X145295000Y-96681000D03*
D73*
X151645000Y-92871000D03*
X145168000Y-91855000D03*
X145041000Y-93379000D03*
X147479000Y-96450000D03*
X154378258Y-95858258D03*
D72*
%TO.N,Net-(Q3-G)*%
X151264000Y-99982998D03*
X153978992Y-106500000D03*
D73*
%TO.N,Net-(U3-IN-)*%
X132959000Y-78050000D03*
D72*
X135592808Y-88936192D03*
D71*
%TO.N,+12V*%
X136629000Y-113800000D03*
X140029000Y-121900000D03*
X137529000Y-123600000D03*
X136529000Y-110000000D03*
X141729000Y-125400000D03*
X136629000Y-118700000D03*
D72*
%TO.N,VDD*%
X149229000Y-99852996D03*
X159265000Y-104123200D03*
X156217000Y-104123200D03*
X157233000Y-105139200D03*
X158249000Y-103107200D03*
X156217000Y-103107200D03*
D73*
X153929000Y-90500000D03*
D72*
X157233000Y-103107200D03*
X156217000Y-105139200D03*
X157233000Y-102091200D03*
X158249000Y-104123200D03*
D73*
X158829000Y-98400000D03*
D72*
X157233000Y-104123200D03*
X158249000Y-102091200D03*
X159265000Y-102091200D03*
X159265000Y-105139200D03*
X156217000Y-102091200D03*
X158249000Y-105139200D03*
X159265000Y-103107200D03*
D73*
%TO.N,Net-(U3-IN+)*%
X136479000Y-85950016D03*
D72*
X136729000Y-88900000D03*
D71*
%TO.N,/BT_RAW*%
X133229000Y-113240000D03*
X126909000Y-113240000D03*
X124309000Y-113240000D03*
X131929000Y-113240000D03*
X125609000Y-113240000D03*
X130629000Y-113240000D03*
D73*
%TO.N,/EN_12V*%
X166029000Y-88200000D03*
X154129000Y-92490000D03*
%TO.N,/PG_12V*%
X166029000Y-87400000D03*
X156662000Y-89315000D03*
D72*
%TO.N,/SW*%
X146819000Y-104123200D03*
D71*
X148329000Y-107900000D03*
D72*
X143771000Y-103107200D03*
X143771000Y-104123200D03*
X145803000Y-105139200D03*
X146819000Y-105139200D03*
D71*
X152129000Y-107900000D03*
X150229000Y-107900000D03*
D72*
X143771000Y-102091200D03*
X144787000Y-102091200D03*
X146819000Y-103107200D03*
X145803000Y-102091200D03*
X144787000Y-104123200D03*
X145803000Y-104123200D03*
X143771000Y-105139200D03*
X146819000Y-102091200D03*
X144787000Y-103107200D03*
X144787000Y-105139200D03*
X145803000Y-103107200D03*
D71*
%TO.N,/LOUT*%
X152129000Y-122200000D03*
X146929000Y-124900000D03*
X150229000Y-122200000D03*
X144929000Y-126500000D03*
X148329000Y-122200000D03*
X143929000Y-123400000D03*
D73*
%TO.N,+3V3*%
X163929000Y-85561000D03*
D72*
X162829000Y-80425000D03*
X165869000Y-91474000D03*
X161129000Y-83600000D03*
D73*
X165869000Y-98078000D03*
D72*
X167625000Y-91474000D03*
X171711000Y-91474000D03*
X169328997Y-85499997D03*
D73*
X129729000Y-92100000D03*
D72*
X153629000Y-134300000D03*
X164599000Y-98078000D03*
X133729000Y-90125000D03*
X169534000Y-91474000D03*
D73*
%TO.N,/~{RST}*%
X168058000Y-83434519D03*
%TO.N,/SDA*%
X163321000Y-82900000D03*
X166653899Y-83572917D03*
X135104000Y-93600000D03*
%TO.N,/SCL*%
X166055285Y-84182000D03*
X162321000Y-82900000D03*
X133500385Y-93822652D03*
%TO.N,/CAN_TX*%
X157829000Y-80900000D03*
X169128998Y-81200000D03*
%TO.N,/EN_3V3*%
X166829000Y-98100000D03*
X166329000Y-82700006D03*
X159729000Y-85200000D03*
D71*
%TO.N,/+12V_OUT*%
X138229000Y-76250000D03*
X134229000Y-75750000D03*
X138229000Y-80500000D03*
X138229000Y-78250000D03*
D73*
%TO.N,/PWR_BTN*%
X138929000Y-94400000D03*
X144429000Y-129300000D03*
%TO.N,/LED_R*%
X172529000Y-126800000D03*
X172728994Y-89200000D03*
X156229000Y-128500000D03*
%TO.N,/LED_B*%
X154629000Y-129100000D03*
X167429000Y-124500000D03*
X169529000Y-87900000D03*
%TO.N,/LED_G*%
X172629000Y-127600000D03*
X173034711Y-88400000D03*
X155429000Y-129900000D03*
%TO.N,Net-(U4-VOUT)*%
X152661000Y-94776000D03*
X139568306Y-125445414D03*
%TO.N,/AUX*%
X168529000Y-88200000D03*
X148479000Y-79900000D03*
D71*
%TO.N,/+12V_CS*%
X137229000Y-84000000D03*
X137229000Y-87500000D03*
D73*
%TO.N,Net-(JP1-C)*%
X130729000Y-89600000D03*
X136429000Y-91600000D03*
%TO.N,Net-(U4-ISNS+)*%
X145929000Y-122200000D03*
X153458627Y-95160000D03*
%TD*%
D74*
%TO.N,Net-(U4-VDDA)*%
X144529000Y-94900000D02*
X145329000Y-95700000D01*
X143029000Y-95025000D02*
X144404000Y-95025000D01*
X145829000Y-95700000D02*
X146479000Y-96350000D01*
X148184000Y-96955000D02*
X147821303Y-96955000D01*
X147821303Y-96955000D02*
X147676303Y-97100000D01*
X147676303Y-97100000D02*
X146874000Y-97100000D01*
X146874000Y-97100000D02*
X146479000Y-96705000D01*
X145329000Y-95700000D02*
X145829000Y-95700000D01*
X144404000Y-95025000D02*
X144529000Y-94900000D01*
X146479000Y-96350000D02*
X146479000Y-96705000D01*
%TO.N,Net-(U4-VCC)*%
X147821303Y-97455000D02*
X147325303Y-97951000D01*
X146479000Y-98750000D02*
X146479000Y-98545000D01*
X147325303Y-97951000D02*
X147073000Y-97951000D01*
X148184000Y-97455000D02*
X147821303Y-97455000D01*
X146479000Y-98545000D02*
X147073000Y-97951000D01*
D75*
%TO.N,PGND*%
X144579000Y-98750000D02*
X145385012Y-98750000D01*
D76*
X135104000Y-90325000D02*
X135104000Y-91025000D01*
D77*
X150729000Y-93410000D02*
X150729000Y-94900000D01*
D76*
X159515000Y-76621000D02*
X159336000Y-76800000D01*
D77*
X150729000Y-93410000D02*
X150729000Y-93928000D01*
X149232000Y-93955000D02*
X150756000Y-93955000D01*
X150729000Y-94900000D02*
X150629000Y-95000000D01*
X148184000Y-93955000D02*
X149232000Y-93955000D01*
D76*
X161552000Y-89061000D02*
X161552000Y-88299000D01*
X157929500Y-83599500D02*
X157929000Y-83600000D01*
X154729000Y-81500000D02*
X154429000Y-81200000D01*
X153029000Y-81200000D02*
X153829000Y-81200000D01*
D77*
X151774000Y-94455000D02*
X149232000Y-94455000D01*
X149229000Y-93952000D02*
X149232000Y-93955000D01*
D76*
X135104000Y-91025000D02*
X134496500Y-91632500D01*
X159104000Y-81937500D02*
X159104000Y-83235500D01*
X158740000Y-83599500D02*
X157929500Y-83599500D01*
X171989000Y-86211000D02*
X172465000Y-86687000D01*
D77*
X150756000Y-93955000D02*
X151774000Y-93955000D01*
D76*
X154429000Y-81200000D02*
X153829000Y-81200000D01*
X170697000Y-86211000D02*
X171989000Y-86211000D01*
X159104000Y-81937500D02*
X159104000Y-80936576D01*
X159515000Y-75995500D02*
X159515000Y-76621000D01*
D77*
X148774000Y-97955000D02*
X149329000Y-97400000D01*
D76*
X169620978Y-86211000D02*
X170697000Y-86211000D01*
D75*
X144579000Y-98750000D02*
X144579000Y-98512123D01*
D77*
X149232000Y-94903000D02*
X149329000Y-95000000D01*
D76*
X159104000Y-80936576D02*
X158454000Y-80286576D01*
X152929000Y-81300000D02*
X153029000Y-81200000D01*
X169188132Y-86643846D02*
X169620978Y-86211000D01*
X134496500Y-91632500D02*
X133729000Y-91632500D01*
X133729000Y-91632500D02*
X132971500Y-91632500D01*
D77*
X149229000Y-93410000D02*
X149229000Y-93952000D01*
X150729000Y-93928000D02*
X150756000Y-93955000D01*
D76*
X158454000Y-80286576D02*
X158454000Y-79662500D01*
X125729000Y-92100000D02*
X125729000Y-93500000D01*
X152929000Y-81750000D02*
X152929000Y-81300000D01*
X154729000Y-82075000D02*
X154729000Y-81500000D01*
X161552000Y-88299000D02*
X161552000Y-87537000D01*
X159104000Y-83235500D02*
X158740000Y-83599500D01*
X125729000Y-90750000D02*
X125729000Y-92100000D01*
D77*
X149232000Y-93955000D02*
X149232000Y-94903000D01*
D76*
X132971500Y-91632500D02*
X132929000Y-91675000D01*
D75*
X145385012Y-98750000D02*
X145422012Y-98713000D01*
D77*
X148184000Y-97955000D02*
X148774000Y-97955000D01*
D74*
%TO.N,Net-(U4-CBOOT)*%
X151774000Y-97955000D02*
X152824000Y-97955000D01*
X152824000Y-97955000D02*
X153479000Y-97300000D01*
D76*
%TO.N,Net-(D2-K)*%
X160229000Y-89500000D02*
X160229000Y-88700000D01*
X153029000Y-83300000D02*
X153529000Y-83300000D01*
X154729000Y-83725000D02*
X155554000Y-83725000D01*
X164704000Y-90200000D02*
X160929000Y-90200000D01*
X152929000Y-83400000D02*
X153029000Y-83300000D01*
X153529000Y-83300000D02*
X153954000Y-83725000D01*
X156229000Y-85200000D02*
X155629000Y-85200000D01*
X156229000Y-85200000D02*
X157479000Y-85200000D01*
X156229000Y-84400000D02*
X156229000Y-85200000D01*
X155229000Y-85600000D02*
X155229000Y-86875000D01*
X155629000Y-85200000D02*
X155229000Y-85600000D01*
X152929000Y-83850000D02*
X152929000Y-83400000D01*
X160929000Y-90200000D02*
X160229000Y-89500000D01*
X153954000Y-83725000D02*
X154729000Y-83725000D01*
X158228992Y-85200000D02*
X157479000Y-85200000D01*
X155554000Y-83725000D02*
X156229000Y-84400000D01*
D74*
%TO.N,Net-(Q2-G)*%
X147581000Y-98586000D02*
X147581000Y-99094000D01*
X148184000Y-98455000D02*
X147712000Y-98455000D01*
D76*
X140509000Y-105530000D02*
X140479000Y-105500000D01*
X141559000Y-105530000D02*
X140509000Y-105530000D01*
D74*
X147712000Y-98455000D02*
X147581000Y-98586000D01*
D76*
%TO.N,Net-(Q1-C)*%
X153029000Y-84700000D02*
X152679000Y-85050000D01*
X154429000Y-88200000D02*
X154429000Y-85600000D01*
X153529000Y-84700000D02*
X153029000Y-84700000D01*
X154429000Y-85600000D02*
X153529000Y-84700000D01*
X154754000Y-88525000D02*
X154429000Y-88200000D01*
X152679000Y-85050000D02*
X152679000Y-85725000D01*
X155229000Y-88525000D02*
X154754000Y-88525000D01*
%TO.N,Net-(Q1-B)*%
X151729000Y-89225000D02*
X151904000Y-89400000D01*
X151729000Y-87600000D02*
X151729000Y-89225000D01*
X151554000Y-86625000D02*
X151729000Y-86800000D01*
X150129000Y-86625000D02*
X151554000Y-86625000D01*
X151729000Y-86800000D02*
X151729000Y-87600000D01*
D75*
%TO.N,AGND*%
X144579000Y-96705000D02*
X145271000Y-96705000D01*
D74*
X154117563Y-96118953D02*
X152676539Y-96118953D01*
D75*
X145271000Y-96705000D02*
X145295000Y-96681000D01*
D76*
X151579000Y-92805000D02*
X151645000Y-92871000D01*
X151579000Y-92000000D02*
X151579000Y-92805000D01*
D74*
X152676539Y-96118953D02*
X152340492Y-96455000D01*
X152340492Y-96455000D02*
X151774000Y-96455000D01*
X147574000Y-96455000D02*
X147528977Y-96500023D01*
X154378258Y-95858258D02*
X154117563Y-96118953D01*
D76*
X144579000Y-91900000D02*
X145123000Y-91900000D01*
X145020000Y-93400000D02*
X145041000Y-93379000D01*
X144429000Y-93400000D02*
X145020000Y-93400000D01*
X145123000Y-91900000D02*
X145168000Y-91855000D01*
D74*
X148184000Y-96455000D02*
X147574000Y-96455000D01*
D76*
%TO.N,Net-(Q3-G)*%
X154009000Y-105490000D02*
X154009000Y-106469992D01*
X154009000Y-106469992D02*
X153978992Y-106500000D01*
D74*
X150729000Y-99000000D02*
X150729000Y-99448000D01*
X151263998Y-99982998D02*
X151264000Y-99982998D01*
X150729000Y-99448000D02*
X151263998Y-99982998D01*
D76*
%TO.N,Net-(U3-IN-)*%
X135754000Y-90325000D02*
X135754000Y-89097384D01*
X135754000Y-89097384D02*
X135592808Y-88936192D01*
X132959000Y-78325000D02*
X132959000Y-78050000D01*
%TO.N,/SMON_BAT*%
X163907000Y-87222000D02*
X164268000Y-86861000D01*
X156090000Y-91804280D02*
X161137280Y-86757000D01*
X161966720Y-86757000D02*
X162440000Y-87230280D01*
X156271600Y-92951000D02*
X156090000Y-92769400D01*
X162440000Y-87230280D02*
X162440000Y-88299000D01*
X157106000Y-92951000D02*
X156271600Y-92951000D01*
X161137280Y-86757000D02*
X161966720Y-86757000D01*
X163202000Y-89061000D02*
X163907000Y-88356000D01*
X156090000Y-92769400D02*
X156090000Y-92109000D01*
X162440000Y-88299000D02*
X163202000Y-89061000D01*
X156090000Y-92109000D02*
X156090000Y-91804280D01*
X163907000Y-88356000D02*
X163907000Y-87222000D01*
X164268000Y-86861000D02*
X164972000Y-86861000D01*
%TO.N,VDD*%
X153554000Y-90125000D02*
X153929000Y-90500000D01*
X153554000Y-89400000D02*
X153554000Y-90125000D01*
X153629000Y-89325000D02*
X153554000Y-89400000D01*
X153629000Y-87600000D02*
X153629000Y-89325000D01*
D74*
X149229000Y-99000000D02*
X149229000Y-99852996D01*
D76*
%TO.N,Net-(U3-IN+)*%
X136404000Y-89225000D02*
X136729000Y-88900000D01*
X136458984Y-85930000D02*
X136479000Y-85950016D01*
X135499000Y-85930000D02*
X136458984Y-85930000D01*
X136404000Y-90325000D02*
X136404000Y-89225000D01*
X135909000Y-85930000D02*
X135499000Y-85930000D01*
%TO.N,/VMON_BAT*%
X156090000Y-96427000D02*
X155533800Y-95870800D01*
D74*
X164218000Y-86211000D02*
X163202000Y-87227000D01*
D76*
X162165542Y-86277000D02*
X163202000Y-87313458D01*
X163202000Y-87313458D02*
X163202000Y-87537000D01*
X160906000Y-86277000D02*
X162165542Y-86277000D01*
D74*
X164972000Y-86211000D02*
X164218000Y-86211000D01*
D76*
X155533800Y-91649200D02*
X160906000Y-86277000D01*
X155533800Y-95870800D02*
X155533800Y-91649200D01*
D74*
X163202000Y-87227000D02*
X163202000Y-87537000D01*
D76*
X157106000Y-96427000D02*
X156090000Y-96427000D01*
D74*
%TO.N,Net-(U4-CNFG)*%
X147821303Y-94455000D02*
X147404000Y-94037697D01*
X148184000Y-94455000D02*
X147821303Y-94455000D01*
X147404000Y-94037697D02*
X147404000Y-94026186D01*
X146734000Y-92405000D02*
X146229000Y-91900000D01*
X146734000Y-93356186D02*
X146734000Y-92405000D01*
X147404000Y-94026186D02*
X146734000Y-93356186D01*
%TO.N,Net-(U4-EXTCOMP)*%
X147711499Y-95420000D02*
X146644000Y-94352501D01*
X148149000Y-95420000D02*
X147711499Y-95420000D01*
X146644000Y-94352501D02*
X146644000Y-94340990D01*
X146473010Y-94170000D02*
X143824000Y-94170000D01*
X143824000Y-94170000D02*
X143029000Y-93375000D01*
X148184000Y-95455000D02*
X148149000Y-95420000D01*
X146644000Y-94340990D02*
X146473010Y-94170000D01*
D75*
%TO.N,Net-(BT1-PadT)*%
X160930000Y-94776000D02*
X161229000Y-95075000D01*
X157106000Y-94776000D02*
X160930000Y-94776000D01*
D74*
%TO.N,/EN_12V*%
X152543090Y-95715000D02*
X152303090Y-95955000D01*
X153688516Y-95715000D02*
X152543090Y-95715000D01*
D76*
X153229000Y-92000000D02*
X153779000Y-92000000D01*
X154129000Y-92490000D02*
X154129000Y-92350000D01*
D74*
X154129000Y-95274516D02*
X153688516Y-95715000D01*
D76*
X165990000Y-88161000D02*
X166029000Y-88200000D01*
X164972000Y-88161000D02*
X165990000Y-88161000D01*
X154129000Y-95274516D02*
X154129000Y-92490000D01*
X153779000Y-92000000D02*
X154129000Y-92350000D01*
D74*
X152303090Y-95955000D02*
X151774000Y-95955000D01*
%TO.N,/PG_12V*%
X152787894Y-96545000D02*
X154702000Y-96545000D01*
D76*
X164972000Y-87511000D02*
X165918000Y-87511000D01*
D74*
X152377894Y-96955000D02*
X152787894Y-96545000D01*
X151774000Y-96955000D02*
X152377894Y-96955000D01*
D76*
X165918000Y-87511000D02*
X166029000Y-87400000D01*
X154702000Y-96545000D02*
X154997800Y-96249200D01*
X156662000Y-89315000D02*
X156662000Y-86902000D01*
X156662000Y-89632000D02*
X156662000Y-89315000D01*
X154997800Y-96249200D02*
X154997800Y-91296200D01*
X154997800Y-91296200D02*
X156662000Y-89632000D01*
D74*
%TO.N,/SW*%
X151774000Y-98455000D02*
X152734000Y-98455000D01*
X152734000Y-98455000D02*
X153479000Y-99200000D01*
D76*
%TO.N,+3V3*%
X159057962Y-86902000D02*
X160458000Y-85501962D01*
X170697000Y-85561000D02*
X172041000Y-85561000D01*
X159754000Y-81937500D02*
X159754000Y-83063500D01*
X161128500Y-83599500D02*
X161129000Y-83600000D01*
X160404000Y-80286576D02*
X160404000Y-79662500D01*
X159754000Y-83063500D02*
X160290000Y-83599500D01*
X160458000Y-85501962D02*
X160458000Y-84898038D01*
X159754000Y-80936576D02*
X160404000Y-80286576D01*
X162321000Y-80425000D02*
X162829000Y-80425000D01*
X129729000Y-92100000D02*
X129729000Y-93500000D01*
X160290000Y-83599500D02*
X161128500Y-83599500D01*
X159754000Y-81937500D02*
X159754000Y-80936576D01*
X169390000Y-85561000D02*
X169328997Y-85499997D01*
X132929000Y-90125000D02*
X133729000Y-90125000D01*
X133729000Y-90125000D02*
X134254000Y-90125000D01*
X165869000Y-98895000D02*
X165869000Y-98078000D01*
X129729000Y-90750000D02*
X129729000Y-92100000D01*
X163929000Y-85561000D02*
X163735000Y-85561000D01*
X170697000Y-85561000D02*
X169390000Y-85561000D01*
X160290000Y-84730038D02*
X160290000Y-83599500D01*
X172041000Y-85561000D02*
X172465000Y-85137000D01*
X153579000Y-134350000D02*
X153629000Y-134300000D01*
X134254000Y-90125000D02*
X134454000Y-90325000D01*
X164972000Y-85561000D02*
X163929000Y-85561000D01*
X163735000Y-85561000D02*
X163194000Y-86102000D01*
X153579000Y-135390000D02*
X153579000Y-134350000D01*
X160458000Y-84898038D02*
X160290000Y-84730038D01*
X162829000Y-80425000D02*
X163321000Y-80425000D01*
X158312000Y-86902000D02*
X159057962Y-86902000D01*
%TO.N,/CAN+*%
X158865000Y-78636000D02*
X158865000Y-77995500D01*
X158600000Y-75748000D02*
X159448000Y-74900000D01*
X159104000Y-78875000D02*
X158865000Y-78636000D01*
X159104000Y-79662500D02*
X159104000Y-78875000D01*
X159448000Y-74900000D02*
X159448000Y-72678000D01*
X158865000Y-77995500D02*
X158600000Y-77730500D01*
X158600000Y-77730500D02*
X158600000Y-75748000D01*
%TO.N,/CAN-*%
X160651000Y-75078000D02*
X160651000Y-73678000D01*
X160165000Y-78464000D02*
X160165000Y-77995500D01*
X159754000Y-78875000D02*
X160165000Y-78464000D01*
X161651000Y-72678000D02*
X162948000Y-72678000D01*
X159754000Y-79662500D02*
X159754000Y-78875000D01*
X160165000Y-75564000D02*
X160651000Y-75078000D01*
X160651000Y-73678000D02*
X161651000Y-72678000D01*
X160165000Y-77995500D02*
X160165000Y-75564000D01*
%TO.N,/~{RST}*%
X164972000Y-84911000D02*
X163653000Y-84911000D01*
X163653000Y-84911000D02*
X163194000Y-84452000D01*
X166581519Y-84911000D02*
X168058000Y-83434519D01*
X164972000Y-84911000D02*
X166581519Y-84911000D01*
%TO.N,/SWCLK*%
X172229000Y-82500000D02*
X172229000Y-72000000D01*
X172229000Y-72000000D02*
X171729000Y-71500000D01*
X171768000Y-82961000D02*
X172229000Y-82500000D01*
X170697000Y-82961000D02*
X171768000Y-82961000D01*
%TO.N,/SWDIO*%
X170697000Y-83611000D02*
X171796823Y-83611000D01*
X171796823Y-83611000D02*
X172999000Y-82408823D01*
X172999000Y-82408823D02*
X172999000Y-71500000D01*
%TO.N,/SDA*%
X164972000Y-83611000D02*
X164226542Y-83611000D01*
X164226542Y-83611000D02*
X163882542Y-83267000D01*
X163321000Y-82900000D02*
X163321000Y-82225000D01*
X164972000Y-83611000D02*
X165010083Y-83572917D01*
X135104000Y-92600000D02*
X135104000Y-93600000D01*
X163321000Y-83192000D02*
X163321000Y-82900000D01*
X165010083Y-83572917D02*
X166653899Y-83572917D01*
X163882542Y-83267000D02*
X163396000Y-83267000D01*
X163396000Y-83267000D02*
X163321000Y-83192000D01*
%TO.N,/SCL*%
X162676000Y-83747000D02*
X163683720Y-83747000D01*
X162321000Y-82900000D02*
X162321000Y-83392000D01*
X164972000Y-84261000D02*
X165976285Y-84261000D01*
X134454000Y-92600000D02*
X133500385Y-93553615D01*
X162321000Y-82225000D02*
X162321000Y-82900000D01*
X164197720Y-84261000D02*
X164972000Y-84261000D01*
X133500385Y-93553615D02*
X133500385Y-93822652D01*
X165976285Y-84261000D02*
X166055285Y-84182000D01*
X162321000Y-83392000D02*
X162676000Y-83747000D01*
X163683720Y-83747000D02*
X164197720Y-84261000D01*
%TO.N,/CAN_TX*%
X170033972Y-84261000D02*
X169267000Y-83494028D01*
X158229000Y-80900000D02*
X157829000Y-80900000D01*
X158454000Y-81125000D02*
X158229000Y-80900000D01*
X169267000Y-81338002D02*
X169128998Y-81200000D01*
X158454000Y-81937500D02*
X158454000Y-81125000D01*
X170697000Y-84261000D02*
X170033972Y-84261000D01*
X169267000Y-83494028D02*
X169267000Y-81338002D01*
%TO.N,/EN_3V3*%
X166819000Y-98110000D02*
X166829000Y-98100000D01*
X166254000Y-81500000D02*
X166254000Y-82625006D01*
X166254000Y-82625006D02*
X166329000Y-82700006D01*
X159129000Y-85200000D02*
X159729000Y-85200000D01*
X166819000Y-98895000D02*
X166819000Y-98110000D01*
%TO.N,/BST_3V3*%
X164218000Y-96506000D02*
X165755000Y-96506000D01*
X165755000Y-96506000D02*
X165869000Y-96620000D01*
D74*
%TO.N,Net-(U4-RT)*%
X146240412Y-93400000D02*
X146179000Y-93400000D01*
X147024000Y-94183588D02*
X146240412Y-93400000D01*
X147783901Y-94955000D02*
X147024000Y-94195099D01*
X148184000Y-94955000D02*
X147783901Y-94955000D01*
X147024000Y-94195099D02*
X147024000Y-94183588D01*
D76*
%TO.N,/PWR_BTN_SENSE*%
X164972000Y-88811000D02*
X165840000Y-88811000D01*
X166354000Y-89325000D02*
X166354000Y-90200000D01*
X165840000Y-88811000D02*
X166354000Y-89325000D01*
%TO.N,/PWR_BTN*%
X148429000Y-88200000D02*
X148429000Y-86700000D01*
X153129000Y-129300000D02*
X144429000Y-129300000D01*
X150979000Y-82750000D02*
X150979000Y-73750000D01*
X143229000Y-90100000D02*
X146529000Y-90100000D01*
X138929000Y-94400000D02*
X143229000Y-90100000D01*
X146529000Y-90100000D02*
X148429000Y-88200000D01*
X150129000Y-83600000D02*
X150979000Y-82750000D01*
X153829000Y-130000000D02*
X153129000Y-129300000D01*
X153829000Y-131100000D02*
X153829000Y-130000000D01*
X150129000Y-84975000D02*
X150129000Y-83600000D01*
X148429000Y-86700000D02*
X150129000Y-85000000D01*
X150129000Y-85000000D02*
X150129000Y-84975000D01*
%TO.N,/PWR_ENABLE*%
X164129000Y-82834635D02*
X164129000Y-81975000D01*
X164255365Y-82961000D02*
X164129000Y-82834635D01*
X164129000Y-81975000D02*
X164604000Y-81500000D01*
X164972000Y-82961000D02*
X164255365Y-82961000D01*
%TO.N,/LED_R*%
X171689994Y-88161000D02*
X172728994Y-89200000D01*
X170697000Y-88161000D02*
X171689994Y-88161000D01*
X156229000Y-128500000D02*
X156229000Y-131100000D01*
%TO.N,/LED_B*%
X170697000Y-86861000D02*
X169968000Y-86861000D01*
X169529000Y-87300000D02*
X169529000Y-87900000D01*
X169968000Y-86861000D02*
X169929000Y-86900000D01*
X154629000Y-129100000D02*
X154629000Y-131100000D01*
X169929000Y-86900000D02*
X169529000Y-87300000D01*
%TO.N,/LED_G*%
X155429000Y-129900000D02*
X155429000Y-131100000D01*
X170697000Y-87511000D02*
X172145711Y-87511000D01*
X172145711Y-87511000D02*
X173034711Y-88400000D01*
D74*
%TO.N,Net-(U4-FB)*%
X147821303Y-95955000D02*
X147666303Y-95800000D01*
X147666303Y-95800000D02*
X147079000Y-95800000D01*
X147079000Y-95800000D02*
X146179000Y-94900000D01*
X148184000Y-95955000D02*
X147821303Y-95955000D01*
%TO.N,Net-(U4-VOUT)*%
X151774000Y-94955000D02*
X152482000Y-94955000D01*
D76*
X139049000Y-125470000D02*
X139543720Y-125470000D01*
X139543720Y-125470000D02*
X139568306Y-125445414D01*
D74*
X152482000Y-94955000D02*
X152661000Y-94776000D01*
D76*
%TO.N,Net-(D3-RK)*%
X156479000Y-135390000D02*
X156479000Y-134350000D01*
X156479000Y-134350000D02*
X156229000Y-134100000D01*
X156229000Y-134100000D02*
X156229000Y-132900000D01*
%TO.N,Net-(D3-GK)*%
X155419000Y-135170000D02*
X155419000Y-132910000D01*
X155419000Y-132910000D02*
X155429000Y-132900000D01*
%TO.N,Net-(D3-BK)*%
X154639000Y-132910000D02*
X154629000Y-132900000D01*
X154639000Y-135170000D02*
X154639000Y-132910000D01*
%TO.N,Net-(RN2D-R4.2)*%
X150935273Y-132800000D02*
X147241500Y-132800000D01*
X153729000Y-133500000D02*
X151635273Y-133500000D01*
X153829000Y-132900000D02*
X153829000Y-133400000D01*
X151635273Y-133500000D02*
X150935273Y-132800000D01*
X147241500Y-132800000D02*
X146004000Y-134037500D01*
X153829000Y-133400000D02*
X153729000Y-133500000D01*
%TO.N,/AUX*%
X170697000Y-88811000D02*
X169140000Y-88811000D01*
X148479000Y-79900000D02*
X148479000Y-80625000D01*
X148479000Y-80625000D02*
X148484000Y-80630000D01*
X169140000Y-88811000D02*
X168529000Y-88200000D01*
%TO.N,/CAN_RX*%
X160404000Y-81937500D02*
X160404000Y-81082000D01*
X165949000Y-79720000D02*
X168785991Y-82556991D01*
X168785991Y-83737490D02*
X169959501Y-84911000D01*
X160404000Y-81082000D02*
X161766000Y-79720000D01*
X161766000Y-79720000D02*
X165949000Y-79720000D01*
X168785991Y-82556991D02*
X168785991Y-83737490D01*
X169959501Y-84911000D02*
X170697000Y-84911000D01*
%TO.N,Net-(JP1-C)*%
X128029000Y-89600000D02*
X130729000Y-89600000D01*
X127729000Y-90750000D02*
X127729000Y-89900000D01*
X127729000Y-89900000D02*
X128029000Y-89600000D01*
X136404000Y-92600000D02*
X136404000Y-91625000D01*
X136404000Y-91625000D02*
X136429000Y-91600000D01*
D74*
%TO.N,Net-(U4-ISNS+)*%
X152385688Y-95335000D02*
X152265688Y-95455000D01*
X152265688Y-95455000D02*
X151774000Y-95455000D01*
D76*
X145909000Y-122930000D02*
X145909000Y-122220000D01*
D74*
X153458627Y-95160000D02*
X153283627Y-95335000D01*
X153283627Y-95335000D02*
X152385688Y-95335000D01*
D76*
X145909000Y-122220000D02*
X145929000Y-122200000D01*
%TO.N,Net-(JP2-C)*%
X134759600Y-94800000D02*
X128129000Y-94800000D01*
X135754000Y-92600000D02*
X135659000Y-92695000D01*
X127729000Y-94400000D02*
X127729000Y-93500000D01*
X135709000Y-93850600D02*
X134759600Y-94800000D01*
X135709000Y-93349400D02*
X135709000Y-93850600D01*
X135659000Y-92695000D02*
X135659000Y-93299400D01*
X128129000Y-94800000D02*
X127729000Y-94400000D01*
X135659000Y-93299400D02*
X135709000Y-93349400D01*
%TO.N,/AUX_R*%
X148479000Y-74000000D02*
X148484000Y-74005000D01*
X148484000Y-74005000D02*
X148484000Y-78980000D01*
X148479000Y-73750000D02*
X148479000Y-74000000D01*
%TD*%
%TA.AperFunction,Conductor*%
%TO.N,VDD*%
G36*
X159230660Y-97989674D02*
G01*
X159251700Y-98032339D01*
X159253991Y-98049735D01*
X159262729Y-98116114D01*
X159330601Y-98369415D01*
X159330601Y-98369416D01*
X159430955Y-98611694D01*
X159430956Y-98611696D01*
X159560626Y-98836291D01*
X159562076Y-98838803D01*
X159721718Y-99046851D01*
X159907149Y-99232282D01*
X160115197Y-99391924D01*
X160342303Y-99523043D01*
X160584581Y-99623398D01*
X160837884Y-99691270D01*
X161097880Y-99725500D01*
X161097882Y-99725500D01*
X161360118Y-99725500D01*
X161360120Y-99725500D01*
X161620116Y-99691270D01*
X161873419Y-99623398D01*
X162115697Y-99523043D01*
X162342803Y-99391924D01*
X162550851Y-99232282D01*
X162736282Y-99046851D01*
X162895924Y-98838803D01*
X163027043Y-98611697D01*
X163127398Y-98369419D01*
X163195270Y-98116116D01*
X163206299Y-98032339D01*
X163234617Y-97983292D01*
X163279666Y-97968000D01*
X163622916Y-97968000D01*
X163675242Y-97989674D01*
X163696916Y-98042000D01*
X163696511Y-98049729D01*
X163693540Y-98078000D01*
X163711617Y-98250000D01*
X163713327Y-98266261D01*
X163771819Y-98446280D01*
X163866464Y-98610213D01*
X163866467Y-98610216D01*
X163993131Y-98750890D01*
X164146266Y-98862149D01*
X164146271Y-98862152D01*
X164233599Y-98901033D01*
X164319197Y-98939144D01*
X164504354Y-98978500D01*
X164504355Y-98978500D01*
X164693645Y-98978500D01*
X164693646Y-98978500D01*
X164878803Y-98939144D01*
X164964401Y-98901033D01*
X165021019Y-98899550D01*
X165062102Y-98938536D01*
X165068500Y-98968635D01*
X165068500Y-99473193D01*
X165071402Y-99510071D01*
X165117256Y-99667899D01*
X165189618Y-99790256D01*
X165200919Y-99809365D01*
X165317135Y-99925581D01*
X165458602Y-100009244D01*
X165616431Y-100055098D01*
X165653306Y-100058000D01*
X165653307Y-100058000D01*
X166084693Y-100058000D01*
X166084694Y-100058000D01*
X166121569Y-100055098D01*
X166279398Y-100009244D01*
X166306330Y-99993315D01*
X166362401Y-99985334D01*
X166381666Y-99993314D01*
X166408602Y-100009244D01*
X166566431Y-100055098D01*
X166603306Y-100058000D01*
X166603307Y-100058000D01*
X167034693Y-100058000D01*
X167034694Y-100058000D01*
X167071569Y-100055098D01*
X167229398Y-100009244D01*
X167370865Y-99925581D01*
X167487081Y-99809365D01*
X167570744Y-99667898D01*
X167616598Y-99510069D01*
X167619500Y-99473194D01*
X167619500Y-98316806D01*
X167616598Y-98279931D01*
X167616597Y-98279929D01*
X167616301Y-98276161D01*
X167616902Y-98276113D01*
X167616393Y-98261277D01*
X167619375Y-98234814D01*
X167634565Y-98100000D01*
X167628963Y-98050284D01*
X167644642Y-97995862D01*
X167694212Y-97968465D01*
X167702498Y-97968000D01*
X170222934Y-97968000D01*
X170232607Y-97968635D01*
X170264812Y-97972881D01*
X170347723Y-97983813D01*
X170366407Y-97988828D01*
X170398153Y-98002000D01*
X170469129Y-98031449D01*
X170485871Y-98041133D01*
X170574038Y-98108926D01*
X170587701Y-98122622D01*
X170655277Y-98210948D01*
X170664923Y-98227718D01*
X170707296Y-98330540D01*
X170712266Y-98349238D01*
X170727167Y-98464386D01*
X170727779Y-98474062D01*
X170696214Y-111556368D01*
X170695559Y-111566009D01*
X170680198Y-111680735D01*
X170675169Y-111699358D01*
X170632553Y-111801716D01*
X170622882Y-111818404D01*
X170555262Y-111906273D01*
X170541606Y-111919895D01*
X170453580Y-111987299D01*
X170436868Y-111996930D01*
X170334410Y-112039297D01*
X170315777Y-112044282D01*
X170201005Y-112059369D01*
X170191361Y-112060000D01*
X166358838Y-112060000D01*
X166374641Y-114997146D01*
X166431125Y-125495837D01*
X166430545Y-125505490D01*
X166416057Y-125620416D01*
X166411166Y-125639088D01*
X166369296Y-125741828D01*
X166359743Y-125758600D01*
X166292725Y-125847022D01*
X166279160Y-125860752D01*
X166191560Y-125928833D01*
X166174905Y-125938589D01*
X166072674Y-125981702D01*
X166054064Y-125986818D01*
X165939327Y-126002697D01*
X165929680Y-126003394D01*
X164257432Y-126014655D01*
X164257428Y-126014655D01*
X163760800Y-126018000D01*
X163760800Y-126514639D01*
X163760800Y-127324210D01*
X163760173Y-127333820D01*
X163745195Y-127448180D01*
X163740246Y-127466750D01*
X163698177Y-127568900D01*
X163688612Y-127585571D01*
X163621654Y-127673443D01*
X163608120Y-127687086D01*
X163520794Y-127754752D01*
X163504202Y-127764452D01*
X163402394Y-127807348D01*
X163383865Y-127812447D01*
X163348368Y-127817388D01*
X163269619Y-127828350D01*
X163260041Y-127829053D01*
X157995914Y-127871678D01*
X157986211Y-127871118D01*
X157905902Y-127861151D01*
X157870570Y-127856766D01*
X157851781Y-127851867D01*
X157748410Y-127809783D01*
X157731542Y-127800165D01*
X157642678Y-127732641D01*
X157628893Y-127718967D01*
X157560652Y-127630653D01*
X157550899Y-127613864D01*
X157507977Y-127510833D01*
X157502927Y-127492089D01*
X157487640Y-127376571D01*
X157487000Y-127366863D01*
X157487000Y-127179205D01*
X159789001Y-127179205D01*
X159791850Y-127209602D01*
X159791852Y-127209611D01*
X159836652Y-127337643D01*
X159917207Y-127446791D01*
X159917208Y-127446792D01*
X160026356Y-127527347D01*
X160026355Y-127527347D01*
X160154385Y-127572146D01*
X160154393Y-127572148D01*
X160184803Y-127574999D01*
X160289000Y-127574999D01*
X161289000Y-127574999D01*
X161393194Y-127574999D01*
X161393205Y-127574998D01*
X161423602Y-127572149D01*
X161423611Y-127572147D01*
X161551643Y-127527347D01*
X161660791Y-127446792D01*
X161660792Y-127446791D01*
X161741347Y-127337643D01*
X161786146Y-127209614D01*
X161786148Y-127209606D01*
X161788999Y-127179198D01*
X161789000Y-127179197D01*
X161789000Y-126125000D01*
X161289000Y-126125000D01*
X161289000Y-127574999D01*
X160289000Y-127574999D01*
X160289000Y-126125000D01*
X159789001Y-126125000D01*
X159789001Y-127179205D01*
X157487000Y-127179205D01*
X157487000Y-124070801D01*
X159789000Y-124070801D01*
X159789000Y-125125000D01*
X160289000Y-125125000D01*
X161289000Y-125125000D01*
X161788999Y-125125000D01*
X161788999Y-124070806D01*
X161788998Y-124070794D01*
X161786149Y-124040397D01*
X161786147Y-124040388D01*
X161741347Y-123912356D01*
X161660792Y-123803208D01*
X161660791Y-123803207D01*
X161551643Y-123722652D01*
X161551644Y-123722652D01*
X161423614Y-123677853D01*
X161423606Y-123677851D01*
X161393198Y-123675000D01*
X161289000Y-123675000D01*
X161289000Y-125125000D01*
X160289000Y-125125000D01*
X160289000Y-123675000D01*
X160184806Y-123675000D01*
X160184793Y-123675001D01*
X160154397Y-123677850D01*
X160154388Y-123677852D01*
X160026356Y-123722652D01*
X159917208Y-123803207D01*
X159917207Y-123803208D01*
X159836652Y-123912356D01*
X159791853Y-124040385D01*
X159791851Y-124040393D01*
X159789000Y-124070801D01*
X157487000Y-124070801D01*
X157487000Y-123474850D01*
X157487633Y-123465191D01*
X157502766Y-123350244D01*
X157507763Y-123331593D01*
X157550260Y-123228996D01*
X157559914Y-123212274D01*
X157627520Y-123124170D01*
X157641170Y-123110520D01*
X157729274Y-123042914D01*
X157745996Y-123033260D01*
X157848593Y-122990763D01*
X157867244Y-122985766D01*
X157982192Y-122970633D01*
X157991851Y-122970000D01*
X158616468Y-122970000D01*
X158616473Y-122970000D01*
X159112600Y-122970000D01*
X159115400Y-122609732D01*
X159149046Y-122584546D01*
X159235296Y-122469331D01*
X159235295Y-122469331D01*
X159238468Y-122465094D01*
X159240434Y-122466566D01*
X159278043Y-122436246D01*
X159334357Y-122442288D01*
X159339307Y-122445245D01*
X159366500Y-122462964D01*
X159441634Y-122429790D01*
X159519290Y-122352134D01*
X159557985Y-122264500D01*
X159366000Y-122264500D01*
X159313674Y-122242826D01*
X159292000Y-122190500D01*
X159292000Y-122104205D01*
X162079001Y-122104205D01*
X162081850Y-122134602D01*
X162081852Y-122134611D01*
X162126652Y-122262643D01*
X162207207Y-122371791D01*
X162207208Y-122371792D01*
X162316356Y-122452347D01*
X162316355Y-122452347D01*
X162444385Y-122497146D01*
X162444393Y-122497148D01*
X162474802Y-122499999D01*
X163529000Y-122499999D01*
X164529000Y-122499999D01*
X165583194Y-122499999D01*
X165583205Y-122499998D01*
X165613602Y-122497149D01*
X165613611Y-122497147D01*
X165741643Y-122452347D01*
X165850791Y-122371792D01*
X165850792Y-122371791D01*
X165931347Y-122262643D01*
X165976146Y-122134614D01*
X165976148Y-122134606D01*
X165978999Y-122104198D01*
X165979000Y-122104197D01*
X165979000Y-122000000D01*
X164529000Y-122000000D01*
X164529000Y-122499999D01*
X163529000Y-122499999D01*
X163529000Y-122000000D01*
X162079001Y-122000000D01*
X162079001Y-122104205D01*
X159292000Y-122104205D01*
X159292000Y-121963500D01*
X159313674Y-121911174D01*
X159366000Y-121889500D01*
X159557985Y-121889500D01*
X159519289Y-121801862D01*
X159515416Y-121796208D01*
X159517731Y-121794621D01*
X159500077Y-121752000D01*
X159517731Y-121709378D01*
X159515416Y-121707792D01*
X159519289Y-121702137D01*
X159557985Y-121614500D01*
X159366000Y-121614500D01*
X159313674Y-121592826D01*
X159292000Y-121540500D01*
X159291999Y-121313500D01*
X159313673Y-121261174D01*
X159365999Y-121239500D01*
X159557985Y-121239500D01*
X159519289Y-121151862D01*
X159515416Y-121146208D01*
X159517731Y-121144621D01*
X159500077Y-121102000D01*
X159517731Y-121059378D01*
X159515416Y-121057792D01*
X159519289Y-121052137D01*
X159557985Y-120964500D01*
X159365999Y-120964500D01*
X159313673Y-120942826D01*
X159294195Y-120895801D01*
X162079000Y-120895801D01*
X162079000Y-121000000D01*
X163529000Y-121000000D01*
X164529000Y-121000000D01*
X165978999Y-121000000D01*
X165978999Y-120895806D01*
X165978998Y-120895794D01*
X165976149Y-120865397D01*
X165976147Y-120865388D01*
X165931347Y-120737356D01*
X165850792Y-120628208D01*
X165850791Y-120628207D01*
X165741643Y-120547652D01*
X165741644Y-120547652D01*
X165613614Y-120502853D01*
X165613606Y-120502851D01*
X165583198Y-120500000D01*
X164529000Y-120500000D01*
X164529000Y-121000000D01*
X163529000Y-121000000D01*
X163529000Y-120500000D01*
X162474806Y-120500000D01*
X162474793Y-120500001D01*
X162444397Y-120502850D01*
X162444388Y-120502852D01*
X162316356Y-120547652D01*
X162207208Y-120628207D01*
X162207207Y-120628208D01*
X162126652Y-120737356D01*
X162081853Y-120865385D01*
X162081851Y-120865393D01*
X162079000Y-120895801D01*
X159294195Y-120895801D01*
X159291999Y-120890500D01*
X159291999Y-120663500D01*
X159313673Y-120611174D01*
X159365999Y-120589500D01*
X159557985Y-120589500D01*
X159519290Y-120501865D01*
X159441634Y-120424209D01*
X159366499Y-120391033D01*
X159339304Y-120408754D01*
X159283631Y-120419160D01*
X159238945Y-120388549D01*
X159238469Y-120388906D01*
X159237419Y-120387503D01*
X159236906Y-120387152D01*
X159235918Y-120385498D01*
X159148709Y-120269004D01*
X159133951Y-120224085D01*
X159136869Y-119848768D01*
X159158948Y-119796616D01*
X159211441Y-119775349D01*
X159238857Y-119782261D01*
X159239119Y-119781515D01*
X159372385Y-119828146D01*
X159372393Y-119828148D01*
X159402802Y-119830999D01*
X159957000Y-119830999D01*
X160011194Y-119830999D01*
X160011205Y-119830998D01*
X160041602Y-119828149D01*
X160041611Y-119828147D01*
X160169643Y-119783347D01*
X160278791Y-119702792D01*
X160278792Y-119702791D01*
X160359347Y-119593643D01*
X160404146Y-119465614D01*
X160404148Y-119465606D01*
X160406999Y-119435198D01*
X160407000Y-119435197D01*
X160407000Y-119156000D01*
X159957000Y-119156000D01*
X159957000Y-119830999D01*
X159402802Y-119830999D01*
X159456999Y-119830998D01*
X159457000Y-119830998D01*
X159457000Y-118656000D01*
X159957000Y-118656000D01*
X160406999Y-118656000D01*
X160406999Y-118376806D01*
X160406998Y-118376794D01*
X160404149Y-118346397D01*
X160404147Y-118346388D01*
X160359347Y-118218356D01*
X160278792Y-118109208D01*
X160278791Y-118109207D01*
X160169643Y-118028652D01*
X160169644Y-118028652D01*
X160041614Y-117983853D01*
X160041606Y-117983851D01*
X160011198Y-117981000D01*
X159957000Y-117981000D01*
X159957000Y-118656000D01*
X159457000Y-118656000D01*
X159457000Y-117981000D01*
X159456999Y-117980999D01*
X159402807Y-117981000D01*
X159402793Y-117981001D01*
X159372397Y-117983850D01*
X159372395Y-117983850D01*
X159250022Y-118026670D01*
X159193474Y-118023493D01*
X159155734Y-117981262D01*
X159151584Y-117956250D01*
X159172241Y-115299623D01*
X159194321Y-115247471D01*
X159246813Y-115226204D01*
X159270679Y-115230355D01*
X159344388Y-115256147D01*
X159344393Y-115256148D01*
X159374802Y-115258999D01*
X159929000Y-115258999D01*
X159983194Y-115258999D01*
X159983205Y-115258998D01*
X160013602Y-115256149D01*
X160013611Y-115256147D01*
X160141643Y-115211347D01*
X160250791Y-115130792D01*
X160250792Y-115130791D01*
X160331347Y-115021643D01*
X160376146Y-114893614D01*
X160376148Y-114893606D01*
X160378999Y-114863198D01*
X160379000Y-114863197D01*
X160379000Y-114604205D01*
X161979001Y-114604205D01*
X161981850Y-114634602D01*
X161981852Y-114634611D01*
X162026652Y-114762643D01*
X162107207Y-114871791D01*
X162107208Y-114871792D01*
X162216356Y-114952347D01*
X162216355Y-114952347D01*
X162344385Y-114997146D01*
X162344393Y-114997148D01*
X162374802Y-114999999D01*
X163429000Y-114999999D01*
X164429000Y-114999999D01*
X165483194Y-114999999D01*
X165483205Y-114999998D01*
X165513602Y-114997149D01*
X165513611Y-114997147D01*
X165641643Y-114952347D01*
X165750791Y-114871792D01*
X165750792Y-114871791D01*
X165831347Y-114762643D01*
X165876146Y-114634614D01*
X165876148Y-114634606D01*
X165878999Y-114604198D01*
X165879000Y-114604197D01*
X165879000Y-114500000D01*
X164429000Y-114500000D01*
X164429000Y-114999999D01*
X163429000Y-114999999D01*
X163429000Y-114500000D01*
X161979001Y-114500000D01*
X161979001Y-114604205D01*
X160379000Y-114604205D01*
X160379000Y-114584000D01*
X159929000Y-114584000D01*
X159929000Y-115258999D01*
X159374802Y-115258999D01*
X159428999Y-115258998D01*
X159429000Y-115258998D01*
X159429000Y-114084000D01*
X159929000Y-114084000D01*
X160378999Y-114084000D01*
X160378999Y-113804806D01*
X160378998Y-113804794D01*
X160376149Y-113774397D01*
X160376147Y-113774388D01*
X160331347Y-113646356D01*
X160250792Y-113537208D01*
X160250791Y-113537207D01*
X160141643Y-113456652D01*
X160141644Y-113456652D01*
X160013614Y-113411853D01*
X160013606Y-113411851D01*
X159983198Y-113409000D01*
X159929000Y-113409000D01*
X159929000Y-114084000D01*
X159429000Y-114084000D01*
X159429000Y-113409000D01*
X159428999Y-113408999D01*
X159374807Y-113409000D01*
X159374793Y-113409001D01*
X159344397Y-113411850D01*
X159344395Y-113411850D01*
X159285745Y-113432373D01*
X159229197Y-113429196D01*
X159199353Y-113395801D01*
X161979000Y-113395801D01*
X161979000Y-113500000D01*
X163429000Y-113500000D01*
X164429000Y-113500000D01*
X165878999Y-113500000D01*
X165878999Y-113395806D01*
X165878998Y-113395794D01*
X165876149Y-113365397D01*
X165876147Y-113365388D01*
X165831347Y-113237356D01*
X165750792Y-113128208D01*
X165750791Y-113128207D01*
X165641643Y-113047652D01*
X165641644Y-113047652D01*
X165513614Y-113002853D01*
X165513606Y-113002851D01*
X165483198Y-113000000D01*
X164429000Y-113000000D01*
X164429000Y-113500000D01*
X163429000Y-113500000D01*
X163429000Y-113000000D01*
X162374806Y-113000000D01*
X162374793Y-113000001D01*
X162344397Y-113002850D01*
X162344388Y-113002852D01*
X162216356Y-113047652D01*
X162107208Y-113128207D01*
X162107207Y-113128208D01*
X162026652Y-113237356D01*
X161981853Y-113365385D01*
X161981851Y-113365393D01*
X161979000Y-113395801D01*
X159199353Y-113395801D01*
X159191457Y-113386965D01*
X159187307Y-113361955D01*
X159207694Y-110740031D01*
X159229775Y-110687877D01*
X159282267Y-110666610D01*
X159306133Y-110670761D01*
X159344388Y-110684147D01*
X159344393Y-110684148D01*
X159374802Y-110686999D01*
X159929000Y-110686999D01*
X159983194Y-110686999D01*
X159983205Y-110686998D01*
X160013602Y-110684149D01*
X160013611Y-110684147D01*
X160141643Y-110639347D01*
X160250791Y-110558792D01*
X160250792Y-110558791D01*
X160331347Y-110449643D01*
X160376146Y-110321614D01*
X160376148Y-110321606D01*
X160378999Y-110291198D01*
X160379000Y-110291197D01*
X160379000Y-110012000D01*
X159929000Y-110012000D01*
X159929000Y-110686999D01*
X159374802Y-110686999D01*
X159428999Y-110686998D01*
X159429000Y-110686998D01*
X159429000Y-109512000D01*
X159929000Y-109512000D01*
X160378999Y-109512000D01*
X160378999Y-109232806D01*
X160378998Y-109232794D01*
X160376149Y-109202397D01*
X160376147Y-109202388D01*
X160331347Y-109074356D01*
X160250792Y-108965208D01*
X160250791Y-108965207D01*
X160141643Y-108884652D01*
X160141644Y-108884652D01*
X160013614Y-108839853D01*
X160013606Y-108839851D01*
X159983198Y-108837000D01*
X159929000Y-108837000D01*
X159929000Y-109512000D01*
X159429000Y-109512000D01*
X159429000Y-108837000D01*
X159428999Y-108836999D01*
X159374807Y-108837000D01*
X159374793Y-108837001D01*
X159344397Y-108839850D01*
X159344389Y-108839852D01*
X159321390Y-108847899D01*
X159264842Y-108844721D01*
X159227104Y-108802489D01*
X159222954Y-108777479D01*
X159229000Y-108000000D01*
X158725097Y-108000000D01*
X158725094Y-108000000D01*
X156233851Y-108000000D01*
X156224192Y-107999367D01*
X156109248Y-107984234D01*
X156090588Y-107979234D01*
X155988001Y-107936741D01*
X155971271Y-107927082D01*
X155883175Y-107859483D01*
X155869516Y-107845824D01*
X155801917Y-107757728D01*
X155792258Y-107740998D01*
X155749765Y-107638411D01*
X155744765Y-107619751D01*
X155729633Y-107504808D01*
X155729000Y-107495149D01*
X155729000Y-98568705D01*
X156206001Y-98568705D01*
X156208850Y-98599102D01*
X156208852Y-98599111D01*
X156253652Y-98727143D01*
X156334207Y-98836291D01*
X156334208Y-98836292D01*
X156443356Y-98916847D01*
X156443355Y-98916847D01*
X156571385Y-98961646D01*
X156571393Y-98961648D01*
X156601802Y-98964499D01*
X156856000Y-98964499D01*
X157356000Y-98964499D01*
X157610194Y-98964499D01*
X157610205Y-98964498D01*
X157640602Y-98961649D01*
X157640611Y-98961647D01*
X157768643Y-98916847D01*
X157877791Y-98836292D01*
X157877792Y-98836291D01*
X157958347Y-98727143D01*
X158003146Y-98599114D01*
X158003148Y-98599106D01*
X158005999Y-98568698D01*
X158006000Y-98568697D01*
X158006000Y-98502000D01*
X157356000Y-98502000D01*
X157356000Y-98964499D01*
X156856000Y-98964499D01*
X156856000Y-98502000D01*
X156206001Y-98502000D01*
X156206001Y-98568705D01*
X155729000Y-98568705D01*
X155729000Y-98472850D01*
X155729633Y-98463191D01*
X155731859Y-98446280D01*
X155744766Y-98348244D01*
X155749763Y-98329593D01*
X155792260Y-98226996D01*
X155801914Y-98210274D01*
X155869520Y-98122170D01*
X155883170Y-98108520D01*
X155971274Y-98040914D01*
X155987996Y-98031260D01*
X156090593Y-97988763D01*
X156109244Y-97983766D01*
X156142451Y-97979394D01*
X156197158Y-97994053D01*
X156204435Y-98000435D01*
X156206000Y-98002000D01*
X158005999Y-98002000D01*
X158018325Y-97989674D01*
X158070651Y-97968000D01*
X159178334Y-97968000D01*
X159230660Y-97989674D01*
G37*
%TD.AperFunction*%
%TD*%
%TA.AperFunction,Conductor*%
%TO.N,/SW_3V3*%
G36*
X167971039Y-94414685D02*
G01*
X168016794Y-94467489D01*
X168028000Y-94519000D01*
X168028000Y-95483000D01*
X168008315Y-95550039D01*
X167955511Y-95595794D01*
X167904000Y-95607000D01*
X167571130Y-95607000D01*
X167571123Y-95607001D01*
X167511516Y-95613408D01*
X167394155Y-95657182D01*
X167350822Y-95665000D01*
X167139000Y-95665000D01*
X167139000Y-95939864D01*
X167131182Y-95983196D01*
X167124909Y-96000014D01*
X167124908Y-96000016D01*
X167118501Y-96059616D01*
X167118501Y-96059623D01*
X167118500Y-96059635D01*
X167118501Y-96938000D01*
X167098817Y-97005039D01*
X167046013Y-97050794D01*
X166994501Y-97062000D01*
X166643500Y-97062000D01*
X166576461Y-97042315D01*
X166530706Y-96989511D01*
X166519500Y-96938000D01*
X166519499Y-96059629D01*
X166519498Y-96059623D01*
X166519497Y-96059616D01*
X166513091Y-96000017D01*
X166511818Y-95996603D01*
X166504000Y-95953271D01*
X166504000Y-95665000D01*
X166287178Y-95665000D01*
X166243845Y-95657182D01*
X166126486Y-95613410D01*
X166126485Y-95613409D01*
X166126483Y-95613409D01*
X166066873Y-95607000D01*
X166066863Y-95607000D01*
X165671129Y-95607000D01*
X165671123Y-95607001D01*
X165611516Y-95613408D01*
X165494155Y-95657182D01*
X165450822Y-95665000D01*
X164088000Y-95665000D01*
X164020961Y-95645315D01*
X163975206Y-95592511D01*
X163964000Y-95541000D01*
X163964000Y-94519000D01*
X163983685Y-94451961D01*
X164036489Y-94406206D01*
X164088000Y-94395000D01*
X167904000Y-94395000D01*
X167971039Y-94414685D01*
G37*
%TD.AperFunction*%
%TD*%
%TA.AperFunction,Conductor*%
%TO.N,+3V3*%
G36*
X165749340Y-90857907D02*
G01*
X165760973Y-90867842D01*
X165761077Y-90867921D01*
X165761078Y-90867922D01*
X165881658Y-90959361D01*
X165881659Y-90959361D01*
X165881660Y-90959362D01*
X165895473Y-90964809D01*
X166022436Y-91014877D01*
X166110898Y-91025500D01*
X166110900Y-91025500D01*
X166597100Y-91025500D01*
X166597102Y-91025500D01*
X166685564Y-91014877D01*
X166826342Y-90959361D01*
X166946922Y-90867922D01*
X166946922Y-90867921D01*
X166952318Y-90863830D01*
X166953071Y-90864824D01*
X167001364Y-90840219D01*
X167016851Y-90839000D01*
X172374000Y-90839000D01*
X172432191Y-90857907D01*
X172468155Y-90907407D01*
X172473000Y-90938000D01*
X172473000Y-93585431D01*
X172454093Y-93643622D01*
X172404593Y-93679586D01*
X172374974Y-93684426D01*
X170873247Y-93699195D01*
X170839578Y-93693645D01*
X170812261Y-93684087D01*
X170812257Y-93684086D01*
X170644204Y-93665151D01*
X170644196Y-93665151D01*
X170476142Y-93684086D01*
X170476138Y-93684087D01*
X170435629Y-93698261D01*
X170403908Y-93703811D01*
X168523094Y-93722309D01*
X168499849Y-93723298D01*
X168486993Y-93724267D01*
X168469732Y-93725993D01*
X168433966Y-93736641D01*
X168405720Y-93740756D01*
X165333000Y-93740756D01*
X165274809Y-93721849D01*
X165238845Y-93672349D01*
X165234000Y-93641756D01*
X165234000Y-90964809D01*
X165252907Y-90906618D01*
X165273179Y-90885926D01*
X165296922Y-90867922D01*
X165296922Y-90867921D01*
X165302318Y-90863830D01*
X165303071Y-90864824D01*
X165351364Y-90840219D01*
X165366851Y-90839000D01*
X165691149Y-90839000D01*
X165749340Y-90857907D01*
G37*
%TD.AperFunction*%
%TD*%
%TA.AperFunction,Conductor*%
%TO.N,/SW*%
G36*
X154807326Y-98321674D02*
G01*
X154829000Y-98374000D01*
X154829000Y-104648356D01*
X154807326Y-104700682D01*
X154755000Y-104722356D01*
X154716718Y-104711684D01*
X154688269Y-104694487D01*
X154531661Y-104645686D01*
X154531658Y-104645685D01*
X154531657Y-104645685D01*
X154531655Y-104645684D01*
X154531651Y-104645684D01*
X154463601Y-104639500D01*
X154463594Y-104639500D01*
X153554406Y-104639500D01*
X153554398Y-104639500D01*
X153486348Y-104645684D01*
X153486338Y-104645686D01*
X153329732Y-104694486D01*
X153189346Y-104779352D01*
X153073352Y-104895346D01*
X152988486Y-105035732D01*
X152939686Y-105192338D01*
X152939684Y-105192348D01*
X152933500Y-105260398D01*
X152933500Y-105576000D01*
X152911826Y-105628326D01*
X152859500Y-105650000D01*
X152729000Y-105650000D01*
X152729000Y-110926000D01*
X152707326Y-110978326D01*
X152655000Y-111000000D01*
X147803000Y-111000000D01*
X147750674Y-110978326D01*
X147729000Y-110926000D01*
X147729000Y-106000000D01*
X143253000Y-106000000D01*
X143200674Y-105978326D01*
X143179000Y-105926000D01*
X143179000Y-101074000D01*
X143200674Y-101021674D01*
X143253000Y-101000000D01*
X152479000Y-101000000D01*
X152479000Y-99721338D01*
X152500674Y-99669012D01*
X152553000Y-99647338D01*
X152605326Y-99669012D01*
X152612540Y-99677395D01*
X152682207Y-99771791D01*
X152682208Y-99771792D01*
X152791356Y-99852347D01*
X152791355Y-99852347D01*
X152919385Y-99897146D01*
X152919393Y-99897148D01*
X152949802Y-99899999D01*
X153229000Y-99899999D01*
X153729000Y-99899999D01*
X154008194Y-99899999D01*
X154008205Y-99899998D01*
X154038602Y-99897149D01*
X154038611Y-99897147D01*
X154166643Y-99852347D01*
X154275791Y-99771792D01*
X154275792Y-99771791D01*
X154356347Y-99662643D01*
X154401146Y-99534614D01*
X154401148Y-99534606D01*
X154403999Y-99504198D01*
X154404000Y-99504197D01*
X154404000Y-99450000D01*
X153729000Y-99450000D01*
X153729000Y-99899999D01*
X153229000Y-99899999D01*
X153229000Y-98950000D01*
X153729000Y-98950000D01*
X154403999Y-98950000D01*
X154403999Y-98895806D01*
X154403998Y-98895794D01*
X154401149Y-98865397D01*
X154401147Y-98865388D01*
X154356347Y-98737356D01*
X154275792Y-98628208D01*
X154275791Y-98628207D01*
X154166643Y-98547652D01*
X154166644Y-98547652D01*
X154038614Y-98502853D01*
X154038606Y-98502851D01*
X154008198Y-98500000D01*
X153729000Y-98500000D01*
X153729000Y-98950000D01*
X153229000Y-98950000D01*
X153229000Y-98472251D01*
X153226947Y-98467295D01*
X153248620Y-98414970D01*
X153309858Y-98353733D01*
X153309859Y-98353731D01*
X153314070Y-98349520D01*
X153314076Y-98349513D01*
X153341417Y-98322172D01*
X153393742Y-98300499D01*
X154004001Y-98300499D01*
X154004008Y-98300499D01*
X154004644Y-98300434D01*
X154005145Y-98300383D01*
X154012661Y-98300000D01*
X154755000Y-98300000D01*
X154807326Y-98321674D01*
G37*
%TD.AperFunction*%
%TD*%
%TA.AperFunction,Conductor*%
%TO.N,PGND*%
G36*
X174186900Y-94041032D02*
G01*
X174223349Y-94090176D01*
X174228500Y-94121693D01*
X174228500Y-136400500D01*
X174209593Y-136458691D01*
X174160093Y-136494655D01*
X174129500Y-136499500D01*
X166904376Y-136499500D01*
X166846185Y-136480593D01*
X166810221Y-136431093D01*
X166810221Y-136369907D01*
X166846185Y-136320407D01*
X166868609Y-136308186D01*
X167041401Y-136241247D01*
X167230562Y-136124124D01*
X167394981Y-135974236D01*
X167529058Y-135796689D01*
X167628229Y-135597528D01*
X167689115Y-135383536D01*
X167709643Y-135162000D01*
X167689115Y-134940464D01*
X167628229Y-134726472D01*
X167529058Y-134527311D01*
X167394981Y-134349764D01*
X167230562Y-134199876D01*
X167041401Y-134082753D01*
X166833940Y-134002382D01*
X166833939Y-134002381D01*
X166833937Y-134002381D01*
X166764033Y-133989314D01*
X166710307Y-133960036D01*
X166684051Y-133904771D01*
X166695294Y-133844627D01*
X166739741Y-133802578D01*
X166764033Y-133794686D01*
X166833940Y-133781618D01*
X167041401Y-133701247D01*
X167230562Y-133584124D01*
X167394981Y-133434236D01*
X167529058Y-133256689D01*
X167628229Y-133057528D01*
X167689115Y-132843536D01*
X167709643Y-132622000D01*
X167689115Y-132400464D01*
X167628229Y-132186472D01*
X167529058Y-131987311D01*
X167394981Y-131809764D01*
X167230562Y-131659876D01*
X167041401Y-131542753D01*
X166833940Y-131462382D01*
X166833939Y-131462381D01*
X166833937Y-131462381D01*
X166764033Y-131449314D01*
X166710307Y-131420036D01*
X166684051Y-131364771D01*
X166695294Y-131304627D01*
X166739741Y-131262578D01*
X166764033Y-131254686D01*
X166833940Y-131241618D01*
X167041401Y-131161247D01*
X167230562Y-131044124D01*
X167394981Y-130894236D01*
X167529058Y-130716689D01*
X167628229Y-130517528D01*
X167689115Y-130303536D01*
X167709643Y-130082000D01*
X167689115Y-129860464D01*
X167628229Y-129646472D01*
X167529058Y-129447311D01*
X167394981Y-129269764D01*
X167230562Y-129119876D01*
X167041401Y-129002753D01*
X166833940Y-128922382D01*
X166833939Y-128922381D01*
X166833937Y-128922381D01*
X166615243Y-128881500D01*
X166392757Y-128881500D01*
X166174062Y-128922381D01*
X166165916Y-128925537D01*
X165966599Y-129002753D01*
X165777438Y-129119876D01*
X165635248Y-129249500D01*
X165613019Y-129269764D01*
X165583074Y-129309418D01*
X165478943Y-129447309D01*
X165478938Y-129447318D01*
X165382795Y-129640399D01*
X165379771Y-129646472D01*
X165318885Y-129860464D01*
X165298357Y-130082000D01*
X165318885Y-130303536D01*
X165379771Y-130517528D01*
X165478942Y-130716689D01*
X165613019Y-130894236D01*
X165777438Y-131044124D01*
X165966599Y-131161247D01*
X166174060Y-131241618D01*
X166243967Y-131254686D01*
X166297692Y-131283964D01*
X166323948Y-131339229D01*
X166312705Y-131399373D01*
X166268258Y-131441422D01*
X166243967Y-131449314D01*
X166174061Y-131462381D01*
X166046971Y-131511616D01*
X165966599Y-131542753D01*
X165871892Y-131601393D01*
X165777438Y-131659876D01*
X165613020Y-131809763D01*
X165478943Y-131987309D01*
X165478938Y-131987318D01*
X165379772Y-132186469D01*
X165379771Y-132186472D01*
X165318885Y-132400464D01*
X165298357Y-132622000D01*
X165318885Y-132843536D01*
X165379771Y-133057528D01*
X165478942Y-133256689D01*
X165613019Y-133434236D01*
X165777438Y-133584124D01*
X165966599Y-133701247D01*
X166174060Y-133781618D01*
X166243967Y-133794686D01*
X166297692Y-133823964D01*
X166323948Y-133879229D01*
X166312705Y-133939373D01*
X166268258Y-133981422D01*
X166243967Y-133989314D01*
X166174061Y-134002381D01*
X166046971Y-134051616D01*
X165966599Y-134082753D01*
X165777438Y-134199876D01*
X165613020Y-134349763D01*
X165478943Y-134527309D01*
X165478938Y-134527318D01*
X165379772Y-134726469D01*
X165379771Y-134726472D01*
X165318885Y-134940464D01*
X165298357Y-135162000D01*
X165318885Y-135383536D01*
X165379771Y-135597528D01*
X165478942Y-135796689D01*
X165613019Y-135974236D01*
X165777438Y-136124124D01*
X165966599Y-136241247D01*
X166139388Y-136308186D01*
X166186818Y-136346837D01*
X166202472Y-136405986D01*
X166180369Y-136463039D01*
X166128952Y-136496205D01*
X166103624Y-136499500D01*
X157223467Y-136499500D01*
X157165276Y-136480593D01*
X157129312Y-136431093D01*
X157124477Y-136399079D01*
X157124896Y-136369907D01*
X157127220Y-136208059D01*
X157146960Y-136150151D01*
X157182731Y-136120543D01*
X157185483Y-136119198D01*
X157268198Y-136036483D01*
X157319573Y-135931393D01*
X157329500Y-135863260D01*
X157329500Y-134916740D01*
X157319573Y-134848607D01*
X157268198Y-134743517D01*
X157185483Y-134660802D01*
X157185481Y-134660801D01*
X157179682Y-134655002D01*
X157182316Y-134652367D01*
X157155617Y-134616185D01*
X157150552Y-134583477D01*
X157191605Y-131725001D01*
X159789001Y-131725001D01*
X159789001Y-132779203D01*
X159791850Y-132809600D01*
X159791850Y-132809602D01*
X159836654Y-132937647D01*
X159917207Y-133046790D01*
X159917209Y-133046792D01*
X160026352Y-133127345D01*
X160154398Y-133172149D01*
X160184789Y-133174999D01*
X160289000Y-133174999D01*
X160289000Y-131725001D01*
X161289000Y-131725001D01*
X161289000Y-133174998D01*
X161289001Y-133174999D01*
X161393203Y-133174999D01*
X161423600Y-133172149D01*
X161423602Y-133172149D01*
X161551647Y-133127345D01*
X161660790Y-133046792D01*
X161660792Y-133046790D01*
X161741345Y-132937647D01*
X161786149Y-132809601D01*
X161788999Y-132779211D01*
X161789000Y-132779210D01*
X161789000Y-131725001D01*
X161788999Y-131725000D01*
X161289001Y-131725000D01*
X161289000Y-131725001D01*
X160289000Y-131725001D01*
X160288999Y-131725000D01*
X159789002Y-131725000D01*
X159789001Y-131725001D01*
X157191605Y-131725001D01*
X157221108Y-129670788D01*
X159789000Y-129670788D01*
X159789000Y-130724999D01*
X159789001Y-130725000D01*
X160288999Y-130725000D01*
X160289000Y-130724999D01*
X160289000Y-129275001D01*
X161289000Y-129275001D01*
X161289000Y-130724999D01*
X161289001Y-130725000D01*
X161788998Y-130725000D01*
X161788999Y-130724999D01*
X161788999Y-129670796D01*
X161786149Y-129640399D01*
X161786149Y-129640397D01*
X161741345Y-129512352D01*
X161660792Y-129403209D01*
X161660790Y-129403207D01*
X161551647Y-129322654D01*
X161423601Y-129277850D01*
X161393211Y-129275000D01*
X161289001Y-129275000D01*
X161289000Y-129275001D01*
X160289000Y-129275001D01*
X160289000Y-129275000D01*
X160184796Y-129275000D01*
X160154399Y-129277850D01*
X160154397Y-129277850D01*
X160026352Y-129322654D01*
X159917209Y-129403207D01*
X159917207Y-129403209D01*
X159836654Y-129512352D01*
X159791850Y-129640398D01*
X159789000Y-129670788D01*
X157221108Y-129670788D01*
X157231811Y-128925537D01*
X157233228Y-128910212D01*
X157238157Y-128881500D01*
X157255521Y-128780346D01*
X157265337Y-128751274D01*
X157322720Y-128641397D01*
X157340970Y-128616728D01*
X157429245Y-128529712D01*
X157454171Y-128511820D01*
X157564864Y-128456019D01*
X157594072Y-128446622D01*
X157692660Y-128431152D01*
X157724244Y-128426197D01*
X157739590Y-128425000D01*
X163120071Y-128425000D01*
X163120073Y-128425000D01*
X163620000Y-128425000D01*
X163620022Y-128264189D01*
X163700479Y-128230290D01*
X163759327Y-128200848D01*
X163775919Y-128191148D01*
X163830416Y-128154333D01*
X163917742Y-128086667D01*
X163966993Y-128043092D01*
X163980527Y-128029449D01*
X164023727Y-127979821D01*
X164090685Y-127891949D01*
X164127070Y-127837136D01*
X164136635Y-127820465D01*
X164165590Y-127761397D01*
X164207659Y-127659247D01*
X164228697Y-127596925D01*
X164233646Y-127578355D01*
X164246414Y-127513826D01*
X164261392Y-127399466D01*
X164264601Y-127366731D01*
X164265228Y-127357121D01*
X164266300Y-127324210D01*
X164266300Y-126799998D01*
X171873722Y-126799998D01*
X171873722Y-126800001D01*
X171892762Y-126956816D01*
X171892763Y-126956817D01*
X171948780Y-127104523D01*
X172030542Y-127222977D01*
X172048037Y-127281608D01*
X172041633Y-127314320D01*
X171992764Y-127443179D01*
X171992762Y-127443183D01*
X171973722Y-127599998D01*
X171973722Y-127600001D01*
X171992762Y-127756816D01*
X171992763Y-127756818D01*
X172023219Y-127837123D01*
X172048780Y-127904523D01*
X172138515Y-128034528D01*
X172138516Y-128034529D01*
X172138517Y-128034530D01*
X172256760Y-128139283D01*
X172396635Y-128212696D01*
X172550015Y-128250500D01*
X172550018Y-128250500D01*
X172707982Y-128250500D01*
X172707985Y-128250500D01*
X172861365Y-128212696D01*
X173001240Y-128139283D01*
X173119483Y-128034530D01*
X173209220Y-127904523D01*
X173265237Y-127756818D01*
X173279138Y-127642336D01*
X173284278Y-127600001D01*
X173284278Y-127599998D01*
X173265237Y-127443183D01*
X173265237Y-127443182D01*
X173209220Y-127295477D01*
X173127457Y-127177022D01*
X173109962Y-127118391D01*
X173116364Y-127085683D01*
X173165237Y-126956818D01*
X173184278Y-126800000D01*
X173165237Y-126643182D01*
X173109220Y-126495477D01*
X173046330Y-126404365D01*
X173019484Y-126365471D01*
X172901241Y-126260718D01*
X172901240Y-126260717D01*
X172831302Y-126224010D01*
X172761364Y-126187303D01*
X172607987Y-126149500D01*
X172607985Y-126149500D01*
X172450015Y-126149500D01*
X172450012Y-126149500D01*
X172296635Y-126187303D01*
X172156758Y-126260718D01*
X172038515Y-126365471D01*
X171948780Y-126495476D01*
X171892763Y-126643182D01*
X171892762Y-126643183D01*
X171873722Y-126799998D01*
X164266300Y-126799998D01*
X164266300Y-126618442D01*
X164285207Y-126560251D01*
X164334707Y-126524287D01*
X164364627Y-126519444D01*
X165933084Y-126508883D01*
X165966108Y-126507580D01*
X165975755Y-126506883D01*
X166008625Y-126503424D01*
X166048806Y-126497863D01*
X166123330Y-126487550D01*
X166123333Y-126487548D01*
X166123362Y-126487545D01*
X166188058Y-126474236D01*
X166206668Y-126469120D01*
X166269101Y-126447477D01*
X166371332Y-126404364D01*
X166430404Y-126374766D01*
X166447059Y-126365010D01*
X166501758Y-126327966D01*
X166589358Y-126259885D01*
X166638757Y-126216027D01*
X166652322Y-126202297D01*
X166695586Y-126152364D01*
X166762604Y-126063942D01*
X166798989Y-126008786D01*
X166808542Y-125992014D01*
X166837415Y-125932602D01*
X166879285Y-125829862D01*
X166900168Y-125767179D01*
X166905059Y-125748507D01*
X166917588Y-125683641D01*
X166932076Y-125568715D01*
X166935135Y-125535808D01*
X166935715Y-125526155D01*
X166936618Y-125493117D01*
X166934715Y-125139525D01*
X166953309Y-125081235D01*
X167002615Y-125045005D01*
X167063800Y-125044676D01*
X167079716Y-125051331D01*
X167196635Y-125112696D01*
X167350015Y-125150500D01*
X167350018Y-125150500D01*
X167507982Y-125150500D01*
X167507985Y-125150500D01*
X167661365Y-125112696D01*
X167801240Y-125039283D01*
X167919483Y-124934530D01*
X168009220Y-124804523D01*
X168065237Y-124656818D01*
X168084278Y-124500000D01*
X168065237Y-124343182D01*
X168009220Y-124195477D01*
X167964351Y-124130473D01*
X167919484Y-124065471D01*
X167801241Y-123960718D01*
X167801240Y-123960717D01*
X167731302Y-123924010D01*
X167661364Y-123887303D01*
X167507987Y-123849500D01*
X167507985Y-123849500D01*
X167350015Y-123849500D01*
X167350012Y-123849500D01*
X167196635Y-123887303D01*
X167072866Y-123952264D01*
X167012554Y-123962565D01*
X166957706Y-123935449D01*
X166929271Y-123881272D01*
X166927859Y-123865137D01*
X166925529Y-123432134D01*
X166917824Y-122000001D01*
X167479001Y-122000001D01*
X167479001Y-122104203D01*
X167481850Y-122134600D01*
X167481850Y-122134602D01*
X167526654Y-122262647D01*
X167607207Y-122371790D01*
X167607209Y-122371792D01*
X167716352Y-122452345D01*
X167844398Y-122497149D01*
X167874789Y-122499999D01*
X168928998Y-122499999D01*
X168929000Y-122499998D01*
X168929000Y-122000001D01*
X169929000Y-122000001D01*
X169929000Y-122499998D01*
X169929001Y-122499999D01*
X170983203Y-122499999D01*
X171013600Y-122497149D01*
X171013602Y-122497149D01*
X171141647Y-122452345D01*
X171250790Y-122371792D01*
X171250792Y-122371790D01*
X171331345Y-122262647D01*
X171376149Y-122134601D01*
X171378999Y-122104211D01*
X171379000Y-122104210D01*
X171379000Y-122000001D01*
X171378999Y-122000000D01*
X169929001Y-122000000D01*
X169929000Y-122000001D01*
X168929000Y-122000001D01*
X168928999Y-122000000D01*
X167479002Y-122000000D01*
X167479001Y-122000001D01*
X166917824Y-122000001D01*
X166911883Y-120895788D01*
X167479000Y-120895788D01*
X167479000Y-120999999D01*
X167479001Y-121000000D01*
X168928999Y-121000000D01*
X168929000Y-120999999D01*
X168929000Y-120500001D01*
X169929000Y-120500001D01*
X169929000Y-120999999D01*
X169929001Y-121000000D01*
X171378998Y-121000000D01*
X171378999Y-120999999D01*
X171378999Y-120895796D01*
X171376149Y-120865399D01*
X171376149Y-120865397D01*
X171331345Y-120737352D01*
X171250792Y-120628209D01*
X171250790Y-120628207D01*
X171141647Y-120547654D01*
X171013601Y-120502850D01*
X170983211Y-120500000D01*
X169929001Y-120500000D01*
X169929000Y-120500001D01*
X168929000Y-120500001D01*
X168928999Y-120500000D01*
X167874796Y-120500000D01*
X167844399Y-120502850D01*
X167844397Y-120502850D01*
X167716352Y-120547654D01*
X167607209Y-120628207D01*
X167607207Y-120628209D01*
X167526654Y-120737352D01*
X167481850Y-120865398D01*
X167479000Y-120895788D01*
X166911883Y-120895788D01*
X166880134Y-114994426D01*
X166877474Y-114500001D01*
X167579001Y-114500001D01*
X167579001Y-114604203D01*
X167581850Y-114634600D01*
X167581850Y-114634602D01*
X167626654Y-114762647D01*
X167707207Y-114871790D01*
X167707209Y-114871792D01*
X167816352Y-114952345D01*
X167944398Y-114997149D01*
X167974789Y-114999999D01*
X169028998Y-114999999D01*
X169029000Y-114999998D01*
X169029000Y-114500001D01*
X170029000Y-114500001D01*
X170029000Y-114999998D01*
X170029001Y-114999999D01*
X171083203Y-114999999D01*
X171113600Y-114997149D01*
X171113602Y-114997149D01*
X171241647Y-114952345D01*
X171350790Y-114871792D01*
X171350792Y-114871790D01*
X171431345Y-114762647D01*
X171476149Y-114634601D01*
X171478999Y-114604211D01*
X171479000Y-114604210D01*
X171479000Y-114500001D01*
X171478999Y-114500000D01*
X170029001Y-114500000D01*
X170029000Y-114500001D01*
X169029000Y-114500001D01*
X169028999Y-114500000D01*
X167579002Y-114500000D01*
X167579001Y-114500001D01*
X166877474Y-114500001D01*
X166873345Y-113732631D01*
X166871533Y-113395788D01*
X167579000Y-113395788D01*
X167579000Y-113499999D01*
X167579001Y-113500000D01*
X169028999Y-113500000D01*
X169029000Y-113499999D01*
X169029000Y-113000001D01*
X170029000Y-113000001D01*
X170029000Y-113499999D01*
X170029001Y-113500000D01*
X171478998Y-113500000D01*
X171478999Y-113499999D01*
X171478999Y-113395796D01*
X171476149Y-113365399D01*
X171476149Y-113365397D01*
X171431345Y-113237352D01*
X171350792Y-113128209D01*
X171350790Y-113128207D01*
X171241647Y-113047654D01*
X171113601Y-113002850D01*
X171083211Y-113000000D01*
X170029001Y-113000000D01*
X170029000Y-113000001D01*
X169029000Y-113000001D01*
X169028999Y-113000000D01*
X167974796Y-113000000D01*
X167944399Y-113002850D01*
X167944397Y-113002850D01*
X167816352Y-113047654D01*
X167707209Y-113128207D01*
X167707207Y-113128209D01*
X167626654Y-113237352D01*
X167581850Y-113365398D01*
X167579000Y-113395788D01*
X166871533Y-113395788D01*
X166867601Y-112665033D01*
X166886195Y-112606741D01*
X166935501Y-112570511D01*
X166966600Y-112565500D01*
X170191364Y-112565500D01*
X170199612Y-112565230D01*
X170224365Y-112564421D01*
X170234009Y-112563790D01*
X170266887Y-112560557D01*
X170381659Y-112545470D01*
X170381674Y-112545466D01*
X170381682Y-112545466D01*
X170408530Y-112540133D01*
X170446422Y-112532608D01*
X170465055Y-112527623D01*
X170527574Y-112506435D01*
X170630032Y-112464068D01*
X170689270Y-112434906D01*
X170705982Y-112425275D01*
X170705983Y-112425274D01*
X170705987Y-112425272D01*
X170716984Y-112417937D01*
X170760905Y-112388649D01*
X170848931Y-112321245D01*
X170898603Y-112277783D01*
X170912259Y-112264161D01*
X170955871Y-112214563D01*
X171023491Y-112126694D01*
X171060247Y-112071865D01*
X171069918Y-112055177D01*
X171099222Y-111996010D01*
X171141838Y-111893652D01*
X171163188Y-111831144D01*
X171168217Y-111812521D01*
X171181227Y-111747819D01*
X171196588Y-111633093D01*
X171199896Y-111600273D01*
X171200551Y-111590632D01*
X171201713Y-111557588D01*
X171233278Y-98475282D01*
X171233277Y-98475280D01*
X171233278Y-98475265D01*
X171232271Y-98442148D01*
X171231660Y-98432498D01*
X171231659Y-98432477D01*
X171228487Y-98399512D01*
X171213586Y-98284364D01*
X171200803Y-98219383D01*
X171195833Y-98200685D01*
X171174666Y-98137937D01*
X171132293Y-98035115D01*
X171103107Y-97975677D01*
X171100194Y-97970613D01*
X171093474Y-97958928D01*
X171093470Y-97958922D01*
X171093467Y-97958917D01*
X171093461Y-97958907D01*
X171056753Y-97903789D01*
X171031778Y-97871146D01*
X170989193Y-97815483D01*
X170989188Y-97815476D01*
X170989177Y-97815463D01*
X170945574Y-97765611D01*
X170931911Y-97751915D01*
X170930085Y-97750310D01*
X170882168Y-97708194D01*
X170882165Y-97708192D01*
X170794009Y-97640408D01*
X170793986Y-97640391D01*
X170738974Y-97603561D01*
X170738957Y-97603551D01*
X170722236Y-97593879D01*
X170722230Y-97593876D01*
X170693273Y-97579571D01*
X170662855Y-97564544D01*
X170662850Y-97564541D01*
X170662836Y-97564535D01*
X170560149Y-97521929D01*
X170560146Y-97521927D01*
X170560134Y-97521923D01*
X170497451Y-97500609D01*
X170497450Y-97500608D01*
X170497448Y-97500608D01*
X170482142Y-97496500D01*
X170478767Y-97495594D01*
X170478764Y-97495593D01*
X170478759Y-97495592D01*
X170413808Y-97482652D01*
X170413795Y-97482650D01*
X170330890Y-97471718D01*
X170330890Y-97471717D01*
X170298696Y-97467473D01*
X170265717Y-97464220D01*
X170256053Y-97463586D01*
X170237985Y-97462993D01*
X170222934Y-97462500D01*
X167702498Y-97462500D01*
X167702495Y-97462500D01*
X167674162Y-97463294D01*
X167665909Y-97463757D01*
X167665879Y-97463760D01*
X167584236Y-97475073D01*
X167584232Y-97475073D01*
X167545146Y-97489880D01*
X167484031Y-97492812D01*
X167432865Y-97459262D01*
X167411191Y-97402044D01*
X167417319Y-97362703D01*
X167418406Y-97359789D01*
X167463091Y-97239983D01*
X167469500Y-97180373D01*
X167469499Y-96976386D01*
X167470507Y-96962296D01*
X167474001Y-96938000D01*
X167474000Y-96085282D01*
X167477527Y-96059094D01*
X167480499Y-96048260D01*
X167514125Y-95997147D01*
X167541373Y-95981694D01*
X167554655Y-95976740D01*
X167576102Y-95968742D01*
X167610698Y-95962500D01*
X167903996Y-95962500D01*
X167904000Y-95962500D01*
X167979570Y-95954375D01*
X168031081Y-95943169D01*
X168088464Y-95925497D01*
X168188314Y-95864463D01*
X168241118Y-95818708D01*
X168298411Y-95755525D01*
X168349414Y-95650198D01*
X168364715Y-95598088D01*
X168389702Y-95555978D01*
X168397198Y-95548483D01*
X168448573Y-95443393D01*
X168458500Y-95375260D01*
X168458500Y-94308740D01*
X168448573Y-94240607D01*
X168448572Y-94240604D01*
X168438630Y-94220267D01*
X168430059Y-94159685D01*
X168458735Y-94105635D01*
X168513704Y-94078763D01*
X168526574Y-94077793D01*
X174128528Y-94022698D01*
X174186900Y-94041032D01*
G37*
%TD.AperFunction*%
%TD*%
%TA.AperFunction,Conductor*%
%TO.N,/BT_RAW*%
G36*
X132845061Y-97655597D02*
G01*
X133021941Y-97673018D01*
X133045769Y-97677757D01*
X133210001Y-97727576D01*
X133232453Y-97736877D01*
X133383798Y-97817772D01*
X133404010Y-97831277D01*
X133536666Y-97940145D01*
X133553854Y-97957333D01*
X133662722Y-98089989D01*
X133676227Y-98110201D01*
X133757121Y-98261543D01*
X133766424Y-98284001D01*
X133816240Y-98448224D01*
X133820982Y-98472065D01*
X133838403Y-98648938D01*
X133839000Y-98661092D01*
X133839000Y-99180609D01*
X133838022Y-99196154D01*
X133837718Y-99198554D01*
X133818754Y-99499994D01*
X133818754Y-99500005D01*
X133837719Y-99801456D01*
X133838021Y-99803844D01*
X133839000Y-99819391D01*
X133839000Y-101133778D01*
X133838755Y-101141564D01*
X133823754Y-101379994D01*
X133823754Y-101380005D01*
X133838755Y-101618434D01*
X133839000Y-101626220D01*
X133839000Y-103038778D01*
X133838755Y-103046564D01*
X133823754Y-103284994D01*
X133823754Y-103285005D01*
X133838755Y-103523434D01*
X133839000Y-103531220D01*
X133839000Y-104943778D01*
X133838755Y-104951564D01*
X133823754Y-105189994D01*
X133823754Y-105190005D01*
X133838755Y-105428434D01*
X133839000Y-105436220D01*
X133839000Y-106848778D01*
X133838755Y-106856564D01*
X133823754Y-107094994D01*
X133823754Y-107095005D01*
X133838755Y-107333434D01*
X133839000Y-107341220D01*
X133839000Y-114418907D01*
X133838403Y-114431061D01*
X133820982Y-114607934D01*
X133816240Y-114631775D01*
X133766424Y-114795998D01*
X133757121Y-114818456D01*
X133676227Y-114969798D01*
X133662722Y-114990010D01*
X133553854Y-115122666D01*
X133536666Y-115139854D01*
X133404010Y-115248722D01*
X133383798Y-115262227D01*
X133232456Y-115343121D01*
X133209998Y-115352424D01*
X133045775Y-115402240D01*
X133021934Y-115406982D01*
X132845061Y-115424403D01*
X132832907Y-115425000D01*
X124705093Y-115425000D01*
X124692939Y-115424403D01*
X124516065Y-115406982D01*
X124492224Y-115402240D01*
X124328001Y-115352424D01*
X124305543Y-115343121D01*
X124154201Y-115262227D01*
X124133989Y-115248722D01*
X124001333Y-115139854D01*
X123984145Y-115122666D01*
X123875277Y-114990010D01*
X123861772Y-114969798D01*
X123780878Y-114818456D01*
X123771575Y-114795998D01*
X123721757Y-114631769D01*
X123717018Y-114607941D01*
X123699597Y-114431061D01*
X123699000Y-114418907D01*
X123699000Y-114049628D01*
X123949000Y-114049628D01*
X123963503Y-114122540D01*
X123963505Y-114122544D01*
X124018760Y-114205239D01*
X124101455Y-114260494D01*
X124101459Y-114260496D01*
X124174371Y-114274999D01*
X124174374Y-114275000D01*
X124859000Y-114275000D01*
X126359000Y-114275000D01*
X127043626Y-114275000D01*
X127043628Y-114274999D01*
X127116540Y-114260496D01*
X127116544Y-114260494D01*
X127199239Y-114205239D01*
X127254494Y-114122544D01*
X127254496Y-114122540D01*
X127268999Y-114049628D01*
X130269000Y-114049628D01*
X130283503Y-114122540D01*
X130283505Y-114122544D01*
X130338760Y-114205239D01*
X130421455Y-114260494D01*
X130421459Y-114260496D01*
X130494371Y-114274999D01*
X130494374Y-114275000D01*
X131179000Y-114275000D01*
X132679000Y-114275000D01*
X133363626Y-114275000D01*
X133363628Y-114274999D01*
X133436540Y-114260496D01*
X133436544Y-114260494D01*
X133519239Y-114205239D01*
X133574494Y-114122544D01*
X133574496Y-114122540D01*
X133588999Y-114049628D01*
X133589000Y-114049626D01*
X133589000Y-113990000D01*
X132679000Y-113990000D01*
X132679000Y-114275000D01*
X131179000Y-114275000D01*
X131179000Y-113990000D01*
X130269000Y-113990000D01*
X130269000Y-114049628D01*
X127268999Y-114049628D01*
X127269000Y-114049626D01*
X127269000Y-113990000D01*
X126359000Y-113990000D01*
X126359000Y-114275000D01*
X124859000Y-114275000D01*
X124859000Y-113990000D01*
X123949000Y-113990000D01*
X123949000Y-114049628D01*
X123699000Y-114049628D01*
X123699000Y-112430371D01*
X123949000Y-112430371D01*
X123949000Y-112490000D01*
X124859000Y-112490000D01*
X126359000Y-112490000D01*
X127269000Y-112490000D01*
X127269000Y-112430373D01*
X127268999Y-112430371D01*
X130269000Y-112430371D01*
X130269000Y-112490000D01*
X131179000Y-112490000D01*
X132679000Y-112490000D01*
X133589000Y-112490000D01*
X133589000Y-112430373D01*
X133588999Y-112430371D01*
X133574496Y-112357459D01*
X133574494Y-112357455D01*
X133519239Y-112274760D01*
X133436544Y-112219505D01*
X133436540Y-112219503D01*
X133363627Y-112205000D01*
X132679000Y-112205000D01*
X132679000Y-112490000D01*
X131179000Y-112490000D01*
X131179000Y-112205000D01*
X130494373Y-112205000D01*
X130421459Y-112219503D01*
X130421455Y-112219505D01*
X130338760Y-112274760D01*
X130283505Y-112357455D01*
X130283503Y-112357459D01*
X130269000Y-112430371D01*
X127268999Y-112430371D01*
X127254496Y-112357459D01*
X127254494Y-112357455D01*
X127199239Y-112274760D01*
X127116544Y-112219505D01*
X127116540Y-112219503D01*
X127043627Y-112205000D01*
X126359000Y-112205000D01*
X126359000Y-112490000D01*
X124859000Y-112490000D01*
X124859000Y-112205000D01*
X124174373Y-112205000D01*
X124101459Y-112219503D01*
X124101455Y-112219505D01*
X124018760Y-112274760D01*
X123963505Y-112357455D01*
X123963503Y-112357459D01*
X123949000Y-112430371D01*
X123699000Y-112430371D01*
X123699000Y-107839694D01*
X126979000Y-107839694D01*
X126979001Y-107839710D01*
X127008942Y-108067137D01*
X127068318Y-108288730D01*
X127156102Y-108500659D01*
X127156106Y-108500668D01*
X127270809Y-108699338D01*
X127410455Y-108881329D01*
X127410461Y-108881336D01*
X127572663Y-109043538D01*
X127572670Y-109043544D01*
X127754661Y-109183190D01*
X127953331Y-109297893D01*
X127953345Y-109297900D01*
X127978999Y-109308526D01*
X127979000Y-109308526D01*
X129479000Y-109308526D01*
X129504654Y-109297900D01*
X129504668Y-109297893D01*
X129703338Y-109183190D01*
X129885329Y-109043544D01*
X129885336Y-109043538D01*
X130047538Y-108881336D01*
X130047544Y-108881329D01*
X130187190Y-108699338D01*
X130301893Y-108500668D01*
X130301897Y-108500659D01*
X130389681Y-108288730D01*
X130449057Y-108067137D01*
X130478998Y-107839710D01*
X130479000Y-107839694D01*
X130479000Y-105825000D01*
X129479000Y-105825000D01*
X129479000Y-109308526D01*
X127979000Y-109308526D01*
X127979000Y-105825000D01*
X126979000Y-105825000D01*
X126979000Y-107839694D01*
X123699000Y-107839694D01*
X123699000Y-102310305D01*
X126979000Y-102310305D01*
X126979000Y-104325000D01*
X127979000Y-104325000D01*
X127979000Y-102359174D01*
X128229000Y-102359174D01*
X128229000Y-107790826D01*
X128263075Y-107917993D01*
X128328901Y-108032007D01*
X128421993Y-108125099D01*
X128536007Y-108190925D01*
X128663174Y-108225000D01*
X128794826Y-108225000D01*
X128921993Y-108190925D01*
X129036007Y-108125099D01*
X129129099Y-108032007D01*
X129194925Y-107917993D01*
X129229000Y-107790826D01*
X129229000Y-104325000D01*
X129479000Y-104325000D01*
X130479000Y-104325000D01*
X130479000Y-102310305D01*
X130478998Y-102310289D01*
X130449057Y-102082862D01*
X130389681Y-101861269D01*
X130301897Y-101649340D01*
X130301893Y-101649331D01*
X130187190Y-101450661D01*
X130047544Y-101268670D01*
X130047538Y-101268663D01*
X129885336Y-101106461D01*
X129885329Y-101106455D01*
X129703338Y-100966809D01*
X129504666Y-100852105D01*
X129504655Y-100852100D01*
X129479000Y-100841472D01*
X129479000Y-104325000D01*
X129229000Y-104325000D01*
X129229000Y-102359174D01*
X129194925Y-102232007D01*
X129129099Y-102117993D01*
X129036007Y-102024901D01*
X128921993Y-101959075D01*
X128794826Y-101925000D01*
X128663174Y-101925000D01*
X128536007Y-101959075D01*
X128421993Y-102024901D01*
X128328901Y-102117993D01*
X128263075Y-102232007D01*
X128229000Y-102359174D01*
X127979000Y-102359174D01*
X127979000Y-100841473D01*
X127978999Y-100841472D01*
X127953344Y-100852100D01*
X127953333Y-100852105D01*
X127754661Y-100966809D01*
X127572670Y-101106455D01*
X127572663Y-101106461D01*
X127410461Y-101268663D01*
X127410455Y-101268670D01*
X127270809Y-101450661D01*
X127156106Y-101649331D01*
X127156102Y-101649340D01*
X127068318Y-101861269D01*
X127008942Y-102082862D01*
X126979001Y-102310289D01*
X126979000Y-102310305D01*
X123699000Y-102310305D01*
X123699000Y-98661092D01*
X123699597Y-98648938D01*
X123717018Y-98472056D01*
X123721757Y-98448232D01*
X123771577Y-98283994D01*
X123780875Y-98261549D01*
X123861775Y-98110195D01*
X123875272Y-98089995D01*
X123984149Y-97957328D01*
X124001328Y-97940149D01*
X124133995Y-97831272D01*
X124154195Y-97817775D01*
X124305549Y-97736875D01*
X124327994Y-97727577D01*
X124492232Y-97677757D01*
X124516056Y-97673018D01*
X124692939Y-97655597D01*
X124705093Y-97655000D01*
X132832907Y-97655000D01*
X132845061Y-97655597D01*
G37*
%TD.AperFunction*%
%TD*%
%TA.AperFunction,Conductor*%
%TO.N,PGND*%
G36*
X123351221Y-134614187D02*
G01*
X123465557Y-134838583D01*
X123613588Y-135042330D01*
X123791670Y-135220412D01*
X123995417Y-135368443D01*
X124219813Y-135482779D01*
X124364778Y-135529880D01*
X123431480Y-136463181D01*
X123370157Y-136496666D01*
X123343799Y-136499500D01*
X122343588Y-136499500D01*
X122276549Y-136479815D01*
X122230794Y-136427011D01*
X122219588Y-136375483D01*
X122219612Y-136206775D01*
X122219696Y-135604982D01*
X122239390Y-135537949D01*
X122256015Y-135517322D01*
X123304118Y-134469219D01*
X123351221Y-134614187D01*
G37*
%TD.AperFunction*%
%TA.AperFunction,Conductor*%
G36*
X132735061Y-117500597D02*
G01*
X132911941Y-117518018D01*
X132935769Y-117522757D01*
X133100001Y-117572576D01*
X133122453Y-117581877D01*
X133170234Y-117607416D01*
X133273798Y-117662772D01*
X133294010Y-117676277D01*
X133426666Y-117785145D01*
X133443854Y-117802333D01*
X133552722Y-117934989D01*
X133566225Y-117955197D01*
X133603859Y-118025605D01*
X133618500Y-118084055D01*
X133618500Y-125569294D01*
X133598815Y-125636333D01*
X133546011Y-125682088D01*
X133476853Y-125692032D01*
X133447046Y-125683854D01*
X133436545Y-125679504D01*
X133363627Y-125665000D01*
X132679000Y-125665000D01*
X132679000Y-127735000D01*
X133363626Y-127735000D01*
X133363628Y-127734999D01*
X133436537Y-127720497D01*
X133447041Y-127716146D01*
X133516510Y-127708674D01*
X133578991Y-127739946D01*
X133614647Y-127800033D01*
X133618500Y-127830705D01*
X133618500Y-132311007D01*
X133630876Y-132468267D01*
X133630877Y-132468279D01*
X133635723Y-132498881D01*
X133648230Y-132563908D01*
X133648230Y-132563911D01*
X133713059Y-132756763D01*
X133715656Y-132762490D01*
X133714295Y-132763107D01*
X133729000Y-132817609D01*
X133729000Y-135993907D01*
X133728403Y-136006061D01*
X133710982Y-136182934D01*
X133706240Y-136206775D01*
X133656424Y-136370998D01*
X133647122Y-136393454D01*
X133625477Y-136433951D01*
X133576516Y-136483796D01*
X133516118Y-136499500D01*
X126324201Y-136499500D01*
X126257162Y-136479815D01*
X126236520Y-136463181D01*
X125303221Y-135529880D01*
X125448187Y-135482779D01*
X125672583Y-135368443D01*
X125876330Y-135220412D01*
X126054412Y-135042330D01*
X126202443Y-134838583D01*
X126316779Y-134614187D01*
X126363881Y-134469221D01*
X127455936Y-135561276D01*
X127586290Y-135325419D01*
X127717380Y-135008935D01*
X127812214Y-134679762D01*
X127812216Y-134679754D01*
X127869596Y-134342037D01*
X127869598Y-134342025D01*
X127888805Y-134000000D01*
X127869598Y-133657974D01*
X127869596Y-133657962D01*
X127812216Y-133320245D01*
X127812214Y-133320237D01*
X127717380Y-132991064D01*
X127586288Y-132674575D01*
X127586286Y-132674571D01*
X127455936Y-132438722D01*
X126363880Y-133530777D01*
X126316779Y-133385813D01*
X126202443Y-133161417D01*
X126054412Y-132957670D01*
X125876330Y-132779588D01*
X125672583Y-132631557D01*
X125448187Y-132517221D01*
X125303220Y-132470118D01*
X126395276Y-131378062D01*
X126159428Y-131247713D01*
X126159424Y-131247711D01*
X125842935Y-131116619D01*
X125513762Y-131021785D01*
X125513754Y-131021783D01*
X125176037Y-130964403D01*
X125176025Y-130964401D01*
X124834000Y-130945194D01*
X124491974Y-130964401D01*
X124491962Y-130964403D01*
X124154245Y-131021783D01*
X124154237Y-131021785D01*
X123825064Y-131116619D01*
X123508575Y-131247711D01*
X123508571Y-131247713D01*
X123272722Y-131378062D01*
X124364779Y-132470118D01*
X124219813Y-132517221D01*
X123995417Y-132631557D01*
X123791670Y-132779588D01*
X123613588Y-132957670D01*
X123465557Y-133161417D01*
X123351221Y-133385813D01*
X123304118Y-133530779D01*
X122256467Y-132483128D01*
X122222982Y-132421805D01*
X122220148Y-132395439D01*
X122220836Y-127509628D01*
X123949000Y-127509628D01*
X123963503Y-127582540D01*
X123963505Y-127582544D01*
X124018760Y-127665239D01*
X124101455Y-127720494D01*
X124101459Y-127720496D01*
X124174371Y-127734999D01*
X124174374Y-127735000D01*
X124859000Y-127735000D01*
X126359000Y-127735000D01*
X127043626Y-127735000D01*
X127043628Y-127734999D01*
X127116540Y-127720496D01*
X127116544Y-127720494D01*
X127199239Y-127665239D01*
X127254494Y-127582544D01*
X127254496Y-127582540D01*
X127268999Y-127509628D01*
X130269000Y-127509628D01*
X130283503Y-127582540D01*
X130283505Y-127582544D01*
X130338760Y-127665239D01*
X130421455Y-127720494D01*
X130421459Y-127720496D01*
X130494371Y-127734999D01*
X130494374Y-127735000D01*
X131179000Y-127735000D01*
X131179000Y-127450000D01*
X130269000Y-127450000D01*
X130269000Y-127509628D01*
X127268999Y-127509628D01*
X127269000Y-127509626D01*
X127269000Y-127450000D01*
X126359000Y-127450000D01*
X126359000Y-127735000D01*
X124859000Y-127735000D01*
X124859000Y-127450000D01*
X123949000Y-127450000D01*
X123949000Y-127509628D01*
X122220836Y-127509628D01*
X122221064Y-125890371D01*
X123949000Y-125890371D01*
X123949000Y-125950000D01*
X124859000Y-125950000D01*
X126359000Y-125950000D01*
X127269000Y-125950000D01*
X127269000Y-125890373D01*
X127268999Y-125890371D01*
X130269000Y-125890371D01*
X130269000Y-125950000D01*
X131179000Y-125950000D01*
X131179000Y-125665000D01*
X130494373Y-125665000D01*
X130421459Y-125679503D01*
X130421455Y-125679505D01*
X130338760Y-125734760D01*
X130283505Y-125817455D01*
X130283503Y-125817459D01*
X130269000Y-125890371D01*
X127268999Y-125890371D01*
X127254496Y-125817459D01*
X127254494Y-125817455D01*
X127199239Y-125734760D01*
X127116544Y-125679505D01*
X127116540Y-125679503D01*
X127043627Y-125665000D01*
X126359000Y-125665000D01*
X126359000Y-125950000D01*
X124859000Y-125950000D01*
X124859000Y-125665000D01*
X124174373Y-125665000D01*
X124101459Y-125679503D01*
X124101455Y-125679505D01*
X124018760Y-125734760D01*
X123963505Y-125817455D01*
X123963503Y-125817459D01*
X123949000Y-125890371D01*
X122221064Y-125890371D01*
X122222216Y-117716753D01*
X122241909Y-117649721D01*
X122287760Y-117607418D01*
X122335547Y-117581876D01*
X122357998Y-117572576D01*
X122522232Y-117522757D01*
X122546056Y-117518018D01*
X122722939Y-117500597D01*
X122735093Y-117500000D01*
X132722907Y-117500000D01*
X132735061Y-117500597D01*
G37*
%TD.AperFunction*%
%TD*%
%TA.AperFunction,Conductor*%
%TO.N,/+12V_CS*%
G36*
X131490922Y-81600779D02*
G01*
X131653699Y-81619120D01*
X131680763Y-81625297D01*
X131828768Y-81677087D01*
X131853778Y-81689130D01*
X131970978Y-81762772D01*
X131986551Y-81772557D01*
X132008260Y-81789870D01*
X132119129Y-81900739D01*
X132136442Y-81922448D01*
X132219867Y-82055218D01*
X132231914Y-82080235D01*
X132283701Y-82228232D01*
X132289880Y-82255303D01*
X132306736Y-82404910D01*
X132308996Y-82424963D01*
X132308998Y-82425000D01*
X132309000Y-82425000D01*
X132309000Y-83250000D01*
X132447840Y-83250562D01*
X132384924Y-83334607D01*
X132335319Y-83467602D01*
X132329000Y-83526368D01*
X132329000Y-84230000D01*
X134858999Y-84230000D01*
X134858999Y-83526388D01*
X134858998Y-83526379D01*
X134852680Y-83467598D01*
X134837930Y-83428053D01*
X134832945Y-83358361D01*
X134866429Y-83297038D01*
X134927752Y-83263552D01*
X134954603Y-83260719D01*
X137476981Y-83270940D01*
X137489087Y-83271582D01*
X137665454Y-83289629D01*
X137689203Y-83294441D01*
X137852854Y-83344672D01*
X137875206Y-83354010D01*
X138025950Y-83435125D01*
X138046070Y-83448643D01*
X138178141Y-83557536D01*
X138195244Y-83574708D01*
X138303604Y-83707222D01*
X138317040Y-83727398D01*
X138397538Y-83878458D01*
X138406794Y-83900868D01*
X138456356Y-84064703D01*
X138461074Y-84088485D01*
X138478406Y-84264909D01*
X138479000Y-84277032D01*
X138479000Y-87093907D01*
X138478403Y-87106061D01*
X138460982Y-87282934D01*
X138456240Y-87306775D01*
X138406424Y-87470998D01*
X138397121Y-87493456D01*
X138316227Y-87644798D01*
X138302722Y-87665010D01*
X138193854Y-87797666D01*
X138176666Y-87814854D01*
X138044010Y-87923722D01*
X138023798Y-87937227D01*
X137872456Y-88018121D01*
X137849998Y-88027424D01*
X137685775Y-88077240D01*
X137661934Y-88081982D01*
X137485061Y-88099403D01*
X137472907Y-88100000D01*
X126535093Y-88100000D01*
X126522939Y-88099403D01*
X126346065Y-88081982D01*
X126322224Y-88077240D01*
X126158001Y-88027424D01*
X126135543Y-88018121D01*
X125984201Y-87937227D01*
X125963989Y-87923722D01*
X125831333Y-87814854D01*
X125814145Y-87797666D01*
X125705277Y-87665010D01*
X125691772Y-87644798D01*
X125610878Y-87493456D01*
X125601575Y-87470998D01*
X125551757Y-87306769D01*
X125547018Y-87282941D01*
X125529597Y-87106061D01*
X125529000Y-87093907D01*
X125529000Y-82606092D01*
X125529597Y-82593938D01*
X125538635Y-82502174D01*
X125538637Y-82502157D01*
X127279000Y-82502157D01*
X127279000Y-83500000D01*
X128478822Y-83500000D01*
X128409904Y-83594857D01*
X128320580Y-83770167D01*
X128259779Y-83957291D01*
X128229000Y-84151623D01*
X128229000Y-84348377D01*
X128259779Y-84542709D01*
X128320580Y-84729833D01*
X128409904Y-84905143D01*
X128478822Y-85000000D01*
X127279000Y-85000000D01*
X127279000Y-85997842D01*
X127285402Y-86057375D01*
X127285403Y-86057380D01*
X127335647Y-86192087D01*
X127421811Y-86307188D01*
X127536912Y-86393352D01*
X127536911Y-86393352D01*
X127671619Y-86443596D01*
X127671624Y-86443597D01*
X127731157Y-86449999D01*
X127731174Y-86450000D01*
X128729000Y-86450000D01*
X128729000Y-85250177D01*
X128823857Y-85319096D01*
X128999167Y-85408420D01*
X129186291Y-85469221D01*
X129380623Y-85500000D01*
X129577377Y-85500000D01*
X129771709Y-85469221D01*
X129958833Y-85408420D01*
X130134143Y-85319096D01*
X130229000Y-85250177D01*
X130229000Y-86450000D01*
X131226826Y-86450000D01*
X131226842Y-86449999D01*
X131286375Y-86443597D01*
X131286380Y-86443596D01*
X131313126Y-86433620D01*
X132329001Y-86433620D01*
X132335319Y-86492401D01*
X132384923Y-86625390D01*
X132469983Y-86739016D01*
X132583607Y-86824075D01*
X132716602Y-86873680D01*
X132775377Y-86879999D01*
X132843999Y-86879998D01*
X132844000Y-86879998D01*
X132844000Y-85730000D01*
X134344000Y-85730000D01*
X134344000Y-86879999D01*
X134412611Y-86879999D01*
X134412620Y-86879998D01*
X134471401Y-86873680D01*
X134604390Y-86824076D01*
X134718015Y-86739017D01*
X134751074Y-86694856D01*
X134807008Y-86652985D01*
X134876699Y-86648000D01*
X134938023Y-86681484D01*
X134950112Y-86695532D01*
X134994001Y-86754999D01*
X135100843Y-86833852D01*
X135139003Y-86847204D01*
X135226173Y-86877708D01*
X135226177Y-86877708D01*
X135226181Y-86877710D01*
X135241057Y-86879105D01*
X135255930Y-86880500D01*
X135255934Y-86880500D01*
X135742070Y-86880500D01*
X135755289Y-86879260D01*
X135771819Y-86877710D01*
X135771823Y-86877708D01*
X135771826Y-86877708D01*
X135820836Y-86860557D01*
X135897157Y-86833852D01*
X136003999Y-86754999D01*
X136082852Y-86648157D01*
X136086407Y-86637996D01*
X136127125Y-86581222D01*
X136192077Y-86555473D01*
X136239113Y-86561880D01*
X136239351Y-86560917D01*
X136400014Y-86600516D01*
X136400015Y-86600516D01*
X136557985Y-86600516D01*
X136711365Y-86562712D01*
X136714785Y-86560917D01*
X136851240Y-86489299D01*
X136969483Y-86384546D01*
X137059220Y-86254539D01*
X137115237Y-86106834D01*
X137134278Y-85950016D01*
X137115237Y-85793198D01*
X137059220Y-85645493D01*
X136969483Y-85515486D01*
X136851240Y-85410733D01*
X136851238Y-85410732D01*
X136851237Y-85410731D01*
X136711365Y-85337319D01*
X136557986Y-85299516D01*
X136557985Y-85299516D01*
X136400015Y-85299516D01*
X136400014Y-85299516D01*
X136245752Y-85337537D01*
X136175950Y-85334468D01*
X136118888Y-85294147D01*
X136099037Y-85258096D01*
X136095789Y-85248816D01*
X136082852Y-85211843D01*
X136003999Y-85105001D01*
X135897157Y-85026148D01*
X135897155Y-85026147D01*
X135771826Y-84982291D01*
X135771814Y-84982289D01*
X135742070Y-84979500D01*
X135742066Y-84979500D01*
X135255934Y-84979500D01*
X135255930Y-84979500D01*
X135226185Y-84982289D01*
X135226173Y-84982291D01*
X135100844Y-85026147D01*
X134994001Y-85105001D01*
X134915147Y-85211844D01*
X134871291Y-85337173D01*
X134871289Y-85337185D01*
X134868500Y-85366929D01*
X134868500Y-85606000D01*
X134848815Y-85673039D01*
X134796011Y-85718794D01*
X134744500Y-85730000D01*
X134344000Y-85730000D01*
X132844000Y-85730000D01*
X132329001Y-85730000D01*
X132329001Y-86433620D01*
X131313126Y-86433620D01*
X131421087Y-86393352D01*
X131536188Y-86307188D01*
X131622352Y-86192087D01*
X131672596Y-86057380D01*
X131672597Y-86057375D01*
X131678999Y-85997842D01*
X131679000Y-85997825D01*
X131679000Y-85000000D01*
X130479178Y-85000000D01*
X130548096Y-84905143D01*
X130637420Y-84729833D01*
X130698221Y-84542709D01*
X130729000Y-84348377D01*
X130729000Y-84151623D01*
X130698221Y-83957291D01*
X130637420Y-83770167D01*
X130548096Y-83594857D01*
X130479178Y-83500000D01*
X131679000Y-83500000D01*
X131679000Y-82502174D01*
X131678999Y-82502157D01*
X131672597Y-82442624D01*
X131672596Y-82442619D01*
X131622352Y-82307912D01*
X131536188Y-82192811D01*
X131421087Y-82106647D01*
X131421088Y-82106647D01*
X131286380Y-82056403D01*
X131286375Y-82056402D01*
X131226842Y-82050000D01*
X130229000Y-82050000D01*
X130229000Y-83249822D01*
X130134143Y-83180904D01*
X129958833Y-83091580D01*
X129771709Y-83030779D01*
X129577377Y-83000000D01*
X129380623Y-83000000D01*
X129186291Y-83030779D01*
X128999167Y-83091580D01*
X128823857Y-83180904D01*
X128729000Y-83249822D01*
X128729000Y-82050000D01*
X127731157Y-82050000D01*
X127671624Y-82056402D01*
X127671619Y-82056403D01*
X127536912Y-82106647D01*
X127421811Y-82192811D01*
X127335647Y-82307912D01*
X127285403Y-82442619D01*
X127285402Y-82442624D01*
X127279000Y-82502157D01*
X125538637Y-82502157D01*
X125547018Y-82417056D01*
X125551757Y-82393232D01*
X125601577Y-82228994D01*
X125610875Y-82206549D01*
X125691775Y-82055195D01*
X125705272Y-82034995D01*
X125814149Y-81902328D01*
X125831328Y-81885149D01*
X125963995Y-81776272D01*
X125984195Y-81762775D01*
X126135549Y-81681875D01*
X126157994Y-81672577D01*
X126322232Y-81622757D01*
X126346056Y-81618018D01*
X126522939Y-81600597D01*
X126535093Y-81600000D01*
X131477040Y-81600000D01*
X131490922Y-81600779D01*
G37*
%TD.AperFunction*%
%TD*%
%TA.AperFunction,Conductor*%
%TO.N,PGND*%
G36*
X142075735Y-95468907D02*
G01*
X142105730Y-95510191D01*
X142108063Y-95509142D01*
X142110522Y-95514607D01*
X142175914Y-95622777D01*
X142198528Y-95660185D01*
X142318815Y-95780472D01*
X142464394Y-95868478D01*
X142626804Y-95919086D01*
X142697384Y-95925500D01*
X142697389Y-95925500D01*
X142880000Y-95925500D01*
X142938191Y-95944407D01*
X142974155Y-95993907D01*
X142979000Y-96024500D01*
X142979000Y-100511326D01*
X142960093Y-100569517D01*
X142927448Y-100598215D01*
X142912375Y-100606446D01*
X142912373Y-100606447D01*
X142912372Y-100606448D01*
X142807071Y-100704487D01*
X142733650Y-100828231D01*
X142711982Y-100880542D01*
X142711974Y-100880565D01*
X142693975Y-100931585D01*
X142673500Y-101073994D01*
X142673500Y-104876744D01*
X142654593Y-104934935D01*
X142605093Y-104970899D01*
X142543907Y-104970899D01*
X142498979Y-104939484D01*
X142498882Y-104939582D01*
X142498330Y-104939030D01*
X142496568Y-104937798D01*
X142494650Y-104935350D01*
X142494649Y-104935349D01*
X142494648Y-104935347D01*
X142378653Y-104819352D01*
X142378650Y-104819350D01*
X142378649Y-104819349D01*
X142238275Y-104734490D01*
X142238263Y-104734485D01*
X142081662Y-104685686D01*
X142081656Y-104685684D01*
X142013599Y-104679500D01*
X142013594Y-104679500D01*
X141104406Y-104679500D01*
X141104400Y-104679500D01*
X141036343Y-104685684D01*
X140970574Y-104706179D01*
X140909393Y-104705439D01*
X140900855Y-104702102D01*
X140758805Y-104638857D01*
X140758803Y-104638856D01*
X140758800Y-104638855D01*
X140758799Y-104638855D01*
X140723580Y-104631369D01*
X140573646Y-104599500D01*
X140384354Y-104599500D01*
X140266289Y-104624595D01*
X140199200Y-104638855D01*
X140199194Y-104638857D01*
X140026277Y-104715845D01*
X140026268Y-104715850D01*
X139873129Y-104827111D01*
X139873124Y-104827116D01*
X139746469Y-104967781D01*
X139746465Y-104967787D01*
X139651825Y-105131706D01*
X139651819Y-105131720D01*
X139593327Y-105311738D01*
X139593326Y-105311742D01*
X139593326Y-105311744D01*
X139573540Y-105500000D01*
X139592458Y-105680000D01*
X139593327Y-105688261D01*
X139651819Y-105868279D01*
X139651825Y-105868293D01*
X139695691Y-105944270D01*
X139746467Y-106032216D01*
X139746469Y-106032218D01*
X139872127Y-106171776D01*
X139873129Y-106172888D01*
X140026270Y-106284151D01*
X140199197Y-106361144D01*
X140384354Y-106400500D01*
X140384357Y-106400500D01*
X140573643Y-106400500D01*
X140573646Y-106400500D01*
X140758803Y-106361144D01*
X140821578Y-106333193D01*
X140882428Y-106326797D01*
X140891297Y-106329116D01*
X141036343Y-106374315D01*
X141104406Y-106380500D01*
X141104412Y-106380500D01*
X142013588Y-106380500D01*
X142013594Y-106380500D01*
X142081657Y-106374315D01*
X142238270Y-106325512D01*
X142378653Y-106240648D01*
X142494648Y-106124653D01*
X142526174Y-106072502D01*
X142572456Y-106032486D01*
X142633423Y-106027316D01*
X142685785Y-106058969D01*
X142706819Y-106099234D01*
X142711976Y-106119440D01*
X142733650Y-106171766D01*
X142733654Y-106171776D01*
X142785447Y-106266627D01*
X142841468Y-106326797D01*
X142883489Y-106371930D01*
X143007229Y-106445348D01*
X143007231Y-106445349D01*
X143059542Y-106467017D01*
X143059547Y-106467019D01*
X143059555Y-106467022D01*
X143110584Y-106485024D01*
X143134320Y-106488436D01*
X143252995Y-106505500D01*
X143253000Y-106505500D01*
X147124500Y-106505500D01*
X147182691Y-106524407D01*
X147218655Y-106573907D01*
X147223500Y-106604500D01*
X147223500Y-110926001D01*
X147226395Y-110980033D01*
X147227130Y-110984837D01*
X147226518Y-110984930D01*
X147228500Y-111000708D01*
X147228500Y-111047867D01*
X147228501Y-111047871D01*
X147234908Y-111107480D01*
X147234909Y-111107485D01*
X147285202Y-111242329D01*
X147371450Y-111357541D01*
X147371454Y-111357546D01*
X147371457Y-111357548D01*
X147371458Y-111357549D01*
X147486670Y-111443797D01*
X147621511Y-111494089D01*
X147621512Y-111494089D01*
X147621517Y-111494091D01*
X147681127Y-111500500D01*
X147761142Y-111500499D01*
X147775232Y-111501506D01*
X147803000Y-111505500D01*
X147803002Y-111505500D01*
X152655002Y-111505500D01*
X152664824Y-111504973D01*
X152709034Y-111502604D01*
X152709047Y-111502600D01*
X152713835Y-111501869D01*
X152713928Y-111502481D01*
X152729714Y-111500499D01*
X152776867Y-111500499D01*
X152776872Y-111500499D01*
X152836483Y-111494091D01*
X152903907Y-111468943D01*
X152971329Y-111443797D01*
X152971329Y-111443796D01*
X152971331Y-111443796D01*
X153086546Y-111357546D01*
X153172796Y-111242331D01*
X153223091Y-111107483D01*
X153229500Y-111047873D01*
X153229499Y-110967856D01*
X153230507Y-110953766D01*
X153234500Y-110926000D01*
X153234500Y-110012001D01*
X157079001Y-110012001D01*
X157079001Y-110291203D01*
X157081850Y-110321600D01*
X157081850Y-110321602D01*
X157126654Y-110449647D01*
X157207207Y-110558790D01*
X157207209Y-110558792D01*
X157316352Y-110639345D01*
X157444399Y-110684149D01*
X157474788Y-110686999D01*
X157528999Y-110686998D01*
X157529000Y-110686998D01*
X157529000Y-110012001D01*
X158029000Y-110012001D01*
X158029000Y-110686998D01*
X158029001Y-110686999D01*
X158083203Y-110686999D01*
X158113600Y-110684149D01*
X158113602Y-110684149D01*
X158241647Y-110639345D01*
X158350790Y-110558792D01*
X158350792Y-110558790D01*
X158431345Y-110449647D01*
X158476149Y-110321601D01*
X158478999Y-110291211D01*
X158479000Y-110291210D01*
X158479000Y-110012001D01*
X158478999Y-110012000D01*
X158029001Y-110012000D01*
X158029000Y-110012001D01*
X157529000Y-110012001D01*
X157528999Y-110012000D01*
X157079002Y-110012000D01*
X157079001Y-110012001D01*
X153234500Y-110012001D01*
X153234500Y-109232788D01*
X157079000Y-109232788D01*
X157079000Y-109511999D01*
X157079001Y-109512000D01*
X157528999Y-109512000D01*
X157529000Y-109511999D01*
X157529000Y-108837001D01*
X158029000Y-108837001D01*
X158029000Y-109511999D01*
X158029001Y-109512000D01*
X158478998Y-109512000D01*
X158478999Y-109511999D01*
X158478999Y-109232796D01*
X158476149Y-109202399D01*
X158476149Y-109202397D01*
X158431345Y-109074352D01*
X158350792Y-108965209D01*
X158350790Y-108965207D01*
X158241647Y-108884654D01*
X158113601Y-108839850D01*
X158083211Y-108837000D01*
X158029001Y-108837000D01*
X158029000Y-108837001D01*
X157529000Y-108837001D01*
X157529000Y-108836999D01*
X157474796Y-108837000D01*
X157444399Y-108839850D01*
X157444397Y-108839850D01*
X157316352Y-108884654D01*
X157207209Y-108965207D01*
X157207207Y-108965209D01*
X157126654Y-109074352D01*
X157081850Y-109202398D01*
X157079000Y-109232788D01*
X153234500Y-109232788D01*
X153234500Y-107266472D01*
X153253407Y-107208281D01*
X153302907Y-107172317D01*
X153364093Y-107172317D01*
X153391687Y-107186377D01*
X153526262Y-107284151D01*
X153699189Y-107361144D01*
X153884346Y-107400500D01*
X153884349Y-107400500D01*
X154073635Y-107400500D01*
X154073638Y-107400500D01*
X154258795Y-107361144D01*
X154431722Y-107284151D01*
X154584863Y-107172888D01*
X154711525Y-107032216D01*
X154806171Y-106868284D01*
X154864666Y-106688256D01*
X154884452Y-106500000D01*
X154864666Y-106311744D01*
X154847336Y-106258408D01*
X154847336Y-106197223D01*
X154871486Y-106157814D01*
X154944648Y-106084653D01*
X155029512Y-105944270D01*
X155029511Y-105944270D01*
X155031966Y-105940211D01*
X155078250Y-105900194D01*
X155139217Y-105895024D01*
X155191578Y-105926678D01*
X155199968Y-105937897D01*
X155207783Y-105950058D01*
X155223500Y-106003582D01*
X155223500Y-107495149D01*
X155224581Y-107528204D01*
X155225214Y-107537852D01*
X155228458Y-107570802D01*
X155243587Y-107685720D01*
X155243588Y-107685725D01*
X155256489Y-107750586D01*
X155261492Y-107769255D01*
X155277786Y-107817253D01*
X155282744Y-107831858D01*
X155325237Y-107934445D01*
X155354481Y-107993747D01*
X155354484Y-107993752D01*
X155364139Y-108010476D01*
X155382629Y-108038148D01*
X155400878Y-108065459D01*
X155468477Y-108153555D01*
X155468484Y-108153563D01*
X155468487Y-108153567D01*
X155508260Y-108198917D01*
X155512074Y-108203266D01*
X155525733Y-108216925D01*
X155575444Y-108260522D01*
X155663540Y-108328121D01*
X155718522Y-108364859D01*
X155735252Y-108374518D01*
X155794554Y-108403762D01*
X155897141Y-108446255D01*
X155959753Y-108467509D01*
X155978413Y-108472509D01*
X156043266Y-108485409D01*
X156158210Y-108500542D01*
X156191135Y-108503785D01*
X156200794Y-108504418D01*
X156233851Y-108505500D01*
X158619780Y-108505500D01*
X158677971Y-108524407D01*
X158713935Y-108573907D01*
X158718777Y-108605270D01*
X158717468Y-108773537D01*
X158717469Y-108773553D01*
X158724270Y-108860208D01*
X158724270Y-108860209D01*
X158724273Y-108860227D01*
X158727665Y-108880672D01*
X158729000Y-108896870D01*
X158729000Y-108997518D01*
X158723975Y-109028658D01*
X158689000Y-109134205D01*
X158678500Y-109236983D01*
X158678500Y-110287016D01*
X158688999Y-110389788D01*
X158689002Y-110389800D01*
X158723975Y-110495342D01*
X158729000Y-110526482D01*
X158729000Y-110562094D01*
X158724295Y-110588949D01*
X158724991Y-110589126D01*
X158723793Y-110593842D01*
X158702208Y-110736107D01*
X158697200Y-111380245D01*
X158692179Y-111410611D01*
X158689001Y-111420201D01*
X158689000Y-111420206D01*
X158678500Y-111522983D01*
X158678500Y-112573008D01*
X158686707Y-112653350D01*
X158687216Y-112664179D01*
X158681821Y-113358014D01*
X158681822Y-113358030D01*
X158688623Y-113444684D01*
X158688624Y-113444693D01*
X158692774Y-113469705D01*
X158692777Y-113469719D01*
X158719493Y-113554861D01*
X158719009Y-113615639D01*
X158689001Y-113706202D01*
X158689000Y-113706205D01*
X158678500Y-113808983D01*
X158678500Y-114859016D01*
X158688999Y-114961788D01*
X158689003Y-114961803D01*
X158711221Y-115028856D01*
X158711577Y-115090040D01*
X158708420Y-115098573D01*
X158706748Y-115102522D01*
X158706748Y-115102523D01*
X158688339Y-115153439D01*
X158666755Y-115295699D01*
X158661830Y-115929127D01*
X158642471Y-115987169D01*
X158592693Y-116022747D01*
X158531509Y-116022271D01*
X158482290Y-115985923D01*
X158469389Y-115961055D01*
X158459346Y-115932354D01*
X158378792Y-115823209D01*
X158378790Y-115823207D01*
X158269647Y-115742654D01*
X158141601Y-115697850D01*
X158111211Y-115695000D01*
X158057001Y-115695000D01*
X158057000Y-115695001D01*
X158057000Y-117544998D01*
X158057001Y-117544999D01*
X158111203Y-117544999D01*
X158141600Y-117542149D01*
X158141602Y-117542149D01*
X158269647Y-117497345D01*
X158378790Y-117416792D01*
X158378792Y-117416790D01*
X158459347Y-117307643D01*
X158462811Y-117301090D01*
X158464705Y-117302091D01*
X158495435Y-117261714D01*
X158554031Y-117244103D01*
X158611787Y-117264299D01*
X158646643Y-117314585D01*
X158650829Y-117343849D01*
X158646098Y-117952309D01*
X158646099Y-117952327D01*
X158652900Y-118038978D01*
X158652901Y-118038988D01*
X158652902Y-118038992D01*
X158657052Y-118064004D01*
X158699182Y-118198265D01*
X158699183Y-118198266D01*
X158699184Y-118198269D01*
X158702522Y-118203292D01*
X158718978Y-118262223D01*
X158717211Y-118276138D01*
X158706500Y-118380983D01*
X158706500Y-119431016D01*
X158715974Y-119523752D01*
X158703079Y-119583563D01*
X158702235Y-119584988D01*
X158693446Y-119599542D01*
X158671367Y-119651693D01*
X158652967Y-119702586D01*
X158631383Y-119844844D01*
X158628465Y-120220142D01*
X158628707Y-120240174D01*
X158629083Y-120244189D01*
X158627264Y-120244359D01*
X158619681Y-120298081D01*
X158609270Y-120314894D01*
X158566173Y-120371060D01*
X158566172Y-120371061D01*
X158506296Y-120515617D01*
X158506294Y-120515623D01*
X158491000Y-120631796D01*
X158491000Y-120922203D01*
X158506294Y-121038376D01*
X158506295Y-121038381D01*
X158516955Y-121064116D01*
X158521754Y-121125113D01*
X158516955Y-121139884D01*
X158506295Y-121165618D01*
X158506294Y-121165623D01*
X158491000Y-121281796D01*
X158491000Y-121572203D01*
X158506294Y-121688376D01*
X158506295Y-121688381D01*
X158516955Y-121714116D01*
X158521754Y-121775113D01*
X158516955Y-121789884D01*
X158506295Y-121815618D01*
X158506294Y-121815623D01*
X158491000Y-121931796D01*
X158491000Y-122222203D01*
X158506030Y-122336371D01*
X158506295Y-122338380D01*
X158506296Y-122338384D01*
X158506696Y-122339873D01*
X158506637Y-122340983D01*
X158507142Y-122344813D01*
X158506432Y-122344906D01*
X158503496Y-122400974D01*
X158464993Y-122448526D01*
X158411070Y-122464500D01*
X157991851Y-122464500D01*
X157958793Y-122465582D01*
X157949134Y-122466215D01*
X157945358Y-122466587D01*
X157916212Y-122469458D01*
X157916205Y-122469458D01*
X157916204Y-122469459D01*
X157853310Y-122477738D01*
X157793149Y-122466587D01*
X157751033Y-122422204D01*
X157743048Y-122361542D01*
X157749826Y-122339596D01*
X157782985Y-122264500D01*
X157591501Y-122264500D01*
X157591500Y-122264501D01*
X157591500Y-122485468D01*
X157572593Y-122543659D01*
X157536286Y-122574259D01*
X157493269Y-122595471D01*
X157493260Y-122595476D01*
X157476529Y-122605135D01*
X157421536Y-122641879D01*
X157421526Y-122641887D01*
X157333466Y-122709459D01*
X157333426Y-122709492D01*
X157283737Y-122753069D01*
X157283728Y-122753078D01*
X157270078Y-122766728D01*
X157260825Y-122777277D01*
X157208243Y-122808559D01*
X157186396Y-122811000D01*
X153833500Y-122811000D01*
X153775309Y-122792093D01*
X153739345Y-122742593D01*
X153734500Y-122712000D01*
X153734500Y-122264500D01*
X157025014Y-122264500D01*
X157063707Y-122352131D01*
X157063709Y-122352134D01*
X157141365Y-122429791D01*
X157216500Y-122462965D01*
X157216500Y-122264501D01*
X157216499Y-122264500D01*
X157025014Y-122264500D01*
X153734500Y-122264500D01*
X153734500Y-121889499D01*
X157025014Y-121889499D01*
X157025014Y-121889500D01*
X157216499Y-121889500D01*
X157216500Y-121889499D01*
X157216500Y-121614501D01*
X157591500Y-121614501D01*
X157591500Y-121889499D01*
X157591501Y-121889500D01*
X157782986Y-121889500D01*
X157782985Y-121889499D01*
X157740586Y-121793474D01*
X157743779Y-121792064D01*
X157731170Y-121749259D01*
X157743357Y-121711749D01*
X157740586Y-121710526D01*
X157782985Y-121614500D01*
X157591501Y-121614500D01*
X157591500Y-121614501D01*
X157216500Y-121614501D01*
X157216499Y-121614500D01*
X157025014Y-121614500D01*
X157067414Y-121710526D01*
X157064226Y-121711933D01*
X157076828Y-121754786D01*
X157064653Y-121792255D01*
X157067414Y-121793474D01*
X157025014Y-121889499D01*
X153734500Y-121889499D01*
X153734500Y-121239499D01*
X157025014Y-121239499D01*
X157025014Y-121239500D01*
X157216499Y-121239500D01*
X157216500Y-121239499D01*
X157216500Y-120964501D01*
X157591500Y-120964501D01*
X157591500Y-121239499D01*
X157591501Y-121239500D01*
X157782986Y-121239500D01*
X157782985Y-121239499D01*
X157740586Y-121143474D01*
X157743779Y-121142064D01*
X157731170Y-121099259D01*
X157743357Y-121061749D01*
X157740586Y-121060526D01*
X157782985Y-120964500D01*
X157591501Y-120964500D01*
X157591500Y-120964501D01*
X157216500Y-120964501D01*
X157216499Y-120964500D01*
X157025014Y-120964500D01*
X157067414Y-121060526D01*
X157064226Y-121061933D01*
X157076828Y-121104786D01*
X157064653Y-121142255D01*
X157067414Y-121143474D01*
X157025014Y-121239499D01*
X153734500Y-121239499D01*
X153734500Y-120589499D01*
X157025014Y-120589499D01*
X157025014Y-120589500D01*
X157216499Y-120589500D01*
X157216500Y-120589499D01*
X157591500Y-120589499D01*
X157591501Y-120589500D01*
X157782986Y-120589500D01*
X157782985Y-120589499D01*
X157744292Y-120501868D01*
X157666632Y-120424208D01*
X157591500Y-120391033D01*
X157591500Y-120589499D01*
X157216500Y-120589499D01*
X157216500Y-120391033D01*
X157141367Y-120424208D01*
X157063707Y-120501868D01*
X157025014Y-120589499D01*
X153734500Y-120589499D01*
X153734500Y-119156001D01*
X157107001Y-119156001D01*
X157107001Y-119435203D01*
X157109850Y-119465600D01*
X157109850Y-119465602D01*
X157154654Y-119593647D01*
X157235207Y-119702790D01*
X157235209Y-119702792D01*
X157344352Y-119783345D01*
X157472399Y-119828149D01*
X157502788Y-119830999D01*
X157556999Y-119830998D01*
X157557000Y-119830998D01*
X157557000Y-119156001D01*
X158057000Y-119156001D01*
X158057000Y-119830998D01*
X158057001Y-119830999D01*
X158111203Y-119830999D01*
X158141600Y-119828149D01*
X158141602Y-119828149D01*
X158269647Y-119783345D01*
X158378790Y-119702792D01*
X158378792Y-119702790D01*
X158459345Y-119593647D01*
X158504149Y-119465601D01*
X158506999Y-119435211D01*
X158507000Y-119435210D01*
X158507000Y-119156001D01*
X158506999Y-119156000D01*
X158057001Y-119156000D01*
X158057000Y-119156001D01*
X157557000Y-119156001D01*
X157556999Y-119156000D01*
X157107002Y-119156000D01*
X157107001Y-119156001D01*
X153734500Y-119156001D01*
X153734500Y-119004849D01*
X153734464Y-119003767D01*
X153733418Y-118971793D01*
X153732785Y-118962134D01*
X153729542Y-118929208D01*
X153714409Y-118814265D01*
X153701509Y-118749413D01*
X153696509Y-118730753D01*
X153675255Y-118668141D01*
X153632762Y-118565554D01*
X153603518Y-118506252D01*
X153593859Y-118489522D01*
X153557121Y-118434540D01*
X153512806Y-118376788D01*
X157107000Y-118376788D01*
X157107000Y-118655999D01*
X157107001Y-118656000D01*
X157556999Y-118656000D01*
X157557000Y-118655999D01*
X157557000Y-117981001D01*
X158057000Y-117981001D01*
X158057000Y-118655999D01*
X158057001Y-118656000D01*
X158506998Y-118656000D01*
X158506999Y-118655999D01*
X158506999Y-118376796D01*
X158504149Y-118346399D01*
X158504149Y-118346397D01*
X158459345Y-118218352D01*
X158378792Y-118109209D01*
X158378790Y-118109207D01*
X158269647Y-118028654D01*
X158141601Y-117983850D01*
X158111211Y-117981000D01*
X158057001Y-117981000D01*
X158057000Y-117981001D01*
X157557000Y-117981001D01*
X157557000Y-117980999D01*
X157502796Y-117981000D01*
X157472399Y-117983850D01*
X157472397Y-117983850D01*
X157344352Y-118028654D01*
X157235209Y-118109207D01*
X157235207Y-118109209D01*
X157154654Y-118218352D01*
X157109850Y-118346398D01*
X157107000Y-118376788D01*
X153512806Y-118376788D01*
X153489522Y-118346444D01*
X153489506Y-118346426D01*
X153445933Y-118296742D01*
X153445932Y-118296741D01*
X153445925Y-118296733D01*
X153432266Y-118283074D01*
X153426712Y-118278203D01*
X153382567Y-118239487D01*
X153382537Y-118239463D01*
X153294470Y-118171885D01*
X153294465Y-118171882D01*
X153268007Y-118154203D01*
X153239488Y-118135147D01*
X153233911Y-118131927D01*
X153222763Y-118125490D01*
X153163445Y-118096237D01*
X153163436Y-118096233D01*
X153060860Y-118053744D01*
X152998249Y-118032490D01*
X152998237Y-118032487D01*
X152979611Y-118027495D01*
X152979592Y-118027491D01*
X152914743Y-118014590D01*
X152914717Y-118014586D01*
X152799805Y-117999459D01*
X152799789Y-117999457D01*
X152799786Y-117999457D01*
X152766865Y-117996215D01*
X152766856Y-117996214D01*
X152766852Y-117996214D01*
X152757204Y-117995581D01*
X152724149Y-117994500D01*
X147733851Y-117994500D01*
X147700793Y-117995582D01*
X147691134Y-117996215D01*
X147658208Y-117999458D01*
X147543272Y-118014589D01*
X147478418Y-118027488D01*
X147459783Y-118032481D01*
X147459778Y-118032482D01*
X147459773Y-118032484D01*
X147436365Y-118040429D01*
X147397148Y-118053741D01*
X147294545Y-118096241D01*
X147235280Y-118125465D01*
X147235260Y-118125476D01*
X147218529Y-118135135D01*
X147163536Y-118171879D01*
X147163526Y-118171887D01*
X147075466Y-118239459D01*
X147075426Y-118239492D01*
X147025737Y-118283069D01*
X147012069Y-118296737D01*
X146968492Y-118346426D01*
X146968459Y-118346466D01*
X146900887Y-118434526D01*
X146900879Y-118434536D01*
X146864135Y-118489529D01*
X146854476Y-118506260D01*
X146854465Y-118506280D01*
X146825241Y-118565545D01*
X146782741Y-118668148D01*
X146769429Y-118707365D01*
X146761495Y-118730743D01*
X146761481Y-118730783D01*
X146756488Y-118749418D01*
X146743590Y-118814263D01*
X146743588Y-118814274D01*
X146728458Y-118929209D01*
X146725215Y-118962131D01*
X146724582Y-118971792D01*
X146723500Y-119004849D01*
X146723500Y-121623415D01*
X146704593Y-121681606D01*
X146655093Y-121717570D01*
X146593907Y-121717570D01*
X146554498Y-121693420D01*
X146431262Y-121570184D01*
X146431259Y-121570182D01*
X146431258Y-121570181D01*
X146278523Y-121474211D01*
X146108261Y-121414633D01*
X146108257Y-121414632D01*
X145929000Y-121394435D01*
X145749742Y-121414632D01*
X145749738Y-121414633D01*
X145579477Y-121474211D01*
X145579476Y-121474211D01*
X145426741Y-121570181D01*
X145299181Y-121697741D01*
X145203211Y-121850476D01*
X145203211Y-121850477D01*
X145143631Y-122020743D01*
X145143631Y-122020745D01*
X145141015Y-122043965D01*
X145115711Y-122099672D01*
X145093855Y-122117601D01*
X144970028Y-122192458D01*
X144970025Y-122192460D01*
X144873033Y-122289452D01*
X144818517Y-122317229D01*
X144779405Y-122315588D01*
X144776920Y-122314977D01*
X144776916Y-122314976D01*
X144776911Y-122314975D01*
X144776910Y-122314975D01*
X144634505Y-122294500D01*
X144634500Y-122294500D01*
X143483851Y-122294500D01*
X143450793Y-122295582D01*
X143441134Y-122296215D01*
X143408208Y-122299458D01*
X143293272Y-122314589D01*
X143228418Y-122327488D01*
X143209783Y-122332481D01*
X143209778Y-122332482D01*
X143209773Y-122332484D01*
X143188821Y-122339596D01*
X143147142Y-122353743D01*
X143071385Y-122385123D01*
X143010389Y-122389924D01*
X142958220Y-122357954D01*
X142934805Y-122301426D01*
X142934500Y-122293659D01*
X142934500Y-122099006D01*
X142928342Y-122020745D01*
X142928278Y-122019930D01*
X142923433Y-121989337D01*
X142900257Y-121898533D01*
X142833113Y-121771281D01*
X142819104Y-121752000D01*
X142797146Y-121721777D01*
X142779523Y-121698923D01*
X142779521Y-121698921D01*
X142779518Y-121698917D01*
X142673514Y-121601629D01*
X142673513Y-121601628D01*
X142544399Y-121538148D01*
X142486181Y-121519232D01*
X142472416Y-121514976D01*
X142472402Y-121514973D01*
X142330005Y-121494500D01*
X142330000Y-121494500D01*
X141333500Y-121494500D01*
X141275309Y-121475593D01*
X141239345Y-121426093D01*
X141234500Y-121395500D01*
X141234500Y-120200001D01*
X141654001Y-120200001D01*
X141654001Y-120654203D01*
X141656850Y-120684600D01*
X141656850Y-120684602D01*
X141701654Y-120812647D01*
X141782207Y-120921790D01*
X141782209Y-120921792D01*
X141891352Y-121002345D01*
X142019398Y-121047149D01*
X142049789Y-121049999D01*
X142179000Y-121049999D01*
X142179000Y-120200001D01*
X142679000Y-120200001D01*
X142679000Y-121049998D01*
X142679001Y-121049999D01*
X142808203Y-121049999D01*
X142838600Y-121047149D01*
X142838602Y-121047149D01*
X142966647Y-121002345D01*
X143075790Y-120921792D01*
X143075792Y-120921790D01*
X143156345Y-120812647D01*
X143201149Y-120684601D01*
X143203999Y-120654211D01*
X143204000Y-120654210D01*
X143204000Y-120200001D01*
X143203999Y-120200000D01*
X142679001Y-120200000D01*
X142679000Y-120200001D01*
X142179000Y-120200001D01*
X142178999Y-120200000D01*
X141654002Y-120200000D01*
X141654001Y-120200001D01*
X141234500Y-120200001D01*
X141234500Y-119245788D01*
X141654000Y-119245788D01*
X141654000Y-119699999D01*
X141654001Y-119700000D01*
X142178999Y-119700000D01*
X142179000Y-119699999D01*
X142179000Y-118850001D01*
X142679000Y-118850001D01*
X142679000Y-119699999D01*
X142679001Y-119700000D01*
X143203998Y-119700000D01*
X143203999Y-119699999D01*
X143203999Y-119245796D01*
X143201149Y-119215399D01*
X143201149Y-119215397D01*
X143156345Y-119087352D01*
X143075792Y-118978209D01*
X143075790Y-118978207D01*
X142966647Y-118897654D01*
X142838601Y-118852850D01*
X142808211Y-118850000D01*
X142679001Y-118850000D01*
X142679000Y-118850001D01*
X142179000Y-118850001D01*
X142178999Y-118850000D01*
X142049796Y-118850000D01*
X142019399Y-118852850D01*
X142019397Y-118852850D01*
X141891352Y-118897654D01*
X141782209Y-118978207D01*
X141782207Y-118978209D01*
X141701654Y-119087352D01*
X141656850Y-119215398D01*
X141654000Y-119245788D01*
X141234500Y-119245788D01*
X141234500Y-117700001D01*
X141654001Y-117700001D01*
X141654001Y-118154203D01*
X141656850Y-118184600D01*
X141656850Y-118184602D01*
X141701654Y-118312647D01*
X141782207Y-118421790D01*
X141782209Y-118421792D01*
X141891352Y-118502345D01*
X142019398Y-118547149D01*
X142049789Y-118549999D01*
X142179000Y-118549999D01*
X142179000Y-117700001D01*
X142679000Y-117700001D01*
X142679000Y-118549998D01*
X142679001Y-118549999D01*
X142808203Y-118549999D01*
X142838600Y-118547149D01*
X142838602Y-118547149D01*
X142966647Y-118502345D01*
X143075790Y-118421792D01*
X143075792Y-118421790D01*
X143156345Y-118312647D01*
X143201149Y-118184601D01*
X143203999Y-118154211D01*
X143204000Y-118154210D01*
X143204000Y-117700001D01*
X143203999Y-117700000D01*
X142679001Y-117700000D01*
X142679000Y-117700001D01*
X142179000Y-117700001D01*
X142178999Y-117700000D01*
X141654002Y-117700000D01*
X141654001Y-117700001D01*
X141234500Y-117700001D01*
X141234500Y-116745788D01*
X141654000Y-116745788D01*
X141654000Y-117199999D01*
X141654001Y-117200000D01*
X142178999Y-117200000D01*
X142179000Y-117199999D01*
X142179000Y-116350001D01*
X142679000Y-116350001D01*
X142679000Y-117199999D01*
X142679001Y-117200000D01*
X143203998Y-117200000D01*
X143203999Y-117199999D01*
X143203999Y-116870001D01*
X157107001Y-116870001D01*
X157107001Y-117149203D01*
X157109850Y-117179600D01*
X157109850Y-117179602D01*
X157154654Y-117307647D01*
X157235207Y-117416790D01*
X157235209Y-117416792D01*
X157344352Y-117497345D01*
X157472399Y-117542149D01*
X157502788Y-117544999D01*
X157556999Y-117544998D01*
X157557000Y-117544998D01*
X157557000Y-116870001D01*
X157556999Y-116870000D01*
X157107002Y-116870000D01*
X157107001Y-116870001D01*
X143203999Y-116870001D01*
X143203999Y-116745796D01*
X143201149Y-116715399D01*
X143201149Y-116715397D01*
X143156345Y-116587352D01*
X143075792Y-116478209D01*
X143075790Y-116478207D01*
X142966647Y-116397654D01*
X142838601Y-116352850D01*
X142808211Y-116350000D01*
X142679001Y-116350000D01*
X142679000Y-116350001D01*
X142179000Y-116350001D01*
X142178999Y-116350000D01*
X142049796Y-116350000D01*
X142019399Y-116352850D01*
X142019397Y-116352850D01*
X141891352Y-116397654D01*
X141782209Y-116478207D01*
X141782207Y-116478209D01*
X141701654Y-116587352D01*
X141656850Y-116715398D01*
X141654000Y-116745788D01*
X141234500Y-116745788D01*
X141234500Y-116090788D01*
X157107000Y-116090788D01*
X157107000Y-116369999D01*
X157107001Y-116370000D01*
X157556999Y-116370000D01*
X157557000Y-116369999D01*
X157557000Y-115694999D01*
X157502796Y-115695000D01*
X157472399Y-115697850D01*
X157472397Y-115697850D01*
X157344352Y-115742654D01*
X157235209Y-115823207D01*
X157235207Y-115823209D01*
X157154654Y-115932352D01*
X157109850Y-116060398D01*
X157107000Y-116090788D01*
X141234500Y-116090788D01*
X141234500Y-115200001D01*
X141654001Y-115200001D01*
X141654001Y-115654203D01*
X141656850Y-115684600D01*
X141656850Y-115684602D01*
X141701654Y-115812647D01*
X141782207Y-115921790D01*
X141782209Y-115921792D01*
X141891352Y-116002345D01*
X142019398Y-116047149D01*
X142049789Y-116049999D01*
X142179000Y-116049999D01*
X142179000Y-115200001D01*
X142679000Y-115200001D01*
X142679000Y-116049998D01*
X142679001Y-116049999D01*
X142808203Y-116049999D01*
X142838600Y-116047149D01*
X142838602Y-116047149D01*
X142966647Y-116002345D01*
X143075790Y-115921792D01*
X143075792Y-115921790D01*
X143156345Y-115812647D01*
X143201149Y-115684601D01*
X143203999Y-115654211D01*
X143204000Y-115654210D01*
X143204000Y-115200001D01*
X143203999Y-115200000D01*
X142679001Y-115200000D01*
X142679000Y-115200001D01*
X142179000Y-115200001D01*
X142178999Y-115200000D01*
X141654002Y-115200000D01*
X141654001Y-115200001D01*
X141234500Y-115200001D01*
X141234500Y-114245788D01*
X141654000Y-114245788D01*
X141654000Y-114699999D01*
X141654001Y-114700000D01*
X142178999Y-114700000D01*
X142179000Y-114699999D01*
X142179000Y-113850001D01*
X142679000Y-113850001D01*
X142679000Y-114699999D01*
X142679001Y-114700000D01*
X143203998Y-114700000D01*
X143203999Y-114699999D01*
X143203999Y-114584001D01*
X157079001Y-114584001D01*
X157079001Y-114863203D01*
X157081850Y-114893600D01*
X157081850Y-114893602D01*
X157126654Y-115021647D01*
X157207207Y-115130790D01*
X157207209Y-115130792D01*
X157316352Y-115211345D01*
X157444399Y-115256149D01*
X157474788Y-115258999D01*
X157528999Y-115258998D01*
X157529000Y-115258998D01*
X157529000Y-114584001D01*
X158029000Y-114584001D01*
X158029000Y-115258998D01*
X158029001Y-115258999D01*
X158083203Y-115258999D01*
X158113600Y-115256149D01*
X158113602Y-115256149D01*
X158241647Y-115211345D01*
X158350790Y-115130792D01*
X158350792Y-115130790D01*
X158431345Y-115021647D01*
X158476149Y-114893601D01*
X158478999Y-114863211D01*
X158479000Y-114863210D01*
X158479000Y-114584001D01*
X158478999Y-114584000D01*
X158029001Y-114584000D01*
X158029000Y-114584001D01*
X157529000Y-114584001D01*
X157528999Y-114584000D01*
X157079002Y-114584000D01*
X157079001Y-114584001D01*
X143203999Y-114584001D01*
X143203999Y-114245796D01*
X143201149Y-114215399D01*
X143201149Y-114215397D01*
X143156345Y-114087352D01*
X143075792Y-113978209D01*
X143075790Y-113978207D01*
X142966647Y-113897654D01*
X142838601Y-113852850D01*
X142808211Y-113850000D01*
X142679001Y-113850000D01*
X142679000Y-113850001D01*
X142179000Y-113850001D01*
X142178999Y-113850000D01*
X142049796Y-113850000D01*
X142019399Y-113852850D01*
X142019397Y-113852850D01*
X141891352Y-113897654D01*
X141782209Y-113978207D01*
X141782207Y-113978209D01*
X141701654Y-114087352D01*
X141656850Y-114215398D01*
X141654000Y-114245788D01*
X141234500Y-114245788D01*
X141234500Y-113804788D01*
X157079000Y-113804788D01*
X157079000Y-114083999D01*
X157079001Y-114084000D01*
X157528999Y-114084000D01*
X157529000Y-114083999D01*
X157529000Y-113409001D01*
X158029000Y-113409001D01*
X158029000Y-114083999D01*
X158029001Y-114084000D01*
X158478998Y-114084000D01*
X158478999Y-114083999D01*
X158478999Y-113804796D01*
X158476149Y-113774399D01*
X158476149Y-113774397D01*
X158431345Y-113646352D01*
X158350792Y-113537209D01*
X158350790Y-113537207D01*
X158241647Y-113456654D01*
X158113601Y-113411850D01*
X158083211Y-113409000D01*
X158029001Y-113409000D01*
X158029000Y-113409001D01*
X157529000Y-113409001D01*
X157529000Y-113408999D01*
X157474796Y-113409000D01*
X157444399Y-113411850D01*
X157444397Y-113411850D01*
X157316352Y-113456654D01*
X157207209Y-113537207D01*
X157207207Y-113537209D01*
X157126654Y-113646352D01*
X157081850Y-113774398D01*
X157079000Y-113804788D01*
X141234500Y-113804788D01*
X141234500Y-112700001D01*
X141654001Y-112700001D01*
X141654001Y-113154203D01*
X141656850Y-113184600D01*
X141656850Y-113184602D01*
X141701654Y-113312647D01*
X141782207Y-113421790D01*
X141782209Y-113421792D01*
X141891352Y-113502345D01*
X142019398Y-113547149D01*
X142049789Y-113549999D01*
X142179000Y-113549999D01*
X142179000Y-112700001D01*
X142679000Y-112700001D01*
X142679000Y-113549998D01*
X142679001Y-113549999D01*
X142808203Y-113549999D01*
X142838600Y-113547149D01*
X142838602Y-113547149D01*
X142966647Y-113502345D01*
X143075790Y-113421792D01*
X143075792Y-113421790D01*
X143156345Y-113312647D01*
X143201149Y-113184601D01*
X143203999Y-113154211D01*
X143204000Y-113154210D01*
X143204000Y-112700001D01*
X143203999Y-112700000D01*
X142679001Y-112700000D01*
X142679000Y-112700001D01*
X142179000Y-112700001D01*
X142178999Y-112700000D01*
X141654002Y-112700000D01*
X141654001Y-112700001D01*
X141234500Y-112700001D01*
X141234500Y-112298001D01*
X157079001Y-112298001D01*
X157079001Y-112577203D01*
X157081850Y-112607600D01*
X157081850Y-112607602D01*
X157126654Y-112735647D01*
X157207207Y-112844790D01*
X157207209Y-112844792D01*
X157316352Y-112925345D01*
X157444399Y-112970149D01*
X157474788Y-112972999D01*
X157528999Y-112972998D01*
X157529000Y-112972998D01*
X157529000Y-112298001D01*
X158029000Y-112298001D01*
X158029000Y-112972998D01*
X158029001Y-112972999D01*
X158083203Y-112972999D01*
X158113600Y-112970149D01*
X158113602Y-112970149D01*
X158241647Y-112925345D01*
X158350790Y-112844792D01*
X158350792Y-112844790D01*
X158431345Y-112735647D01*
X158476149Y-112607601D01*
X158478999Y-112577211D01*
X158479000Y-112577210D01*
X158479000Y-112298001D01*
X158478999Y-112298000D01*
X158029001Y-112298000D01*
X158029000Y-112298001D01*
X157529000Y-112298001D01*
X157528999Y-112298000D01*
X157079002Y-112298000D01*
X157079001Y-112298001D01*
X141234500Y-112298001D01*
X141234500Y-111745788D01*
X141654000Y-111745788D01*
X141654000Y-112199999D01*
X141654001Y-112200000D01*
X142178999Y-112200000D01*
X142179000Y-112199999D01*
X142179000Y-111350001D01*
X142679000Y-111350001D01*
X142679000Y-112199999D01*
X142679001Y-112200000D01*
X143203998Y-112200000D01*
X143203999Y-112199999D01*
X143203999Y-111745796D01*
X143201149Y-111715399D01*
X143201149Y-111715397D01*
X143156345Y-111587352D01*
X143105741Y-111518788D01*
X157079000Y-111518788D01*
X157079000Y-111797999D01*
X157079001Y-111798000D01*
X157528999Y-111798000D01*
X157529000Y-111797999D01*
X157529000Y-111123001D01*
X158029000Y-111123001D01*
X158029000Y-111797999D01*
X158029001Y-111798000D01*
X158478998Y-111798000D01*
X158478999Y-111797999D01*
X158478999Y-111518796D01*
X158476149Y-111488399D01*
X158476149Y-111488397D01*
X158431345Y-111360352D01*
X158350792Y-111251209D01*
X158350790Y-111251207D01*
X158241647Y-111170654D01*
X158113601Y-111125850D01*
X158083211Y-111123000D01*
X158029001Y-111123000D01*
X158029000Y-111123001D01*
X157529000Y-111123001D01*
X157529000Y-111122999D01*
X157474796Y-111123000D01*
X157444399Y-111125850D01*
X157444397Y-111125850D01*
X157316352Y-111170654D01*
X157207209Y-111251207D01*
X157207207Y-111251209D01*
X157126654Y-111360352D01*
X157081850Y-111488398D01*
X157079000Y-111518788D01*
X143105741Y-111518788D01*
X143075792Y-111478209D01*
X143075790Y-111478207D01*
X142966647Y-111397654D01*
X142838601Y-111352850D01*
X142808211Y-111350000D01*
X142679001Y-111350000D01*
X142679000Y-111350001D01*
X142179000Y-111350001D01*
X142178999Y-111350000D01*
X142049796Y-111350000D01*
X142019399Y-111352850D01*
X142019397Y-111352850D01*
X141891352Y-111397654D01*
X141782209Y-111478207D01*
X141782207Y-111478209D01*
X141701654Y-111587352D01*
X141656850Y-111715398D01*
X141654000Y-111745788D01*
X141234500Y-111745788D01*
X141234500Y-110200001D01*
X141679001Y-110200001D01*
X141679001Y-110654203D01*
X141681850Y-110684600D01*
X141681850Y-110684602D01*
X141726654Y-110812647D01*
X141807207Y-110921790D01*
X141807209Y-110921792D01*
X141916352Y-111002345D01*
X142044398Y-111047149D01*
X142074789Y-111049999D01*
X142204000Y-111049999D01*
X142204000Y-110200001D01*
X142704000Y-110200001D01*
X142704000Y-111049998D01*
X142704001Y-111049999D01*
X142833203Y-111049999D01*
X142863600Y-111047149D01*
X142863602Y-111047149D01*
X142991647Y-111002345D01*
X143100790Y-110921792D01*
X143100792Y-110921790D01*
X143181345Y-110812647D01*
X143226149Y-110684601D01*
X143228999Y-110654211D01*
X143229000Y-110654210D01*
X143229000Y-110200001D01*
X143228999Y-110200000D01*
X142704001Y-110200000D01*
X142704000Y-110200001D01*
X142204000Y-110200001D01*
X142203999Y-110200000D01*
X141679002Y-110200000D01*
X141679001Y-110200001D01*
X141234500Y-110200001D01*
X141234500Y-109245788D01*
X141679000Y-109245788D01*
X141679000Y-109699999D01*
X141679001Y-109700000D01*
X142203999Y-109700000D01*
X142204000Y-109699999D01*
X142204000Y-108850001D01*
X142704000Y-108850001D01*
X142704000Y-109699999D01*
X142704001Y-109700000D01*
X143228998Y-109700000D01*
X143228999Y-109699999D01*
X143228999Y-109245796D01*
X143226149Y-109215399D01*
X143226149Y-109215397D01*
X143181345Y-109087352D01*
X143100792Y-108978209D01*
X143100790Y-108978207D01*
X142991647Y-108897654D01*
X142863601Y-108852850D01*
X142833211Y-108850000D01*
X142704001Y-108850000D01*
X142704000Y-108850001D01*
X142204000Y-108850001D01*
X142203999Y-108850000D01*
X142074796Y-108850000D01*
X142044399Y-108852850D01*
X142044397Y-108852850D01*
X141916352Y-108897654D01*
X141807209Y-108978207D01*
X141807207Y-108978209D01*
X141726654Y-109087352D01*
X141681850Y-109215398D01*
X141679000Y-109245788D01*
X141234500Y-109245788D01*
X141234500Y-108599006D01*
X141228630Y-108524407D01*
X141228278Y-108519930D01*
X141223433Y-108489337D01*
X141200257Y-108398533D01*
X141133113Y-108271281D01*
X141097149Y-108221781D01*
X141093411Y-108216933D01*
X141079523Y-108198923D01*
X141079521Y-108198921D01*
X141079518Y-108198917D01*
X140973514Y-108101629D01*
X140973513Y-108101628D01*
X140844399Y-108038148D01*
X140786181Y-108019232D01*
X140772416Y-108014976D01*
X140772402Y-108014973D01*
X140630005Y-107994500D01*
X140630000Y-107994500D01*
X135943500Y-107994500D01*
X135885309Y-107975593D01*
X135849345Y-107926093D01*
X135844500Y-107895500D01*
X135844500Y-107341234D01*
X135843508Y-107278130D01*
X135843263Y-107270368D01*
X135843263Y-107270359D01*
X135840297Y-107207505D01*
X135833609Y-107101213D01*
X135833609Y-107088783D01*
X135837168Y-107032216D01*
X135840297Y-106982493D01*
X135843263Y-106919639D01*
X135843508Y-106911853D01*
X135844500Y-106848778D01*
X135844500Y-105436220D01*
X135843508Y-105373145D01*
X135843263Y-105365359D01*
X135840297Y-105302505D01*
X135833609Y-105196213D01*
X135833609Y-105183783D01*
X135836672Y-105135101D01*
X135840297Y-105077493D01*
X135843263Y-105014639D01*
X135843508Y-105006853D01*
X135844500Y-104943778D01*
X135844500Y-103531220D01*
X135843508Y-103468145D01*
X135843263Y-103460359D01*
X135840297Y-103397505D01*
X135833609Y-103291213D01*
X135833609Y-103278783D01*
X135840297Y-103172493D01*
X135843263Y-103109639D01*
X135843508Y-103101853D01*
X135844500Y-103038778D01*
X135844500Y-101626220D01*
X135843508Y-101563145D01*
X135843263Y-101555359D01*
X135840297Y-101492505D01*
X135833609Y-101386213D01*
X135833609Y-101373783D01*
X135840297Y-101267493D01*
X135843263Y-101204639D01*
X135843508Y-101196853D01*
X135844500Y-101133778D01*
X135844500Y-99819391D01*
X135840536Y-99693354D01*
X135839557Y-99677807D01*
X135839250Y-99674568D01*
X135839005Y-99671459D01*
X135830086Y-99529697D01*
X135828609Y-99506211D01*
X135828609Y-99493781D01*
X135829755Y-99475567D01*
X135839012Y-99328413D01*
X135839256Y-99325336D01*
X135839565Y-99322079D01*
X135840543Y-99306534D01*
X135844500Y-99180609D01*
X135844500Y-98661092D01*
X135842085Y-98562701D01*
X135841488Y-98550547D01*
X135834245Y-98452359D01*
X135816824Y-98275486D01*
X135787951Y-98080833D01*
X135783209Y-98056992D01*
X135775017Y-98024285D01*
X135735387Y-97866070D01*
X135735384Y-97866059D01*
X135719888Y-97814976D01*
X135685569Y-97701840D01*
X135685560Y-97701817D01*
X135685556Y-97701802D01*
X135625905Y-97535095D01*
X135619247Y-97516488D01*
X135609944Y-97494030D01*
X135588147Y-97447947D01*
X135578642Y-97405602D01*
X135578982Y-95548982D01*
X135597900Y-95490795D01*
X135647407Y-95454840D01*
X135677982Y-95450000D01*
X142017544Y-95450000D01*
X142075735Y-95468907D01*
G37*
%TD.AperFunction*%
%TD*%
%TA.AperFunction,Conductor*%
%TO.N,/+12V_OUT*%
G36*
X136228656Y-67500602D02*
G01*
X136406241Y-67518164D01*
X136430176Y-67522945D01*
X136595007Y-67573162D01*
X136617529Y-67582533D01*
X136769337Y-67664067D01*
X136789589Y-67677670D01*
X136922483Y-67787358D01*
X136939682Y-67804668D01*
X137047201Y-67936648D01*
X137048511Y-67938255D01*
X137061990Y-67958604D01*
X137142544Y-68110922D01*
X137151776Y-68133516D01*
X137200934Y-68298662D01*
X137205561Y-68322625D01*
X137221986Y-68500326D01*
X137222509Y-68512534D01*
X137185450Y-74293582D01*
X137185451Y-74293595D01*
X137179000Y-75300000D01*
X138409522Y-75300000D01*
X138421778Y-75300607D01*
X138600129Y-75318322D01*
X138624153Y-75323142D01*
X138789633Y-75373789D01*
X138812248Y-75383245D01*
X138964518Y-75465447D01*
X138984832Y-75479166D01*
X139117966Y-75589723D01*
X139135184Y-75607171D01*
X139243964Y-75741752D01*
X139257413Y-75762245D01*
X139337595Y-75915598D01*
X139346750Y-75938337D01*
X139395198Y-76104465D01*
X139399701Y-76128559D01*
X139415053Y-76307121D01*
X139415498Y-76319385D01*
X139342149Y-81857206D01*
X139341403Y-81869249D01*
X139321953Y-82044407D01*
X139316976Y-82067992D01*
X139265830Y-82230288D01*
X139256386Y-82252464D01*
X139174804Y-82401808D01*
X139161246Y-82421739D01*
X139052316Y-82552471D01*
X139035160Y-82569401D01*
X138902996Y-82676590D01*
X138882888Y-82689882D01*
X138732485Y-82769476D01*
X138710185Y-82778627D01*
X138547219Y-82827620D01*
X138523572Y-82832283D01*
X138365276Y-82847742D01*
X138348166Y-82849413D01*
X138336116Y-82850000D01*
X137982566Y-82850000D01*
X137946181Y-82844542D01*
X137914543Y-82834831D01*
X137837536Y-82811194D01*
X137837535Y-82811194D01*
X137789579Y-82799007D01*
X137765864Y-82794201D01*
X137765813Y-82794192D01*
X137716940Y-82786759D01*
X137716918Y-82786756D01*
X137716911Y-82786755D01*
X137716906Y-82786754D01*
X137716895Y-82786753D01*
X137540554Y-82768709D01*
X137540553Y-82768708D01*
X137540544Y-82768708D01*
X137531078Y-82767973D01*
X137515823Y-82766788D01*
X137503788Y-82766150D01*
X137479009Y-82765443D01*
X134956662Y-82755222D01*
X134901563Y-82758009D01*
X134874712Y-82760842D01*
X134874707Y-82760842D01*
X134874686Y-82760845D01*
X134820293Y-82769605D01*
X134685480Y-82819890D01*
X134685479Y-82819891D01*
X134658121Y-82834831D01*
X134598692Y-82850000D01*
X134567352Y-82850000D01*
X134528348Y-82843706D01*
X134516895Y-82839911D01*
X134504156Y-82838609D01*
X134414995Y-82829500D01*
X134414988Y-82829500D01*
X132938500Y-82829500D01*
X132871461Y-82809815D01*
X132825706Y-82757011D01*
X132814500Y-82705500D01*
X132814500Y-82444384D01*
X132816006Y-82439253D01*
X132813760Y-82397692D01*
X132813759Y-82397679D01*
X132811316Y-82368351D01*
X132809056Y-82348298D01*
X132805692Y-82318436D01*
X132792205Y-82198728D01*
X132792203Y-82198716D01*
X132792202Y-82198707D01*
X132782705Y-82142815D01*
X132776526Y-82115744D01*
X132760833Y-82061274D01*
X132760830Y-82061267D01*
X132760828Y-82061258D01*
X132760827Y-82061255D01*
X132709048Y-81913283D01*
X132688666Y-81864075D01*
X132687358Y-81860915D01*
X132675311Y-81835898D01*
X132647886Y-81786276D01*
X132564461Y-81653506D01*
X132531652Y-81607267D01*
X132514339Y-81585558D01*
X132476571Y-81543297D01*
X132476563Y-81543288D01*
X132406895Y-81473620D01*
X133599001Y-81473620D01*
X133605319Y-81532401D01*
X133654923Y-81665390D01*
X133739983Y-81779016D01*
X133853607Y-81864075D01*
X133986602Y-81913680D01*
X134045377Y-81919999D01*
X135614000Y-81919999D01*
X135682611Y-81919999D01*
X135682620Y-81919998D01*
X135741401Y-81913680D01*
X135874390Y-81864076D01*
X135988016Y-81779016D01*
X136073075Y-81665392D01*
X136122680Y-81532397D01*
X136128999Y-81473631D01*
X136129000Y-81473614D01*
X136129000Y-80770000D01*
X135614000Y-80770000D01*
X135614000Y-81919999D01*
X134045377Y-81919999D01*
X134113999Y-81919998D01*
X134114000Y-81919998D01*
X134114000Y-80770000D01*
X133599001Y-80770000D01*
X133599001Y-81473620D01*
X132406895Y-81473620D01*
X132365710Y-81432435D01*
X132358641Y-81426118D01*
X132323441Y-81394660D01*
X132301732Y-81377347D01*
X132255490Y-81344536D01*
X132252194Y-81342465D01*
X132225096Y-81325438D01*
X132225091Y-81325436D01*
X132122721Y-81261112D01*
X132122712Y-81261107D01*
X132122708Y-81261104D01*
X132073095Y-81233685D01*
X132073092Y-81233683D01*
X132073089Y-81233682D01*
X132064304Y-81229451D01*
X132048085Y-81221641D01*
X131995716Y-81199951D01*
X131847732Y-81148168D01*
X131815989Y-81139023D01*
X131793244Y-81132470D01*
X131793241Y-81132469D01*
X131793233Y-81132467D01*
X131793229Y-81132466D01*
X131766181Y-81126293D01*
X131766165Y-81126290D01*
X131710301Y-81116799D01*
X131710270Y-81116795D01*
X131547523Y-81098458D01*
X131519241Y-81096072D01*
X131505358Y-81095293D01*
X131493403Y-81094958D01*
X131426942Y-81073402D01*
X131382685Y-81019337D01*
X131372880Y-80971411D01*
X131372224Y-80770000D01*
X131364636Y-78440618D01*
X131373441Y-78394324D01*
X131446324Y-78211403D01*
X131491138Y-78049996D01*
X132153435Y-78049996D01*
X132153435Y-78050003D01*
X132173630Y-78229249D01*
X132173631Y-78229254D01*
X132233211Y-78399522D01*
X132302481Y-78509764D01*
X132312048Y-78528284D01*
X132319061Y-78545215D01*
X132328500Y-78592667D01*
X132328500Y-79633070D01*
X132331289Y-79662814D01*
X132331291Y-79662826D01*
X132375147Y-79788155D01*
X132375148Y-79788157D01*
X132454001Y-79894999D01*
X132560843Y-79973852D01*
X132599003Y-79987204D01*
X132686173Y-80017708D01*
X132686177Y-80017708D01*
X132686181Y-80017710D01*
X132701057Y-80019105D01*
X132715930Y-80020500D01*
X132715934Y-80020500D01*
X133202070Y-80020500D01*
X133215289Y-80019260D01*
X133231819Y-80017710D01*
X133231823Y-80017708D01*
X133231826Y-80017708D01*
X133280836Y-80000557D01*
X133357157Y-79973852D01*
X133463999Y-79894999D01*
X133542852Y-79788157D01*
X133586710Y-79662819D01*
X133589500Y-79633066D01*
X133589500Y-79394000D01*
X133609185Y-79326961D01*
X133661989Y-79281206D01*
X133713500Y-79270000D01*
X134114000Y-79270000D01*
X135614000Y-79270000D01*
X136128999Y-79270000D01*
X136128999Y-78566388D01*
X136128998Y-78566379D01*
X136122680Y-78507598D01*
X136073076Y-78374609D01*
X135988016Y-78260983D01*
X135874392Y-78175924D01*
X135741397Y-78126319D01*
X135682631Y-78120000D01*
X135614000Y-78120000D01*
X135614000Y-79270000D01*
X134114000Y-79270000D01*
X134114000Y-78120000D01*
X134113999Y-78119999D01*
X134045389Y-78120000D01*
X134045380Y-78120001D01*
X133986598Y-78126319D01*
X133930546Y-78147226D01*
X133860854Y-78152210D01*
X133799531Y-78118725D01*
X133766047Y-78057401D01*
X133763993Y-78044927D01*
X133744369Y-77870749D01*
X133744368Y-77870745D01*
X133684788Y-77700476D01*
X133588815Y-77547737D01*
X133461262Y-77420184D01*
X133308523Y-77324211D01*
X133138254Y-77264631D01*
X133138249Y-77264630D01*
X132959004Y-77244435D01*
X132958996Y-77244435D01*
X132779750Y-77264630D01*
X132779745Y-77264631D01*
X132609476Y-77324211D01*
X132456737Y-77420184D01*
X132329184Y-77547737D01*
X132233211Y-77700476D01*
X132173631Y-77870745D01*
X132173630Y-77870750D01*
X132153435Y-78049996D01*
X131491138Y-78049996D01*
X131542071Y-77866552D01*
X131599972Y-77513371D01*
X131619348Y-77156000D01*
X131599972Y-76798629D01*
X131542071Y-76445448D01*
X131446324Y-76100597D01*
X131365006Y-75896505D01*
X131356201Y-75851015D01*
X131355912Y-75762245D01*
X131346464Y-72861530D01*
X132559000Y-72861530D01*
X132590763Y-73062076D01*
X132653511Y-73255192D01*
X132745695Y-73436110D01*
X132865037Y-73600372D01*
X132865041Y-73600377D01*
X133008619Y-73743955D01*
X133008622Y-73743957D01*
X133099000Y-73809619D01*
X133099000Y-73809618D01*
X134599000Y-73809618D01*
X134689377Y-73743957D01*
X134689380Y-73743955D01*
X134832958Y-73600377D01*
X134832962Y-73600372D01*
X134952304Y-73436110D01*
X135044488Y-73255192D01*
X135107236Y-73062076D01*
X135139000Y-72861530D01*
X135139000Y-72750000D01*
X134599000Y-72750000D01*
X134599000Y-73809618D01*
X133099000Y-73809618D01*
X133099000Y-72750000D01*
X132559000Y-72750000D01*
X132559000Y-72861530D01*
X131346464Y-72861530D01*
X131343433Y-71931056D01*
X133149000Y-71931056D01*
X133149000Y-72068944D01*
X133175901Y-72204182D01*
X133228668Y-72331574D01*
X133305274Y-72446224D01*
X133402776Y-72543726D01*
X133517426Y-72620332D01*
X133644818Y-72673099D01*
X133780056Y-72700000D01*
X133917944Y-72700000D01*
X134053182Y-72673099D01*
X134180574Y-72620332D01*
X134295224Y-72543726D01*
X134392726Y-72446224D01*
X134469332Y-72331574D01*
X134522099Y-72204182D01*
X134549000Y-72068944D01*
X134549000Y-71931056D01*
X134522099Y-71795818D01*
X134469332Y-71668426D01*
X134392726Y-71553776D01*
X134295224Y-71456274D01*
X134180574Y-71379668D01*
X134053182Y-71326901D01*
X133917944Y-71300000D01*
X133780056Y-71300000D01*
X133644818Y-71326901D01*
X133517426Y-71379668D01*
X133402776Y-71456274D01*
X133305274Y-71553776D01*
X133228668Y-71668426D01*
X133175901Y-71795818D01*
X133149000Y-71931056D01*
X131343433Y-71931056D01*
X131340851Y-71138469D01*
X132559000Y-71138469D01*
X132559000Y-71250000D01*
X133099000Y-71250000D01*
X134599000Y-71250000D01*
X135139000Y-71250000D01*
X135139000Y-71138469D01*
X135107236Y-70937923D01*
X135044488Y-70744807D01*
X134952304Y-70563889D01*
X134832962Y-70399627D01*
X134832958Y-70399622D01*
X134689379Y-70256043D01*
X134599000Y-70190379D01*
X134599000Y-71250000D01*
X133099000Y-71250000D01*
X133099000Y-70190379D01*
X133008620Y-70256043D01*
X132865041Y-70399622D01*
X132865037Y-70399627D01*
X132745695Y-70563889D01*
X132653511Y-70744807D01*
X132590763Y-70937923D01*
X132559000Y-71138469D01*
X131340851Y-71138469D01*
X131332287Y-68509342D01*
X131332846Y-68497196D01*
X131349763Y-68319882D01*
X131354444Y-68295991D01*
X131403930Y-68131291D01*
X131413191Y-68108777D01*
X131493922Y-67956924D01*
X131507402Y-67936659D01*
X131616267Y-67803509D01*
X131633449Y-67786272D01*
X131766233Y-67676982D01*
X131786456Y-67663434D01*
X131938040Y-67582212D01*
X131960533Y-67572873D01*
X132125074Y-67522850D01*
X132148950Y-67518092D01*
X132317757Y-67501431D01*
X132326184Y-67500600D01*
X132338363Y-67500000D01*
X136216453Y-67500000D01*
X136228656Y-67500602D01*
G37*
%TD.AperFunction*%
%TD*%
%TA.AperFunction,Conductor*%
%TO.N,+12V*%
G36*
X140688191Y-108518907D02*
G01*
X140724155Y-108568407D01*
X140729000Y-108599000D01*
X140729000Y-122000000D01*
X142330000Y-122000000D01*
X142388191Y-122018907D01*
X142424155Y-122068407D01*
X142429000Y-122099000D01*
X142429000Y-132311000D01*
X142410093Y-132369191D01*
X142360593Y-132405155D01*
X142330000Y-132410000D01*
X134723000Y-132410000D01*
X134664809Y-132391093D01*
X134628845Y-132341593D01*
X134624000Y-132311000D01*
X134624000Y-127311789D01*
X136287000Y-127311789D01*
X136287000Y-128315999D01*
X136287001Y-128316000D01*
X137436822Y-128316000D01*
X137367904Y-128410857D01*
X137278580Y-128586167D01*
X137217779Y-128773291D01*
X137187000Y-128967623D01*
X137187000Y-129164377D01*
X137217779Y-129358709D01*
X137278580Y-129545833D01*
X137367904Y-129721143D01*
X137436822Y-129816000D01*
X136287001Y-129816000D01*
X136287000Y-129816001D01*
X136287000Y-130820210D01*
X136289850Y-130850600D01*
X136334655Y-130978648D01*
X136415203Y-131087786D01*
X136415213Y-131087796D01*
X136524351Y-131168344D01*
X136652399Y-131213149D01*
X136682789Y-131215999D01*
X136682791Y-131216000D01*
X137686999Y-131216000D01*
X137687000Y-131215999D01*
X137687000Y-130066177D01*
X137781857Y-130135096D01*
X137957167Y-130224420D01*
X138144291Y-130285221D01*
X138338623Y-130316000D01*
X138535377Y-130316000D01*
X138729709Y-130285221D01*
X138916833Y-130224420D01*
X139092143Y-130135096D01*
X139187000Y-130066177D01*
X139187000Y-131215999D01*
X139187001Y-131216000D01*
X140191209Y-131216000D01*
X140191210Y-131215999D01*
X140221600Y-131213149D01*
X140349648Y-131168344D01*
X140458786Y-131087796D01*
X140458796Y-131087786D01*
X140539344Y-130978648D01*
X140584149Y-130850600D01*
X140586999Y-130820210D01*
X140587000Y-130820209D01*
X140587000Y-129816001D01*
X140586999Y-129816000D01*
X139437178Y-129816000D01*
X139506096Y-129721143D01*
X139595420Y-129545833D01*
X139656221Y-129358709D01*
X139687000Y-129164377D01*
X139687000Y-128967623D01*
X139656221Y-128773291D01*
X139595420Y-128586167D01*
X139506096Y-128410857D01*
X139437178Y-128316000D01*
X140586999Y-128316000D01*
X140587000Y-128315999D01*
X140587000Y-127311791D01*
X140586999Y-127311789D01*
X140584149Y-127281399D01*
X140539344Y-127153351D01*
X140458796Y-127044213D01*
X140458786Y-127044203D01*
X140349648Y-126963655D01*
X140221600Y-126918850D01*
X140191210Y-126916000D01*
X139187001Y-126916000D01*
X139187000Y-126916001D01*
X139187000Y-128065822D01*
X139092143Y-127996904D01*
X138916833Y-127907580D01*
X138729709Y-127846779D01*
X138535377Y-127816000D01*
X138338623Y-127816000D01*
X138144291Y-127846779D01*
X137957167Y-127907580D01*
X137781857Y-127996904D01*
X137687000Y-128065822D01*
X137687000Y-126916001D01*
X137686999Y-126916000D01*
X136682789Y-126916000D01*
X136652399Y-126918850D01*
X136524351Y-126963655D01*
X136415213Y-127044203D01*
X136415203Y-127044213D01*
X136334655Y-127153351D01*
X136289850Y-127281399D01*
X136287000Y-127311789D01*
X134624000Y-127311789D01*
X134624000Y-125224195D01*
X137848500Y-125224195D01*
X137848500Y-125715792D01*
X137848501Y-125715807D01*
X137854822Y-125785378D01*
X137854824Y-125785384D01*
X137904706Y-125945465D01*
X137904711Y-125945476D01*
X137991455Y-126088968D01*
X137991456Y-126088969D01*
X137991458Y-126088972D01*
X138110028Y-126207542D01*
X138110030Y-126207543D01*
X138110031Y-126207544D01*
X138253523Y-126294288D01*
X138253526Y-126294289D01*
X138253529Y-126294291D01*
X138413620Y-126344177D01*
X138483199Y-126350500D01*
X139614800Y-126350499D01*
X139684380Y-126344177D01*
X139844471Y-126294291D01*
X139987972Y-126207542D01*
X140106542Y-126088972D01*
X140176318Y-125973545D01*
X140191038Y-125954759D01*
X140198122Y-125947676D01*
X140286190Y-125807517D01*
X140294093Y-125794940D01*
X140294093Y-125794938D01*
X140294095Y-125794936D01*
X140353674Y-125624669D01*
X140373871Y-125445414D01*
X140353674Y-125266159D01*
X140294095Y-125095892D01*
X140230408Y-124994535D01*
X140198123Y-124943153D01*
X140196191Y-124940731D01*
X140195582Y-124939109D01*
X140195164Y-124938444D01*
X140195300Y-124938358D01*
X140174687Y-124883449D01*
X140190960Y-124824467D01*
X140238793Y-124786315D01*
X140273587Y-124779999D01*
X141458837Y-124779999D01*
X141488797Y-124777190D01*
X141488798Y-124777190D01*
X141615025Y-124733022D01*
X141722612Y-124653619D01*
X141722619Y-124653612D01*
X141802022Y-124546025D01*
X141846190Y-124419797D01*
X141848999Y-124389847D01*
X141849000Y-124389844D01*
X141849000Y-124315001D01*
X141848999Y-124315000D01*
X138149002Y-124315000D01*
X138149001Y-124315001D01*
X138149001Y-124389837D01*
X138151809Y-124419797D01*
X138151809Y-124419798D01*
X138195977Y-124546025D01*
X138200140Y-124551665D01*
X138219482Y-124609713D01*
X138201011Y-124668043D01*
X138171702Y-124695175D01*
X138110029Y-124732457D01*
X137991455Y-124851031D01*
X137904711Y-124994523D01*
X137904706Y-124994535D01*
X137854824Y-125154614D01*
X137854823Y-125154619D01*
X137848500Y-125224195D01*
X134624000Y-125224195D01*
X134624000Y-122740152D01*
X138149000Y-122740152D01*
X138149000Y-122814999D01*
X138149001Y-122815000D01*
X139248999Y-122815000D01*
X139249000Y-122814999D01*
X139249000Y-122350001D01*
X140749000Y-122350001D01*
X140749000Y-122814999D01*
X140749001Y-122815000D01*
X141848998Y-122815000D01*
X141848999Y-122814999D01*
X141848999Y-122740162D01*
X141846190Y-122710202D01*
X141846190Y-122710201D01*
X141802022Y-122583974D01*
X141722619Y-122476387D01*
X141722612Y-122476380D01*
X141615025Y-122396977D01*
X141488797Y-122352809D01*
X141458847Y-122350000D01*
X140749001Y-122350000D01*
X140749000Y-122350001D01*
X139249000Y-122350001D01*
X139248999Y-122350000D01*
X138539162Y-122350000D01*
X138509202Y-122352809D01*
X138509201Y-122352809D01*
X138382974Y-122396977D01*
X138275387Y-122476380D01*
X138275380Y-122476387D01*
X138195977Y-122583974D01*
X138151809Y-122710202D01*
X138149000Y-122740152D01*
X134624000Y-122740152D01*
X134624000Y-120200001D01*
X138704001Y-120200001D01*
X138704001Y-120654203D01*
X138706850Y-120684600D01*
X138706850Y-120684602D01*
X138751654Y-120812647D01*
X138832207Y-120921790D01*
X138832209Y-120921792D01*
X138941352Y-121002345D01*
X139069398Y-121047149D01*
X139099789Y-121049999D01*
X139229000Y-121049999D01*
X139229000Y-120200001D01*
X139729000Y-120200001D01*
X139729000Y-121049998D01*
X139729001Y-121049999D01*
X139858203Y-121049999D01*
X139888600Y-121047149D01*
X139888602Y-121047149D01*
X140016647Y-121002345D01*
X140125790Y-120921792D01*
X140125792Y-120921790D01*
X140206345Y-120812647D01*
X140251149Y-120684601D01*
X140253999Y-120654211D01*
X140254000Y-120654210D01*
X140254000Y-120200001D01*
X140253999Y-120200000D01*
X139729001Y-120200000D01*
X139729000Y-120200001D01*
X139229000Y-120200001D01*
X139228999Y-120200000D01*
X138704002Y-120200000D01*
X138704001Y-120200001D01*
X134624000Y-120200001D01*
X134624000Y-119245788D01*
X138704000Y-119245788D01*
X138704000Y-119699999D01*
X138704001Y-119700000D01*
X139228999Y-119700000D01*
X139229000Y-119699999D01*
X139229000Y-118850001D01*
X139729000Y-118850001D01*
X139729000Y-119699999D01*
X139729001Y-119700000D01*
X140253998Y-119700000D01*
X140253999Y-119699999D01*
X140253999Y-119245796D01*
X140251149Y-119215399D01*
X140251149Y-119215397D01*
X140206345Y-119087352D01*
X140125792Y-118978209D01*
X140125790Y-118978207D01*
X140016647Y-118897654D01*
X139888601Y-118852850D01*
X139858211Y-118850000D01*
X139729001Y-118850000D01*
X139729000Y-118850001D01*
X139229000Y-118850001D01*
X139228999Y-118850000D01*
X139099796Y-118850000D01*
X139069399Y-118852850D01*
X139069397Y-118852850D01*
X138941352Y-118897654D01*
X138832209Y-118978207D01*
X138832207Y-118978209D01*
X138751654Y-119087352D01*
X138706850Y-119215398D01*
X138704000Y-119245788D01*
X134624000Y-119245788D01*
X134624000Y-117700001D01*
X138704001Y-117700001D01*
X138704001Y-118154203D01*
X138706850Y-118184600D01*
X138706850Y-118184602D01*
X138751654Y-118312647D01*
X138832207Y-118421790D01*
X138832209Y-118421792D01*
X138941352Y-118502345D01*
X139069398Y-118547149D01*
X139099789Y-118549999D01*
X139229000Y-118549999D01*
X139229000Y-117700001D01*
X139729000Y-117700001D01*
X139729000Y-118549998D01*
X139729001Y-118549999D01*
X139858203Y-118549999D01*
X139888600Y-118547149D01*
X139888602Y-118547149D01*
X140016647Y-118502345D01*
X140125790Y-118421792D01*
X140125792Y-118421790D01*
X140206345Y-118312647D01*
X140251149Y-118184601D01*
X140253999Y-118154211D01*
X140254000Y-118154210D01*
X140254000Y-117700001D01*
X140253999Y-117700000D01*
X139729001Y-117700000D01*
X139729000Y-117700001D01*
X139229000Y-117700001D01*
X139228999Y-117700000D01*
X138704002Y-117700000D01*
X138704001Y-117700001D01*
X134624000Y-117700001D01*
X134624000Y-116887603D01*
X134642907Y-116829412D01*
X134664023Y-116808088D01*
X134676286Y-116798994D01*
X134741118Y-116745788D01*
X138704000Y-116745788D01*
X138704000Y-117199999D01*
X138704001Y-117200000D01*
X139228999Y-117200000D01*
X139229000Y-117199999D01*
X139229000Y-116350001D01*
X139729000Y-116350001D01*
X139729000Y-117199999D01*
X139729001Y-117200000D01*
X140253998Y-117200000D01*
X140253999Y-117199999D01*
X140253999Y-116745796D01*
X140251149Y-116715399D01*
X140251149Y-116715397D01*
X140206345Y-116587352D01*
X140125792Y-116478209D01*
X140125790Y-116478207D01*
X140016647Y-116397654D01*
X139888601Y-116352850D01*
X139858211Y-116350000D01*
X139729001Y-116350000D01*
X139729000Y-116350001D01*
X139229000Y-116350001D01*
X139228999Y-116350000D01*
X139099796Y-116350000D01*
X139069399Y-116352850D01*
X139069397Y-116352850D01*
X138941352Y-116397654D01*
X138832209Y-116478207D01*
X138832207Y-116478209D01*
X138751654Y-116587352D01*
X138706850Y-116715398D01*
X138704000Y-116745788D01*
X134741118Y-116745788D01*
X134808942Y-116690126D01*
X134954769Y-116557957D01*
X134971957Y-116540769D01*
X135104126Y-116394942D01*
X135212994Y-116262286D01*
X135330243Y-116104193D01*
X135343748Y-116083981D01*
X135444920Y-115915184D01*
X135525814Y-115763842D01*
X135609944Y-115585969D01*
X135619247Y-115563511D01*
X135685569Y-115378159D01*
X135735385Y-115213936D01*
X135738875Y-115200001D01*
X138704001Y-115200001D01*
X138704001Y-115654203D01*
X138706850Y-115684600D01*
X138706850Y-115684602D01*
X138751654Y-115812647D01*
X138832207Y-115921790D01*
X138832209Y-115921792D01*
X138941352Y-116002345D01*
X139069398Y-116047149D01*
X139099789Y-116049999D01*
X139229000Y-116049999D01*
X139229000Y-115200001D01*
X139729000Y-115200001D01*
X139729000Y-116049998D01*
X139729001Y-116049999D01*
X139858203Y-116049999D01*
X139888600Y-116047149D01*
X139888602Y-116047149D01*
X140016647Y-116002345D01*
X140125790Y-115921792D01*
X140125792Y-115921790D01*
X140206345Y-115812647D01*
X140251149Y-115684601D01*
X140253999Y-115654211D01*
X140254000Y-115654210D01*
X140254000Y-115200001D01*
X140253999Y-115200000D01*
X139729001Y-115200000D01*
X139729000Y-115200001D01*
X139229000Y-115200001D01*
X139228999Y-115200000D01*
X138704002Y-115200000D01*
X138704001Y-115200001D01*
X135738875Y-115200001D01*
X135783209Y-115023007D01*
X135787951Y-114999166D01*
X135816824Y-114804513D01*
X135834245Y-114627640D01*
X135841488Y-114529452D01*
X135842085Y-114517298D01*
X135844500Y-114418907D01*
X135844500Y-114245788D01*
X138704000Y-114245788D01*
X138704000Y-114699999D01*
X138704001Y-114700000D01*
X139228999Y-114700000D01*
X139229000Y-114699999D01*
X139229000Y-113850001D01*
X139729000Y-113850001D01*
X139729000Y-114699999D01*
X139729001Y-114700000D01*
X140253998Y-114700000D01*
X140253999Y-114699999D01*
X140253999Y-114245796D01*
X140251149Y-114215399D01*
X140251149Y-114215397D01*
X140206345Y-114087352D01*
X140125792Y-113978209D01*
X140125790Y-113978207D01*
X140016647Y-113897654D01*
X139888601Y-113852850D01*
X139858211Y-113850000D01*
X139729001Y-113850000D01*
X139729000Y-113850001D01*
X139229000Y-113850001D01*
X139228999Y-113850000D01*
X139099796Y-113850000D01*
X139069399Y-113852850D01*
X139069397Y-113852850D01*
X138941352Y-113897654D01*
X138832209Y-113978207D01*
X138832207Y-113978209D01*
X138751654Y-114087352D01*
X138706850Y-114215398D01*
X138704000Y-114245788D01*
X135844500Y-114245788D01*
X135844500Y-112700001D01*
X138704001Y-112700001D01*
X138704001Y-113154203D01*
X138706850Y-113184600D01*
X138706850Y-113184602D01*
X138751654Y-113312647D01*
X138832207Y-113421790D01*
X138832209Y-113421792D01*
X138941352Y-113502345D01*
X139069398Y-113547149D01*
X139099789Y-113549999D01*
X139229000Y-113549999D01*
X139229000Y-112700001D01*
X139729000Y-112700001D01*
X139729000Y-113549998D01*
X139729001Y-113549999D01*
X139858203Y-113549999D01*
X139888600Y-113547149D01*
X139888602Y-113547149D01*
X140016647Y-113502345D01*
X140125790Y-113421792D01*
X140125792Y-113421790D01*
X140206345Y-113312647D01*
X140251149Y-113184601D01*
X140253999Y-113154211D01*
X140254000Y-113154210D01*
X140254000Y-112700001D01*
X140253999Y-112700000D01*
X139729001Y-112700000D01*
X139729000Y-112700001D01*
X139229000Y-112700001D01*
X139228999Y-112700000D01*
X138704002Y-112700000D01*
X138704001Y-112700001D01*
X135844500Y-112700001D01*
X135844500Y-111745788D01*
X138704000Y-111745788D01*
X138704000Y-112199999D01*
X138704001Y-112200000D01*
X139228999Y-112200000D01*
X139229000Y-112199999D01*
X139229000Y-111350001D01*
X139729000Y-111350001D01*
X139729000Y-112199999D01*
X139729001Y-112200000D01*
X140253998Y-112200000D01*
X140253999Y-112199999D01*
X140253999Y-111745796D01*
X140251149Y-111715399D01*
X140251149Y-111715397D01*
X140206345Y-111587352D01*
X140125792Y-111478209D01*
X140125790Y-111478207D01*
X140016647Y-111397654D01*
X139888601Y-111352850D01*
X139858211Y-111350000D01*
X139729001Y-111350000D01*
X139729000Y-111350001D01*
X139229000Y-111350001D01*
X139228999Y-111350000D01*
X139099796Y-111350000D01*
X139069399Y-111352850D01*
X139069397Y-111352850D01*
X138941352Y-111397654D01*
X138832209Y-111478207D01*
X138832207Y-111478209D01*
X138751654Y-111587352D01*
X138706850Y-111715398D01*
X138704000Y-111745788D01*
X135844500Y-111745788D01*
X135844500Y-110200001D01*
X138729001Y-110200001D01*
X138729001Y-110654203D01*
X138731850Y-110684600D01*
X138731850Y-110684602D01*
X138776654Y-110812647D01*
X138857207Y-110921790D01*
X138857209Y-110921792D01*
X138966352Y-111002345D01*
X139094398Y-111047149D01*
X139124789Y-111049999D01*
X139254000Y-111049999D01*
X139254000Y-110200001D01*
X139754000Y-110200001D01*
X139754000Y-111049998D01*
X139754001Y-111049999D01*
X139883203Y-111049999D01*
X139913600Y-111047149D01*
X139913602Y-111047149D01*
X140041647Y-111002345D01*
X140150790Y-110921792D01*
X140150792Y-110921790D01*
X140231345Y-110812647D01*
X140276149Y-110684601D01*
X140278999Y-110654211D01*
X140279000Y-110654210D01*
X140279000Y-110200001D01*
X140278999Y-110200000D01*
X139754001Y-110200000D01*
X139754000Y-110200001D01*
X139254000Y-110200001D01*
X139253999Y-110200000D01*
X138729002Y-110200000D01*
X138729001Y-110200001D01*
X135844500Y-110200001D01*
X135844500Y-109245788D01*
X138729000Y-109245788D01*
X138729000Y-109699999D01*
X138729001Y-109700000D01*
X139253999Y-109700000D01*
X139254000Y-109699999D01*
X139254000Y-108850001D01*
X139754000Y-108850001D01*
X139754000Y-109699999D01*
X139754001Y-109700000D01*
X140278998Y-109700000D01*
X140278999Y-109699999D01*
X140278999Y-109245796D01*
X140276149Y-109215399D01*
X140276149Y-109215397D01*
X140231345Y-109087352D01*
X140150792Y-108978209D01*
X140150790Y-108978207D01*
X140041647Y-108897654D01*
X139913601Y-108852850D01*
X139883211Y-108850000D01*
X139754001Y-108850000D01*
X139754000Y-108850001D01*
X139254000Y-108850001D01*
X139253999Y-108850000D01*
X139124796Y-108850000D01*
X139094399Y-108852850D01*
X139094397Y-108852850D01*
X138966352Y-108897654D01*
X138857209Y-108978207D01*
X138857207Y-108978209D01*
X138776654Y-109087352D01*
X138731850Y-109215398D01*
X138729000Y-109245788D01*
X135844500Y-109245788D01*
X135844500Y-108599000D01*
X135863407Y-108540809D01*
X135912907Y-108504845D01*
X135943500Y-108500000D01*
X140630000Y-108500000D01*
X140688191Y-108518907D01*
G37*
%TD.AperFunction*%
%TD*%
%TA.AperFunction,Conductor*%
%TO.N,/LOUT*%
G36*
X152733808Y-118500633D02*
G01*
X152848753Y-118515765D01*
X152867408Y-118520764D01*
X152969999Y-118563258D01*
X152986728Y-118572917D01*
X153074824Y-118640516D01*
X153088483Y-118654175D01*
X153156082Y-118742271D01*
X153165741Y-118759001D01*
X153208234Y-118861588D01*
X153213234Y-118880248D01*
X153228367Y-118995191D01*
X153229000Y-119004850D01*
X153229000Y-127895149D01*
X153228367Y-127904808D01*
X153213234Y-128019751D01*
X153208234Y-128038411D01*
X153165741Y-128140998D01*
X153156082Y-128157728D01*
X153088483Y-128245824D01*
X153074824Y-128259483D01*
X152986728Y-128327082D01*
X152969998Y-128336741D01*
X152867411Y-128379234D01*
X152848751Y-128384234D01*
X152733808Y-128399367D01*
X152724149Y-128400000D01*
X143483851Y-128400000D01*
X143474192Y-128399367D01*
X143359248Y-128384234D01*
X143340588Y-128379234D01*
X143238001Y-128336741D01*
X143221271Y-128327082D01*
X143133175Y-128259483D01*
X143119516Y-128245824D01*
X143051917Y-128157728D01*
X143042258Y-128140998D01*
X142999765Y-128038411D01*
X142994765Y-128019751D01*
X142979633Y-127904808D01*
X142979000Y-127895149D01*
X142979000Y-123304850D01*
X142979633Y-123295191D01*
X142986191Y-123245379D01*
X142994766Y-123180244D01*
X142999763Y-123161593D01*
X143042260Y-123058996D01*
X143051914Y-123042274D01*
X143119520Y-122954170D01*
X143133170Y-122940520D01*
X143221274Y-122872914D01*
X143237996Y-122863260D01*
X143340593Y-122820763D01*
X143359244Y-122815766D01*
X143474192Y-122800633D01*
X143483851Y-122800000D01*
X144634500Y-122800000D01*
X144686826Y-122821674D01*
X144708500Y-122874000D01*
X144708500Y-123175796D01*
X144708501Y-123175809D01*
X144714822Y-123245374D01*
X144714824Y-123245384D01*
X144764707Y-123405468D01*
X144764709Y-123405471D01*
X144851458Y-123548972D01*
X144970028Y-123667542D01*
X145113529Y-123754291D01*
X145113531Y-123754292D01*
X145201153Y-123781595D01*
X145273620Y-123804177D01*
X145343199Y-123810500D01*
X146474800Y-123810499D01*
X146544380Y-123804177D01*
X146704471Y-123754291D01*
X146847972Y-123667542D01*
X146966542Y-123548972D01*
X147053291Y-123405471D01*
X147103177Y-123245380D01*
X147109500Y-123175801D01*
X147109499Y-122800000D01*
X147229000Y-122800000D01*
X147229000Y-119004850D01*
X147229633Y-118995191D01*
X147244766Y-118880244D01*
X147249763Y-118861593D01*
X147292260Y-118758996D01*
X147301914Y-118742274D01*
X147369520Y-118654170D01*
X147383170Y-118640520D01*
X147471274Y-118572914D01*
X147487996Y-118563260D01*
X147590593Y-118520763D01*
X147609244Y-118515766D01*
X147724192Y-118500633D01*
X147733851Y-118500000D01*
X152724149Y-118500000D01*
X152733808Y-118500633D01*
G37*
%TD.AperFunction*%
%TD*%
%TA.AperFunction,Conductor*%
%TO.N,PGND*%
G36*
X143185061Y-67500597D02*
G01*
X143361941Y-67518018D01*
X143385769Y-67522757D01*
X143550001Y-67572576D01*
X143572453Y-67581877D01*
X143620264Y-67607432D01*
X143723798Y-67662772D01*
X143744010Y-67676277D01*
X143876666Y-67785145D01*
X143893854Y-67802333D01*
X144002722Y-67934989D01*
X144016227Y-67955201D01*
X144097121Y-68106543D01*
X144106424Y-68129001D01*
X144156240Y-68293224D01*
X144160982Y-68317065D01*
X144178403Y-68493938D01*
X144179000Y-68506092D01*
X144179000Y-73176581D01*
X144174775Y-73208674D01*
X144160161Y-73263212D01*
X144128500Y-73503711D01*
X144128500Y-73503712D01*
X144128500Y-73996288D01*
X144160162Y-74236789D01*
X144174775Y-74291326D01*
X144179000Y-74323417D01*
X144179000Y-80493907D01*
X144178403Y-80506061D01*
X144160982Y-80682934D01*
X144156240Y-80706775D01*
X144106424Y-80870998D01*
X144097121Y-80893456D01*
X144016227Y-81044798D01*
X144002722Y-81065010D01*
X143893854Y-81197666D01*
X143876666Y-81214854D01*
X143744010Y-81323722D01*
X143723798Y-81337227D01*
X143572456Y-81418121D01*
X143549998Y-81427424D01*
X143385775Y-81477240D01*
X143361934Y-81481982D01*
X143185061Y-81499403D01*
X143172907Y-81500000D01*
X140478122Y-81500000D01*
X140411083Y-81480315D01*
X140365328Y-81427511D01*
X140354133Y-81374358D01*
X140392947Y-78443893D01*
X140420910Y-76332702D01*
X140420337Y-76282924D01*
X140419892Y-76270660D01*
X140416857Y-76220990D01*
X140401505Y-76042428D01*
X140388087Y-75943836D01*
X140383584Y-75919742D01*
X140360487Y-75822957D01*
X140312039Y-75656829D01*
X140279491Y-75562804D01*
X140270336Y-75540065D01*
X140228646Y-75449704D01*
X140148464Y-75296351D01*
X140148455Y-75296335D01*
X140148447Y-75296321D01*
X140098059Y-75210572D01*
X140098053Y-75210564D01*
X140098050Y-75210558D01*
X140084601Y-75190065D01*
X140025957Y-75109678D01*
X140016306Y-75097738D01*
X139917200Y-74975125D01*
X139917193Y-74975117D01*
X139917177Y-74975097D01*
X139850881Y-74900908D01*
X139850877Y-74900903D01*
X139850861Y-74900887D01*
X139833687Y-74883484D01*
X139833680Y-74883477D01*
X139833663Y-74883460D01*
X139833643Y-74883441D01*
X139833633Y-74883432D01*
X139760353Y-74816181D01*
X139760332Y-74816162D01*
X139627209Y-74705614D01*
X139547585Y-74645896D01*
X139547581Y-74645893D01*
X139527267Y-74632174D01*
X139493646Y-74611814D01*
X139442189Y-74580653D01*
X139442178Y-74580647D01*
X139442173Y-74580644D01*
X139289903Y-74498442D01*
X139289898Y-74498440D01*
X139289884Y-74498432D01*
X139200156Y-74455584D01*
X139200141Y-74455577D01*
X139200143Y-74455577D01*
X139200135Y-74455574D01*
X139177520Y-74446118D01*
X139177518Y-74446117D01*
X139177515Y-74446116D01*
X139177504Y-74446112D01*
X139083911Y-74412315D01*
X139083904Y-74412313D01*
X139013089Y-74390639D01*
X138918423Y-74361666D01*
X138918401Y-74361660D01*
X138918396Y-74361659D01*
X138821960Y-74337291D01*
X138821954Y-74337289D01*
X138821947Y-74337288D01*
X138797923Y-74332468D01*
X138797919Y-74332467D01*
X138797917Y-74332467D01*
X138699520Y-74317747D01*
X138699524Y-74317747D01*
X138521133Y-74300027D01*
X138471528Y-74296338D01*
X138459263Y-74295731D01*
X138409523Y-74294500D01*
X138409522Y-74294500D01*
X138315761Y-74294500D01*
X138248722Y-74274815D01*
X138202967Y-74222011D01*
X138191764Y-74169705D01*
X138192531Y-74049999D01*
X139679000Y-74049999D01*
X139766825Y-74049999D01*
X139766831Y-74049998D01*
X139826376Y-74043598D01*
X139961086Y-73993354D01*
X139961088Y-73993353D01*
X140076189Y-73907189D01*
X140162353Y-73792088D01*
X140162354Y-73792086D01*
X140212598Y-73657375D01*
X140218999Y-73597845D01*
X140219000Y-73597828D01*
X140219000Y-72750000D01*
X139679000Y-72750000D01*
X139679000Y-74049999D01*
X138192531Y-74049999D01*
X138205673Y-72000000D01*
X138206115Y-71931056D01*
X138229000Y-71931056D01*
X138229000Y-72068944D01*
X138255901Y-72204182D01*
X138308668Y-72331574D01*
X138385274Y-72446224D01*
X138482776Y-72543726D01*
X138597426Y-72620332D01*
X138724818Y-72673099D01*
X138860056Y-72700000D01*
X138997944Y-72700000D01*
X139133182Y-72673099D01*
X139260574Y-72620332D01*
X139375224Y-72543726D01*
X139472726Y-72446224D01*
X139549332Y-72331574D01*
X139602099Y-72204182D01*
X139629000Y-72068944D01*
X139629000Y-71931056D01*
X139602099Y-71795818D01*
X139549332Y-71668426D01*
X139472726Y-71553776D01*
X139375224Y-71456274D01*
X139260574Y-71379668D01*
X139133182Y-71326901D01*
X138997944Y-71300000D01*
X138860056Y-71300000D01*
X138724818Y-71326901D01*
X138597426Y-71379668D01*
X138482776Y-71456274D01*
X138385274Y-71553776D01*
X138308668Y-71668426D01*
X138255901Y-71795818D01*
X138229000Y-71931056D01*
X138206115Y-71931056D01*
X138209158Y-71456274D01*
X138210480Y-71250000D01*
X139679000Y-71250000D01*
X140218999Y-71250000D01*
X140218999Y-70402174D01*
X140218998Y-70402168D01*
X140212598Y-70342623D01*
X140162354Y-70207913D01*
X140162353Y-70207911D01*
X140076189Y-70092810D01*
X139961088Y-70006646D01*
X139961086Y-70006645D01*
X139826375Y-69956401D01*
X139826376Y-69956401D01*
X139766845Y-69950000D01*
X139679000Y-69950000D01*
X139679000Y-71250000D01*
X138210480Y-71250000D01*
X138227988Y-68518980D01*
X138227088Y-68469497D01*
X138226565Y-68457289D01*
X138223218Y-68407782D01*
X138206793Y-68230081D01*
X138192825Y-68131995D01*
X138188198Y-68108032D01*
X138164646Y-68011800D01*
X138115488Y-67846654D01*
X138082572Y-67753189D01*
X138073340Y-67730595D01*
X138048060Y-67676501D01*
X138037509Y-67607432D01*
X138065974Y-67543624D01*
X138124418Y-67505334D01*
X138160397Y-67500000D01*
X143172907Y-67500000D01*
X143185061Y-67500597D01*
G37*
%TD.AperFunction*%
%TD*%
M02*
