%TF.GenerationSoftware,KiCad,Pcbnew,8.0.7*%
%TF.CreationDate,2025-01-15T16:40:54+01:00*%
%TF.ProjectId,makita-ps,6d616b69-7461-42d7-9073-2e6b69636164,1*%
%TF.SameCoordinates,Original*%
%TF.FileFunction,Drillmap*%
%TF.FilePolarity,Positive*%
%FSLAX45Y45*%
G04 Gerber Fmt 4.5, Leading zero omitted, Abs format (unit mm)*
G04 Created by KiCad (PCBNEW 8.0.7) date 2025-01-15 16:40:54*
%MOMM*%
%LPD*%
G01*
G04 APERTURE LIST*
%ADD10C,0.100000*%
%ADD11C,0.200000*%
%ADD12C,0.120000*%
%ADD13C,0.130000*%
%ADD14C,0.140000*%
%ADD15C,0.250000*%
%ADD16C,0.320000*%
G04 APERTURE END LIST*
D10*
X17472900Y-13700000D02*
X17472900Y-6600000D01*
X12171900Y-13700000D02*
X12172900Y-6600000D01*
X12172900Y-6600000D02*
G75*
G02*
X17472900Y-6600000I2650000J-6900000D01*
G01*
X17472900Y-13700000D02*
X12171900Y-13700000D01*
D11*
D10*
X12557900Y-9195000D02*
X12587900Y-9225000D01*
X12587900Y-9195000D02*
X12557900Y-9225000D01*
X12957900Y-9195000D02*
X12987900Y-9225000D01*
X12987900Y-9195000D02*
X12957900Y-9225000D01*
X13057900Y-8945000D02*
X13087900Y-8975000D01*
X13087900Y-8945000D02*
X13057900Y-8975000D01*
X13280900Y-7790000D02*
X13310900Y-7820000D01*
X13310900Y-7790000D02*
X13280900Y-7820000D01*
X13335038Y-9367265D02*
X13365038Y-9397265D01*
X13365038Y-9367265D02*
X13335038Y-9397265D01*
X13495400Y-9345000D02*
X13525400Y-9375000D01*
X13525400Y-9345000D02*
X13495400Y-9375000D01*
X13627900Y-9145000D02*
X13657900Y-9175000D01*
X13657900Y-9145000D02*
X13627900Y-9175000D01*
X13632900Y-8580002D02*
X13662900Y-8610002D01*
X13662900Y-8580002D02*
X13632900Y-8610002D01*
X13877900Y-9425000D02*
X13907900Y-9455000D01*
X13907900Y-9425000D02*
X13877900Y-9455000D01*
X13941831Y-12529541D02*
X13971831Y-12559541D01*
X13971831Y-12529541D02*
X13941831Y-12559541D01*
X14427900Y-12915000D02*
X14457900Y-12945000D01*
X14457900Y-12915000D02*
X14427900Y-12945000D01*
X14489100Y-9322900D02*
X14519100Y-9352900D01*
X14519100Y-9322900D02*
X14489100Y-9352900D01*
X14501800Y-9170500D02*
X14531800Y-9200500D01*
X14531800Y-9170500D02*
X14501800Y-9200500D01*
X14577900Y-12205000D02*
X14607900Y-12235000D01*
X14607900Y-12205000D02*
X14577900Y-12235000D01*
X14732900Y-9630000D02*
X14762900Y-9660000D01*
X14762900Y-9630000D02*
X14732900Y-9660000D01*
X14832900Y-7975000D02*
X14862900Y-8005000D01*
X14862900Y-7975000D02*
X14832900Y-8005000D01*
X14912900Y-9485000D02*
X14942900Y-9515000D01*
X14942900Y-9485000D02*
X14912900Y-9515000D01*
X14912900Y-9565000D02*
X14942900Y-9595000D01*
X14942900Y-9565000D02*
X14912900Y-9595000D01*
X14912900Y-9645000D02*
X14942900Y-9675000D01*
X14942900Y-9645000D02*
X14912900Y-9675000D01*
X14912900Y-9725000D02*
X14942900Y-9755000D01*
X14942900Y-9725000D02*
X14912900Y-9755000D01*
X14982900Y-9525000D02*
X15012900Y-9555000D01*
X15012900Y-9525000D02*
X14982900Y-9555000D01*
X14982900Y-9605000D02*
X15012900Y-9635000D01*
X15012900Y-9605000D02*
X14982900Y-9635000D01*
X14982900Y-9685000D02*
X15012900Y-9715000D01*
X15012900Y-9685000D02*
X14982900Y-9715000D01*
X15052900Y-9485000D02*
X15082900Y-9515000D01*
X15082900Y-9485000D02*
X15052900Y-9515000D01*
X15052900Y-9565000D02*
X15082900Y-9595000D01*
X15082900Y-9565000D02*
X15052900Y-9595000D01*
X15052900Y-9645000D02*
X15082900Y-9675000D01*
X15082900Y-9645000D02*
X15052900Y-9675000D01*
X15052900Y-9725000D02*
X15082900Y-9755000D01*
X15082900Y-9725000D02*
X15052900Y-9755000D01*
X15149500Y-9272100D02*
X15179500Y-9302100D01*
X15179500Y-9272100D02*
X15149500Y-9302100D01*
X15251100Y-9462600D02*
X15281100Y-9492600D01*
X15281100Y-9462600D02*
X15251100Y-9492600D01*
X15330863Y-9501000D02*
X15360863Y-9531000D01*
X15360863Y-9501000D02*
X15330863Y-9531000D01*
X15367900Y-8105000D02*
X15397900Y-8135000D01*
X15397900Y-8105000D02*
X15367900Y-8135000D01*
X15377900Y-9035000D02*
X15407900Y-9065000D01*
X15407900Y-9035000D02*
X15377900Y-9065000D01*
X15397900Y-9234000D02*
X15427900Y-9264000D01*
X15427900Y-9234000D02*
X15397900Y-9264000D01*
X15422826Y-9570826D02*
X15452826Y-9600826D01*
X15452826Y-9570826D02*
X15422826Y-9600826D01*
X15447900Y-12895000D02*
X15477900Y-12925000D01*
X15477900Y-12895000D02*
X15447900Y-12925000D01*
X15527900Y-12975000D02*
X15557900Y-13005000D01*
X15557900Y-12975000D02*
X15527900Y-13005000D01*
X15607900Y-12835000D02*
X15637900Y-12865000D01*
X15637900Y-12835000D02*
X15607900Y-12865000D01*
X15651200Y-8916500D02*
X15681200Y-8946500D01*
X15681200Y-8916500D02*
X15651200Y-8946500D01*
X15767900Y-8075000D02*
X15797900Y-8105000D01*
X15797900Y-8075000D02*
X15767900Y-8105000D01*
X15807899Y-8505000D02*
X15837899Y-8535000D01*
X15837899Y-8505000D02*
X15807899Y-8535000D01*
X15867900Y-9825000D02*
X15897900Y-9855000D01*
X15897900Y-9825000D02*
X15867900Y-9855000D01*
X15957900Y-8505000D02*
X15987900Y-8535000D01*
X15987900Y-8505000D02*
X15957900Y-8535000D01*
X16007900Y-8855000D02*
X16037900Y-8885000D01*
X16037900Y-8855000D02*
X16007900Y-8885000D01*
X16217100Y-8275000D02*
X16247100Y-8305000D01*
X16247100Y-8275000D02*
X16217100Y-8305000D01*
X16317100Y-8275000D02*
X16347100Y-8305000D01*
X16347100Y-8275000D02*
X16317100Y-8305000D01*
X16377900Y-8541100D02*
X16407900Y-8571100D01*
X16407900Y-8541100D02*
X16377900Y-8571100D01*
X16571900Y-9792800D02*
X16601900Y-9822800D01*
X16601900Y-9792800D02*
X16571900Y-9822800D01*
X16587900Y-8725000D02*
X16617900Y-8755000D01*
X16617900Y-8725000D02*
X16587900Y-8755000D01*
X16587900Y-8805000D02*
X16617900Y-8835000D01*
X16617900Y-8805000D02*
X16587900Y-8835000D01*
X16590528Y-8403200D02*
X16620528Y-8433200D01*
X16620528Y-8403200D02*
X16590528Y-8433200D01*
X16617900Y-8255001D02*
X16647900Y-8285001D01*
X16647900Y-8255001D02*
X16617900Y-8285001D01*
X16650390Y-8342292D02*
X16680390Y-8372292D01*
X16680390Y-8342292D02*
X16650390Y-8372292D01*
X16667900Y-9795000D02*
X16697900Y-9825000D01*
X16697900Y-9795000D02*
X16667900Y-9825000D01*
X16727900Y-12435000D02*
X16757900Y-12465000D01*
X16757900Y-12435000D02*
X16727900Y-12465000D01*
X16790800Y-8328452D02*
X16820800Y-8358452D01*
X16820800Y-8328452D02*
X16790800Y-8358452D01*
X16837900Y-8805000D02*
X16867900Y-8835000D01*
X16867900Y-8805000D02*
X16837900Y-8835000D01*
X16897900Y-8105000D02*
X16927900Y-8135000D01*
X16927900Y-8105000D02*
X16897900Y-8135000D01*
X16937900Y-8775000D02*
X16967900Y-8805000D01*
X16967900Y-8775000D02*
X16937900Y-8805000D01*
X17237900Y-12665000D02*
X17267900Y-12695000D01*
X17267900Y-12665000D02*
X17237900Y-12695000D01*
X17247900Y-12745000D02*
X17277900Y-12775000D01*
X17277900Y-12745000D02*
X17247900Y-12775000D01*
X17257899Y-8905000D02*
X17287899Y-8935000D01*
X17287899Y-8905000D02*
X17257899Y-8935000D01*
X17288471Y-8825000D02*
X17318471Y-8855000D01*
X17318471Y-8825000D02*
X17288471Y-8855000D01*
X13392900Y-9012500D02*
G75*
G02*
X13352900Y-9012500I-20000J0D01*
G01*
X13352900Y-9012500D02*
G75*
G02*
X13392900Y-9012500I20000J0D01*
G01*
X13392900Y-9163250D02*
G75*
G02*
X13352900Y-9163250I-20000J0D01*
G01*
X13352900Y-9163250D02*
G75*
G02*
X13392900Y-9163250I20000J0D01*
G01*
X13579281Y-8893619D02*
G75*
G02*
X13539281Y-8893619I-20000J0D01*
G01*
X13539281Y-8893619D02*
G75*
G02*
X13579281Y-8893619I20000J0D01*
G01*
X13632900Y-9590000D02*
G75*
G02*
X13592900Y-9590000I-20000J0D01*
G01*
X13592900Y-9590000D02*
G75*
G02*
X13632900Y-9590000I20000J0D01*
G01*
X13632900Y-9770000D02*
G75*
G02*
X13592900Y-9770000I-20000J0D01*
G01*
X13592900Y-9770000D02*
G75*
G02*
X13632900Y-9770000I20000J0D01*
G01*
X13642400Y-9950000D02*
G75*
G02*
X13602400Y-9950000I-20000J0D01*
G01*
X13602400Y-9950000D02*
G75*
G02*
X13642400Y-9950000I20000J0D01*
G01*
X13642900Y-10138000D02*
G75*
G02*
X13602900Y-10138000I-20000J0D01*
G01*
X13602900Y-10138000D02*
G75*
G02*
X13642900Y-10138000I20000J0D01*
G01*
X13642900Y-10328500D02*
G75*
G02*
X13602900Y-10328500I-20000J0D01*
G01*
X13602900Y-10328500D02*
G75*
G02*
X13642900Y-10328500I20000J0D01*
G01*
X13642900Y-10519000D02*
G75*
G02*
X13602900Y-10519000I-20000J0D01*
G01*
X13602900Y-10519000D02*
G75*
G02*
X13642900Y-10519000I20000J0D01*
G01*
X13642900Y-10709500D02*
G75*
G02*
X13602900Y-10709500I-20000J0D01*
G01*
X13602900Y-10709500D02*
G75*
G02*
X13642900Y-10709500I20000J0D01*
G01*
X13692900Y-8890000D02*
G75*
G02*
X13652900Y-8890000I-20000J0D01*
G01*
X13652900Y-8890000D02*
G75*
G02*
X13692900Y-8890000I20000J0D01*
G01*
X13812400Y-9590000D02*
G75*
G02*
X13772400Y-9590000I-20000J0D01*
G01*
X13772400Y-9590000D02*
G75*
G02*
X13812400Y-9590000I20000J0D01*
G01*
X13812400Y-9770000D02*
G75*
G02*
X13772400Y-9770000I-20000J0D01*
G01*
X13772400Y-9770000D02*
G75*
G02*
X13812400Y-9770000I20000J0D01*
G01*
X13812400Y-9950000D02*
G75*
G02*
X13772400Y-9950000I-20000J0D01*
G01*
X13772400Y-9950000D02*
G75*
G02*
X13812400Y-9950000I20000J0D01*
G01*
X13812900Y-10138000D02*
G75*
G02*
X13772900Y-10138000I-20000J0D01*
G01*
X13772900Y-10138000D02*
G75*
G02*
X13812900Y-10138000I20000J0D01*
G01*
X13812900Y-10328500D02*
G75*
G02*
X13772900Y-10328500I-20000J0D01*
G01*
X13772900Y-10328500D02*
G75*
G02*
X13812900Y-10328500I20000J0D01*
G01*
X13812900Y-10519000D02*
G75*
G02*
X13772900Y-10519000I-20000J0D01*
G01*
X13772900Y-10519000D02*
G75*
G02*
X13812900Y-10519000I20000J0D01*
G01*
X13812900Y-10709500D02*
G75*
G02*
X13772900Y-10709500I-20000J0D01*
G01*
X13772900Y-10709500D02*
G75*
G02*
X13812900Y-10709500I20000J0D01*
G01*
X14002900Y-9590000D02*
G75*
G02*
X13962900Y-9590000I-20000J0D01*
G01*
X13962900Y-9590000D02*
G75*
G02*
X14002900Y-9590000I20000J0D01*
G01*
X14002900Y-9770000D02*
G75*
G02*
X13962900Y-9770000I-20000J0D01*
G01*
X13962900Y-9770000D02*
G75*
G02*
X14002900Y-9770000I20000J0D01*
G01*
X14002900Y-9950000D02*
G75*
G02*
X13962900Y-9950000I-20000J0D01*
G01*
X13962900Y-9950000D02*
G75*
G02*
X14002900Y-9950000I20000J0D01*
G01*
X14003400Y-10138000D02*
G75*
G02*
X13963400Y-10138000I-20000J0D01*
G01*
X13963400Y-10138000D02*
G75*
G02*
X14003400Y-10138000I20000J0D01*
G01*
X14003400Y-10328500D02*
G75*
G02*
X13963400Y-10328500I-20000J0D01*
G01*
X13963400Y-10328500D02*
G75*
G02*
X14003400Y-10328500I20000J0D01*
G01*
X14003400Y-10709500D02*
G75*
G02*
X13963400Y-10709500I-20000J0D01*
G01*
X13963400Y-10709500D02*
G75*
G02*
X14003400Y-10709500I20000J0D01*
G01*
X14067900Y-10550000D02*
G75*
G02*
X14027900Y-10550000I-20000J0D01*
G01*
X14027900Y-10550000D02*
G75*
G02*
X14067900Y-10550000I20000J0D01*
G01*
X14192900Y-9590000D02*
G75*
G02*
X14152900Y-9590000I-20000J0D01*
G01*
X14152900Y-9590000D02*
G75*
G02*
X14192900Y-9590000I20000J0D01*
G01*
X14192900Y-9770000D02*
G75*
G02*
X14152900Y-9770000I-20000J0D01*
G01*
X14152900Y-9770000D02*
G75*
G02*
X14192900Y-9770000I20000J0D01*
G01*
X14192900Y-9950000D02*
G75*
G02*
X14152900Y-9950000I-20000J0D01*
G01*
X14152900Y-9950000D02*
G75*
G02*
X14192900Y-9950000I20000J0D01*
G01*
X14397100Y-10209120D02*
G75*
G02*
X14357100Y-10209120I-20000J0D01*
G01*
X14357100Y-10209120D02*
G75*
G02*
X14397100Y-10209120I20000J0D01*
G01*
X14397100Y-10310720D02*
G75*
G02*
X14357100Y-10310720I-20000J0D01*
G01*
X14357100Y-10310720D02*
G75*
G02*
X14397100Y-10310720I20000J0D01*
G01*
X14397100Y-10412320D02*
G75*
G02*
X14357100Y-10412320I-20000J0D01*
G01*
X14357100Y-10412320D02*
G75*
G02*
X14397100Y-10412320I20000J0D01*
G01*
X14397100Y-10513920D02*
G75*
G02*
X14357100Y-10513920I-20000J0D01*
G01*
X14357100Y-10513920D02*
G75*
G02*
X14397100Y-10513920I20000J0D01*
G01*
X14442900Y-12080000D02*
G75*
G02*
X14402900Y-12080000I-20000J0D01*
G01*
X14402900Y-12080000D02*
G75*
G02*
X14442900Y-12080000I20000J0D01*
G01*
X14447900Y-11154000D02*
G75*
G02*
X14407900Y-11154000I-20000J0D01*
G01*
X14407900Y-11154000D02*
G75*
G02*
X14447900Y-11154000I20000J0D01*
G01*
X14447900Y-11344500D02*
G75*
G02*
X14407900Y-11344500I-20000J0D01*
G01*
X14407900Y-11344500D02*
G75*
G02*
X14447900Y-11344500I20000J0D01*
G01*
X14447900Y-11535000D02*
G75*
G02*
X14407900Y-11535000I-20000J0D01*
G01*
X14407900Y-11535000D02*
G75*
G02*
X14447900Y-11535000I20000J0D01*
G01*
X14447900Y-11725500D02*
G75*
G02*
X14407900Y-11725500I-20000J0D01*
G01*
X14407900Y-11725500D02*
G75*
G02*
X14447900Y-11725500I20000J0D01*
G01*
X14447900Y-11916000D02*
G75*
G02*
X14407900Y-11916000I-20000J0D01*
G01*
X14407900Y-11916000D02*
G75*
G02*
X14447900Y-11916000I20000J0D01*
G01*
X14498700Y-10209120D02*
G75*
G02*
X14458700Y-10209120I-20000J0D01*
G01*
X14458700Y-10209120D02*
G75*
G02*
X14498700Y-10209120I20000J0D01*
G01*
X14498700Y-10310720D02*
G75*
G02*
X14458700Y-10310720I-20000J0D01*
G01*
X14458700Y-10310720D02*
G75*
G02*
X14498700Y-10310720I20000J0D01*
G01*
X14498700Y-10412320D02*
G75*
G02*
X14458700Y-10412320I-20000J0D01*
G01*
X14458700Y-10412320D02*
G75*
G02*
X14498700Y-10412320I20000J0D01*
G01*
X14498700Y-10513920D02*
G75*
G02*
X14458700Y-10513920I-20000J0D01*
G01*
X14458700Y-10513920D02*
G75*
G02*
X14498700Y-10513920I20000J0D01*
G01*
X14502900Y-11000000D02*
G75*
G02*
X14462900Y-11000000I-20000J0D01*
G01*
X14462900Y-11000000D02*
G75*
G02*
X14502900Y-11000000I20000J0D01*
G01*
X14549500Y-9668100D02*
G75*
G02*
X14509500Y-9668100I-20000J0D01*
G01*
X14509500Y-9668100D02*
G75*
G02*
X14549500Y-9668100I20000J0D01*
G01*
X14562201Y-9871300D02*
G75*
G02*
X14522201Y-9871300I-20000J0D01*
G01*
X14522201Y-9871300D02*
G75*
G02*
X14562201Y-9871300I20000J0D01*
G01*
X14600300Y-10209120D02*
G75*
G02*
X14560300Y-10209120I-20000J0D01*
G01*
X14560300Y-10209120D02*
G75*
G02*
X14600300Y-10209120I20000J0D01*
G01*
X14600300Y-10310720D02*
G75*
G02*
X14560300Y-10310720I-20000J0D01*
G01*
X14560300Y-10310720D02*
G75*
G02*
X14600300Y-10310720I20000J0D01*
G01*
X14600300Y-10412320D02*
G75*
G02*
X14560300Y-10412320I-20000J0D01*
G01*
X14560300Y-10412320D02*
G75*
G02*
X14600300Y-10412320I20000J0D01*
G01*
X14600300Y-10513920D02*
G75*
G02*
X14560300Y-10513920I-20000J0D01*
G01*
X14560300Y-10513920D02*
G75*
G02*
X14600300Y-10513920I20000J0D01*
G01*
X14638400Y-11154000D02*
G75*
G02*
X14598400Y-11154000I-20000J0D01*
G01*
X14598400Y-11154000D02*
G75*
G02*
X14638400Y-11154000I20000J0D01*
G01*
X14638400Y-11344500D02*
G75*
G02*
X14598400Y-11344500I-20000J0D01*
G01*
X14598400Y-11344500D02*
G75*
G02*
X14638400Y-11344500I20000J0D01*
G01*
X14638400Y-11535000D02*
G75*
G02*
X14598400Y-11535000I-20000J0D01*
G01*
X14598400Y-11535000D02*
G75*
G02*
X14638400Y-11535000I20000J0D01*
G01*
X14682900Y-11000000D02*
G75*
G02*
X14642900Y-11000000I-20000J0D01*
G01*
X14642900Y-11000000D02*
G75*
G02*
X14682900Y-11000000I20000J0D01*
G01*
X14701900Y-10209120D02*
G75*
G02*
X14661900Y-10209120I-20000J0D01*
G01*
X14661900Y-10209120D02*
G75*
G02*
X14701900Y-10209120I20000J0D01*
G01*
X14701900Y-10310720D02*
G75*
G02*
X14661900Y-10310720I-20000J0D01*
G01*
X14661900Y-10310720D02*
G75*
G02*
X14701900Y-10310720I20000J0D01*
G01*
X14701900Y-10412320D02*
G75*
G02*
X14661900Y-10412320I-20000J0D01*
G01*
X14661900Y-10412320D02*
G75*
G02*
X14701900Y-10412320I20000J0D01*
G01*
X14701900Y-10513920D02*
G75*
G02*
X14661900Y-10513920I-20000J0D01*
G01*
X14661900Y-10513920D02*
G75*
G02*
X14701900Y-10513920I20000J0D01*
G01*
X14778100Y-9909400D02*
G75*
G02*
X14738100Y-9909400I-20000J0D01*
G01*
X14738100Y-9909400D02*
G75*
G02*
X14778100Y-9909400I20000J0D01*
G01*
X14832900Y-11250000D02*
G75*
G02*
X14792900Y-11250000I-20000J0D01*
G01*
X14792900Y-11250000D02*
G75*
G02*
X14832900Y-11250000I20000J0D01*
G01*
X14832900Y-11440500D02*
G75*
G02*
X14792900Y-11440500I-20000J0D01*
G01*
X14792900Y-11440500D02*
G75*
G02*
X14832900Y-11440500I20000J0D01*
G01*
X14942900Y-9985300D02*
G75*
G02*
X14902900Y-9985300I-20000J0D01*
G01*
X14902900Y-9985300D02*
G75*
G02*
X14942900Y-9985300I20000J0D01*
G01*
X15022900Y-11250000D02*
G75*
G02*
X14982900Y-11250000I-20000J0D01*
G01*
X14982900Y-11250000D02*
G75*
G02*
X15022900Y-11250000I20000J0D01*
G01*
X15092900Y-11640500D02*
G75*
G02*
X15052900Y-11640500I-20000J0D01*
G01*
X15052900Y-11640500D02*
G75*
G02*
X15092900Y-11640500I20000J0D01*
G01*
X15146400Y-9998300D02*
G75*
G02*
X15106400Y-9998300I-20000J0D01*
G01*
X15106400Y-9998300D02*
G75*
G02*
X15146400Y-9998300I20000J0D01*
G01*
X15282900Y-11450000D02*
G75*
G02*
X15242900Y-11450000I-20000J0D01*
G01*
X15242900Y-11450000D02*
G75*
G02*
X15282900Y-11450000I20000J0D01*
G01*
X15282900Y-11640500D02*
G75*
G02*
X15242900Y-11640500I-20000J0D01*
G01*
X15242900Y-11640500D02*
G75*
G02*
X15282900Y-11640500I20000J0D01*
G01*
X15382900Y-13430000D02*
G75*
G02*
X15342900Y-13430000I-20000J0D01*
G01*
X15342900Y-13430000D02*
G75*
G02*
X15382900Y-13430000I20000J0D01*
G01*
X15417899Y-10650000D02*
G75*
G02*
X15377899Y-10650000I-20000J0D01*
G01*
X15377899Y-10650000D02*
G75*
G02*
X15417899Y-10650000I20000J0D01*
G01*
X15462900Y-12106500D02*
G75*
G02*
X15422900Y-12106500I-20000J0D01*
G01*
X15422900Y-12106500D02*
G75*
G02*
X15462900Y-12106500I20000J0D01*
G01*
X15463900Y-11344500D02*
G75*
G02*
X15423900Y-11344500I-20000J0D01*
G01*
X15423900Y-11344500D02*
G75*
G02*
X15463900Y-11344500I20000J0D01*
G01*
X15463900Y-11535000D02*
G75*
G02*
X15423900Y-11535000I-20000J0D01*
G01*
X15423900Y-11535000D02*
G75*
G02*
X15463900Y-11535000I20000J0D01*
G01*
X15463900Y-11725500D02*
G75*
G02*
X15423900Y-11725500I-20000J0D01*
G01*
X15423900Y-11725500D02*
G75*
G02*
X15463900Y-11725500I20000J0D01*
G01*
X15463900Y-11916000D02*
G75*
G02*
X15423900Y-11916000I-20000J0D01*
G01*
X15423900Y-11916000D02*
G75*
G02*
X15463900Y-11916000I20000J0D01*
G01*
X15512900Y-11154000D02*
G75*
G02*
X15472900Y-11154000I-20000J0D01*
G01*
X15472900Y-11154000D02*
G75*
G02*
X15512900Y-11154000I20000J0D01*
G01*
X15641700Y-10209120D02*
G75*
G02*
X15601700Y-10209120I-20000J0D01*
G01*
X15601700Y-10209120D02*
G75*
G02*
X15641700Y-10209120I20000J0D01*
G01*
X15641700Y-10310720D02*
G75*
G02*
X15601700Y-10310720I-20000J0D01*
G01*
X15601700Y-10310720D02*
G75*
G02*
X15641700Y-10310720I20000J0D01*
G01*
X15641700Y-10412320D02*
G75*
G02*
X15601700Y-10412320I-20000J0D01*
G01*
X15601700Y-10412320D02*
G75*
G02*
X15641700Y-10412320I20000J0D01*
G01*
X15641700Y-10513920D02*
G75*
G02*
X15601700Y-10513920I-20000J0D01*
G01*
X15601700Y-10513920D02*
G75*
G02*
X15641700Y-10513920I20000J0D01*
G01*
X15654400Y-11154000D02*
G75*
G02*
X15614400Y-11154000I-20000J0D01*
G01*
X15614400Y-11154000D02*
G75*
G02*
X15654400Y-11154000I20000J0D01*
G01*
X15654400Y-11344500D02*
G75*
G02*
X15614400Y-11344500I-20000J0D01*
G01*
X15614400Y-11344500D02*
G75*
G02*
X15654400Y-11344500I20000J0D01*
G01*
X15654400Y-11535000D02*
G75*
G02*
X15614400Y-11535000I-20000J0D01*
G01*
X15614400Y-11535000D02*
G75*
G02*
X15654400Y-11535000I20000J0D01*
G01*
X15654400Y-11725500D02*
G75*
G02*
X15614400Y-11725500I-20000J0D01*
G01*
X15614400Y-11725500D02*
G75*
G02*
X15654400Y-11725500I20000J0D01*
G01*
X15654400Y-11916000D02*
G75*
G02*
X15614400Y-11916000I-20000J0D01*
G01*
X15614400Y-11916000D02*
G75*
G02*
X15654400Y-11916000I20000J0D01*
G01*
X15654400Y-12106500D02*
G75*
G02*
X15614400Y-12106500I-20000J0D01*
G01*
X15614400Y-12106500D02*
G75*
G02*
X15654400Y-12106500I20000J0D01*
G01*
X15692900Y-10980000D02*
G75*
G02*
X15652900Y-10980000I-20000J0D01*
G01*
X15652900Y-10980000D02*
G75*
G02*
X15692900Y-10980000I20000J0D01*
G01*
X15743300Y-10209120D02*
G75*
G02*
X15703300Y-10209120I-20000J0D01*
G01*
X15703300Y-10209120D02*
G75*
G02*
X15743300Y-10209120I20000J0D01*
G01*
X15743300Y-10310720D02*
G75*
G02*
X15703300Y-10310720I-20000J0D01*
G01*
X15703300Y-10310720D02*
G75*
G02*
X15743300Y-10310720I20000J0D01*
G01*
X15743300Y-10412320D02*
G75*
G02*
X15703300Y-10412320I-20000J0D01*
G01*
X15703300Y-10412320D02*
G75*
G02*
X15743300Y-10412320I20000J0D01*
G01*
X15743300Y-10513920D02*
G75*
G02*
X15703300Y-10513920I-20000J0D01*
G01*
X15703300Y-10513920D02*
G75*
G02*
X15743300Y-10513920I20000J0D01*
G01*
X15812900Y-8360000D02*
G75*
G02*
X15772900Y-8360000I-20000J0D01*
G01*
X15772900Y-8360000D02*
G75*
G02*
X15812900Y-8360000I20000J0D01*
G01*
X15844900Y-10209120D02*
G75*
G02*
X15804900Y-10209120I-20000J0D01*
G01*
X15804900Y-10209120D02*
G75*
G02*
X15844900Y-10209120I20000J0D01*
G01*
X15844900Y-10310720D02*
G75*
G02*
X15804900Y-10310720I-20000J0D01*
G01*
X15804900Y-10310720D02*
G75*
G02*
X15844900Y-10310720I20000J0D01*
G01*
X15844900Y-10412320D02*
G75*
G02*
X15804900Y-10412320I-20000J0D01*
G01*
X15804900Y-10412320D02*
G75*
G02*
X15844900Y-10412320I20000J0D01*
G01*
X15844900Y-10513920D02*
G75*
G02*
X15804900Y-10513920I-20000J0D01*
G01*
X15804900Y-10513920D02*
G75*
G02*
X15844900Y-10513920I20000J0D01*
G01*
X15946500Y-10209120D02*
G75*
G02*
X15906500Y-10209120I-20000J0D01*
G01*
X15906500Y-10209120D02*
G75*
G02*
X15946500Y-10209120I20000J0D01*
G01*
X15946500Y-10310720D02*
G75*
G02*
X15906500Y-10310720I-20000J0D01*
G01*
X15906500Y-10310720D02*
G75*
G02*
X15946500Y-10310720I20000J0D01*
G01*
X15946500Y-10412320D02*
G75*
G02*
X15906500Y-10412320I-20000J0D01*
G01*
X15906500Y-10412320D02*
G75*
G02*
X15946500Y-10412320I20000J0D01*
G01*
X15946500Y-10513920D02*
G75*
G02*
X15906500Y-10513920I-20000J0D01*
G01*
X15906500Y-10513920D02*
G75*
G02*
X15946500Y-10513920I20000J0D01*
G01*
X15953600Y-7680000D02*
G75*
G02*
X15913600Y-7680000I-20000J0D01*
G01*
X15913600Y-7680000D02*
G75*
G02*
X15953600Y-7680000I20000J0D01*
G01*
X16132900Y-8360000D02*
G75*
G02*
X16092900Y-8360000I-20000J0D01*
G01*
X16092900Y-8360000D02*
G75*
G02*
X16132900Y-8360000I20000J0D01*
G01*
X16175200Y-8829900D02*
G75*
G02*
X16135200Y-8829900I-20000J0D01*
G01*
X16135200Y-8829900D02*
G75*
G02*
X16175200Y-8829900I20000J0D01*
G01*
X16302900Y-8042500D02*
G75*
G02*
X16262900Y-8042500I-20000J0D01*
G01*
X16262900Y-8042500D02*
G75*
G02*
X16302900Y-8042500I20000J0D01*
G01*
X16479900Y-9807800D02*
G75*
G02*
X16439900Y-9807800I-20000J0D01*
G01*
X16439900Y-9807800D02*
G75*
G02*
X16479900Y-9807800I20000J0D01*
G01*
X16606900Y-9147400D02*
G75*
G02*
X16566900Y-9147400I-20000J0D01*
G01*
X16566900Y-9147400D02*
G75*
G02*
X16606900Y-9147400I20000J0D01*
G01*
X16782500Y-9147400D02*
G75*
G02*
X16742500Y-9147400I-20000J0D01*
G01*
X16742500Y-9147400D02*
G75*
G02*
X16782500Y-9147400I20000J0D01*
G01*
X16938813Y-8664385D02*
G75*
G02*
X16898813Y-8664385I-20000J0D01*
G01*
X16898813Y-8664385D02*
G75*
G02*
X16938813Y-8664385I20000J0D01*
G01*
X16952900Y-8550000D02*
G75*
G02*
X16912900Y-8550000I-20000J0D01*
G01*
X16912900Y-8550000D02*
G75*
G02*
X16952900Y-8550000I20000J0D01*
G01*
X16973400Y-9147400D02*
G75*
G02*
X16933400Y-9147400I-20000J0D01*
G01*
X16933400Y-9147400D02*
G75*
G02*
X16973400Y-9147400I20000J0D01*
G01*
X17084420Y-9442040D02*
G75*
G02*
X17044420Y-9442040I-20000J0D01*
G01*
X17044420Y-9442040D02*
G75*
G02*
X17084420Y-9442040I20000J0D01*
G01*
X17084420Y-9563960D02*
G75*
G02*
X17044420Y-9563960I-20000J0D01*
G01*
X17044420Y-9563960D02*
G75*
G02*
X17084420Y-9563960I20000J0D01*
G01*
X17084420Y-9690960D02*
G75*
G02*
X17044420Y-9690960I-20000J0D01*
G01*
X17044420Y-9690960D02*
G75*
G02*
X17084420Y-9690960I20000J0D01*
G01*
X17186020Y-9630000D02*
G75*
G02*
X17146020Y-9630000I-20000J0D01*
G01*
X17146020Y-9630000D02*
G75*
G02*
X17186020Y-9630000I20000J0D01*
G01*
X17191100Y-9147400D02*
G75*
G02*
X17151100Y-9147400I-20000J0D01*
G01*
X17151100Y-9147400D02*
G75*
G02*
X17191100Y-9147400I20000J0D01*
G01*
X17191100Y-9960200D02*
G75*
G02*
X17151100Y-9960200I-20000J0D01*
G01*
X17151100Y-9960200D02*
G75*
G02*
X17191100Y-9960200I20000J0D01*
G01*
X16918900Y-7117500D02*
X16918900Y-7182500D01*
X16886400Y-7150000D02*
X16951400Y-7150000D01*
X17045900Y-7117500D02*
X17045900Y-7182500D01*
X17013400Y-7150000D02*
X17078400Y-7150000D01*
X17172900Y-7117500D02*
X17172900Y-7182500D01*
X17140400Y-7150000D02*
X17205400Y-7150000D01*
X17299900Y-7117500D02*
X17299900Y-7182500D01*
X17267400Y-7150000D02*
X17332400Y-7150000D01*
X12459184Y-11352284D02*
X12459184Y-11295715D01*
X12402615Y-11295715D01*
X12402615Y-11352284D01*
X12459184Y-11352284D01*
X12459184Y-12698284D02*
X12459184Y-12641715D01*
X12402615Y-12641715D01*
X12402615Y-12698284D01*
X12459184Y-12698284D01*
X12589184Y-11352284D02*
X12589184Y-11295715D01*
X12532615Y-11295715D01*
X12532615Y-11352284D01*
X12589184Y-11352284D01*
X12589184Y-12698284D02*
X12589184Y-12641715D01*
X12532615Y-12641715D01*
X12532615Y-12698284D01*
X12589184Y-12698284D01*
X12601184Y-11928284D02*
X12601184Y-11871715D01*
X12544615Y-11871715D01*
X12544615Y-11928284D01*
X12601184Y-11928284D01*
X12601184Y-12228284D02*
X12601184Y-12171715D01*
X12544615Y-12171715D01*
X12544615Y-12228284D01*
X12601184Y-12228284D01*
X12601184Y-12528284D02*
X12601184Y-12471715D01*
X12544615Y-12471715D01*
X12544615Y-12528284D01*
X12601184Y-12528284D01*
X12719184Y-11352284D02*
X12719184Y-11295715D01*
X12662615Y-11295715D01*
X12662615Y-11352284D01*
X12719184Y-11352284D01*
X12719184Y-12698284D02*
X12719184Y-12641715D01*
X12662615Y-12641715D01*
X12662615Y-12698284D01*
X12719184Y-12698284D01*
X12901184Y-11928284D02*
X12901184Y-11871715D01*
X12844615Y-11871715D01*
X12844615Y-11928284D01*
X12901184Y-11928284D01*
X12901184Y-12228284D02*
X12901184Y-12171715D01*
X12844615Y-12171715D01*
X12844615Y-12228284D01*
X12901184Y-12228284D01*
X12901184Y-12528284D02*
X12901184Y-12471715D01*
X12844615Y-12471715D01*
X12844615Y-12528284D01*
X12901184Y-12528284D01*
X13091184Y-11352284D02*
X13091184Y-11295715D01*
X13034615Y-11295715D01*
X13034615Y-11352284D01*
X13091184Y-11352284D01*
X13091184Y-12698284D02*
X13091184Y-12641715D01*
X13034615Y-12641715D01*
X13034615Y-12698284D01*
X13091184Y-12698284D01*
X13201184Y-11928284D02*
X13201184Y-11871715D01*
X13144615Y-11871715D01*
X13144615Y-11928284D01*
X13201184Y-11928284D01*
X13201184Y-12228284D02*
X13201184Y-12171715D01*
X13144615Y-12171715D01*
X13144615Y-12228284D01*
X13201184Y-12228284D01*
X13201184Y-12528284D02*
X13201184Y-12471715D01*
X13144615Y-12471715D01*
X13144615Y-12528284D01*
X13201184Y-12528284D01*
X13221184Y-11352284D02*
X13221184Y-11295715D01*
X13164615Y-11295715D01*
X13164615Y-11352284D01*
X13221184Y-11352284D01*
X13221184Y-12698284D02*
X13221184Y-12641715D01*
X13164615Y-12641715D01*
X13164615Y-12698284D01*
X13221184Y-12698284D01*
X13351184Y-11352284D02*
X13351184Y-11295715D01*
X13294615Y-11295715D01*
X13294615Y-11352284D01*
X13351184Y-11352284D01*
X13351184Y-12698284D02*
X13351184Y-12641715D01*
X13294615Y-12641715D01*
X13294615Y-12698284D01*
X13351184Y-12698284D01*
X13451184Y-7603284D02*
X13451184Y-7546715D01*
X13394615Y-7546715D01*
X13394615Y-7603284D01*
X13451184Y-7603284D01*
X13681184Y-11028285D02*
X13681184Y-10971716D01*
X13624615Y-10971716D01*
X13624615Y-11028285D01*
X13681184Y-11028285D01*
X13691184Y-11408284D02*
X13691184Y-11351715D01*
X13634615Y-11351715D01*
X13634615Y-11408284D01*
X13691184Y-11408284D01*
X13691184Y-11898284D02*
X13691184Y-11841715D01*
X13634615Y-11841715D01*
X13634615Y-11898284D01*
X13691184Y-11898284D01*
X13751184Y-8428285D02*
X13751184Y-8371715D01*
X13694615Y-8371715D01*
X13694615Y-8428285D01*
X13751184Y-8428285D01*
X13751184Y-8778285D02*
X13751184Y-8721716D01*
X13694615Y-8721716D01*
X13694615Y-8778285D01*
X13751184Y-8778285D01*
X13781184Y-12388284D02*
X13781184Y-12331715D01*
X13724615Y-12331715D01*
X13724615Y-12388284D01*
X13781184Y-12388284D01*
X13851184Y-7653284D02*
X13851184Y-7596715D01*
X13794615Y-7596715D01*
X13794615Y-7653284D01*
X13851184Y-7653284D01*
X13851184Y-7853284D02*
X13851184Y-7796715D01*
X13794615Y-7796715D01*
X13794615Y-7853284D01*
X13851184Y-7853284D01*
X13851184Y-8078284D02*
X13851184Y-8021715D01*
X13794615Y-8021715D01*
X13794615Y-8078284D01*
X13851184Y-8078284D01*
X14031184Y-12218284D02*
X14031184Y-12161715D01*
X13974615Y-12161715D01*
X13974615Y-12218284D01*
X14031184Y-12218284D01*
X14156184Y-7628284D02*
X14156184Y-7571715D01*
X14099615Y-7571715D01*
X14099615Y-7628284D01*
X14156184Y-7628284D01*
X14156184Y-7853284D02*
X14156184Y-7796715D01*
X14099615Y-7796715D01*
X14099615Y-7853284D01*
X14156184Y-7853284D01*
X14156184Y-8078284D02*
X14156184Y-8021715D01*
X14099615Y-8021715D01*
X14099615Y-8078284D01*
X14156184Y-8078284D01*
X14201184Y-12568284D02*
X14201184Y-12511715D01*
X14144615Y-12511715D01*
X14144615Y-12568284D01*
X14201184Y-12568284D01*
X14381184Y-7628284D02*
X14381184Y-7571715D01*
X14324615Y-7571715D01*
X14324615Y-7628284D01*
X14381184Y-7628284D01*
X14381184Y-7853284D02*
X14381184Y-7796715D01*
X14324615Y-7796715D01*
X14324615Y-7853284D01*
X14381184Y-7853284D01*
X14381184Y-8078284D02*
X14381184Y-8021715D01*
X14324615Y-8021715D01*
X14324615Y-8078284D01*
X14381184Y-8078284D01*
X14421184Y-12368284D02*
X14421184Y-12311715D01*
X14364615Y-12311715D01*
X14364615Y-12368284D01*
X14421184Y-12368284D01*
X14521184Y-12678284D02*
X14521184Y-12621715D01*
X14464615Y-12621715D01*
X14464615Y-12678284D01*
X14521184Y-12678284D01*
X14721184Y-12518284D02*
X14721184Y-12461715D01*
X14664615Y-12461715D01*
X14664615Y-12518284D01*
X14721184Y-12518284D01*
X14861184Y-10818285D02*
X14861184Y-10761716D01*
X14804615Y-10761716D01*
X14804615Y-10818285D01*
X14861184Y-10818285D01*
X14861184Y-12248284D02*
X14861184Y-12191715D01*
X14804615Y-12191715D01*
X14804615Y-12248284D01*
X14861184Y-12248284D01*
X15051184Y-10818285D02*
X15051184Y-10761716D01*
X14994615Y-10761716D01*
X14994615Y-10818285D01*
X15051184Y-10818285D01*
X15051184Y-12248284D02*
X15051184Y-12191715D01*
X14994615Y-12191715D01*
X14994615Y-12248284D01*
X15051184Y-12248284D01*
X15241184Y-10818285D02*
X15241184Y-10761716D01*
X15184615Y-10761716D01*
X15184615Y-10818285D01*
X15241184Y-10818285D01*
X15241184Y-12248284D02*
X15241184Y-12191715D01*
X15184615Y-12191715D01*
X15184615Y-12248284D01*
X15241184Y-12248284D01*
X16111184Y-13408284D02*
X16111184Y-13351715D01*
X16054615Y-13351715D01*
X16054615Y-13408284D01*
X16111184Y-13408284D01*
X16971185Y-12038284D02*
X16971185Y-11981715D01*
X16914616Y-11981715D01*
X16914616Y-12038284D01*
X16971185Y-12038284D01*
X16971185Y-12318284D02*
X16971185Y-12261715D01*
X16914616Y-12261715D01*
X16914616Y-12318284D01*
X16971185Y-12318284D01*
X16981185Y-11568284D02*
X16981185Y-11511715D01*
X16924616Y-11511715D01*
X16924616Y-11568284D01*
X16981185Y-11568284D01*
X16981185Y-11798284D02*
X16981185Y-11741715D01*
X16924616Y-11741715D01*
X16924616Y-11798284D01*
X16981185Y-11798284D01*
X17228285Y-11428284D02*
X17228285Y-11371715D01*
X17171716Y-11371715D01*
X17171716Y-11428284D01*
X17228285Y-11428284D01*
X17231185Y-12178284D02*
X17231185Y-12121715D01*
X17174616Y-12121715D01*
X17174616Y-12178284D01*
X17231185Y-12178284D01*
X14597900Y-7422500D02*
X14645400Y-7375000D01*
X14597900Y-7327500D01*
X14550400Y-7375000D01*
X14597900Y-7422500D01*
X14847900Y-7422500D02*
X14895400Y-7375000D01*
X14847900Y-7327500D01*
X14800400Y-7375000D01*
X14847900Y-7422500D01*
X15097900Y-7422500D02*
X15145400Y-7375000D01*
X15097900Y-7327500D01*
X15050400Y-7375000D01*
X15097900Y-7422500D01*
X15347900Y-7422500D02*
X15395400Y-7375000D01*
X15347900Y-7327500D01*
X15300400Y-7375000D01*
X15347900Y-7422500D01*
X14550900Y-13354250D02*
X14649900Y-13453250D01*
X14649900Y-13354250D02*
X14550900Y-13453250D01*
X14649900Y-13403750D02*
G75*
G02*
X14550900Y-13403750I-49500J0D01*
G01*
X14550900Y-13403750D02*
G75*
G02*
X14649900Y-13403750I49500J0D01*
G01*
X15000900Y-13354250D02*
X15099900Y-13453250D01*
X15099900Y-13354250D02*
X15000900Y-13453250D01*
X15099900Y-13403750D02*
G75*
G02*
X15000900Y-13403750I-49500J0D01*
G01*
X15000900Y-13403750D02*
G75*
G02*
X15099900Y-13403750I49500J0D01*
G01*
X12822900Y-10457500D02*
X12922900Y-10557500D01*
X12922900Y-10457500D02*
X12822900Y-10557500D01*
X12872900Y-10457500D02*
X12872900Y-10557500D01*
X12822900Y-10507500D02*
X12922900Y-10507500D01*
X12922900Y-10772500D02*
X12922900Y-10242500D01*
X12822900Y-10242500D02*
G75*
G02*
X12922900Y-10242500I50000J0D01*
G01*
X12822900Y-10242500D02*
X12822900Y-10772500D01*
X12822900Y-10772500D02*
G75*
G03*
X12922900Y-10772500I50000J0D01*
G01*
X16072900Y-9457500D02*
X16172900Y-9557500D01*
X16172900Y-9457500D02*
X16072900Y-9557500D01*
X16122900Y-9457500D02*
X16122900Y-9557500D01*
X16072900Y-9507500D02*
X16172900Y-9507500D01*
X16172900Y-9772500D02*
X16172900Y-9242500D01*
X16072900Y-9242500D02*
G75*
G02*
X16172900Y-9242500I50000J0D01*
G01*
X16072900Y-9242500D02*
X16072900Y-9772500D01*
X16072900Y-9772500D02*
G75*
G03*
X16172900Y-9772500I50000J0D01*
G01*
X16600400Y-12704200D02*
X16700400Y-12804200D01*
X16700400Y-12704200D02*
X16600400Y-12804200D01*
X16650400Y-12704200D02*
X16650400Y-12804200D01*
X16600400Y-12754200D02*
X16700400Y-12754200D01*
X16600400Y-12958200D02*
X16700400Y-13058200D01*
X16700400Y-12958200D02*
X16600400Y-13058200D01*
X16650400Y-12958200D02*
X16650400Y-13058200D01*
X16600400Y-13008200D02*
X16700400Y-13008200D01*
X16600400Y-13212200D02*
X16700400Y-13312200D01*
X16700400Y-13212200D02*
X16600400Y-13312200D01*
X16650400Y-13212200D02*
X16650400Y-13312200D01*
X16600400Y-13262200D02*
X16700400Y-13262200D01*
X16600400Y-13466200D02*
X16700400Y-13566200D01*
X16700400Y-13466200D02*
X16600400Y-13566200D01*
X16650400Y-13466200D02*
X16650400Y-13566200D01*
X16600400Y-13516200D02*
X16700400Y-13516200D01*
X16722900Y-10457500D02*
X16822900Y-10557500D01*
X16822900Y-10457500D02*
X16722900Y-10557500D01*
X16772900Y-10457500D02*
X16772900Y-10557500D01*
X16722900Y-10507500D02*
X16822900Y-10507500D01*
X16822900Y-10772500D02*
X16822900Y-10242500D01*
X16722900Y-10242500D02*
G75*
G02*
X16822900Y-10242500I50000J0D01*
G01*
X16722900Y-10242500D02*
X16722900Y-10772500D01*
X16722900Y-10772500D02*
G75*
G03*
X16822900Y-10772500I50000J0D01*
G01*
D12*
X15884800Y-7207800D02*
X16004800Y-7327800D01*
X16004800Y-7207800D02*
X15884800Y-7327800D01*
X15987227Y-7310227D02*
X15987227Y-7225373D01*
X15902373Y-7225373D01*
X15902373Y-7310227D01*
X15987227Y-7310227D01*
X16234800Y-7207800D02*
X16354800Y-7327800D01*
X16354800Y-7207800D02*
X16234800Y-7327800D01*
X16337227Y-7310227D02*
X16337227Y-7225373D01*
X16252373Y-7225373D01*
X16252373Y-7310227D01*
X16337227Y-7310227D01*
D13*
X14409400Y-13089750D02*
X14539400Y-13219750D01*
X14539400Y-13089750D02*
X14409400Y-13219750D01*
X14474400Y-13219750D02*
X14539400Y-13154750D01*
X14474400Y-13089750D01*
X14409400Y-13154750D01*
X14474400Y-13219750D01*
X15110400Y-13089750D02*
X15240400Y-13219750D01*
X15240400Y-13089750D02*
X15110400Y-13219750D01*
X15175400Y-13219750D02*
X15240400Y-13154750D01*
X15175400Y-13089750D01*
X15110400Y-13154750D01*
X15175400Y-13219750D01*
D14*
X13384900Y-7130000D02*
X13384900Y-7270000D01*
X13314900Y-7200000D02*
X13454900Y-7200000D01*
X13454900Y-7200000D02*
G75*
G02*
X13314900Y-7200000I-70000J0D01*
G01*
X13314900Y-7200000D02*
G75*
G02*
X13454900Y-7200000I70000J0D01*
G01*
X13892900Y-7130000D02*
X13892900Y-7270000D01*
X13822900Y-7200000D02*
X13962900Y-7200000D01*
X13962900Y-7200000D02*
G75*
G02*
X13822900Y-7200000I-70000J0D01*
G01*
X13822900Y-7200000D02*
G75*
G02*
X13962900Y-7200000I70000J0D01*
G01*
D15*
X13036289Y-8513389D02*
X13036289Y-8336611D01*
X12859511Y-8336611D01*
X12859511Y-8513389D01*
X13036289Y-8513389D01*
X13072900Y-8425000D02*
G75*
G02*
X12822900Y-8425000I-125000J0D01*
G01*
X12822900Y-8425000D02*
G75*
G02*
X13072900Y-8425000I125000J0D01*
G01*
X13932089Y-12994989D02*
X13932089Y-12818211D01*
X13755311Y-12818211D01*
X13755311Y-12994989D01*
X13932089Y-12994989D01*
X13968700Y-12906600D02*
G75*
G02*
X13718700Y-12906600I-125000J0D01*
G01*
X13718700Y-12906600D02*
G75*
G02*
X13968700Y-12906600I125000J0D01*
G01*
D16*
X12483400Y-13560000D02*
X12643400Y-13400000D01*
X12483400Y-13240000D01*
X12323400Y-13400000D01*
X12483400Y-13560000D01*
X12643400Y-13400000D02*
G75*
G02*
X12323400Y-13400000I-160000J0D01*
G01*
X12323400Y-13400000D02*
G75*
G02*
X12643400Y-13400000I160000J0D01*
G01*
X12831400Y-7875600D02*
X12991400Y-7715600D01*
X12831400Y-7555600D01*
X12671400Y-7715600D01*
X12831400Y-7875600D01*
X12991400Y-7715600D02*
G75*
G02*
X12671400Y-7715600I-160000J0D01*
G01*
X12671400Y-7715600D02*
G75*
G02*
X12991400Y-7715600I160000J0D01*
G01*
X16814400Y-7875600D02*
X16974400Y-7715600D01*
X16814400Y-7555600D01*
X16654400Y-7715600D01*
X16814400Y-7875600D01*
X16974400Y-7715600D02*
G75*
G02*
X16654400Y-7715600I-160000J0D01*
G01*
X16654400Y-7715600D02*
G75*
G02*
X16974400Y-7715600I160000J0D01*
G01*
X17162400Y-13560000D02*
X17322400Y-13400000D01*
X17162400Y-13240000D01*
X17002400Y-13400000D01*
X17162400Y-13560000D01*
X17322400Y-13400000D02*
G75*
G02*
X17002400Y-13400000I-160000J0D01*
G01*
X17002400Y-13400000D02*
G75*
G02*
X17322400Y-13400000I160000J0D01*
G01*
D11*
X12427677Y-14016484D02*
X12427677Y-13816484D01*
X12427677Y-13816484D02*
X12475296Y-13816484D01*
X12475296Y-13816484D02*
X12503867Y-13826008D01*
X12503867Y-13826008D02*
X12522915Y-13845055D01*
X12522915Y-13845055D02*
X12532439Y-13864103D01*
X12532439Y-13864103D02*
X12541962Y-13902198D01*
X12541962Y-13902198D02*
X12541962Y-13930769D01*
X12541962Y-13930769D02*
X12532439Y-13968865D01*
X12532439Y-13968865D02*
X12522915Y-13987912D01*
X12522915Y-13987912D02*
X12503867Y-14006960D01*
X12503867Y-14006960D02*
X12475296Y-14016484D01*
X12475296Y-14016484D02*
X12427677Y-14016484D01*
X12627677Y-14016484D02*
X12627677Y-13883150D01*
X12627677Y-13921246D02*
X12637201Y-13902198D01*
X12637201Y-13902198D02*
X12646724Y-13892674D01*
X12646724Y-13892674D02*
X12665772Y-13883150D01*
X12665772Y-13883150D02*
X12684820Y-13883150D01*
X12751486Y-14016484D02*
X12751486Y-13883150D01*
X12751486Y-13816484D02*
X12741962Y-13826008D01*
X12741962Y-13826008D02*
X12751486Y-13835531D01*
X12751486Y-13835531D02*
X12761010Y-13826008D01*
X12761010Y-13826008D02*
X12751486Y-13816484D01*
X12751486Y-13816484D02*
X12751486Y-13835531D01*
X12875296Y-14016484D02*
X12856248Y-14006960D01*
X12856248Y-14006960D02*
X12846724Y-13987912D01*
X12846724Y-13987912D02*
X12846724Y-13816484D01*
X12980058Y-14016484D02*
X12961010Y-14006960D01*
X12961010Y-14006960D02*
X12951486Y-13987912D01*
X12951486Y-13987912D02*
X12951486Y-13816484D01*
X13208629Y-14016484D02*
X13208629Y-13816484D01*
X13208629Y-13816484D02*
X13275296Y-13959341D01*
X13275296Y-13959341D02*
X13341962Y-13816484D01*
X13341962Y-13816484D02*
X13341962Y-14016484D01*
X13522915Y-14016484D02*
X13522915Y-13911722D01*
X13522915Y-13911722D02*
X13513391Y-13892674D01*
X13513391Y-13892674D02*
X13494343Y-13883150D01*
X13494343Y-13883150D02*
X13456248Y-13883150D01*
X13456248Y-13883150D02*
X13437201Y-13892674D01*
X13522915Y-14006960D02*
X13503867Y-14016484D01*
X13503867Y-14016484D02*
X13456248Y-14016484D01*
X13456248Y-14016484D02*
X13437201Y-14006960D01*
X13437201Y-14006960D02*
X13427677Y-13987912D01*
X13427677Y-13987912D02*
X13427677Y-13968865D01*
X13427677Y-13968865D02*
X13437201Y-13949817D01*
X13437201Y-13949817D02*
X13456248Y-13940293D01*
X13456248Y-13940293D02*
X13503867Y-13940293D01*
X13503867Y-13940293D02*
X13522915Y-13930769D01*
X13618153Y-13883150D02*
X13618153Y-14083150D01*
X13618153Y-13892674D02*
X13637201Y-13883150D01*
X13637201Y-13883150D02*
X13675296Y-13883150D01*
X13675296Y-13883150D02*
X13694343Y-13892674D01*
X13694343Y-13892674D02*
X13703867Y-13902198D01*
X13703867Y-13902198D02*
X13713391Y-13921246D01*
X13713391Y-13921246D02*
X13713391Y-13978388D01*
X13713391Y-13978388D02*
X13703867Y-13997436D01*
X13703867Y-13997436D02*
X13694343Y-14006960D01*
X13694343Y-14006960D02*
X13675296Y-14016484D01*
X13675296Y-14016484D02*
X13637201Y-14016484D01*
X13637201Y-14016484D02*
X13618153Y-14006960D01*
X13799105Y-13997436D02*
X13808629Y-14006960D01*
X13808629Y-14006960D02*
X13799105Y-14016484D01*
X13799105Y-14016484D02*
X13789582Y-14006960D01*
X13789582Y-14006960D02*
X13799105Y-13997436D01*
X13799105Y-13997436D02*
X13799105Y-14016484D01*
X13799105Y-13892674D02*
X13808629Y-13902198D01*
X13808629Y-13902198D02*
X13799105Y-13911722D01*
X13799105Y-13911722D02*
X13789582Y-13902198D01*
X13789582Y-13902198D02*
X13799105Y-13892674D01*
X13799105Y-13892674D02*
X13799105Y-13911722D01*
D10*
X12136900Y-14330000D02*
X12166900Y-14360000D01*
X12166900Y-14330000D02*
X12136900Y-14360000D01*
D11*
X12465772Y-14236484D02*
X12484820Y-14236484D01*
X12484820Y-14236484D02*
X12503867Y-14246008D01*
X12503867Y-14246008D02*
X12513391Y-14255531D01*
X12513391Y-14255531D02*
X12522915Y-14274579D01*
X12522915Y-14274579D02*
X12532439Y-14312674D01*
X12532439Y-14312674D02*
X12532439Y-14360293D01*
X12532439Y-14360293D02*
X12522915Y-14398388D01*
X12522915Y-14398388D02*
X12513391Y-14417436D01*
X12513391Y-14417436D02*
X12503867Y-14426960D01*
X12503867Y-14426960D02*
X12484820Y-14436484D01*
X12484820Y-14436484D02*
X12465772Y-14436484D01*
X12465772Y-14436484D02*
X12446724Y-14426960D01*
X12446724Y-14426960D02*
X12437201Y-14417436D01*
X12437201Y-14417436D02*
X12427677Y-14398388D01*
X12427677Y-14398388D02*
X12418153Y-14360293D01*
X12418153Y-14360293D02*
X12418153Y-14312674D01*
X12418153Y-14312674D02*
X12427677Y-14274579D01*
X12427677Y-14274579D02*
X12437201Y-14255531D01*
X12437201Y-14255531D02*
X12446724Y-14246008D01*
X12446724Y-14246008D02*
X12465772Y-14236484D01*
X12618153Y-14417436D02*
X12627677Y-14426960D01*
X12627677Y-14426960D02*
X12618153Y-14436484D01*
X12618153Y-14436484D02*
X12608629Y-14426960D01*
X12608629Y-14426960D02*
X12618153Y-14417436D01*
X12618153Y-14417436D02*
X12618153Y-14436484D01*
X12694343Y-14236484D02*
X12818153Y-14236484D01*
X12818153Y-14236484D02*
X12751486Y-14312674D01*
X12751486Y-14312674D02*
X12780058Y-14312674D01*
X12780058Y-14312674D02*
X12799105Y-14322198D01*
X12799105Y-14322198D02*
X12808629Y-14331722D01*
X12808629Y-14331722D02*
X12818153Y-14350769D01*
X12818153Y-14350769D02*
X12818153Y-14398388D01*
X12818153Y-14398388D02*
X12808629Y-14417436D01*
X12808629Y-14417436D02*
X12799105Y-14426960D01*
X12799105Y-14426960D02*
X12780058Y-14436484D01*
X12780058Y-14436484D02*
X12722915Y-14436484D01*
X12722915Y-14436484D02*
X12703867Y-14426960D01*
X12703867Y-14426960D02*
X12694343Y-14417436D01*
X12941962Y-14236484D02*
X12961010Y-14236484D01*
X12961010Y-14236484D02*
X12980058Y-14246008D01*
X12980058Y-14246008D02*
X12989582Y-14255531D01*
X12989582Y-14255531D02*
X12999105Y-14274579D01*
X12999105Y-14274579D02*
X13008629Y-14312674D01*
X13008629Y-14312674D02*
X13008629Y-14360293D01*
X13008629Y-14360293D02*
X12999105Y-14398388D01*
X12999105Y-14398388D02*
X12989582Y-14417436D01*
X12989582Y-14417436D02*
X12980058Y-14426960D01*
X12980058Y-14426960D02*
X12961010Y-14436484D01*
X12961010Y-14436484D02*
X12941962Y-14436484D01*
X12941962Y-14436484D02*
X12922915Y-14426960D01*
X12922915Y-14426960D02*
X12913391Y-14417436D01*
X12913391Y-14417436D02*
X12903867Y-14398388D01*
X12903867Y-14398388D02*
X12894343Y-14360293D01*
X12894343Y-14360293D02*
X12894343Y-14312674D01*
X12894343Y-14312674D02*
X12903867Y-14274579D01*
X12903867Y-14274579D02*
X12913391Y-14255531D01*
X12913391Y-14255531D02*
X12922915Y-14246008D01*
X12922915Y-14246008D02*
X12941962Y-14236484D01*
X13132439Y-14236484D02*
X13151486Y-14236484D01*
X13151486Y-14236484D02*
X13170534Y-14246008D01*
X13170534Y-14246008D02*
X13180058Y-14255531D01*
X13180058Y-14255531D02*
X13189582Y-14274579D01*
X13189582Y-14274579D02*
X13199105Y-14312674D01*
X13199105Y-14312674D02*
X13199105Y-14360293D01*
X13199105Y-14360293D02*
X13189582Y-14398388D01*
X13189582Y-14398388D02*
X13180058Y-14417436D01*
X13180058Y-14417436D02*
X13170534Y-14426960D01*
X13170534Y-14426960D02*
X13151486Y-14436484D01*
X13151486Y-14436484D02*
X13132439Y-14436484D01*
X13132439Y-14436484D02*
X13113391Y-14426960D01*
X13113391Y-14426960D02*
X13103867Y-14417436D01*
X13103867Y-14417436D02*
X13094343Y-14398388D01*
X13094343Y-14398388D02*
X13084820Y-14360293D01*
X13084820Y-14360293D02*
X13084820Y-14312674D01*
X13084820Y-14312674D02*
X13094343Y-14274579D01*
X13094343Y-14274579D02*
X13103867Y-14255531D01*
X13103867Y-14255531D02*
X13113391Y-14246008D01*
X13113391Y-14246008D02*
X13132439Y-14236484D01*
X13284820Y-14436484D02*
X13284820Y-14303150D01*
X13284820Y-14322198D02*
X13294343Y-14312674D01*
X13294343Y-14312674D02*
X13313391Y-14303150D01*
X13313391Y-14303150D02*
X13341963Y-14303150D01*
X13341963Y-14303150D02*
X13361010Y-14312674D01*
X13361010Y-14312674D02*
X13370534Y-14331722D01*
X13370534Y-14331722D02*
X13370534Y-14436484D01*
X13370534Y-14331722D02*
X13380058Y-14312674D01*
X13380058Y-14312674D02*
X13399105Y-14303150D01*
X13399105Y-14303150D02*
X13427677Y-14303150D01*
X13427677Y-14303150D02*
X13446724Y-14312674D01*
X13446724Y-14312674D02*
X13456248Y-14331722D01*
X13456248Y-14331722D02*
X13456248Y-14436484D01*
X13551486Y-14436484D02*
X13551486Y-14303150D01*
X13551486Y-14322198D02*
X13561010Y-14312674D01*
X13561010Y-14312674D02*
X13580058Y-14303150D01*
X13580058Y-14303150D02*
X13608629Y-14303150D01*
X13608629Y-14303150D02*
X13627677Y-14312674D01*
X13627677Y-14312674D02*
X13637201Y-14331722D01*
X13637201Y-14331722D02*
X13637201Y-14436484D01*
X13637201Y-14331722D02*
X13646724Y-14312674D01*
X13646724Y-14312674D02*
X13665772Y-14303150D01*
X13665772Y-14303150D02*
X13694343Y-14303150D01*
X13694343Y-14303150D02*
X13713391Y-14312674D01*
X13713391Y-14312674D02*
X13722915Y-14331722D01*
X13722915Y-14331722D02*
X13722915Y-14436484D01*
X14113391Y-14226960D02*
X13941963Y-14484103D01*
X14370534Y-14236484D02*
X14389582Y-14236484D01*
X14389582Y-14236484D02*
X14408629Y-14246008D01*
X14408629Y-14246008D02*
X14418153Y-14255531D01*
X14418153Y-14255531D02*
X14427677Y-14274579D01*
X14427677Y-14274579D02*
X14437201Y-14312674D01*
X14437201Y-14312674D02*
X14437201Y-14360293D01*
X14437201Y-14360293D02*
X14427677Y-14398388D01*
X14427677Y-14398388D02*
X14418153Y-14417436D01*
X14418153Y-14417436D02*
X14408629Y-14426960D01*
X14408629Y-14426960D02*
X14389582Y-14436484D01*
X14389582Y-14436484D02*
X14370534Y-14436484D01*
X14370534Y-14436484D02*
X14351486Y-14426960D01*
X14351486Y-14426960D02*
X14341963Y-14417436D01*
X14341963Y-14417436D02*
X14332439Y-14398388D01*
X14332439Y-14398388D02*
X14322915Y-14360293D01*
X14322915Y-14360293D02*
X14322915Y-14312674D01*
X14322915Y-14312674D02*
X14332439Y-14274579D01*
X14332439Y-14274579D02*
X14341963Y-14255531D01*
X14341963Y-14255531D02*
X14351486Y-14246008D01*
X14351486Y-14246008D02*
X14370534Y-14236484D01*
X14522915Y-14417436D02*
X14532439Y-14426960D01*
X14532439Y-14426960D02*
X14522915Y-14436484D01*
X14522915Y-14436484D02*
X14513391Y-14426960D01*
X14513391Y-14426960D02*
X14522915Y-14417436D01*
X14522915Y-14417436D02*
X14522915Y-14436484D01*
X14656248Y-14236484D02*
X14675296Y-14236484D01*
X14675296Y-14236484D02*
X14694344Y-14246008D01*
X14694344Y-14246008D02*
X14703867Y-14255531D01*
X14703867Y-14255531D02*
X14713391Y-14274579D01*
X14713391Y-14274579D02*
X14722915Y-14312674D01*
X14722915Y-14312674D02*
X14722915Y-14360293D01*
X14722915Y-14360293D02*
X14713391Y-14398388D01*
X14713391Y-14398388D02*
X14703867Y-14417436D01*
X14703867Y-14417436D02*
X14694344Y-14426960D01*
X14694344Y-14426960D02*
X14675296Y-14436484D01*
X14675296Y-14436484D02*
X14656248Y-14436484D01*
X14656248Y-14436484D02*
X14637201Y-14426960D01*
X14637201Y-14426960D02*
X14627677Y-14417436D01*
X14627677Y-14417436D02*
X14618153Y-14398388D01*
X14618153Y-14398388D02*
X14608629Y-14360293D01*
X14608629Y-14360293D02*
X14608629Y-14312674D01*
X14608629Y-14312674D02*
X14618153Y-14274579D01*
X14618153Y-14274579D02*
X14627677Y-14255531D01*
X14627677Y-14255531D02*
X14637201Y-14246008D01*
X14637201Y-14246008D02*
X14656248Y-14236484D01*
X14913391Y-14436484D02*
X14799106Y-14436484D01*
X14856248Y-14436484D02*
X14856248Y-14236484D01*
X14856248Y-14236484D02*
X14837201Y-14265055D01*
X14837201Y-14265055D02*
X14818153Y-14284103D01*
X14818153Y-14284103D02*
X14799106Y-14293627D01*
X15103867Y-14436484D02*
X14989582Y-14436484D01*
X15046725Y-14436484D02*
X15046725Y-14236484D01*
X15046725Y-14236484D02*
X15027677Y-14265055D01*
X15027677Y-14265055D02*
X15008629Y-14284103D01*
X15008629Y-14284103D02*
X14989582Y-14293627D01*
X15218153Y-14322198D02*
X15199106Y-14312674D01*
X15199106Y-14312674D02*
X15189582Y-14303150D01*
X15189582Y-14303150D02*
X15180058Y-14284103D01*
X15180058Y-14284103D02*
X15180058Y-14274579D01*
X15180058Y-14274579D02*
X15189582Y-14255531D01*
X15189582Y-14255531D02*
X15199106Y-14246008D01*
X15199106Y-14246008D02*
X15218153Y-14236484D01*
X15218153Y-14236484D02*
X15256248Y-14236484D01*
X15256248Y-14236484D02*
X15275296Y-14246008D01*
X15275296Y-14246008D02*
X15284820Y-14255531D01*
X15284820Y-14255531D02*
X15294344Y-14274579D01*
X15294344Y-14274579D02*
X15294344Y-14284103D01*
X15294344Y-14284103D02*
X15284820Y-14303150D01*
X15284820Y-14303150D02*
X15275296Y-14312674D01*
X15275296Y-14312674D02*
X15256248Y-14322198D01*
X15256248Y-14322198D02*
X15218153Y-14322198D01*
X15218153Y-14322198D02*
X15199106Y-14331722D01*
X15199106Y-14331722D02*
X15189582Y-14341246D01*
X15189582Y-14341246D02*
X15180058Y-14360293D01*
X15180058Y-14360293D02*
X15180058Y-14398388D01*
X15180058Y-14398388D02*
X15189582Y-14417436D01*
X15189582Y-14417436D02*
X15199106Y-14426960D01*
X15199106Y-14426960D02*
X15218153Y-14436484D01*
X15218153Y-14436484D02*
X15256248Y-14436484D01*
X15256248Y-14436484D02*
X15275296Y-14426960D01*
X15275296Y-14426960D02*
X15284820Y-14417436D01*
X15284820Y-14417436D02*
X15294344Y-14398388D01*
X15294344Y-14398388D02*
X15294344Y-14360293D01*
X15294344Y-14360293D02*
X15284820Y-14341246D01*
X15284820Y-14341246D02*
X15275296Y-14331722D01*
X15275296Y-14331722D02*
X15256248Y-14322198D01*
X15370534Y-14236484D02*
X15370534Y-14274579D01*
X15446725Y-14236484D02*
X15446725Y-14274579D01*
X15741963Y-14512674D02*
X15732439Y-14503150D01*
X15732439Y-14503150D02*
X15713391Y-14474579D01*
X15713391Y-14474579D02*
X15703868Y-14455531D01*
X15703868Y-14455531D02*
X15694344Y-14426960D01*
X15694344Y-14426960D02*
X15684820Y-14379341D01*
X15684820Y-14379341D02*
X15684820Y-14341246D01*
X15684820Y-14341246D02*
X15694344Y-14293627D01*
X15694344Y-14293627D02*
X15703868Y-14265055D01*
X15703868Y-14265055D02*
X15713391Y-14246008D01*
X15713391Y-14246008D02*
X15732439Y-14217436D01*
X15732439Y-14217436D02*
X15741963Y-14207912D01*
X15903868Y-14236484D02*
X15865772Y-14236484D01*
X15865772Y-14236484D02*
X15846725Y-14246008D01*
X15846725Y-14246008D02*
X15837201Y-14255531D01*
X15837201Y-14255531D02*
X15818153Y-14284103D01*
X15818153Y-14284103D02*
X15808629Y-14322198D01*
X15808629Y-14322198D02*
X15808629Y-14398388D01*
X15808629Y-14398388D02*
X15818153Y-14417436D01*
X15818153Y-14417436D02*
X15827677Y-14426960D01*
X15827677Y-14426960D02*
X15846725Y-14436484D01*
X15846725Y-14436484D02*
X15884820Y-14436484D01*
X15884820Y-14436484D02*
X15903868Y-14426960D01*
X15903868Y-14426960D02*
X15913391Y-14417436D01*
X15913391Y-14417436D02*
X15922915Y-14398388D01*
X15922915Y-14398388D02*
X15922915Y-14350769D01*
X15922915Y-14350769D02*
X15913391Y-14331722D01*
X15913391Y-14331722D02*
X15903868Y-14322198D01*
X15903868Y-14322198D02*
X15884820Y-14312674D01*
X15884820Y-14312674D02*
X15846725Y-14312674D01*
X15846725Y-14312674D02*
X15827677Y-14322198D01*
X15827677Y-14322198D02*
X15818153Y-14331722D01*
X15818153Y-14331722D02*
X15808629Y-14350769D01*
X15999106Y-14255531D02*
X16008629Y-14246008D01*
X16008629Y-14246008D02*
X16027677Y-14236484D01*
X16027677Y-14236484D02*
X16075296Y-14236484D01*
X16075296Y-14236484D02*
X16094344Y-14246008D01*
X16094344Y-14246008D02*
X16103868Y-14255531D01*
X16103868Y-14255531D02*
X16113391Y-14274579D01*
X16113391Y-14274579D02*
X16113391Y-14293627D01*
X16113391Y-14293627D02*
X16103868Y-14322198D01*
X16103868Y-14322198D02*
X15989582Y-14436484D01*
X15989582Y-14436484D02*
X16113391Y-14436484D01*
X16351487Y-14436484D02*
X16351487Y-14236484D01*
X16437201Y-14436484D02*
X16437201Y-14331722D01*
X16437201Y-14331722D02*
X16427677Y-14312674D01*
X16427677Y-14312674D02*
X16408630Y-14303150D01*
X16408630Y-14303150D02*
X16380058Y-14303150D01*
X16380058Y-14303150D02*
X16361010Y-14312674D01*
X16361010Y-14312674D02*
X16351487Y-14322198D01*
X16561010Y-14436484D02*
X16541963Y-14426960D01*
X16541963Y-14426960D02*
X16532439Y-14417436D01*
X16532439Y-14417436D02*
X16522915Y-14398388D01*
X16522915Y-14398388D02*
X16522915Y-14341246D01*
X16522915Y-14341246D02*
X16532439Y-14322198D01*
X16532439Y-14322198D02*
X16541963Y-14312674D01*
X16541963Y-14312674D02*
X16561010Y-14303150D01*
X16561010Y-14303150D02*
X16589582Y-14303150D01*
X16589582Y-14303150D02*
X16608630Y-14312674D01*
X16608630Y-14312674D02*
X16618153Y-14322198D01*
X16618153Y-14322198D02*
X16627677Y-14341246D01*
X16627677Y-14341246D02*
X16627677Y-14398388D01*
X16627677Y-14398388D02*
X16618153Y-14417436D01*
X16618153Y-14417436D02*
X16608630Y-14426960D01*
X16608630Y-14426960D02*
X16589582Y-14436484D01*
X16589582Y-14436484D02*
X16561010Y-14436484D01*
X16741963Y-14436484D02*
X16722915Y-14426960D01*
X16722915Y-14426960D02*
X16713391Y-14407912D01*
X16713391Y-14407912D02*
X16713391Y-14236484D01*
X16894344Y-14426960D02*
X16875296Y-14436484D01*
X16875296Y-14436484D02*
X16837201Y-14436484D01*
X16837201Y-14436484D02*
X16818153Y-14426960D01*
X16818153Y-14426960D02*
X16808630Y-14407912D01*
X16808630Y-14407912D02*
X16808630Y-14331722D01*
X16808630Y-14331722D02*
X16818153Y-14312674D01*
X16818153Y-14312674D02*
X16837201Y-14303150D01*
X16837201Y-14303150D02*
X16875296Y-14303150D01*
X16875296Y-14303150D02*
X16894344Y-14312674D01*
X16894344Y-14312674D02*
X16903868Y-14331722D01*
X16903868Y-14331722D02*
X16903868Y-14350769D01*
X16903868Y-14350769D02*
X16808630Y-14369817D01*
X16980058Y-14426960D02*
X16999106Y-14436484D01*
X16999106Y-14436484D02*
X17037201Y-14436484D01*
X17037201Y-14436484D02*
X17056249Y-14426960D01*
X17056249Y-14426960D02*
X17065773Y-14407912D01*
X17065773Y-14407912D02*
X17065773Y-14398388D01*
X17065773Y-14398388D02*
X17056249Y-14379341D01*
X17056249Y-14379341D02*
X17037201Y-14369817D01*
X17037201Y-14369817D02*
X17008630Y-14369817D01*
X17008630Y-14369817D02*
X16989582Y-14360293D01*
X16989582Y-14360293D02*
X16980058Y-14341246D01*
X16980058Y-14341246D02*
X16980058Y-14331722D01*
X16980058Y-14331722D02*
X16989582Y-14312674D01*
X16989582Y-14312674D02*
X17008630Y-14303150D01*
X17008630Y-14303150D02*
X17037201Y-14303150D01*
X17037201Y-14303150D02*
X17056249Y-14312674D01*
X17132439Y-14512674D02*
X17141963Y-14503150D01*
X17141963Y-14503150D02*
X17161011Y-14474579D01*
X17161011Y-14474579D02*
X17170534Y-14455531D01*
X17170534Y-14455531D02*
X17180058Y-14426960D01*
X17180058Y-14426960D02*
X17189582Y-14379341D01*
X17189582Y-14379341D02*
X17189582Y-14341246D01*
X17189582Y-14341246D02*
X17180058Y-14293627D01*
X17180058Y-14293627D02*
X17170534Y-14265055D01*
X17170534Y-14265055D02*
X17161011Y-14246008D01*
X17161011Y-14246008D02*
X17141963Y-14217436D01*
X17141963Y-14217436D02*
X17132439Y-14207912D01*
D10*
X12166900Y-14609000D02*
G75*
G02*
X12126900Y-14609000I-20000J0D01*
G01*
X12126900Y-14609000D02*
G75*
G02*
X12166900Y-14609000I20000J0D01*
G01*
D11*
X12465772Y-14500484D02*
X12484820Y-14500484D01*
X12484820Y-14500484D02*
X12503867Y-14510008D01*
X12503867Y-14510008D02*
X12513391Y-14519531D01*
X12513391Y-14519531D02*
X12522915Y-14538579D01*
X12522915Y-14538579D02*
X12532439Y-14576674D01*
X12532439Y-14576674D02*
X12532439Y-14624293D01*
X12532439Y-14624293D02*
X12522915Y-14662388D01*
X12522915Y-14662388D02*
X12513391Y-14681436D01*
X12513391Y-14681436D02*
X12503867Y-14690960D01*
X12503867Y-14690960D02*
X12484820Y-14700484D01*
X12484820Y-14700484D02*
X12465772Y-14700484D01*
X12465772Y-14700484D02*
X12446724Y-14690960D01*
X12446724Y-14690960D02*
X12437201Y-14681436D01*
X12437201Y-14681436D02*
X12427677Y-14662388D01*
X12427677Y-14662388D02*
X12418153Y-14624293D01*
X12418153Y-14624293D02*
X12418153Y-14576674D01*
X12418153Y-14576674D02*
X12427677Y-14538579D01*
X12427677Y-14538579D02*
X12437201Y-14519531D01*
X12437201Y-14519531D02*
X12446724Y-14510008D01*
X12446724Y-14510008D02*
X12465772Y-14500484D01*
X12618153Y-14681436D02*
X12627677Y-14690960D01*
X12627677Y-14690960D02*
X12618153Y-14700484D01*
X12618153Y-14700484D02*
X12608629Y-14690960D01*
X12608629Y-14690960D02*
X12618153Y-14681436D01*
X12618153Y-14681436D02*
X12618153Y-14700484D01*
X12799105Y-14567150D02*
X12799105Y-14700484D01*
X12751486Y-14490960D02*
X12703867Y-14633817D01*
X12703867Y-14633817D02*
X12827677Y-14633817D01*
X12941962Y-14500484D02*
X12961010Y-14500484D01*
X12961010Y-14500484D02*
X12980058Y-14510008D01*
X12980058Y-14510008D02*
X12989582Y-14519531D01*
X12989582Y-14519531D02*
X12999105Y-14538579D01*
X12999105Y-14538579D02*
X13008629Y-14576674D01*
X13008629Y-14576674D02*
X13008629Y-14624293D01*
X13008629Y-14624293D02*
X12999105Y-14662388D01*
X12999105Y-14662388D02*
X12989582Y-14681436D01*
X12989582Y-14681436D02*
X12980058Y-14690960D01*
X12980058Y-14690960D02*
X12961010Y-14700484D01*
X12961010Y-14700484D02*
X12941962Y-14700484D01*
X12941962Y-14700484D02*
X12922915Y-14690960D01*
X12922915Y-14690960D02*
X12913391Y-14681436D01*
X12913391Y-14681436D02*
X12903867Y-14662388D01*
X12903867Y-14662388D02*
X12894343Y-14624293D01*
X12894343Y-14624293D02*
X12894343Y-14576674D01*
X12894343Y-14576674D02*
X12903867Y-14538579D01*
X12903867Y-14538579D02*
X12913391Y-14519531D01*
X12913391Y-14519531D02*
X12922915Y-14510008D01*
X12922915Y-14510008D02*
X12941962Y-14500484D01*
X13132439Y-14500484D02*
X13151486Y-14500484D01*
X13151486Y-14500484D02*
X13170534Y-14510008D01*
X13170534Y-14510008D02*
X13180058Y-14519531D01*
X13180058Y-14519531D02*
X13189582Y-14538579D01*
X13189582Y-14538579D02*
X13199105Y-14576674D01*
X13199105Y-14576674D02*
X13199105Y-14624293D01*
X13199105Y-14624293D02*
X13189582Y-14662388D01*
X13189582Y-14662388D02*
X13180058Y-14681436D01*
X13180058Y-14681436D02*
X13170534Y-14690960D01*
X13170534Y-14690960D02*
X13151486Y-14700484D01*
X13151486Y-14700484D02*
X13132439Y-14700484D01*
X13132439Y-14700484D02*
X13113391Y-14690960D01*
X13113391Y-14690960D02*
X13103867Y-14681436D01*
X13103867Y-14681436D02*
X13094343Y-14662388D01*
X13094343Y-14662388D02*
X13084820Y-14624293D01*
X13084820Y-14624293D02*
X13084820Y-14576674D01*
X13084820Y-14576674D02*
X13094343Y-14538579D01*
X13094343Y-14538579D02*
X13103867Y-14519531D01*
X13103867Y-14519531D02*
X13113391Y-14510008D01*
X13113391Y-14510008D02*
X13132439Y-14500484D01*
X13284820Y-14700484D02*
X13284820Y-14567150D01*
X13284820Y-14586198D02*
X13294343Y-14576674D01*
X13294343Y-14576674D02*
X13313391Y-14567150D01*
X13313391Y-14567150D02*
X13341963Y-14567150D01*
X13341963Y-14567150D02*
X13361010Y-14576674D01*
X13361010Y-14576674D02*
X13370534Y-14595722D01*
X13370534Y-14595722D02*
X13370534Y-14700484D01*
X13370534Y-14595722D02*
X13380058Y-14576674D01*
X13380058Y-14576674D02*
X13399105Y-14567150D01*
X13399105Y-14567150D02*
X13427677Y-14567150D01*
X13427677Y-14567150D02*
X13446724Y-14576674D01*
X13446724Y-14576674D02*
X13456248Y-14595722D01*
X13456248Y-14595722D02*
X13456248Y-14700484D01*
X13551486Y-14700484D02*
X13551486Y-14567150D01*
X13551486Y-14586198D02*
X13561010Y-14576674D01*
X13561010Y-14576674D02*
X13580058Y-14567150D01*
X13580058Y-14567150D02*
X13608629Y-14567150D01*
X13608629Y-14567150D02*
X13627677Y-14576674D01*
X13627677Y-14576674D02*
X13637201Y-14595722D01*
X13637201Y-14595722D02*
X13637201Y-14700484D01*
X13637201Y-14595722D02*
X13646724Y-14576674D01*
X13646724Y-14576674D02*
X13665772Y-14567150D01*
X13665772Y-14567150D02*
X13694343Y-14567150D01*
X13694343Y-14567150D02*
X13713391Y-14576674D01*
X13713391Y-14576674D02*
X13722915Y-14595722D01*
X13722915Y-14595722D02*
X13722915Y-14700484D01*
X14113391Y-14490960D02*
X13941963Y-14748103D01*
X14370534Y-14500484D02*
X14389582Y-14500484D01*
X14389582Y-14500484D02*
X14408629Y-14510008D01*
X14408629Y-14510008D02*
X14418153Y-14519531D01*
X14418153Y-14519531D02*
X14427677Y-14538579D01*
X14427677Y-14538579D02*
X14437201Y-14576674D01*
X14437201Y-14576674D02*
X14437201Y-14624293D01*
X14437201Y-14624293D02*
X14427677Y-14662388D01*
X14427677Y-14662388D02*
X14418153Y-14681436D01*
X14418153Y-14681436D02*
X14408629Y-14690960D01*
X14408629Y-14690960D02*
X14389582Y-14700484D01*
X14389582Y-14700484D02*
X14370534Y-14700484D01*
X14370534Y-14700484D02*
X14351486Y-14690960D01*
X14351486Y-14690960D02*
X14341963Y-14681436D01*
X14341963Y-14681436D02*
X14332439Y-14662388D01*
X14332439Y-14662388D02*
X14322915Y-14624293D01*
X14322915Y-14624293D02*
X14322915Y-14576674D01*
X14322915Y-14576674D02*
X14332439Y-14538579D01*
X14332439Y-14538579D02*
X14341963Y-14519531D01*
X14341963Y-14519531D02*
X14351486Y-14510008D01*
X14351486Y-14510008D02*
X14370534Y-14500484D01*
X14522915Y-14681436D02*
X14532439Y-14690960D01*
X14532439Y-14690960D02*
X14522915Y-14700484D01*
X14522915Y-14700484D02*
X14513391Y-14690960D01*
X14513391Y-14690960D02*
X14522915Y-14681436D01*
X14522915Y-14681436D02*
X14522915Y-14700484D01*
X14656248Y-14500484D02*
X14675296Y-14500484D01*
X14675296Y-14500484D02*
X14694344Y-14510008D01*
X14694344Y-14510008D02*
X14703867Y-14519531D01*
X14703867Y-14519531D02*
X14713391Y-14538579D01*
X14713391Y-14538579D02*
X14722915Y-14576674D01*
X14722915Y-14576674D02*
X14722915Y-14624293D01*
X14722915Y-14624293D02*
X14713391Y-14662388D01*
X14713391Y-14662388D02*
X14703867Y-14681436D01*
X14703867Y-14681436D02*
X14694344Y-14690960D01*
X14694344Y-14690960D02*
X14675296Y-14700484D01*
X14675296Y-14700484D02*
X14656248Y-14700484D01*
X14656248Y-14700484D02*
X14637201Y-14690960D01*
X14637201Y-14690960D02*
X14627677Y-14681436D01*
X14627677Y-14681436D02*
X14618153Y-14662388D01*
X14618153Y-14662388D02*
X14608629Y-14624293D01*
X14608629Y-14624293D02*
X14608629Y-14576674D01*
X14608629Y-14576674D02*
X14618153Y-14538579D01*
X14618153Y-14538579D02*
X14627677Y-14519531D01*
X14627677Y-14519531D02*
X14637201Y-14510008D01*
X14637201Y-14510008D02*
X14656248Y-14500484D01*
X14913391Y-14700484D02*
X14799106Y-14700484D01*
X14856248Y-14700484D02*
X14856248Y-14500484D01*
X14856248Y-14500484D02*
X14837201Y-14529055D01*
X14837201Y-14529055D02*
X14818153Y-14548103D01*
X14818153Y-14548103D02*
X14799106Y-14557627D01*
X15094344Y-14500484D02*
X14999106Y-14500484D01*
X14999106Y-14500484D02*
X14989582Y-14595722D01*
X14989582Y-14595722D02*
X14999106Y-14586198D01*
X14999106Y-14586198D02*
X15018153Y-14576674D01*
X15018153Y-14576674D02*
X15065772Y-14576674D01*
X15065772Y-14576674D02*
X15084820Y-14586198D01*
X15084820Y-14586198D02*
X15094344Y-14595722D01*
X15094344Y-14595722D02*
X15103867Y-14614769D01*
X15103867Y-14614769D02*
X15103867Y-14662388D01*
X15103867Y-14662388D02*
X15094344Y-14681436D01*
X15094344Y-14681436D02*
X15084820Y-14690960D01*
X15084820Y-14690960D02*
X15065772Y-14700484D01*
X15065772Y-14700484D02*
X15018153Y-14700484D01*
X15018153Y-14700484D02*
X14999106Y-14690960D01*
X14999106Y-14690960D02*
X14989582Y-14681436D01*
X15170534Y-14500484D02*
X15303867Y-14500484D01*
X15303867Y-14500484D02*
X15218153Y-14700484D01*
X15370534Y-14500484D02*
X15370534Y-14538579D01*
X15446725Y-14500484D02*
X15446725Y-14538579D01*
X15741963Y-14776674D02*
X15732439Y-14767150D01*
X15732439Y-14767150D02*
X15713391Y-14738579D01*
X15713391Y-14738579D02*
X15703868Y-14719531D01*
X15703868Y-14719531D02*
X15694344Y-14690960D01*
X15694344Y-14690960D02*
X15684820Y-14643341D01*
X15684820Y-14643341D02*
X15684820Y-14605246D01*
X15684820Y-14605246D02*
X15694344Y-14557627D01*
X15694344Y-14557627D02*
X15703868Y-14529055D01*
X15703868Y-14529055D02*
X15713391Y-14510008D01*
X15713391Y-14510008D02*
X15732439Y-14481436D01*
X15732439Y-14481436D02*
X15741963Y-14471912D01*
X15922915Y-14700484D02*
X15808629Y-14700484D01*
X15865772Y-14700484D02*
X15865772Y-14500484D01*
X15865772Y-14500484D02*
X15846725Y-14529055D01*
X15846725Y-14529055D02*
X15827677Y-14548103D01*
X15827677Y-14548103D02*
X15808629Y-14557627D01*
X16113391Y-14700484D02*
X15999106Y-14700484D01*
X16056248Y-14700484D02*
X16056248Y-14500484D01*
X16056248Y-14500484D02*
X16037201Y-14529055D01*
X16037201Y-14529055D02*
X16018153Y-14548103D01*
X16018153Y-14548103D02*
X15999106Y-14557627D01*
X16284820Y-14567150D02*
X16284820Y-14700484D01*
X16237201Y-14490960D02*
X16189582Y-14633817D01*
X16189582Y-14633817D02*
X16313391Y-14633817D01*
X16541963Y-14700484D02*
X16541963Y-14500484D01*
X16627677Y-14700484D02*
X16627677Y-14595722D01*
X16627677Y-14595722D02*
X16618153Y-14576674D01*
X16618153Y-14576674D02*
X16599106Y-14567150D01*
X16599106Y-14567150D02*
X16570534Y-14567150D01*
X16570534Y-14567150D02*
X16551487Y-14576674D01*
X16551487Y-14576674D02*
X16541963Y-14586198D01*
X16751487Y-14700484D02*
X16732439Y-14690960D01*
X16732439Y-14690960D02*
X16722915Y-14681436D01*
X16722915Y-14681436D02*
X16713391Y-14662388D01*
X16713391Y-14662388D02*
X16713391Y-14605246D01*
X16713391Y-14605246D02*
X16722915Y-14586198D01*
X16722915Y-14586198D02*
X16732439Y-14576674D01*
X16732439Y-14576674D02*
X16751487Y-14567150D01*
X16751487Y-14567150D02*
X16780058Y-14567150D01*
X16780058Y-14567150D02*
X16799106Y-14576674D01*
X16799106Y-14576674D02*
X16808630Y-14586198D01*
X16808630Y-14586198D02*
X16818153Y-14605246D01*
X16818153Y-14605246D02*
X16818153Y-14662388D01*
X16818153Y-14662388D02*
X16808630Y-14681436D01*
X16808630Y-14681436D02*
X16799106Y-14690960D01*
X16799106Y-14690960D02*
X16780058Y-14700484D01*
X16780058Y-14700484D02*
X16751487Y-14700484D01*
X16932439Y-14700484D02*
X16913392Y-14690960D01*
X16913392Y-14690960D02*
X16903868Y-14671912D01*
X16903868Y-14671912D02*
X16903868Y-14500484D01*
X17084820Y-14690960D02*
X17065773Y-14700484D01*
X17065773Y-14700484D02*
X17027677Y-14700484D01*
X17027677Y-14700484D02*
X17008630Y-14690960D01*
X17008630Y-14690960D02*
X16999106Y-14671912D01*
X16999106Y-14671912D02*
X16999106Y-14595722D01*
X16999106Y-14595722D02*
X17008630Y-14576674D01*
X17008630Y-14576674D02*
X17027677Y-14567150D01*
X17027677Y-14567150D02*
X17065773Y-14567150D01*
X17065773Y-14567150D02*
X17084820Y-14576674D01*
X17084820Y-14576674D02*
X17094344Y-14595722D01*
X17094344Y-14595722D02*
X17094344Y-14614769D01*
X17094344Y-14614769D02*
X16999106Y-14633817D01*
X17170534Y-14690960D02*
X17189582Y-14700484D01*
X17189582Y-14700484D02*
X17227677Y-14700484D01*
X17227677Y-14700484D02*
X17246725Y-14690960D01*
X17246725Y-14690960D02*
X17256249Y-14671912D01*
X17256249Y-14671912D02*
X17256249Y-14662388D01*
X17256249Y-14662388D02*
X17246725Y-14643341D01*
X17246725Y-14643341D02*
X17227677Y-14633817D01*
X17227677Y-14633817D02*
X17199106Y-14633817D01*
X17199106Y-14633817D02*
X17180058Y-14624293D01*
X17180058Y-14624293D02*
X17170534Y-14605246D01*
X17170534Y-14605246D02*
X17170534Y-14595722D01*
X17170534Y-14595722D02*
X17180058Y-14576674D01*
X17180058Y-14576674D02*
X17199106Y-14567150D01*
X17199106Y-14567150D02*
X17227677Y-14567150D01*
X17227677Y-14567150D02*
X17246725Y-14576674D01*
X17322915Y-14776674D02*
X17332439Y-14767150D01*
X17332439Y-14767150D02*
X17351487Y-14738579D01*
X17351487Y-14738579D02*
X17361011Y-14719531D01*
X17361011Y-14719531D02*
X17370534Y-14690960D01*
X17370534Y-14690960D02*
X17380058Y-14643341D01*
X17380058Y-14643341D02*
X17380058Y-14605246D01*
X17380058Y-14605246D02*
X17370534Y-14557627D01*
X17370534Y-14557627D02*
X17361011Y-14529055D01*
X17361011Y-14529055D02*
X17351487Y-14510008D01*
X17351487Y-14510008D02*
X17332439Y-14481436D01*
X17332439Y-14481436D02*
X17322915Y-14471912D01*
D10*
X12134400Y-14840500D02*
X12134400Y-14905500D01*
X12101900Y-14873000D02*
X12166900Y-14873000D01*
D11*
X12465772Y-14764484D02*
X12484820Y-14764484D01*
X12484820Y-14764484D02*
X12503867Y-14774008D01*
X12503867Y-14774008D02*
X12513391Y-14783531D01*
X12513391Y-14783531D02*
X12522915Y-14802579D01*
X12522915Y-14802579D02*
X12532439Y-14840674D01*
X12532439Y-14840674D02*
X12532439Y-14888293D01*
X12532439Y-14888293D02*
X12522915Y-14926388D01*
X12522915Y-14926388D02*
X12513391Y-14945436D01*
X12513391Y-14945436D02*
X12503867Y-14954960D01*
X12503867Y-14954960D02*
X12484820Y-14964484D01*
X12484820Y-14964484D02*
X12465772Y-14964484D01*
X12465772Y-14964484D02*
X12446724Y-14954960D01*
X12446724Y-14954960D02*
X12437201Y-14945436D01*
X12437201Y-14945436D02*
X12427677Y-14926388D01*
X12427677Y-14926388D02*
X12418153Y-14888293D01*
X12418153Y-14888293D02*
X12418153Y-14840674D01*
X12418153Y-14840674D02*
X12427677Y-14802579D01*
X12427677Y-14802579D02*
X12437201Y-14783531D01*
X12437201Y-14783531D02*
X12446724Y-14774008D01*
X12446724Y-14774008D02*
X12465772Y-14764484D01*
X12618153Y-14945436D02*
X12627677Y-14954960D01*
X12627677Y-14954960D02*
X12618153Y-14964484D01*
X12618153Y-14964484D02*
X12608629Y-14954960D01*
X12608629Y-14954960D02*
X12618153Y-14945436D01*
X12618153Y-14945436D02*
X12618153Y-14964484D01*
X12799105Y-14764484D02*
X12761010Y-14764484D01*
X12761010Y-14764484D02*
X12741962Y-14774008D01*
X12741962Y-14774008D02*
X12732439Y-14783531D01*
X12732439Y-14783531D02*
X12713391Y-14812103D01*
X12713391Y-14812103D02*
X12703867Y-14850198D01*
X12703867Y-14850198D02*
X12703867Y-14926388D01*
X12703867Y-14926388D02*
X12713391Y-14945436D01*
X12713391Y-14945436D02*
X12722915Y-14954960D01*
X12722915Y-14954960D02*
X12741962Y-14964484D01*
X12741962Y-14964484D02*
X12780058Y-14964484D01*
X12780058Y-14964484D02*
X12799105Y-14954960D01*
X12799105Y-14954960D02*
X12808629Y-14945436D01*
X12808629Y-14945436D02*
X12818153Y-14926388D01*
X12818153Y-14926388D02*
X12818153Y-14878769D01*
X12818153Y-14878769D02*
X12808629Y-14859722D01*
X12808629Y-14859722D02*
X12799105Y-14850198D01*
X12799105Y-14850198D02*
X12780058Y-14840674D01*
X12780058Y-14840674D02*
X12741962Y-14840674D01*
X12741962Y-14840674D02*
X12722915Y-14850198D01*
X12722915Y-14850198D02*
X12713391Y-14859722D01*
X12713391Y-14859722D02*
X12703867Y-14878769D01*
X12999105Y-14764484D02*
X12903867Y-14764484D01*
X12903867Y-14764484D02*
X12894343Y-14859722D01*
X12894343Y-14859722D02*
X12903867Y-14850198D01*
X12903867Y-14850198D02*
X12922915Y-14840674D01*
X12922915Y-14840674D02*
X12970534Y-14840674D01*
X12970534Y-14840674D02*
X12989582Y-14850198D01*
X12989582Y-14850198D02*
X12999105Y-14859722D01*
X12999105Y-14859722D02*
X13008629Y-14878769D01*
X13008629Y-14878769D02*
X13008629Y-14926388D01*
X13008629Y-14926388D02*
X12999105Y-14945436D01*
X12999105Y-14945436D02*
X12989582Y-14954960D01*
X12989582Y-14954960D02*
X12970534Y-14964484D01*
X12970534Y-14964484D02*
X12922915Y-14964484D01*
X12922915Y-14964484D02*
X12903867Y-14954960D01*
X12903867Y-14954960D02*
X12894343Y-14945436D01*
X13132439Y-14764484D02*
X13151486Y-14764484D01*
X13151486Y-14764484D02*
X13170534Y-14774008D01*
X13170534Y-14774008D02*
X13180058Y-14783531D01*
X13180058Y-14783531D02*
X13189582Y-14802579D01*
X13189582Y-14802579D02*
X13199105Y-14840674D01*
X13199105Y-14840674D02*
X13199105Y-14888293D01*
X13199105Y-14888293D02*
X13189582Y-14926388D01*
X13189582Y-14926388D02*
X13180058Y-14945436D01*
X13180058Y-14945436D02*
X13170534Y-14954960D01*
X13170534Y-14954960D02*
X13151486Y-14964484D01*
X13151486Y-14964484D02*
X13132439Y-14964484D01*
X13132439Y-14964484D02*
X13113391Y-14954960D01*
X13113391Y-14954960D02*
X13103867Y-14945436D01*
X13103867Y-14945436D02*
X13094343Y-14926388D01*
X13094343Y-14926388D02*
X13084820Y-14888293D01*
X13084820Y-14888293D02*
X13084820Y-14840674D01*
X13084820Y-14840674D02*
X13094343Y-14802579D01*
X13094343Y-14802579D02*
X13103867Y-14783531D01*
X13103867Y-14783531D02*
X13113391Y-14774008D01*
X13113391Y-14774008D02*
X13132439Y-14764484D01*
X13284820Y-14964484D02*
X13284820Y-14831150D01*
X13284820Y-14850198D02*
X13294343Y-14840674D01*
X13294343Y-14840674D02*
X13313391Y-14831150D01*
X13313391Y-14831150D02*
X13341963Y-14831150D01*
X13341963Y-14831150D02*
X13361010Y-14840674D01*
X13361010Y-14840674D02*
X13370534Y-14859722D01*
X13370534Y-14859722D02*
X13370534Y-14964484D01*
X13370534Y-14859722D02*
X13380058Y-14840674D01*
X13380058Y-14840674D02*
X13399105Y-14831150D01*
X13399105Y-14831150D02*
X13427677Y-14831150D01*
X13427677Y-14831150D02*
X13446724Y-14840674D01*
X13446724Y-14840674D02*
X13456248Y-14859722D01*
X13456248Y-14859722D02*
X13456248Y-14964484D01*
X13551486Y-14964484D02*
X13551486Y-14831150D01*
X13551486Y-14850198D02*
X13561010Y-14840674D01*
X13561010Y-14840674D02*
X13580058Y-14831150D01*
X13580058Y-14831150D02*
X13608629Y-14831150D01*
X13608629Y-14831150D02*
X13627677Y-14840674D01*
X13627677Y-14840674D02*
X13637201Y-14859722D01*
X13637201Y-14859722D02*
X13637201Y-14964484D01*
X13637201Y-14859722D02*
X13646724Y-14840674D01*
X13646724Y-14840674D02*
X13665772Y-14831150D01*
X13665772Y-14831150D02*
X13694343Y-14831150D01*
X13694343Y-14831150D02*
X13713391Y-14840674D01*
X13713391Y-14840674D02*
X13722915Y-14859722D01*
X13722915Y-14859722D02*
X13722915Y-14964484D01*
X14113391Y-14754960D02*
X13941963Y-15012103D01*
X14370534Y-14764484D02*
X14389582Y-14764484D01*
X14389582Y-14764484D02*
X14408629Y-14774008D01*
X14408629Y-14774008D02*
X14418153Y-14783531D01*
X14418153Y-14783531D02*
X14427677Y-14802579D01*
X14427677Y-14802579D02*
X14437201Y-14840674D01*
X14437201Y-14840674D02*
X14437201Y-14888293D01*
X14437201Y-14888293D02*
X14427677Y-14926388D01*
X14427677Y-14926388D02*
X14418153Y-14945436D01*
X14418153Y-14945436D02*
X14408629Y-14954960D01*
X14408629Y-14954960D02*
X14389582Y-14964484D01*
X14389582Y-14964484D02*
X14370534Y-14964484D01*
X14370534Y-14964484D02*
X14351486Y-14954960D01*
X14351486Y-14954960D02*
X14341963Y-14945436D01*
X14341963Y-14945436D02*
X14332439Y-14926388D01*
X14332439Y-14926388D02*
X14322915Y-14888293D01*
X14322915Y-14888293D02*
X14322915Y-14840674D01*
X14322915Y-14840674D02*
X14332439Y-14802579D01*
X14332439Y-14802579D02*
X14341963Y-14783531D01*
X14341963Y-14783531D02*
X14351486Y-14774008D01*
X14351486Y-14774008D02*
X14370534Y-14764484D01*
X14522915Y-14945436D02*
X14532439Y-14954960D01*
X14532439Y-14954960D02*
X14522915Y-14964484D01*
X14522915Y-14964484D02*
X14513391Y-14954960D01*
X14513391Y-14954960D02*
X14522915Y-14945436D01*
X14522915Y-14945436D02*
X14522915Y-14964484D01*
X14656248Y-14764484D02*
X14675296Y-14764484D01*
X14675296Y-14764484D02*
X14694344Y-14774008D01*
X14694344Y-14774008D02*
X14703867Y-14783531D01*
X14703867Y-14783531D02*
X14713391Y-14802579D01*
X14713391Y-14802579D02*
X14722915Y-14840674D01*
X14722915Y-14840674D02*
X14722915Y-14888293D01*
X14722915Y-14888293D02*
X14713391Y-14926388D01*
X14713391Y-14926388D02*
X14703867Y-14945436D01*
X14703867Y-14945436D02*
X14694344Y-14954960D01*
X14694344Y-14954960D02*
X14675296Y-14964484D01*
X14675296Y-14964484D02*
X14656248Y-14964484D01*
X14656248Y-14964484D02*
X14637201Y-14954960D01*
X14637201Y-14954960D02*
X14627677Y-14945436D01*
X14627677Y-14945436D02*
X14618153Y-14926388D01*
X14618153Y-14926388D02*
X14608629Y-14888293D01*
X14608629Y-14888293D02*
X14608629Y-14840674D01*
X14608629Y-14840674D02*
X14618153Y-14802579D01*
X14618153Y-14802579D02*
X14627677Y-14783531D01*
X14627677Y-14783531D02*
X14637201Y-14774008D01*
X14637201Y-14774008D02*
X14656248Y-14764484D01*
X14799106Y-14783531D02*
X14808629Y-14774008D01*
X14808629Y-14774008D02*
X14827677Y-14764484D01*
X14827677Y-14764484D02*
X14875296Y-14764484D01*
X14875296Y-14764484D02*
X14894344Y-14774008D01*
X14894344Y-14774008D02*
X14903867Y-14783531D01*
X14903867Y-14783531D02*
X14913391Y-14802579D01*
X14913391Y-14802579D02*
X14913391Y-14821627D01*
X14913391Y-14821627D02*
X14903867Y-14850198D01*
X14903867Y-14850198D02*
X14789582Y-14964484D01*
X14789582Y-14964484D02*
X14913391Y-14964484D01*
X15094344Y-14764484D02*
X14999106Y-14764484D01*
X14999106Y-14764484D02*
X14989582Y-14859722D01*
X14989582Y-14859722D02*
X14999106Y-14850198D01*
X14999106Y-14850198D02*
X15018153Y-14840674D01*
X15018153Y-14840674D02*
X15065772Y-14840674D01*
X15065772Y-14840674D02*
X15084820Y-14850198D01*
X15084820Y-14850198D02*
X15094344Y-14859722D01*
X15094344Y-14859722D02*
X15103867Y-14878769D01*
X15103867Y-14878769D02*
X15103867Y-14926388D01*
X15103867Y-14926388D02*
X15094344Y-14945436D01*
X15094344Y-14945436D02*
X15084820Y-14954960D01*
X15084820Y-14954960D02*
X15065772Y-14964484D01*
X15065772Y-14964484D02*
X15018153Y-14964484D01*
X15018153Y-14964484D02*
X14999106Y-14954960D01*
X14999106Y-14954960D02*
X14989582Y-14945436D01*
X15275296Y-14764484D02*
X15237201Y-14764484D01*
X15237201Y-14764484D02*
X15218153Y-14774008D01*
X15218153Y-14774008D02*
X15208629Y-14783531D01*
X15208629Y-14783531D02*
X15189582Y-14812103D01*
X15189582Y-14812103D02*
X15180058Y-14850198D01*
X15180058Y-14850198D02*
X15180058Y-14926388D01*
X15180058Y-14926388D02*
X15189582Y-14945436D01*
X15189582Y-14945436D02*
X15199106Y-14954960D01*
X15199106Y-14954960D02*
X15218153Y-14964484D01*
X15218153Y-14964484D02*
X15256248Y-14964484D01*
X15256248Y-14964484D02*
X15275296Y-14954960D01*
X15275296Y-14954960D02*
X15284820Y-14945436D01*
X15284820Y-14945436D02*
X15294344Y-14926388D01*
X15294344Y-14926388D02*
X15294344Y-14878769D01*
X15294344Y-14878769D02*
X15284820Y-14859722D01*
X15284820Y-14859722D02*
X15275296Y-14850198D01*
X15275296Y-14850198D02*
X15256248Y-14840674D01*
X15256248Y-14840674D02*
X15218153Y-14840674D01*
X15218153Y-14840674D02*
X15199106Y-14850198D01*
X15199106Y-14850198D02*
X15189582Y-14859722D01*
X15189582Y-14859722D02*
X15180058Y-14878769D01*
X15370534Y-14764484D02*
X15370534Y-14802579D01*
X15446725Y-14764484D02*
X15446725Y-14802579D01*
X15741963Y-15040674D02*
X15732439Y-15031150D01*
X15732439Y-15031150D02*
X15713391Y-15002579D01*
X15713391Y-15002579D02*
X15703868Y-14983531D01*
X15703868Y-14983531D02*
X15694344Y-14954960D01*
X15694344Y-14954960D02*
X15684820Y-14907341D01*
X15684820Y-14907341D02*
X15684820Y-14869246D01*
X15684820Y-14869246D02*
X15694344Y-14821627D01*
X15694344Y-14821627D02*
X15703868Y-14793055D01*
X15703868Y-14793055D02*
X15713391Y-14774008D01*
X15713391Y-14774008D02*
X15732439Y-14745436D01*
X15732439Y-14745436D02*
X15741963Y-14735912D01*
X15903868Y-14831150D02*
X15903868Y-14964484D01*
X15856248Y-14754960D02*
X15808629Y-14897817D01*
X15808629Y-14897817D02*
X15932439Y-14897817D01*
X16161010Y-14964484D02*
X16161010Y-14764484D01*
X16246725Y-14964484D02*
X16246725Y-14859722D01*
X16246725Y-14859722D02*
X16237201Y-14840674D01*
X16237201Y-14840674D02*
X16218153Y-14831150D01*
X16218153Y-14831150D02*
X16189582Y-14831150D01*
X16189582Y-14831150D02*
X16170534Y-14840674D01*
X16170534Y-14840674D02*
X16161010Y-14850198D01*
X16370534Y-14964484D02*
X16351487Y-14954960D01*
X16351487Y-14954960D02*
X16341963Y-14945436D01*
X16341963Y-14945436D02*
X16332439Y-14926388D01*
X16332439Y-14926388D02*
X16332439Y-14869246D01*
X16332439Y-14869246D02*
X16341963Y-14850198D01*
X16341963Y-14850198D02*
X16351487Y-14840674D01*
X16351487Y-14840674D02*
X16370534Y-14831150D01*
X16370534Y-14831150D02*
X16399106Y-14831150D01*
X16399106Y-14831150D02*
X16418153Y-14840674D01*
X16418153Y-14840674D02*
X16427677Y-14850198D01*
X16427677Y-14850198D02*
X16437201Y-14869246D01*
X16437201Y-14869246D02*
X16437201Y-14926388D01*
X16437201Y-14926388D02*
X16427677Y-14945436D01*
X16427677Y-14945436D02*
X16418153Y-14954960D01*
X16418153Y-14954960D02*
X16399106Y-14964484D01*
X16399106Y-14964484D02*
X16370534Y-14964484D01*
X16551487Y-14964484D02*
X16532439Y-14954960D01*
X16532439Y-14954960D02*
X16522915Y-14935912D01*
X16522915Y-14935912D02*
X16522915Y-14764484D01*
X16703868Y-14954960D02*
X16684820Y-14964484D01*
X16684820Y-14964484D02*
X16646725Y-14964484D01*
X16646725Y-14964484D02*
X16627677Y-14954960D01*
X16627677Y-14954960D02*
X16618153Y-14935912D01*
X16618153Y-14935912D02*
X16618153Y-14859722D01*
X16618153Y-14859722D02*
X16627677Y-14840674D01*
X16627677Y-14840674D02*
X16646725Y-14831150D01*
X16646725Y-14831150D02*
X16684820Y-14831150D01*
X16684820Y-14831150D02*
X16703868Y-14840674D01*
X16703868Y-14840674D02*
X16713391Y-14859722D01*
X16713391Y-14859722D02*
X16713391Y-14878769D01*
X16713391Y-14878769D02*
X16618153Y-14897817D01*
X16789582Y-14954960D02*
X16808630Y-14964484D01*
X16808630Y-14964484D02*
X16846725Y-14964484D01*
X16846725Y-14964484D02*
X16865773Y-14954960D01*
X16865773Y-14954960D02*
X16875296Y-14935912D01*
X16875296Y-14935912D02*
X16875296Y-14926388D01*
X16875296Y-14926388D02*
X16865773Y-14907341D01*
X16865773Y-14907341D02*
X16846725Y-14897817D01*
X16846725Y-14897817D02*
X16818153Y-14897817D01*
X16818153Y-14897817D02*
X16799106Y-14888293D01*
X16799106Y-14888293D02*
X16789582Y-14869246D01*
X16789582Y-14869246D02*
X16789582Y-14859722D01*
X16789582Y-14859722D02*
X16799106Y-14840674D01*
X16799106Y-14840674D02*
X16818153Y-14831150D01*
X16818153Y-14831150D02*
X16846725Y-14831150D01*
X16846725Y-14831150D02*
X16865773Y-14840674D01*
X16941963Y-15040674D02*
X16951487Y-15031150D01*
X16951487Y-15031150D02*
X16970534Y-15002579D01*
X16970534Y-15002579D02*
X16980058Y-14983531D01*
X16980058Y-14983531D02*
X16989582Y-14954960D01*
X16989582Y-14954960D02*
X16999106Y-14907341D01*
X16999106Y-14907341D02*
X16999106Y-14869246D01*
X16999106Y-14869246D02*
X16989582Y-14821627D01*
X16989582Y-14821627D02*
X16980058Y-14793055D01*
X16980058Y-14793055D02*
X16970534Y-14774008D01*
X16970534Y-14774008D02*
X16951487Y-14745436D01*
X16951487Y-14745436D02*
X16941963Y-14735912D01*
D10*
X12155184Y-15165284D02*
X12155184Y-15108715D01*
X12098615Y-15108715D01*
X12098615Y-15165284D01*
X12155184Y-15165284D01*
D11*
X12465772Y-15028484D02*
X12484820Y-15028484D01*
X12484820Y-15028484D02*
X12503867Y-15038008D01*
X12503867Y-15038008D02*
X12513391Y-15047531D01*
X12513391Y-15047531D02*
X12522915Y-15066579D01*
X12522915Y-15066579D02*
X12532439Y-15104674D01*
X12532439Y-15104674D02*
X12532439Y-15152293D01*
X12532439Y-15152293D02*
X12522915Y-15190388D01*
X12522915Y-15190388D02*
X12513391Y-15209436D01*
X12513391Y-15209436D02*
X12503867Y-15218960D01*
X12503867Y-15218960D02*
X12484820Y-15228484D01*
X12484820Y-15228484D02*
X12465772Y-15228484D01*
X12465772Y-15228484D02*
X12446724Y-15218960D01*
X12446724Y-15218960D02*
X12437201Y-15209436D01*
X12437201Y-15209436D02*
X12427677Y-15190388D01*
X12427677Y-15190388D02*
X12418153Y-15152293D01*
X12418153Y-15152293D02*
X12418153Y-15104674D01*
X12418153Y-15104674D02*
X12427677Y-15066579D01*
X12427677Y-15066579D02*
X12437201Y-15047531D01*
X12437201Y-15047531D02*
X12446724Y-15038008D01*
X12446724Y-15038008D02*
X12465772Y-15028484D01*
X12618153Y-15209436D02*
X12627677Y-15218960D01*
X12627677Y-15218960D02*
X12618153Y-15228484D01*
X12618153Y-15228484D02*
X12608629Y-15218960D01*
X12608629Y-15218960D02*
X12618153Y-15209436D01*
X12618153Y-15209436D02*
X12618153Y-15228484D01*
X12741962Y-15114198D02*
X12722915Y-15104674D01*
X12722915Y-15104674D02*
X12713391Y-15095150D01*
X12713391Y-15095150D02*
X12703867Y-15076103D01*
X12703867Y-15076103D02*
X12703867Y-15066579D01*
X12703867Y-15066579D02*
X12713391Y-15047531D01*
X12713391Y-15047531D02*
X12722915Y-15038008D01*
X12722915Y-15038008D02*
X12741962Y-15028484D01*
X12741962Y-15028484D02*
X12780058Y-15028484D01*
X12780058Y-15028484D02*
X12799105Y-15038008D01*
X12799105Y-15038008D02*
X12808629Y-15047531D01*
X12808629Y-15047531D02*
X12818153Y-15066579D01*
X12818153Y-15066579D02*
X12818153Y-15076103D01*
X12818153Y-15076103D02*
X12808629Y-15095150D01*
X12808629Y-15095150D02*
X12799105Y-15104674D01*
X12799105Y-15104674D02*
X12780058Y-15114198D01*
X12780058Y-15114198D02*
X12741962Y-15114198D01*
X12741962Y-15114198D02*
X12722915Y-15123722D01*
X12722915Y-15123722D02*
X12713391Y-15133246D01*
X12713391Y-15133246D02*
X12703867Y-15152293D01*
X12703867Y-15152293D02*
X12703867Y-15190388D01*
X12703867Y-15190388D02*
X12713391Y-15209436D01*
X12713391Y-15209436D02*
X12722915Y-15218960D01*
X12722915Y-15218960D02*
X12741962Y-15228484D01*
X12741962Y-15228484D02*
X12780058Y-15228484D01*
X12780058Y-15228484D02*
X12799105Y-15218960D01*
X12799105Y-15218960D02*
X12808629Y-15209436D01*
X12808629Y-15209436D02*
X12818153Y-15190388D01*
X12818153Y-15190388D02*
X12818153Y-15152293D01*
X12818153Y-15152293D02*
X12808629Y-15133246D01*
X12808629Y-15133246D02*
X12799105Y-15123722D01*
X12799105Y-15123722D02*
X12780058Y-15114198D01*
X12941962Y-15028484D02*
X12961010Y-15028484D01*
X12961010Y-15028484D02*
X12980058Y-15038008D01*
X12980058Y-15038008D02*
X12989582Y-15047531D01*
X12989582Y-15047531D02*
X12999105Y-15066579D01*
X12999105Y-15066579D02*
X13008629Y-15104674D01*
X13008629Y-15104674D02*
X13008629Y-15152293D01*
X13008629Y-15152293D02*
X12999105Y-15190388D01*
X12999105Y-15190388D02*
X12989582Y-15209436D01*
X12989582Y-15209436D02*
X12980058Y-15218960D01*
X12980058Y-15218960D02*
X12961010Y-15228484D01*
X12961010Y-15228484D02*
X12941962Y-15228484D01*
X12941962Y-15228484D02*
X12922915Y-15218960D01*
X12922915Y-15218960D02*
X12913391Y-15209436D01*
X12913391Y-15209436D02*
X12903867Y-15190388D01*
X12903867Y-15190388D02*
X12894343Y-15152293D01*
X12894343Y-15152293D02*
X12894343Y-15104674D01*
X12894343Y-15104674D02*
X12903867Y-15066579D01*
X12903867Y-15066579D02*
X12913391Y-15047531D01*
X12913391Y-15047531D02*
X12922915Y-15038008D01*
X12922915Y-15038008D02*
X12941962Y-15028484D01*
X13132439Y-15028484D02*
X13151486Y-15028484D01*
X13151486Y-15028484D02*
X13170534Y-15038008D01*
X13170534Y-15038008D02*
X13180058Y-15047531D01*
X13180058Y-15047531D02*
X13189582Y-15066579D01*
X13189582Y-15066579D02*
X13199105Y-15104674D01*
X13199105Y-15104674D02*
X13199105Y-15152293D01*
X13199105Y-15152293D02*
X13189582Y-15190388D01*
X13189582Y-15190388D02*
X13180058Y-15209436D01*
X13180058Y-15209436D02*
X13170534Y-15218960D01*
X13170534Y-15218960D02*
X13151486Y-15228484D01*
X13151486Y-15228484D02*
X13132439Y-15228484D01*
X13132439Y-15228484D02*
X13113391Y-15218960D01*
X13113391Y-15218960D02*
X13103867Y-15209436D01*
X13103867Y-15209436D02*
X13094343Y-15190388D01*
X13094343Y-15190388D02*
X13084820Y-15152293D01*
X13084820Y-15152293D02*
X13084820Y-15104674D01*
X13084820Y-15104674D02*
X13094343Y-15066579D01*
X13094343Y-15066579D02*
X13103867Y-15047531D01*
X13103867Y-15047531D02*
X13113391Y-15038008D01*
X13113391Y-15038008D02*
X13132439Y-15028484D01*
X13284820Y-15228484D02*
X13284820Y-15095150D01*
X13284820Y-15114198D02*
X13294343Y-15104674D01*
X13294343Y-15104674D02*
X13313391Y-15095150D01*
X13313391Y-15095150D02*
X13341963Y-15095150D01*
X13341963Y-15095150D02*
X13361010Y-15104674D01*
X13361010Y-15104674D02*
X13370534Y-15123722D01*
X13370534Y-15123722D02*
X13370534Y-15228484D01*
X13370534Y-15123722D02*
X13380058Y-15104674D01*
X13380058Y-15104674D02*
X13399105Y-15095150D01*
X13399105Y-15095150D02*
X13427677Y-15095150D01*
X13427677Y-15095150D02*
X13446724Y-15104674D01*
X13446724Y-15104674D02*
X13456248Y-15123722D01*
X13456248Y-15123722D02*
X13456248Y-15228484D01*
X13551486Y-15228484D02*
X13551486Y-15095150D01*
X13551486Y-15114198D02*
X13561010Y-15104674D01*
X13561010Y-15104674D02*
X13580058Y-15095150D01*
X13580058Y-15095150D02*
X13608629Y-15095150D01*
X13608629Y-15095150D02*
X13627677Y-15104674D01*
X13627677Y-15104674D02*
X13637201Y-15123722D01*
X13637201Y-15123722D02*
X13637201Y-15228484D01*
X13637201Y-15123722D02*
X13646724Y-15104674D01*
X13646724Y-15104674D02*
X13665772Y-15095150D01*
X13665772Y-15095150D02*
X13694343Y-15095150D01*
X13694343Y-15095150D02*
X13713391Y-15104674D01*
X13713391Y-15104674D02*
X13722915Y-15123722D01*
X13722915Y-15123722D02*
X13722915Y-15228484D01*
X14113391Y-15018960D02*
X13941963Y-15276103D01*
X14370534Y-15028484D02*
X14389582Y-15028484D01*
X14389582Y-15028484D02*
X14408629Y-15038008D01*
X14408629Y-15038008D02*
X14418153Y-15047531D01*
X14418153Y-15047531D02*
X14427677Y-15066579D01*
X14427677Y-15066579D02*
X14437201Y-15104674D01*
X14437201Y-15104674D02*
X14437201Y-15152293D01*
X14437201Y-15152293D02*
X14427677Y-15190388D01*
X14427677Y-15190388D02*
X14418153Y-15209436D01*
X14418153Y-15209436D02*
X14408629Y-15218960D01*
X14408629Y-15218960D02*
X14389582Y-15228484D01*
X14389582Y-15228484D02*
X14370534Y-15228484D01*
X14370534Y-15228484D02*
X14351486Y-15218960D01*
X14351486Y-15218960D02*
X14341963Y-15209436D01*
X14341963Y-15209436D02*
X14332439Y-15190388D01*
X14332439Y-15190388D02*
X14322915Y-15152293D01*
X14322915Y-15152293D02*
X14322915Y-15104674D01*
X14322915Y-15104674D02*
X14332439Y-15066579D01*
X14332439Y-15066579D02*
X14341963Y-15047531D01*
X14341963Y-15047531D02*
X14351486Y-15038008D01*
X14351486Y-15038008D02*
X14370534Y-15028484D01*
X14522915Y-15209436D02*
X14532439Y-15218960D01*
X14532439Y-15218960D02*
X14522915Y-15228484D01*
X14522915Y-15228484D02*
X14513391Y-15218960D01*
X14513391Y-15218960D02*
X14522915Y-15209436D01*
X14522915Y-15209436D02*
X14522915Y-15228484D01*
X14656248Y-15028484D02*
X14675296Y-15028484D01*
X14675296Y-15028484D02*
X14694344Y-15038008D01*
X14694344Y-15038008D02*
X14703867Y-15047531D01*
X14703867Y-15047531D02*
X14713391Y-15066579D01*
X14713391Y-15066579D02*
X14722915Y-15104674D01*
X14722915Y-15104674D02*
X14722915Y-15152293D01*
X14722915Y-15152293D02*
X14713391Y-15190388D01*
X14713391Y-15190388D02*
X14703867Y-15209436D01*
X14703867Y-15209436D02*
X14694344Y-15218960D01*
X14694344Y-15218960D02*
X14675296Y-15228484D01*
X14675296Y-15228484D02*
X14656248Y-15228484D01*
X14656248Y-15228484D02*
X14637201Y-15218960D01*
X14637201Y-15218960D02*
X14627677Y-15209436D01*
X14627677Y-15209436D02*
X14618153Y-15190388D01*
X14618153Y-15190388D02*
X14608629Y-15152293D01*
X14608629Y-15152293D02*
X14608629Y-15104674D01*
X14608629Y-15104674D02*
X14618153Y-15066579D01*
X14618153Y-15066579D02*
X14627677Y-15047531D01*
X14627677Y-15047531D02*
X14637201Y-15038008D01*
X14637201Y-15038008D02*
X14656248Y-15028484D01*
X14789582Y-15028484D02*
X14913391Y-15028484D01*
X14913391Y-15028484D02*
X14846725Y-15104674D01*
X14846725Y-15104674D02*
X14875296Y-15104674D01*
X14875296Y-15104674D02*
X14894344Y-15114198D01*
X14894344Y-15114198D02*
X14903867Y-15123722D01*
X14903867Y-15123722D02*
X14913391Y-15142769D01*
X14913391Y-15142769D02*
X14913391Y-15190388D01*
X14913391Y-15190388D02*
X14903867Y-15209436D01*
X14903867Y-15209436D02*
X14894344Y-15218960D01*
X14894344Y-15218960D02*
X14875296Y-15228484D01*
X14875296Y-15228484D02*
X14818153Y-15228484D01*
X14818153Y-15228484D02*
X14799106Y-15218960D01*
X14799106Y-15218960D02*
X14789582Y-15209436D01*
X15103867Y-15228484D02*
X14989582Y-15228484D01*
X15046725Y-15228484D02*
X15046725Y-15028484D01*
X15046725Y-15028484D02*
X15027677Y-15057055D01*
X15027677Y-15057055D02*
X15008629Y-15076103D01*
X15008629Y-15076103D02*
X14989582Y-15085627D01*
X15284820Y-15028484D02*
X15189582Y-15028484D01*
X15189582Y-15028484D02*
X15180058Y-15123722D01*
X15180058Y-15123722D02*
X15189582Y-15114198D01*
X15189582Y-15114198D02*
X15208629Y-15104674D01*
X15208629Y-15104674D02*
X15256248Y-15104674D01*
X15256248Y-15104674D02*
X15275296Y-15114198D01*
X15275296Y-15114198D02*
X15284820Y-15123722D01*
X15284820Y-15123722D02*
X15294344Y-15142769D01*
X15294344Y-15142769D02*
X15294344Y-15190388D01*
X15294344Y-15190388D02*
X15284820Y-15209436D01*
X15284820Y-15209436D02*
X15275296Y-15218960D01*
X15275296Y-15218960D02*
X15256248Y-15228484D01*
X15256248Y-15228484D02*
X15208629Y-15228484D01*
X15208629Y-15228484D02*
X15189582Y-15218960D01*
X15189582Y-15218960D02*
X15180058Y-15209436D01*
X15370534Y-15028484D02*
X15370534Y-15066579D01*
X15446725Y-15028484D02*
X15446725Y-15066579D01*
X15741963Y-15304674D02*
X15732439Y-15295150D01*
X15732439Y-15295150D02*
X15713391Y-15266579D01*
X15713391Y-15266579D02*
X15703868Y-15247531D01*
X15703868Y-15247531D02*
X15694344Y-15218960D01*
X15694344Y-15218960D02*
X15684820Y-15171341D01*
X15684820Y-15171341D02*
X15684820Y-15133246D01*
X15684820Y-15133246D02*
X15694344Y-15085627D01*
X15694344Y-15085627D02*
X15703868Y-15057055D01*
X15703868Y-15057055D02*
X15713391Y-15038008D01*
X15713391Y-15038008D02*
X15732439Y-15009436D01*
X15732439Y-15009436D02*
X15741963Y-14999912D01*
X15913391Y-15028484D02*
X15818153Y-15028484D01*
X15818153Y-15028484D02*
X15808629Y-15123722D01*
X15808629Y-15123722D02*
X15818153Y-15114198D01*
X15818153Y-15114198D02*
X15837201Y-15104674D01*
X15837201Y-15104674D02*
X15884820Y-15104674D01*
X15884820Y-15104674D02*
X15903868Y-15114198D01*
X15903868Y-15114198D02*
X15913391Y-15123722D01*
X15913391Y-15123722D02*
X15922915Y-15142769D01*
X15922915Y-15142769D02*
X15922915Y-15190388D01*
X15922915Y-15190388D02*
X15913391Y-15209436D01*
X15913391Y-15209436D02*
X15903868Y-15218960D01*
X15903868Y-15218960D02*
X15884820Y-15228484D01*
X15884820Y-15228484D02*
X15837201Y-15228484D01*
X15837201Y-15228484D02*
X15818153Y-15218960D01*
X15818153Y-15218960D02*
X15808629Y-15209436D01*
X16103868Y-15028484D02*
X16008629Y-15028484D01*
X16008629Y-15028484D02*
X15999106Y-15123722D01*
X15999106Y-15123722D02*
X16008629Y-15114198D01*
X16008629Y-15114198D02*
X16027677Y-15104674D01*
X16027677Y-15104674D02*
X16075296Y-15104674D01*
X16075296Y-15104674D02*
X16094344Y-15114198D01*
X16094344Y-15114198D02*
X16103868Y-15123722D01*
X16103868Y-15123722D02*
X16113391Y-15142769D01*
X16113391Y-15142769D02*
X16113391Y-15190388D01*
X16113391Y-15190388D02*
X16103868Y-15209436D01*
X16103868Y-15209436D02*
X16094344Y-15218960D01*
X16094344Y-15218960D02*
X16075296Y-15228484D01*
X16075296Y-15228484D02*
X16027677Y-15228484D01*
X16027677Y-15228484D02*
X16008629Y-15218960D01*
X16008629Y-15218960D02*
X15999106Y-15209436D01*
X16351487Y-15228484D02*
X16351487Y-15028484D01*
X16437201Y-15228484D02*
X16437201Y-15123722D01*
X16437201Y-15123722D02*
X16427677Y-15104674D01*
X16427677Y-15104674D02*
X16408630Y-15095150D01*
X16408630Y-15095150D02*
X16380058Y-15095150D01*
X16380058Y-15095150D02*
X16361010Y-15104674D01*
X16361010Y-15104674D02*
X16351487Y-15114198D01*
X16561010Y-15228484D02*
X16541963Y-15218960D01*
X16541963Y-15218960D02*
X16532439Y-15209436D01*
X16532439Y-15209436D02*
X16522915Y-15190388D01*
X16522915Y-15190388D02*
X16522915Y-15133246D01*
X16522915Y-15133246D02*
X16532439Y-15114198D01*
X16532439Y-15114198D02*
X16541963Y-15104674D01*
X16541963Y-15104674D02*
X16561010Y-15095150D01*
X16561010Y-15095150D02*
X16589582Y-15095150D01*
X16589582Y-15095150D02*
X16608630Y-15104674D01*
X16608630Y-15104674D02*
X16618153Y-15114198D01*
X16618153Y-15114198D02*
X16627677Y-15133246D01*
X16627677Y-15133246D02*
X16627677Y-15190388D01*
X16627677Y-15190388D02*
X16618153Y-15209436D01*
X16618153Y-15209436D02*
X16608630Y-15218960D01*
X16608630Y-15218960D02*
X16589582Y-15228484D01*
X16589582Y-15228484D02*
X16561010Y-15228484D01*
X16741963Y-15228484D02*
X16722915Y-15218960D01*
X16722915Y-15218960D02*
X16713391Y-15199912D01*
X16713391Y-15199912D02*
X16713391Y-15028484D01*
X16894344Y-15218960D02*
X16875296Y-15228484D01*
X16875296Y-15228484D02*
X16837201Y-15228484D01*
X16837201Y-15228484D02*
X16818153Y-15218960D01*
X16818153Y-15218960D02*
X16808630Y-15199912D01*
X16808630Y-15199912D02*
X16808630Y-15123722D01*
X16808630Y-15123722D02*
X16818153Y-15104674D01*
X16818153Y-15104674D02*
X16837201Y-15095150D01*
X16837201Y-15095150D02*
X16875296Y-15095150D01*
X16875296Y-15095150D02*
X16894344Y-15104674D01*
X16894344Y-15104674D02*
X16903868Y-15123722D01*
X16903868Y-15123722D02*
X16903868Y-15142769D01*
X16903868Y-15142769D02*
X16808630Y-15161817D01*
X16980058Y-15218960D02*
X16999106Y-15228484D01*
X16999106Y-15228484D02*
X17037201Y-15228484D01*
X17037201Y-15228484D02*
X17056249Y-15218960D01*
X17056249Y-15218960D02*
X17065773Y-15199912D01*
X17065773Y-15199912D02*
X17065773Y-15190388D01*
X17065773Y-15190388D02*
X17056249Y-15171341D01*
X17056249Y-15171341D02*
X17037201Y-15161817D01*
X17037201Y-15161817D02*
X17008630Y-15161817D01*
X17008630Y-15161817D02*
X16989582Y-15152293D01*
X16989582Y-15152293D02*
X16980058Y-15133246D01*
X16980058Y-15133246D02*
X16980058Y-15123722D01*
X16980058Y-15123722D02*
X16989582Y-15104674D01*
X16989582Y-15104674D02*
X17008630Y-15095150D01*
X17008630Y-15095150D02*
X17037201Y-15095150D01*
X17037201Y-15095150D02*
X17056249Y-15104674D01*
X17132439Y-15304674D02*
X17141963Y-15295150D01*
X17141963Y-15295150D02*
X17161011Y-15266579D01*
X17161011Y-15266579D02*
X17170534Y-15247531D01*
X17170534Y-15247531D02*
X17180058Y-15218960D01*
X17180058Y-15218960D02*
X17189582Y-15171341D01*
X17189582Y-15171341D02*
X17189582Y-15133246D01*
X17189582Y-15133246D02*
X17180058Y-15085627D01*
X17180058Y-15085627D02*
X17170534Y-15057055D01*
X17170534Y-15057055D02*
X17161011Y-15038008D01*
X17161011Y-15038008D02*
X17141963Y-15009436D01*
X17141963Y-15009436D02*
X17132439Y-14999912D01*
D10*
X12119400Y-15448500D02*
X12166900Y-15401000D01*
X12119400Y-15353500D01*
X12071900Y-15401000D01*
X12119400Y-15448500D01*
D11*
X12465772Y-15292484D02*
X12484820Y-15292484D01*
X12484820Y-15292484D02*
X12503867Y-15302008D01*
X12503867Y-15302008D02*
X12513391Y-15311531D01*
X12513391Y-15311531D02*
X12522915Y-15330579D01*
X12522915Y-15330579D02*
X12532439Y-15368674D01*
X12532439Y-15368674D02*
X12532439Y-15416293D01*
X12532439Y-15416293D02*
X12522915Y-15454388D01*
X12522915Y-15454388D02*
X12513391Y-15473436D01*
X12513391Y-15473436D02*
X12503867Y-15482960D01*
X12503867Y-15482960D02*
X12484820Y-15492484D01*
X12484820Y-15492484D02*
X12465772Y-15492484D01*
X12465772Y-15492484D02*
X12446724Y-15482960D01*
X12446724Y-15482960D02*
X12437201Y-15473436D01*
X12437201Y-15473436D02*
X12427677Y-15454388D01*
X12427677Y-15454388D02*
X12418153Y-15416293D01*
X12418153Y-15416293D02*
X12418153Y-15368674D01*
X12418153Y-15368674D02*
X12427677Y-15330579D01*
X12427677Y-15330579D02*
X12437201Y-15311531D01*
X12437201Y-15311531D02*
X12446724Y-15302008D01*
X12446724Y-15302008D02*
X12465772Y-15292484D01*
X12618153Y-15473436D02*
X12627677Y-15482960D01*
X12627677Y-15482960D02*
X12618153Y-15492484D01*
X12618153Y-15492484D02*
X12608629Y-15482960D01*
X12608629Y-15482960D02*
X12618153Y-15473436D01*
X12618153Y-15473436D02*
X12618153Y-15492484D01*
X12722915Y-15492484D02*
X12761010Y-15492484D01*
X12761010Y-15492484D02*
X12780058Y-15482960D01*
X12780058Y-15482960D02*
X12789582Y-15473436D01*
X12789582Y-15473436D02*
X12808629Y-15444865D01*
X12808629Y-15444865D02*
X12818153Y-15406769D01*
X12818153Y-15406769D02*
X12818153Y-15330579D01*
X12818153Y-15330579D02*
X12808629Y-15311531D01*
X12808629Y-15311531D02*
X12799105Y-15302008D01*
X12799105Y-15302008D02*
X12780058Y-15292484D01*
X12780058Y-15292484D02*
X12741962Y-15292484D01*
X12741962Y-15292484D02*
X12722915Y-15302008D01*
X12722915Y-15302008D02*
X12713391Y-15311531D01*
X12713391Y-15311531D02*
X12703867Y-15330579D01*
X12703867Y-15330579D02*
X12703867Y-15378198D01*
X12703867Y-15378198D02*
X12713391Y-15397246D01*
X12713391Y-15397246D02*
X12722915Y-15406769D01*
X12722915Y-15406769D02*
X12741962Y-15416293D01*
X12741962Y-15416293D02*
X12780058Y-15416293D01*
X12780058Y-15416293D02*
X12799105Y-15406769D01*
X12799105Y-15406769D02*
X12808629Y-15397246D01*
X12808629Y-15397246D02*
X12818153Y-15378198D01*
X12999105Y-15292484D02*
X12903867Y-15292484D01*
X12903867Y-15292484D02*
X12894343Y-15387722D01*
X12894343Y-15387722D02*
X12903867Y-15378198D01*
X12903867Y-15378198D02*
X12922915Y-15368674D01*
X12922915Y-15368674D02*
X12970534Y-15368674D01*
X12970534Y-15368674D02*
X12989582Y-15378198D01*
X12989582Y-15378198D02*
X12999105Y-15387722D01*
X12999105Y-15387722D02*
X13008629Y-15406769D01*
X13008629Y-15406769D02*
X13008629Y-15454388D01*
X13008629Y-15454388D02*
X12999105Y-15473436D01*
X12999105Y-15473436D02*
X12989582Y-15482960D01*
X12989582Y-15482960D02*
X12970534Y-15492484D01*
X12970534Y-15492484D02*
X12922915Y-15492484D01*
X12922915Y-15492484D02*
X12903867Y-15482960D01*
X12903867Y-15482960D02*
X12894343Y-15473436D01*
X13132439Y-15292484D02*
X13151486Y-15292484D01*
X13151486Y-15292484D02*
X13170534Y-15302008D01*
X13170534Y-15302008D02*
X13180058Y-15311531D01*
X13180058Y-15311531D02*
X13189582Y-15330579D01*
X13189582Y-15330579D02*
X13199105Y-15368674D01*
X13199105Y-15368674D02*
X13199105Y-15416293D01*
X13199105Y-15416293D02*
X13189582Y-15454388D01*
X13189582Y-15454388D02*
X13180058Y-15473436D01*
X13180058Y-15473436D02*
X13170534Y-15482960D01*
X13170534Y-15482960D02*
X13151486Y-15492484D01*
X13151486Y-15492484D02*
X13132439Y-15492484D01*
X13132439Y-15492484D02*
X13113391Y-15482960D01*
X13113391Y-15482960D02*
X13103867Y-15473436D01*
X13103867Y-15473436D02*
X13094343Y-15454388D01*
X13094343Y-15454388D02*
X13084820Y-15416293D01*
X13084820Y-15416293D02*
X13084820Y-15368674D01*
X13084820Y-15368674D02*
X13094343Y-15330579D01*
X13094343Y-15330579D02*
X13103867Y-15311531D01*
X13103867Y-15311531D02*
X13113391Y-15302008D01*
X13113391Y-15302008D02*
X13132439Y-15292484D01*
X13284820Y-15492484D02*
X13284820Y-15359150D01*
X13284820Y-15378198D02*
X13294343Y-15368674D01*
X13294343Y-15368674D02*
X13313391Y-15359150D01*
X13313391Y-15359150D02*
X13341963Y-15359150D01*
X13341963Y-15359150D02*
X13361010Y-15368674D01*
X13361010Y-15368674D02*
X13370534Y-15387722D01*
X13370534Y-15387722D02*
X13370534Y-15492484D01*
X13370534Y-15387722D02*
X13380058Y-15368674D01*
X13380058Y-15368674D02*
X13399105Y-15359150D01*
X13399105Y-15359150D02*
X13427677Y-15359150D01*
X13427677Y-15359150D02*
X13446724Y-15368674D01*
X13446724Y-15368674D02*
X13456248Y-15387722D01*
X13456248Y-15387722D02*
X13456248Y-15492484D01*
X13551486Y-15492484D02*
X13551486Y-15359150D01*
X13551486Y-15378198D02*
X13561010Y-15368674D01*
X13561010Y-15368674D02*
X13580058Y-15359150D01*
X13580058Y-15359150D02*
X13608629Y-15359150D01*
X13608629Y-15359150D02*
X13627677Y-15368674D01*
X13627677Y-15368674D02*
X13637201Y-15387722D01*
X13637201Y-15387722D02*
X13637201Y-15492484D01*
X13637201Y-15387722D02*
X13646724Y-15368674D01*
X13646724Y-15368674D02*
X13665772Y-15359150D01*
X13665772Y-15359150D02*
X13694343Y-15359150D01*
X13694343Y-15359150D02*
X13713391Y-15368674D01*
X13713391Y-15368674D02*
X13722915Y-15387722D01*
X13722915Y-15387722D02*
X13722915Y-15492484D01*
X14113391Y-15282960D02*
X13941963Y-15540103D01*
X14370534Y-15292484D02*
X14389582Y-15292484D01*
X14389582Y-15292484D02*
X14408629Y-15302008D01*
X14408629Y-15302008D02*
X14418153Y-15311531D01*
X14418153Y-15311531D02*
X14427677Y-15330579D01*
X14427677Y-15330579D02*
X14437201Y-15368674D01*
X14437201Y-15368674D02*
X14437201Y-15416293D01*
X14437201Y-15416293D02*
X14427677Y-15454388D01*
X14427677Y-15454388D02*
X14418153Y-15473436D01*
X14418153Y-15473436D02*
X14408629Y-15482960D01*
X14408629Y-15482960D02*
X14389582Y-15492484D01*
X14389582Y-15492484D02*
X14370534Y-15492484D01*
X14370534Y-15492484D02*
X14351486Y-15482960D01*
X14351486Y-15482960D02*
X14341963Y-15473436D01*
X14341963Y-15473436D02*
X14332439Y-15454388D01*
X14332439Y-15454388D02*
X14322915Y-15416293D01*
X14322915Y-15416293D02*
X14322915Y-15368674D01*
X14322915Y-15368674D02*
X14332439Y-15330579D01*
X14332439Y-15330579D02*
X14341963Y-15311531D01*
X14341963Y-15311531D02*
X14351486Y-15302008D01*
X14351486Y-15302008D02*
X14370534Y-15292484D01*
X14522915Y-15473436D02*
X14532439Y-15482960D01*
X14532439Y-15482960D02*
X14522915Y-15492484D01*
X14522915Y-15492484D02*
X14513391Y-15482960D01*
X14513391Y-15482960D02*
X14522915Y-15473436D01*
X14522915Y-15473436D02*
X14522915Y-15492484D01*
X14656248Y-15292484D02*
X14675296Y-15292484D01*
X14675296Y-15292484D02*
X14694344Y-15302008D01*
X14694344Y-15302008D02*
X14703867Y-15311531D01*
X14703867Y-15311531D02*
X14713391Y-15330579D01*
X14713391Y-15330579D02*
X14722915Y-15368674D01*
X14722915Y-15368674D02*
X14722915Y-15416293D01*
X14722915Y-15416293D02*
X14713391Y-15454388D01*
X14713391Y-15454388D02*
X14703867Y-15473436D01*
X14703867Y-15473436D02*
X14694344Y-15482960D01*
X14694344Y-15482960D02*
X14675296Y-15492484D01*
X14675296Y-15492484D02*
X14656248Y-15492484D01*
X14656248Y-15492484D02*
X14637201Y-15482960D01*
X14637201Y-15482960D02*
X14627677Y-15473436D01*
X14627677Y-15473436D02*
X14618153Y-15454388D01*
X14618153Y-15454388D02*
X14608629Y-15416293D01*
X14608629Y-15416293D02*
X14608629Y-15368674D01*
X14608629Y-15368674D02*
X14618153Y-15330579D01*
X14618153Y-15330579D02*
X14627677Y-15311531D01*
X14627677Y-15311531D02*
X14637201Y-15302008D01*
X14637201Y-15302008D02*
X14656248Y-15292484D01*
X14789582Y-15292484D02*
X14913391Y-15292484D01*
X14913391Y-15292484D02*
X14846725Y-15368674D01*
X14846725Y-15368674D02*
X14875296Y-15368674D01*
X14875296Y-15368674D02*
X14894344Y-15378198D01*
X14894344Y-15378198D02*
X14903867Y-15387722D01*
X14903867Y-15387722D02*
X14913391Y-15406769D01*
X14913391Y-15406769D02*
X14913391Y-15454388D01*
X14913391Y-15454388D02*
X14903867Y-15473436D01*
X14903867Y-15473436D02*
X14894344Y-15482960D01*
X14894344Y-15482960D02*
X14875296Y-15492484D01*
X14875296Y-15492484D02*
X14818153Y-15492484D01*
X14818153Y-15492484D02*
X14799106Y-15482960D01*
X14799106Y-15482960D02*
X14789582Y-15473436D01*
X14980058Y-15292484D02*
X15113391Y-15292484D01*
X15113391Y-15292484D02*
X15027677Y-15492484D01*
X15275296Y-15359150D02*
X15275296Y-15492484D01*
X15227677Y-15282960D02*
X15180058Y-15425817D01*
X15180058Y-15425817D02*
X15303867Y-15425817D01*
X15370534Y-15292484D02*
X15370534Y-15330579D01*
X15446725Y-15292484D02*
X15446725Y-15330579D01*
X15741963Y-15568674D02*
X15732439Y-15559150D01*
X15732439Y-15559150D02*
X15713391Y-15530579D01*
X15713391Y-15530579D02*
X15703868Y-15511531D01*
X15703868Y-15511531D02*
X15694344Y-15482960D01*
X15694344Y-15482960D02*
X15684820Y-15435341D01*
X15684820Y-15435341D02*
X15684820Y-15397246D01*
X15684820Y-15397246D02*
X15694344Y-15349627D01*
X15694344Y-15349627D02*
X15703868Y-15321055D01*
X15703868Y-15321055D02*
X15713391Y-15302008D01*
X15713391Y-15302008D02*
X15732439Y-15273436D01*
X15732439Y-15273436D02*
X15741963Y-15263912D01*
X15903868Y-15359150D02*
X15903868Y-15492484D01*
X15856248Y-15282960D02*
X15808629Y-15425817D01*
X15808629Y-15425817D02*
X15932439Y-15425817D01*
X16161010Y-15492484D02*
X16161010Y-15292484D01*
X16246725Y-15492484D02*
X16246725Y-15387722D01*
X16246725Y-15387722D02*
X16237201Y-15368674D01*
X16237201Y-15368674D02*
X16218153Y-15359150D01*
X16218153Y-15359150D02*
X16189582Y-15359150D01*
X16189582Y-15359150D02*
X16170534Y-15368674D01*
X16170534Y-15368674D02*
X16161010Y-15378198D01*
X16370534Y-15492484D02*
X16351487Y-15482960D01*
X16351487Y-15482960D02*
X16341963Y-15473436D01*
X16341963Y-15473436D02*
X16332439Y-15454388D01*
X16332439Y-15454388D02*
X16332439Y-15397246D01*
X16332439Y-15397246D02*
X16341963Y-15378198D01*
X16341963Y-15378198D02*
X16351487Y-15368674D01*
X16351487Y-15368674D02*
X16370534Y-15359150D01*
X16370534Y-15359150D02*
X16399106Y-15359150D01*
X16399106Y-15359150D02*
X16418153Y-15368674D01*
X16418153Y-15368674D02*
X16427677Y-15378198D01*
X16427677Y-15378198D02*
X16437201Y-15397246D01*
X16437201Y-15397246D02*
X16437201Y-15454388D01*
X16437201Y-15454388D02*
X16427677Y-15473436D01*
X16427677Y-15473436D02*
X16418153Y-15482960D01*
X16418153Y-15482960D02*
X16399106Y-15492484D01*
X16399106Y-15492484D02*
X16370534Y-15492484D01*
X16551487Y-15492484D02*
X16532439Y-15482960D01*
X16532439Y-15482960D02*
X16522915Y-15463912D01*
X16522915Y-15463912D02*
X16522915Y-15292484D01*
X16703868Y-15482960D02*
X16684820Y-15492484D01*
X16684820Y-15492484D02*
X16646725Y-15492484D01*
X16646725Y-15492484D02*
X16627677Y-15482960D01*
X16627677Y-15482960D02*
X16618153Y-15463912D01*
X16618153Y-15463912D02*
X16618153Y-15387722D01*
X16618153Y-15387722D02*
X16627677Y-15368674D01*
X16627677Y-15368674D02*
X16646725Y-15359150D01*
X16646725Y-15359150D02*
X16684820Y-15359150D01*
X16684820Y-15359150D02*
X16703868Y-15368674D01*
X16703868Y-15368674D02*
X16713391Y-15387722D01*
X16713391Y-15387722D02*
X16713391Y-15406769D01*
X16713391Y-15406769D02*
X16618153Y-15425817D01*
X16789582Y-15482960D02*
X16808630Y-15492484D01*
X16808630Y-15492484D02*
X16846725Y-15492484D01*
X16846725Y-15492484D02*
X16865773Y-15482960D01*
X16865773Y-15482960D02*
X16875296Y-15463912D01*
X16875296Y-15463912D02*
X16875296Y-15454388D01*
X16875296Y-15454388D02*
X16865773Y-15435341D01*
X16865773Y-15435341D02*
X16846725Y-15425817D01*
X16846725Y-15425817D02*
X16818153Y-15425817D01*
X16818153Y-15425817D02*
X16799106Y-15416293D01*
X16799106Y-15416293D02*
X16789582Y-15397246D01*
X16789582Y-15397246D02*
X16789582Y-15387722D01*
X16789582Y-15387722D02*
X16799106Y-15368674D01*
X16799106Y-15368674D02*
X16818153Y-15359150D01*
X16818153Y-15359150D02*
X16846725Y-15359150D01*
X16846725Y-15359150D02*
X16865773Y-15368674D01*
X16941963Y-15568674D02*
X16951487Y-15559150D01*
X16951487Y-15559150D02*
X16970534Y-15530579D01*
X16970534Y-15530579D02*
X16980058Y-15511531D01*
X16980058Y-15511531D02*
X16989582Y-15482960D01*
X16989582Y-15482960D02*
X16999106Y-15435341D01*
X16999106Y-15435341D02*
X16999106Y-15397246D01*
X16999106Y-15397246D02*
X16989582Y-15349627D01*
X16989582Y-15349627D02*
X16980058Y-15321055D01*
X16980058Y-15321055D02*
X16970534Y-15302008D01*
X16970534Y-15302008D02*
X16951487Y-15273436D01*
X16951487Y-15273436D02*
X16941963Y-15263912D01*
D10*
X12067900Y-15615500D02*
X12166900Y-15714500D01*
X12166900Y-15615500D02*
X12067900Y-15714500D01*
X12166900Y-15665000D02*
G75*
G02*
X12067900Y-15665000I-49500J0D01*
G01*
X12067900Y-15665000D02*
G75*
G02*
X12166900Y-15665000I49500J0D01*
G01*
D11*
X12465772Y-15556484D02*
X12484820Y-15556484D01*
X12484820Y-15556484D02*
X12503867Y-15566008D01*
X12503867Y-15566008D02*
X12513391Y-15575531D01*
X12513391Y-15575531D02*
X12522915Y-15594579D01*
X12522915Y-15594579D02*
X12532439Y-15632674D01*
X12532439Y-15632674D02*
X12532439Y-15680293D01*
X12532439Y-15680293D02*
X12522915Y-15718388D01*
X12522915Y-15718388D02*
X12513391Y-15737436D01*
X12513391Y-15737436D02*
X12503867Y-15746960D01*
X12503867Y-15746960D02*
X12484820Y-15756484D01*
X12484820Y-15756484D02*
X12465772Y-15756484D01*
X12465772Y-15756484D02*
X12446724Y-15746960D01*
X12446724Y-15746960D02*
X12437201Y-15737436D01*
X12437201Y-15737436D02*
X12427677Y-15718388D01*
X12427677Y-15718388D02*
X12418153Y-15680293D01*
X12418153Y-15680293D02*
X12418153Y-15632674D01*
X12418153Y-15632674D02*
X12427677Y-15594579D01*
X12427677Y-15594579D02*
X12437201Y-15575531D01*
X12437201Y-15575531D02*
X12446724Y-15566008D01*
X12446724Y-15566008D02*
X12465772Y-15556484D01*
X12618153Y-15737436D02*
X12627677Y-15746960D01*
X12627677Y-15746960D02*
X12618153Y-15756484D01*
X12618153Y-15756484D02*
X12608629Y-15746960D01*
X12608629Y-15746960D02*
X12618153Y-15737436D01*
X12618153Y-15737436D02*
X12618153Y-15756484D01*
X12722915Y-15756484D02*
X12761010Y-15756484D01*
X12761010Y-15756484D02*
X12780058Y-15746960D01*
X12780058Y-15746960D02*
X12789582Y-15737436D01*
X12789582Y-15737436D02*
X12808629Y-15708865D01*
X12808629Y-15708865D02*
X12818153Y-15670769D01*
X12818153Y-15670769D02*
X12818153Y-15594579D01*
X12818153Y-15594579D02*
X12808629Y-15575531D01*
X12808629Y-15575531D02*
X12799105Y-15566008D01*
X12799105Y-15566008D02*
X12780058Y-15556484D01*
X12780058Y-15556484D02*
X12741962Y-15556484D01*
X12741962Y-15556484D02*
X12722915Y-15566008D01*
X12722915Y-15566008D02*
X12713391Y-15575531D01*
X12713391Y-15575531D02*
X12703867Y-15594579D01*
X12703867Y-15594579D02*
X12703867Y-15642198D01*
X12703867Y-15642198D02*
X12713391Y-15661246D01*
X12713391Y-15661246D02*
X12722915Y-15670769D01*
X12722915Y-15670769D02*
X12741962Y-15680293D01*
X12741962Y-15680293D02*
X12780058Y-15680293D01*
X12780058Y-15680293D02*
X12799105Y-15670769D01*
X12799105Y-15670769D02*
X12808629Y-15661246D01*
X12808629Y-15661246D02*
X12818153Y-15642198D01*
X12913391Y-15756484D02*
X12951486Y-15756484D01*
X12951486Y-15756484D02*
X12970534Y-15746960D01*
X12970534Y-15746960D02*
X12980058Y-15737436D01*
X12980058Y-15737436D02*
X12999105Y-15708865D01*
X12999105Y-15708865D02*
X13008629Y-15670769D01*
X13008629Y-15670769D02*
X13008629Y-15594579D01*
X13008629Y-15594579D02*
X12999105Y-15575531D01*
X12999105Y-15575531D02*
X12989582Y-15566008D01*
X12989582Y-15566008D02*
X12970534Y-15556484D01*
X12970534Y-15556484D02*
X12932439Y-15556484D01*
X12932439Y-15556484D02*
X12913391Y-15566008D01*
X12913391Y-15566008D02*
X12903867Y-15575531D01*
X12903867Y-15575531D02*
X12894343Y-15594579D01*
X12894343Y-15594579D02*
X12894343Y-15642198D01*
X12894343Y-15642198D02*
X12903867Y-15661246D01*
X12903867Y-15661246D02*
X12913391Y-15670769D01*
X12913391Y-15670769D02*
X12932439Y-15680293D01*
X12932439Y-15680293D02*
X12970534Y-15680293D01*
X12970534Y-15680293D02*
X12989582Y-15670769D01*
X12989582Y-15670769D02*
X12999105Y-15661246D01*
X12999105Y-15661246D02*
X13008629Y-15642198D01*
X13132439Y-15556484D02*
X13151486Y-15556484D01*
X13151486Y-15556484D02*
X13170534Y-15566008D01*
X13170534Y-15566008D02*
X13180058Y-15575531D01*
X13180058Y-15575531D02*
X13189582Y-15594579D01*
X13189582Y-15594579D02*
X13199105Y-15632674D01*
X13199105Y-15632674D02*
X13199105Y-15680293D01*
X13199105Y-15680293D02*
X13189582Y-15718388D01*
X13189582Y-15718388D02*
X13180058Y-15737436D01*
X13180058Y-15737436D02*
X13170534Y-15746960D01*
X13170534Y-15746960D02*
X13151486Y-15756484D01*
X13151486Y-15756484D02*
X13132439Y-15756484D01*
X13132439Y-15756484D02*
X13113391Y-15746960D01*
X13113391Y-15746960D02*
X13103867Y-15737436D01*
X13103867Y-15737436D02*
X13094343Y-15718388D01*
X13094343Y-15718388D02*
X13084820Y-15680293D01*
X13084820Y-15680293D02*
X13084820Y-15632674D01*
X13084820Y-15632674D02*
X13094343Y-15594579D01*
X13094343Y-15594579D02*
X13103867Y-15575531D01*
X13103867Y-15575531D02*
X13113391Y-15566008D01*
X13113391Y-15566008D02*
X13132439Y-15556484D01*
X13284820Y-15756484D02*
X13284820Y-15623150D01*
X13284820Y-15642198D02*
X13294343Y-15632674D01*
X13294343Y-15632674D02*
X13313391Y-15623150D01*
X13313391Y-15623150D02*
X13341963Y-15623150D01*
X13341963Y-15623150D02*
X13361010Y-15632674D01*
X13361010Y-15632674D02*
X13370534Y-15651722D01*
X13370534Y-15651722D02*
X13370534Y-15756484D01*
X13370534Y-15651722D02*
X13380058Y-15632674D01*
X13380058Y-15632674D02*
X13399105Y-15623150D01*
X13399105Y-15623150D02*
X13427677Y-15623150D01*
X13427677Y-15623150D02*
X13446724Y-15632674D01*
X13446724Y-15632674D02*
X13456248Y-15651722D01*
X13456248Y-15651722D02*
X13456248Y-15756484D01*
X13551486Y-15756484D02*
X13551486Y-15623150D01*
X13551486Y-15642198D02*
X13561010Y-15632674D01*
X13561010Y-15632674D02*
X13580058Y-15623150D01*
X13580058Y-15623150D02*
X13608629Y-15623150D01*
X13608629Y-15623150D02*
X13627677Y-15632674D01*
X13627677Y-15632674D02*
X13637201Y-15651722D01*
X13637201Y-15651722D02*
X13637201Y-15756484D01*
X13637201Y-15651722D02*
X13646724Y-15632674D01*
X13646724Y-15632674D02*
X13665772Y-15623150D01*
X13665772Y-15623150D02*
X13694343Y-15623150D01*
X13694343Y-15623150D02*
X13713391Y-15632674D01*
X13713391Y-15632674D02*
X13722915Y-15651722D01*
X13722915Y-15651722D02*
X13722915Y-15756484D01*
X14113391Y-15546960D02*
X13941963Y-15804103D01*
X14370534Y-15556484D02*
X14389582Y-15556484D01*
X14389582Y-15556484D02*
X14408629Y-15566008D01*
X14408629Y-15566008D02*
X14418153Y-15575531D01*
X14418153Y-15575531D02*
X14427677Y-15594579D01*
X14427677Y-15594579D02*
X14437201Y-15632674D01*
X14437201Y-15632674D02*
X14437201Y-15680293D01*
X14437201Y-15680293D02*
X14427677Y-15718388D01*
X14427677Y-15718388D02*
X14418153Y-15737436D01*
X14418153Y-15737436D02*
X14408629Y-15746960D01*
X14408629Y-15746960D02*
X14389582Y-15756484D01*
X14389582Y-15756484D02*
X14370534Y-15756484D01*
X14370534Y-15756484D02*
X14351486Y-15746960D01*
X14351486Y-15746960D02*
X14341963Y-15737436D01*
X14341963Y-15737436D02*
X14332439Y-15718388D01*
X14332439Y-15718388D02*
X14322915Y-15680293D01*
X14322915Y-15680293D02*
X14322915Y-15632674D01*
X14322915Y-15632674D02*
X14332439Y-15594579D01*
X14332439Y-15594579D02*
X14341963Y-15575531D01*
X14341963Y-15575531D02*
X14351486Y-15566008D01*
X14351486Y-15566008D02*
X14370534Y-15556484D01*
X14522915Y-15737436D02*
X14532439Y-15746960D01*
X14532439Y-15746960D02*
X14522915Y-15756484D01*
X14522915Y-15756484D02*
X14513391Y-15746960D01*
X14513391Y-15746960D02*
X14522915Y-15737436D01*
X14522915Y-15737436D02*
X14522915Y-15756484D01*
X14656248Y-15556484D02*
X14675296Y-15556484D01*
X14675296Y-15556484D02*
X14694344Y-15566008D01*
X14694344Y-15566008D02*
X14703867Y-15575531D01*
X14703867Y-15575531D02*
X14713391Y-15594579D01*
X14713391Y-15594579D02*
X14722915Y-15632674D01*
X14722915Y-15632674D02*
X14722915Y-15680293D01*
X14722915Y-15680293D02*
X14713391Y-15718388D01*
X14713391Y-15718388D02*
X14703867Y-15737436D01*
X14703867Y-15737436D02*
X14694344Y-15746960D01*
X14694344Y-15746960D02*
X14675296Y-15756484D01*
X14675296Y-15756484D02*
X14656248Y-15756484D01*
X14656248Y-15756484D02*
X14637201Y-15746960D01*
X14637201Y-15746960D02*
X14627677Y-15737436D01*
X14627677Y-15737436D02*
X14618153Y-15718388D01*
X14618153Y-15718388D02*
X14608629Y-15680293D01*
X14608629Y-15680293D02*
X14608629Y-15632674D01*
X14608629Y-15632674D02*
X14618153Y-15594579D01*
X14618153Y-15594579D02*
X14627677Y-15575531D01*
X14627677Y-15575531D02*
X14637201Y-15566008D01*
X14637201Y-15566008D02*
X14656248Y-15556484D01*
X14789582Y-15556484D02*
X14913391Y-15556484D01*
X14913391Y-15556484D02*
X14846725Y-15632674D01*
X14846725Y-15632674D02*
X14875296Y-15632674D01*
X14875296Y-15632674D02*
X14894344Y-15642198D01*
X14894344Y-15642198D02*
X14903867Y-15651722D01*
X14903867Y-15651722D02*
X14913391Y-15670769D01*
X14913391Y-15670769D02*
X14913391Y-15718388D01*
X14913391Y-15718388D02*
X14903867Y-15737436D01*
X14903867Y-15737436D02*
X14894344Y-15746960D01*
X14894344Y-15746960D02*
X14875296Y-15756484D01*
X14875296Y-15756484D02*
X14818153Y-15756484D01*
X14818153Y-15756484D02*
X14799106Y-15746960D01*
X14799106Y-15746960D02*
X14789582Y-15737436D01*
X15008629Y-15756484D02*
X15046725Y-15756484D01*
X15046725Y-15756484D02*
X15065772Y-15746960D01*
X15065772Y-15746960D02*
X15075296Y-15737436D01*
X15075296Y-15737436D02*
X15094344Y-15708865D01*
X15094344Y-15708865D02*
X15103867Y-15670769D01*
X15103867Y-15670769D02*
X15103867Y-15594579D01*
X15103867Y-15594579D02*
X15094344Y-15575531D01*
X15094344Y-15575531D02*
X15084820Y-15566008D01*
X15084820Y-15566008D02*
X15065772Y-15556484D01*
X15065772Y-15556484D02*
X15027677Y-15556484D01*
X15027677Y-15556484D02*
X15008629Y-15566008D01*
X15008629Y-15566008D02*
X14999106Y-15575531D01*
X14999106Y-15575531D02*
X14989582Y-15594579D01*
X14989582Y-15594579D02*
X14989582Y-15642198D01*
X14989582Y-15642198D02*
X14999106Y-15661246D01*
X14999106Y-15661246D02*
X15008629Y-15670769D01*
X15008629Y-15670769D02*
X15027677Y-15680293D01*
X15027677Y-15680293D02*
X15065772Y-15680293D01*
X15065772Y-15680293D02*
X15084820Y-15670769D01*
X15084820Y-15670769D02*
X15094344Y-15661246D01*
X15094344Y-15661246D02*
X15103867Y-15642198D01*
X15227677Y-15556484D02*
X15246725Y-15556484D01*
X15246725Y-15556484D02*
X15265772Y-15566008D01*
X15265772Y-15566008D02*
X15275296Y-15575531D01*
X15275296Y-15575531D02*
X15284820Y-15594579D01*
X15284820Y-15594579D02*
X15294344Y-15632674D01*
X15294344Y-15632674D02*
X15294344Y-15680293D01*
X15294344Y-15680293D02*
X15284820Y-15718388D01*
X15284820Y-15718388D02*
X15275296Y-15737436D01*
X15275296Y-15737436D02*
X15265772Y-15746960D01*
X15265772Y-15746960D02*
X15246725Y-15756484D01*
X15246725Y-15756484D02*
X15227677Y-15756484D01*
X15227677Y-15756484D02*
X15208629Y-15746960D01*
X15208629Y-15746960D02*
X15199106Y-15737436D01*
X15199106Y-15737436D02*
X15189582Y-15718388D01*
X15189582Y-15718388D02*
X15180058Y-15680293D01*
X15180058Y-15680293D02*
X15180058Y-15632674D01*
X15180058Y-15632674D02*
X15189582Y-15594579D01*
X15189582Y-15594579D02*
X15199106Y-15575531D01*
X15199106Y-15575531D02*
X15208629Y-15566008D01*
X15208629Y-15566008D02*
X15227677Y-15556484D01*
X15370534Y-15556484D02*
X15370534Y-15594579D01*
X15446725Y-15556484D02*
X15446725Y-15594579D01*
X15741963Y-15832674D02*
X15732439Y-15823150D01*
X15732439Y-15823150D02*
X15713391Y-15794579D01*
X15713391Y-15794579D02*
X15703868Y-15775531D01*
X15703868Y-15775531D02*
X15694344Y-15746960D01*
X15694344Y-15746960D02*
X15684820Y-15699341D01*
X15684820Y-15699341D02*
X15684820Y-15661246D01*
X15684820Y-15661246D02*
X15694344Y-15613627D01*
X15694344Y-15613627D02*
X15703868Y-15585055D01*
X15703868Y-15585055D02*
X15713391Y-15566008D01*
X15713391Y-15566008D02*
X15732439Y-15537436D01*
X15732439Y-15537436D02*
X15741963Y-15527912D01*
X15808629Y-15575531D02*
X15818153Y-15566008D01*
X15818153Y-15566008D02*
X15837201Y-15556484D01*
X15837201Y-15556484D02*
X15884820Y-15556484D01*
X15884820Y-15556484D02*
X15903868Y-15566008D01*
X15903868Y-15566008D02*
X15913391Y-15575531D01*
X15913391Y-15575531D02*
X15922915Y-15594579D01*
X15922915Y-15594579D02*
X15922915Y-15613627D01*
X15922915Y-15613627D02*
X15913391Y-15642198D01*
X15913391Y-15642198D02*
X15799106Y-15756484D01*
X15799106Y-15756484D02*
X15922915Y-15756484D01*
X16161010Y-15756484D02*
X16161010Y-15556484D01*
X16246725Y-15756484D02*
X16246725Y-15651722D01*
X16246725Y-15651722D02*
X16237201Y-15632674D01*
X16237201Y-15632674D02*
X16218153Y-15623150D01*
X16218153Y-15623150D02*
X16189582Y-15623150D01*
X16189582Y-15623150D02*
X16170534Y-15632674D01*
X16170534Y-15632674D02*
X16161010Y-15642198D01*
X16370534Y-15756484D02*
X16351487Y-15746960D01*
X16351487Y-15746960D02*
X16341963Y-15737436D01*
X16341963Y-15737436D02*
X16332439Y-15718388D01*
X16332439Y-15718388D02*
X16332439Y-15661246D01*
X16332439Y-15661246D02*
X16341963Y-15642198D01*
X16341963Y-15642198D02*
X16351487Y-15632674D01*
X16351487Y-15632674D02*
X16370534Y-15623150D01*
X16370534Y-15623150D02*
X16399106Y-15623150D01*
X16399106Y-15623150D02*
X16418153Y-15632674D01*
X16418153Y-15632674D02*
X16427677Y-15642198D01*
X16427677Y-15642198D02*
X16437201Y-15661246D01*
X16437201Y-15661246D02*
X16437201Y-15718388D01*
X16437201Y-15718388D02*
X16427677Y-15737436D01*
X16427677Y-15737436D02*
X16418153Y-15746960D01*
X16418153Y-15746960D02*
X16399106Y-15756484D01*
X16399106Y-15756484D02*
X16370534Y-15756484D01*
X16551487Y-15756484D02*
X16532439Y-15746960D01*
X16532439Y-15746960D02*
X16522915Y-15727912D01*
X16522915Y-15727912D02*
X16522915Y-15556484D01*
X16703868Y-15746960D02*
X16684820Y-15756484D01*
X16684820Y-15756484D02*
X16646725Y-15756484D01*
X16646725Y-15756484D02*
X16627677Y-15746960D01*
X16627677Y-15746960D02*
X16618153Y-15727912D01*
X16618153Y-15727912D02*
X16618153Y-15651722D01*
X16618153Y-15651722D02*
X16627677Y-15632674D01*
X16627677Y-15632674D02*
X16646725Y-15623150D01*
X16646725Y-15623150D02*
X16684820Y-15623150D01*
X16684820Y-15623150D02*
X16703868Y-15632674D01*
X16703868Y-15632674D02*
X16713391Y-15651722D01*
X16713391Y-15651722D02*
X16713391Y-15670769D01*
X16713391Y-15670769D02*
X16618153Y-15689817D01*
X16789582Y-15746960D02*
X16808630Y-15756484D01*
X16808630Y-15756484D02*
X16846725Y-15756484D01*
X16846725Y-15756484D02*
X16865773Y-15746960D01*
X16865773Y-15746960D02*
X16875296Y-15727912D01*
X16875296Y-15727912D02*
X16875296Y-15718388D01*
X16875296Y-15718388D02*
X16865773Y-15699341D01*
X16865773Y-15699341D02*
X16846725Y-15689817D01*
X16846725Y-15689817D02*
X16818153Y-15689817D01*
X16818153Y-15689817D02*
X16799106Y-15680293D01*
X16799106Y-15680293D02*
X16789582Y-15661246D01*
X16789582Y-15661246D02*
X16789582Y-15651722D01*
X16789582Y-15651722D02*
X16799106Y-15632674D01*
X16799106Y-15632674D02*
X16818153Y-15623150D01*
X16818153Y-15623150D02*
X16846725Y-15623150D01*
X16846725Y-15623150D02*
X16865773Y-15632674D01*
X16941963Y-15832674D02*
X16951487Y-15823150D01*
X16951487Y-15823150D02*
X16970534Y-15794579D01*
X16970534Y-15794579D02*
X16980058Y-15775531D01*
X16980058Y-15775531D02*
X16989582Y-15746960D01*
X16989582Y-15746960D02*
X16999106Y-15699341D01*
X16999106Y-15699341D02*
X16999106Y-15661246D01*
X16999106Y-15661246D02*
X16989582Y-15613627D01*
X16989582Y-15613627D02*
X16980058Y-15585055D01*
X16980058Y-15585055D02*
X16970534Y-15566008D01*
X16970534Y-15566008D02*
X16951487Y-15537436D01*
X16951487Y-15537436D02*
X16941963Y-15527912D01*
D10*
X12066900Y-15879000D02*
X12166900Y-15979000D01*
X12166900Y-15879000D02*
X12066900Y-15979000D01*
X12116900Y-15879000D02*
X12116900Y-15979000D01*
X12066900Y-15929000D02*
X12166900Y-15929000D01*
D11*
X12532439Y-16020484D02*
X12418153Y-16020484D01*
X12475296Y-16020484D02*
X12475296Y-15820484D01*
X12475296Y-15820484D02*
X12456248Y-15849055D01*
X12456248Y-15849055D02*
X12437201Y-15868103D01*
X12437201Y-15868103D02*
X12418153Y-15877627D01*
X12618153Y-16001436D02*
X12627677Y-16010960D01*
X12627677Y-16010960D02*
X12618153Y-16020484D01*
X12618153Y-16020484D02*
X12608629Y-16010960D01*
X12608629Y-16010960D02*
X12618153Y-16001436D01*
X12618153Y-16001436D02*
X12618153Y-16020484D01*
X12751486Y-15820484D02*
X12770534Y-15820484D01*
X12770534Y-15820484D02*
X12789582Y-15830008D01*
X12789582Y-15830008D02*
X12799105Y-15839531D01*
X12799105Y-15839531D02*
X12808629Y-15858579D01*
X12808629Y-15858579D02*
X12818153Y-15896674D01*
X12818153Y-15896674D02*
X12818153Y-15944293D01*
X12818153Y-15944293D02*
X12808629Y-15982388D01*
X12808629Y-15982388D02*
X12799105Y-16001436D01*
X12799105Y-16001436D02*
X12789582Y-16010960D01*
X12789582Y-16010960D02*
X12770534Y-16020484D01*
X12770534Y-16020484D02*
X12751486Y-16020484D01*
X12751486Y-16020484D02*
X12732439Y-16010960D01*
X12732439Y-16010960D02*
X12722915Y-16001436D01*
X12722915Y-16001436D02*
X12713391Y-15982388D01*
X12713391Y-15982388D02*
X12703867Y-15944293D01*
X12703867Y-15944293D02*
X12703867Y-15896674D01*
X12703867Y-15896674D02*
X12713391Y-15858579D01*
X12713391Y-15858579D02*
X12722915Y-15839531D01*
X12722915Y-15839531D02*
X12732439Y-15830008D01*
X12732439Y-15830008D02*
X12751486Y-15820484D01*
X12941962Y-15820484D02*
X12961010Y-15820484D01*
X12961010Y-15820484D02*
X12980058Y-15830008D01*
X12980058Y-15830008D02*
X12989582Y-15839531D01*
X12989582Y-15839531D02*
X12999105Y-15858579D01*
X12999105Y-15858579D02*
X13008629Y-15896674D01*
X13008629Y-15896674D02*
X13008629Y-15944293D01*
X13008629Y-15944293D02*
X12999105Y-15982388D01*
X12999105Y-15982388D02*
X12989582Y-16001436D01*
X12989582Y-16001436D02*
X12980058Y-16010960D01*
X12980058Y-16010960D02*
X12961010Y-16020484D01*
X12961010Y-16020484D02*
X12941962Y-16020484D01*
X12941962Y-16020484D02*
X12922915Y-16010960D01*
X12922915Y-16010960D02*
X12913391Y-16001436D01*
X12913391Y-16001436D02*
X12903867Y-15982388D01*
X12903867Y-15982388D02*
X12894343Y-15944293D01*
X12894343Y-15944293D02*
X12894343Y-15896674D01*
X12894343Y-15896674D02*
X12903867Y-15858579D01*
X12903867Y-15858579D02*
X12913391Y-15839531D01*
X12913391Y-15839531D02*
X12922915Y-15830008D01*
X12922915Y-15830008D02*
X12941962Y-15820484D01*
X13132439Y-15820484D02*
X13151486Y-15820484D01*
X13151486Y-15820484D02*
X13170534Y-15830008D01*
X13170534Y-15830008D02*
X13180058Y-15839531D01*
X13180058Y-15839531D02*
X13189582Y-15858579D01*
X13189582Y-15858579D02*
X13199105Y-15896674D01*
X13199105Y-15896674D02*
X13199105Y-15944293D01*
X13199105Y-15944293D02*
X13189582Y-15982388D01*
X13189582Y-15982388D02*
X13180058Y-16001436D01*
X13180058Y-16001436D02*
X13170534Y-16010960D01*
X13170534Y-16010960D02*
X13151486Y-16020484D01*
X13151486Y-16020484D02*
X13132439Y-16020484D01*
X13132439Y-16020484D02*
X13113391Y-16010960D01*
X13113391Y-16010960D02*
X13103867Y-16001436D01*
X13103867Y-16001436D02*
X13094343Y-15982388D01*
X13094343Y-15982388D02*
X13084820Y-15944293D01*
X13084820Y-15944293D02*
X13084820Y-15896674D01*
X13084820Y-15896674D02*
X13094343Y-15858579D01*
X13094343Y-15858579D02*
X13103867Y-15839531D01*
X13103867Y-15839531D02*
X13113391Y-15830008D01*
X13113391Y-15830008D02*
X13132439Y-15820484D01*
X13284820Y-16020484D02*
X13284820Y-15887150D01*
X13284820Y-15906198D02*
X13294343Y-15896674D01*
X13294343Y-15896674D02*
X13313391Y-15887150D01*
X13313391Y-15887150D02*
X13341963Y-15887150D01*
X13341963Y-15887150D02*
X13361010Y-15896674D01*
X13361010Y-15896674D02*
X13370534Y-15915722D01*
X13370534Y-15915722D02*
X13370534Y-16020484D01*
X13370534Y-15915722D02*
X13380058Y-15896674D01*
X13380058Y-15896674D02*
X13399105Y-15887150D01*
X13399105Y-15887150D02*
X13427677Y-15887150D01*
X13427677Y-15887150D02*
X13446724Y-15896674D01*
X13446724Y-15896674D02*
X13456248Y-15915722D01*
X13456248Y-15915722D02*
X13456248Y-16020484D01*
X13551486Y-16020484D02*
X13551486Y-15887150D01*
X13551486Y-15906198D02*
X13561010Y-15896674D01*
X13561010Y-15896674D02*
X13580058Y-15887150D01*
X13580058Y-15887150D02*
X13608629Y-15887150D01*
X13608629Y-15887150D02*
X13627677Y-15896674D01*
X13627677Y-15896674D02*
X13637201Y-15915722D01*
X13637201Y-15915722D02*
X13637201Y-16020484D01*
X13637201Y-15915722D02*
X13646724Y-15896674D01*
X13646724Y-15896674D02*
X13665772Y-15887150D01*
X13665772Y-15887150D02*
X13694343Y-15887150D01*
X13694343Y-15887150D02*
X13713391Y-15896674D01*
X13713391Y-15896674D02*
X13722915Y-15915722D01*
X13722915Y-15915722D02*
X13722915Y-16020484D01*
X14113391Y-15810960D02*
X13941963Y-16068103D01*
X14370534Y-15820484D02*
X14389582Y-15820484D01*
X14389582Y-15820484D02*
X14408629Y-15830008D01*
X14408629Y-15830008D02*
X14418153Y-15839531D01*
X14418153Y-15839531D02*
X14427677Y-15858579D01*
X14427677Y-15858579D02*
X14437201Y-15896674D01*
X14437201Y-15896674D02*
X14437201Y-15944293D01*
X14437201Y-15944293D02*
X14427677Y-15982388D01*
X14427677Y-15982388D02*
X14418153Y-16001436D01*
X14418153Y-16001436D02*
X14408629Y-16010960D01*
X14408629Y-16010960D02*
X14389582Y-16020484D01*
X14389582Y-16020484D02*
X14370534Y-16020484D01*
X14370534Y-16020484D02*
X14351486Y-16010960D01*
X14351486Y-16010960D02*
X14341963Y-16001436D01*
X14341963Y-16001436D02*
X14332439Y-15982388D01*
X14332439Y-15982388D02*
X14322915Y-15944293D01*
X14322915Y-15944293D02*
X14322915Y-15896674D01*
X14322915Y-15896674D02*
X14332439Y-15858579D01*
X14332439Y-15858579D02*
X14341963Y-15839531D01*
X14341963Y-15839531D02*
X14351486Y-15830008D01*
X14351486Y-15830008D02*
X14370534Y-15820484D01*
X14522915Y-16001436D02*
X14532439Y-16010960D01*
X14532439Y-16010960D02*
X14522915Y-16020484D01*
X14522915Y-16020484D02*
X14513391Y-16010960D01*
X14513391Y-16010960D02*
X14522915Y-16001436D01*
X14522915Y-16001436D02*
X14522915Y-16020484D01*
X14656248Y-15820484D02*
X14675296Y-15820484D01*
X14675296Y-15820484D02*
X14694344Y-15830008D01*
X14694344Y-15830008D02*
X14703867Y-15839531D01*
X14703867Y-15839531D02*
X14713391Y-15858579D01*
X14713391Y-15858579D02*
X14722915Y-15896674D01*
X14722915Y-15896674D02*
X14722915Y-15944293D01*
X14722915Y-15944293D02*
X14713391Y-15982388D01*
X14713391Y-15982388D02*
X14703867Y-16001436D01*
X14703867Y-16001436D02*
X14694344Y-16010960D01*
X14694344Y-16010960D02*
X14675296Y-16020484D01*
X14675296Y-16020484D02*
X14656248Y-16020484D01*
X14656248Y-16020484D02*
X14637201Y-16010960D01*
X14637201Y-16010960D02*
X14627677Y-16001436D01*
X14627677Y-16001436D02*
X14618153Y-15982388D01*
X14618153Y-15982388D02*
X14608629Y-15944293D01*
X14608629Y-15944293D02*
X14608629Y-15896674D01*
X14608629Y-15896674D02*
X14618153Y-15858579D01*
X14618153Y-15858579D02*
X14627677Y-15839531D01*
X14627677Y-15839531D02*
X14637201Y-15830008D01*
X14637201Y-15830008D02*
X14656248Y-15820484D01*
X14789582Y-15820484D02*
X14913391Y-15820484D01*
X14913391Y-15820484D02*
X14846725Y-15896674D01*
X14846725Y-15896674D02*
X14875296Y-15896674D01*
X14875296Y-15896674D02*
X14894344Y-15906198D01*
X14894344Y-15906198D02*
X14903867Y-15915722D01*
X14903867Y-15915722D02*
X14913391Y-15934769D01*
X14913391Y-15934769D02*
X14913391Y-15982388D01*
X14913391Y-15982388D02*
X14903867Y-16001436D01*
X14903867Y-16001436D02*
X14894344Y-16010960D01*
X14894344Y-16010960D02*
X14875296Y-16020484D01*
X14875296Y-16020484D02*
X14818153Y-16020484D01*
X14818153Y-16020484D02*
X14799106Y-16010960D01*
X14799106Y-16010960D02*
X14789582Y-16001436D01*
X15008629Y-16020484D02*
X15046725Y-16020484D01*
X15046725Y-16020484D02*
X15065772Y-16010960D01*
X15065772Y-16010960D02*
X15075296Y-16001436D01*
X15075296Y-16001436D02*
X15094344Y-15972865D01*
X15094344Y-15972865D02*
X15103867Y-15934769D01*
X15103867Y-15934769D02*
X15103867Y-15858579D01*
X15103867Y-15858579D02*
X15094344Y-15839531D01*
X15094344Y-15839531D02*
X15084820Y-15830008D01*
X15084820Y-15830008D02*
X15065772Y-15820484D01*
X15065772Y-15820484D02*
X15027677Y-15820484D01*
X15027677Y-15820484D02*
X15008629Y-15830008D01*
X15008629Y-15830008D02*
X14999106Y-15839531D01*
X14999106Y-15839531D02*
X14989582Y-15858579D01*
X14989582Y-15858579D02*
X14989582Y-15906198D01*
X14989582Y-15906198D02*
X14999106Y-15925246D01*
X14999106Y-15925246D02*
X15008629Y-15934769D01*
X15008629Y-15934769D02*
X15027677Y-15944293D01*
X15027677Y-15944293D02*
X15065772Y-15944293D01*
X15065772Y-15944293D02*
X15084820Y-15934769D01*
X15084820Y-15934769D02*
X15094344Y-15925246D01*
X15094344Y-15925246D02*
X15103867Y-15906198D01*
X15275296Y-15887150D02*
X15275296Y-16020484D01*
X15227677Y-15810960D02*
X15180058Y-15953817D01*
X15180058Y-15953817D02*
X15303867Y-15953817D01*
X15370534Y-15820484D02*
X15370534Y-15858579D01*
X15446725Y-15820484D02*
X15446725Y-15858579D01*
X15741963Y-16096674D02*
X15732439Y-16087150D01*
X15732439Y-16087150D02*
X15713391Y-16058579D01*
X15713391Y-16058579D02*
X15703868Y-16039531D01*
X15703868Y-16039531D02*
X15694344Y-16010960D01*
X15694344Y-16010960D02*
X15684820Y-15963341D01*
X15684820Y-15963341D02*
X15684820Y-15925246D01*
X15684820Y-15925246D02*
X15694344Y-15877627D01*
X15694344Y-15877627D02*
X15703868Y-15849055D01*
X15703868Y-15849055D02*
X15713391Y-15830008D01*
X15713391Y-15830008D02*
X15732439Y-15801436D01*
X15732439Y-15801436D02*
X15741963Y-15791912D01*
X15903868Y-15887150D02*
X15903868Y-16020484D01*
X15856248Y-15810960D02*
X15808629Y-15953817D01*
X15808629Y-15953817D02*
X15932439Y-15953817D01*
X16161010Y-16020484D02*
X16161010Y-15820484D01*
X16246725Y-16020484D02*
X16246725Y-15915722D01*
X16246725Y-15915722D02*
X16237201Y-15896674D01*
X16237201Y-15896674D02*
X16218153Y-15887150D01*
X16218153Y-15887150D02*
X16189582Y-15887150D01*
X16189582Y-15887150D02*
X16170534Y-15896674D01*
X16170534Y-15896674D02*
X16161010Y-15906198D01*
X16370534Y-16020484D02*
X16351487Y-16010960D01*
X16351487Y-16010960D02*
X16341963Y-16001436D01*
X16341963Y-16001436D02*
X16332439Y-15982388D01*
X16332439Y-15982388D02*
X16332439Y-15925246D01*
X16332439Y-15925246D02*
X16341963Y-15906198D01*
X16341963Y-15906198D02*
X16351487Y-15896674D01*
X16351487Y-15896674D02*
X16370534Y-15887150D01*
X16370534Y-15887150D02*
X16399106Y-15887150D01*
X16399106Y-15887150D02*
X16418153Y-15896674D01*
X16418153Y-15896674D02*
X16427677Y-15906198D01*
X16427677Y-15906198D02*
X16437201Y-15925246D01*
X16437201Y-15925246D02*
X16437201Y-15982388D01*
X16437201Y-15982388D02*
X16427677Y-16001436D01*
X16427677Y-16001436D02*
X16418153Y-16010960D01*
X16418153Y-16010960D02*
X16399106Y-16020484D01*
X16399106Y-16020484D02*
X16370534Y-16020484D01*
X16551487Y-16020484D02*
X16532439Y-16010960D01*
X16532439Y-16010960D02*
X16522915Y-15991912D01*
X16522915Y-15991912D02*
X16522915Y-15820484D01*
X16703868Y-16010960D02*
X16684820Y-16020484D01*
X16684820Y-16020484D02*
X16646725Y-16020484D01*
X16646725Y-16020484D02*
X16627677Y-16010960D01*
X16627677Y-16010960D02*
X16618153Y-15991912D01*
X16618153Y-15991912D02*
X16618153Y-15915722D01*
X16618153Y-15915722D02*
X16627677Y-15896674D01*
X16627677Y-15896674D02*
X16646725Y-15887150D01*
X16646725Y-15887150D02*
X16684820Y-15887150D01*
X16684820Y-15887150D02*
X16703868Y-15896674D01*
X16703868Y-15896674D02*
X16713391Y-15915722D01*
X16713391Y-15915722D02*
X16713391Y-15934769D01*
X16713391Y-15934769D02*
X16618153Y-15953817D01*
X16789582Y-16010960D02*
X16808630Y-16020484D01*
X16808630Y-16020484D02*
X16846725Y-16020484D01*
X16846725Y-16020484D02*
X16865773Y-16010960D01*
X16865773Y-16010960D02*
X16875296Y-15991912D01*
X16875296Y-15991912D02*
X16875296Y-15982388D01*
X16875296Y-15982388D02*
X16865773Y-15963341D01*
X16865773Y-15963341D02*
X16846725Y-15953817D01*
X16846725Y-15953817D02*
X16818153Y-15953817D01*
X16818153Y-15953817D02*
X16799106Y-15944293D01*
X16799106Y-15944293D02*
X16789582Y-15925246D01*
X16789582Y-15925246D02*
X16789582Y-15915722D01*
X16789582Y-15915722D02*
X16799106Y-15896674D01*
X16799106Y-15896674D02*
X16818153Y-15887150D01*
X16818153Y-15887150D02*
X16846725Y-15887150D01*
X16846725Y-15887150D02*
X16865773Y-15896674D01*
X17113392Y-15944293D02*
X17265773Y-15944293D01*
X17189582Y-16020484D02*
X17189582Y-15868103D01*
X17494344Y-15820484D02*
X17618154Y-15820484D01*
X17618154Y-15820484D02*
X17551487Y-15896674D01*
X17551487Y-15896674D02*
X17580058Y-15896674D01*
X17580058Y-15896674D02*
X17599106Y-15906198D01*
X17599106Y-15906198D02*
X17608630Y-15915722D01*
X17608630Y-15915722D02*
X17618154Y-15934769D01*
X17618154Y-15934769D02*
X17618154Y-15982388D01*
X17618154Y-15982388D02*
X17608630Y-16001436D01*
X17608630Y-16001436D02*
X17599106Y-16010960D01*
X17599106Y-16010960D02*
X17580058Y-16020484D01*
X17580058Y-16020484D02*
X17522915Y-16020484D01*
X17522915Y-16020484D02*
X17503868Y-16010960D01*
X17503868Y-16010960D02*
X17494344Y-16001436D01*
X17846725Y-16010960D02*
X17865773Y-16020484D01*
X17865773Y-16020484D02*
X17903868Y-16020484D01*
X17903868Y-16020484D02*
X17922916Y-16010960D01*
X17922916Y-16010960D02*
X17932439Y-15991912D01*
X17932439Y-15991912D02*
X17932439Y-15982388D01*
X17932439Y-15982388D02*
X17922916Y-15963341D01*
X17922916Y-15963341D02*
X17903868Y-15953817D01*
X17903868Y-15953817D02*
X17875296Y-15953817D01*
X17875296Y-15953817D02*
X17856249Y-15944293D01*
X17856249Y-15944293D02*
X17846725Y-15925246D01*
X17846725Y-15925246D02*
X17846725Y-15915722D01*
X17846725Y-15915722D02*
X17856249Y-15896674D01*
X17856249Y-15896674D02*
X17875296Y-15887150D01*
X17875296Y-15887150D02*
X17903868Y-15887150D01*
X17903868Y-15887150D02*
X17922916Y-15896674D01*
X18046725Y-16020484D02*
X18027677Y-16010960D01*
X18027677Y-16010960D02*
X18018154Y-15991912D01*
X18018154Y-15991912D02*
X18018154Y-15820484D01*
X18151487Y-16020484D02*
X18132439Y-16010960D01*
X18132439Y-16010960D02*
X18122916Y-16001436D01*
X18122916Y-16001436D02*
X18113392Y-15982388D01*
X18113392Y-15982388D02*
X18113392Y-15925246D01*
X18113392Y-15925246D02*
X18122916Y-15906198D01*
X18122916Y-15906198D02*
X18132439Y-15896674D01*
X18132439Y-15896674D02*
X18151487Y-15887150D01*
X18151487Y-15887150D02*
X18180058Y-15887150D01*
X18180058Y-15887150D02*
X18199106Y-15896674D01*
X18199106Y-15896674D02*
X18208630Y-15906198D01*
X18208630Y-15906198D02*
X18218154Y-15925246D01*
X18218154Y-15925246D02*
X18218154Y-15982388D01*
X18218154Y-15982388D02*
X18208630Y-16001436D01*
X18208630Y-16001436D02*
X18199106Y-16010960D01*
X18199106Y-16010960D02*
X18180058Y-16020484D01*
X18180058Y-16020484D02*
X18151487Y-16020484D01*
X18275297Y-15887150D02*
X18351487Y-15887150D01*
X18303868Y-15820484D02*
X18303868Y-15991912D01*
X18303868Y-15991912D02*
X18313392Y-16010960D01*
X18313392Y-16010960D02*
X18332439Y-16020484D01*
X18332439Y-16020484D02*
X18351487Y-16020484D01*
X18408630Y-16010960D02*
X18427677Y-16020484D01*
X18427677Y-16020484D02*
X18465773Y-16020484D01*
X18465773Y-16020484D02*
X18484820Y-16010960D01*
X18484820Y-16010960D02*
X18494344Y-15991912D01*
X18494344Y-15991912D02*
X18494344Y-15982388D01*
X18494344Y-15982388D02*
X18484820Y-15963341D01*
X18484820Y-15963341D02*
X18465773Y-15953817D01*
X18465773Y-15953817D02*
X18437201Y-15953817D01*
X18437201Y-15953817D02*
X18418154Y-15944293D01*
X18418154Y-15944293D02*
X18408630Y-15925246D01*
X18408630Y-15925246D02*
X18408630Y-15915722D01*
X18408630Y-15915722D02*
X18418154Y-15896674D01*
X18418154Y-15896674D02*
X18437201Y-15887150D01*
X18437201Y-15887150D02*
X18465773Y-15887150D01*
X18465773Y-15887150D02*
X18484820Y-15896674D01*
X18561011Y-16096674D02*
X18570535Y-16087150D01*
X18570535Y-16087150D02*
X18589582Y-16058579D01*
X18589582Y-16058579D02*
X18599106Y-16039531D01*
X18599106Y-16039531D02*
X18608630Y-16010960D01*
X18608630Y-16010960D02*
X18618154Y-15963341D01*
X18618154Y-15963341D02*
X18618154Y-15925246D01*
X18618154Y-15925246D02*
X18608630Y-15877627D01*
X18608630Y-15877627D02*
X18599106Y-15849055D01*
X18599106Y-15849055D02*
X18589582Y-15830008D01*
X18589582Y-15830008D02*
X18570535Y-15801436D01*
X18570535Y-15801436D02*
X18561011Y-15791912D01*
D12*
X12046900Y-16133000D02*
X12166900Y-16253000D01*
X12166900Y-16133000D02*
X12046900Y-16253000D01*
X12149327Y-16235427D02*
X12149327Y-16150573D01*
X12064473Y-16150573D01*
X12064473Y-16235427D01*
X12149327Y-16235427D01*
D11*
X12532439Y-16284484D02*
X12418153Y-16284484D01*
X12475296Y-16284484D02*
X12475296Y-16084484D01*
X12475296Y-16084484D02*
X12456248Y-16113055D01*
X12456248Y-16113055D02*
X12437201Y-16132103D01*
X12437201Y-16132103D02*
X12418153Y-16141627D01*
X12618153Y-16265436D02*
X12627677Y-16274960D01*
X12627677Y-16274960D02*
X12618153Y-16284484D01*
X12618153Y-16284484D02*
X12608629Y-16274960D01*
X12608629Y-16274960D02*
X12618153Y-16265436D01*
X12618153Y-16265436D02*
X12618153Y-16284484D01*
X12703867Y-16103531D02*
X12713391Y-16094008D01*
X12713391Y-16094008D02*
X12732439Y-16084484D01*
X12732439Y-16084484D02*
X12780058Y-16084484D01*
X12780058Y-16084484D02*
X12799105Y-16094008D01*
X12799105Y-16094008D02*
X12808629Y-16103531D01*
X12808629Y-16103531D02*
X12818153Y-16122579D01*
X12818153Y-16122579D02*
X12818153Y-16141627D01*
X12818153Y-16141627D02*
X12808629Y-16170198D01*
X12808629Y-16170198D02*
X12694343Y-16284484D01*
X12694343Y-16284484D02*
X12818153Y-16284484D01*
X12941962Y-16084484D02*
X12961010Y-16084484D01*
X12961010Y-16084484D02*
X12980058Y-16094008D01*
X12980058Y-16094008D02*
X12989582Y-16103531D01*
X12989582Y-16103531D02*
X12999105Y-16122579D01*
X12999105Y-16122579D02*
X13008629Y-16160674D01*
X13008629Y-16160674D02*
X13008629Y-16208293D01*
X13008629Y-16208293D02*
X12999105Y-16246388D01*
X12999105Y-16246388D02*
X12989582Y-16265436D01*
X12989582Y-16265436D02*
X12980058Y-16274960D01*
X12980058Y-16274960D02*
X12961010Y-16284484D01*
X12961010Y-16284484D02*
X12941962Y-16284484D01*
X12941962Y-16284484D02*
X12922915Y-16274960D01*
X12922915Y-16274960D02*
X12913391Y-16265436D01*
X12913391Y-16265436D02*
X12903867Y-16246388D01*
X12903867Y-16246388D02*
X12894343Y-16208293D01*
X12894343Y-16208293D02*
X12894343Y-16160674D01*
X12894343Y-16160674D02*
X12903867Y-16122579D01*
X12903867Y-16122579D02*
X12913391Y-16103531D01*
X12913391Y-16103531D02*
X12922915Y-16094008D01*
X12922915Y-16094008D02*
X12941962Y-16084484D01*
X13132439Y-16084484D02*
X13151486Y-16084484D01*
X13151486Y-16084484D02*
X13170534Y-16094008D01*
X13170534Y-16094008D02*
X13180058Y-16103531D01*
X13180058Y-16103531D02*
X13189582Y-16122579D01*
X13189582Y-16122579D02*
X13199105Y-16160674D01*
X13199105Y-16160674D02*
X13199105Y-16208293D01*
X13199105Y-16208293D02*
X13189582Y-16246388D01*
X13189582Y-16246388D02*
X13180058Y-16265436D01*
X13180058Y-16265436D02*
X13170534Y-16274960D01*
X13170534Y-16274960D02*
X13151486Y-16284484D01*
X13151486Y-16284484D02*
X13132439Y-16284484D01*
X13132439Y-16284484D02*
X13113391Y-16274960D01*
X13113391Y-16274960D02*
X13103867Y-16265436D01*
X13103867Y-16265436D02*
X13094343Y-16246388D01*
X13094343Y-16246388D02*
X13084820Y-16208293D01*
X13084820Y-16208293D02*
X13084820Y-16160674D01*
X13084820Y-16160674D02*
X13094343Y-16122579D01*
X13094343Y-16122579D02*
X13103867Y-16103531D01*
X13103867Y-16103531D02*
X13113391Y-16094008D01*
X13113391Y-16094008D02*
X13132439Y-16084484D01*
X13284820Y-16284484D02*
X13284820Y-16151150D01*
X13284820Y-16170198D02*
X13294343Y-16160674D01*
X13294343Y-16160674D02*
X13313391Y-16151150D01*
X13313391Y-16151150D02*
X13341963Y-16151150D01*
X13341963Y-16151150D02*
X13361010Y-16160674D01*
X13361010Y-16160674D02*
X13370534Y-16179722D01*
X13370534Y-16179722D02*
X13370534Y-16284484D01*
X13370534Y-16179722D02*
X13380058Y-16160674D01*
X13380058Y-16160674D02*
X13399105Y-16151150D01*
X13399105Y-16151150D02*
X13427677Y-16151150D01*
X13427677Y-16151150D02*
X13446724Y-16160674D01*
X13446724Y-16160674D02*
X13456248Y-16179722D01*
X13456248Y-16179722D02*
X13456248Y-16284484D01*
X13551486Y-16284484D02*
X13551486Y-16151150D01*
X13551486Y-16170198D02*
X13561010Y-16160674D01*
X13561010Y-16160674D02*
X13580058Y-16151150D01*
X13580058Y-16151150D02*
X13608629Y-16151150D01*
X13608629Y-16151150D02*
X13627677Y-16160674D01*
X13627677Y-16160674D02*
X13637201Y-16179722D01*
X13637201Y-16179722D02*
X13637201Y-16284484D01*
X13637201Y-16179722D02*
X13646724Y-16160674D01*
X13646724Y-16160674D02*
X13665772Y-16151150D01*
X13665772Y-16151150D02*
X13694343Y-16151150D01*
X13694343Y-16151150D02*
X13713391Y-16160674D01*
X13713391Y-16160674D02*
X13722915Y-16179722D01*
X13722915Y-16179722D02*
X13722915Y-16284484D01*
X14113391Y-16074960D02*
X13941963Y-16332103D01*
X14370534Y-16084484D02*
X14389582Y-16084484D01*
X14389582Y-16084484D02*
X14408629Y-16094008D01*
X14408629Y-16094008D02*
X14418153Y-16103531D01*
X14418153Y-16103531D02*
X14427677Y-16122579D01*
X14427677Y-16122579D02*
X14437201Y-16160674D01*
X14437201Y-16160674D02*
X14437201Y-16208293D01*
X14437201Y-16208293D02*
X14427677Y-16246388D01*
X14427677Y-16246388D02*
X14418153Y-16265436D01*
X14418153Y-16265436D02*
X14408629Y-16274960D01*
X14408629Y-16274960D02*
X14389582Y-16284484D01*
X14389582Y-16284484D02*
X14370534Y-16284484D01*
X14370534Y-16284484D02*
X14351486Y-16274960D01*
X14351486Y-16274960D02*
X14341963Y-16265436D01*
X14341963Y-16265436D02*
X14332439Y-16246388D01*
X14332439Y-16246388D02*
X14322915Y-16208293D01*
X14322915Y-16208293D02*
X14322915Y-16160674D01*
X14322915Y-16160674D02*
X14332439Y-16122579D01*
X14332439Y-16122579D02*
X14341963Y-16103531D01*
X14341963Y-16103531D02*
X14351486Y-16094008D01*
X14351486Y-16094008D02*
X14370534Y-16084484D01*
X14522915Y-16265436D02*
X14532439Y-16274960D01*
X14532439Y-16274960D02*
X14522915Y-16284484D01*
X14522915Y-16284484D02*
X14513391Y-16274960D01*
X14513391Y-16274960D02*
X14522915Y-16265436D01*
X14522915Y-16265436D02*
X14522915Y-16284484D01*
X14656248Y-16084484D02*
X14675296Y-16084484D01*
X14675296Y-16084484D02*
X14694344Y-16094008D01*
X14694344Y-16094008D02*
X14703867Y-16103531D01*
X14703867Y-16103531D02*
X14713391Y-16122579D01*
X14713391Y-16122579D02*
X14722915Y-16160674D01*
X14722915Y-16160674D02*
X14722915Y-16208293D01*
X14722915Y-16208293D02*
X14713391Y-16246388D01*
X14713391Y-16246388D02*
X14703867Y-16265436D01*
X14703867Y-16265436D02*
X14694344Y-16274960D01*
X14694344Y-16274960D02*
X14675296Y-16284484D01*
X14675296Y-16284484D02*
X14656248Y-16284484D01*
X14656248Y-16284484D02*
X14637201Y-16274960D01*
X14637201Y-16274960D02*
X14627677Y-16265436D01*
X14627677Y-16265436D02*
X14618153Y-16246388D01*
X14618153Y-16246388D02*
X14608629Y-16208293D01*
X14608629Y-16208293D02*
X14608629Y-16160674D01*
X14608629Y-16160674D02*
X14618153Y-16122579D01*
X14618153Y-16122579D02*
X14627677Y-16103531D01*
X14627677Y-16103531D02*
X14637201Y-16094008D01*
X14637201Y-16094008D02*
X14656248Y-16084484D01*
X14894344Y-16151150D02*
X14894344Y-16284484D01*
X14846725Y-16074960D02*
X14799106Y-16217817D01*
X14799106Y-16217817D02*
X14922915Y-16217817D01*
X14980058Y-16084484D02*
X15113391Y-16084484D01*
X15113391Y-16084484D02*
X15027677Y-16284484D01*
X15180058Y-16103531D02*
X15189582Y-16094008D01*
X15189582Y-16094008D02*
X15208629Y-16084484D01*
X15208629Y-16084484D02*
X15256248Y-16084484D01*
X15256248Y-16084484D02*
X15275296Y-16094008D01*
X15275296Y-16094008D02*
X15284820Y-16103531D01*
X15284820Y-16103531D02*
X15294344Y-16122579D01*
X15294344Y-16122579D02*
X15294344Y-16141627D01*
X15294344Y-16141627D02*
X15284820Y-16170198D01*
X15284820Y-16170198D02*
X15170534Y-16284484D01*
X15170534Y-16284484D02*
X15294344Y-16284484D01*
X15370534Y-16084484D02*
X15370534Y-16122579D01*
X15446725Y-16084484D02*
X15446725Y-16122579D01*
X15741963Y-16360674D02*
X15732439Y-16351150D01*
X15732439Y-16351150D02*
X15713391Y-16322579D01*
X15713391Y-16322579D02*
X15703868Y-16303531D01*
X15703868Y-16303531D02*
X15694344Y-16274960D01*
X15694344Y-16274960D02*
X15684820Y-16227341D01*
X15684820Y-16227341D02*
X15684820Y-16189246D01*
X15684820Y-16189246D02*
X15694344Y-16141627D01*
X15694344Y-16141627D02*
X15703868Y-16113055D01*
X15703868Y-16113055D02*
X15713391Y-16094008D01*
X15713391Y-16094008D02*
X15732439Y-16065436D01*
X15732439Y-16065436D02*
X15741963Y-16055912D01*
X15808629Y-16103531D02*
X15818153Y-16094008D01*
X15818153Y-16094008D02*
X15837201Y-16084484D01*
X15837201Y-16084484D02*
X15884820Y-16084484D01*
X15884820Y-16084484D02*
X15903868Y-16094008D01*
X15903868Y-16094008D02*
X15913391Y-16103531D01*
X15913391Y-16103531D02*
X15922915Y-16122579D01*
X15922915Y-16122579D02*
X15922915Y-16141627D01*
X15922915Y-16141627D02*
X15913391Y-16170198D01*
X15913391Y-16170198D02*
X15799106Y-16284484D01*
X15799106Y-16284484D02*
X15922915Y-16284484D01*
X16161010Y-16284484D02*
X16161010Y-16084484D01*
X16246725Y-16284484D02*
X16246725Y-16179722D01*
X16246725Y-16179722D02*
X16237201Y-16160674D01*
X16237201Y-16160674D02*
X16218153Y-16151150D01*
X16218153Y-16151150D02*
X16189582Y-16151150D01*
X16189582Y-16151150D02*
X16170534Y-16160674D01*
X16170534Y-16160674D02*
X16161010Y-16170198D01*
X16370534Y-16284484D02*
X16351487Y-16274960D01*
X16351487Y-16274960D02*
X16341963Y-16265436D01*
X16341963Y-16265436D02*
X16332439Y-16246388D01*
X16332439Y-16246388D02*
X16332439Y-16189246D01*
X16332439Y-16189246D02*
X16341963Y-16170198D01*
X16341963Y-16170198D02*
X16351487Y-16160674D01*
X16351487Y-16160674D02*
X16370534Y-16151150D01*
X16370534Y-16151150D02*
X16399106Y-16151150D01*
X16399106Y-16151150D02*
X16418153Y-16160674D01*
X16418153Y-16160674D02*
X16427677Y-16170198D01*
X16427677Y-16170198D02*
X16437201Y-16189246D01*
X16437201Y-16189246D02*
X16437201Y-16246388D01*
X16437201Y-16246388D02*
X16427677Y-16265436D01*
X16427677Y-16265436D02*
X16418153Y-16274960D01*
X16418153Y-16274960D02*
X16399106Y-16284484D01*
X16399106Y-16284484D02*
X16370534Y-16284484D01*
X16551487Y-16284484D02*
X16532439Y-16274960D01*
X16532439Y-16274960D02*
X16522915Y-16255912D01*
X16522915Y-16255912D02*
X16522915Y-16084484D01*
X16703868Y-16274960D02*
X16684820Y-16284484D01*
X16684820Y-16284484D02*
X16646725Y-16284484D01*
X16646725Y-16284484D02*
X16627677Y-16274960D01*
X16627677Y-16274960D02*
X16618153Y-16255912D01*
X16618153Y-16255912D02*
X16618153Y-16179722D01*
X16618153Y-16179722D02*
X16627677Y-16160674D01*
X16627677Y-16160674D02*
X16646725Y-16151150D01*
X16646725Y-16151150D02*
X16684820Y-16151150D01*
X16684820Y-16151150D02*
X16703868Y-16160674D01*
X16703868Y-16160674D02*
X16713391Y-16179722D01*
X16713391Y-16179722D02*
X16713391Y-16198769D01*
X16713391Y-16198769D02*
X16618153Y-16217817D01*
X16789582Y-16274960D02*
X16808630Y-16284484D01*
X16808630Y-16284484D02*
X16846725Y-16284484D01*
X16846725Y-16284484D02*
X16865773Y-16274960D01*
X16865773Y-16274960D02*
X16875296Y-16255912D01*
X16875296Y-16255912D02*
X16875296Y-16246388D01*
X16875296Y-16246388D02*
X16865773Y-16227341D01*
X16865773Y-16227341D02*
X16846725Y-16217817D01*
X16846725Y-16217817D02*
X16818153Y-16217817D01*
X16818153Y-16217817D02*
X16799106Y-16208293D01*
X16799106Y-16208293D02*
X16789582Y-16189246D01*
X16789582Y-16189246D02*
X16789582Y-16179722D01*
X16789582Y-16179722D02*
X16799106Y-16160674D01*
X16799106Y-16160674D02*
X16818153Y-16151150D01*
X16818153Y-16151150D02*
X16846725Y-16151150D01*
X16846725Y-16151150D02*
X16865773Y-16160674D01*
X16941963Y-16360674D02*
X16951487Y-16351150D01*
X16951487Y-16351150D02*
X16970534Y-16322579D01*
X16970534Y-16322579D02*
X16980058Y-16303531D01*
X16980058Y-16303531D02*
X16989582Y-16274960D01*
X16989582Y-16274960D02*
X16999106Y-16227341D01*
X16999106Y-16227341D02*
X16999106Y-16189246D01*
X16999106Y-16189246D02*
X16989582Y-16141627D01*
X16989582Y-16141627D02*
X16980058Y-16113055D01*
X16980058Y-16113055D02*
X16970534Y-16094008D01*
X16970534Y-16094008D02*
X16951487Y-16065436D01*
X16951487Y-16065436D02*
X16941963Y-16055912D01*
D13*
X12036900Y-16392000D02*
X12166900Y-16522000D01*
X12166900Y-16392000D02*
X12036900Y-16522000D01*
X12101900Y-16522000D02*
X12166900Y-16457000D01*
X12101900Y-16392000D01*
X12036900Y-16457000D01*
X12101900Y-16522000D01*
D11*
X12532439Y-16548484D02*
X12418153Y-16548484D01*
X12475296Y-16548484D02*
X12475296Y-16348484D01*
X12475296Y-16348484D02*
X12456248Y-16377055D01*
X12456248Y-16377055D02*
X12437201Y-16396103D01*
X12437201Y-16396103D02*
X12418153Y-16405627D01*
X12618153Y-16529436D02*
X12627677Y-16538960D01*
X12627677Y-16538960D02*
X12618153Y-16548484D01*
X12618153Y-16548484D02*
X12608629Y-16538960D01*
X12608629Y-16538960D02*
X12618153Y-16529436D01*
X12618153Y-16529436D02*
X12618153Y-16548484D01*
X12694343Y-16348484D02*
X12818153Y-16348484D01*
X12818153Y-16348484D02*
X12751486Y-16424674D01*
X12751486Y-16424674D02*
X12780058Y-16424674D01*
X12780058Y-16424674D02*
X12799105Y-16434198D01*
X12799105Y-16434198D02*
X12808629Y-16443722D01*
X12808629Y-16443722D02*
X12818153Y-16462769D01*
X12818153Y-16462769D02*
X12818153Y-16510388D01*
X12818153Y-16510388D02*
X12808629Y-16529436D01*
X12808629Y-16529436D02*
X12799105Y-16538960D01*
X12799105Y-16538960D02*
X12780058Y-16548484D01*
X12780058Y-16548484D02*
X12722915Y-16548484D01*
X12722915Y-16548484D02*
X12703867Y-16538960D01*
X12703867Y-16538960D02*
X12694343Y-16529436D01*
X12941962Y-16348484D02*
X12961010Y-16348484D01*
X12961010Y-16348484D02*
X12980058Y-16358008D01*
X12980058Y-16358008D02*
X12989582Y-16367531D01*
X12989582Y-16367531D02*
X12999105Y-16386579D01*
X12999105Y-16386579D02*
X13008629Y-16424674D01*
X13008629Y-16424674D02*
X13008629Y-16472293D01*
X13008629Y-16472293D02*
X12999105Y-16510388D01*
X12999105Y-16510388D02*
X12989582Y-16529436D01*
X12989582Y-16529436D02*
X12980058Y-16538960D01*
X12980058Y-16538960D02*
X12961010Y-16548484D01*
X12961010Y-16548484D02*
X12941962Y-16548484D01*
X12941962Y-16548484D02*
X12922915Y-16538960D01*
X12922915Y-16538960D02*
X12913391Y-16529436D01*
X12913391Y-16529436D02*
X12903867Y-16510388D01*
X12903867Y-16510388D02*
X12894343Y-16472293D01*
X12894343Y-16472293D02*
X12894343Y-16424674D01*
X12894343Y-16424674D02*
X12903867Y-16386579D01*
X12903867Y-16386579D02*
X12913391Y-16367531D01*
X12913391Y-16367531D02*
X12922915Y-16358008D01*
X12922915Y-16358008D02*
X12941962Y-16348484D01*
X13132439Y-16348484D02*
X13151486Y-16348484D01*
X13151486Y-16348484D02*
X13170534Y-16358008D01*
X13170534Y-16358008D02*
X13180058Y-16367531D01*
X13180058Y-16367531D02*
X13189582Y-16386579D01*
X13189582Y-16386579D02*
X13199105Y-16424674D01*
X13199105Y-16424674D02*
X13199105Y-16472293D01*
X13199105Y-16472293D02*
X13189582Y-16510388D01*
X13189582Y-16510388D02*
X13180058Y-16529436D01*
X13180058Y-16529436D02*
X13170534Y-16538960D01*
X13170534Y-16538960D02*
X13151486Y-16548484D01*
X13151486Y-16548484D02*
X13132439Y-16548484D01*
X13132439Y-16548484D02*
X13113391Y-16538960D01*
X13113391Y-16538960D02*
X13103867Y-16529436D01*
X13103867Y-16529436D02*
X13094343Y-16510388D01*
X13094343Y-16510388D02*
X13084820Y-16472293D01*
X13084820Y-16472293D02*
X13084820Y-16424674D01*
X13084820Y-16424674D02*
X13094343Y-16386579D01*
X13094343Y-16386579D02*
X13103867Y-16367531D01*
X13103867Y-16367531D02*
X13113391Y-16358008D01*
X13113391Y-16358008D02*
X13132439Y-16348484D01*
X13284820Y-16548484D02*
X13284820Y-16415150D01*
X13284820Y-16434198D02*
X13294343Y-16424674D01*
X13294343Y-16424674D02*
X13313391Y-16415150D01*
X13313391Y-16415150D02*
X13341963Y-16415150D01*
X13341963Y-16415150D02*
X13361010Y-16424674D01*
X13361010Y-16424674D02*
X13370534Y-16443722D01*
X13370534Y-16443722D02*
X13370534Y-16548484D01*
X13370534Y-16443722D02*
X13380058Y-16424674D01*
X13380058Y-16424674D02*
X13399105Y-16415150D01*
X13399105Y-16415150D02*
X13427677Y-16415150D01*
X13427677Y-16415150D02*
X13446724Y-16424674D01*
X13446724Y-16424674D02*
X13456248Y-16443722D01*
X13456248Y-16443722D02*
X13456248Y-16548484D01*
X13551486Y-16548484D02*
X13551486Y-16415150D01*
X13551486Y-16434198D02*
X13561010Y-16424674D01*
X13561010Y-16424674D02*
X13580058Y-16415150D01*
X13580058Y-16415150D02*
X13608629Y-16415150D01*
X13608629Y-16415150D02*
X13627677Y-16424674D01*
X13627677Y-16424674D02*
X13637201Y-16443722D01*
X13637201Y-16443722D02*
X13637201Y-16548484D01*
X13637201Y-16443722D02*
X13646724Y-16424674D01*
X13646724Y-16424674D02*
X13665772Y-16415150D01*
X13665772Y-16415150D02*
X13694343Y-16415150D01*
X13694343Y-16415150D02*
X13713391Y-16424674D01*
X13713391Y-16424674D02*
X13722915Y-16443722D01*
X13722915Y-16443722D02*
X13722915Y-16548484D01*
X14113391Y-16338960D02*
X13941963Y-16596103D01*
X14370534Y-16348484D02*
X14389582Y-16348484D01*
X14389582Y-16348484D02*
X14408629Y-16358008D01*
X14408629Y-16358008D02*
X14418153Y-16367531D01*
X14418153Y-16367531D02*
X14427677Y-16386579D01*
X14427677Y-16386579D02*
X14437201Y-16424674D01*
X14437201Y-16424674D02*
X14437201Y-16472293D01*
X14437201Y-16472293D02*
X14427677Y-16510388D01*
X14427677Y-16510388D02*
X14418153Y-16529436D01*
X14418153Y-16529436D02*
X14408629Y-16538960D01*
X14408629Y-16538960D02*
X14389582Y-16548484D01*
X14389582Y-16548484D02*
X14370534Y-16548484D01*
X14370534Y-16548484D02*
X14351486Y-16538960D01*
X14351486Y-16538960D02*
X14341963Y-16529436D01*
X14341963Y-16529436D02*
X14332439Y-16510388D01*
X14332439Y-16510388D02*
X14322915Y-16472293D01*
X14322915Y-16472293D02*
X14322915Y-16424674D01*
X14322915Y-16424674D02*
X14332439Y-16386579D01*
X14332439Y-16386579D02*
X14341963Y-16367531D01*
X14341963Y-16367531D02*
X14351486Y-16358008D01*
X14351486Y-16358008D02*
X14370534Y-16348484D01*
X14522915Y-16529436D02*
X14532439Y-16538960D01*
X14532439Y-16538960D02*
X14522915Y-16548484D01*
X14522915Y-16548484D02*
X14513391Y-16538960D01*
X14513391Y-16538960D02*
X14522915Y-16529436D01*
X14522915Y-16529436D02*
X14522915Y-16548484D01*
X14656248Y-16348484D02*
X14675296Y-16348484D01*
X14675296Y-16348484D02*
X14694344Y-16358008D01*
X14694344Y-16358008D02*
X14703867Y-16367531D01*
X14703867Y-16367531D02*
X14713391Y-16386579D01*
X14713391Y-16386579D02*
X14722915Y-16424674D01*
X14722915Y-16424674D02*
X14722915Y-16472293D01*
X14722915Y-16472293D02*
X14713391Y-16510388D01*
X14713391Y-16510388D02*
X14703867Y-16529436D01*
X14703867Y-16529436D02*
X14694344Y-16538960D01*
X14694344Y-16538960D02*
X14675296Y-16548484D01*
X14675296Y-16548484D02*
X14656248Y-16548484D01*
X14656248Y-16548484D02*
X14637201Y-16538960D01*
X14637201Y-16538960D02*
X14627677Y-16529436D01*
X14627677Y-16529436D02*
X14618153Y-16510388D01*
X14618153Y-16510388D02*
X14608629Y-16472293D01*
X14608629Y-16472293D02*
X14608629Y-16424674D01*
X14608629Y-16424674D02*
X14618153Y-16386579D01*
X14618153Y-16386579D02*
X14627677Y-16367531D01*
X14627677Y-16367531D02*
X14637201Y-16358008D01*
X14637201Y-16358008D02*
X14656248Y-16348484D01*
X14903867Y-16348484D02*
X14808629Y-16348484D01*
X14808629Y-16348484D02*
X14799106Y-16443722D01*
X14799106Y-16443722D02*
X14808629Y-16434198D01*
X14808629Y-16434198D02*
X14827677Y-16424674D01*
X14827677Y-16424674D02*
X14875296Y-16424674D01*
X14875296Y-16424674D02*
X14894344Y-16434198D01*
X14894344Y-16434198D02*
X14903867Y-16443722D01*
X14903867Y-16443722D02*
X14913391Y-16462769D01*
X14913391Y-16462769D02*
X14913391Y-16510388D01*
X14913391Y-16510388D02*
X14903867Y-16529436D01*
X14903867Y-16529436D02*
X14894344Y-16538960D01*
X14894344Y-16538960D02*
X14875296Y-16548484D01*
X14875296Y-16548484D02*
X14827677Y-16548484D01*
X14827677Y-16548484D02*
X14808629Y-16538960D01*
X14808629Y-16538960D02*
X14799106Y-16529436D01*
X15103867Y-16548484D02*
X14989582Y-16548484D01*
X15046725Y-16548484D02*
X15046725Y-16348484D01*
X15046725Y-16348484D02*
X15027677Y-16377055D01*
X15027677Y-16377055D02*
X15008629Y-16396103D01*
X15008629Y-16396103D02*
X14989582Y-16405627D01*
X15180058Y-16367531D02*
X15189582Y-16358008D01*
X15189582Y-16358008D02*
X15208629Y-16348484D01*
X15208629Y-16348484D02*
X15256248Y-16348484D01*
X15256248Y-16348484D02*
X15275296Y-16358008D01*
X15275296Y-16358008D02*
X15284820Y-16367531D01*
X15284820Y-16367531D02*
X15294344Y-16386579D01*
X15294344Y-16386579D02*
X15294344Y-16405627D01*
X15294344Y-16405627D02*
X15284820Y-16434198D01*
X15284820Y-16434198D02*
X15170534Y-16548484D01*
X15170534Y-16548484D02*
X15294344Y-16548484D01*
X15370534Y-16348484D02*
X15370534Y-16386579D01*
X15446725Y-16348484D02*
X15446725Y-16386579D01*
X15741963Y-16624674D02*
X15732439Y-16615150D01*
X15732439Y-16615150D02*
X15713391Y-16586579D01*
X15713391Y-16586579D02*
X15703868Y-16567531D01*
X15703868Y-16567531D02*
X15694344Y-16538960D01*
X15694344Y-16538960D02*
X15684820Y-16491341D01*
X15684820Y-16491341D02*
X15684820Y-16453246D01*
X15684820Y-16453246D02*
X15694344Y-16405627D01*
X15694344Y-16405627D02*
X15703868Y-16377055D01*
X15703868Y-16377055D02*
X15713391Y-16358008D01*
X15713391Y-16358008D02*
X15732439Y-16329436D01*
X15732439Y-16329436D02*
X15741963Y-16319912D01*
X15808629Y-16367531D02*
X15818153Y-16358008D01*
X15818153Y-16358008D02*
X15837201Y-16348484D01*
X15837201Y-16348484D02*
X15884820Y-16348484D01*
X15884820Y-16348484D02*
X15903868Y-16358008D01*
X15903868Y-16358008D02*
X15913391Y-16367531D01*
X15913391Y-16367531D02*
X15922915Y-16386579D01*
X15922915Y-16386579D02*
X15922915Y-16405627D01*
X15922915Y-16405627D02*
X15913391Y-16434198D01*
X15913391Y-16434198D02*
X15799106Y-16548484D01*
X15799106Y-16548484D02*
X15922915Y-16548484D01*
X16161010Y-16548484D02*
X16161010Y-16348484D01*
X16246725Y-16548484D02*
X16246725Y-16443722D01*
X16246725Y-16443722D02*
X16237201Y-16424674D01*
X16237201Y-16424674D02*
X16218153Y-16415150D01*
X16218153Y-16415150D02*
X16189582Y-16415150D01*
X16189582Y-16415150D02*
X16170534Y-16424674D01*
X16170534Y-16424674D02*
X16161010Y-16434198D01*
X16370534Y-16548484D02*
X16351487Y-16538960D01*
X16351487Y-16538960D02*
X16341963Y-16529436D01*
X16341963Y-16529436D02*
X16332439Y-16510388D01*
X16332439Y-16510388D02*
X16332439Y-16453246D01*
X16332439Y-16453246D02*
X16341963Y-16434198D01*
X16341963Y-16434198D02*
X16351487Y-16424674D01*
X16351487Y-16424674D02*
X16370534Y-16415150D01*
X16370534Y-16415150D02*
X16399106Y-16415150D01*
X16399106Y-16415150D02*
X16418153Y-16424674D01*
X16418153Y-16424674D02*
X16427677Y-16434198D01*
X16427677Y-16434198D02*
X16437201Y-16453246D01*
X16437201Y-16453246D02*
X16437201Y-16510388D01*
X16437201Y-16510388D02*
X16427677Y-16529436D01*
X16427677Y-16529436D02*
X16418153Y-16538960D01*
X16418153Y-16538960D02*
X16399106Y-16548484D01*
X16399106Y-16548484D02*
X16370534Y-16548484D01*
X16551487Y-16548484D02*
X16532439Y-16538960D01*
X16532439Y-16538960D02*
X16522915Y-16519912D01*
X16522915Y-16519912D02*
X16522915Y-16348484D01*
X16703868Y-16538960D02*
X16684820Y-16548484D01*
X16684820Y-16548484D02*
X16646725Y-16548484D01*
X16646725Y-16548484D02*
X16627677Y-16538960D01*
X16627677Y-16538960D02*
X16618153Y-16519912D01*
X16618153Y-16519912D02*
X16618153Y-16443722D01*
X16618153Y-16443722D02*
X16627677Y-16424674D01*
X16627677Y-16424674D02*
X16646725Y-16415150D01*
X16646725Y-16415150D02*
X16684820Y-16415150D01*
X16684820Y-16415150D02*
X16703868Y-16424674D01*
X16703868Y-16424674D02*
X16713391Y-16443722D01*
X16713391Y-16443722D02*
X16713391Y-16462769D01*
X16713391Y-16462769D02*
X16618153Y-16481817D01*
X16789582Y-16538960D02*
X16808630Y-16548484D01*
X16808630Y-16548484D02*
X16846725Y-16548484D01*
X16846725Y-16548484D02*
X16865773Y-16538960D01*
X16865773Y-16538960D02*
X16875296Y-16519912D01*
X16875296Y-16519912D02*
X16875296Y-16510388D01*
X16875296Y-16510388D02*
X16865773Y-16491341D01*
X16865773Y-16491341D02*
X16846725Y-16481817D01*
X16846725Y-16481817D02*
X16818153Y-16481817D01*
X16818153Y-16481817D02*
X16799106Y-16472293D01*
X16799106Y-16472293D02*
X16789582Y-16453246D01*
X16789582Y-16453246D02*
X16789582Y-16443722D01*
X16789582Y-16443722D02*
X16799106Y-16424674D01*
X16799106Y-16424674D02*
X16818153Y-16415150D01*
X16818153Y-16415150D02*
X16846725Y-16415150D01*
X16846725Y-16415150D02*
X16865773Y-16424674D01*
X16941963Y-16624674D02*
X16951487Y-16615150D01*
X16951487Y-16615150D02*
X16970534Y-16586579D01*
X16970534Y-16586579D02*
X16980058Y-16567531D01*
X16980058Y-16567531D02*
X16989582Y-16538960D01*
X16989582Y-16538960D02*
X16999106Y-16491341D01*
X16999106Y-16491341D02*
X16999106Y-16453246D01*
X16999106Y-16453246D02*
X16989582Y-16405627D01*
X16989582Y-16405627D02*
X16980058Y-16377055D01*
X16980058Y-16377055D02*
X16970534Y-16358008D01*
X16970534Y-16358008D02*
X16951487Y-16329436D01*
X16951487Y-16329436D02*
X16941963Y-16319912D01*
D14*
X12096900Y-16651000D02*
X12096900Y-16791000D01*
X12026900Y-16721000D02*
X12166900Y-16721000D01*
X12166900Y-16721000D02*
G75*
G02*
X12026900Y-16721000I-70000J0D01*
G01*
X12026900Y-16721000D02*
G75*
G02*
X12166900Y-16721000I70000J0D01*
G01*
D11*
X12532439Y-16812484D02*
X12418153Y-16812484D01*
X12475296Y-16812484D02*
X12475296Y-16612484D01*
X12475296Y-16612484D02*
X12456248Y-16641055D01*
X12456248Y-16641055D02*
X12437201Y-16660103D01*
X12437201Y-16660103D02*
X12418153Y-16669627D01*
X12618153Y-16793436D02*
X12627677Y-16802960D01*
X12627677Y-16802960D02*
X12618153Y-16812484D01*
X12618153Y-16812484D02*
X12608629Y-16802960D01*
X12608629Y-16802960D02*
X12618153Y-16793436D01*
X12618153Y-16793436D02*
X12618153Y-16812484D01*
X12799105Y-16679150D02*
X12799105Y-16812484D01*
X12751486Y-16602960D02*
X12703867Y-16745817D01*
X12703867Y-16745817D02*
X12827677Y-16745817D01*
X12941962Y-16612484D02*
X12961010Y-16612484D01*
X12961010Y-16612484D02*
X12980058Y-16622008D01*
X12980058Y-16622008D02*
X12989582Y-16631531D01*
X12989582Y-16631531D02*
X12999105Y-16650579D01*
X12999105Y-16650579D02*
X13008629Y-16688674D01*
X13008629Y-16688674D02*
X13008629Y-16736293D01*
X13008629Y-16736293D02*
X12999105Y-16774388D01*
X12999105Y-16774388D02*
X12989582Y-16793436D01*
X12989582Y-16793436D02*
X12980058Y-16802960D01*
X12980058Y-16802960D02*
X12961010Y-16812484D01*
X12961010Y-16812484D02*
X12941962Y-16812484D01*
X12941962Y-16812484D02*
X12922915Y-16802960D01*
X12922915Y-16802960D02*
X12913391Y-16793436D01*
X12913391Y-16793436D02*
X12903867Y-16774388D01*
X12903867Y-16774388D02*
X12894343Y-16736293D01*
X12894343Y-16736293D02*
X12894343Y-16688674D01*
X12894343Y-16688674D02*
X12903867Y-16650579D01*
X12903867Y-16650579D02*
X12913391Y-16631531D01*
X12913391Y-16631531D02*
X12922915Y-16622008D01*
X12922915Y-16622008D02*
X12941962Y-16612484D01*
X13132439Y-16612484D02*
X13151486Y-16612484D01*
X13151486Y-16612484D02*
X13170534Y-16622008D01*
X13170534Y-16622008D02*
X13180058Y-16631531D01*
X13180058Y-16631531D02*
X13189582Y-16650579D01*
X13189582Y-16650579D02*
X13199105Y-16688674D01*
X13199105Y-16688674D02*
X13199105Y-16736293D01*
X13199105Y-16736293D02*
X13189582Y-16774388D01*
X13189582Y-16774388D02*
X13180058Y-16793436D01*
X13180058Y-16793436D02*
X13170534Y-16802960D01*
X13170534Y-16802960D02*
X13151486Y-16812484D01*
X13151486Y-16812484D02*
X13132439Y-16812484D01*
X13132439Y-16812484D02*
X13113391Y-16802960D01*
X13113391Y-16802960D02*
X13103867Y-16793436D01*
X13103867Y-16793436D02*
X13094343Y-16774388D01*
X13094343Y-16774388D02*
X13084820Y-16736293D01*
X13084820Y-16736293D02*
X13084820Y-16688674D01*
X13084820Y-16688674D02*
X13094343Y-16650579D01*
X13094343Y-16650579D02*
X13103867Y-16631531D01*
X13103867Y-16631531D02*
X13113391Y-16622008D01*
X13113391Y-16622008D02*
X13132439Y-16612484D01*
X13284820Y-16812484D02*
X13284820Y-16679150D01*
X13284820Y-16698198D02*
X13294343Y-16688674D01*
X13294343Y-16688674D02*
X13313391Y-16679150D01*
X13313391Y-16679150D02*
X13341963Y-16679150D01*
X13341963Y-16679150D02*
X13361010Y-16688674D01*
X13361010Y-16688674D02*
X13370534Y-16707722D01*
X13370534Y-16707722D02*
X13370534Y-16812484D01*
X13370534Y-16707722D02*
X13380058Y-16688674D01*
X13380058Y-16688674D02*
X13399105Y-16679150D01*
X13399105Y-16679150D02*
X13427677Y-16679150D01*
X13427677Y-16679150D02*
X13446724Y-16688674D01*
X13446724Y-16688674D02*
X13456248Y-16707722D01*
X13456248Y-16707722D02*
X13456248Y-16812484D01*
X13551486Y-16812484D02*
X13551486Y-16679150D01*
X13551486Y-16698198D02*
X13561010Y-16688674D01*
X13561010Y-16688674D02*
X13580058Y-16679150D01*
X13580058Y-16679150D02*
X13608629Y-16679150D01*
X13608629Y-16679150D02*
X13627677Y-16688674D01*
X13627677Y-16688674D02*
X13637201Y-16707722D01*
X13637201Y-16707722D02*
X13637201Y-16812484D01*
X13637201Y-16707722D02*
X13646724Y-16688674D01*
X13646724Y-16688674D02*
X13665772Y-16679150D01*
X13665772Y-16679150D02*
X13694343Y-16679150D01*
X13694343Y-16679150D02*
X13713391Y-16688674D01*
X13713391Y-16688674D02*
X13722915Y-16707722D01*
X13722915Y-16707722D02*
X13722915Y-16812484D01*
X14113391Y-16602960D02*
X13941963Y-16860103D01*
X14370534Y-16612484D02*
X14389582Y-16612484D01*
X14389582Y-16612484D02*
X14408629Y-16622008D01*
X14408629Y-16622008D02*
X14418153Y-16631531D01*
X14418153Y-16631531D02*
X14427677Y-16650579D01*
X14427677Y-16650579D02*
X14437201Y-16688674D01*
X14437201Y-16688674D02*
X14437201Y-16736293D01*
X14437201Y-16736293D02*
X14427677Y-16774388D01*
X14427677Y-16774388D02*
X14418153Y-16793436D01*
X14418153Y-16793436D02*
X14408629Y-16802960D01*
X14408629Y-16802960D02*
X14389582Y-16812484D01*
X14389582Y-16812484D02*
X14370534Y-16812484D01*
X14370534Y-16812484D02*
X14351486Y-16802960D01*
X14351486Y-16802960D02*
X14341963Y-16793436D01*
X14341963Y-16793436D02*
X14332439Y-16774388D01*
X14332439Y-16774388D02*
X14322915Y-16736293D01*
X14322915Y-16736293D02*
X14322915Y-16688674D01*
X14322915Y-16688674D02*
X14332439Y-16650579D01*
X14332439Y-16650579D02*
X14341963Y-16631531D01*
X14341963Y-16631531D02*
X14351486Y-16622008D01*
X14351486Y-16622008D02*
X14370534Y-16612484D01*
X14522915Y-16793436D02*
X14532439Y-16802960D01*
X14532439Y-16802960D02*
X14522915Y-16812484D01*
X14522915Y-16812484D02*
X14513391Y-16802960D01*
X14513391Y-16802960D02*
X14522915Y-16793436D01*
X14522915Y-16793436D02*
X14522915Y-16812484D01*
X14656248Y-16612484D02*
X14675296Y-16612484D01*
X14675296Y-16612484D02*
X14694344Y-16622008D01*
X14694344Y-16622008D02*
X14703867Y-16631531D01*
X14703867Y-16631531D02*
X14713391Y-16650579D01*
X14713391Y-16650579D02*
X14722915Y-16688674D01*
X14722915Y-16688674D02*
X14722915Y-16736293D01*
X14722915Y-16736293D02*
X14713391Y-16774388D01*
X14713391Y-16774388D02*
X14703867Y-16793436D01*
X14703867Y-16793436D02*
X14694344Y-16802960D01*
X14694344Y-16802960D02*
X14675296Y-16812484D01*
X14675296Y-16812484D02*
X14656248Y-16812484D01*
X14656248Y-16812484D02*
X14637201Y-16802960D01*
X14637201Y-16802960D02*
X14627677Y-16793436D01*
X14627677Y-16793436D02*
X14618153Y-16774388D01*
X14618153Y-16774388D02*
X14608629Y-16736293D01*
X14608629Y-16736293D02*
X14608629Y-16688674D01*
X14608629Y-16688674D02*
X14618153Y-16650579D01*
X14618153Y-16650579D02*
X14627677Y-16631531D01*
X14627677Y-16631531D02*
X14637201Y-16622008D01*
X14637201Y-16622008D02*
X14656248Y-16612484D01*
X14903867Y-16612484D02*
X14808629Y-16612484D01*
X14808629Y-16612484D02*
X14799106Y-16707722D01*
X14799106Y-16707722D02*
X14808629Y-16698198D01*
X14808629Y-16698198D02*
X14827677Y-16688674D01*
X14827677Y-16688674D02*
X14875296Y-16688674D01*
X14875296Y-16688674D02*
X14894344Y-16698198D01*
X14894344Y-16698198D02*
X14903867Y-16707722D01*
X14903867Y-16707722D02*
X14913391Y-16726769D01*
X14913391Y-16726769D02*
X14913391Y-16774388D01*
X14913391Y-16774388D02*
X14903867Y-16793436D01*
X14903867Y-16793436D02*
X14894344Y-16802960D01*
X14894344Y-16802960D02*
X14875296Y-16812484D01*
X14875296Y-16812484D02*
X14827677Y-16812484D01*
X14827677Y-16812484D02*
X14808629Y-16802960D01*
X14808629Y-16802960D02*
X14799106Y-16793436D01*
X15094344Y-16612484D02*
X14999106Y-16612484D01*
X14999106Y-16612484D02*
X14989582Y-16707722D01*
X14989582Y-16707722D02*
X14999106Y-16698198D01*
X14999106Y-16698198D02*
X15018153Y-16688674D01*
X15018153Y-16688674D02*
X15065772Y-16688674D01*
X15065772Y-16688674D02*
X15084820Y-16698198D01*
X15084820Y-16698198D02*
X15094344Y-16707722D01*
X15094344Y-16707722D02*
X15103867Y-16726769D01*
X15103867Y-16726769D02*
X15103867Y-16774388D01*
X15103867Y-16774388D02*
X15094344Y-16793436D01*
X15094344Y-16793436D02*
X15084820Y-16802960D01*
X15084820Y-16802960D02*
X15065772Y-16812484D01*
X15065772Y-16812484D02*
X15018153Y-16812484D01*
X15018153Y-16812484D02*
X14999106Y-16802960D01*
X14999106Y-16802960D02*
X14989582Y-16793436D01*
X15294344Y-16812484D02*
X15180058Y-16812484D01*
X15237201Y-16812484D02*
X15237201Y-16612484D01*
X15237201Y-16612484D02*
X15218153Y-16641055D01*
X15218153Y-16641055D02*
X15199106Y-16660103D01*
X15199106Y-16660103D02*
X15180058Y-16669627D01*
X15370534Y-16612484D02*
X15370534Y-16650579D01*
X15446725Y-16612484D02*
X15446725Y-16650579D01*
X15741963Y-16888674D02*
X15732439Y-16879150D01*
X15732439Y-16879150D02*
X15713391Y-16850579D01*
X15713391Y-16850579D02*
X15703868Y-16831531D01*
X15703868Y-16831531D02*
X15694344Y-16802960D01*
X15694344Y-16802960D02*
X15684820Y-16755341D01*
X15684820Y-16755341D02*
X15684820Y-16717246D01*
X15684820Y-16717246D02*
X15694344Y-16669627D01*
X15694344Y-16669627D02*
X15703868Y-16641055D01*
X15703868Y-16641055D02*
X15713391Y-16622008D01*
X15713391Y-16622008D02*
X15732439Y-16593436D01*
X15732439Y-16593436D02*
X15741963Y-16583912D01*
X15808629Y-16631531D02*
X15818153Y-16622008D01*
X15818153Y-16622008D02*
X15837201Y-16612484D01*
X15837201Y-16612484D02*
X15884820Y-16612484D01*
X15884820Y-16612484D02*
X15903868Y-16622008D01*
X15903868Y-16622008D02*
X15913391Y-16631531D01*
X15913391Y-16631531D02*
X15922915Y-16650579D01*
X15922915Y-16650579D02*
X15922915Y-16669627D01*
X15922915Y-16669627D02*
X15913391Y-16698198D01*
X15913391Y-16698198D02*
X15799106Y-16812484D01*
X15799106Y-16812484D02*
X15922915Y-16812484D01*
X16161010Y-16812484D02*
X16161010Y-16612484D01*
X16246725Y-16812484D02*
X16246725Y-16707722D01*
X16246725Y-16707722D02*
X16237201Y-16688674D01*
X16237201Y-16688674D02*
X16218153Y-16679150D01*
X16218153Y-16679150D02*
X16189582Y-16679150D01*
X16189582Y-16679150D02*
X16170534Y-16688674D01*
X16170534Y-16688674D02*
X16161010Y-16698198D01*
X16370534Y-16812484D02*
X16351487Y-16802960D01*
X16351487Y-16802960D02*
X16341963Y-16793436D01*
X16341963Y-16793436D02*
X16332439Y-16774388D01*
X16332439Y-16774388D02*
X16332439Y-16717246D01*
X16332439Y-16717246D02*
X16341963Y-16698198D01*
X16341963Y-16698198D02*
X16351487Y-16688674D01*
X16351487Y-16688674D02*
X16370534Y-16679150D01*
X16370534Y-16679150D02*
X16399106Y-16679150D01*
X16399106Y-16679150D02*
X16418153Y-16688674D01*
X16418153Y-16688674D02*
X16427677Y-16698198D01*
X16427677Y-16698198D02*
X16437201Y-16717246D01*
X16437201Y-16717246D02*
X16437201Y-16774388D01*
X16437201Y-16774388D02*
X16427677Y-16793436D01*
X16427677Y-16793436D02*
X16418153Y-16802960D01*
X16418153Y-16802960D02*
X16399106Y-16812484D01*
X16399106Y-16812484D02*
X16370534Y-16812484D01*
X16551487Y-16812484D02*
X16532439Y-16802960D01*
X16532439Y-16802960D02*
X16522915Y-16783912D01*
X16522915Y-16783912D02*
X16522915Y-16612484D01*
X16703868Y-16802960D02*
X16684820Y-16812484D01*
X16684820Y-16812484D02*
X16646725Y-16812484D01*
X16646725Y-16812484D02*
X16627677Y-16802960D01*
X16627677Y-16802960D02*
X16618153Y-16783912D01*
X16618153Y-16783912D02*
X16618153Y-16707722D01*
X16618153Y-16707722D02*
X16627677Y-16688674D01*
X16627677Y-16688674D02*
X16646725Y-16679150D01*
X16646725Y-16679150D02*
X16684820Y-16679150D01*
X16684820Y-16679150D02*
X16703868Y-16688674D01*
X16703868Y-16688674D02*
X16713391Y-16707722D01*
X16713391Y-16707722D02*
X16713391Y-16726769D01*
X16713391Y-16726769D02*
X16618153Y-16745817D01*
X16789582Y-16802960D02*
X16808630Y-16812484D01*
X16808630Y-16812484D02*
X16846725Y-16812484D01*
X16846725Y-16812484D02*
X16865773Y-16802960D01*
X16865773Y-16802960D02*
X16875296Y-16783912D01*
X16875296Y-16783912D02*
X16875296Y-16774388D01*
X16875296Y-16774388D02*
X16865773Y-16755341D01*
X16865773Y-16755341D02*
X16846725Y-16745817D01*
X16846725Y-16745817D02*
X16818153Y-16745817D01*
X16818153Y-16745817D02*
X16799106Y-16736293D01*
X16799106Y-16736293D02*
X16789582Y-16717246D01*
X16789582Y-16717246D02*
X16789582Y-16707722D01*
X16789582Y-16707722D02*
X16799106Y-16688674D01*
X16799106Y-16688674D02*
X16818153Y-16679150D01*
X16818153Y-16679150D02*
X16846725Y-16679150D01*
X16846725Y-16679150D02*
X16865773Y-16688674D01*
X16941963Y-16888674D02*
X16951487Y-16879150D01*
X16951487Y-16879150D02*
X16970534Y-16850579D01*
X16970534Y-16850579D02*
X16980058Y-16831531D01*
X16980058Y-16831531D02*
X16989582Y-16802960D01*
X16989582Y-16802960D02*
X16999106Y-16755341D01*
X16999106Y-16755341D02*
X16999106Y-16717246D01*
X16999106Y-16717246D02*
X16989582Y-16669627D01*
X16989582Y-16669627D02*
X16980058Y-16641055D01*
X16980058Y-16641055D02*
X16970534Y-16622008D01*
X16970534Y-16622008D02*
X16951487Y-16593436D01*
X16951487Y-16593436D02*
X16941963Y-16583912D01*
X12137611Y-17055711D02*
X12137611Y-16914289D01*
X11996189Y-16914289D01*
X11996189Y-17055711D01*
X12137611Y-17055711D01*
X12166900Y-16985000D02*
G75*
G02*
X11966900Y-16985000I-100000J0D01*
G01*
X11966900Y-16985000D02*
G75*
G02*
X12166900Y-16985000I100000J0D01*
G01*
X12418153Y-16895531D02*
X12427677Y-16886008D01*
X12427677Y-16886008D02*
X12446724Y-16876484D01*
X12446724Y-16876484D02*
X12494343Y-16876484D01*
X12494343Y-16876484D02*
X12513391Y-16886008D01*
X12513391Y-16886008D02*
X12522915Y-16895531D01*
X12522915Y-16895531D02*
X12532439Y-16914579D01*
X12532439Y-16914579D02*
X12532439Y-16933627D01*
X12532439Y-16933627D02*
X12522915Y-16962198D01*
X12522915Y-16962198D02*
X12408629Y-17076484D01*
X12408629Y-17076484D02*
X12532439Y-17076484D01*
X12618153Y-17057436D02*
X12627677Y-17066960D01*
X12627677Y-17066960D02*
X12618153Y-17076484D01*
X12618153Y-17076484D02*
X12608629Y-17066960D01*
X12608629Y-17066960D02*
X12618153Y-17057436D01*
X12618153Y-17057436D02*
X12618153Y-17076484D01*
X12808629Y-16876484D02*
X12713391Y-16876484D01*
X12713391Y-16876484D02*
X12703867Y-16971722D01*
X12703867Y-16971722D02*
X12713391Y-16962198D01*
X12713391Y-16962198D02*
X12732439Y-16952674D01*
X12732439Y-16952674D02*
X12780058Y-16952674D01*
X12780058Y-16952674D02*
X12799105Y-16962198D01*
X12799105Y-16962198D02*
X12808629Y-16971722D01*
X12808629Y-16971722D02*
X12818153Y-16990770D01*
X12818153Y-16990770D02*
X12818153Y-17038389D01*
X12818153Y-17038389D02*
X12808629Y-17057436D01*
X12808629Y-17057436D02*
X12799105Y-17066960D01*
X12799105Y-17066960D02*
X12780058Y-17076484D01*
X12780058Y-17076484D02*
X12732439Y-17076484D01*
X12732439Y-17076484D02*
X12713391Y-17066960D01*
X12713391Y-17066960D02*
X12703867Y-17057436D01*
X12941962Y-16876484D02*
X12961010Y-16876484D01*
X12961010Y-16876484D02*
X12980058Y-16886008D01*
X12980058Y-16886008D02*
X12989582Y-16895531D01*
X12989582Y-16895531D02*
X12999105Y-16914579D01*
X12999105Y-16914579D02*
X13008629Y-16952674D01*
X13008629Y-16952674D02*
X13008629Y-17000293D01*
X13008629Y-17000293D02*
X12999105Y-17038389D01*
X12999105Y-17038389D02*
X12989582Y-17057436D01*
X12989582Y-17057436D02*
X12980058Y-17066960D01*
X12980058Y-17066960D02*
X12961010Y-17076484D01*
X12961010Y-17076484D02*
X12941962Y-17076484D01*
X12941962Y-17076484D02*
X12922915Y-17066960D01*
X12922915Y-17066960D02*
X12913391Y-17057436D01*
X12913391Y-17057436D02*
X12903867Y-17038389D01*
X12903867Y-17038389D02*
X12894343Y-17000293D01*
X12894343Y-17000293D02*
X12894343Y-16952674D01*
X12894343Y-16952674D02*
X12903867Y-16914579D01*
X12903867Y-16914579D02*
X12913391Y-16895531D01*
X12913391Y-16895531D02*
X12922915Y-16886008D01*
X12922915Y-16886008D02*
X12941962Y-16876484D01*
X13132439Y-16876484D02*
X13151486Y-16876484D01*
X13151486Y-16876484D02*
X13170534Y-16886008D01*
X13170534Y-16886008D02*
X13180058Y-16895531D01*
X13180058Y-16895531D02*
X13189582Y-16914579D01*
X13189582Y-16914579D02*
X13199105Y-16952674D01*
X13199105Y-16952674D02*
X13199105Y-17000293D01*
X13199105Y-17000293D02*
X13189582Y-17038389D01*
X13189582Y-17038389D02*
X13180058Y-17057436D01*
X13180058Y-17057436D02*
X13170534Y-17066960D01*
X13170534Y-17066960D02*
X13151486Y-17076484D01*
X13151486Y-17076484D02*
X13132439Y-17076484D01*
X13132439Y-17076484D02*
X13113391Y-17066960D01*
X13113391Y-17066960D02*
X13103867Y-17057436D01*
X13103867Y-17057436D02*
X13094343Y-17038389D01*
X13094343Y-17038389D02*
X13084820Y-17000293D01*
X13084820Y-17000293D02*
X13084820Y-16952674D01*
X13084820Y-16952674D02*
X13094343Y-16914579D01*
X13094343Y-16914579D02*
X13103867Y-16895531D01*
X13103867Y-16895531D02*
X13113391Y-16886008D01*
X13113391Y-16886008D02*
X13132439Y-16876484D01*
X13284820Y-17076484D02*
X13284820Y-16943150D01*
X13284820Y-16962198D02*
X13294343Y-16952674D01*
X13294343Y-16952674D02*
X13313391Y-16943150D01*
X13313391Y-16943150D02*
X13341963Y-16943150D01*
X13341963Y-16943150D02*
X13361010Y-16952674D01*
X13361010Y-16952674D02*
X13370534Y-16971722D01*
X13370534Y-16971722D02*
X13370534Y-17076484D01*
X13370534Y-16971722D02*
X13380058Y-16952674D01*
X13380058Y-16952674D02*
X13399105Y-16943150D01*
X13399105Y-16943150D02*
X13427677Y-16943150D01*
X13427677Y-16943150D02*
X13446724Y-16952674D01*
X13446724Y-16952674D02*
X13456248Y-16971722D01*
X13456248Y-16971722D02*
X13456248Y-17076484D01*
X13551486Y-17076484D02*
X13551486Y-16943150D01*
X13551486Y-16962198D02*
X13561010Y-16952674D01*
X13561010Y-16952674D02*
X13580058Y-16943150D01*
X13580058Y-16943150D02*
X13608629Y-16943150D01*
X13608629Y-16943150D02*
X13627677Y-16952674D01*
X13627677Y-16952674D02*
X13637201Y-16971722D01*
X13637201Y-16971722D02*
X13637201Y-17076484D01*
X13637201Y-16971722D02*
X13646724Y-16952674D01*
X13646724Y-16952674D02*
X13665772Y-16943150D01*
X13665772Y-16943150D02*
X13694343Y-16943150D01*
X13694343Y-16943150D02*
X13713391Y-16952674D01*
X13713391Y-16952674D02*
X13722915Y-16971722D01*
X13722915Y-16971722D02*
X13722915Y-17076484D01*
X14113391Y-16866960D02*
X13941963Y-17124103D01*
X14370534Y-16876484D02*
X14389582Y-16876484D01*
X14389582Y-16876484D02*
X14408629Y-16886008D01*
X14408629Y-16886008D02*
X14418153Y-16895531D01*
X14418153Y-16895531D02*
X14427677Y-16914579D01*
X14427677Y-16914579D02*
X14437201Y-16952674D01*
X14437201Y-16952674D02*
X14437201Y-17000293D01*
X14437201Y-17000293D02*
X14427677Y-17038389D01*
X14427677Y-17038389D02*
X14418153Y-17057436D01*
X14418153Y-17057436D02*
X14408629Y-17066960D01*
X14408629Y-17066960D02*
X14389582Y-17076484D01*
X14389582Y-17076484D02*
X14370534Y-17076484D01*
X14370534Y-17076484D02*
X14351486Y-17066960D01*
X14351486Y-17066960D02*
X14341963Y-17057436D01*
X14341963Y-17057436D02*
X14332439Y-17038389D01*
X14332439Y-17038389D02*
X14322915Y-17000293D01*
X14322915Y-17000293D02*
X14322915Y-16952674D01*
X14322915Y-16952674D02*
X14332439Y-16914579D01*
X14332439Y-16914579D02*
X14341963Y-16895531D01*
X14341963Y-16895531D02*
X14351486Y-16886008D01*
X14351486Y-16886008D02*
X14370534Y-16876484D01*
X14522915Y-17057436D02*
X14532439Y-17066960D01*
X14532439Y-17066960D02*
X14522915Y-17076484D01*
X14522915Y-17076484D02*
X14513391Y-17066960D01*
X14513391Y-17066960D02*
X14522915Y-17057436D01*
X14522915Y-17057436D02*
X14522915Y-17076484D01*
X14656248Y-16876484D02*
X14675296Y-16876484D01*
X14675296Y-16876484D02*
X14694344Y-16886008D01*
X14694344Y-16886008D02*
X14703867Y-16895531D01*
X14703867Y-16895531D02*
X14713391Y-16914579D01*
X14713391Y-16914579D02*
X14722915Y-16952674D01*
X14722915Y-16952674D02*
X14722915Y-17000293D01*
X14722915Y-17000293D02*
X14713391Y-17038389D01*
X14713391Y-17038389D02*
X14703867Y-17057436D01*
X14703867Y-17057436D02*
X14694344Y-17066960D01*
X14694344Y-17066960D02*
X14675296Y-17076484D01*
X14675296Y-17076484D02*
X14656248Y-17076484D01*
X14656248Y-17076484D02*
X14637201Y-17066960D01*
X14637201Y-17066960D02*
X14627677Y-17057436D01*
X14627677Y-17057436D02*
X14618153Y-17038389D01*
X14618153Y-17038389D02*
X14608629Y-17000293D01*
X14608629Y-17000293D02*
X14608629Y-16952674D01*
X14608629Y-16952674D02*
X14618153Y-16914579D01*
X14618153Y-16914579D02*
X14627677Y-16895531D01*
X14627677Y-16895531D02*
X14637201Y-16886008D01*
X14637201Y-16886008D02*
X14656248Y-16876484D01*
X14818153Y-17076484D02*
X14856248Y-17076484D01*
X14856248Y-17076484D02*
X14875296Y-17066960D01*
X14875296Y-17066960D02*
X14884820Y-17057436D01*
X14884820Y-17057436D02*
X14903867Y-17028865D01*
X14903867Y-17028865D02*
X14913391Y-16990770D01*
X14913391Y-16990770D02*
X14913391Y-16914579D01*
X14913391Y-16914579D02*
X14903867Y-16895531D01*
X14903867Y-16895531D02*
X14894344Y-16886008D01*
X14894344Y-16886008D02*
X14875296Y-16876484D01*
X14875296Y-16876484D02*
X14837201Y-16876484D01*
X14837201Y-16876484D02*
X14818153Y-16886008D01*
X14818153Y-16886008D02*
X14808629Y-16895531D01*
X14808629Y-16895531D02*
X14799106Y-16914579D01*
X14799106Y-16914579D02*
X14799106Y-16962198D01*
X14799106Y-16962198D02*
X14808629Y-16981246D01*
X14808629Y-16981246D02*
X14818153Y-16990770D01*
X14818153Y-16990770D02*
X14837201Y-17000293D01*
X14837201Y-17000293D02*
X14875296Y-17000293D01*
X14875296Y-17000293D02*
X14894344Y-16990770D01*
X14894344Y-16990770D02*
X14903867Y-16981246D01*
X14903867Y-16981246D02*
X14913391Y-16962198D01*
X15027677Y-16962198D02*
X15008629Y-16952674D01*
X15008629Y-16952674D02*
X14999106Y-16943150D01*
X14999106Y-16943150D02*
X14989582Y-16924103D01*
X14989582Y-16924103D02*
X14989582Y-16914579D01*
X14989582Y-16914579D02*
X14999106Y-16895531D01*
X14999106Y-16895531D02*
X15008629Y-16886008D01*
X15008629Y-16886008D02*
X15027677Y-16876484D01*
X15027677Y-16876484D02*
X15065772Y-16876484D01*
X15065772Y-16876484D02*
X15084820Y-16886008D01*
X15084820Y-16886008D02*
X15094344Y-16895531D01*
X15094344Y-16895531D02*
X15103867Y-16914579D01*
X15103867Y-16914579D02*
X15103867Y-16924103D01*
X15103867Y-16924103D02*
X15094344Y-16943150D01*
X15094344Y-16943150D02*
X15084820Y-16952674D01*
X15084820Y-16952674D02*
X15065772Y-16962198D01*
X15065772Y-16962198D02*
X15027677Y-16962198D01*
X15027677Y-16962198D02*
X15008629Y-16971722D01*
X15008629Y-16971722D02*
X14999106Y-16981246D01*
X14999106Y-16981246D02*
X14989582Y-17000293D01*
X14989582Y-17000293D02*
X14989582Y-17038389D01*
X14989582Y-17038389D02*
X14999106Y-17057436D01*
X14999106Y-17057436D02*
X15008629Y-17066960D01*
X15008629Y-17066960D02*
X15027677Y-17076484D01*
X15027677Y-17076484D02*
X15065772Y-17076484D01*
X15065772Y-17076484D02*
X15084820Y-17066960D01*
X15084820Y-17066960D02*
X15094344Y-17057436D01*
X15094344Y-17057436D02*
X15103867Y-17038389D01*
X15103867Y-17038389D02*
X15103867Y-17000293D01*
X15103867Y-17000293D02*
X15094344Y-16981246D01*
X15094344Y-16981246D02*
X15084820Y-16971722D01*
X15084820Y-16971722D02*
X15065772Y-16962198D01*
X15275296Y-16943150D02*
X15275296Y-17076484D01*
X15227677Y-16866960D02*
X15180058Y-17009817D01*
X15180058Y-17009817D02*
X15303867Y-17009817D01*
X15370534Y-16876484D02*
X15370534Y-16914579D01*
X15446725Y-16876484D02*
X15446725Y-16914579D01*
X15741963Y-17152674D02*
X15732439Y-17143150D01*
X15732439Y-17143150D02*
X15713391Y-17114579D01*
X15713391Y-17114579D02*
X15703868Y-17095531D01*
X15703868Y-17095531D02*
X15694344Y-17066960D01*
X15694344Y-17066960D02*
X15684820Y-17019341D01*
X15684820Y-17019341D02*
X15684820Y-16981246D01*
X15684820Y-16981246D02*
X15694344Y-16933627D01*
X15694344Y-16933627D02*
X15703868Y-16905055D01*
X15703868Y-16905055D02*
X15713391Y-16886008D01*
X15713391Y-16886008D02*
X15732439Y-16857436D01*
X15732439Y-16857436D02*
X15741963Y-16847912D01*
X15808629Y-16895531D02*
X15818153Y-16886008D01*
X15818153Y-16886008D02*
X15837201Y-16876484D01*
X15837201Y-16876484D02*
X15884820Y-16876484D01*
X15884820Y-16876484D02*
X15903868Y-16886008D01*
X15903868Y-16886008D02*
X15913391Y-16895531D01*
X15913391Y-16895531D02*
X15922915Y-16914579D01*
X15922915Y-16914579D02*
X15922915Y-16933627D01*
X15922915Y-16933627D02*
X15913391Y-16962198D01*
X15913391Y-16962198D02*
X15799106Y-17076484D01*
X15799106Y-17076484D02*
X15922915Y-17076484D01*
X16161010Y-17076484D02*
X16161010Y-16876484D01*
X16246725Y-17076484D02*
X16246725Y-16971722D01*
X16246725Y-16971722D02*
X16237201Y-16952674D01*
X16237201Y-16952674D02*
X16218153Y-16943150D01*
X16218153Y-16943150D02*
X16189582Y-16943150D01*
X16189582Y-16943150D02*
X16170534Y-16952674D01*
X16170534Y-16952674D02*
X16161010Y-16962198D01*
X16370534Y-17076484D02*
X16351487Y-17066960D01*
X16351487Y-17066960D02*
X16341963Y-17057436D01*
X16341963Y-17057436D02*
X16332439Y-17038389D01*
X16332439Y-17038389D02*
X16332439Y-16981246D01*
X16332439Y-16981246D02*
X16341963Y-16962198D01*
X16341963Y-16962198D02*
X16351487Y-16952674D01*
X16351487Y-16952674D02*
X16370534Y-16943150D01*
X16370534Y-16943150D02*
X16399106Y-16943150D01*
X16399106Y-16943150D02*
X16418153Y-16952674D01*
X16418153Y-16952674D02*
X16427677Y-16962198D01*
X16427677Y-16962198D02*
X16437201Y-16981246D01*
X16437201Y-16981246D02*
X16437201Y-17038389D01*
X16437201Y-17038389D02*
X16427677Y-17057436D01*
X16427677Y-17057436D02*
X16418153Y-17066960D01*
X16418153Y-17066960D02*
X16399106Y-17076484D01*
X16399106Y-17076484D02*
X16370534Y-17076484D01*
X16551487Y-17076484D02*
X16532439Y-17066960D01*
X16532439Y-17066960D02*
X16522915Y-17047912D01*
X16522915Y-17047912D02*
X16522915Y-16876484D01*
X16703868Y-17066960D02*
X16684820Y-17076484D01*
X16684820Y-17076484D02*
X16646725Y-17076484D01*
X16646725Y-17076484D02*
X16627677Y-17066960D01*
X16627677Y-17066960D02*
X16618153Y-17047912D01*
X16618153Y-17047912D02*
X16618153Y-16971722D01*
X16618153Y-16971722D02*
X16627677Y-16952674D01*
X16627677Y-16952674D02*
X16646725Y-16943150D01*
X16646725Y-16943150D02*
X16684820Y-16943150D01*
X16684820Y-16943150D02*
X16703868Y-16952674D01*
X16703868Y-16952674D02*
X16713391Y-16971722D01*
X16713391Y-16971722D02*
X16713391Y-16990770D01*
X16713391Y-16990770D02*
X16618153Y-17009817D01*
X16789582Y-17066960D02*
X16808630Y-17076484D01*
X16808630Y-17076484D02*
X16846725Y-17076484D01*
X16846725Y-17076484D02*
X16865773Y-17066960D01*
X16865773Y-17066960D02*
X16875296Y-17047912D01*
X16875296Y-17047912D02*
X16875296Y-17038389D01*
X16875296Y-17038389D02*
X16865773Y-17019341D01*
X16865773Y-17019341D02*
X16846725Y-17009817D01*
X16846725Y-17009817D02*
X16818153Y-17009817D01*
X16818153Y-17009817D02*
X16799106Y-17000293D01*
X16799106Y-17000293D02*
X16789582Y-16981246D01*
X16789582Y-16981246D02*
X16789582Y-16971722D01*
X16789582Y-16971722D02*
X16799106Y-16952674D01*
X16799106Y-16952674D02*
X16818153Y-16943150D01*
X16818153Y-16943150D02*
X16846725Y-16943150D01*
X16846725Y-16943150D02*
X16865773Y-16952674D01*
X16941963Y-17152674D02*
X16951487Y-17143150D01*
X16951487Y-17143150D02*
X16970534Y-17114579D01*
X16970534Y-17114579D02*
X16980058Y-17095531D01*
X16980058Y-17095531D02*
X16989582Y-17066960D01*
X16989582Y-17066960D02*
X16999106Y-17019341D01*
X16999106Y-17019341D02*
X16999106Y-16981246D01*
X16999106Y-16981246D02*
X16989582Y-16933627D01*
X16989582Y-16933627D02*
X16980058Y-16905055D01*
X16980058Y-16905055D02*
X16970534Y-16886008D01*
X16970534Y-16886008D02*
X16951487Y-16857436D01*
X16951487Y-16857436D02*
X16941963Y-16847912D01*
X12066900Y-17405000D02*
X12166900Y-17305000D01*
X12066900Y-17205000D01*
X11966900Y-17305000D01*
X12066900Y-17405000D01*
X12166900Y-17305000D02*
G75*
G02*
X11966900Y-17305000I-100000J0D01*
G01*
X11966900Y-17305000D02*
G75*
G02*
X12166900Y-17305000I100000J0D01*
G01*
X12408629Y-17196484D02*
X12532439Y-17196484D01*
X12532439Y-17196484D02*
X12465772Y-17272674D01*
X12465772Y-17272674D02*
X12494343Y-17272674D01*
X12494343Y-17272674D02*
X12513391Y-17282198D01*
X12513391Y-17282198D02*
X12522915Y-17291722D01*
X12522915Y-17291722D02*
X12532439Y-17310770D01*
X12532439Y-17310770D02*
X12532439Y-17358389D01*
X12532439Y-17358389D02*
X12522915Y-17377436D01*
X12522915Y-17377436D02*
X12513391Y-17386960D01*
X12513391Y-17386960D02*
X12494343Y-17396484D01*
X12494343Y-17396484D02*
X12437201Y-17396484D01*
X12437201Y-17396484D02*
X12418153Y-17386960D01*
X12418153Y-17386960D02*
X12408629Y-17377436D01*
X12618153Y-17377436D02*
X12627677Y-17386960D01*
X12627677Y-17386960D02*
X12618153Y-17396484D01*
X12618153Y-17396484D02*
X12608629Y-17386960D01*
X12608629Y-17386960D02*
X12618153Y-17377436D01*
X12618153Y-17377436D02*
X12618153Y-17396484D01*
X12703867Y-17215531D02*
X12713391Y-17206008D01*
X12713391Y-17206008D02*
X12732439Y-17196484D01*
X12732439Y-17196484D02*
X12780058Y-17196484D01*
X12780058Y-17196484D02*
X12799105Y-17206008D01*
X12799105Y-17206008D02*
X12808629Y-17215531D01*
X12808629Y-17215531D02*
X12818153Y-17234579D01*
X12818153Y-17234579D02*
X12818153Y-17253627D01*
X12818153Y-17253627D02*
X12808629Y-17282198D01*
X12808629Y-17282198D02*
X12694343Y-17396484D01*
X12694343Y-17396484D02*
X12818153Y-17396484D01*
X12941962Y-17196484D02*
X12961010Y-17196484D01*
X12961010Y-17196484D02*
X12980058Y-17206008D01*
X12980058Y-17206008D02*
X12989582Y-17215531D01*
X12989582Y-17215531D02*
X12999105Y-17234579D01*
X12999105Y-17234579D02*
X13008629Y-17272674D01*
X13008629Y-17272674D02*
X13008629Y-17320293D01*
X13008629Y-17320293D02*
X12999105Y-17358389D01*
X12999105Y-17358389D02*
X12989582Y-17377436D01*
X12989582Y-17377436D02*
X12980058Y-17386960D01*
X12980058Y-17386960D02*
X12961010Y-17396484D01*
X12961010Y-17396484D02*
X12941962Y-17396484D01*
X12941962Y-17396484D02*
X12922915Y-17386960D01*
X12922915Y-17386960D02*
X12913391Y-17377436D01*
X12913391Y-17377436D02*
X12903867Y-17358389D01*
X12903867Y-17358389D02*
X12894343Y-17320293D01*
X12894343Y-17320293D02*
X12894343Y-17272674D01*
X12894343Y-17272674D02*
X12903867Y-17234579D01*
X12903867Y-17234579D02*
X12913391Y-17215531D01*
X12913391Y-17215531D02*
X12922915Y-17206008D01*
X12922915Y-17206008D02*
X12941962Y-17196484D01*
X13132439Y-17196484D02*
X13151486Y-17196484D01*
X13151486Y-17196484D02*
X13170534Y-17206008D01*
X13170534Y-17206008D02*
X13180058Y-17215531D01*
X13180058Y-17215531D02*
X13189582Y-17234579D01*
X13189582Y-17234579D02*
X13199105Y-17272674D01*
X13199105Y-17272674D02*
X13199105Y-17320293D01*
X13199105Y-17320293D02*
X13189582Y-17358389D01*
X13189582Y-17358389D02*
X13180058Y-17377436D01*
X13180058Y-17377436D02*
X13170534Y-17386960D01*
X13170534Y-17386960D02*
X13151486Y-17396484D01*
X13151486Y-17396484D02*
X13132439Y-17396484D01*
X13132439Y-17396484D02*
X13113391Y-17386960D01*
X13113391Y-17386960D02*
X13103867Y-17377436D01*
X13103867Y-17377436D02*
X13094343Y-17358389D01*
X13094343Y-17358389D02*
X13084820Y-17320293D01*
X13084820Y-17320293D02*
X13084820Y-17272674D01*
X13084820Y-17272674D02*
X13094343Y-17234579D01*
X13094343Y-17234579D02*
X13103867Y-17215531D01*
X13103867Y-17215531D02*
X13113391Y-17206008D01*
X13113391Y-17206008D02*
X13132439Y-17196484D01*
X13284820Y-17396484D02*
X13284820Y-17263150D01*
X13284820Y-17282198D02*
X13294343Y-17272674D01*
X13294343Y-17272674D02*
X13313391Y-17263150D01*
X13313391Y-17263150D02*
X13341963Y-17263150D01*
X13341963Y-17263150D02*
X13361010Y-17272674D01*
X13361010Y-17272674D02*
X13370534Y-17291722D01*
X13370534Y-17291722D02*
X13370534Y-17396484D01*
X13370534Y-17291722D02*
X13380058Y-17272674D01*
X13380058Y-17272674D02*
X13399105Y-17263150D01*
X13399105Y-17263150D02*
X13427677Y-17263150D01*
X13427677Y-17263150D02*
X13446724Y-17272674D01*
X13446724Y-17272674D02*
X13456248Y-17291722D01*
X13456248Y-17291722D02*
X13456248Y-17396484D01*
X13551486Y-17396484D02*
X13551486Y-17263150D01*
X13551486Y-17282198D02*
X13561010Y-17272674D01*
X13561010Y-17272674D02*
X13580058Y-17263150D01*
X13580058Y-17263150D02*
X13608629Y-17263150D01*
X13608629Y-17263150D02*
X13627677Y-17272674D01*
X13627677Y-17272674D02*
X13637201Y-17291722D01*
X13637201Y-17291722D02*
X13637201Y-17396484D01*
X13637201Y-17291722D02*
X13646724Y-17272674D01*
X13646724Y-17272674D02*
X13665772Y-17263150D01*
X13665772Y-17263150D02*
X13694343Y-17263150D01*
X13694343Y-17263150D02*
X13713391Y-17272674D01*
X13713391Y-17272674D02*
X13722915Y-17291722D01*
X13722915Y-17291722D02*
X13722915Y-17396484D01*
X14113391Y-17186960D02*
X13941963Y-17444103D01*
X14370534Y-17196484D02*
X14389582Y-17196484D01*
X14389582Y-17196484D02*
X14408629Y-17206008D01*
X14408629Y-17206008D02*
X14418153Y-17215531D01*
X14418153Y-17215531D02*
X14427677Y-17234579D01*
X14427677Y-17234579D02*
X14437201Y-17272674D01*
X14437201Y-17272674D02*
X14437201Y-17320293D01*
X14437201Y-17320293D02*
X14427677Y-17358389D01*
X14427677Y-17358389D02*
X14418153Y-17377436D01*
X14418153Y-17377436D02*
X14408629Y-17386960D01*
X14408629Y-17386960D02*
X14389582Y-17396484D01*
X14389582Y-17396484D02*
X14370534Y-17396484D01*
X14370534Y-17396484D02*
X14351486Y-17386960D01*
X14351486Y-17386960D02*
X14341963Y-17377436D01*
X14341963Y-17377436D02*
X14332439Y-17358389D01*
X14332439Y-17358389D02*
X14322915Y-17320293D01*
X14322915Y-17320293D02*
X14322915Y-17272674D01*
X14322915Y-17272674D02*
X14332439Y-17234579D01*
X14332439Y-17234579D02*
X14341963Y-17215531D01*
X14341963Y-17215531D02*
X14351486Y-17206008D01*
X14351486Y-17206008D02*
X14370534Y-17196484D01*
X14522915Y-17377436D02*
X14532439Y-17386960D01*
X14532439Y-17386960D02*
X14522915Y-17396484D01*
X14522915Y-17396484D02*
X14513391Y-17386960D01*
X14513391Y-17386960D02*
X14522915Y-17377436D01*
X14522915Y-17377436D02*
X14522915Y-17396484D01*
X14722915Y-17396484D02*
X14608629Y-17396484D01*
X14665772Y-17396484D02*
X14665772Y-17196484D01*
X14665772Y-17196484D02*
X14646725Y-17225055D01*
X14646725Y-17225055D02*
X14627677Y-17244103D01*
X14627677Y-17244103D02*
X14608629Y-17253627D01*
X14799106Y-17215531D02*
X14808629Y-17206008D01*
X14808629Y-17206008D02*
X14827677Y-17196484D01*
X14827677Y-17196484D02*
X14875296Y-17196484D01*
X14875296Y-17196484D02*
X14894344Y-17206008D01*
X14894344Y-17206008D02*
X14903867Y-17215531D01*
X14903867Y-17215531D02*
X14913391Y-17234579D01*
X14913391Y-17234579D02*
X14913391Y-17253627D01*
X14913391Y-17253627D02*
X14903867Y-17282198D01*
X14903867Y-17282198D02*
X14789582Y-17396484D01*
X14789582Y-17396484D02*
X14913391Y-17396484D01*
X15084820Y-17196484D02*
X15046725Y-17196484D01*
X15046725Y-17196484D02*
X15027677Y-17206008D01*
X15027677Y-17206008D02*
X15018153Y-17215531D01*
X15018153Y-17215531D02*
X14999106Y-17244103D01*
X14999106Y-17244103D02*
X14989582Y-17282198D01*
X14989582Y-17282198D02*
X14989582Y-17358389D01*
X14989582Y-17358389D02*
X14999106Y-17377436D01*
X14999106Y-17377436D02*
X15008629Y-17386960D01*
X15008629Y-17386960D02*
X15027677Y-17396484D01*
X15027677Y-17396484D02*
X15065772Y-17396484D01*
X15065772Y-17396484D02*
X15084820Y-17386960D01*
X15084820Y-17386960D02*
X15094344Y-17377436D01*
X15094344Y-17377436D02*
X15103867Y-17358389D01*
X15103867Y-17358389D02*
X15103867Y-17310770D01*
X15103867Y-17310770D02*
X15094344Y-17291722D01*
X15094344Y-17291722D02*
X15084820Y-17282198D01*
X15084820Y-17282198D02*
X15065772Y-17272674D01*
X15065772Y-17272674D02*
X15027677Y-17272674D01*
X15027677Y-17272674D02*
X15008629Y-17282198D01*
X15008629Y-17282198D02*
X14999106Y-17291722D01*
X14999106Y-17291722D02*
X14989582Y-17310770D01*
X15227677Y-17196484D02*
X15246725Y-17196484D01*
X15246725Y-17196484D02*
X15265772Y-17206008D01*
X15265772Y-17206008D02*
X15275296Y-17215531D01*
X15275296Y-17215531D02*
X15284820Y-17234579D01*
X15284820Y-17234579D02*
X15294344Y-17272674D01*
X15294344Y-17272674D02*
X15294344Y-17320293D01*
X15294344Y-17320293D02*
X15284820Y-17358389D01*
X15284820Y-17358389D02*
X15275296Y-17377436D01*
X15275296Y-17377436D02*
X15265772Y-17386960D01*
X15265772Y-17386960D02*
X15246725Y-17396484D01*
X15246725Y-17396484D02*
X15227677Y-17396484D01*
X15227677Y-17396484D02*
X15208629Y-17386960D01*
X15208629Y-17386960D02*
X15199106Y-17377436D01*
X15199106Y-17377436D02*
X15189582Y-17358389D01*
X15189582Y-17358389D02*
X15180058Y-17320293D01*
X15180058Y-17320293D02*
X15180058Y-17272674D01*
X15180058Y-17272674D02*
X15189582Y-17234579D01*
X15189582Y-17234579D02*
X15199106Y-17215531D01*
X15199106Y-17215531D02*
X15208629Y-17206008D01*
X15208629Y-17206008D02*
X15227677Y-17196484D01*
X15370534Y-17196484D02*
X15370534Y-17234579D01*
X15446725Y-17196484D02*
X15446725Y-17234579D01*
X15741963Y-17472674D02*
X15732439Y-17463150D01*
X15732439Y-17463150D02*
X15713391Y-17434579D01*
X15713391Y-17434579D02*
X15703868Y-17415531D01*
X15703868Y-17415531D02*
X15694344Y-17386960D01*
X15694344Y-17386960D02*
X15684820Y-17339341D01*
X15684820Y-17339341D02*
X15684820Y-17301246D01*
X15684820Y-17301246D02*
X15694344Y-17253627D01*
X15694344Y-17253627D02*
X15703868Y-17225055D01*
X15703868Y-17225055D02*
X15713391Y-17206008D01*
X15713391Y-17206008D02*
X15732439Y-17177436D01*
X15732439Y-17177436D02*
X15741963Y-17167912D01*
X15903868Y-17263150D02*
X15903868Y-17396484D01*
X15856248Y-17186960D02*
X15808629Y-17329817D01*
X15808629Y-17329817D02*
X15932439Y-17329817D01*
X16161010Y-17396484D02*
X16161010Y-17196484D01*
X16246725Y-17396484D02*
X16246725Y-17291722D01*
X16246725Y-17291722D02*
X16237201Y-17272674D01*
X16237201Y-17272674D02*
X16218153Y-17263150D01*
X16218153Y-17263150D02*
X16189582Y-17263150D01*
X16189582Y-17263150D02*
X16170534Y-17272674D01*
X16170534Y-17272674D02*
X16161010Y-17282198D01*
X16370534Y-17396484D02*
X16351487Y-17386960D01*
X16351487Y-17386960D02*
X16341963Y-17377436D01*
X16341963Y-17377436D02*
X16332439Y-17358389D01*
X16332439Y-17358389D02*
X16332439Y-17301246D01*
X16332439Y-17301246D02*
X16341963Y-17282198D01*
X16341963Y-17282198D02*
X16351487Y-17272674D01*
X16351487Y-17272674D02*
X16370534Y-17263150D01*
X16370534Y-17263150D02*
X16399106Y-17263150D01*
X16399106Y-17263150D02*
X16418153Y-17272674D01*
X16418153Y-17272674D02*
X16427677Y-17282198D01*
X16427677Y-17282198D02*
X16437201Y-17301246D01*
X16437201Y-17301246D02*
X16437201Y-17358389D01*
X16437201Y-17358389D02*
X16427677Y-17377436D01*
X16427677Y-17377436D02*
X16418153Y-17386960D01*
X16418153Y-17386960D02*
X16399106Y-17396484D01*
X16399106Y-17396484D02*
X16370534Y-17396484D01*
X16551487Y-17396484D02*
X16532439Y-17386960D01*
X16532439Y-17386960D02*
X16522915Y-17367912D01*
X16522915Y-17367912D02*
X16522915Y-17196484D01*
X16703868Y-17386960D02*
X16684820Y-17396484D01*
X16684820Y-17396484D02*
X16646725Y-17396484D01*
X16646725Y-17396484D02*
X16627677Y-17386960D01*
X16627677Y-17386960D02*
X16618153Y-17367912D01*
X16618153Y-17367912D02*
X16618153Y-17291722D01*
X16618153Y-17291722D02*
X16627677Y-17272674D01*
X16627677Y-17272674D02*
X16646725Y-17263150D01*
X16646725Y-17263150D02*
X16684820Y-17263150D01*
X16684820Y-17263150D02*
X16703868Y-17272674D01*
X16703868Y-17272674D02*
X16713391Y-17291722D01*
X16713391Y-17291722D02*
X16713391Y-17310770D01*
X16713391Y-17310770D02*
X16618153Y-17329817D01*
X16789582Y-17386960D02*
X16808630Y-17396484D01*
X16808630Y-17396484D02*
X16846725Y-17396484D01*
X16846725Y-17396484D02*
X16865773Y-17386960D01*
X16865773Y-17386960D02*
X16875296Y-17367912D01*
X16875296Y-17367912D02*
X16875296Y-17358389D01*
X16875296Y-17358389D02*
X16865773Y-17339341D01*
X16865773Y-17339341D02*
X16846725Y-17329817D01*
X16846725Y-17329817D02*
X16818153Y-17329817D01*
X16818153Y-17329817D02*
X16799106Y-17320293D01*
X16799106Y-17320293D02*
X16789582Y-17301246D01*
X16789582Y-17301246D02*
X16789582Y-17291722D01*
X16789582Y-17291722D02*
X16799106Y-17272674D01*
X16799106Y-17272674D02*
X16818153Y-17263150D01*
X16818153Y-17263150D02*
X16846725Y-17263150D01*
X16846725Y-17263150D02*
X16865773Y-17272674D01*
X16941963Y-17472674D02*
X16951487Y-17463150D01*
X16951487Y-17463150D02*
X16970534Y-17434579D01*
X16970534Y-17434579D02*
X16980058Y-17415531D01*
X16980058Y-17415531D02*
X16989582Y-17386960D01*
X16989582Y-17386960D02*
X16999106Y-17339341D01*
X16999106Y-17339341D02*
X16999106Y-17301246D01*
X16999106Y-17301246D02*
X16989582Y-17253627D01*
X16989582Y-17253627D02*
X16980058Y-17225055D01*
X16980058Y-17225055D02*
X16970534Y-17206008D01*
X16970534Y-17206008D02*
X16951487Y-17177436D01*
X16951487Y-17177436D02*
X16941963Y-17167912D01*
M02*
