%TF.GenerationSoftware,KiCad,Pcbnew,8.0.3*%
%TF.CreationDate,2024-06-13T00:54:23+02:00*%
%TF.ProjectId,pwm-ctrl,70776d2d-6374-4726-9c2e-6b696361645f,1*%
%TF.SameCoordinates,Original*%
%TF.FileFunction,Soldermask,Bot*%
%TF.FilePolarity,Negative*%
%FSLAX46Y46*%
G04 Gerber Fmt 4.6, Leading zero omitted, Abs format (unit mm)*
G04 Created by KiCad (PCBNEW 8.0.3) date 2024-06-13 00:54:23*
%MOMM*%
%LPD*%
G01*
G04 APERTURE LIST*
G04 Aperture macros list*
%AMRoundRect*
0 Rectangle with rounded corners*
0 $1 Rounding radius*
0 $2 $3 $4 $5 $6 $7 $8 $9 X,Y pos of 4 corners*
0 Add a 4 corners polygon primitive as box body*
4,1,4,$2,$3,$4,$5,$6,$7,$8,$9,$2,$3,0*
0 Add four circle primitives for the rounded corners*
1,1,$1+$1,$2,$3*
1,1,$1+$1,$4,$5*
1,1,$1+$1,$6,$7*
1,1,$1+$1,$8,$9*
0 Add four rect primitives between the rounded corners*
20,1,$1+$1,$2,$3,$4,$5,0*
20,1,$1+$1,$4,$5,$6,$7,0*
20,1,$1+$1,$6,$7,$8,$9,0*
20,1,$1+$1,$8,$9,$2,$3,0*%
G04 Aperture macros list end*
%ADD10C,0.000000*%
%ADD11C,3.600000*%
%ADD12C,5.700000*%
%ADD13RoundRect,0.250000X0.600000X0.725000X-0.600000X0.725000X-0.600000X-0.725000X0.600000X-0.725000X0*%
%ADD14O,1.700000X1.950000*%
%ADD15C,2.780000*%
%ADD16R,3.000000X1.500000*%
%ADD17O,3.000000X1.500000*%
%ADD18R,1.000000X1.000000*%
%ADD19O,1.000000X1.000000*%
%ADD20RoundRect,0.250000X-0.750000X-1.050000X0.750000X-1.050000X0.750000X1.050000X-0.750000X1.050000X0*%
%ADD21O,2.000000X2.600000*%
G04 APERTURE END LIST*
D10*
G36*
X172216254Y-141934173D02*
G01*
X172222798Y-141934495D01*
X172229127Y-141935031D01*
X172235242Y-141935782D01*
X172241143Y-141936748D01*
X172246829Y-141937928D01*
X172252300Y-141939322D01*
X172257557Y-141940932D01*
X172262599Y-141942755D01*
X172267426Y-141944794D01*
X172272039Y-141947047D01*
X172276438Y-141949514D01*
X172280622Y-141952196D01*
X172284591Y-141955093D01*
X172288346Y-141958204D01*
X172291886Y-141961529D01*
X172295212Y-141965070D01*
X172298323Y-141968825D01*
X172301220Y-141972794D01*
X172303902Y-141976978D01*
X172306369Y-141981376D01*
X172308622Y-141985989D01*
X172310660Y-141990817D01*
X172312484Y-141995859D01*
X172314093Y-142001116D01*
X172315488Y-142006587D01*
X172316668Y-142012273D01*
X172317634Y-142018173D01*
X172318384Y-142024288D01*
X172318921Y-142030618D01*
X172319243Y-142037162D01*
X172319350Y-142043921D01*
X172319350Y-142153733D01*
X172319243Y-142160492D01*
X172318921Y-142167035D01*
X172318384Y-142173365D01*
X172317633Y-142179479D01*
X172316667Y-142185379D01*
X172315486Y-142191065D01*
X172314091Y-142196535D01*
X172312481Y-142201791D01*
X172310657Y-142206833D01*
X172308618Y-142211659D01*
X172306364Y-142216272D01*
X172303896Y-142220669D01*
X172301214Y-142224852D01*
X172298316Y-142228821D01*
X172295205Y-142232574D01*
X172291878Y-142236114D01*
X172288338Y-142239438D01*
X172284583Y-142242548D01*
X172280613Y-142245444D01*
X172276429Y-142248125D01*
X172272030Y-142250592D01*
X172267417Y-142252844D01*
X172262590Y-142254881D01*
X172257548Y-142256704D01*
X172252292Y-142258313D01*
X172246821Y-142259707D01*
X172241136Y-142260886D01*
X172235236Y-142261851D01*
X172229122Y-142262602D01*
X172222794Y-142263138D01*
X172216252Y-142263459D01*
X172209495Y-142263567D01*
X171989785Y-142263567D01*
X171989785Y-142197654D01*
X172200246Y-142197697D01*
X172203516Y-142197645D01*
X172206682Y-142197490D01*
X172209745Y-142197231D01*
X172212705Y-142196869D01*
X172215560Y-142196404D01*
X172218312Y-142195835D01*
X172220961Y-142195163D01*
X172223505Y-142194388D01*
X172225946Y-142193509D01*
X172228284Y-142192526D01*
X172230517Y-142191441D01*
X172232647Y-142190252D01*
X172234673Y-142188959D01*
X172236596Y-142187564D01*
X172238414Y-142186065D01*
X172240129Y-142184462D01*
X172241740Y-142182757D01*
X172243247Y-142180948D01*
X172244651Y-142179035D01*
X172245950Y-142177020D01*
X172247146Y-142174901D01*
X172248237Y-142172679D01*
X172249225Y-142170354D01*
X172250109Y-142167925D01*
X172250889Y-142165393D01*
X172251565Y-142162758D01*
X172252137Y-142160020D01*
X172252605Y-142157178D01*
X172252969Y-142154233D01*
X172253229Y-142151186D01*
X172253386Y-142148034D01*
X172253438Y-142144780D01*
X172253438Y-142052705D01*
X172253386Y-142049460D01*
X172253230Y-142046319D01*
X172252972Y-142043280D01*
X172252609Y-142040345D01*
X172252143Y-142037513D01*
X172251574Y-142034784D01*
X172250901Y-142032157D01*
X172250125Y-142029634D01*
X172249245Y-142027214D01*
X172248261Y-142024897D01*
X172247175Y-142022683D01*
X172245984Y-142020572D01*
X172244691Y-142018564D01*
X172243294Y-142016659D01*
X172241793Y-142014857D01*
X172240190Y-142013158D01*
X172238482Y-142011562D01*
X172236672Y-142010069D01*
X172234758Y-142008679D01*
X172232741Y-142007392D01*
X172230620Y-142006208D01*
X172228396Y-142005127D01*
X172226069Y-142004148D01*
X172223639Y-142003273D01*
X172221105Y-142002501D01*
X172218468Y-142001832D01*
X172215728Y-142001266D01*
X172212884Y-142000803D01*
X172209938Y-142000442D01*
X172206888Y-142000185D01*
X172203735Y-142000030D01*
X172200478Y-141999979D01*
X171989785Y-141999979D01*
X171989785Y-141934066D01*
X172209495Y-141934066D01*
X172216254Y-141934173D01*
G37*
G36*
X171426568Y-141934120D02*
G01*
X171433111Y-141934410D01*
X171439441Y-141934893D01*
X171445555Y-141935569D01*
X171451455Y-141936439D01*
X171457140Y-141937502D01*
X171462611Y-141938759D01*
X171467867Y-141940208D01*
X171472908Y-141941851D01*
X171477735Y-141943687D01*
X171482347Y-141945716D01*
X171486745Y-141947938D01*
X171490928Y-141950353D01*
X171494896Y-141952961D01*
X171498650Y-141955762D01*
X171502189Y-141958756D01*
X171505514Y-141961943D01*
X171508624Y-141965323D01*
X171511520Y-141968896D01*
X171514201Y-141972662D01*
X171516668Y-141976621D01*
X171518920Y-141980773D01*
X171520957Y-141985117D01*
X171522780Y-141989655D01*
X171524389Y-141994385D01*
X171525783Y-141999308D01*
X171526962Y-142004423D01*
X171527927Y-142009732D01*
X171528678Y-142015233D01*
X171529214Y-142020927D01*
X171529535Y-142026813D01*
X171529643Y-142032892D01*
X171529535Y-142038975D01*
X171529214Y-142044865D01*
X171528678Y-142050562D01*
X171527927Y-142056066D01*
X171526962Y-142061376D01*
X171525783Y-142066494D01*
X171524389Y-142071419D01*
X171522780Y-142076151D01*
X171520957Y-142080690D01*
X171518920Y-142085035D01*
X171516668Y-142089188D01*
X171514201Y-142093147D01*
X171511520Y-142096914D01*
X171508624Y-142100487D01*
X171505514Y-142103868D01*
X171502189Y-142107055D01*
X171498650Y-142110049D01*
X171494896Y-142112850D01*
X171490928Y-142115458D01*
X171486745Y-142117873D01*
X171482347Y-142120094D01*
X171477735Y-142122123D01*
X171472908Y-142123958D01*
X171467867Y-142125600D01*
X171462611Y-142127049D01*
X171457140Y-142128305D01*
X171451455Y-142129368D01*
X171445555Y-142130237D01*
X171433111Y-142131396D01*
X171419809Y-142131783D01*
X171321003Y-142131783D01*
X171317624Y-142131815D01*
X171314351Y-142131912D01*
X171311186Y-142132073D01*
X171308128Y-142132299D01*
X171305178Y-142132589D01*
X171302334Y-142132943D01*
X171299598Y-142133362D01*
X171296969Y-142133846D01*
X171294447Y-142134393D01*
X171292032Y-142135006D01*
X171289725Y-142135682D01*
X171287525Y-142136423D01*
X171285432Y-142137228D01*
X171283446Y-142138098D01*
X171281568Y-142139032D01*
X171279796Y-142140030D01*
X171278133Y-142141093D01*
X171276576Y-142142220D01*
X171275127Y-142143411D01*
X171273785Y-142144666D01*
X171272550Y-142145986D01*
X171271423Y-142147370D01*
X171270403Y-142148818D01*
X171269490Y-142150330D01*
X171268685Y-142151907D01*
X171267987Y-142153547D01*
X171267396Y-142155252D01*
X171266913Y-142157021D01*
X171266537Y-142158855D01*
X171266269Y-142160752D01*
X171266108Y-142162714D01*
X171266054Y-142164739D01*
X171266108Y-142166767D01*
X171266269Y-142168730D01*
X171266537Y-142170629D01*
X171266913Y-142172464D01*
X171267396Y-142174234D01*
X171267987Y-142175939D01*
X171268685Y-142177581D01*
X171269490Y-142179158D01*
X171270403Y-142180670D01*
X171271423Y-142182119D01*
X171272550Y-142183503D01*
X171273785Y-142184822D01*
X171275127Y-142186077D01*
X171276576Y-142187268D01*
X171278133Y-142188395D01*
X171279796Y-142189457D01*
X171283446Y-142191388D01*
X171287525Y-142193061D01*
X171292032Y-142194478D01*
X171296969Y-142195636D01*
X171302334Y-142196537D01*
X171308128Y-142197181D01*
X171314351Y-142197567D01*
X171321003Y-142197696D01*
X171529664Y-142197696D01*
X171529664Y-142263609D01*
X171309975Y-142263609D01*
X171303217Y-142263513D01*
X171296673Y-142263223D01*
X171290343Y-142262740D01*
X171284228Y-142262065D01*
X171278328Y-142261196D01*
X171272642Y-142260134D01*
X171267170Y-142258878D01*
X171261914Y-142257430D01*
X171256872Y-142255789D01*
X171252044Y-142253954D01*
X171247431Y-142251927D01*
X171243032Y-142249706D01*
X171238848Y-142247292D01*
X171234879Y-142244685D01*
X171231124Y-142241885D01*
X171227584Y-142238892D01*
X171224258Y-142235706D01*
X171221147Y-142232327D01*
X171218250Y-142228754D01*
X171215568Y-142224989D01*
X171213101Y-142221030D01*
X171210848Y-142216878D01*
X171208810Y-142212534D01*
X171206986Y-142207996D01*
X171205377Y-142203265D01*
X171203982Y-142198340D01*
X171202802Y-142193223D01*
X171201836Y-142187913D01*
X171201085Y-142182409D01*
X171200549Y-142176713D01*
X171200227Y-142170823D01*
X171200120Y-142164740D01*
X171200227Y-142158659D01*
X171200549Y-142152771D01*
X171201086Y-142147076D01*
X171201837Y-142141574D01*
X171202803Y-142136266D01*
X171203984Y-142131150D01*
X171205379Y-142126227D01*
X171206989Y-142121497D01*
X171208813Y-142116960D01*
X171210852Y-142112616D01*
X171213106Y-142108465D01*
X171215574Y-142104507D01*
X171218257Y-142100742D01*
X171221154Y-142097171D01*
X171224265Y-142093792D01*
X171227592Y-142090606D01*
X171231132Y-142087614D01*
X171234888Y-142084814D01*
X171238857Y-142082207D01*
X171243041Y-142079794D01*
X171247440Y-142077573D01*
X171252053Y-142075546D01*
X171256881Y-142073712D01*
X171261922Y-142072071D01*
X171267179Y-142070622D01*
X171272649Y-142069367D01*
X171278335Y-142068305D01*
X171284234Y-142067436D01*
X171296676Y-142066278D01*
X171309975Y-142065891D01*
X171408866Y-142065891D01*
X171412245Y-142065859D01*
X171415517Y-142065762D01*
X171418681Y-142065601D01*
X171421737Y-142065375D01*
X171424687Y-142065084D01*
X171427528Y-142064729D01*
X171430263Y-142064309D01*
X171432890Y-142063825D01*
X171435409Y-142063276D01*
X171437821Y-142062663D01*
X171440126Y-142061986D01*
X171442324Y-142061244D01*
X171444414Y-142060437D01*
X171446396Y-142059566D01*
X171448272Y-142058631D01*
X171450040Y-142057631D01*
X171451701Y-142056567D01*
X171453254Y-142055439D01*
X171454701Y-142054246D01*
X171456040Y-142052989D01*
X171457272Y-142051668D01*
X171458396Y-142050282D01*
X171459414Y-142048832D01*
X171460324Y-142047318D01*
X171461127Y-142045739D01*
X171461824Y-142044097D01*
X171462412Y-142042390D01*
X171462894Y-142040619D01*
X171463269Y-142038784D01*
X171463537Y-142036884D01*
X171463697Y-142034921D01*
X171463751Y-142032893D01*
X171463697Y-142030869D01*
X171463537Y-142028909D01*
X171463269Y-142027013D01*
X171462894Y-142025181D01*
X171462412Y-142023413D01*
X171461824Y-142021708D01*
X171461128Y-142020068D01*
X171460324Y-142018492D01*
X171459414Y-142016980D01*
X171458397Y-142015532D01*
X171457272Y-142014148D01*
X171456040Y-142012829D01*
X171454701Y-142011573D01*
X171453255Y-142010382D01*
X171451701Y-142009254D01*
X171450040Y-142008191D01*
X171446397Y-142006258D01*
X171442324Y-142004582D01*
X171437822Y-142003163D01*
X171432890Y-142002002D01*
X171427529Y-142001099D01*
X171421738Y-142000453D01*
X171415517Y-142000065D01*
X171408866Y-141999936D01*
X171200120Y-141999936D01*
X171200120Y-141934023D01*
X171419809Y-141934023D01*
X171426568Y-141934120D01*
G37*
G36*
X174239548Y-140187519D02*
G01*
X174202191Y-140196837D01*
X174165462Y-140207701D01*
X174129395Y-140220074D01*
X174094028Y-140233919D01*
X174059398Y-140249200D01*
X174025541Y-140265880D01*
X173992494Y-140283923D01*
X173960294Y-140303291D01*
X173928977Y-140323947D01*
X173898580Y-140345856D01*
X173869140Y-140368981D01*
X173840693Y-140393284D01*
X173813276Y-140418729D01*
X173786926Y-140445280D01*
X173761679Y-140472899D01*
X173737573Y-140501551D01*
X173714643Y-140531197D01*
X173692927Y-140561802D01*
X173672460Y-140593329D01*
X173653281Y-140625741D01*
X173635425Y-140659001D01*
X173618930Y-140693073D01*
X173603831Y-140727920D01*
X173590166Y-140763505D01*
X173577971Y-140799792D01*
X173567284Y-140836744D01*
X173558139Y-140874323D01*
X173550576Y-140912495D01*
X173544629Y-140951221D01*
X173540336Y-140990465D01*
X173537733Y-141030190D01*
X173536857Y-141070360D01*
X173537674Y-141113463D01*
X173540110Y-141155827D01*
X173544138Y-141197427D01*
X173549733Y-141238237D01*
X173556869Y-141278233D01*
X173565522Y-141317387D01*
X173575666Y-141355676D01*
X173587276Y-141393073D01*
X173600326Y-141429554D01*
X173614790Y-141465091D01*
X173630644Y-141499661D01*
X173647862Y-141533238D01*
X173666418Y-141565796D01*
X173686288Y-141597310D01*
X173707445Y-141627754D01*
X173729865Y-141657103D01*
X173753522Y-141685331D01*
X173778391Y-141712413D01*
X173804445Y-141738324D01*
X173831661Y-141763037D01*
X173860012Y-141786528D01*
X173889473Y-141808772D01*
X173920018Y-141829741D01*
X173951623Y-141849413D01*
X173984262Y-141867759D01*
X174017909Y-141884756D01*
X174052539Y-141900378D01*
X174088127Y-141914599D01*
X174124647Y-141927394D01*
X174162075Y-141938738D01*
X174200383Y-141948604D01*
X174239548Y-141956968D01*
X174239548Y-142119528D01*
X174173615Y-142106440D01*
X174109587Y-142089674D01*
X174047562Y-142069328D01*
X173987636Y-142045500D01*
X173929908Y-142018288D01*
X173874473Y-141987791D01*
X173821430Y-141954108D01*
X173770876Y-141917336D01*
X173722907Y-141877574D01*
X173677620Y-141834919D01*
X173635114Y-141789472D01*
X173595485Y-141741329D01*
X173558831Y-141690589D01*
X173525247Y-141637350D01*
X173494833Y-141581712D01*
X173467684Y-141523771D01*
X173245710Y-141682076D01*
X165817776Y-141682076D01*
X165815864Y-141690351D01*
X165813607Y-141698487D01*
X165811013Y-141706478D01*
X165808090Y-141714315D01*
X165804846Y-141721989D01*
X165801290Y-141729493D01*
X165797429Y-141736818D01*
X165793272Y-141743956D01*
X165788828Y-141750900D01*
X165784103Y-141757640D01*
X165779107Y-141764168D01*
X165773847Y-141770477D01*
X165768332Y-141776558D01*
X165762569Y-141782403D01*
X165756568Y-141788004D01*
X165750336Y-141793352D01*
X165743882Y-141798440D01*
X165737213Y-141803259D01*
X165730338Y-141807801D01*
X165723265Y-141812057D01*
X165716002Y-141816021D01*
X165708558Y-141819682D01*
X165700940Y-141823034D01*
X165693156Y-141826068D01*
X165685216Y-141828775D01*
X165677127Y-141831148D01*
X165668897Y-141833179D01*
X165660534Y-141834858D01*
X165652047Y-141836179D01*
X165643444Y-141837133D01*
X165634732Y-141837711D01*
X165625921Y-141837905D01*
X165615841Y-141837650D01*
X165605893Y-141836893D01*
X165596088Y-141835647D01*
X165586441Y-141833923D01*
X165576962Y-141831734D01*
X165567664Y-141829093D01*
X165558561Y-141826012D01*
X165549663Y-141822502D01*
X165540983Y-141818577D01*
X165532534Y-141814248D01*
X165524327Y-141809529D01*
X165516377Y-141804430D01*
X165508693Y-141798966D01*
X165501290Y-141793147D01*
X165494179Y-141786986D01*
X165487372Y-141780496D01*
X165480883Y-141773689D01*
X165474722Y-141766577D01*
X165468904Y-141759173D01*
X165463439Y-141751488D01*
X165458340Y-141743536D01*
X165453621Y-141735327D01*
X165449292Y-141726876D01*
X165445366Y-141718194D01*
X165441856Y-141709293D01*
X165438774Y-141700186D01*
X165436133Y-141690885D01*
X165433944Y-141681403D01*
X165432220Y-141671751D01*
X165430973Y-141661942D01*
X165430216Y-141651988D01*
X165429961Y-141641902D01*
X165430212Y-141631818D01*
X165430965Y-141621866D01*
X165432208Y-141612058D01*
X165433929Y-141602407D01*
X165436114Y-141592926D01*
X165438753Y-141583626D01*
X165441832Y-141574519D01*
X165445339Y-141565619D01*
X165449262Y-141556937D01*
X165453589Y-141548486D01*
X165458307Y-141540278D01*
X165463403Y-141532325D01*
X165468867Y-141524640D01*
X165474684Y-141517236D01*
X165480843Y-141510123D01*
X165487332Y-141503316D01*
X165494139Y-141496825D01*
X165501250Y-141490664D01*
X165508653Y-141484845D01*
X165516337Y-141479379D01*
X165524289Y-141474280D01*
X165532497Y-141469560D01*
X165540948Y-141465231D01*
X165549630Y-141461305D01*
X165558530Y-141457795D01*
X165567637Y-141454713D01*
X165576938Y-141452071D01*
X165586421Y-141449882D01*
X165596073Y-141448157D01*
X165605882Y-141446911D01*
X165615835Y-141446154D01*
X165625921Y-141445899D01*
X165625923Y-141445899D01*
X165634735Y-141446093D01*
X165643448Y-141446672D01*
X165652052Y-141447626D01*
X165660540Y-141448947D01*
X165668903Y-141450628D01*
X165677134Y-141452660D01*
X165685223Y-141455034D01*
X165693163Y-141457744D01*
X165700946Y-141460779D01*
X165708563Y-141464133D01*
X165716007Y-141467797D01*
X165723269Y-141471762D01*
X165730340Y-141476021D01*
X165737214Y-141480566D01*
X165750335Y-141490478D01*
X165762564Y-141501433D01*
X165773838Y-141513366D01*
X165784091Y-141526211D01*
X165793258Y-141539901D01*
X165797414Y-141547043D01*
X165801273Y-141554372D01*
X165804828Y-141561880D01*
X165808071Y-141569558D01*
X165810993Y-141577399D01*
X165813587Y-141585393D01*
X165815843Y-141593534D01*
X165817755Y-141601812D01*
X173220034Y-141601812D01*
X173437797Y-141446555D01*
X173430616Y-141424775D01*
X173423866Y-141402745D01*
X173417551Y-141380469D01*
X173411675Y-141357952D01*
X173406243Y-141335197D01*
X173401260Y-141312208D01*
X173396729Y-141288989D01*
X173392656Y-141265545D01*
X173389045Y-141241880D01*
X173385901Y-141217996D01*
X173383228Y-141193900D01*
X173381031Y-141169594D01*
X173379314Y-141145083D01*
X173378082Y-141120371D01*
X173377340Y-141095462D01*
X173377091Y-141070359D01*
X173378173Y-141021910D01*
X173381389Y-140974012D01*
X173386691Y-140926710D01*
X173394034Y-140880051D01*
X173403372Y-140834082D01*
X173414656Y-140788849D01*
X173427842Y-140744399D01*
X173442883Y-140700778D01*
X173459732Y-140658032D01*
X173478343Y-140616209D01*
X173498669Y-140575355D01*
X173520665Y-140535516D01*
X173544283Y-140496739D01*
X173569477Y-140459070D01*
X173596201Y-140422555D01*
X173624408Y-140387242D01*
X173685086Y-140320406D01*
X173751139Y-140258934D01*
X173786066Y-140230325D01*
X173822197Y-140203196D01*
X173859487Y-140177595D01*
X173897888Y-140153566D01*
X173937355Y-140131158D01*
X173977840Y-140110416D01*
X174019298Y-140091387D01*
X174061682Y-140074117D01*
X174104945Y-140058653D01*
X174149041Y-140045042D01*
X174193925Y-140033329D01*
X174239548Y-140023562D01*
X174239548Y-140187519D01*
G37*
G36*
X166226487Y-141934194D02*
G01*
X166233029Y-141934516D01*
X166239357Y-141935053D01*
X166245471Y-141935803D01*
X166251370Y-141936769D01*
X166257054Y-141937949D01*
X166262525Y-141939344D01*
X166267780Y-141940953D01*
X166272821Y-141942777D01*
X166277648Y-141944815D01*
X166282260Y-141947068D01*
X166286658Y-141949535D01*
X166290841Y-141952217D01*
X166294810Y-141955114D01*
X166298564Y-141958225D01*
X166302104Y-141961551D01*
X166305429Y-141965091D01*
X166308540Y-141968846D01*
X166311436Y-141972815D01*
X166314118Y-141976999D01*
X166316585Y-141981398D01*
X166318838Y-141986011D01*
X166320876Y-141990838D01*
X166322700Y-141995880D01*
X166324309Y-142001137D01*
X166325703Y-142006608D01*
X166326883Y-142012294D01*
X166327849Y-142018195D01*
X166328600Y-142024310D01*
X166329136Y-142030639D01*
X166329458Y-142037183D01*
X166329565Y-142043942D01*
X166329565Y-142153754D01*
X166329458Y-142160513D01*
X166329136Y-142167057D01*
X166328600Y-142173386D01*
X166327849Y-142179501D01*
X166326883Y-142185401D01*
X166325703Y-142191086D01*
X166324309Y-142196556D01*
X166322699Y-142201812D01*
X166320876Y-142206854D01*
X166318838Y-142211681D01*
X166316585Y-142216293D01*
X166314118Y-142220690D01*
X166311436Y-142224873D01*
X166308540Y-142228842D01*
X166305429Y-142232596D01*
X166302104Y-142236135D01*
X166298564Y-142239460D01*
X166294809Y-142242570D01*
X166290841Y-142245465D01*
X166286657Y-142248146D01*
X166282260Y-142250613D01*
X166277648Y-142252865D01*
X166272821Y-142254902D01*
X166267780Y-142256725D01*
X166262524Y-142258334D01*
X166257054Y-142259728D01*
X166251369Y-142260907D01*
X166245470Y-142261872D01*
X166239357Y-142262623D01*
X166233029Y-142263159D01*
X166226487Y-142263481D01*
X166219730Y-142263588D01*
X166000000Y-142263588D01*
X166000000Y-142087906D01*
X166065934Y-142087906D01*
X166065934Y-142197718D01*
X166210460Y-142197718D01*
X166213734Y-142197666D01*
X166216903Y-142197511D01*
X166219969Y-142197253D01*
X166222930Y-142196891D01*
X166225787Y-142196425D01*
X166228540Y-142195856D01*
X166231189Y-142195184D01*
X166233734Y-142194409D01*
X166236175Y-142193530D01*
X166238512Y-142192547D01*
X166240745Y-142191462D01*
X166242873Y-142190273D01*
X166244898Y-142188980D01*
X166246819Y-142187585D01*
X166248636Y-142186086D01*
X166250349Y-142184483D01*
X166251958Y-142182778D01*
X166253463Y-142180969D01*
X166254864Y-142179057D01*
X166256161Y-142177041D01*
X166257354Y-142174922D01*
X166258444Y-142172700D01*
X166259430Y-142170375D01*
X166260312Y-142167946D01*
X166261090Y-142165415D01*
X166261764Y-142162779D01*
X166262334Y-142160041D01*
X166262801Y-142157200D01*
X166263164Y-142154255D01*
X166263423Y-142151207D01*
X166263579Y-142148056D01*
X166263631Y-142144801D01*
X166263631Y-142052726D01*
X166263579Y-142049482D01*
X166263424Y-142046340D01*
X166263166Y-142043302D01*
X166262805Y-142040366D01*
X166262341Y-142037534D01*
X166261773Y-142034805D01*
X166261102Y-142032179D01*
X166260327Y-142029655D01*
X166259450Y-142027235D01*
X166258469Y-142024918D01*
X166257385Y-142022704D01*
X166256197Y-142020593D01*
X166254906Y-142018585D01*
X166253511Y-142016680D01*
X166252014Y-142014878D01*
X166250412Y-142013179D01*
X166248708Y-142011583D01*
X166246900Y-142010090D01*
X166244988Y-142008700D01*
X166242973Y-142007413D01*
X166240854Y-142006229D01*
X166238632Y-142005148D01*
X166236306Y-142004170D01*
X166233877Y-142003294D01*
X166231344Y-142002522D01*
X166228708Y-142001853D01*
X166225968Y-142001287D01*
X166223125Y-142000824D01*
X166220177Y-142000463D01*
X166217127Y-142000206D01*
X166213972Y-142000052D01*
X166210714Y-142000000D01*
X166000000Y-142000000D01*
X166000000Y-141934087D01*
X166219730Y-141934087D01*
X166226487Y-141934194D01*
G37*
G36*
X167212088Y-140451192D02*
G01*
X166014880Y-140451192D01*
X166014880Y-140210612D01*
X167212088Y-140210612D01*
X167212088Y-140451192D01*
G37*
G36*
X166724428Y-142263609D02*
G01*
X166658537Y-142263609D01*
X166658537Y-142131783D01*
X166626406Y-142131783D01*
X166471741Y-142263651D01*
X166370500Y-142263651D01*
X166525165Y-142131826D01*
X166504698Y-142131826D01*
X166497941Y-142131729D01*
X166491399Y-142131439D01*
X166485071Y-142130956D01*
X166478958Y-142130280D01*
X166473060Y-142129410D01*
X166467376Y-142128348D01*
X166461907Y-142127092D01*
X166456652Y-142125643D01*
X166451611Y-142124001D01*
X166446786Y-142122166D01*
X166442174Y-142120137D01*
X166437777Y-142117915D01*
X166433595Y-142115501D01*
X166429628Y-142112893D01*
X166425874Y-142110092D01*
X166422336Y-142107098D01*
X166419011Y-142103910D01*
X166415902Y-142100530D01*
X166413006Y-142096957D01*
X166410326Y-142093190D01*
X166407859Y-142089231D01*
X166405607Y-142085078D01*
X166403570Y-142080732D01*
X166401747Y-142076194D01*
X166400139Y-142071462D01*
X166398745Y-142066537D01*
X166397566Y-142061419D01*
X166396601Y-142056108D01*
X166395850Y-142050605D01*
X166395314Y-142044908D01*
X166394992Y-142039018D01*
X166394885Y-142032935D01*
X166394886Y-142032871D01*
X166460756Y-142032871D01*
X166460810Y-142034899D01*
X166460971Y-142036862D01*
X166461239Y-142038762D01*
X166461615Y-142040597D01*
X166462098Y-142042368D01*
X166462689Y-142044075D01*
X166463387Y-142045717D01*
X166464192Y-142047296D01*
X166465105Y-142048810D01*
X166466125Y-142050260D01*
X166467252Y-142051646D01*
X166468487Y-142052967D01*
X166469829Y-142054224D01*
X166471278Y-142055417D01*
X166472835Y-142056545D01*
X166474499Y-142057609D01*
X166478148Y-142059544D01*
X166482227Y-142061222D01*
X166486734Y-142062641D01*
X166491671Y-142063803D01*
X166497036Y-142064707D01*
X166502830Y-142065353D01*
X166509053Y-142065740D01*
X166515705Y-142065870D01*
X166658495Y-142065827D01*
X166658495Y-141999914D01*
X166515705Y-141999914D01*
X166512323Y-141999947D01*
X166509049Y-142000044D01*
X166505883Y-142000205D01*
X166502824Y-142000431D01*
X166499872Y-142000722D01*
X166497028Y-142001077D01*
X166494291Y-142001496D01*
X166491661Y-142001980D01*
X166489139Y-142002528D01*
X166486724Y-142003141D01*
X166484417Y-142003818D01*
X166482217Y-142004560D01*
X166480124Y-142005366D01*
X166478139Y-142006236D01*
X166476261Y-142007171D01*
X166474490Y-142008169D01*
X166472827Y-142009232D01*
X166471271Y-142010360D01*
X166469822Y-142011551D01*
X166468481Y-142012807D01*
X166467247Y-142014126D01*
X166466121Y-142015510D01*
X166465101Y-142016958D01*
X166464189Y-142018470D01*
X166463384Y-142020046D01*
X166462687Y-142021686D01*
X166462097Y-142023391D01*
X166461614Y-142025159D01*
X166461239Y-142026991D01*
X166460971Y-142028887D01*
X166460810Y-142030847D01*
X166460756Y-142032871D01*
X166394886Y-142032871D01*
X166394992Y-142026856D01*
X166395314Y-142020969D01*
X166395850Y-142015276D01*
X166396601Y-142009775D01*
X166397566Y-142004466D01*
X166398745Y-141999350D01*
X166400139Y-141994428D01*
X166401747Y-141989697D01*
X166403570Y-141985160D01*
X166405607Y-141980816D01*
X166407859Y-141976664D01*
X166410326Y-141972705D01*
X166413006Y-141968939D01*
X166415902Y-141965366D01*
X166419011Y-141961986D01*
X166422336Y-141958799D01*
X166425874Y-141955805D01*
X166429628Y-141953003D01*
X166433595Y-141950395D01*
X166437777Y-141947980D01*
X166442174Y-141945758D01*
X166446786Y-141943729D01*
X166451611Y-141941894D01*
X166456652Y-141940251D01*
X166461907Y-141938801D01*
X166467376Y-141937545D01*
X166473060Y-141936482D01*
X166478958Y-141935612D01*
X166491399Y-141934452D01*
X166504698Y-141934066D01*
X166724428Y-141934066D01*
X166724428Y-142065827D01*
X166724428Y-142263609D01*
G37*
G36*
X174052572Y-137186849D02*
G01*
X174062526Y-137187606D01*
X174072335Y-137188852D01*
X174081987Y-137190576D01*
X174091469Y-137192765D01*
X174100770Y-137195406D01*
X174109877Y-137198488D01*
X174118778Y-137201997D01*
X174127460Y-137205923D01*
X174135911Y-137210251D01*
X174144119Y-137214971D01*
X174152072Y-137220069D01*
X174159756Y-137225534D01*
X174167161Y-137231353D01*
X174174273Y-137237513D01*
X174181080Y-137244003D01*
X174187570Y-137250810D01*
X174193731Y-137257922D01*
X174199549Y-137265327D01*
X174205014Y-137273011D01*
X174210112Y-137280964D01*
X174214832Y-137289172D01*
X174219161Y-137297623D01*
X174223086Y-137306305D01*
X174226595Y-137315206D01*
X174229677Y-137324313D01*
X174232318Y-137333614D01*
X174234507Y-137343097D01*
X174236231Y-137352749D01*
X174237477Y-137362558D01*
X174238234Y-137372511D01*
X174238489Y-137382597D01*
X174238295Y-137391406D01*
X174237716Y-137400116D01*
X174236762Y-137408717D01*
X174235440Y-137417203D01*
X174233760Y-137425564D01*
X174231728Y-137433793D01*
X174229353Y-137441881D01*
X174226644Y-137449820D01*
X174223609Y-137457602D01*
X174220255Y-137465219D01*
X174216591Y-137472663D01*
X174212626Y-137479925D01*
X174208366Y-137486997D01*
X174203822Y-137493872D01*
X174193910Y-137506994D01*
X174182954Y-137519226D01*
X174171022Y-137530503D01*
X174158177Y-137540758D01*
X174144486Y-137549928D01*
X174137344Y-137554084D01*
X174130015Y-137557945D01*
X174122508Y-137561501D01*
X174114829Y-137564745D01*
X174106989Y-137567668D01*
X174098994Y-137570262D01*
X174090854Y-137572519D01*
X174082576Y-137574431D01*
X174082576Y-138438454D01*
X175139342Y-139604822D01*
X175146761Y-139600683D01*
X175154310Y-139596891D01*
X175169750Y-139590350D01*
X175185569Y-139585196D01*
X175201677Y-139581423D01*
X175217979Y-139579028D01*
X175234383Y-139578006D01*
X175250797Y-139578352D01*
X175267128Y-139580063D01*
X175283284Y-139583133D01*
X175299172Y-139587559D01*
X175314699Y-139593335D01*
X175329774Y-139600459D01*
X175337112Y-139604524D01*
X175344303Y-139608924D01*
X175351334Y-139613659D01*
X175358194Y-139618727D01*
X175364871Y-139624129D01*
X175371354Y-139629864D01*
X175377631Y-139635931D01*
X175383690Y-139642330D01*
X175390272Y-139649974D01*
X175396393Y-139657857D01*
X175402055Y-139665962D01*
X175407257Y-139674271D01*
X175412001Y-139682767D01*
X175416288Y-139691432D01*
X175420119Y-139700249D01*
X175423494Y-139709201D01*
X175426414Y-139718270D01*
X175428881Y-139727439D01*
X175430894Y-139736690D01*
X175432456Y-139746007D01*
X175433566Y-139755370D01*
X175434225Y-139764764D01*
X175434435Y-139774170D01*
X175434197Y-139783572D01*
X175433510Y-139792952D01*
X175432376Y-139802292D01*
X175430796Y-139811575D01*
X175428771Y-139820783D01*
X175426301Y-139829900D01*
X175423388Y-139838908D01*
X175420031Y-139847789D01*
X175416233Y-139856526D01*
X175411994Y-139865102D01*
X175407314Y-139873498D01*
X175402195Y-139881699D01*
X175396637Y-139889685D01*
X175390642Y-139897441D01*
X175384210Y-139904948D01*
X175377341Y-139912190D01*
X175370038Y-139919147D01*
X175362392Y-139925731D01*
X175354507Y-139931854D01*
X175346401Y-139937516D01*
X175338091Y-139942720D01*
X175329594Y-139947465D01*
X175320927Y-139951753D01*
X175312109Y-139955584D01*
X175303157Y-139958959D01*
X175294087Y-139961880D01*
X175284918Y-139964347D01*
X175275667Y-139966360D01*
X175266351Y-139967921D01*
X175256987Y-139969030D01*
X175247593Y-139969689D01*
X175238187Y-139969899D01*
X175228785Y-139969659D01*
X175219405Y-139968971D01*
X175210065Y-139967836D01*
X175200782Y-139966255D01*
X175191574Y-139964228D01*
X175182457Y-139961757D01*
X175173449Y-139958842D01*
X175164567Y-139955484D01*
X175155830Y-139951684D01*
X175147254Y-139947443D01*
X175138856Y-139942761D01*
X175130655Y-139937640D01*
X175122667Y-139932081D01*
X175114910Y-139926084D01*
X175107402Y-139919649D01*
X175100159Y-139912779D01*
X175093199Y-139905474D01*
X175087428Y-139898814D01*
X175082008Y-139891971D01*
X175076939Y-139884955D01*
X175072220Y-139877780D01*
X175067851Y-139870456D01*
X175063831Y-139862994D01*
X175060159Y-139855407D01*
X175056836Y-139847706D01*
X175053859Y-139839902D01*
X175051230Y-139832007D01*
X175048946Y-139824032D01*
X175047008Y-139815990D01*
X175045415Y-139807891D01*
X175044167Y-139799747D01*
X175042701Y-139783371D01*
X175042606Y-139766954D01*
X175043876Y-139750589D01*
X175046509Y-139734367D01*
X175050498Y-139718382D01*
X175052999Y-139710507D01*
X175055839Y-139702725D01*
X175059015Y-139695049D01*
X175062527Y-139687489D01*
X175066375Y-139680058D01*
X175070558Y-139672766D01*
X175075076Y-139665626D01*
X175079928Y-139658649D01*
X174002375Y-138469337D01*
X174002375Y-137574431D01*
X173994099Y-137572520D01*
X173985960Y-137570263D01*
X173977967Y-137567669D01*
X173970128Y-137564746D01*
X173962452Y-137561502D01*
X173954945Y-137557946D01*
X173947617Y-137554085D01*
X173940477Y-137549928D01*
X173933531Y-137545484D01*
X173926788Y-137540759D01*
X173920257Y-137535763D01*
X173913945Y-137530503D01*
X173907861Y-137524988D01*
X173902014Y-137519227D01*
X173896410Y-137513226D01*
X173891060Y-137506994D01*
X173885969Y-137500540D01*
X173881148Y-137493872D01*
X173876604Y-137486998D01*
X173872345Y-137479925D01*
X173868380Y-137472663D01*
X173864716Y-137465220D01*
X173861363Y-137457603D01*
X173858327Y-137449821D01*
X173855618Y-137441881D01*
X173853244Y-137433793D01*
X173851212Y-137425565D01*
X173849531Y-137417203D01*
X173848210Y-137408718D01*
X173847256Y-137400116D01*
X173846677Y-137391407D01*
X173846483Y-137382598D01*
X173846483Y-137382597D01*
X173846738Y-137372513D01*
X173847495Y-137362561D01*
X173848741Y-137352753D01*
X173850465Y-137343103D01*
X173852654Y-137333621D01*
X173855295Y-137324321D01*
X173858377Y-137315214D01*
X173861886Y-137306314D01*
X173865811Y-137297632D01*
X173870140Y-137289181D01*
X173874860Y-137280973D01*
X173879958Y-137273021D01*
X173885423Y-137265336D01*
X173891242Y-137257931D01*
X173897402Y-137250819D01*
X173903892Y-137244011D01*
X173910699Y-137237521D01*
X173917811Y-137231359D01*
X173925216Y-137225540D01*
X173932900Y-137220075D01*
X173940853Y-137214976D01*
X173949061Y-137210255D01*
X173957512Y-137205926D01*
X173966194Y-137202000D01*
X173975095Y-137198490D01*
X173984202Y-137195408D01*
X173993503Y-137192766D01*
X174002985Y-137190577D01*
X174012637Y-137188853D01*
X174022446Y-137187606D01*
X174032400Y-137186849D01*
X174042486Y-137186594D01*
X174052572Y-137186849D01*
G37*
G36*
X175790332Y-138414558D02*
G01*
X175800284Y-138415315D01*
X175810092Y-138416561D01*
X175819742Y-138418285D01*
X175829223Y-138420474D01*
X175838523Y-138423115D01*
X175847628Y-138426197D01*
X175856528Y-138429706D01*
X175865209Y-138433632D01*
X175873659Y-138437960D01*
X175881867Y-138442680D01*
X175889818Y-138447778D01*
X175897502Y-138453243D01*
X175904906Y-138459062D01*
X175912017Y-138465222D01*
X175918824Y-138471712D01*
X175925313Y-138478519D01*
X175931474Y-138485631D01*
X175937292Y-138493036D01*
X175942757Y-138500720D01*
X175947855Y-138508673D01*
X175952574Y-138516881D01*
X175956902Y-138525332D01*
X175960828Y-138534014D01*
X175964337Y-138542915D01*
X175967419Y-138552022D01*
X175970060Y-138561323D01*
X175972248Y-138570806D01*
X175973972Y-138580458D01*
X175975219Y-138590267D01*
X175975976Y-138600220D01*
X175976231Y-138610306D01*
X175976036Y-138619115D01*
X175975458Y-138627825D01*
X175974504Y-138636426D01*
X175973183Y-138644912D01*
X175971503Y-138653273D01*
X175969471Y-138661501D01*
X175967098Y-138669590D01*
X175964389Y-138677529D01*
X175961355Y-138685311D01*
X175958002Y-138692928D01*
X175954339Y-138700372D01*
X175950375Y-138707634D01*
X175946117Y-138714706D01*
X175941574Y-138721580D01*
X175931664Y-138734703D01*
X175920712Y-138746935D01*
X175908783Y-138758212D01*
X175895942Y-138768467D01*
X175882255Y-138777637D01*
X175875114Y-138781793D01*
X175867787Y-138785654D01*
X175860281Y-138789210D01*
X175852605Y-138792454D01*
X175844767Y-138795377D01*
X175836774Y-138797971D01*
X175828635Y-138800228D01*
X175820359Y-138802140D01*
X175820359Y-139946833D01*
X175287827Y-140433624D01*
X175312003Y-140467444D01*
X175334880Y-140502229D01*
X175356423Y-140537943D01*
X175376596Y-140574551D01*
X175395363Y-140612015D01*
X175412687Y-140650300D01*
X175428532Y-140689371D01*
X175442862Y-140729190D01*
X175455642Y-140769722D01*
X175466835Y-140810931D01*
X175476405Y-140852781D01*
X175484316Y-140895235D01*
X175490532Y-140938258D01*
X175495016Y-140981814D01*
X175497733Y-141025867D01*
X175498647Y-141070381D01*
X175497613Y-141117740D01*
X175494539Y-141164575D01*
X175489469Y-141210842D01*
X175482446Y-141256498D01*
X175473514Y-141301499D01*
X175462716Y-141345802D01*
X175450094Y-141389363D01*
X175435694Y-141432139D01*
X175419558Y-141474086D01*
X175401729Y-141515161D01*
X175361168Y-141594522D01*
X175314357Y-141669873D01*
X175261644Y-141740867D01*
X175203376Y-141807155D01*
X175139899Y-141868391D01*
X175071561Y-141924227D01*
X174998710Y-141974315D01*
X174921691Y-142018308D01*
X174881728Y-142037909D01*
X174840853Y-142055857D01*
X174799109Y-142072107D01*
X174756541Y-142086616D01*
X174713192Y-142099340D01*
X174669104Y-142110236D01*
X174669104Y-141945178D01*
X174704908Y-141934808D01*
X174740090Y-141923006D01*
X174774615Y-141909804D01*
X174808451Y-141895238D01*
X174841564Y-141879340D01*
X174873919Y-141862144D01*
X174905484Y-141843685D01*
X174936224Y-141823996D01*
X174966105Y-141803110D01*
X174995095Y-141781063D01*
X175023158Y-141757887D01*
X175050262Y-141733616D01*
X175076373Y-141708284D01*
X175101456Y-141681926D01*
X175125479Y-141654574D01*
X175148408Y-141626262D01*
X175170208Y-141597025D01*
X175190846Y-141566896D01*
X175210288Y-141535909D01*
X175228501Y-141504098D01*
X175245451Y-141471497D01*
X175261104Y-141438138D01*
X175275426Y-141404057D01*
X175288384Y-141369287D01*
X175299944Y-141333862D01*
X175310072Y-141297816D01*
X175318734Y-141261182D01*
X175325897Y-141223994D01*
X175331527Y-141186286D01*
X175335590Y-141148092D01*
X175338053Y-141109445D01*
X175338881Y-141070381D01*
X175338053Y-141031314D01*
X175335590Y-140992665D01*
X175331527Y-140954469D01*
X175325898Y-140916758D01*
X175318735Y-140879567D01*
X175310074Y-140842930D01*
X175299946Y-140806881D01*
X175288387Y-140771453D01*
X175261108Y-140702595D01*
X175228507Y-140636629D01*
X175190853Y-140573826D01*
X175148416Y-140514454D01*
X175101465Y-140458786D01*
X175050271Y-140407092D01*
X174995104Y-140359643D01*
X174936233Y-140316709D01*
X174873927Y-140278562D01*
X174808458Y-140245471D01*
X174740093Y-140217707D01*
X174704910Y-140205908D01*
X174669104Y-140195541D01*
X174669104Y-140030483D01*
X174710859Y-140040754D01*
X174751953Y-140052666D01*
X174792349Y-140066182D01*
X174832012Y-140081266D01*
X174870904Y-140097880D01*
X174908989Y-140115987D01*
X174946230Y-140135551D01*
X174982591Y-140156534D01*
X175018034Y-140178899D01*
X175052524Y-140202610D01*
X175086024Y-140227629D01*
X175118497Y-140253919D01*
X175149906Y-140281444D01*
X175180216Y-140310166D01*
X175209388Y-140340049D01*
X175237387Y-140371055D01*
X175740159Y-139911506D01*
X175740159Y-138802140D01*
X175731881Y-138800228D01*
X175723740Y-138797971D01*
X175715746Y-138795377D01*
X175707906Y-138792454D01*
X175700228Y-138789210D01*
X175692721Y-138785654D01*
X175685392Y-138781793D01*
X175678251Y-138777637D01*
X175671305Y-138773192D01*
X175664562Y-138768467D01*
X175658031Y-138763471D01*
X175651719Y-138758212D01*
X175645636Y-138752697D01*
X175639789Y-138746935D01*
X175634186Y-138740934D01*
X175628835Y-138734703D01*
X175623746Y-138728249D01*
X175618925Y-138721580D01*
X175614381Y-138714706D01*
X175610123Y-138707634D01*
X175606159Y-138700372D01*
X175602496Y-138692928D01*
X175599143Y-138685311D01*
X175596108Y-138677529D01*
X175593399Y-138669590D01*
X175591026Y-138661501D01*
X175588994Y-138653273D01*
X175587314Y-138644912D01*
X175585993Y-138636426D01*
X175585039Y-138627825D01*
X175584461Y-138619115D01*
X175584266Y-138610306D01*
X175584521Y-138600222D01*
X175585278Y-138590270D01*
X175586525Y-138580462D01*
X175588248Y-138570812D01*
X175590437Y-138561330D01*
X175593078Y-138552030D01*
X175596160Y-138542923D01*
X175599669Y-138534023D01*
X175603594Y-138525341D01*
X175607923Y-138516890D01*
X175612642Y-138508682D01*
X175617740Y-138500730D01*
X175623205Y-138493045D01*
X175629023Y-138485640D01*
X175635183Y-138478528D01*
X175641673Y-138471720D01*
X175648479Y-138465229D01*
X175655591Y-138459068D01*
X175662995Y-138453249D01*
X175670678Y-138447784D01*
X175678630Y-138442685D01*
X175686837Y-138437964D01*
X175695288Y-138433635D01*
X175703969Y-138429709D01*
X175712868Y-138426199D01*
X175721974Y-138423117D01*
X175731274Y-138420475D01*
X175740755Y-138418286D01*
X175750405Y-138416562D01*
X175760212Y-138415315D01*
X175770164Y-138414558D01*
X175780248Y-138414303D01*
X175790332Y-138414558D01*
G37*
G36*
X173097310Y-142263546D02*
G01*
X173031397Y-142263546D01*
X173031397Y-142131720D01*
X172833658Y-142131720D01*
X172833658Y-142263546D01*
X172767744Y-142263546D01*
X172767744Y-141934002D01*
X172833658Y-141934256D01*
X172833658Y-142065850D01*
X173031397Y-142065850D01*
X173031397Y-141934002D01*
X173097310Y-141934002D01*
X173097310Y-142263546D01*
G37*
G36*
X170004056Y-142263567D02*
G01*
X169674533Y-142263567D01*
X169674533Y-142197654D01*
X169938164Y-142197654D01*
X169938164Y-142131741D01*
X169674533Y-142131741D01*
X169674533Y-142065850D01*
X169938164Y-142065850D01*
X169938164Y-141999936D01*
X169674533Y-141999936D01*
X169674533Y-141934023D01*
X170004056Y-141934023D01*
X170004056Y-142263567D01*
G37*
G36*
X168139483Y-141146327D02*
G01*
X168612791Y-140210612D01*
X168857774Y-140210612D01*
X168857774Y-141413344D01*
X168618401Y-141413344D01*
X168618401Y-140732603D01*
X168274442Y-141413344D01*
X168004652Y-141413344D01*
X168004652Y-141412497D01*
X167660694Y-140731777D01*
X167660694Y-141413344D01*
X167421277Y-141413344D01*
X167421277Y-140210612D01*
X167666218Y-140210612D01*
X168139483Y-141146327D01*
G37*
G36*
X171718704Y-140451213D02*
G01*
X170960535Y-140451213D01*
X170936378Y-140451683D01*
X170913779Y-140453091D01*
X170892739Y-140455439D01*
X170873256Y-140458726D01*
X170855331Y-140462953D01*
X170838964Y-140468118D01*
X170824156Y-140474223D01*
X170810906Y-140481267D01*
X170804865Y-140485141D01*
X170799214Y-140489251D01*
X170793953Y-140493595D01*
X170789081Y-140498173D01*
X170784599Y-140502987D01*
X170780507Y-140508036D01*
X170776804Y-140513319D01*
X170773491Y-140518838D01*
X170770568Y-140524591D01*
X170768035Y-140530579D01*
X170765891Y-140536802D01*
X170764137Y-140543259D01*
X170762772Y-140549952D01*
X170761798Y-140556880D01*
X170761213Y-140564042D01*
X170761018Y-140571440D01*
X170761213Y-140578841D01*
X170761798Y-140586007D01*
X170762772Y-140592939D01*
X170764137Y-140599636D01*
X170765891Y-140606097D01*
X170768035Y-140612324D01*
X170770568Y-140618316D01*
X170773491Y-140624073D01*
X170776804Y-140629595D01*
X170780507Y-140634882D01*
X170784599Y-140639934D01*
X170789081Y-140644751D01*
X170793953Y-140649333D01*
X170799214Y-140653681D01*
X170804865Y-140657793D01*
X170810906Y-140661670D01*
X170817336Y-140665313D01*
X170824156Y-140668720D01*
X170831365Y-140671893D01*
X170838964Y-140674830D01*
X170846953Y-140677533D01*
X170855331Y-140680000D01*
X170864098Y-140682233D01*
X170873256Y-140684230D01*
X170882802Y-140685993D01*
X170892739Y-140687520D01*
X170903064Y-140688813D01*
X170913779Y-140689870D01*
X170924884Y-140690693D01*
X170936378Y-140691281D01*
X170948262Y-140691633D01*
X170960535Y-140691751D01*
X171718704Y-140691751D01*
X171718704Y-140932268D01*
X171362765Y-140932268D01*
X170800917Y-141413344D01*
X170432977Y-141413344D01*
X170994847Y-140932247D01*
X170920594Y-140932247D01*
X170872280Y-140930838D01*
X170827080Y-140926609D01*
X170805649Y-140923438D01*
X170784996Y-140919562D01*
X170765122Y-140914982D01*
X170746028Y-140909696D01*
X170727712Y-140903706D01*
X170710175Y-140897011D01*
X170693417Y-140889612D01*
X170677438Y-140881507D01*
X170662238Y-140872698D01*
X170647817Y-140863185D01*
X170634175Y-140852966D01*
X170621313Y-140842043D01*
X170609230Y-140830415D01*
X170597926Y-140818082D01*
X170587401Y-140805044D01*
X170577656Y-140791302D01*
X170568690Y-140776854D01*
X170560504Y-140761702D01*
X170553097Y-140745846D01*
X170546470Y-140729284D01*
X170540622Y-140712018D01*
X170535554Y-140694047D01*
X170531265Y-140675371D01*
X170527756Y-140655990D01*
X170525027Y-140635904D01*
X170523077Y-140615114D01*
X170521908Y-140593619D01*
X170521518Y-140571419D01*
X170521908Y-140549226D01*
X170523077Y-140527738D01*
X170525026Y-140506954D01*
X170527755Y-140486874D01*
X170531264Y-140467498D01*
X170535552Y-140448826D01*
X170540620Y-140430859D01*
X170546467Y-140413596D01*
X170553094Y-140397037D01*
X170560500Y-140381183D01*
X170568686Y-140366032D01*
X170577651Y-140351587D01*
X170587395Y-140337845D01*
X170597919Y-140324808D01*
X170609222Y-140312476D01*
X170621305Y-140300848D01*
X170634167Y-140289924D01*
X170647808Y-140279706D01*
X170662229Y-140270191D01*
X170677428Y-140261381D01*
X170693407Y-140253276D01*
X170710165Y-140245876D01*
X170727702Y-140239180D01*
X170746019Y-140233189D01*
X170765114Y-140227902D01*
X170784988Y-140223321D01*
X170805642Y-140219444D01*
X170827074Y-140216272D01*
X170849286Y-140213805D01*
X170872276Y-140212043D01*
X170896045Y-140210985D01*
X170920594Y-140210633D01*
X171718704Y-140210633D01*
X171718704Y-140451213D01*
G37*
G36*
X171519653Y-139919401D02*
G01*
X171258647Y-139919401D01*
X170869963Y-139018970D01*
X170480539Y-139919401D01*
X170220316Y-139919422D01*
X170739894Y-138716690D01*
X171000053Y-138716690D01*
X171519653Y-139919401D01*
G37*
G36*
X166858246Y-142144504D02*
G01*
X166858297Y-142147776D01*
X166858452Y-142150944D01*
X166858711Y-142154007D01*
X166859073Y-142156967D01*
X166859539Y-142159823D01*
X166860107Y-142162575D01*
X166860780Y-142165222D01*
X166861556Y-142167766D01*
X166862435Y-142170206D01*
X166863417Y-142172542D01*
X166864503Y-142174773D01*
X166865693Y-142176901D01*
X166866986Y-142178925D01*
X166868382Y-142180846D01*
X166869882Y-142182662D01*
X166871485Y-142184374D01*
X166873192Y-142185983D01*
X166875002Y-142187487D01*
X166876916Y-142188888D01*
X166878933Y-142190185D01*
X166881053Y-142191378D01*
X166883277Y-142192467D01*
X166885605Y-142193453D01*
X166888035Y-142194335D01*
X166890570Y-142195113D01*
X166893207Y-142195787D01*
X166895948Y-142196357D01*
X166898793Y-142196824D01*
X166901741Y-142197187D01*
X166904792Y-142197446D01*
X166907947Y-142197602D01*
X166911205Y-142197654D01*
X167003280Y-142197654D01*
X167006522Y-142197602D01*
X167009662Y-142197447D01*
X167012699Y-142197188D01*
X167015632Y-142196826D01*
X167018463Y-142196361D01*
X167021191Y-142195792D01*
X167023816Y-142195120D01*
X167026338Y-142194344D01*
X167028757Y-142193465D01*
X167031073Y-142192483D01*
X167033286Y-142191397D01*
X167035396Y-142190208D01*
X167037404Y-142188916D01*
X167039308Y-142187520D01*
X167041110Y-142186021D01*
X167042808Y-142184419D01*
X167044404Y-142182713D01*
X167045896Y-142180904D01*
X167047286Y-142178992D01*
X167048573Y-142176977D01*
X167049756Y-142174858D01*
X167050837Y-142172636D01*
X167051815Y-142170310D01*
X167052690Y-142167882D01*
X167053462Y-142165350D01*
X167054131Y-142162715D01*
X167054697Y-142159976D01*
X167055161Y-142157135D01*
X167055521Y-142154190D01*
X167055778Y-142151142D01*
X167055933Y-142147991D01*
X167055984Y-142144737D01*
X167055984Y-141934023D01*
X167121876Y-141934023D01*
X167121876Y-142153733D01*
X167121769Y-142160492D01*
X167121447Y-142167035D01*
X167120911Y-142173365D01*
X167120160Y-142179479D01*
X167119195Y-142185379D01*
X167118016Y-142191065D01*
X167116622Y-142196535D01*
X167115014Y-142201791D01*
X167113191Y-142206833D01*
X167111153Y-142211659D01*
X167108902Y-142216272D01*
X167106435Y-142220669D01*
X167103755Y-142224852D01*
X167100859Y-142228821D01*
X167097750Y-142232574D01*
X167094425Y-142236114D01*
X167090887Y-142239438D01*
X167087133Y-142242548D01*
X167083166Y-142245444D01*
X167078983Y-142248125D01*
X167074587Y-142250592D01*
X167069975Y-142252844D01*
X167065150Y-142254881D01*
X167060109Y-142256704D01*
X167054854Y-142258313D01*
X167049385Y-142259707D01*
X167043701Y-142260886D01*
X167037803Y-142261851D01*
X167031690Y-142262602D01*
X167025362Y-142263138D01*
X167018820Y-142263459D01*
X167012063Y-142263567D01*
X166902229Y-142263567D01*
X166895468Y-142263459D01*
X166888922Y-142263138D01*
X166882591Y-142262602D01*
X166876475Y-142261851D01*
X166870573Y-142260886D01*
X166864886Y-142259707D01*
X166859413Y-142258313D01*
X166854155Y-142256704D01*
X166849112Y-142254881D01*
X166844283Y-142252844D01*
X166839670Y-142250592D01*
X166835270Y-142248125D01*
X166831086Y-142245444D01*
X166827116Y-142242548D01*
X166823360Y-142239438D01*
X166819819Y-142236114D01*
X166816493Y-142232574D01*
X166813382Y-142228821D01*
X166810485Y-142224852D01*
X166807803Y-142220669D01*
X166805335Y-142216272D01*
X166803082Y-142211659D01*
X166801043Y-142206833D01*
X166799219Y-142201791D01*
X166797610Y-142196535D01*
X166796215Y-142191065D01*
X166795035Y-142185379D01*
X166794070Y-142179479D01*
X166793319Y-142173365D01*
X166792782Y-142167035D01*
X166792461Y-142160492D01*
X166792353Y-142153733D01*
X166792353Y-141934023D01*
X166858246Y-141934023D01*
X166858246Y-142144504D01*
G37*
G36*
X168707682Y-142263524D02*
G01*
X168487993Y-142263524D01*
X168481236Y-142263417D01*
X168474694Y-142263095D01*
X168468367Y-142262559D01*
X168462254Y-142261809D01*
X168456355Y-142260844D01*
X168450671Y-142259664D01*
X168445202Y-142258270D01*
X168439947Y-142256662D01*
X168434907Y-142254839D01*
X168430081Y-142252801D01*
X168425470Y-142250549D01*
X168421073Y-142248083D01*
X168416891Y-142245401D01*
X168412923Y-142242506D01*
X168409170Y-142239396D01*
X168405631Y-142236071D01*
X168402307Y-142232532D01*
X168399197Y-142228778D01*
X168396302Y-142224810D01*
X168393621Y-142220627D01*
X168391155Y-142216229D01*
X168388903Y-142211617D01*
X168386866Y-142206790D01*
X168385043Y-142201749D01*
X168383435Y-142196493D01*
X168382041Y-142191022D01*
X168380861Y-142185337D01*
X168379896Y-142179437D01*
X168379146Y-142173322D01*
X168378610Y-142166993D01*
X168378288Y-142160449D01*
X168378181Y-142153691D01*
X168378181Y-142051794D01*
X168444559Y-142051794D01*
X168444559Y-142145605D01*
X168444611Y-142148808D01*
X168444765Y-142151910D01*
X168445022Y-142154910D01*
X168445383Y-142157808D01*
X168445846Y-142160604D01*
X168446412Y-142163299D01*
X168447081Y-142165892D01*
X168447853Y-142168382D01*
X168448728Y-142170772D01*
X168449706Y-142173059D01*
X168450787Y-142175245D01*
X168451971Y-142177329D01*
X168453257Y-142179311D01*
X168454647Y-142181191D01*
X168456140Y-142182970D01*
X168457735Y-142184647D01*
X168459434Y-142186223D01*
X168461235Y-142187696D01*
X168463140Y-142189068D01*
X168465147Y-142190339D01*
X168467257Y-142191507D01*
X168469470Y-142192574D01*
X168471787Y-142193539D01*
X168474206Y-142194403D01*
X168476728Y-142195165D01*
X168479353Y-142195826D01*
X168482081Y-142196384D01*
X168484911Y-142196841D01*
X168487845Y-142197197D01*
X168490882Y-142197451D01*
X168497264Y-142197654D01*
X168641790Y-142197654D01*
X168641790Y-141999936D01*
X168497010Y-141999936D01*
X168493779Y-141999986D01*
X168490651Y-142000138D01*
X168487626Y-142000392D01*
X168484703Y-142000746D01*
X168481883Y-142001202D01*
X168479166Y-142001759D01*
X168476551Y-142002418D01*
X168474039Y-142003178D01*
X168471630Y-142004039D01*
X168469323Y-142005001D01*
X168467119Y-142006065D01*
X168465018Y-142007230D01*
X168463019Y-142008496D01*
X168461124Y-142009864D01*
X168459330Y-142011333D01*
X168457640Y-142012903D01*
X168456052Y-142014574D01*
X168454567Y-142016347D01*
X168453185Y-142018221D01*
X168451905Y-142020196D01*
X168450728Y-142022272D01*
X168449654Y-142024450D01*
X168448682Y-142026729D01*
X168447813Y-142029109D01*
X168447047Y-142031590D01*
X168446384Y-142034173D01*
X168445823Y-142036857D01*
X168445365Y-142039642D01*
X168445009Y-142042528D01*
X168444756Y-142045516D01*
X168444606Y-142048604D01*
X168444559Y-142051794D01*
X168378181Y-142051794D01*
X168378181Y-142043878D01*
X168378288Y-142037119D01*
X168378610Y-142030575D01*
X168379146Y-142024246D01*
X168379896Y-142018131D01*
X168380861Y-142012230D01*
X168382041Y-142006544D01*
X168383435Y-142001073D01*
X168385043Y-141995816D01*
X168386866Y-141990774D01*
X168388903Y-141985947D01*
X168391155Y-141981334D01*
X168393621Y-141976935D01*
X168396302Y-141972751D01*
X168399197Y-141968782D01*
X168402307Y-141965027D01*
X168405631Y-141961487D01*
X168409170Y-141958161D01*
X168412923Y-141955050D01*
X168416891Y-141952153D01*
X168421073Y-141949471D01*
X168425470Y-141947004D01*
X168430081Y-141944751D01*
X168434907Y-141942713D01*
X168439947Y-141940889D01*
X168445202Y-141939280D01*
X168450671Y-141937885D01*
X168456355Y-141936705D01*
X168462254Y-141935739D01*
X168468367Y-141934988D01*
X168474694Y-141934452D01*
X168481236Y-141934130D01*
X168487993Y-141934023D01*
X168707682Y-141933980D01*
X168707682Y-142263524D01*
G37*
G36*
X169102525Y-142263567D02*
G01*
X168773002Y-142263567D01*
X168773002Y-142197654D01*
X169036633Y-142197654D01*
X169036633Y-141934023D01*
X169102525Y-141934023D01*
X169102525Y-142263567D01*
G37*
G36*
X168311443Y-142263567D02*
G01*
X167981899Y-142263567D01*
X167981899Y-142197654D01*
X168245530Y-142197654D01*
X168245551Y-142197655D01*
X168245551Y-142131741D01*
X167981920Y-142131741D01*
X167981920Y-142065850D01*
X168245551Y-142065850D01*
X168245551Y-141999936D01*
X167981920Y-141999936D01*
X167981920Y-141934023D01*
X168311443Y-141934023D01*
X168311443Y-142263567D01*
G37*
G36*
X167212088Y-140932247D02*
G01*
X166014880Y-140932247D01*
X166014880Y-140691730D01*
X167212088Y-140691730D01*
X167212088Y-140932247D01*
G37*
G36*
X167516782Y-142263567D02*
G01*
X167450848Y-142197654D01*
X167450848Y-142131784D01*
X167297051Y-142131784D01*
X167294346Y-142131816D01*
X167291727Y-142131912D01*
X167289194Y-142132073D01*
X167286748Y-142132298D01*
X167284388Y-142132587D01*
X167282113Y-142132940D01*
X167279926Y-142133358D01*
X167277824Y-142133840D01*
X167275808Y-142134386D01*
X167273879Y-142134996D01*
X167272035Y-142135671D01*
X167270278Y-142136410D01*
X167268606Y-142137214D01*
X167267021Y-142138081D01*
X167265521Y-142139013D01*
X167264107Y-142140009D01*
X167262780Y-142141070D01*
X167261538Y-142142195D01*
X167260382Y-142143384D01*
X167259311Y-142144638D01*
X167258327Y-142145955D01*
X167257428Y-142147337D01*
X167256615Y-142148784D01*
X167255888Y-142150295D01*
X167255246Y-142151870D01*
X167254690Y-142153509D01*
X167254220Y-142155213D01*
X167253835Y-142156981D01*
X167253536Y-142158814D01*
X167253322Y-142160711D01*
X167253194Y-142162672D01*
X167253151Y-142164698D01*
X167253205Y-142166725D01*
X167253366Y-142168688D01*
X167253634Y-142170587D01*
X167254009Y-142172422D01*
X167254492Y-142174192D01*
X167255082Y-142175898D01*
X167255779Y-142177539D01*
X167256584Y-142179116D01*
X167257495Y-142180629D01*
X167258514Y-142182077D01*
X167259641Y-142183461D01*
X167260874Y-142184780D01*
X167262215Y-142186036D01*
X167263663Y-142187226D01*
X167265218Y-142188353D01*
X167266880Y-142189415D01*
X167270527Y-142191346D01*
X167274602Y-142193020D01*
X167279106Y-142194436D01*
X167284039Y-142195594D01*
X167289401Y-142196496D01*
X167295191Y-142197139D01*
X167301410Y-142197525D01*
X167308058Y-142197654D01*
X167450848Y-142197654D01*
X167516782Y-142263568D01*
X167297051Y-142263568D01*
X167290294Y-142263471D01*
X167283752Y-142263181D01*
X167277424Y-142262699D01*
X167271310Y-142262023D01*
X167265411Y-142261154D01*
X167259727Y-142260092D01*
X167254257Y-142258837D01*
X167249001Y-142257388D01*
X167243960Y-142255747D01*
X167239133Y-142253912D01*
X167234521Y-142251885D01*
X167230124Y-142249664D01*
X167225940Y-142247250D01*
X167221972Y-142244643D01*
X167218217Y-142241843D01*
X167214678Y-142238850D01*
X167211353Y-142235664D01*
X167208242Y-142232285D01*
X167205346Y-142228712D01*
X167202664Y-142224947D01*
X167200197Y-142220988D01*
X167197944Y-142216836D01*
X167195906Y-142212492D01*
X167194082Y-142207954D01*
X167192473Y-142203223D01*
X167191079Y-142198298D01*
X167189898Y-142193181D01*
X167188933Y-142187871D01*
X167188182Y-142182367D01*
X167187646Y-142176671D01*
X167187324Y-142170781D01*
X167187217Y-142164698D01*
X167187249Y-142161310D01*
X167187346Y-142158008D01*
X167187508Y-142154791D01*
X167187734Y-142151660D01*
X167188025Y-142148615D01*
X167188381Y-142145655D01*
X167188801Y-142142781D01*
X167189286Y-142139993D01*
X167189835Y-142137291D01*
X167190449Y-142134674D01*
X167191127Y-142132143D01*
X167191870Y-142129698D01*
X167192677Y-142127338D01*
X167193549Y-142125065D01*
X167194485Y-142122877D01*
X167195485Y-142120775D01*
X167196549Y-142118758D01*
X167197678Y-142116828D01*
X167198871Y-142114983D01*
X167200128Y-142113224D01*
X167201450Y-142111550D01*
X167202836Y-142109963D01*
X167204285Y-142108461D01*
X167205799Y-142107045D01*
X167207377Y-142105715D01*
X167209019Y-142104471D01*
X167210725Y-142103312D01*
X167212495Y-142102239D01*
X167214329Y-142101252D01*
X167216227Y-142100351D01*
X167218189Y-142099536D01*
X167220215Y-142098806D01*
X167216224Y-142097265D01*
X167212489Y-142095378D01*
X167209011Y-142093148D01*
X167205790Y-142090573D01*
X167202826Y-142087654D01*
X167200119Y-142084391D01*
X167197669Y-142080785D01*
X167195477Y-142076835D01*
X167193542Y-142072542D01*
X167191864Y-142067906D01*
X167190445Y-142062926D01*
X167189283Y-142057604D01*
X167188379Y-142051940D01*
X167187733Y-142045933D01*
X167187346Y-142039584D01*
X167187217Y-142032893D01*
X167187217Y-142032872D01*
X167253151Y-142032872D01*
X167253194Y-142034900D01*
X167253322Y-142036863D01*
X167253536Y-142038763D01*
X167253835Y-142040598D01*
X167254220Y-142042369D01*
X167254690Y-142044076D01*
X167255246Y-142045719D01*
X167255888Y-142047297D01*
X167256615Y-142048811D01*
X167257428Y-142050261D01*
X167258327Y-142051647D01*
X167259311Y-142052968D01*
X167260382Y-142054225D01*
X167261538Y-142055418D01*
X167262780Y-142056547D01*
X167264107Y-142057611D01*
X167265521Y-142058610D01*
X167267021Y-142059546D01*
X167268606Y-142060416D01*
X167270278Y-142061223D01*
X167272035Y-142061965D01*
X167273879Y-142062643D01*
X167277824Y-142063804D01*
X167282113Y-142064708D01*
X167286748Y-142065354D01*
X167291727Y-142065742D01*
X167297051Y-142065871D01*
X167450848Y-142065828D01*
X167450848Y-141999916D01*
X167308058Y-141999916D01*
X167304676Y-141999948D01*
X167301403Y-142000045D01*
X167298237Y-142000206D01*
X167295179Y-142000432D01*
X167292228Y-142000723D01*
X167289385Y-142001078D01*
X167286649Y-142001497D01*
X167284021Y-142001981D01*
X167281501Y-142002530D01*
X167279087Y-142003142D01*
X167276782Y-142003820D01*
X167274583Y-142004561D01*
X167272493Y-142005367D01*
X167270509Y-142006237D01*
X167268633Y-142007172D01*
X167266865Y-142008171D01*
X167265203Y-142009234D01*
X167263649Y-142010361D01*
X167262202Y-142011552D01*
X167260863Y-142012808D01*
X167259631Y-142014128D01*
X167258506Y-142015511D01*
X167257488Y-142016959D01*
X167256578Y-142018471D01*
X167255774Y-142020048D01*
X167255078Y-142021688D01*
X167254489Y-142023392D01*
X167254007Y-142025160D01*
X167253633Y-142026992D01*
X167253365Y-142028888D01*
X167253204Y-142030848D01*
X167253151Y-142032872D01*
X167187217Y-142032872D01*
X167187324Y-142026814D01*
X167187646Y-142020927D01*
X167188182Y-142015234D01*
X167188933Y-142009732D01*
X167189898Y-142004424D01*
X167191078Y-141999308D01*
X167192473Y-141994385D01*
X167194082Y-141989655D01*
X167195906Y-141985118D01*
X167197944Y-141980773D01*
X167200197Y-141976622D01*
X167202664Y-141972663D01*
X167205345Y-141968897D01*
X167208242Y-141965324D01*
X167211352Y-141961944D01*
X167214678Y-141958757D01*
X167218217Y-141955763D01*
X167221971Y-141952961D01*
X167225940Y-141950353D01*
X167230123Y-141947938D01*
X167234521Y-141945716D01*
X167239133Y-141943687D01*
X167243960Y-141941851D01*
X167249001Y-141940209D01*
X167254257Y-141938759D01*
X167259727Y-141937503D01*
X167265411Y-141936440D01*
X167271310Y-141935570D01*
X167283751Y-141934410D01*
X167297051Y-141934024D01*
X167516781Y-141934024D01*
X167516782Y-141934023D01*
X167516782Y-142065828D01*
X167516782Y-142263567D01*
G37*
G36*
X170314677Y-141413344D02*
G01*
X170053692Y-141413344D01*
X169665008Y-140512893D01*
X169275499Y-141413344D01*
X169015318Y-141413344D01*
X169534896Y-140210612D01*
X169795056Y-140210612D01*
X170314677Y-141413344D01*
G37*
G36*
X170063068Y-139919401D02*
G01*
X169823610Y-139919401D01*
X169823610Y-138716690D01*
X170063068Y-138716690D01*
X170063068Y-139919401D01*
G37*
G36*
X172714893Y-142263567D02*
G01*
X172643032Y-142263567D01*
X172614500Y-142197654D01*
X172457422Y-142197654D01*
X172428847Y-142263567D01*
X172357219Y-142263567D01*
X172414422Y-142131783D01*
X172486186Y-142131783D01*
X172585881Y-142131783D01*
X172600186Y-142164709D01*
X172585882Y-142131783D01*
X172536034Y-142016848D01*
X172486186Y-142131783D01*
X172414422Y-142131783D01*
X172500263Y-141934023D01*
X172571848Y-141934023D01*
X172671982Y-142164709D01*
X172714893Y-142263567D01*
G37*
G36*
X171134822Y-142263567D02*
G01*
X171068930Y-142263567D01*
X171068930Y-142131762D01*
X170915133Y-142131762D01*
X170908376Y-142131665D01*
X170901834Y-142131375D01*
X170895506Y-142130893D01*
X170889393Y-142130217D01*
X170883494Y-142129348D01*
X170877809Y-142128286D01*
X170872339Y-142127031D01*
X170867084Y-142125582D01*
X170862043Y-142123941D01*
X170857216Y-142122106D01*
X170852604Y-142120079D01*
X170848206Y-142117858D01*
X170844023Y-142115444D01*
X170840055Y-142112837D01*
X170836300Y-142110038D01*
X170832761Y-142107044D01*
X170829435Y-142103858D01*
X170826325Y-142100479D01*
X170823428Y-142096906D01*
X170820747Y-142093141D01*
X170818280Y-142089182D01*
X170816027Y-142085031D01*
X170813989Y-142080686D01*
X170812165Y-142076148D01*
X170810556Y-142071417D01*
X170809161Y-142066493D01*
X170807981Y-142061375D01*
X170807016Y-142056065D01*
X170806265Y-142050561D01*
X170805729Y-142044865D01*
X170805407Y-142038975D01*
X170805299Y-142032892D01*
X170805299Y-142032871D01*
X170871191Y-142032871D01*
X170871244Y-142034899D01*
X170871405Y-142036863D01*
X170871674Y-142038762D01*
X170872050Y-142040597D01*
X170872533Y-142042369D01*
X170873124Y-142044075D01*
X170873821Y-142045718D01*
X170874627Y-142047297D01*
X170875539Y-142048811D01*
X170876559Y-142050261D01*
X170877687Y-142051646D01*
X170878921Y-142052968D01*
X170880263Y-142054225D01*
X170881713Y-142055418D01*
X170883269Y-142056546D01*
X170884933Y-142057610D01*
X170888582Y-142059545D01*
X170892661Y-142061222D01*
X170897169Y-142062642D01*
X170902105Y-142063804D01*
X170907470Y-142064708D01*
X170913265Y-142065353D01*
X170919488Y-142065741D01*
X170926139Y-142065870D01*
X171068887Y-142065828D01*
X171068887Y-141999915D01*
X170926139Y-141999915D01*
X170922754Y-141999947D01*
X170919477Y-142000044D01*
X170916308Y-142000206D01*
X170913247Y-142000432D01*
X170910293Y-142000722D01*
X170907447Y-142001077D01*
X170904709Y-142001497D01*
X170902079Y-142001981D01*
X170899556Y-142002529D01*
X170897141Y-142003142D01*
X170894833Y-142003819D01*
X170892633Y-142004561D01*
X170890541Y-142005366D01*
X170888556Y-142006237D01*
X170886679Y-142007171D01*
X170884909Y-142008170D01*
X170883247Y-142009233D01*
X170881692Y-142010360D01*
X170880245Y-142011552D01*
X170878905Y-142012807D01*
X170877672Y-142014127D01*
X170876547Y-142015511D01*
X170875529Y-142016959D01*
X170874618Y-142018471D01*
X170873814Y-142020047D01*
X170873118Y-142021687D01*
X170872529Y-142023391D01*
X170872047Y-142025159D01*
X170871672Y-142026992D01*
X170871405Y-142028888D01*
X170871244Y-142030848D01*
X170871191Y-142032871D01*
X170805299Y-142032871D01*
X170805407Y-142026813D01*
X170805729Y-142020927D01*
X170806265Y-142015233D01*
X170807016Y-142009732D01*
X170807981Y-142004423D01*
X170809161Y-141999308D01*
X170810556Y-141994385D01*
X170812165Y-141989655D01*
X170813989Y-141985117D01*
X170816027Y-141980773D01*
X170818279Y-141976621D01*
X170820747Y-141972662D01*
X170823428Y-141968896D01*
X170826324Y-141965323D01*
X170829435Y-141961943D01*
X170832760Y-141958756D01*
X170836300Y-141955762D01*
X170840054Y-141952961D01*
X170844023Y-141950353D01*
X170848206Y-141947938D01*
X170852604Y-141945716D01*
X170857216Y-141943687D01*
X170862043Y-141941851D01*
X170867084Y-141940208D01*
X170872339Y-141938759D01*
X170877809Y-141937502D01*
X170883494Y-141936439D01*
X170889393Y-141935569D01*
X170901834Y-141934410D01*
X170915133Y-141934023D01*
X171134822Y-141934023D01*
X171134822Y-142065828D01*
X171134822Y-142263567D01*
G37*
G36*
X173114963Y-141413344D02*
G01*
X172875526Y-141413344D01*
X172875526Y-140932247D01*
X171917819Y-140932247D01*
X171917819Y-140691730D01*
X172875526Y-140691730D01*
X172875526Y-140451192D01*
X171917819Y-140451192D01*
X171917819Y-140210612D01*
X173114963Y-140210612D01*
X173114963Y-141413344D01*
G37*
G36*
X171858594Y-142082740D02*
G01*
X171858594Y-141934023D01*
X171924507Y-141934023D01*
X171924507Y-142263567D01*
X171858594Y-142263567D01*
X171858594Y-142114850D01*
X171693388Y-142263567D01*
X171594963Y-142263567D01*
X171777738Y-142098806D01*
X171594963Y-141934023D01*
X171693388Y-141934023D01*
X171858594Y-142082740D01*
G37*
G36*
X175039966Y-141178778D02*
G01*
X175039331Y-141195013D01*
X175042570Y-141211375D01*
X175049957Y-141226721D01*
X175061831Y-141240966D01*
X175074362Y-141250110D01*
X175088184Y-141257900D01*
X175102302Y-141264440D01*
X175117098Y-141269837D01*
X175129734Y-141278410D01*
X175132380Y-141290242D01*
X175117098Y-141334544D01*
X175097349Y-141377237D01*
X175087062Y-141384243D01*
X175072161Y-141382338D01*
X175057577Y-141375924D01*
X175042464Y-141371246D01*
X175027161Y-141368007D01*
X175011772Y-141366102D01*
X174993230Y-141368854D01*
X174977059Y-141375119D01*
X174962898Y-141384750D01*
X174952611Y-141397407D01*
X174945372Y-141411674D01*
X174942049Y-141428056D01*
X174943065Y-141445371D01*
X174948251Y-141462770D01*
X174956442Y-141476104D01*
X174965925Y-141488212D01*
X174976678Y-141499748D01*
X174988362Y-141510183D01*
X174996405Y-141522756D01*
X174994183Y-141535012D01*
X174962983Y-141569852D01*
X174928143Y-141602237D01*
X174915760Y-141604565D01*
X174902764Y-141597241D01*
X174891821Y-141586171D01*
X174879883Y-141575926D01*
X174867056Y-141567141D01*
X174853022Y-141559839D01*
X174834946Y-141555119D01*
X174817716Y-141554781D01*
X174801037Y-141558464D01*
X174786432Y-141566211D01*
X174773923Y-141576942D01*
X174764588Y-141590954D01*
X174758873Y-141606914D01*
X174756947Y-141625265D01*
X174759360Y-141640463D01*
X174763085Y-141655470D01*
X174768588Y-141670097D01*
X174775425Y-141683982D01*
X174777774Y-141698524D01*
X174771340Y-141709044D01*
X174771234Y-141708917D01*
X174728498Y-141729364D01*
X174683964Y-141746064D01*
X174671475Y-141743863D01*
X174662247Y-141732073D01*
X174656637Y-141717510D01*
X174649123Y-141703752D01*
X174640826Y-141690819D01*
X174630899Y-141678733D01*
X174616231Y-141667790D01*
X174599996Y-141660805D01*
X174583189Y-141658117D01*
X174566870Y-141659874D01*
X174551207Y-141664912D01*
X174537385Y-141674309D01*
X174525510Y-141687179D01*
X174516430Y-141703223D01*
X174512874Y-141718082D01*
X174510503Y-141733322D01*
X174509677Y-141748859D01*
X174510694Y-141764501D01*
X174507349Y-141778852D01*
X174497062Y-141785858D01*
X174449480Y-141788970D01*
X174401728Y-141787636D01*
X174391462Y-141781012D01*
X174387588Y-141766470D01*
X174387927Y-141750743D01*
X174386657Y-141735461D01*
X174383800Y-141720199D01*
X174379440Y-141705467D01*
X174369999Y-141689635D01*
X174357892Y-141677464D01*
X174343435Y-141668785D01*
X174327518Y-141663748D01*
X174310902Y-141663007D01*
X174294413Y-141666224D01*
X174278580Y-141673442D01*
X174264039Y-141685041D01*
X174254916Y-141697382D01*
X174246978Y-141710929D01*
X174240248Y-141724877D01*
X174234829Y-141739292D01*
X174226087Y-141751674D01*
X174213937Y-141754363D01*
X174168768Y-141739292D01*
X174125376Y-141719861D01*
X174118200Y-141709743D01*
X174120063Y-141695223D01*
X174126604Y-141680936D01*
X174131387Y-141666098D01*
X174134753Y-141651006D01*
X174136721Y-141635914D01*
X174133800Y-141617625D01*
X174127514Y-141601856D01*
X174117904Y-141588268D01*
X174104781Y-141577832D01*
X174090113Y-141570762D01*
X174073391Y-141567523D01*
X174055632Y-141568412D01*
X174038001Y-141573619D01*
X174024412Y-141581663D01*
X174012177Y-141590828D01*
X174000409Y-141601390D01*
X173989825Y-141612841D01*
X173977019Y-141620736D01*
X173964700Y-141618768D01*
X173928823Y-141587907D01*
X173896184Y-141553617D01*
X173893453Y-141541657D01*
X173901073Y-141528851D01*
X173912567Y-141517929D01*
X173922706Y-141506288D01*
X173931765Y-141493842D01*
X173939067Y-141480168D01*
X173943978Y-141462367D01*
X173944126Y-141445434D01*
X173940549Y-141429136D01*
X173932569Y-141414827D01*
X173921710Y-141402487D01*
X173907296Y-141393407D01*
X173891167Y-141387692D01*
X173872329Y-141385893D01*
X173856962Y-141388179D01*
X173841616Y-141391820D01*
X173826968Y-141397027D01*
X173812512Y-141403800D01*
X173797611Y-141406298D01*
X173787239Y-141399736D01*
X173765945Y-141357911D01*
X173749096Y-141314265D01*
X173751361Y-141301989D01*
X173763278Y-141292823D01*
X173778179Y-141287447D01*
X173792234Y-141280102D01*
X173805315Y-141272037D01*
X173817634Y-141262301D01*
X173828788Y-141247908D01*
X173835816Y-141231885D01*
X173838610Y-141215523D01*
X173836959Y-141199457D01*
X173831794Y-141184111D01*
X173822248Y-141170544D01*
X173809082Y-141158860D01*
X173792636Y-141149822D01*
X173777586Y-141146477D01*
X173761923Y-141144213D01*
X173746112Y-141143387D01*
X173730152Y-141144382D01*
X173715632Y-141140995D01*
X173708477Y-141130877D01*
X173705154Y-141084311D01*
X173706488Y-141037448D01*
X173713283Y-141027224D01*
X173728205Y-141023541D01*
X173744080Y-141023964D01*
X173759785Y-141022631D01*
X173775343Y-141019837D01*
X173790223Y-141015667D01*
X173806395Y-141006397D01*
X173818904Y-140994459D01*
X173827646Y-140980341D01*
X173828057Y-140979093D01*
X173913075Y-140979093D01*
X174043145Y-141162819D01*
X174080567Y-141137314D01*
X174249689Y-141376180D01*
X174212203Y-141401665D01*
X174342272Y-141585306D01*
X174623090Y-141394108D01*
X174493063Y-141210360D01*
X174455598Y-141235887D01*
X174429584Y-141199142D01*
X174467050Y-141173679D01*
X174523205Y-141135409D01*
X174560649Y-141109903D01*
X174586662Y-141146627D01*
X174549197Y-141172133D01*
X174679267Y-141355838D01*
X174960106Y-141164640D01*
X174830079Y-140980935D01*
X174792614Y-141006440D01*
X174623556Y-140767617D01*
X174661000Y-140742111D01*
X174530952Y-140558385D01*
X174534230Y-140540227D01*
X174530951Y-140558384D01*
X174250091Y-140749646D01*
X174380160Y-140933352D01*
X174417583Y-140907825D01*
X174443597Y-140944570D01*
X174312554Y-141033809D01*
X174286540Y-140997042D01*
X174323984Y-140971600D01*
X174193893Y-140787873D01*
X173913075Y-140979093D01*
X173828057Y-140979093D01*
X173832769Y-140964784D01*
X173833510Y-140948464D01*
X173830356Y-140932229D01*
X173822863Y-140916736D01*
X173811051Y-140902469D01*
X173798584Y-140893452D01*
X173784995Y-140885536D01*
X173770771Y-140878890D01*
X173755680Y-140873704D01*
X173743212Y-140865173D01*
X173740376Y-140853299D01*
X173755806Y-140808933D01*
X173775470Y-140766452D01*
X173785779Y-140759425D01*
X173800595Y-140761267D01*
X173815200Y-140767637D01*
X173830292Y-140772336D01*
X173845765Y-140775596D01*
X173861174Y-140777522D01*
X173879695Y-140774791D01*
X173896036Y-140768230D01*
X173909836Y-140758832D01*
X173920229Y-140746301D01*
X173927510Y-140731844D01*
X173930812Y-140715461D01*
X173929796Y-140698104D01*
X173924462Y-140680790D01*
X173916419Y-140667413D01*
X173907021Y-140655433D01*
X173896501Y-140643706D01*
X173884478Y-140633335D01*
X173876520Y-140620889D01*
X173878742Y-140608654D01*
X173910196Y-140573412D01*
X173944909Y-140541640D01*
X173956953Y-140539037D01*
X173970140Y-140546424D01*
X173981167Y-140557833D01*
X173993000Y-140567654D01*
X174006123Y-140576396D01*
X174019712Y-140583826D01*
X174037979Y-140588610D01*
X174055166Y-140588821D01*
X174071867Y-140585266D01*
X174086429Y-140577413D01*
X174099002Y-140566787D01*
X174108252Y-140552690D01*
X174114052Y-140536815D01*
X174115766Y-140518442D01*
X174113777Y-140503117D01*
X174109755Y-140488153D01*
X174104400Y-140473929D01*
X174097478Y-140459768D01*
X174094959Y-140445163D01*
X174101754Y-140434898D01*
X174144616Y-140413921D01*
X174188897Y-140397559D01*
X174201364Y-140399761D01*
X174210508Y-140411445D01*
X174216456Y-140425923D01*
X174223695Y-140439850D01*
X174231929Y-140452656D01*
X174241750Y-140464848D01*
X174256546Y-140475728D01*
X174272760Y-140482712D01*
X174289566Y-140485401D01*
X174305822Y-140483856D01*
X174321422Y-140478649D01*
X174335583Y-140469018D01*
X174347309Y-140456424D01*
X174356390Y-140440401D01*
X174359925Y-140425563D01*
X174362126Y-140410281D01*
X174362930Y-140394766D01*
X174361914Y-140379103D01*
X174365343Y-140364836D01*
X174375651Y-140357831D01*
X174423276Y-140354507D01*
X174470901Y-140355925D01*
X174481379Y-140362614D01*
X174485062Y-140377134D01*
X174485083Y-140392586D01*
X174486459Y-140407995D01*
X174489041Y-140423405D01*
X174493317Y-140438010D01*
X174502799Y-140453863D01*
X174515012Y-140466182D01*
X174529384Y-140474734D01*
X174545130Y-140479855D01*
X174545131Y-140479852D01*
X174561789Y-140480572D01*
X174578447Y-140477418D01*
X174594238Y-140470052D01*
X174608779Y-140458474D01*
X174617987Y-140446261D01*
X174626093Y-140432926D01*
X174632697Y-140419062D01*
X174637989Y-140404245D01*
X174646752Y-140391820D01*
X174658902Y-140389153D01*
X174704114Y-140404308D01*
X174747463Y-140423633D01*
X174754617Y-140433751D01*
X174752649Y-140448377D01*
X174746257Y-140462622D01*
X174741346Y-140477524D01*
X174738192Y-140492616D01*
X174736139Y-140507602D01*
X174739060Y-140525891D01*
X174745601Y-140542041D01*
X174755189Y-140555566D01*
X174768080Y-140565684D01*
X174782748Y-140572923D01*
X174799364Y-140576056D01*
X174817144Y-140575189D01*
X174834860Y-140569897D01*
X174848428Y-140562044D01*
X174860768Y-140552774D01*
X174872685Y-140542444D01*
X174883036Y-140530612D01*
X174895926Y-140522865D01*
X174908414Y-140525088D01*
X174944144Y-140555906D01*
X174977015Y-140589858D01*
X174979407Y-140601838D01*
X174971809Y-140614623D01*
X174960548Y-140625397D01*
X174950155Y-140637250D01*
X174941371Y-140650013D01*
X174933794Y-140663349D01*
X174928989Y-140681256D01*
X174928650Y-140698168D01*
X174932396Y-140714488D01*
X174940313Y-140728839D01*
X174951256Y-140741115D01*
X174965459Y-140750154D01*
X174981842Y-140755868D01*
X175000532Y-140757582D01*
X175016174Y-140755635D01*
X175031223Y-140751677D01*
X175046125Y-140746279D01*
X175060349Y-140739654D01*
X175075229Y-140737177D01*
X175085918Y-140743697D01*
X175106915Y-140785861D01*
X175123976Y-140829570D01*
X175121563Y-140841572D01*
X175109561Y-140850610D01*
X175094893Y-140856346D01*
X175080711Y-140863479D01*
X175067524Y-140871607D01*
X175055205Y-140881133D01*
X175043945Y-140895610D01*
X175036917Y-140911633D01*
X175034166Y-140928122D01*
X175035880Y-140944018D01*
X175041278Y-140959745D01*
X175050887Y-140973271D01*
X175063735Y-140984616D01*
X175080203Y-140993612D01*
X175095337Y-140997125D01*
X175110789Y-140999327D01*
X175126727Y-141000089D01*
X175142560Y-140999136D01*
X175157186Y-141002438D01*
X175164319Y-141012577D01*
X175167748Y-141059229D01*
X175166352Y-141105965D01*
X175159557Y-141116231D01*
X175144656Y-141119914D01*
X175128887Y-141119935D01*
X175113287Y-141121205D01*
X175097560Y-141123745D01*
X175082574Y-141127809D01*
X175066445Y-141137080D01*
X175054000Y-141149145D01*
X175045067Y-141163199D01*
X175044596Y-141164640D01*
X175039966Y-141178778D01*
G37*
G36*
X167212108Y-141413344D02*
G01*
X166014901Y-141413344D01*
X166014901Y-141172764D01*
X167212108Y-141172764D01*
X167212108Y-141413344D01*
G37*
G36*
X170794524Y-142263567D02*
G01*
X170722663Y-142263567D01*
X170694088Y-142197654D01*
X170537054Y-142197654D01*
X170508478Y-142263567D01*
X170436829Y-142263567D01*
X170494032Y-142131783D01*
X170565797Y-142131783D01*
X170665471Y-142131783D01*
X170615645Y-142016848D01*
X170565797Y-142131783D01*
X170494032Y-142131783D01*
X170579873Y-141934023D01*
X170651480Y-141934023D01*
X170737321Y-142131783D01*
X170794524Y-142263567D01*
G37*
G36*
X175650042Y-137680021D02*
G01*
X175659422Y-137680858D01*
X175668763Y-137682145D01*
X175678048Y-137683883D01*
X175687260Y-137686071D01*
X175696381Y-137688711D01*
X175705393Y-137691802D01*
X175714280Y-137695346D01*
X175723024Y-137699343D01*
X175731607Y-137703793D01*
X175740012Y-137708697D01*
X175748222Y-137714056D01*
X175756220Y-137719869D01*
X175763987Y-137726139D01*
X175771506Y-137732864D01*
X175777788Y-137739041D01*
X175783734Y-137745430D01*
X175789344Y-137752019D01*
X175794618Y-137758796D01*
X175799556Y-137765749D01*
X175804157Y-137772867D01*
X175808421Y-137780139D01*
X175812347Y-137787552D01*
X175815935Y-137795096D01*
X175819185Y-137802758D01*
X175822096Y-137810527D01*
X175824668Y-137818391D01*
X175826901Y-137826340D01*
X175828795Y-137834360D01*
X175830348Y-137842441D01*
X175831561Y-137850571D01*
X175832434Y-137858739D01*
X175832965Y-137866932D01*
X175833155Y-137875140D01*
X175833003Y-137883351D01*
X175832509Y-137891552D01*
X175831673Y-137899733D01*
X175830494Y-137907882D01*
X175828972Y-137915988D01*
X175827106Y-137924038D01*
X175824896Y-137932021D01*
X175822343Y-137939926D01*
X175819444Y-137947740D01*
X175816201Y-137955454D01*
X175812613Y-137963054D01*
X175808679Y-137970529D01*
X175804399Y-137977868D01*
X176470853Y-138604867D01*
X176470853Y-141133182D01*
X175791339Y-141844742D01*
X175796004Y-141851840D01*
X175800332Y-141859093D01*
X175804320Y-141866489D01*
X175807970Y-141874016D01*
X175814254Y-141889419D01*
X175819180Y-141905209D01*
X175822746Y-141921293D01*
X175824950Y-141937579D01*
X175825789Y-141953974D01*
X175825262Y-141970385D01*
X175823365Y-141986719D01*
X175820098Y-142002884D01*
X175815457Y-142018787D01*
X175812620Y-142026611D01*
X175809440Y-142034334D01*
X175805915Y-142041946D01*
X175802045Y-142049435D01*
X175797830Y-142056788D01*
X175793270Y-142063995D01*
X175788364Y-142071043D01*
X175783112Y-142077921D01*
X175777514Y-142084618D01*
X175771570Y-142091123D01*
X175764419Y-142098240D01*
X175756998Y-142104915D01*
X175749322Y-142111147D01*
X175741409Y-142116937D01*
X175733278Y-142122283D01*
X175724944Y-142127185D01*
X175716427Y-142131644D01*
X175707742Y-142135657D01*
X175698907Y-142139226D01*
X175689941Y-142142349D01*
X175680860Y-142145026D01*
X175671681Y-142147258D01*
X175662422Y-142149042D01*
X175653101Y-142150380D01*
X175643735Y-142151270D01*
X175634341Y-142151712D01*
X175624937Y-142151706D01*
X175615540Y-142151252D01*
X175606167Y-142150348D01*
X175596837Y-142148995D01*
X175587565Y-142147192D01*
X175578371Y-142144939D01*
X175569270Y-142142236D01*
X175560282Y-142139081D01*
X175551422Y-142135475D01*
X175542708Y-142131417D01*
X175534159Y-142126906D01*
X175525790Y-142121943D01*
X175517621Y-142116527D01*
X175509667Y-142110658D01*
X175501947Y-142104334D01*
X175494477Y-142097557D01*
X175487360Y-142090405D01*
X175480685Y-142082981D01*
X175474453Y-142075304D01*
X175468664Y-142067390D01*
X175463318Y-142059256D01*
X175458416Y-142050922D01*
X175453959Y-142042402D01*
X175449946Y-142033716D01*
X175446378Y-142024881D01*
X175443256Y-142015913D01*
X175440580Y-142006831D01*
X175438350Y-141997651D01*
X175436567Y-141988391D01*
X175435230Y-141979069D01*
X175434342Y-141969702D01*
X175433901Y-141960307D01*
X175433908Y-141950902D01*
X175434364Y-141941504D01*
X175435269Y-141932130D01*
X175436624Y-141922798D01*
X175438429Y-141913526D01*
X175440683Y-141904330D01*
X175443389Y-141895229D01*
X175446545Y-141886239D01*
X175450154Y-141877378D01*
X175454213Y-141868663D01*
X175458726Y-141860112D01*
X175463690Y-141851742D01*
X175469108Y-141843571D01*
X175474980Y-141835616D01*
X175481305Y-141827893D01*
X175488085Y-141820422D01*
X175494311Y-141814186D01*
X175500745Y-141808289D01*
X175507377Y-141802728D01*
X175514194Y-141797506D01*
X175521184Y-141792621D01*
X175528337Y-141788074D01*
X175535641Y-141783866D01*
X175543083Y-141779996D01*
X175550653Y-141776466D01*
X175558339Y-141773274D01*
X175566130Y-141770422D01*
X175574012Y-141767910D01*
X175581977Y-141765737D01*
X175590010Y-141763905D01*
X175598102Y-141762412D01*
X175606240Y-141761261D01*
X175614412Y-141760450D01*
X175622608Y-141759980D01*
X175630816Y-141759852D01*
X175639024Y-141760065D01*
X175647220Y-141760620D01*
X175655392Y-141761516D01*
X175663531Y-141762756D01*
X175671623Y-141764337D01*
X175679657Y-141766262D01*
X175687621Y-141768529D01*
X175695505Y-141771139D01*
X175703295Y-141774094D01*
X175710982Y-141777391D01*
X175718553Y-141781033D01*
X175725996Y-141785019D01*
X175733301Y-141789349D01*
X176390631Y-141101009D01*
X176390631Y-138639517D01*
X175749451Y-138036246D01*
X175742387Y-138040965D01*
X175735167Y-138045347D01*
X175727800Y-138049392D01*
X175720300Y-138053099D01*
X175704943Y-138059499D01*
X175689190Y-138064543D01*
X175673132Y-138068229D01*
X175656862Y-138070555D01*
X175640474Y-138071516D01*
X175624059Y-138071110D01*
X175607711Y-138069334D01*
X175591522Y-138066185D01*
X175575585Y-138061660D01*
X175567740Y-138058881D01*
X175559992Y-138055757D01*
X175552354Y-138052287D01*
X175544837Y-138048472D01*
X175537453Y-138044310D01*
X175530212Y-138039802D01*
X175523127Y-138034947D01*
X175516210Y-138029744D01*
X175509471Y-138024194D01*
X175502922Y-138018296D01*
X175495753Y-138011200D01*
X175489023Y-138003829D01*
X175482734Y-137996200D01*
X175476887Y-137988332D01*
X175471482Y-137980241D01*
X175466519Y-137971946D01*
X175461999Y-137963462D01*
X175457922Y-137954808D01*
X175454289Y-137946002D01*
X175451101Y-137937060D01*
X175448358Y-137927999D01*
X175446060Y-137918838D01*
X175444209Y-137909594D01*
X175442804Y-137900284D01*
X175441846Y-137890925D01*
X175441335Y-137881536D01*
X175441273Y-137872132D01*
X175441660Y-137862732D01*
X175442496Y-137853354D01*
X175443781Y-137844014D01*
X175445517Y-137834729D01*
X175447704Y-137825518D01*
X175450342Y-137816398D01*
X175453431Y-137807386D01*
X175456973Y-137798499D01*
X175460968Y-137789755D01*
X175465416Y-137781172D01*
X175470319Y-137772766D01*
X175475675Y-137764555D01*
X175481487Y-137756557D01*
X175487754Y-137748788D01*
X175494477Y-137741267D01*
X175501572Y-137734097D01*
X175508941Y-137727368D01*
X175516568Y-137721079D01*
X175524436Y-137715232D01*
X175532526Y-137709827D01*
X175540821Y-137704865D01*
X175549305Y-137700346D01*
X175557959Y-137696270D01*
X175566766Y-137692638D01*
X175575708Y-137689451D01*
X175584769Y-137686709D01*
X175593931Y-137684412D01*
X175603176Y-137682562D01*
X175612487Y-137681158D01*
X175621847Y-137680202D01*
X175631237Y-137679693D01*
X175640642Y-137679632D01*
X175650042Y-137680021D01*
G37*
G36*
X167914800Y-142263588D02*
G01*
X167848908Y-142263588D01*
X167848908Y-142034014D01*
X167652334Y-142263589D01*
X167585277Y-142263589D01*
X167585277Y-141934045D01*
X167651170Y-141934045D01*
X167651170Y-142163639D01*
X167847575Y-141934044D01*
X167914800Y-141934044D01*
X167914800Y-142263588D01*
G37*
G36*
X172396651Y-139652405D02*
G01*
X172869917Y-138716711D01*
X173114942Y-138716711D01*
X173114942Y-139919423D01*
X172875505Y-139919423D01*
X172875505Y-139238660D01*
X172531525Y-139919422D01*
X172261798Y-139919422D01*
X172261798Y-139918596D01*
X171917819Y-139237876D01*
X171917819Y-139919422D01*
X171678360Y-139919422D01*
X171678360Y-138716711D01*
X171923407Y-138716711D01*
X172396651Y-139652405D01*
G37*
G36*
X168654554Y-139554572D02*
G01*
X169368060Y-138716711D01*
X169612303Y-138716711D01*
X169612303Y-139919422D01*
X169372823Y-139919422D01*
X169372823Y-139081540D01*
X168658533Y-139919422D01*
X168415074Y-139919422D01*
X168415074Y-138716711D01*
X168654554Y-138716711D01*
X168654554Y-139554572D01*
G37*
G36*
X169498744Y-142153733D02*
G01*
X169498636Y-142160492D01*
X169498315Y-142167035D01*
X169497779Y-142173365D01*
X169497028Y-142179479D01*
X169496063Y-142185379D01*
X169494884Y-142191065D01*
X169493490Y-142196535D01*
X169491881Y-142201791D01*
X169490059Y-142206833D01*
X169488021Y-142211659D01*
X169485769Y-142216272D01*
X169483303Y-142220669D01*
X169480622Y-142224852D01*
X169477727Y-142228821D01*
X169474618Y-142232574D01*
X169471293Y-142236114D01*
X169467755Y-142239438D01*
X169464001Y-142242548D01*
X169460034Y-142245444D01*
X169455851Y-142248125D01*
X169451455Y-142250592D01*
X169446843Y-142252844D01*
X169442018Y-142254881D01*
X169436977Y-142256704D01*
X169431722Y-142258313D01*
X169426253Y-142259707D01*
X169420569Y-142260886D01*
X169414670Y-142261851D01*
X169408557Y-142262602D01*
X169402230Y-142263138D01*
X169395688Y-142263459D01*
X169388931Y-142263567D01*
X169388931Y-142263779D01*
X169279055Y-142263567D01*
X169272298Y-142263448D01*
X169265756Y-142263115D01*
X169259428Y-142262569D01*
X169253315Y-142261809D01*
X169247416Y-142260835D01*
X169241731Y-142259647D01*
X169236261Y-142258245D01*
X169231006Y-142256630D01*
X169225965Y-142254801D01*
X169221138Y-142252758D01*
X169216526Y-142250501D01*
X169212128Y-142248031D01*
X169207945Y-142245346D01*
X169203976Y-142242448D01*
X169200222Y-142239336D01*
X169196682Y-142236011D01*
X169193357Y-142232471D01*
X169190246Y-142228718D01*
X169187350Y-142224751D01*
X169184668Y-142220571D01*
X169182201Y-142216176D01*
X169179948Y-142211568D01*
X169177910Y-142206747D01*
X169176087Y-142201711D01*
X169174477Y-142196462D01*
X169173083Y-142190999D01*
X169171903Y-142185322D01*
X169170937Y-142179432D01*
X169170186Y-142173328D01*
X169169650Y-142167010D01*
X169169328Y-142160478D01*
X169169221Y-142153733D01*
X169169221Y-142083607D01*
X169169221Y-142054864D01*
X169235113Y-142054864D01*
X169235113Y-142087368D01*
X169235113Y-142142748D01*
X169235167Y-142146127D01*
X169235329Y-142149399D01*
X169235598Y-142152563D01*
X169235974Y-142155621D01*
X169236458Y-142158570D01*
X169237050Y-142161413D01*
X169237749Y-142164148D01*
X169238556Y-142166775D01*
X169239470Y-142169296D01*
X169240492Y-142171709D01*
X169241621Y-142174014D01*
X169242858Y-142176212D01*
X169244201Y-142178304D01*
X169245653Y-142180287D01*
X169247211Y-142182164D01*
X169248877Y-142183933D01*
X169250650Y-142185595D01*
X169252530Y-142187149D01*
X169254518Y-142188597D01*
X169256613Y-142189937D01*
X169258815Y-142191169D01*
X169261124Y-142192295D01*
X169263540Y-142193313D01*
X169266064Y-142194224D01*
X169268694Y-142195028D01*
X169271432Y-142195725D01*
X169274276Y-142196315D01*
X169277228Y-142196797D01*
X169280286Y-142197172D01*
X169283452Y-142197440D01*
X169286725Y-142197601D01*
X169290104Y-142197654D01*
X169377946Y-142197654D01*
X169381327Y-142197601D01*
X169384601Y-142197440D01*
X169387766Y-142197171D01*
X169390825Y-142196796D01*
X169393775Y-142196313D01*
X169396619Y-142195723D01*
X169399354Y-142195026D01*
X169401982Y-142194222D01*
X169404503Y-142193310D01*
X169406916Y-142192291D01*
X169409222Y-142191165D01*
X169411420Y-142189931D01*
X169413511Y-142188590D01*
X169415494Y-142187143D01*
X169417370Y-142185587D01*
X169419139Y-142183925D01*
X169420800Y-142182155D01*
X169422354Y-142180279D01*
X169423801Y-142178295D01*
X169425140Y-142176203D01*
X169426372Y-142174005D01*
X169427497Y-142171699D01*
X169428515Y-142169286D01*
X169429425Y-142166766D01*
X169430229Y-142164139D01*
X169430925Y-142161405D01*
X169431514Y-142158563D01*
X169431995Y-142155615D01*
X169432370Y-142152559D01*
X169432638Y-142149396D01*
X169432798Y-142146125D01*
X169432852Y-142142748D01*
X169432852Y-142054864D01*
X169432809Y-142051484D01*
X169432680Y-142048212D01*
X169432466Y-142045048D01*
X169432166Y-142041990D01*
X169431781Y-142039040D01*
X169431309Y-142036197D01*
X169430752Y-142033461D01*
X169430109Y-142030833D01*
X169429381Y-142028312D01*
X169428566Y-142025898D01*
X169427666Y-142023591D01*
X169426680Y-142021392D01*
X169425609Y-142019300D01*
X169424451Y-142017316D01*
X169423208Y-142015438D01*
X169421880Y-142013668D01*
X169420465Y-142012005D01*
X169418965Y-142010450D01*
X169417378Y-142009001D01*
X169415707Y-142007660D01*
X169413949Y-142006427D01*
X169412105Y-142005300D01*
X169410176Y-142004281D01*
X169408161Y-142003369D01*
X169406060Y-142002565D01*
X169403874Y-142001867D01*
X169401601Y-142001277D01*
X169399243Y-142000795D01*
X169396799Y-142000419D01*
X169394269Y-142000151D01*
X169391654Y-141999990D01*
X169388952Y-141999936D01*
X169290103Y-141999936D01*
X169286718Y-141999990D01*
X169283441Y-142000151D01*
X169280271Y-142000420D01*
X169277209Y-142000795D01*
X169274254Y-142001279D01*
X169271407Y-142001869D01*
X169268668Y-142002567D01*
X169266036Y-142003372D01*
X169263512Y-142004285D01*
X169261095Y-142005305D01*
X169258786Y-142006432D01*
X169256584Y-142007666D01*
X169254490Y-142009008D01*
X169252503Y-142010457D01*
X169250624Y-142012013D01*
X169248852Y-142013676D01*
X169247188Y-142015447D01*
X169245631Y-142017324D01*
X169244182Y-142019309D01*
X169242840Y-142021402D01*
X169241606Y-142023601D01*
X169240479Y-142025907D01*
X169239459Y-142028321D01*
X169238547Y-142030842D01*
X169237742Y-142033470D01*
X169237044Y-142036205D01*
X169236454Y-142039047D01*
X169235971Y-142041996D01*
X169235595Y-142045052D01*
X169235327Y-142048216D01*
X169235166Y-142051486D01*
X169235113Y-142054864D01*
X169169221Y-142054864D01*
X169169221Y-142043921D01*
X169169328Y-142037162D01*
X169169650Y-142030618D01*
X169170186Y-142024288D01*
X169170937Y-142018173D01*
X169171903Y-142012273D01*
X169173083Y-142006587D01*
X169174477Y-142001116D01*
X169176086Y-141995859D01*
X169177910Y-141990817D01*
X169179948Y-141985989D01*
X169182201Y-141981376D01*
X169184668Y-141976978D01*
X169187350Y-141972794D01*
X169190246Y-141968825D01*
X169193357Y-141965070D01*
X169196682Y-141961529D01*
X169200222Y-141958204D01*
X169203976Y-141955093D01*
X169207945Y-141952196D01*
X169212128Y-141949514D01*
X169216525Y-141947047D01*
X169221138Y-141944794D01*
X169225964Y-141942755D01*
X169231005Y-141940932D01*
X169236261Y-141939322D01*
X169241731Y-141937928D01*
X169247416Y-141936748D01*
X169253314Y-141935782D01*
X169259428Y-141935031D01*
X169265756Y-141934495D01*
X169272298Y-141934173D01*
X169279055Y-141934066D01*
X169388931Y-141934066D01*
X169395688Y-141934173D01*
X169402230Y-141934495D01*
X169408557Y-141935031D01*
X169414670Y-141935782D01*
X169420569Y-141936748D01*
X169426253Y-141937928D01*
X169431722Y-141939322D01*
X169436977Y-141940932D01*
X169442017Y-141942755D01*
X169446843Y-141944794D01*
X169451454Y-141947047D01*
X169455851Y-141949514D01*
X169460033Y-141952196D01*
X169464001Y-141955093D01*
X169467754Y-141958204D01*
X169471293Y-141961529D01*
X169474617Y-141965070D01*
X169477727Y-141968825D01*
X169480622Y-141972794D01*
X169483303Y-141976978D01*
X169485769Y-141981376D01*
X169488021Y-141985989D01*
X169490058Y-141990817D01*
X169491881Y-141995859D01*
X169493490Y-142001116D01*
X169494884Y-142006587D01*
X169496063Y-142012273D01*
X169497028Y-142018173D01*
X169497779Y-142024288D01*
X169498315Y-142030618D01*
X169498636Y-142037162D01*
X169498744Y-142043921D01*
X169498744Y-142054864D01*
X169498744Y-142153733D01*
G37*
G36*
X170295821Y-141934173D02*
G01*
X170302364Y-141934495D01*
X170308692Y-141935031D01*
X170314805Y-141935782D01*
X170320704Y-141936748D01*
X170326388Y-141937928D01*
X170331858Y-141939322D01*
X170337114Y-141940932D01*
X170342155Y-141942755D01*
X170346982Y-141944794D01*
X170351594Y-141947047D01*
X170355992Y-141949514D01*
X170360175Y-141952196D01*
X170364143Y-141955093D01*
X170367898Y-141958204D01*
X170371437Y-141961529D01*
X170374763Y-141965070D01*
X170377873Y-141968825D01*
X170380770Y-141972794D01*
X170383451Y-141976978D01*
X170385919Y-141981376D01*
X170388171Y-141985989D01*
X170390209Y-141990817D01*
X170392033Y-141995859D01*
X170393642Y-142001116D01*
X170395037Y-142006587D01*
X170396217Y-142012273D01*
X170397182Y-142018173D01*
X170397933Y-142024288D01*
X170398470Y-142030618D01*
X170398791Y-142037162D01*
X170398899Y-142043921D01*
X170398899Y-142153733D01*
X170398791Y-142160492D01*
X170398470Y-142167035D01*
X170397933Y-142173365D01*
X170397182Y-142179479D01*
X170396217Y-142185379D01*
X170395037Y-142191065D01*
X170393642Y-142196535D01*
X170392033Y-142201791D01*
X170390209Y-142206833D01*
X170388171Y-142211659D01*
X170385919Y-142216272D01*
X170383451Y-142220669D01*
X170380770Y-142224852D01*
X170377874Y-142228821D01*
X170374763Y-142232574D01*
X170371438Y-142236114D01*
X170367898Y-142239438D01*
X170364144Y-142242548D01*
X170360175Y-142245444D01*
X170355992Y-142248125D01*
X170351594Y-142250592D01*
X170346982Y-142252844D01*
X170342155Y-142254881D01*
X170337114Y-142256704D01*
X170331859Y-142258313D01*
X170326389Y-142259707D01*
X170320704Y-142260886D01*
X170314805Y-142261851D01*
X170308692Y-142262602D01*
X170302364Y-142263138D01*
X170295821Y-142263459D01*
X170289065Y-142263567D01*
X170069376Y-142263567D01*
X170069376Y-142197654D01*
X170279836Y-142197697D01*
X170283106Y-142197645D01*
X170286272Y-142197490D01*
X170289335Y-142197231D01*
X170292294Y-142196869D01*
X170295149Y-142196404D01*
X170297900Y-142195835D01*
X170300548Y-142195163D01*
X170303092Y-142194388D01*
X170305532Y-142193509D01*
X170307869Y-142192526D01*
X170310101Y-142191441D01*
X170312230Y-142190252D01*
X170314255Y-142188959D01*
X170316177Y-142187564D01*
X170317994Y-142186065D01*
X170319708Y-142184462D01*
X170321318Y-142182757D01*
X170322824Y-142180948D01*
X170324227Y-142179035D01*
X170325525Y-142177020D01*
X170326720Y-142174901D01*
X170327811Y-142172679D01*
X170328798Y-142170354D01*
X170329681Y-142167925D01*
X170330460Y-142165393D01*
X170331136Y-142162758D01*
X170331707Y-142160020D01*
X170332175Y-142157178D01*
X170332539Y-142154233D01*
X170332798Y-142151186D01*
X170332954Y-142148034D01*
X170333006Y-142144780D01*
X170333006Y-142052705D01*
X170332955Y-142049460D01*
X170332799Y-142046319D01*
X170332541Y-142043280D01*
X170332179Y-142040345D01*
X170331714Y-142037513D01*
X170331145Y-142034784D01*
X170330473Y-142032157D01*
X170329697Y-142029634D01*
X170328818Y-142027214D01*
X170327836Y-142024897D01*
X170326750Y-142022683D01*
X170325561Y-142020572D01*
X170324269Y-142018564D01*
X170322873Y-142016659D01*
X170321374Y-142014857D01*
X170319772Y-142013158D01*
X170318066Y-142011562D01*
X170316257Y-142010069D01*
X170314345Y-142008679D01*
X170312329Y-142007392D01*
X170310211Y-142006208D01*
X170307989Y-142005127D01*
X170305663Y-142004148D01*
X170303235Y-142003273D01*
X170300703Y-142002501D01*
X170298068Y-142001832D01*
X170295329Y-142001266D01*
X170292488Y-142000803D01*
X170289543Y-142000442D01*
X170286495Y-142000185D01*
X170283344Y-142000030D01*
X170280089Y-141999979D01*
X170069376Y-141999979D01*
X170069376Y-141934066D01*
X170289065Y-141934066D01*
X170295821Y-141934173D01*
G37*
D11*
%TO.C,H1*%
X161000000Y-105600000D03*
D12*
X161000000Y-105600000D03*
%TD*%
D13*
%TO.C,J1*%
X178300000Y-105700000D03*
D14*
X175800000Y-105700000D03*
X173300000Y-105700000D03*
X170800000Y-105700000D03*
%TD*%
D15*
%TO.C,F3*%
X188710000Y-140700000D03*
X188710000Y-137300000D03*
X178790000Y-140700000D03*
X178790000Y-137300000D03*
%TD*%
D16*
%TO.C,J4*%
X197500000Y-131750000D03*
X202500000Y-131750000D03*
D17*
X197500000Y-126750000D03*
X202500000Y-126750000D03*
X197500000Y-121750000D03*
X202500000Y-121750000D03*
X197500000Y-116750000D03*
X202500000Y-116750000D03*
X197500000Y-111750000D03*
X202500000Y-111750000D03*
X197500000Y-106750000D03*
X202500000Y-106750000D03*
%TD*%
D16*
%TO.C,J5*%
X197500000Y-146750000D03*
X202500000Y-146750000D03*
D17*
X197500000Y-139250000D03*
X202500000Y-139250000D03*
%TD*%
D18*
%TO.C,J3*%
X160020000Y-113130000D03*
D19*
X160020000Y-114400000D03*
X160020000Y-115670000D03*
X160020000Y-116940000D03*
%TD*%
D11*
%TO.C,H3*%
X188000000Y-147600000D03*
D12*
X188000000Y-147600000D03*
%TD*%
D11*
%TO.C,H2*%
X161000000Y-147600000D03*
D12*
X161000000Y-147600000D03*
%TD*%
D20*
%TO.C,J2*%
X184600000Y-106400000D03*
D21*
X188100000Y-106400000D03*
%TD*%
D15*
%TO.C,F2*%
X178540000Y-113550000D03*
X178540000Y-116950000D03*
X188460000Y-113550000D03*
X188460000Y-116950000D03*
%TD*%
M02*
