%TF.GenerationSoftware,KiCad,Pcbnew,8.0.3*%
%TF.CreationDate,2024-06-13T00:54:22+02:00*%
%TF.ProjectId,pwm-ctrl,70776d2d-6374-4726-9c2e-6b696361645f,1*%
%TF.SameCoordinates,Original*%
%TF.FileFunction,Copper,L1,Top*%
%TF.FilePolarity,Positive*%
%FSLAX46Y46*%
G04 Gerber Fmt 4.6, Leading zero omitted, Abs format (unit mm)*
G04 Created by KiCad (PCBNEW 8.0.3) date 2024-06-13 00:54:22*
%MOMM*%
%LPD*%
G01*
G04 APERTURE LIST*
G04 Aperture macros list*
%AMRoundRect*
0 Rectangle with rounded corners*
0 $1 Rounding radius*
0 $2 $3 $4 $5 $6 $7 $8 $9 X,Y pos of 4 corners*
0 Add a 4 corners polygon primitive as box body*
4,1,4,$2,$3,$4,$5,$6,$7,$8,$9,$2,$3,0*
0 Add four circle primitives for the rounded corners*
1,1,$1+$1,$2,$3*
1,1,$1+$1,$4,$5*
1,1,$1+$1,$6,$7*
1,1,$1+$1,$8,$9*
0 Add four rect primitives between the rounded corners*
20,1,$1+$1,$2,$3,$4,$5,0*
20,1,$1+$1,$4,$5,$6,$7,0*
20,1,$1+$1,$6,$7,$8,$9,0*
20,1,$1+$1,$8,$9,$2,$3,0*%
%AMOutline5P*
0 Free polygon, 5 corners , with rotation*
0 The origin of the aperture is its center*
0 number of corners: always 5*
0 $1 to $10 corner X, Y*
0 $11 Rotation angle, in degrees counterclockwise*
0 create outline with 5 corners*
4,1,5,$1,$2,$3,$4,$5,$6,$7,$8,$9,$10,$1,$2,$11*%
%AMOutline6P*
0 Free polygon, 6 corners , with rotation*
0 The origin of the aperture is its center*
0 number of corners: always 6*
0 $1 to $12 corner X, Y*
0 $13 Rotation angle, in degrees counterclockwise*
0 create outline with 6 corners*
4,1,6,$1,$2,$3,$4,$5,$6,$7,$8,$9,$10,$11,$12,$1,$2,$13*%
%AMOutline7P*
0 Free polygon, 7 corners , with rotation*
0 The origin of the aperture is its center*
0 number of corners: always 7*
0 $1 to $14 corner X, Y*
0 $15 Rotation angle, in degrees counterclockwise*
0 create outline with 7 corners*
4,1,7,$1,$2,$3,$4,$5,$6,$7,$8,$9,$10,$11,$12,$13,$14,$1,$2,$15*%
%AMOutline8P*
0 Free polygon, 8 corners , with rotation*
0 The origin of the aperture is its center*
0 number of corners: always 8*
0 $1 to $16 corner X, Y*
0 $17 Rotation angle, in degrees counterclockwise*
0 create outline with 8 corners*
4,1,8,$1,$2,$3,$4,$5,$6,$7,$8,$9,$10,$11,$12,$13,$14,$15,$16,$1,$2,$17*%
G04 Aperture macros list end*
%TA.AperFunction,SMDPad,CuDef*%
%ADD10RoundRect,0.200000X0.275000X-0.200000X0.275000X0.200000X-0.275000X0.200000X-0.275000X-0.200000X0*%
%TD*%
%TA.AperFunction,SMDPad,CuDef*%
%ADD11RoundRect,0.250000X-0.325000X-0.650000X0.325000X-0.650000X0.325000X0.650000X-0.325000X0.650000X0*%
%TD*%
%TA.AperFunction,SMDPad,CuDef*%
%ADD12RoundRect,0.250000X0.325000X0.650000X-0.325000X0.650000X-0.325000X-0.650000X0.325000X-0.650000X0*%
%TD*%
%TA.AperFunction,SMDPad,CuDef*%
%ADD13RoundRect,0.200000X0.200000X0.275000X-0.200000X0.275000X-0.200000X-0.275000X0.200000X-0.275000X0*%
%TD*%
%TA.AperFunction,SMDPad,CuDef*%
%ADD14R,3.100000X5.000000*%
%TD*%
%TA.AperFunction,SMDPad,CuDef*%
%ADD15RoundRect,0.218750X-0.256250X0.218750X-0.256250X-0.218750X0.256250X-0.218750X0.256250X0.218750X0*%
%TD*%
%TA.AperFunction,SMDPad,CuDef*%
%ADD16RoundRect,0.200000X-0.200000X-0.275000X0.200000X-0.275000X0.200000X0.275000X-0.200000X0.275000X0*%
%TD*%
%TA.AperFunction,SMDPad,CuDef*%
%ADD17RoundRect,0.225000X0.225000X0.250000X-0.225000X0.250000X-0.225000X-0.250000X0.225000X-0.250000X0*%
%TD*%
%TA.AperFunction,SMDPad,CuDef*%
%ADD18RoundRect,0.250000X-0.250000X-0.475000X0.250000X-0.475000X0.250000X0.475000X-0.250000X0.475000X0*%
%TD*%
%TA.AperFunction,ComponentPad*%
%ADD19C,3.600000*%
%TD*%
%TA.AperFunction,ConnectorPad*%
%ADD20C,5.700000*%
%TD*%
%TA.AperFunction,SMDPad,CuDef*%
%ADD21RoundRect,0.100000X-0.100000X0.225000X-0.100000X-0.225000X0.100000X-0.225000X0.100000X0.225000X0*%
%TD*%
%TA.AperFunction,ComponentPad*%
%ADD22RoundRect,0.250000X0.600000X0.725000X-0.600000X0.725000X-0.600000X-0.725000X0.600000X-0.725000X0*%
%TD*%
%TA.AperFunction,ComponentPad*%
%ADD23O,1.700000X1.950000*%
%TD*%
%TA.AperFunction,SMDPad,CuDef*%
%ADD24RoundRect,0.250000X1.000000X0.650000X-1.000000X0.650000X-1.000000X-0.650000X1.000000X-0.650000X0*%
%TD*%
%TA.AperFunction,ComponentPad*%
%ADD25C,2.780000*%
%TD*%
%TA.AperFunction,SMDPad,CuDef*%
%ADD26RoundRect,0.225000X-0.225000X-0.250000X0.225000X-0.250000X0.225000X0.250000X-0.225000X0.250000X0*%
%TD*%
%TA.AperFunction,SMDPad,CuDef*%
%ADD27R,0.450000X0.250000*%
%TD*%
%TA.AperFunction,SMDPad,CuDef*%
%ADD28R,0.250000X0.450000*%
%TD*%
%TA.AperFunction,SMDPad,CuDef*%
%ADD29Outline5P,-0.600000X1.300400X-0.350400X1.550000X0.600000X1.550000X0.600000X-1.550000X-0.600000X-1.550000X0.000000*%
%TD*%
%TA.AperFunction,SMDPad,CuDef*%
%ADD30R,0.850000X3.100000*%
%TD*%
%TA.AperFunction,ComponentPad*%
%ADD31R,3.000000X1.500000*%
%TD*%
%TA.AperFunction,ComponentPad*%
%ADD32O,3.000000X1.500000*%
%TD*%
%TA.AperFunction,SMDPad,CuDef*%
%ADD33R,1.000000X2.700000*%
%TD*%
%TA.AperFunction,SMDPad,CuDef*%
%ADD34R,0.800000X0.500000*%
%TD*%
%TA.AperFunction,SMDPad,CuDef*%
%ADD35RoundRect,0.225000X-0.250000X0.225000X-0.250000X-0.225000X0.250000X-0.225000X0.250000X0.225000X0*%
%TD*%
%TA.AperFunction,ComponentPad*%
%ADD36R,1.000000X1.000000*%
%TD*%
%TA.AperFunction,ComponentPad*%
%ADD37O,1.000000X1.000000*%
%TD*%
%TA.AperFunction,SMDPad,CuDef*%
%ADD38RoundRect,0.250000X1.000000X-1.950000X1.000000X1.950000X-1.000000X1.950000X-1.000000X-1.950000X0*%
%TD*%
%TA.AperFunction,SMDPad,CuDef*%
%ADD39RoundRect,0.150000X-0.150000X0.512500X-0.150000X-0.512500X0.150000X-0.512500X0.150000X0.512500X0*%
%TD*%
%TA.AperFunction,SMDPad,CuDef*%
%ADD40RoundRect,0.112500X-0.237500X0.112500X-0.237500X-0.112500X0.237500X-0.112500X0.237500X0.112500X0*%
%TD*%
%TA.AperFunction,SMDPad,CuDef*%
%ADD41RoundRect,0.075000X0.075000X-0.700000X0.075000X0.700000X-0.075000X0.700000X-0.075000X-0.700000X0*%
%TD*%
%TA.AperFunction,HeatsinkPad*%
%ADD42C,0.600000*%
%TD*%
%TA.AperFunction,HeatsinkPad*%
%ADD43R,3.610000X2.500000*%
%TD*%
%TA.AperFunction,SMDPad,CuDef*%
%ADD44RoundRect,0.250000X-0.475000X0.250000X-0.475000X-0.250000X0.475000X-0.250000X0.475000X0.250000X0*%
%TD*%
%TA.AperFunction,SMDPad,CuDef*%
%ADD45RoundRect,0.125000X0.125000X-0.537500X0.125000X0.537500X-0.125000X0.537500X-0.125000X-0.537500X0*%
%TD*%
%TA.AperFunction,SMDPad,CuDef*%
%ADD46RoundRect,0.100000X-0.637500X-0.100000X0.637500X-0.100000X0.637500X0.100000X-0.637500X0.100000X0*%
%TD*%
%TA.AperFunction,SMDPad,CuDef*%
%ADD47RoundRect,0.100000X0.225000X0.100000X-0.225000X0.100000X-0.225000X-0.100000X0.225000X-0.100000X0*%
%TD*%
%TA.AperFunction,SMDPad,CuDef*%
%ADD48RoundRect,0.250000X0.650000X-0.325000X0.650000X0.325000X-0.650000X0.325000X-0.650000X-0.325000X0*%
%TD*%
%TA.AperFunction,SMDPad,CuDef*%
%ADD49RoundRect,0.250000X0.475000X-0.250000X0.475000X0.250000X-0.475000X0.250000X-0.475000X-0.250000X0*%
%TD*%
%TA.AperFunction,SMDPad,CuDef*%
%ADD50RoundRect,0.250000X0.250000X0.475000X-0.250000X0.475000X-0.250000X-0.475000X0.250000X-0.475000X0*%
%TD*%
%TA.AperFunction,SMDPad,CuDef*%
%ADD51RoundRect,0.243750X-0.456250X0.243750X-0.456250X-0.243750X0.456250X-0.243750X0.456250X0.243750X0*%
%TD*%
%TA.AperFunction,ComponentPad*%
%ADD52RoundRect,0.250000X-0.750000X-1.050000X0.750000X-1.050000X0.750000X1.050000X-0.750000X1.050000X0*%
%TD*%
%TA.AperFunction,ComponentPad*%
%ADD53O,2.000000X2.600000*%
%TD*%
%TA.AperFunction,SMDPad,CuDef*%
%ADD54RoundRect,0.093750X-0.093750X-0.106250X0.093750X-0.106250X0.093750X0.106250X-0.093750X0.106250X0*%
%TD*%
%TA.AperFunction,HeatsinkPad*%
%ADD55R,1.000000X1.600000*%
%TD*%
%TA.AperFunction,SMDPad,CuDef*%
%ADD56RoundRect,0.200000X-0.275000X0.200000X-0.275000X-0.200000X0.275000X-0.200000X0.275000X0.200000X0*%
%TD*%
%TA.AperFunction,SMDPad,CuDef*%
%ADD57RoundRect,0.150000X-0.512500X-0.150000X0.512500X-0.150000X0.512500X0.150000X-0.512500X0.150000X0*%
%TD*%
%TA.AperFunction,ViaPad*%
%ADD58C,0.700000*%
%TD*%
%TA.AperFunction,ViaPad*%
%ADD59C,0.500000*%
%TD*%
%TA.AperFunction,ViaPad*%
%ADD60C,0.800000*%
%TD*%
%TA.AperFunction,Conductor*%
%ADD61C,0.250000*%
%TD*%
%TA.AperFunction,Conductor*%
%ADD62C,0.350000*%
%TD*%
%TA.AperFunction,Conductor*%
%ADD63C,0.750000*%
%TD*%
%TA.AperFunction,Conductor*%
%ADD64C,0.500000*%
%TD*%
G04 APERTURE END LIST*
D10*
%TO.P,R5,1*%
%TO.N,/BATT_VOLTAGE*%
X159131000Y-128942600D03*
%TO.P,R5,2*%
%TO.N,GNDPWR*%
X159131000Y-127292600D03*
%TD*%
D11*
%TO.P,C11,1*%
%TO.N,GNDPWR*%
X170735000Y-133120000D03*
%TO.P,C11,2*%
%TO.N,VH*%
X173685000Y-133120000D03*
%TD*%
D12*
%TO.P,C8,1*%
%TO.N,GNDPWR*%
X168685000Y-130370000D03*
%TO.P,C8,2*%
%TO.N,VBAT_Fused*%
X165735000Y-130370000D03*
%TD*%
D13*
%TO.P,R1,1*%
%TO.N,VDD*%
X161861000Y-110998000D03*
%TO.P,R1,2*%
%TO.N,/~{RST}*%
X160211000Y-110998000D03*
%TD*%
D14*
%TO.P,L1,1,1*%
%TO.N,/LX*%
X171960000Y-125370000D03*
%TO.P,L1,2,2*%
%TO.N,VH*%
X183060000Y-125370000D03*
%TD*%
D15*
%TO.P,FB1,1*%
%TO.N,VDDA*%
X162433000Y-116586000D03*
%TO.P,FB1,2*%
%TO.N,VDD*%
X162433000Y-118161000D03*
%TD*%
D16*
%TO.P,R6,1*%
%TO.N,VH*%
X162035000Y-128200000D03*
%TO.P,R6,2*%
%TO.N,/FB*%
X163685000Y-128200000D03*
%TD*%
D10*
%TO.P,R9,1*%
%TO.N,VDD*%
X189255200Y-134704200D03*
%TO.P,R9,2*%
%TO.N,Net-(U5-SEn)*%
X189255200Y-133054200D03*
%TD*%
D17*
%TO.P,C18,1*%
%TO.N,/BST*%
X163675000Y-143200000D03*
%TO.P,C18,2*%
%TO.N,/SW*%
X162125000Y-143200000D03*
%TD*%
D18*
%TO.P,C7,1*%
%TO.N,Net-(U6-BST)*%
X167310000Y-123120000D03*
%TO.P,C7,2*%
%TO.N,/LX*%
X169210000Y-123120000D03*
%TD*%
D19*
%TO.P,H1,1,1*%
%TO.N,GNDPWR*%
X161000000Y-105600000D03*
D20*
X161000000Y-105600000D03*
%TD*%
D21*
%TO.P,U4,1,VDD*%
%TO.N,VDD*%
X161510000Y-121650000D03*
%TO.P,U4,2,VSS*%
%TO.N,GNDPWR*%
X160860000Y-121650000D03*
%TO.P,U4,3,SCL*%
%TO.N,/SCL*%
X160210000Y-121650000D03*
%TO.P,U4,4,SDA*%
%TO.N,/SDA*%
X160210000Y-123550000D03*
%TO.P,U4,5,B*%
%TO.N,Net-(U4-B)*%
X160860000Y-123550000D03*
%TO.P,U4,6,W*%
%TO.N,GNDA*%
X161510000Y-123550000D03*
%TD*%
D22*
%TO.P,J1,1,Pin_1*%
%TO.N,Net-(J1-Pin_1)*%
X178300000Y-105700000D03*
D23*
%TO.P,J1,2,Pin_2*%
%TO.N,GNDPWR*%
X175800000Y-105700000D03*
%TO.P,J1,3,Pin_3*%
%TO.N,/SCL*%
X173300000Y-105700000D03*
%TO.P,J1,4,Pin_4*%
%TO.N,/SDA*%
X170800000Y-105700000D03*
%TD*%
D24*
%TO.P,D3,1,K*%
%TO.N,VBAT_Fused*%
X181324000Y-147320000D03*
%TO.P,D3,2,A*%
%TO.N,GNDPWR*%
X177324000Y-147320000D03*
%TD*%
D25*
%TO.P,F3,1*%
%TO.N,VBAT*%
X188710000Y-140700000D03*
X188710000Y-137300000D03*
%TO.P,F3,2*%
%TO.N,VBAT_Fused*%
X178790000Y-140700000D03*
X178790000Y-137300000D03*
%TD*%
D13*
%TO.P,R8,1*%
%TO.N,Net-(U5-CS)*%
X187250000Y-132400000D03*
%TO.P,R8,2*%
%TO.N,/SENSE*%
X185600000Y-132400000D03*
%TD*%
D26*
%TO.P,C3,1*%
%TO.N,GNDPWR*%
X171678000Y-117856000D03*
%TO.P,C3,2*%
%TO.N,VDD*%
X173228000Y-117856000D03*
%TD*%
D27*
%TO.P,U6,1,EN*%
%TO.N,/EN*%
X165390000Y-125370000D03*
%TO.P,U6,2,FB*%
%TO.N,/FB*%
X165390000Y-125870000D03*
%TO.P,U6,3,AGND*%
%TO.N,GNDA*%
X165390000Y-126370000D03*
%TO.P,U6,4,NC*%
%TO.N,unconnected-(U6-NC-Pad4)*%
X165390000Y-126870000D03*
%TO.P,U6,5,NC*%
%TO.N,unconnected-(U6-NC-Pad5)*%
X165390000Y-127370000D03*
%TO.P,U6,6,AIN*%
%TO.N,VBAT_Fused*%
X165390000Y-127870000D03*
D28*
%TO.P,U6,7,IN*%
X165960000Y-128440000D03*
%TO.P,U6,8,IN*%
X166460000Y-128440000D03*
%TO.P,U6,9,IN*%
X166960000Y-128440000D03*
%TO.P,U6,10,LX*%
%TO.N,/LX*%
X167960000Y-128440000D03*
%TO.P,U6,11,LX*%
X168460000Y-128440000D03*
D27*
%TO.P,U6,12,PGND*%
%TO.N,GNDPWR*%
X169030000Y-127870000D03*
%TO.P,U6,13,PGND*%
X169030000Y-127370000D03*
%TO.P,U6,14,PGND*%
X169030000Y-126870000D03*
%TO.P,U6,15,PGND*%
X169030000Y-126370000D03*
%TO.P,U6,16,LX*%
%TO.N,/LX*%
X169030000Y-125870000D03*
%TO.P,U6,17,LX*%
X169030000Y-125370000D03*
D28*
%TO.P,U6,18,LX*%
X168460000Y-124800000D03*
%TO.P,U6,19,TON*%
%TO.N,Net-(U6-TON)*%
X167960000Y-124800000D03*
%TO.P,U6,20,BST*%
%TO.N,Net-(U6-BST)*%
X167460000Y-124800000D03*
%TO.P,U6,21,VCC*%
%TO.N,Net-(U6-VCC)*%
X166960000Y-124800000D03*
%TO.P,U6,22,SS*%
%TO.N,Net-(U6-SS)*%
X165960000Y-124800000D03*
D29*
%TO.P,U6,EP1,IN*%
%TO.N,VBAT_Fused*%
X166485000Y-126795000D03*
D30*
%TO.P,U6,EP2,LX*%
%TO.N,/LX*%
X168115000Y-126795000D03*
%TD*%
D17*
%TO.P,C4,1*%
%TO.N,Net-(U6-TON)*%
X167885000Y-119770000D03*
%TO.P,C4,2*%
%TO.N,GNDA*%
X166335000Y-119770000D03*
%TD*%
D31*
%TO.P,J4,1,Pin_1*%
%TO.N,/OUT0*%
X197500000Y-131750000D03*
X202500000Y-131750000D03*
D32*
%TO.P,J4,2,Pin_2*%
%TO.N,/OUT1*%
X197500000Y-126750000D03*
X202500000Y-126750000D03*
%TO.P,J4,3,Pin_3*%
%TO.N,/OUT2*%
X197500000Y-121750000D03*
X202500000Y-121750000D03*
%TO.P,J4,4,Pin_4*%
%TO.N,/OUT3*%
X197500000Y-116750000D03*
X202500000Y-116750000D03*
%TO.P,J4,5,Pin_5*%
%TO.N,GNDPWR*%
X197500000Y-111750000D03*
X202500000Y-111750000D03*
%TO.P,J4,6,Pin_6*%
%TO.N,VH_Fused*%
X197500000Y-106750000D03*
X202500000Y-106750000D03*
%TD*%
D33*
%TO.P,L2,1,1*%
%TO.N,/SW*%
X163600000Y-140600000D03*
%TO.P,L2,2,2*%
%TO.N,VDD*%
X161400000Y-140600000D03*
%TD*%
D34*
%TO.P,RN1,1,R1.1*%
%TO.N,/SDA*%
X168619600Y-110040800D03*
%TO.P,RN1,2,R2.1*%
%TO.N,/SCL*%
X168619600Y-111040800D03*
%TO.P,RN1,3,R2.2*%
%TO.N,VDD*%
X170419600Y-111040800D03*
%TO.P,RN1,4,R1.2*%
X170419600Y-110040800D03*
%TD*%
D31*
%TO.P,J5,1,Pin_1*%
%TO.N,GNDPWR*%
X197500000Y-146750000D03*
X202500000Y-146750000D03*
D32*
%TO.P,J5,2,Pin_2*%
%TO.N,VBAT*%
X197500000Y-139250000D03*
X202500000Y-139250000D03*
%TD*%
D35*
%TO.P,C1,1*%
%TO.N,GNDPWR*%
X162433000Y-113525000D03*
%TO.P,C1,2*%
%TO.N,VDDA*%
X162433000Y-115075000D03*
%TD*%
D36*
%TO.P,J3,1,Pin_1*%
%TO.N,GNDPWR*%
X160020000Y-113130000D03*
D37*
%TO.P,J3,2,Pin_2*%
%TO.N,/~{RST}*%
X160020000Y-114400000D03*
%TO.P,J3,3,Pin_3*%
%TO.N,/SWCLK*%
X160020000Y-115670000D03*
%TO.P,J3,4,Pin_4*%
%TO.N,/SWDIO*%
X160020000Y-116940000D03*
%TD*%
D26*
%TO.P,C2,1*%
%TO.N,GNDPWR*%
X171678000Y-116205000D03*
%TO.P,C2,2*%
%TO.N,VDD*%
X173228000Y-116205000D03*
%TD*%
D13*
%TO.P,R2,1*%
%TO.N,Net-(U6-TON)*%
X167935000Y-121270000D03*
%TO.P,R2,2*%
%TO.N,VBAT_Fused*%
X166285000Y-121270000D03*
%TD*%
D38*
%TO.P,C17,1*%
%TO.N,VBAT_Fused*%
X170000000Y-145200000D03*
%TO.P,C17,2*%
%TO.N,GNDPWR*%
X170000000Y-136800000D03*
%TD*%
D10*
%TO.P,R7,1*%
%TO.N,VBAT_Fused*%
X159334200Y-131977400D03*
%TO.P,R7,2*%
%TO.N,/BATT_VOLTAGE*%
X159334200Y-130327400D03*
%TD*%
D39*
%TO.P,U7,1,FB*%
%TO.N,VDD*%
X163550000Y-135600000D03*
%TO.P,U7,2,EN*%
%TO.N,VBAT_Fused*%
X162600000Y-135600000D03*
%TO.P,U7,3,IN*%
X161650000Y-135600000D03*
%TO.P,U7,4,GND*%
%TO.N,GNDPWR*%
X161650000Y-137875000D03*
%TO.P,U7,5,SW*%
%TO.N,/SW*%
X162600000Y-137875000D03*
%TO.P,U7,6,BST*%
%TO.N,/BST*%
X163550000Y-137875000D03*
%TD*%
D19*
%TO.P,H3,1,1*%
%TO.N,GNDPWR*%
X188000000Y-147600000D03*
D20*
X188000000Y-147600000D03*
%TD*%
D26*
%TO.P,C5,1*%
%TO.N,GNDA*%
X163160000Y-121120000D03*
%TO.P,C5,2*%
%TO.N,Net-(U6-SS)*%
X164710000Y-121120000D03*
%TD*%
D40*
%TO.P,D2,1,K*%
%TO.N,/CAN+*%
X177100000Y-109450000D03*
%TO.P,D2,2,K*%
%TO.N,/CAN-*%
X177100000Y-110750000D03*
%TO.P,D2,3,A*%
%TO.N,GNDPWR*%
X179100000Y-110100000D03*
%TD*%
D41*
%TO.P,U5,1,OUT0*%
%TO.N,/OUT0*%
X186710000Y-127800000D03*
%TO.P,U5,2,SEn*%
%TO.N,Net-(U5-SEn)*%
X187210000Y-127800000D03*
%TO.P,U5,3,IN0*%
%TO.N,/CH1*%
X187710000Y-127800000D03*
%TO.P,U5,4,GND*%
%TO.N,GNDPWR*%
X188210000Y-127800000D03*
%TO.P,U5,5,~{FaultRST}*%
%TO.N,/FRST*%
X188710000Y-127800000D03*
%TO.P,U5,6,IN1*%
%TO.N,/CH2*%
X189210000Y-127800000D03*
%TO.P,U5,7,NC*%
%TO.N,unconnected-(U5-NC-Pad7)*%
X189710000Y-127800000D03*
%TO.P,U5,8,OUT1*%
%TO.N,/OUT1*%
X190210000Y-127800000D03*
%TO.P,U5,9,OUT2*%
%TO.N,/OUT2*%
X190210000Y-122550000D03*
%TO.P,U5,10,NC*%
%TO.N,unconnected-(U5-NC-Pad10)*%
X189710000Y-122550000D03*
%TO.P,U5,11,IN2*%
%TO.N,/CH3*%
X189210000Y-122550000D03*
%TO.P,U5,12,SEL0*%
%TO.N,/SEL0*%
X188710000Y-122550000D03*
%TO.P,U5,13,CS*%
%TO.N,Net-(U5-CS)*%
X188210000Y-122550000D03*
%TO.P,U5,14,IN3*%
%TO.N,/CH4*%
X187710000Y-122550000D03*
%TO.P,U5,15,SEL1*%
%TO.N,/SEL1*%
X187210000Y-122550000D03*
%TO.P,U5,16,OUT3*%
%TO.N,/OUT3*%
X186710000Y-122550000D03*
D42*
%TO.P,U5,17,VCC*%
%TO.N,VH*%
X186660000Y-125775000D03*
X187860000Y-125775000D03*
X189060000Y-125775000D03*
X190260000Y-125775000D03*
D43*
X188460000Y-125175000D03*
D42*
X186660000Y-124575000D03*
X187860000Y-124575000D03*
X189060000Y-124575000D03*
X190260000Y-124575000D03*
%TD*%
D44*
%TO.P,C15,1*%
%TO.N,GNDPWR*%
X159600000Y-136900000D03*
%TO.P,C15,2*%
%TO.N,VDD*%
X159600000Y-138800000D03*
%TD*%
D19*
%TO.P,H2,1,1*%
%TO.N,GNDPWR*%
X161000000Y-147600000D03*
D20*
X161000000Y-147600000D03*
%TD*%
D45*
%TO.P,U1,1,TXD*%
%TO.N,/CAN_TX*%
X172125000Y-114437500D03*
%TO.P,U1,2,GND*%
%TO.N,GNDPWR*%
X172775000Y-114437500D03*
%TO.P,U1,3,VCC*%
%TO.N,VDD*%
X173425000Y-114437500D03*
%TO.P,U1,4,RXD*%
%TO.N,/CAN_RX*%
X174075000Y-114437500D03*
%TO.P,U1,5,SHDN*%
%TO.N,VDD*%
X174075000Y-112162500D03*
%TO.P,U1,6,CANL*%
%TO.N,/CAN-*%
X173425000Y-112162500D03*
%TO.P,U1,7,CANH*%
%TO.N,/CAN+*%
X172775000Y-112162500D03*
%TO.P,U1,8,S*%
%TO.N,GNDPWR*%
X172125000Y-112162500D03*
%TD*%
D12*
%TO.P,C10,1*%
%TO.N,GNDPWR*%
X168685000Y-132870000D03*
%TO.P,C10,2*%
%TO.N,VBAT_Fused*%
X165735000Y-132870000D03*
%TD*%
D46*
%TO.P,U2,1,PB8*%
%TO.N,/SCL*%
X164200000Y-112400000D03*
%TO.P,U2,2,PF0*%
%TO.N,/SDA*%
X164200000Y-113050000D03*
%TO.P,U2,3,PF1*%
%TO.N,/EN*%
X164200000Y-113700000D03*
%TO.P,U2,4,NRST*%
%TO.N,/~{RST}*%
X164200000Y-114350000D03*
%TO.P,U2,5,VDDA*%
%TO.N,VDDA*%
X164200000Y-115000000D03*
%TO.P,U2,6,PA0*%
%TO.N,/CH1*%
X164200000Y-115650000D03*
%TO.P,U2,7,PA1*%
%TO.N,/CH2*%
X164200000Y-116300000D03*
%TO.P,U2,8,PA2*%
%TO.N,/CH3*%
X164200000Y-116950000D03*
%TO.P,U2,9,PA3*%
%TO.N,/CH4*%
X164200000Y-117600000D03*
%TO.P,U2,10,PA4*%
%TO.N,/SENSE*%
X164200000Y-118250000D03*
%TO.P,U2,11,PA5*%
%TO.N,/SEL0*%
X169925000Y-118250000D03*
%TO.P,U2,12,PA6*%
%TO.N,/SEL1*%
X169925000Y-117600000D03*
%TO.P,U2,13,PA7*%
%TO.N,/FRST*%
X169925000Y-116950000D03*
%TO.P,U2,14,PB1*%
%TO.N,/BATT_VOLTAGE*%
X169925000Y-116300000D03*
%TO.P,U2,15,VSSA*%
%TO.N,GNDPWR*%
X169925000Y-115650000D03*
%TO.P,U2,16,VDD*%
%TO.N,VDD*%
X169925000Y-115000000D03*
%TO.P,U2,17,PA9/PA11*%
%TO.N,/CAN_RX*%
X169925000Y-114350000D03*
%TO.P,U2,18,PA10/PA12*%
%TO.N,/CAN_TX*%
X169925000Y-113700000D03*
%TO.P,U2,19,PA13*%
%TO.N,/SWDIO*%
X169925000Y-113050000D03*
%TO.P,U2,20,PA14*%
%TO.N,/SWCLK*%
X169925000Y-112400000D03*
%TD*%
D11*
%TO.P,C13,1*%
%TO.N,GNDPWR*%
X180235000Y-133120000D03*
%TO.P,C13,2*%
%TO.N,VH*%
X183185000Y-133120000D03*
%TD*%
%TO.P,C12,1*%
%TO.N,GNDPWR*%
X175485000Y-133120000D03*
%TO.P,C12,2*%
%TO.N,VH*%
X178435000Y-133120000D03*
%TD*%
D47*
%TO.P,U3,1,SCL*%
%TO.N,/SCL*%
X160975000Y-120200000D03*
%TO.P,U3,2,GND*%
%TO.N,GNDPWR*%
X160975000Y-119550000D03*
%TO.P,U3,3,SDA*%
%TO.N,/SDA*%
X160975000Y-118900000D03*
%TO.P,U3,4,VCC*%
%TO.N,VDD*%
X159075000Y-118900000D03*
%TO.P,U3,5,WP*%
%TO.N,GNDPWR*%
X159075000Y-120200000D03*
%TD*%
D13*
%TO.P,R4,1*%
%TO.N,/FB*%
X163685000Y-126600000D03*
%TO.P,R4,2*%
%TO.N,Net-(U4-B)*%
X162035000Y-126600000D03*
%TD*%
%TO.P,R3,1*%
%TO.N,/EN*%
X163685000Y-125000000D03*
%TO.P,R3,2*%
%TO.N,GNDA*%
X162035000Y-125000000D03*
%TD*%
D48*
%TO.P,C9,1*%
%TO.N,GNDPWR*%
X163460000Y-133095000D03*
%TO.P,C9,2*%
%TO.N,VBAT_Fused*%
X163460000Y-130145000D03*
%TD*%
D49*
%TO.P,C14,1*%
%TO.N,GNDPWR*%
X159600000Y-135350000D03*
%TO.P,C14,2*%
%TO.N,VBAT_Fused*%
X159600000Y-133450000D03*
%TD*%
%TO.P,C16,1*%
%TO.N,GNDPWR*%
X159600000Y-142200000D03*
%TO.P,C16,2*%
%TO.N,VDD*%
X159600000Y-140300000D03*
%TD*%
D50*
%TO.P,C6,1*%
%TO.N,Net-(U6-VCC)*%
X165210000Y-123120000D03*
%TO.P,C6,2*%
%TO.N,GNDA*%
X163310000Y-123120000D03*
%TD*%
D51*
%TO.P,F1,1*%
%TO.N,Net-(J1-Pin_1)*%
X166751000Y-104170000D03*
%TO.P,F1,2*%
%TO.N,VDD*%
X166751000Y-106045000D03*
%TD*%
D52*
%TO.P,J2,1,Pin_1*%
%TO.N,/CAN+*%
X184600000Y-106400000D03*
D53*
%TO.P,J2,2,Pin_2*%
%TO.N,/CAN-*%
X188100000Y-106400000D03*
%TD*%
D54*
%TO.P,U8,1,GND*%
%TO.N,GNDPWR*%
X176212500Y-143450000D03*
%TO.P,U8,2,GND*%
X176212500Y-144100000D03*
%TO.P,U8,3,GND*%
X176212500Y-144750000D03*
%TO.P,U8,4,IN*%
%TO.N,VBAT_Fused*%
X177987500Y-144750000D03*
%TO.P,U8,5,IN*%
X177987500Y-144100000D03*
%TO.P,U8,6,IN*%
X177987500Y-143450000D03*
D55*
%TO.P,U8,7,GND*%
%TO.N,GNDPWR*%
X177100000Y-144100000D03*
%TD*%
D25*
%TO.P,F2,1*%
%TO.N,VH*%
X178540000Y-113550000D03*
X178540000Y-116950000D03*
%TO.P,F2,2*%
%TO.N,VH_Fused*%
X188460000Y-113550000D03*
X188460000Y-116950000D03*
%TD*%
D56*
%TO.P,R10,1*%
%TO.N,Net-(U5-CS)*%
X190755200Y-133054200D03*
%TO.P,R10,2*%
%TO.N,GNDPWR*%
X190755200Y-134704200D03*
%TD*%
D57*
%TO.P,D1,1,K*%
%TO.N,/SDA*%
X164165700Y-108890900D03*
%TO.P,D1,2,A*%
%TO.N,GNDPWR*%
X164165700Y-109840900D03*
%TO.P,D1,3,K*%
%TO.N,/SCL*%
X164165700Y-110790900D03*
%TO.P,D1,4,K*%
%TO.N,/BATT_VOLTAGE*%
X166440700Y-110790900D03*
%TO.P,D1,5,K*%
%TO.N,VDD*%
X166440700Y-108890900D03*
%TD*%
D58*
%TO.N,GNDA*%
X164639881Y-126581438D03*
X162400000Y-124100000D03*
%TO.N,GNDPWR*%
X158406000Y-126043247D03*
X188601702Y-129875000D03*
X176784000Y-145796000D03*
D59*
X181610000Y-133070000D03*
D58*
X174752000Y-143256000D03*
D59*
X169635000Y-126495000D03*
X172110000Y-130970000D03*
X167310000Y-130370000D03*
X169910000Y-129870000D03*
D58*
X159600000Y-143100000D03*
D59*
X171010000Y-130970000D03*
X169635000Y-127120000D03*
X172110000Y-129870000D03*
X163510000Y-131670000D03*
X169910000Y-130970000D03*
X171010000Y-129870000D03*
D60*
X179900000Y-110100000D03*
D59*
X158395000Y-120244458D03*
X172110000Y-128770000D03*
D58*
X159600000Y-136100000D03*
X171678600Y-117017800D03*
D59*
X176910000Y-133070000D03*
X191500000Y-134700000D03*
X169635000Y-127745000D03*
D58*
X160860001Y-122221836D03*
D59*
X172110000Y-133070000D03*
D58*
X157900000Y-139500000D03*
X174752000Y-147320000D03*
D60*
X178300000Y-110100000D03*
D58*
X161734761Y-112834761D03*
X160340000Y-119570000D03*
X174752000Y-145288000D03*
X165000000Y-109900000D03*
D59*
X167310000Y-132870000D03*
X171210000Y-128970000D03*
%TO.N,/LX*%
X168110000Y-126770000D03*
X168110000Y-127970000D03*
X168110000Y-125570000D03*
X168110000Y-126170000D03*
X168110000Y-127370000D03*
D58*
%TO.N,VH*%
X162052000Y-129540000D03*
X182372000Y-135382000D03*
D59*
%TO.N,/EN*%
X165700000Y-114900000D03*
X159020000Y-121010000D03*
%TO.N,/SWDIO*%
X166065200Y-113639600D03*
%TO.N,/CH2*%
X189921312Y-129050000D03*
X165600000Y-116200000D03*
%TO.N,/SCL*%
X164200000Y-111700000D03*
X161508000Y-114900000D03*
%TO.N,/CH4*%
X180200000Y-124500000D03*
X165700000Y-117500000D03*
X182225000Y-121200000D03*
X187857457Y-120725000D03*
%TO.N,/CH1*%
X165200000Y-115600000D03*
X187885215Y-129474514D03*
%TO.N,/SDA*%
X161000000Y-115400000D03*
X163087500Y-111700000D03*
%TO.N,/CAN_RX*%
X168902760Y-114195753D03*
X174447200Y-115316000D03*
%TO.N,/SWCLK*%
X165455600Y-113030000D03*
%TO.N,/CH3*%
X165207933Y-116925000D03*
X189957572Y-121352781D03*
X180188057Y-123628059D03*
%TO.N,VDD*%
X163600000Y-134500000D03*
D58*
X162400000Y-119000000D03*
X160700000Y-138800000D03*
D59*
X161900000Y-110200000D03*
D58*
X158500000Y-118890000D03*
X171196000Y-111074200D03*
X160600000Y-140300000D03*
X166751000Y-106984800D03*
D59*
X188400000Y-134700000D03*
D58*
X171356430Y-115185057D03*
X173448161Y-115429794D03*
X173228000Y-116992400D03*
X166751000Y-108178600D03*
X171196000Y-110032800D03*
D59*
%TO.N,Net-(U5-SEn)*%
X186675000Y-129252208D03*
X189300000Y-132200000D03*
%TO.N,/BATT_VOLTAGE*%
X168700000Y-115500000D03*
X159131000Y-129600000D03*
X165500000Y-110800000D03*
X165575000Y-118949121D03*
%TO.N,/SEL0*%
X189412195Y-120868645D03*
X168945209Y-118384400D03*
%TO.N,/SENSE*%
X185600000Y-131400000D03*
X165300000Y-118200000D03*
%TO.N,/SEL1*%
X187161972Y-120921977D03*
X168725000Y-117667454D03*
%TO.N,VBAT_Fused*%
X166810000Y-127370000D03*
X166810000Y-125570000D03*
X166810002Y-129145000D03*
D58*
X161290000Y-134620000D03*
D59*
X166210000Y-126770000D03*
X164910000Y-129170000D03*
X166210000Y-126170000D03*
X166810000Y-127970000D03*
X166210000Y-127370000D03*
X166210000Y-125570000D03*
X166310000Y-122870000D03*
D58*
X160909000Y-133476998D03*
D59*
X166810000Y-126170000D03*
X166810000Y-126770000D03*
X166210000Y-127970000D03*
X165910000Y-129170000D03*
%TO.N,Net-(U5-CS)*%
X188673477Y-120774239D03*
X190800000Y-132200000D03*
%TO.N,/FRST*%
X189346312Y-129465049D03*
X168808749Y-116922142D03*
%TD*%
D61*
%TO.N,Net-(U6-TON)*%
X167960000Y-124015100D02*
X167960000Y-124800000D01*
X168135000Y-122399900D02*
X168135000Y-123840100D01*
X167960000Y-122224900D02*
X168135000Y-122399900D01*
X167935000Y-121270000D02*
X167960000Y-121295000D01*
X168135000Y-123840100D02*
X167960000Y-124015100D01*
X167935000Y-119720000D02*
X167935000Y-121270000D01*
X167960000Y-121295000D02*
X167960000Y-122224900D01*
%TO.N,GNDA*%
X165390000Y-126370000D02*
X164851319Y-126370000D01*
X164851319Y-126370000D02*
X164639881Y-126581438D01*
%TO.N,Net-(U6-SS)*%
X165760000Y-124170000D02*
X164510000Y-124170000D01*
X165960000Y-124370000D02*
X165760000Y-124170000D01*
X164210000Y-123870000D02*
X164210000Y-121620000D01*
X164210000Y-121620000D02*
X164710000Y-121120000D01*
X165960000Y-124800000D02*
X165960000Y-124370000D01*
X164510000Y-124170000D02*
X164210000Y-123870000D01*
%TO.N,Net-(U6-VCC)*%
X166960000Y-124370000D02*
X165710000Y-123120000D01*
X166960000Y-124800000D02*
X166960000Y-124370000D01*
X165710000Y-123120000D02*
X165210000Y-123120000D01*
%TO.N,Net-(U6-BST)*%
X167460000Y-124800000D02*
X167460000Y-123270000D01*
X167460000Y-123270000D02*
X167310000Y-123120000D01*
%TO.N,GNDPWR*%
X188450000Y-129587902D02*
X188450000Y-129723298D01*
D62*
X162425000Y-113525000D02*
X161734761Y-112834761D01*
X160975000Y-119550000D02*
X160360000Y-119550000D01*
X159075000Y-120200000D02*
X158439458Y-120200000D01*
X158631447Y-126043247D02*
X158406000Y-126043247D01*
X172125000Y-113044600D02*
X172125000Y-112162500D01*
X160860001Y-122221836D02*
X160860000Y-122221835D01*
D61*
X188210000Y-127800000D02*
X188210000Y-128915556D01*
D62*
X171730572Y-116205000D02*
X171678000Y-116205000D01*
X158439458Y-120200000D02*
X158395000Y-120244458D01*
X164940900Y-109840900D02*
X165000000Y-109900000D01*
D61*
X188210000Y-128915556D02*
X188601702Y-129307258D01*
D62*
X171678000Y-116205000D02*
X171678000Y-117017200D01*
X171678000Y-117018400D02*
X171678000Y-117856000D01*
X169925000Y-115650000D02*
X170725357Y-115650000D01*
D61*
X191125000Y-134725000D02*
X191150000Y-134700000D01*
D62*
X172775000Y-114437500D02*
X172775000Y-113694600D01*
X172775000Y-113694600D02*
X172125000Y-113044600D01*
X159131000Y-126542800D02*
X158631447Y-126043247D01*
X171678600Y-117017800D02*
X171678000Y-117018400D01*
X172775000Y-114437500D02*
X172775000Y-115160572D01*
D61*
X188601702Y-129307258D02*
X188601702Y-129875000D01*
D62*
X172775000Y-115160572D02*
X171730572Y-116205000D01*
X160860000Y-122221835D02*
X160860000Y-121650000D01*
X160360000Y-119550000D02*
X160340000Y-119570000D01*
D61*
X191495800Y-134704200D02*
X191500000Y-134700000D01*
D62*
X162433000Y-113525000D02*
X162425000Y-113525000D01*
X164165700Y-109840900D02*
X164940900Y-109840900D01*
X179100000Y-110100000D02*
X179900000Y-110100000D01*
D61*
X188450000Y-129723298D02*
X188601702Y-129875000D01*
X190755200Y-134704200D02*
X191495800Y-134704200D01*
D62*
X171280357Y-116205000D02*
X171678000Y-116205000D01*
X171678000Y-117017200D02*
X171678600Y-117017800D01*
X159131000Y-127292600D02*
X159131000Y-126542800D01*
X170725357Y-115650000D02*
X171280357Y-116205000D01*
X179100000Y-110100000D02*
X178300000Y-110100000D01*
D63*
%TO.N,Net-(J1-Pin_1)*%
X166771000Y-104150000D02*
X166751000Y-104170000D01*
X176750000Y-104150000D02*
X166771000Y-104150000D01*
X178300000Y-105700000D02*
X176750000Y-104150000D01*
D61*
%TO.N,/LX*%
X168115000Y-126775000D02*
X168115000Y-126795000D01*
X168110000Y-126170000D02*
X168115000Y-126765000D01*
X168460000Y-124800000D02*
X168460000Y-125370000D01*
X169030000Y-125370000D02*
X168460000Y-125370000D01*
X168115000Y-126285000D02*
X168110000Y-126170000D01*
X168115000Y-126765000D02*
X168110000Y-126770000D01*
X168110000Y-126770000D02*
X168115000Y-126775000D01*
X169030000Y-125870000D02*
X168530000Y-125870000D01*
D62*
%TO.N,VH*%
X162035000Y-128200000D02*
X162035000Y-129523000D01*
X162035000Y-129523000D02*
X162052000Y-129540000D01*
X183185000Y-134569000D02*
X183185000Y-133120000D01*
X182372000Y-135382000D02*
X183185000Y-134569000D01*
D61*
%TO.N,/FB*%
X163685000Y-128200000D02*
X163685000Y-126600000D01*
X163940000Y-125870000D02*
X163685000Y-126125000D01*
X165390000Y-125870000D02*
X163940000Y-125870000D01*
X163685000Y-126125000D02*
X163685000Y-126600000D01*
%TO.N,/EN*%
X163685000Y-125000000D02*
X162860000Y-125825000D01*
X159020000Y-124808004D02*
X159020000Y-120880000D01*
X165390000Y-125370000D02*
X164830000Y-125370000D01*
X164830000Y-125370000D02*
X164460000Y-125000000D01*
X162458004Y-127400000D02*
X161611996Y-127400000D01*
X161611996Y-127400000D02*
X159020000Y-124808004D01*
X164200000Y-113700000D02*
X164891312Y-113700000D01*
X164891312Y-113700000D02*
X165700000Y-114508688D01*
X162860000Y-126998004D02*
X162458004Y-127400000D01*
X165700000Y-114508688D02*
X165700000Y-114900000D01*
X162860000Y-125825000D02*
X162860000Y-126998004D01*
X164460000Y-125000000D02*
X163685000Y-125000000D01*
%TO.N,/SWDIO*%
X166443502Y-113639600D02*
X166065200Y-113639600D01*
X169925000Y-113050000D02*
X167033102Y-113050000D01*
X167033102Y-113050000D02*
X166443502Y-113639600D01*
%TO.N,/CH2*%
X189210000Y-128642764D02*
X189210000Y-127800000D01*
X165500000Y-116300000D02*
X165600000Y-116200000D01*
X189467236Y-128900000D02*
X189210000Y-128642764D01*
X164200000Y-116300000D02*
X165500000Y-116300000D01*
X189771312Y-128900000D02*
X189467236Y-128900000D01*
X189921312Y-129050000D02*
X189771312Y-128900000D01*
D62*
%TO.N,/SCL*%
X167698800Y-111040800D02*
X168619600Y-111040800D01*
D61*
X160975000Y-120200000D02*
X161370000Y-120200000D01*
X160210000Y-121650000D02*
X160210000Y-120480000D01*
X160210000Y-120480000D02*
X160490000Y-120200000D01*
D62*
X164200000Y-112400000D02*
X166339600Y-112400000D01*
X164200000Y-110825200D02*
X164165700Y-110790900D01*
X173300000Y-105760400D02*
X173300000Y-105700000D01*
X169545000Y-110896400D02*
X169545000Y-109515400D01*
X166339600Y-112400000D02*
X167698800Y-111040800D01*
X164200000Y-112400000D02*
X164200000Y-110825200D01*
D61*
X161625000Y-115017000D02*
X161508000Y-114900000D01*
D62*
X168619600Y-111040800D02*
X169400600Y-111040800D01*
D61*
X160490000Y-120200000D02*
X160975000Y-120200000D01*
D62*
X169400600Y-111040800D02*
X169545000Y-110896400D01*
D61*
X161625000Y-119945000D02*
X161625000Y-115017000D01*
D62*
X169545000Y-109515400D02*
X173300000Y-105760400D01*
D61*
X161370000Y-120200000D02*
X161625000Y-119945000D01*
%TO.N,/CH4*%
X164200000Y-117600000D02*
X165600000Y-117600000D01*
X187710000Y-121303604D02*
X187760000Y-121253604D01*
X165600000Y-117600000D02*
X165700000Y-117500000D01*
X187760000Y-120822457D02*
X187857457Y-120725000D01*
X187710000Y-122550000D02*
X187710000Y-121303604D01*
X187760000Y-121253604D02*
X187760000Y-120822457D01*
%TO.N,/CAN_TX*%
X171866000Y-113700000D02*
X169925000Y-113700000D01*
X172125000Y-114437500D02*
X172125000Y-113959000D01*
X172125000Y-113959000D02*
X171866000Y-113700000D01*
%TO.N,/CH1*%
X165150000Y-115650000D02*
X165200000Y-115600000D01*
X187710000Y-129299299D02*
X187885215Y-129474514D01*
X187710000Y-127800000D02*
X187710000Y-129299299D01*
X164200000Y-115650000D02*
X165150000Y-115650000D01*
D62*
%TO.N,/SDA*%
X163503201Y-108890900D02*
X164165700Y-108890900D01*
D61*
X159685000Y-119199695D02*
X159984695Y-118900000D01*
X159984695Y-118900000D02*
X160975000Y-118900000D01*
D62*
X168619600Y-107880400D02*
X170800000Y-105700000D01*
X165031582Y-108890900D02*
X164165700Y-108890900D01*
X163087500Y-109306601D02*
X163503201Y-108890900D01*
X166181482Y-110040800D02*
X165031582Y-108890900D01*
D61*
X160975000Y-115425000D02*
X160975000Y-118900000D01*
X160210000Y-123550000D02*
X159685000Y-123025000D01*
D62*
X163087500Y-112699522D02*
X163087500Y-109306601D01*
D61*
X161000000Y-115400000D02*
X160975000Y-115425000D01*
D62*
X164200000Y-113050000D02*
X163437978Y-113050000D01*
X163437978Y-113050000D02*
X163087500Y-112699522D01*
X168619600Y-110040800D02*
X166181482Y-110040800D01*
X168619600Y-110040800D02*
X168619600Y-107880400D01*
D61*
X159685000Y-123025000D02*
X159685000Y-119199695D01*
%TO.N,/CAN_RX*%
X174075000Y-114943800D02*
X174447200Y-115316000D01*
X174075000Y-114437500D02*
X174075000Y-114943800D01*
X169925000Y-114350000D02*
X169057007Y-114350000D01*
X169057007Y-114350000D02*
X168902760Y-114195753D01*
%TO.N,/SWCLK*%
X167046706Y-112400000D02*
X166416706Y-113030000D01*
X169925000Y-112400000D02*
X167046706Y-112400000D01*
X166416706Y-113030000D02*
X165455600Y-113030000D01*
%TO.N,/CH3*%
X189957572Y-121352781D02*
X189860353Y-121450000D01*
X164200000Y-116950000D02*
X165182933Y-116950000D01*
X189210000Y-121707236D02*
X189210000Y-122550000D01*
X189467236Y-121450000D02*
X189210000Y-121707236D01*
X165182933Y-116950000D02*
X165207933Y-116925000D01*
X189860353Y-121450000D02*
X189467236Y-121450000D01*
D64*
%TO.N,VDD*%
X171196000Y-110032800D02*
X171196000Y-111074200D01*
X170419600Y-110040800D02*
X171188000Y-110040800D01*
X171162600Y-111040800D02*
X171196000Y-111074200D01*
X166751000Y-106045000D02*
X166751000Y-106984800D01*
D62*
X173425000Y-114437500D02*
X173425000Y-113714428D01*
D61*
X188900000Y-134725000D02*
X189176996Y-134725000D01*
D64*
X171188000Y-110040800D02*
X171196000Y-110032800D01*
D62*
X161510000Y-120865000D02*
X162400000Y-119975000D01*
D61*
X163550000Y-134550000D02*
X163600000Y-134500000D01*
D64*
X166751000Y-108178600D02*
X166751000Y-108580600D01*
D62*
X173425000Y-116008000D02*
X173228000Y-116205000D01*
X158510000Y-118900000D02*
X158500000Y-118890000D01*
X162433000Y-118967000D02*
X162400000Y-119000000D01*
X162400000Y-119975000D02*
X162400000Y-119000000D01*
X173228000Y-116992400D02*
X173228000Y-117856000D01*
X171171373Y-115000000D02*
X171356430Y-115185057D01*
X162433000Y-118161000D02*
X162433000Y-118967000D01*
X173425000Y-113714428D02*
X174075000Y-113064428D01*
D61*
X163550000Y-135600000D02*
X163550000Y-134550000D01*
D62*
X169925000Y-115000000D02*
X171171373Y-115000000D01*
X161861000Y-110239000D02*
X161900000Y-110200000D01*
D61*
X189255200Y-134704200D02*
X188404200Y-134704200D01*
X188404200Y-134704200D02*
X188400000Y-134700000D01*
D64*
X170419600Y-111040800D02*
X171162600Y-111040800D01*
D62*
X161861000Y-110998000D02*
X161861000Y-110239000D01*
X161510000Y-121650000D02*
X161510000Y-120865000D01*
D64*
X166751000Y-106984800D02*
X166751000Y-108178600D01*
X166751000Y-108580600D02*
X166440700Y-108890900D01*
D62*
X159075000Y-118900000D02*
X158510000Y-118900000D01*
X173425000Y-114437500D02*
X173425000Y-116008000D01*
X174075000Y-113064428D02*
X174075000Y-112162500D01*
X173228000Y-116205000D02*
X173228000Y-116992400D01*
D61*
%TO.N,/~{RST}*%
X159131000Y-114218106D02*
X159131000Y-112078000D01*
X161136000Y-114300000D02*
X161036000Y-114400000D01*
X161036000Y-114400000D02*
X160328894Y-114400000D01*
X160328894Y-114400000D02*
X160211000Y-114282106D01*
X164150000Y-114300000D02*
X161136000Y-114300000D01*
X159131000Y-112078000D02*
X160211000Y-110998000D01*
X160020000Y-114400000D02*
X159312894Y-114400000D01*
X159312894Y-114400000D02*
X159131000Y-114218106D01*
X164200000Y-114350000D02*
X164150000Y-114300000D01*
%TO.N,Net-(U5-SEn)*%
X187210000Y-127800000D02*
X187210000Y-128717208D01*
X189255200Y-133054200D02*
X189255200Y-132244800D01*
X189255200Y-132244800D02*
X189300000Y-132200000D01*
X187210000Y-128717208D02*
X186675000Y-129252208D01*
D62*
%TO.N,VDDA*%
X162508000Y-115000000D02*
X162433000Y-115075000D01*
X164200000Y-115000000D02*
X162508000Y-115000000D01*
X162433000Y-116586000D02*
X162433000Y-115075000D01*
D61*
%TO.N,/BATT_VOLTAGE*%
X168400000Y-116300000D02*
X168400000Y-115800000D01*
X166431600Y-110800000D02*
X166440700Y-110790900D01*
X168400000Y-115800000D02*
X168700000Y-115500000D01*
X168400000Y-116300000D02*
X169925000Y-116300000D01*
D62*
X159131000Y-128942600D02*
X159131000Y-130124200D01*
X159131000Y-130124200D02*
X159334200Y-130327400D01*
D61*
X168400000Y-116300000D02*
X165750879Y-118949121D01*
X165500000Y-110800000D02*
X166431600Y-110800000D01*
X165750879Y-118949121D02*
X165575000Y-118949121D01*
%TO.N,/SEL0*%
X169079609Y-118250000D02*
X168945209Y-118384400D01*
X169925000Y-118250000D02*
X169079609Y-118250000D01*
X188710000Y-121570840D02*
X188710000Y-122550000D01*
X189412195Y-120868645D02*
X188710000Y-121570840D01*
%TO.N,Net-(U4-B)*%
X160860000Y-126000000D02*
X160860000Y-123550000D01*
X161460000Y-126600000D02*
X160860000Y-126000000D01*
X162035000Y-126600000D02*
X161460000Y-126600000D01*
%TO.N,/SENSE*%
X185600000Y-132400000D02*
X185600000Y-131400000D01*
X165250000Y-118250000D02*
X165300000Y-118200000D01*
X164200000Y-118250000D02*
X165250000Y-118250000D01*
%TO.N,/SEL1*%
X169925000Y-117600000D02*
X168792454Y-117600000D01*
X168792454Y-117600000D02*
X168725000Y-117667454D01*
X187210000Y-122550000D02*
X187210000Y-120970005D01*
X187210000Y-120970005D02*
X187161972Y-120921977D01*
%TO.N,VBAT_Fused*%
X166285000Y-122845000D02*
X166310000Y-122870000D01*
D62*
X159334200Y-133184200D02*
X159600000Y-133450000D01*
D61*
X165990000Y-127870000D02*
X165890000Y-127870000D01*
X165390000Y-127870000D02*
X165790000Y-127870000D01*
X166285000Y-121270000D02*
X166285000Y-122845000D01*
X165790000Y-127870000D02*
X166210000Y-127970000D01*
X166210000Y-127970000D02*
X165990000Y-127870000D01*
D62*
X159334200Y-131977400D02*
X159334200Y-133184200D01*
%TO.N,/BST*%
X163550000Y-137875000D02*
X164475000Y-138800000D01*
X164475000Y-142400000D02*
X163675000Y-143200000D01*
X164475000Y-138800000D02*
X164475000Y-142400000D01*
%TO.N,/SW*%
X162125000Y-143200000D02*
X163600000Y-141725000D01*
X163600000Y-141725000D02*
X163600000Y-140600000D01*
%TO.N,/CAN+*%
X176574999Y-109450000D02*
X176274999Y-109750000D01*
X177100000Y-109450000D02*
X176574999Y-109450000D01*
X186000000Y-108705024D02*
X186000000Y-108100000D01*
X176274999Y-109750000D02*
X173655024Y-109750000D01*
X180221016Y-109325000D02*
X180646016Y-109750000D01*
X172750000Y-112137500D02*
X172775000Y-112162500D01*
X177100000Y-109450000D02*
X177550000Y-109450000D01*
X186000000Y-108100000D02*
X184600000Y-106700000D01*
X180646016Y-109750000D02*
X184955024Y-109750000D01*
X177675000Y-109325000D02*
X180221016Y-109325000D01*
X184955024Y-109750000D02*
X186000000Y-108705024D01*
X184600000Y-106700000D02*
X184600000Y-106400000D01*
X172750000Y-110655024D02*
X172750000Y-112137500D01*
X173655024Y-109750000D02*
X172750000Y-110655024D01*
X177550000Y-109450000D02*
X177675000Y-109325000D01*
%TO.N,/CAN-*%
X176574999Y-110750000D02*
X176274999Y-110450000D01*
X173944976Y-110450000D02*
X173450000Y-110944976D01*
X186700000Y-108100000D02*
X188100000Y-106700000D01*
X180225000Y-110875000D02*
X180650000Y-110450000D01*
X177100000Y-110750000D02*
X176574999Y-110750000D01*
X186700000Y-108994976D02*
X186700000Y-108100000D01*
X177100000Y-110750000D02*
X177550000Y-110750000D01*
X177675000Y-110875000D02*
X180225000Y-110875000D01*
X180650000Y-110450000D02*
X185244976Y-110450000D01*
X188100000Y-106700000D02*
X188100000Y-106400000D01*
X173450000Y-110944976D02*
X173450000Y-112137500D01*
X173450000Y-112137500D02*
X173425000Y-112162500D01*
X185244976Y-110450000D02*
X186700000Y-108994976D01*
X177550000Y-110750000D02*
X177675000Y-110875000D01*
X176274999Y-110450000D02*
X173944976Y-110450000D01*
D61*
%TO.N,Net-(U5-CS)*%
X190030200Y-133779200D02*
X188629200Y-133779200D01*
X190755200Y-133054200D02*
X190030200Y-133779200D01*
X190755200Y-133054200D02*
X190755200Y-132244800D01*
X188210000Y-122550000D02*
X188210000Y-121237716D01*
X188210000Y-121237716D02*
X188673477Y-120774239D01*
X190755200Y-132244800D02*
X190800000Y-132200000D01*
X188629200Y-133779200D02*
X187250000Y-132400000D01*
X190545800Y-133054200D02*
X190755200Y-133054200D01*
%TO.N,/FRST*%
X188710000Y-128779160D02*
X189346312Y-129415472D01*
X188710000Y-127800000D02*
X188710000Y-128779160D01*
X169925000Y-116950000D02*
X168836607Y-116950000D01*
X189346312Y-129415472D02*
X189346312Y-129465049D01*
X168836607Y-116950000D02*
X168808749Y-116922142D01*
%TD*%
%TA.AperFunction,Conductor*%
%TO.N,GNDPWR*%
G36*
X169885000Y-127995000D02*
G01*
X168805000Y-127995000D01*
X168805000Y-127745000D01*
X169335000Y-127745000D01*
X169335000Y-127495000D01*
X168805000Y-127495000D01*
X168805000Y-127245000D01*
X169335000Y-127245000D01*
X169335000Y-126995000D01*
X168805000Y-126995000D01*
X168805000Y-126745000D01*
X169335000Y-126745000D01*
X169335000Y-126495000D01*
X168805000Y-126495000D01*
X168805000Y-126320118D01*
X168810185Y-126302461D01*
X168862989Y-126256706D01*
X168914500Y-126245500D01*
X169279676Y-126245500D01*
X169279677Y-126245499D01*
X169282188Y-126245000D01*
X169885000Y-126245000D01*
X169885000Y-127995000D01*
G37*
%TD.AperFunction*%
%TD*%
%TA.AperFunction,Conductor*%
%TO.N,GNDPWR*%
G36*
X206442539Y-143529685D02*
G01*
X206488294Y-143582489D01*
X206499500Y-143634000D01*
X206499500Y-150975500D01*
X206479815Y-151042539D01*
X206427011Y-151088294D01*
X206375500Y-151099500D01*
X188825309Y-151099500D01*
X188758270Y-151079815D01*
X188712515Y-151027011D01*
X188702571Y-150957853D01*
X188731596Y-150894297D01*
X188790374Y-150856523D01*
X188798653Y-150854399D01*
X188897538Y-150832632D01*
X189241789Y-150716640D01*
X189241794Y-150716639D01*
X189571464Y-150564116D01*
X189571477Y-150564109D01*
X189882717Y-150376843D01*
X189882733Y-150376832D01*
X190171929Y-150156992D01*
X190188110Y-150141664D01*
X190188110Y-150141663D01*
X188940698Y-148894251D01*
X189042330Y-148820412D01*
X189220412Y-148642330D01*
X189294251Y-148540698D01*
X190539028Y-149785475D01*
X190539029Y-149785475D01*
X190670827Y-149630311D01*
X190670838Y-149630297D01*
X190874681Y-149329651D01*
X190874683Y-149329647D01*
X191044838Y-149008702D01*
X191044847Y-149008684D01*
X191179302Y-148671227D01*
X191179304Y-148671220D01*
X191276480Y-148321222D01*
X191276482Y-148321214D01*
X191335253Y-147962728D01*
X191354920Y-147600002D01*
X191354920Y-147599997D01*
X191335253Y-147237271D01*
X191276482Y-146878785D01*
X191276480Y-146878777D01*
X191179304Y-146528779D01*
X191179302Y-146528772D01*
X191044847Y-146191315D01*
X191044838Y-146191297D01*
X190918052Y-145952155D01*
X195500000Y-145952155D01*
X195500000Y-146500000D01*
X196980384Y-146500000D01*
X196964185Y-146528058D01*
X196925000Y-146674300D01*
X196925000Y-146825700D01*
X196964185Y-146971942D01*
X196980384Y-147000000D01*
X195500000Y-147000000D01*
X195500000Y-147547844D01*
X195506401Y-147607372D01*
X195506403Y-147607379D01*
X195556645Y-147742086D01*
X195556649Y-147742093D01*
X195642809Y-147857187D01*
X195642812Y-147857190D01*
X195757906Y-147943350D01*
X195757913Y-147943354D01*
X195892620Y-147993596D01*
X195892627Y-147993598D01*
X195952155Y-147999999D01*
X195952172Y-148000000D01*
X197250000Y-148000000D01*
X197250000Y-147269615D01*
X197278058Y-147285815D01*
X197424300Y-147325000D01*
X197575700Y-147325000D01*
X197721942Y-147285815D01*
X197750000Y-147269615D01*
X197750000Y-148000000D01*
X199047828Y-148000000D01*
X199047844Y-147999999D01*
X199107372Y-147993598D01*
X199107379Y-147993596D01*
X199242086Y-147943354D01*
X199242093Y-147943350D01*
X199357187Y-147857190D01*
X199357190Y-147857187D01*
X199443350Y-147742093D01*
X199443354Y-147742086D01*
X199493596Y-147607379D01*
X199493598Y-147607372D01*
X199499999Y-147547844D01*
X199500000Y-147547827D01*
X199500000Y-147000000D01*
X198019616Y-147000000D01*
X198035815Y-146971942D01*
X198075000Y-146825700D01*
X198075000Y-146674300D01*
X198035815Y-146528058D01*
X198019616Y-146500000D01*
X199500000Y-146500000D01*
X199500000Y-145952172D01*
X199499999Y-145952155D01*
X200500000Y-145952155D01*
X200500000Y-146500000D01*
X201980384Y-146500000D01*
X201964185Y-146528058D01*
X201925000Y-146674300D01*
X201925000Y-146825700D01*
X201964185Y-146971942D01*
X201980384Y-147000000D01*
X200500000Y-147000000D01*
X200500000Y-147547844D01*
X200506401Y-147607372D01*
X200506403Y-147607379D01*
X200556645Y-147742086D01*
X200556649Y-147742093D01*
X200642809Y-147857187D01*
X200642812Y-147857190D01*
X200757906Y-147943350D01*
X200757913Y-147943354D01*
X200892620Y-147993596D01*
X200892627Y-147993598D01*
X200952155Y-147999999D01*
X200952172Y-148000000D01*
X202250000Y-148000000D01*
X202250000Y-147269615D01*
X202278058Y-147285815D01*
X202424300Y-147325000D01*
X202575700Y-147325000D01*
X202721942Y-147285815D01*
X202750000Y-147269615D01*
X202750000Y-148000000D01*
X204047828Y-148000000D01*
X204047844Y-147999999D01*
X204107372Y-147993598D01*
X204107379Y-147993596D01*
X204242086Y-147943354D01*
X204242093Y-147943350D01*
X204357187Y-147857190D01*
X204357190Y-147857187D01*
X204443350Y-147742093D01*
X204443354Y-147742086D01*
X204493596Y-147607379D01*
X204493598Y-147607372D01*
X204499999Y-147547844D01*
X204500000Y-147547827D01*
X204500000Y-147000000D01*
X203019616Y-147000000D01*
X203035815Y-146971942D01*
X203075000Y-146825700D01*
X203075000Y-146674300D01*
X203035815Y-146528058D01*
X203019616Y-146500000D01*
X204500000Y-146500000D01*
X204500000Y-145952172D01*
X204499999Y-145952155D01*
X204493598Y-145892627D01*
X204493596Y-145892620D01*
X204443354Y-145757913D01*
X204443350Y-145757906D01*
X204357190Y-145642812D01*
X204357187Y-145642809D01*
X204242093Y-145556649D01*
X204242086Y-145556645D01*
X204107379Y-145506403D01*
X204107372Y-145506401D01*
X204047844Y-145500000D01*
X202750000Y-145500000D01*
X202750000Y-146230384D01*
X202721942Y-146214185D01*
X202575700Y-146175000D01*
X202424300Y-146175000D01*
X202278058Y-146214185D01*
X202250000Y-146230384D01*
X202250000Y-145500000D01*
X200952155Y-145500000D01*
X200892627Y-145506401D01*
X200892620Y-145506403D01*
X200757913Y-145556645D01*
X200757906Y-145556649D01*
X200642812Y-145642809D01*
X200642809Y-145642812D01*
X200556649Y-145757906D01*
X200556645Y-145757913D01*
X200506403Y-145892620D01*
X200506401Y-145892627D01*
X200500000Y-145952155D01*
X199499999Y-145952155D01*
X199493598Y-145892627D01*
X199493596Y-145892620D01*
X199443354Y-145757913D01*
X199443350Y-145757906D01*
X199357190Y-145642812D01*
X199357187Y-145642809D01*
X199242093Y-145556649D01*
X199242086Y-145556645D01*
X199107379Y-145506403D01*
X199107372Y-145506401D01*
X199047844Y-145500000D01*
X197750000Y-145500000D01*
X197750000Y-146230384D01*
X197721942Y-146214185D01*
X197575700Y-146175000D01*
X197424300Y-146175000D01*
X197278058Y-146214185D01*
X197250000Y-146230384D01*
X197250000Y-145500000D01*
X195952155Y-145500000D01*
X195892627Y-145506401D01*
X195892620Y-145506403D01*
X195757913Y-145556645D01*
X195757906Y-145556649D01*
X195642812Y-145642809D01*
X195642809Y-145642812D01*
X195556649Y-145757906D01*
X195556645Y-145757913D01*
X195506403Y-145892620D01*
X195506401Y-145892627D01*
X195500000Y-145952155D01*
X190918052Y-145952155D01*
X190874683Y-145870352D01*
X190874681Y-145870348D01*
X190670829Y-145569690D01*
X190670822Y-145569680D01*
X190539029Y-145414523D01*
X190539028Y-145414523D01*
X189294251Y-146659300D01*
X189220412Y-146557670D01*
X189042330Y-146379588D01*
X188940698Y-146305748D01*
X190188110Y-145058336D01*
X190188110Y-145058334D01*
X190171929Y-145043007D01*
X190171928Y-145043006D01*
X189882733Y-144823167D01*
X189882717Y-144823156D01*
X189571477Y-144635890D01*
X189571464Y-144635883D01*
X189241794Y-144483360D01*
X189241789Y-144483359D01*
X188897538Y-144367367D01*
X188542764Y-144289275D01*
X188181633Y-144250000D01*
X187818366Y-144250000D01*
X187457235Y-144289275D01*
X187102461Y-144367367D01*
X186758210Y-144483359D01*
X186758205Y-144483360D01*
X186428535Y-144635883D01*
X186428522Y-144635890D01*
X186117282Y-144823156D01*
X186117266Y-144823167D01*
X185828075Y-145043002D01*
X185811888Y-145058335D01*
X185811887Y-145058335D01*
X187059301Y-146305748D01*
X186957670Y-146379588D01*
X186779588Y-146557670D01*
X186705748Y-146659300D01*
X185460970Y-145414522D01*
X185460969Y-145414523D01*
X185329177Y-145569680D01*
X185329170Y-145569690D01*
X185125318Y-145870348D01*
X185125316Y-145870352D01*
X184955161Y-146191297D01*
X184955152Y-146191315D01*
X184820697Y-146528772D01*
X184820695Y-146528779D01*
X184723519Y-146878777D01*
X184723517Y-146878785D01*
X184664746Y-147237271D01*
X184645080Y-147599997D01*
X184645080Y-147600002D01*
X184664746Y-147962728D01*
X184723517Y-148321214D01*
X184723519Y-148321222D01*
X184820695Y-148671220D01*
X184820697Y-148671227D01*
X184955152Y-149008684D01*
X184955161Y-149008702D01*
X185125316Y-149329647D01*
X185125318Y-149329651D01*
X185329170Y-149630309D01*
X185329177Y-149630319D01*
X185460969Y-149785475D01*
X185460970Y-149785475D01*
X186705748Y-148540698D01*
X186779588Y-148642330D01*
X186957670Y-148820412D01*
X187059300Y-148894251D01*
X185811888Y-150141662D01*
X185811888Y-150141664D01*
X185828070Y-150156992D01*
X185828071Y-150156993D01*
X186117266Y-150376832D01*
X186117282Y-150376843D01*
X186428522Y-150564109D01*
X186428535Y-150564116D01*
X186758205Y-150716639D01*
X186758210Y-150716640D01*
X187102461Y-150832632D01*
X187201347Y-150854399D01*
X187262588Y-150888035D01*
X187295922Y-150949440D01*
X187290766Y-151019119D01*
X187248757Y-151074950D01*
X187183233Y-151099205D01*
X187174691Y-151099500D01*
X184274000Y-151099500D01*
X184206961Y-151079815D01*
X184161206Y-151027011D01*
X184150000Y-150975500D01*
X184150000Y-143634000D01*
X184169685Y-143566961D01*
X184222489Y-143521206D01*
X184274000Y-143510000D01*
X206375500Y-143510000D01*
X206442539Y-143529685D01*
G37*
%TD.AperFunction*%
%TD*%
%TA.AperFunction,Conductor*%
%TO.N,/OUT1*%
G36*
X204943039Y-124999685D02*
G01*
X204988794Y-125052489D01*
X205000000Y-125104000D01*
X205000000Y-128896000D01*
X204980315Y-128963039D01*
X204927511Y-129008794D01*
X204876000Y-129020000D01*
X190530093Y-129020000D01*
X190463054Y-129000315D01*
X190417299Y-128947511D01*
X190407355Y-128913648D01*
X190406477Y-128907546D01*
X190406477Y-128907543D01*
X190346689Y-128776627D01*
X190252440Y-128667857D01*
X190167459Y-128613243D01*
X190121705Y-128560440D01*
X190110499Y-128508932D01*
X190110499Y-127061862D01*
X190104259Y-127014455D01*
X190055747Y-126910421D01*
X190032507Y-126887181D01*
X189999022Y-126825858D01*
X190004006Y-126756166D01*
X190045878Y-126700233D01*
X190111342Y-126675816D01*
X190120188Y-126675500D01*
X190289676Y-126675500D01*
X190289677Y-126675499D01*
X190362740Y-126660966D01*
X190445601Y-126605601D01*
X190500966Y-126522740D01*
X190505489Y-126500000D01*
X195524016Y-126500000D01*
X196980384Y-126500000D01*
X196964185Y-126528058D01*
X196925000Y-126674300D01*
X196925000Y-126825700D01*
X196964185Y-126971942D01*
X196980384Y-127000000D01*
X195524016Y-127000000D01*
X195530781Y-127042716D01*
X195591581Y-127229837D01*
X195680904Y-127405143D01*
X195796555Y-127564321D01*
X195935678Y-127703444D01*
X196094856Y-127819095D01*
X196270164Y-127908418D01*
X196457294Y-127969221D01*
X196651618Y-128000000D01*
X197250000Y-128000000D01*
X197250000Y-127269615D01*
X197278058Y-127285815D01*
X197424300Y-127325000D01*
X197575700Y-127325000D01*
X197721942Y-127285815D01*
X197750000Y-127269615D01*
X197750000Y-128000000D01*
X198348382Y-128000000D01*
X198542705Y-127969221D01*
X198729835Y-127908418D01*
X198905143Y-127819095D01*
X199064321Y-127703444D01*
X199203444Y-127564321D01*
X199319095Y-127405143D01*
X199408418Y-127229837D01*
X199469218Y-127042716D01*
X199475984Y-127000000D01*
X198019616Y-127000000D01*
X198035815Y-126971942D01*
X198075000Y-126825700D01*
X198075000Y-126674300D01*
X198035815Y-126528058D01*
X198019616Y-126500000D01*
X199475984Y-126500000D01*
X200524016Y-126500000D01*
X201980384Y-126500000D01*
X201964185Y-126528058D01*
X201925000Y-126674300D01*
X201925000Y-126825700D01*
X201964185Y-126971942D01*
X201980384Y-127000000D01*
X200524016Y-127000000D01*
X200530781Y-127042716D01*
X200591581Y-127229837D01*
X200680904Y-127405143D01*
X200796555Y-127564321D01*
X200935678Y-127703444D01*
X201094856Y-127819095D01*
X201270164Y-127908418D01*
X201457294Y-127969221D01*
X201651618Y-128000000D01*
X202250000Y-128000000D01*
X202250000Y-127269615D01*
X202278058Y-127285815D01*
X202424300Y-127325000D01*
X202575700Y-127325000D01*
X202721942Y-127285815D01*
X202750000Y-127269615D01*
X202750000Y-128000000D01*
X203348382Y-128000000D01*
X203542705Y-127969221D01*
X203729835Y-127908418D01*
X203905143Y-127819095D01*
X204064321Y-127703444D01*
X204203444Y-127564321D01*
X204319095Y-127405143D01*
X204408418Y-127229837D01*
X204469218Y-127042716D01*
X204475984Y-127000000D01*
X203019616Y-127000000D01*
X203035815Y-126971942D01*
X203075000Y-126825700D01*
X203075000Y-126674300D01*
X203035815Y-126528058D01*
X203019616Y-126500000D01*
X204475984Y-126500000D01*
X204469218Y-126457283D01*
X204408418Y-126270162D01*
X204319095Y-126094856D01*
X204203444Y-125935678D01*
X204064321Y-125796555D01*
X203905143Y-125680904D01*
X203729835Y-125591581D01*
X203542705Y-125530778D01*
X203348382Y-125500000D01*
X202750000Y-125500000D01*
X202750000Y-126230384D01*
X202721942Y-126214185D01*
X202575700Y-126175000D01*
X202424300Y-126175000D01*
X202278058Y-126214185D01*
X202250000Y-126230384D01*
X202250000Y-125500000D01*
X201651618Y-125500000D01*
X201457294Y-125530778D01*
X201270164Y-125591581D01*
X201094856Y-125680904D01*
X200935678Y-125796555D01*
X200796555Y-125935678D01*
X200680904Y-126094856D01*
X200591581Y-126270162D01*
X200530781Y-126457283D01*
X200524016Y-126500000D01*
X199475984Y-126500000D01*
X199469218Y-126457283D01*
X199408418Y-126270162D01*
X199319095Y-126094856D01*
X199203444Y-125935678D01*
X199064321Y-125796555D01*
X198905143Y-125680904D01*
X198729835Y-125591581D01*
X198542705Y-125530778D01*
X198348382Y-125500000D01*
X197750000Y-125500000D01*
X197750000Y-126230384D01*
X197721942Y-126214185D01*
X197575700Y-126175000D01*
X197424300Y-126175000D01*
X197278058Y-126214185D01*
X197250000Y-126230384D01*
X197250000Y-125500000D01*
X196651618Y-125500000D01*
X196457294Y-125530778D01*
X196270164Y-125591581D01*
X196094856Y-125680904D01*
X195935678Y-125796555D01*
X195796555Y-125935678D01*
X195680904Y-126094856D01*
X195591581Y-126270162D01*
X195530781Y-126457283D01*
X195524016Y-126500000D01*
X190505489Y-126500000D01*
X190515500Y-126449674D01*
X190515500Y-126333988D01*
X190535185Y-126266949D01*
X190564013Y-126235613D01*
X190591938Y-126214185D01*
X190652621Y-126167621D01*
X190740861Y-126052625D01*
X190796330Y-125918709D01*
X190815250Y-125775000D01*
X190796330Y-125631291D01*
X190740861Y-125497375D01*
X190652621Y-125382379D01*
X190564013Y-125314387D01*
X190522811Y-125257959D01*
X190515500Y-125216012D01*
X190515500Y-125133987D01*
X190535185Y-125066948D01*
X190564011Y-125035614D01*
X190603095Y-125005623D01*
X190668263Y-124980430D01*
X190678580Y-124980000D01*
X204876000Y-124980000D01*
X204943039Y-124999685D01*
G37*
%TD.AperFunction*%
%TD*%
%TA.AperFunction,Conductor*%
%TO.N,/OUT0*%
G36*
X186686315Y-127012705D02*
G01*
X186753223Y-127032829D01*
X186798630Y-127085932D01*
X186809500Y-127136702D01*
X186809500Y-128535307D01*
X186789815Y-128602346D01*
X186773182Y-128622988D01*
X186680603Y-128715568D01*
X186619280Y-128749053D01*
X186610571Y-128750624D01*
X186603041Y-128751706D01*
X186464949Y-128792253D01*
X186343873Y-128870064D01*
X186249623Y-128978834D01*
X186249622Y-128978836D01*
X186189834Y-129109751D01*
X186169353Y-129252208D01*
X186189834Y-129394664D01*
X186228405Y-129479121D01*
X186249623Y-129525581D01*
X186343872Y-129634351D01*
X186464947Y-129712161D01*
X186464950Y-129712162D01*
X186464949Y-129712162D01*
X186603036Y-129752707D01*
X186603038Y-129752708D01*
X186603039Y-129752708D01*
X186746962Y-129752708D01*
X186746962Y-129752707D01*
X186885053Y-129712161D01*
X187006128Y-129634351D01*
X187100377Y-129525581D01*
X187135904Y-129447786D01*
X187181657Y-129394985D01*
X187248696Y-129375300D01*
X187315736Y-129394984D01*
X187356083Y-129437298D01*
X187368279Y-129458421D01*
X187383631Y-129502776D01*
X187400049Y-129616967D01*
X187400050Y-129616972D01*
X187455515Y-129738422D01*
X187459838Y-129747887D01*
X187554087Y-129856657D01*
X187675162Y-129934467D01*
X187675165Y-129934468D01*
X187675164Y-129934468D01*
X187813251Y-129975013D01*
X187813253Y-129975014D01*
X187910298Y-129975014D01*
X187977337Y-129994699D01*
X188023092Y-130047503D01*
X188024859Y-130051561D01*
X188077166Y-130177841D01*
X188173420Y-130303282D01*
X188298861Y-130399536D01*
X188444940Y-130460044D01*
X188523321Y-130470363D01*
X188601701Y-130480682D01*
X188601702Y-130480682D01*
X188601703Y-130480682D01*
X188653956Y-130473802D01*
X188758464Y-130460044D01*
X188904543Y-130399536D01*
X189029984Y-130303282D01*
X189126238Y-130177841D01*
X189182466Y-130042094D01*
X189226306Y-129987693D01*
X189292600Y-129965628D01*
X189297026Y-129965549D01*
X189418274Y-129965549D01*
X189418274Y-129965548D01*
X189556365Y-129925002D01*
X189677440Y-129847192D01*
X189771689Y-129738422D01*
X189824406Y-129622988D01*
X189870161Y-129570185D01*
X189937200Y-129550500D01*
X189993274Y-129550500D01*
X189993274Y-129550499D01*
X190046109Y-129534985D01*
X190139875Y-129507455D01*
X190140234Y-129508680D01*
X190180134Y-129500000D01*
X204876000Y-129500000D01*
X204943039Y-129519685D01*
X204988794Y-129572489D01*
X205000000Y-129624000D01*
X205000000Y-133376000D01*
X204980315Y-133443039D01*
X204927511Y-133488794D01*
X204876000Y-133500000D01*
X191596236Y-133500000D01*
X191529197Y-133480315D01*
X191483442Y-133427511D01*
X191473498Y-133358353D01*
X191476440Y-133346317D01*
X191476236Y-133346273D01*
X191477846Y-133338899D01*
X191480700Y-133308469D01*
X191480700Y-132799930D01*
X191477846Y-132769500D01*
X191477846Y-132769498D01*
X191432993Y-132641319D01*
X191432993Y-132641318D01*
X191373154Y-132560239D01*
X191349185Y-132494611D01*
X191349069Y-132480656D01*
X191369800Y-132050000D01*
X191361410Y-132050000D01*
X191294371Y-132030315D01*
X191248616Y-131977512D01*
X191225377Y-131926628D01*
X191225376Y-131926626D01*
X191204068Y-131902035D01*
X191131128Y-131817857D01*
X191010053Y-131740047D01*
X191010051Y-131740046D01*
X191010049Y-131740045D01*
X191010050Y-131740045D01*
X190871963Y-131699500D01*
X190871961Y-131699500D01*
X190728039Y-131699500D01*
X190728036Y-131699500D01*
X190589949Y-131740045D01*
X190468873Y-131817856D01*
X190374623Y-131926626D01*
X190374622Y-131926628D01*
X190351384Y-131977512D01*
X190305629Y-132030316D01*
X190238590Y-132050000D01*
X189861410Y-132050000D01*
X189794371Y-132030315D01*
X189748616Y-131977512D01*
X189725377Y-131926628D01*
X189725376Y-131926626D01*
X189704068Y-131902035D01*
X189631128Y-131817857D01*
X189510053Y-131740047D01*
X189510051Y-131740046D01*
X189510049Y-131740045D01*
X189510050Y-131740045D01*
X189371963Y-131699500D01*
X189371961Y-131699500D01*
X189228039Y-131699500D01*
X189228036Y-131699500D01*
X189089949Y-131740045D01*
X188968873Y-131817856D01*
X188874623Y-131926626D01*
X188874622Y-131926628D01*
X188851384Y-131977512D01*
X188805629Y-132030316D01*
X188738590Y-132050000D01*
X187989022Y-132050000D01*
X187921983Y-132030315D01*
X187876228Y-131977511D01*
X187871989Y-131966978D01*
X187852793Y-131912118D01*
X187772150Y-131802850D01*
X187662882Y-131722207D01*
X187662880Y-131722206D01*
X187534700Y-131677353D01*
X187504270Y-131674500D01*
X187504266Y-131674500D01*
X186995734Y-131674500D01*
X186995730Y-131674500D01*
X186965300Y-131677353D01*
X186965298Y-131677353D01*
X186837119Y-131722206D01*
X186837117Y-131722207D01*
X186727850Y-131802850D01*
X186654649Y-131902035D01*
X186647207Y-131912118D01*
X186628017Y-131966958D01*
X186587298Y-132023731D01*
X186522345Y-132049478D01*
X186510978Y-132050000D01*
X186339022Y-132050000D01*
X186271983Y-132030315D01*
X186226228Y-131977511D01*
X186221989Y-131966978D01*
X186202793Y-131912118D01*
X186122150Y-131802850D01*
X186086508Y-131776545D01*
X186044257Y-131720897D01*
X186038800Y-131651241D01*
X186047348Y-131625263D01*
X186085165Y-131542456D01*
X186091269Y-131500000D01*
X186105647Y-131400000D01*
X186085165Y-131257543D01*
X186025377Y-131126627D01*
X185931128Y-131017857D01*
X185828893Y-130952155D01*
X195500000Y-130952155D01*
X195500000Y-131500000D01*
X196980384Y-131500000D01*
X196964185Y-131528058D01*
X196925000Y-131674300D01*
X196925000Y-131825700D01*
X196964185Y-131971942D01*
X196980384Y-132000000D01*
X195500000Y-132000000D01*
X195500000Y-132547844D01*
X195506401Y-132607372D01*
X195506403Y-132607379D01*
X195556645Y-132742086D01*
X195556649Y-132742093D01*
X195642809Y-132857187D01*
X195642812Y-132857190D01*
X195757906Y-132943350D01*
X195757913Y-132943354D01*
X195892620Y-132993596D01*
X195892627Y-132993598D01*
X195952155Y-132999999D01*
X195952172Y-133000000D01*
X197250000Y-133000000D01*
X197250000Y-132269615D01*
X197278058Y-132285815D01*
X197424300Y-132325000D01*
X197575700Y-132325000D01*
X197721942Y-132285815D01*
X197750000Y-132269615D01*
X197750000Y-133000000D01*
X199047828Y-133000000D01*
X199047844Y-132999999D01*
X199107372Y-132993598D01*
X199107379Y-132993596D01*
X199242086Y-132943354D01*
X199242093Y-132943350D01*
X199357187Y-132857190D01*
X199357190Y-132857187D01*
X199443350Y-132742093D01*
X199443354Y-132742086D01*
X199493596Y-132607379D01*
X199493598Y-132607372D01*
X199499999Y-132547844D01*
X199500000Y-132547827D01*
X199500000Y-132000000D01*
X198019616Y-132000000D01*
X198035815Y-131971942D01*
X198075000Y-131825700D01*
X198075000Y-131674300D01*
X198035815Y-131528058D01*
X198019616Y-131500000D01*
X199500000Y-131500000D01*
X199500000Y-130952172D01*
X199499999Y-130952155D01*
X200500000Y-130952155D01*
X200500000Y-131500000D01*
X201980384Y-131500000D01*
X201964185Y-131528058D01*
X201925000Y-131674300D01*
X201925000Y-131825700D01*
X201964185Y-131971942D01*
X201980384Y-132000000D01*
X200500000Y-132000000D01*
X200500000Y-132547844D01*
X200506401Y-132607372D01*
X200506403Y-132607379D01*
X200556645Y-132742086D01*
X200556649Y-132742093D01*
X200642809Y-132857187D01*
X200642812Y-132857190D01*
X200757906Y-132943350D01*
X200757913Y-132943354D01*
X200892620Y-132993596D01*
X200892627Y-132993598D01*
X200952155Y-132999999D01*
X200952172Y-133000000D01*
X202250000Y-133000000D01*
X202250000Y-132269615D01*
X202278058Y-132285815D01*
X202424300Y-132325000D01*
X202575700Y-132325000D01*
X202721942Y-132285815D01*
X202750000Y-132269615D01*
X202750000Y-133000000D01*
X204047828Y-133000000D01*
X204047844Y-132999999D01*
X204107372Y-132993598D01*
X204107379Y-132993596D01*
X204242086Y-132943354D01*
X204242093Y-132943350D01*
X204357187Y-132857190D01*
X204357190Y-132857187D01*
X204443350Y-132742093D01*
X204443354Y-132742086D01*
X204493596Y-132607379D01*
X204493598Y-132607372D01*
X204499999Y-132547844D01*
X204500000Y-132547827D01*
X204500000Y-132000000D01*
X203019616Y-132000000D01*
X203035815Y-131971942D01*
X203075000Y-131825700D01*
X203075000Y-131674300D01*
X203035815Y-131528058D01*
X203019616Y-131500000D01*
X204500000Y-131500000D01*
X204500000Y-130952172D01*
X204499999Y-130952155D01*
X204493598Y-130892627D01*
X204493596Y-130892620D01*
X204443354Y-130757913D01*
X204443350Y-130757906D01*
X204357190Y-130642812D01*
X204357187Y-130642809D01*
X204242093Y-130556649D01*
X204242086Y-130556645D01*
X204107379Y-130506403D01*
X204107372Y-130506401D01*
X204047844Y-130500000D01*
X202750000Y-130500000D01*
X202750000Y-131230384D01*
X202721942Y-131214185D01*
X202575700Y-131175000D01*
X202424300Y-131175000D01*
X202278058Y-131214185D01*
X202250000Y-131230384D01*
X202250000Y-130500000D01*
X200952155Y-130500000D01*
X200892627Y-130506401D01*
X200892620Y-130506403D01*
X200757913Y-130556645D01*
X200757906Y-130556649D01*
X200642812Y-130642809D01*
X200642809Y-130642812D01*
X200556649Y-130757906D01*
X200556645Y-130757913D01*
X200506403Y-130892620D01*
X200506401Y-130892627D01*
X200500000Y-130952155D01*
X199499999Y-130952155D01*
X199493598Y-130892627D01*
X199493596Y-130892620D01*
X199443354Y-130757913D01*
X199443350Y-130757906D01*
X199357190Y-130642812D01*
X199357187Y-130642809D01*
X199242093Y-130556649D01*
X199242086Y-130556645D01*
X199107379Y-130506403D01*
X199107372Y-130506401D01*
X199047844Y-130500000D01*
X197750000Y-130500000D01*
X197750000Y-131230384D01*
X197721942Y-131214185D01*
X197575700Y-131175000D01*
X197424300Y-131175000D01*
X197278058Y-131214185D01*
X197250000Y-131230384D01*
X197250000Y-130500000D01*
X195952155Y-130500000D01*
X195892627Y-130506401D01*
X195892620Y-130506403D01*
X195757913Y-130556645D01*
X195757906Y-130556649D01*
X195642812Y-130642809D01*
X195642809Y-130642812D01*
X195556649Y-130757906D01*
X195556645Y-130757913D01*
X195506403Y-130892620D01*
X195506401Y-130892627D01*
X195500000Y-130952155D01*
X185828893Y-130952155D01*
X185810053Y-130940047D01*
X185810051Y-130940046D01*
X185810049Y-130940045D01*
X185810050Y-130940045D01*
X185671963Y-130899500D01*
X185671961Y-130899500D01*
X185528039Y-130899500D01*
X185528036Y-130899500D01*
X185389949Y-130940045D01*
X185268873Y-131017856D01*
X185174623Y-131126626D01*
X185174622Y-131126628D01*
X185114834Y-131257543D01*
X185094353Y-131400000D01*
X185114834Y-131542454D01*
X185152652Y-131625264D01*
X185162595Y-131694422D01*
X185133570Y-131757978D01*
X185113493Y-131776544D01*
X185077849Y-131802850D01*
X185039859Y-131854326D01*
X184984211Y-131896577D01*
X184914555Y-131902035D01*
X184853006Y-131868967D01*
X184819105Y-131807873D01*
X184816101Y-131782406D01*
X184816020Y-131776544D01*
X184765582Y-128127386D01*
X184784337Y-128060087D01*
X184786467Y-128056788D01*
X184845964Y-127967743D01*
X184845964Y-127967742D01*
X184845966Y-127967740D01*
X184860500Y-127894674D01*
X184860500Y-127125540D01*
X184880185Y-127058501D01*
X184932989Y-127012746D01*
X184985309Y-127001544D01*
X186686315Y-127012705D01*
G37*
%TD.AperFunction*%
%TD*%
%TA.AperFunction,Conductor*%
%TO.N,VH_Fused*%
G36*
X204943039Y-104619685D02*
G01*
X204988794Y-104672489D01*
X205000000Y-104724000D01*
X205000000Y-108976000D01*
X204980315Y-109043039D01*
X204927511Y-109088794D01*
X204876000Y-109100000D01*
X196000000Y-109100000D01*
X191600000Y-112499999D01*
X191600000Y-117630260D01*
X191580315Y-117697299D01*
X191527511Y-117743054D01*
X191476795Y-117754257D01*
X190353914Y-117761455D01*
X190286750Y-117742201D01*
X190240657Y-117689691D01*
X190230271Y-117620598D01*
X190236937Y-117594124D01*
X190278075Y-117483827D01*
X190335539Y-117219670D01*
X190335540Y-117219663D01*
X190354828Y-116950001D01*
X190354828Y-116949998D01*
X190335540Y-116680336D01*
X190335539Y-116680329D01*
X190278075Y-116416169D01*
X190183595Y-116162858D01*
X190183593Y-116162854D01*
X190054034Y-115925584D01*
X190054033Y-115925583D01*
X189961533Y-115802017D01*
X189243266Y-116520284D01*
X189151308Y-116382658D01*
X189027342Y-116258692D01*
X188889714Y-116166732D01*
X189607981Y-115448465D01*
X189607980Y-115448464D01*
X189484422Y-115355969D01*
X189481849Y-115354316D01*
X189481176Y-115353539D01*
X189480876Y-115353315D01*
X189480924Y-115353249D01*
X189436093Y-115301513D01*
X189426149Y-115232355D01*
X189455173Y-115168799D01*
X189481849Y-115145684D01*
X189484414Y-115144035D01*
X189607981Y-115051533D01*
X188889714Y-114333267D01*
X189027342Y-114241308D01*
X189151308Y-114117342D01*
X189243267Y-113979714D01*
X189961533Y-114697981D01*
X189961534Y-114697980D01*
X190054029Y-114574424D01*
X190183593Y-114337145D01*
X190183595Y-114337141D01*
X190278075Y-114083830D01*
X190335539Y-113819670D01*
X190335540Y-113819663D01*
X190354828Y-113550001D01*
X190354828Y-113549998D01*
X190335540Y-113280336D01*
X190335539Y-113280329D01*
X190278075Y-113016169D01*
X190183595Y-112762858D01*
X190183593Y-112762854D01*
X190054034Y-112525584D01*
X190054033Y-112525583D01*
X189961533Y-112402017D01*
X189243266Y-113120284D01*
X189151308Y-112982658D01*
X189027342Y-112858692D01*
X188889714Y-112766732D01*
X189607981Y-112048465D01*
X189607980Y-112048464D01*
X189484423Y-111955970D01*
X189484415Y-111955965D01*
X189247145Y-111826406D01*
X189247141Y-111826404D01*
X188993830Y-111731924D01*
X188729670Y-111674460D01*
X188729663Y-111674459D01*
X188460001Y-111655172D01*
X188459999Y-111655172D01*
X188190336Y-111674459D01*
X188190329Y-111674460D01*
X187926169Y-111731924D01*
X187672858Y-111826404D01*
X187672854Y-111826406D01*
X187435584Y-111955965D01*
X187435576Y-111955970D01*
X187312017Y-112048464D01*
X188030285Y-112766732D01*
X187892658Y-112858692D01*
X187768692Y-112982658D01*
X187676732Y-113120285D01*
X186958464Y-112402017D01*
X186865970Y-112525576D01*
X186865965Y-112525584D01*
X186736406Y-112762854D01*
X186736404Y-112762858D01*
X186641924Y-113016169D01*
X186584460Y-113280329D01*
X186584459Y-113280336D01*
X186565172Y-113549998D01*
X186565172Y-113550001D01*
X186584459Y-113819663D01*
X186584460Y-113819670D01*
X186641924Y-114083830D01*
X186736404Y-114337141D01*
X186736406Y-114337145D01*
X186865965Y-114574415D01*
X186865970Y-114574423D01*
X186958464Y-114697980D01*
X186958465Y-114697981D01*
X187676732Y-113979714D01*
X187768692Y-114117342D01*
X187892658Y-114241308D01*
X188030285Y-114333266D01*
X187312017Y-115051533D01*
X187435577Y-115144029D01*
X187438158Y-115145688D01*
X187438831Y-115146465D01*
X187439125Y-115146685D01*
X187439077Y-115146748D01*
X187483909Y-115198495D01*
X187493849Y-115267654D01*
X187464820Y-115331208D01*
X187438158Y-115354312D01*
X187435570Y-115355975D01*
X187312017Y-115448464D01*
X188030285Y-116166732D01*
X187892658Y-116258692D01*
X187768692Y-116382658D01*
X187676732Y-116520285D01*
X186958464Y-115802017D01*
X186865970Y-115925576D01*
X186865965Y-115925584D01*
X186736406Y-116162854D01*
X186736404Y-116162858D01*
X186641924Y-116416169D01*
X186584460Y-116680329D01*
X186584459Y-116680336D01*
X186565172Y-116949998D01*
X186565172Y-116950001D01*
X186584459Y-117219663D01*
X186584460Y-117219670D01*
X186641924Y-117483830D01*
X186692093Y-117618338D01*
X186697077Y-117688029D01*
X186663592Y-117749353D01*
X186602269Y-117782837D01*
X186576706Y-117785668D01*
X185324795Y-117793694D01*
X185257631Y-117774440D01*
X185211538Y-117721931D01*
X185200000Y-117669697D01*
X185200000Y-112562930D01*
X185219685Y-112495891D01*
X185250791Y-112462847D01*
X185817290Y-112048464D01*
X193402530Y-106500000D01*
X195524016Y-106500000D01*
X196980384Y-106500000D01*
X196964185Y-106528058D01*
X196925000Y-106674300D01*
X196925000Y-106825700D01*
X196964185Y-106971942D01*
X196980384Y-107000000D01*
X195524016Y-107000000D01*
X195530781Y-107042716D01*
X195591581Y-107229837D01*
X195680904Y-107405143D01*
X195796555Y-107564321D01*
X195935678Y-107703444D01*
X196094856Y-107819095D01*
X196270164Y-107908418D01*
X196457294Y-107969221D01*
X196651618Y-108000000D01*
X197250000Y-108000000D01*
X197250000Y-107269615D01*
X197278058Y-107285815D01*
X197424300Y-107325000D01*
X197575700Y-107325000D01*
X197721942Y-107285815D01*
X197750000Y-107269615D01*
X197750000Y-108000000D01*
X198348382Y-108000000D01*
X198542705Y-107969221D01*
X198729835Y-107908418D01*
X198905143Y-107819095D01*
X199064321Y-107703444D01*
X199203444Y-107564321D01*
X199319095Y-107405143D01*
X199408418Y-107229837D01*
X199469218Y-107042716D01*
X199475984Y-107000000D01*
X198019616Y-107000000D01*
X198035815Y-106971942D01*
X198075000Y-106825700D01*
X198075000Y-106674300D01*
X198035815Y-106528058D01*
X198019616Y-106500000D01*
X199475984Y-106500000D01*
X200524016Y-106500000D01*
X201980384Y-106500000D01*
X201964185Y-106528058D01*
X201925000Y-106674300D01*
X201925000Y-106825700D01*
X201964185Y-106971942D01*
X201980384Y-107000000D01*
X200524016Y-107000000D01*
X200530781Y-107042716D01*
X200591581Y-107229837D01*
X200680904Y-107405143D01*
X200796555Y-107564321D01*
X200935678Y-107703444D01*
X201094856Y-107819095D01*
X201270164Y-107908418D01*
X201457294Y-107969221D01*
X201651618Y-108000000D01*
X202250000Y-108000000D01*
X202250000Y-107269615D01*
X202278058Y-107285815D01*
X202424300Y-107325000D01*
X202575700Y-107325000D01*
X202721942Y-107285815D01*
X202750000Y-107269615D01*
X202750000Y-108000000D01*
X203348382Y-108000000D01*
X203542705Y-107969221D01*
X203729835Y-107908418D01*
X203905143Y-107819095D01*
X204064321Y-107703444D01*
X204203444Y-107564321D01*
X204319095Y-107405143D01*
X204408418Y-107229837D01*
X204469218Y-107042716D01*
X204475984Y-107000000D01*
X203019616Y-107000000D01*
X203035815Y-106971942D01*
X203075000Y-106825700D01*
X203075000Y-106674300D01*
X203035815Y-106528058D01*
X203019616Y-106500000D01*
X204475984Y-106500000D01*
X204469218Y-106457283D01*
X204408418Y-106270162D01*
X204319095Y-106094856D01*
X204203444Y-105935678D01*
X204064321Y-105796555D01*
X203905143Y-105680904D01*
X203729835Y-105591581D01*
X203542705Y-105530778D01*
X203348382Y-105500000D01*
X202750000Y-105500000D01*
X202750000Y-106230384D01*
X202721942Y-106214185D01*
X202575700Y-106175000D01*
X202424300Y-106175000D01*
X202278058Y-106214185D01*
X202250000Y-106230384D01*
X202250000Y-105500000D01*
X201651618Y-105500000D01*
X201457294Y-105530778D01*
X201270164Y-105591581D01*
X201094856Y-105680904D01*
X200935678Y-105796555D01*
X200796555Y-105935678D01*
X200680904Y-106094856D01*
X200591581Y-106270162D01*
X200530781Y-106457283D01*
X200524016Y-106500000D01*
X199475984Y-106500000D01*
X199469218Y-106457283D01*
X199408418Y-106270162D01*
X199319095Y-106094856D01*
X199203444Y-105935678D01*
X199064321Y-105796555D01*
X198905143Y-105680904D01*
X198729835Y-105591581D01*
X198542705Y-105530778D01*
X198348382Y-105500000D01*
X197750000Y-105500000D01*
X197750000Y-106230384D01*
X197721942Y-106214185D01*
X197575700Y-106175000D01*
X197424300Y-106175000D01*
X197278058Y-106214185D01*
X197250000Y-106230384D01*
X197250000Y-105500000D01*
X196651618Y-105500000D01*
X196457294Y-105530778D01*
X196270164Y-105591581D01*
X196094856Y-105680904D01*
X195935678Y-105796555D01*
X195796555Y-105935678D01*
X195680904Y-106094856D01*
X195591581Y-106270162D01*
X195530781Y-106457283D01*
X195524016Y-106500000D01*
X193402530Y-106500000D01*
X195967303Y-104623916D01*
X196033034Y-104600226D01*
X196040512Y-104600000D01*
X204876000Y-104600000D01*
X204943039Y-104619685D01*
G37*
%TD.AperFunction*%
%TD*%
%TA.AperFunction,Conductor*%
%TO.N,/LX*%
G36*
X169664934Y-122570635D02*
G01*
X169677517Y-122571912D01*
X169696419Y-122573832D01*
X169720967Y-122578871D01*
X169751177Y-122588338D01*
X169762938Y-122592688D01*
X170060000Y-122720000D01*
X170410000Y-122870000D01*
X173247789Y-122870000D01*
X173271980Y-122872383D01*
X173331480Y-122884218D01*
X173376175Y-122902730D01*
X173416272Y-122929522D01*
X173450477Y-122963727D01*
X173477267Y-123003822D01*
X173495781Y-123048517D01*
X173507617Y-123108022D01*
X173510000Y-123132210D01*
X173510000Y-127607789D01*
X173507617Y-127631982D01*
X173495781Y-127691482D01*
X173477267Y-127736179D01*
X173450481Y-127776268D01*
X173416269Y-127810479D01*
X173381975Y-127833394D01*
X173376179Y-127837267D01*
X173331482Y-127855781D01*
X173297857Y-127862469D01*
X173271978Y-127867617D01*
X173247789Y-127870000D01*
X171210000Y-127870000D01*
X171136228Y-127946723D01*
X171136226Y-127946724D01*
X171136223Y-127946727D01*
X170042450Y-129084251D01*
X170023465Y-129100385D01*
X169972317Y-129135659D01*
X169926708Y-129155077D01*
X169890153Y-129162535D01*
X169865830Y-129167497D01*
X169841046Y-129170000D01*
X168097211Y-129170000D01*
X168073020Y-129167617D01*
X168058189Y-129164667D01*
X168013518Y-129155781D01*
X167968822Y-129137267D01*
X167928727Y-129110477D01*
X167894522Y-129076272D01*
X167867730Y-129036175D01*
X167849218Y-128991480D01*
X167837383Y-128931980D01*
X167835000Y-128907789D01*
X167835000Y-128491326D01*
X167839225Y-128459232D01*
X167840225Y-128455500D01*
X167876590Y-128395840D01*
X167939437Y-128365311D01*
X168008813Y-128373606D01*
X168062691Y-128418091D01*
X168079775Y-128455500D01*
X168080775Y-128459232D01*
X168085000Y-128491326D01*
X168085000Y-128745000D01*
X168210000Y-128745000D01*
X168335000Y-128745000D01*
X168335000Y-128486326D01*
X168339225Y-128454232D01*
X168340225Y-128450500D01*
X168376590Y-128390840D01*
X168439437Y-128360311D01*
X168508813Y-128368606D01*
X168562691Y-128413091D01*
X168579775Y-128450500D01*
X168580775Y-128454232D01*
X168585000Y-128486326D01*
X168585000Y-128745000D01*
X168697500Y-128745000D01*
X168810000Y-128745000D01*
X168810000Y-128374500D01*
X168829685Y-128307461D01*
X168882489Y-128261706D01*
X168934000Y-128250500D01*
X169885002Y-128250500D01*
X169885003Y-128250499D01*
X169982776Y-128231051D01*
X170065666Y-128175666D01*
X170121051Y-128092776D01*
X170140500Y-127995000D01*
X170140500Y-127754891D01*
X170140646Y-127752848D01*
X170140647Y-127737179D01*
X170140500Y-127735111D01*
X170140500Y-127129891D01*
X170140646Y-127127848D01*
X170140647Y-127112179D01*
X170140500Y-127110111D01*
X170140500Y-126504891D01*
X170140646Y-126502848D01*
X170140647Y-126487179D01*
X170140500Y-126485111D01*
X170140500Y-126244997D01*
X170140499Y-126244995D01*
X170121052Y-126147228D01*
X170121051Y-126147227D01*
X170121051Y-126147224D01*
X170065666Y-126064334D01*
X170065665Y-126064333D01*
X169982778Y-126008950D01*
X169982771Y-126008947D01*
X169885003Y-125989500D01*
X169885000Y-125989500D01*
X169282188Y-125989500D01*
X169282186Y-125989500D01*
X169279149Y-125989649D01*
X169279146Y-125989601D01*
X169271021Y-125990000D01*
X169262520Y-125990000D01*
X169195481Y-125970315D01*
X169149726Y-125917511D01*
X169139782Y-125848353D01*
X169168807Y-125784797D01*
X169227585Y-125747023D01*
X169230427Y-125746225D01*
X169234999Y-125745000D01*
X169235000Y-125745000D01*
X169360000Y-125745000D01*
X169360000Y-125495000D01*
X169235000Y-125495000D01*
X169234999Y-125495000D01*
X168786326Y-125495000D01*
X168754232Y-125490775D01*
X168750500Y-125489775D01*
X168690840Y-125453410D01*
X168660311Y-125390563D01*
X168668606Y-125321187D01*
X168713091Y-125267309D01*
X168750500Y-125250225D01*
X168754232Y-125249225D01*
X168786326Y-125245000D01*
X169272498Y-125245000D01*
X169272500Y-125245000D01*
X169360000Y-125245000D01*
X169360000Y-125070000D01*
X169272501Y-125070000D01*
X169072211Y-125070000D01*
X169048020Y-125067617D01*
X169033189Y-125064667D01*
X168988518Y-125055781D01*
X168943822Y-125037267D01*
X168903727Y-125010477D01*
X168869522Y-124976272D01*
X168842730Y-124936175D01*
X168824218Y-124891480D01*
X168812383Y-124831980D01*
X168810000Y-124807789D01*
X168810000Y-124582502D01*
X168810000Y-124582500D01*
X168810000Y-124470000D01*
X168585000Y-124470000D01*
X168585000Y-124582498D01*
X168585000Y-124998673D01*
X168580775Y-125030767D01*
X168579775Y-125034499D01*
X168543410Y-125094159D01*
X168480563Y-125124688D01*
X168411187Y-125116393D01*
X168357309Y-125071908D01*
X168340225Y-125034499D01*
X168339725Y-125032633D01*
X168335500Y-125000539D01*
X168335500Y-124429696D01*
X168337883Y-124405505D01*
X168349218Y-124348519D01*
X168367729Y-124303826D01*
X168394524Y-124263724D01*
X168428724Y-124229524D01*
X168468826Y-124202729D01*
X168513514Y-124184219D01*
X168573028Y-124172381D01*
X168597211Y-124170000D01*
X168660001Y-124170000D01*
X168910000Y-124170000D01*
X168910000Y-122832210D01*
X168912383Y-122808019D01*
X168924218Y-122748519D01*
X168942729Y-122703826D01*
X168969524Y-122663724D01*
X169003724Y-122629524D01*
X169043826Y-122602729D01*
X169088514Y-122584219D01*
X169148028Y-122572381D01*
X169172211Y-122570000D01*
X169652406Y-122570000D01*
X169664934Y-122570635D01*
G37*
%TD.AperFunction*%
%TD*%
%TA.AperFunction,Conductor*%
%TO.N,VH*%
G36*
X176850597Y-111420914D02*
G01*
X179025990Y-111423280D01*
X181560310Y-111426037D01*
X181586079Y-111428774D01*
X181649236Y-111442272D01*
X181696317Y-111463299D01*
X181718685Y-111479590D01*
X181737743Y-111493470D01*
X181772202Y-111531831D01*
X181804423Y-111587793D01*
X181814939Y-111611490D01*
X183068069Y-115484230D01*
X184917561Y-121200000D01*
X184938477Y-121264638D01*
X184944500Y-121302813D01*
X184944500Y-123474419D01*
X184950687Y-123530306D01*
X184962555Y-123583247D01*
X184962557Y-123583254D01*
X184970481Y-123611098D01*
X184970482Y-123611101D01*
X185020905Y-123697101D01*
X185067324Y-123749322D01*
X185067326Y-123749324D01*
X185067325Y-123749324D01*
X185100500Y-123780534D01*
X185100503Y-123780536D01*
X185188266Y-123825037D01*
X185189414Y-123825619D01*
X185256698Y-123844453D01*
X185328804Y-123853890D01*
X186137415Y-123843653D01*
X186378135Y-123840607D01*
X186445419Y-123859441D01*
X186491838Y-123911662D01*
X186502656Y-123980689D01*
X186501322Y-123988789D01*
X186489047Y-124050494D01*
X186659999Y-124221446D01*
X186830949Y-124050495D01*
X187689048Y-124050495D01*
X187859999Y-124221446D01*
X188030949Y-124050495D01*
X188889048Y-124050495D01*
X189059999Y-124221446D01*
X189230950Y-124050494D01*
X189203579Y-124039157D01*
X189060001Y-124020254D01*
X189059999Y-124020254D01*
X188916422Y-124039156D01*
X188889048Y-124050495D01*
X188030949Y-124050495D01*
X188030950Y-124050494D01*
X188003579Y-124039157D01*
X187860001Y-124020254D01*
X187859999Y-124020254D01*
X187716422Y-124039156D01*
X187689048Y-124050495D01*
X186830949Y-124050495D01*
X186830950Y-124050494D01*
X186830920Y-124050482D01*
X186776517Y-124006640D01*
X186754453Y-123940346D01*
X186771733Y-123872647D01*
X186822870Y-123825037D01*
X186832029Y-123820908D01*
X186911059Y-123789089D01*
X186969536Y-123750850D01*
X187005283Y-123722623D01*
X187062948Y-123641303D01*
X187062951Y-123641296D01*
X187064807Y-123638044D01*
X187066232Y-123636671D01*
X187066472Y-123636333D01*
X187066536Y-123636378D01*
X187115129Y-123589573D01*
X187172504Y-123575499D01*
X187323138Y-123575499D01*
X187370545Y-123569259D01*
X187407595Y-123551981D01*
X187476672Y-123541490D01*
X187512404Y-123551981D01*
X187549455Y-123569259D01*
X187596861Y-123575500D01*
X187823138Y-123575499D01*
X187870545Y-123569259D01*
X187907595Y-123551981D01*
X187976672Y-123541490D01*
X188012404Y-123551981D01*
X188049455Y-123569259D01*
X188096861Y-123575500D01*
X188323138Y-123575499D01*
X188370545Y-123569259D01*
X188407595Y-123551981D01*
X188476672Y-123541490D01*
X188512404Y-123551981D01*
X188549455Y-123569259D01*
X188596861Y-123575500D01*
X188823138Y-123575499D01*
X188870545Y-123569259D01*
X188907595Y-123551981D01*
X188976672Y-123541490D01*
X189012404Y-123551981D01*
X189049455Y-123569259D01*
X189096861Y-123575500D01*
X189323138Y-123575499D01*
X189370545Y-123569259D01*
X189407595Y-123551981D01*
X189476672Y-123541490D01*
X189512404Y-123551981D01*
X189549455Y-123569259D01*
X189596861Y-123575500D01*
X189823138Y-123575499D01*
X189870545Y-123569259D01*
X189907595Y-123551981D01*
X189976672Y-123541490D01*
X190012404Y-123551981D01*
X190049455Y-123569259D01*
X190096861Y-123575500D01*
X190323138Y-123575499D01*
X190370545Y-123569259D01*
X190441119Y-123536349D01*
X190510194Y-123525857D01*
X190573978Y-123554376D01*
X190612219Y-123612852D01*
X190617517Y-123647492D01*
X190620461Y-123942176D01*
X190601447Y-124009409D01*
X190549103Y-124055689D01*
X190480047Y-124066323D01*
X190449016Y-124057977D01*
X190403578Y-124039157D01*
X190260001Y-124020254D01*
X190259999Y-124020254D01*
X190116422Y-124039156D01*
X190089048Y-124050495D01*
X190525871Y-124487318D01*
X190559356Y-124548641D01*
X190554372Y-124618333D01*
X190525871Y-124662680D01*
X190089047Y-125099503D01*
X190099253Y-125150813D01*
X190099252Y-125199193D01*
X190089047Y-125250494D01*
X190519289Y-125680736D01*
X190552774Y-125742059D01*
X190554548Y-125752239D01*
X190555414Y-125758820D01*
X190555413Y-125791187D01*
X190554546Y-125797771D01*
X190526277Y-125861667D01*
X190519288Y-125869263D01*
X190089047Y-126299503D01*
X190089189Y-126300213D01*
X190082960Y-126369804D01*
X190040096Y-126424981D01*
X190010905Y-126440583D01*
X189956608Y-126460834D01*
X189956596Y-126460839D01*
X189915505Y-126480498D01*
X189841346Y-126547111D01*
X189841342Y-126547115D01*
X189813627Y-126584136D01*
X189799462Y-126603058D01*
X189775532Y-126641798D01*
X189775530Y-126641801D01*
X189764144Y-126683307D01*
X189727425Y-126742749D01*
X189664397Y-126772904D01*
X189644565Y-126774500D01*
X189596868Y-126774500D01*
X189586341Y-126775885D01*
X189549455Y-126780741D01*
X189549453Y-126780742D01*
X189549451Y-126780742D01*
X189512403Y-126798018D01*
X189443325Y-126808509D01*
X189407596Y-126798018D01*
X189370545Y-126780741D01*
X189370541Y-126780740D01*
X189323140Y-126774500D01*
X189096868Y-126774500D01*
X189086341Y-126775885D01*
X189049455Y-126780741D01*
X189049453Y-126780742D01*
X189049451Y-126780742D01*
X189012403Y-126798018D01*
X188943325Y-126808509D01*
X188907596Y-126798018D01*
X188870545Y-126780741D01*
X188870541Y-126780740D01*
X188823140Y-126774500D01*
X188596868Y-126774500D01*
X188586341Y-126775885D01*
X188549455Y-126780741D01*
X188549453Y-126780742D01*
X188549451Y-126780742D01*
X188512403Y-126798018D01*
X188443325Y-126808509D01*
X188407596Y-126798018D01*
X188370545Y-126780741D01*
X188370541Y-126780740D01*
X188323140Y-126774500D01*
X188096868Y-126774500D01*
X188086341Y-126775885D01*
X188049455Y-126780741D01*
X188049453Y-126780742D01*
X188049451Y-126780742D01*
X188012403Y-126798018D01*
X187943325Y-126808509D01*
X187907596Y-126798018D01*
X187870545Y-126780741D01*
X187870541Y-126780740D01*
X187823140Y-126774500D01*
X187596868Y-126774500D01*
X187586341Y-126775885D01*
X187549455Y-126780741D01*
X187549453Y-126780742D01*
X187549451Y-126780742D01*
X187512403Y-126798018D01*
X187443325Y-126808509D01*
X187407596Y-126798018D01*
X187370545Y-126780741D01*
X187370541Y-126780740D01*
X187323140Y-126774500D01*
X187096868Y-126774500D01*
X187086341Y-126775885D01*
X187049455Y-126780741D01*
X187049453Y-126780742D01*
X187049451Y-126780742D01*
X187012403Y-126798018D01*
X186943325Y-126808509D01*
X186907596Y-126798018D01*
X186870545Y-126780741D01*
X186870541Y-126780740D01*
X186823140Y-126774500D01*
X186823139Y-126774500D01*
X186799654Y-126774500D01*
X186763938Y-126769245D01*
X186759905Y-126768032D01*
X186759902Y-126768031D01*
X186687993Y-126757210D01*
X186687988Y-126757209D01*
X184986996Y-126746049D01*
X184986994Y-126746049D01*
X184986985Y-126746049D01*
X184986977Y-126746049D01*
X184986971Y-126746050D01*
X184931821Y-126751705D01*
X184931809Y-126751707D01*
X184879501Y-126762906D01*
X184879490Y-126762909D01*
X184852303Y-126770320D01*
X184852302Y-126770320D01*
X184765677Y-126819648D01*
X184765673Y-126819651D01*
X184712871Y-126865403D01*
X184681243Y-126898180D01*
X184635034Y-126986517D01*
X184635033Y-126986517D01*
X184615351Y-127053549D01*
X184615348Y-127053561D01*
X184605000Y-127125538D01*
X184605000Y-127830867D01*
X184585315Y-127897906D01*
X184584105Y-127899754D01*
X184573998Y-127914880D01*
X184571813Y-127918207D01*
X184569692Y-127921492D01*
X184569689Y-127921499D01*
X184538218Y-127991491D01*
X184538212Y-127991507D01*
X184519463Y-128058787D01*
X184519461Y-128058795D01*
X184510809Y-128125500D01*
X184510106Y-128130917D01*
X184546403Y-130757006D01*
X184549290Y-130965856D01*
X184560544Y-131780075D01*
X184560544Y-131780078D01*
X184560624Y-131785902D01*
X184560626Y-131785957D01*
X184562358Y-131812316D01*
X184562360Y-131812343D01*
X184565362Y-131837796D01*
X184565363Y-131837799D01*
X184573834Y-131864062D01*
X184575678Y-131933907D01*
X184539468Y-131993662D01*
X184476701Y-132024354D01*
X184431632Y-132023743D01*
X184421824Y-132021792D01*
X184421816Y-132021790D01*
X184421807Y-132021789D01*
X184421801Y-132021787D01*
X184397027Y-132018113D01*
X184372839Y-132015731D01*
X184368139Y-132015500D01*
X184347789Y-132014500D01*
X184132190Y-132014500D01*
X184132180Y-132014500D01*
X184064603Y-132023602D01*
X184064588Y-132023605D01*
X184001321Y-132040962D01*
X183962780Y-132054945D01*
X183962777Y-132054947D01*
X183881919Y-132113253D01*
X183834305Y-132164393D01*
X183806369Y-132200355D01*
X183806365Y-132200362D01*
X183769866Y-132293124D01*
X183757459Y-132361890D01*
X183757061Y-132373051D01*
X183754999Y-132379245D01*
X183754999Y-132428568D01*
X183754920Y-132432992D01*
X183754863Y-132434563D01*
X183754920Y-132436136D01*
X183754999Y-132440559D01*
X183754999Y-133791830D01*
X183747181Y-133835164D01*
X183733472Y-133871919D01*
X183716557Y-133902896D01*
X183695704Y-133930752D01*
X183670747Y-133955708D01*
X183642896Y-133976557D01*
X183611930Y-133993468D01*
X183601847Y-133997229D01*
X183593330Y-134000581D01*
X183585191Y-134003953D01*
X183585177Y-134003961D01*
X183515664Y-134046906D01*
X183462881Y-134092644D01*
X183462874Y-134092650D01*
X183431243Y-134125430D01*
X183422625Y-134141905D01*
X183397184Y-134190542D01*
X183390418Y-134203476D01*
X183341902Y-134253755D01*
X183280543Y-134270000D01*
X183083243Y-134270000D01*
X183016204Y-134250315D01*
X182970449Y-134197511D01*
X182967062Y-134189336D01*
X182965851Y-134186089D01*
X182946194Y-134145004D01*
X182907032Y-134101407D01*
X182879577Y-134070842D01*
X182879573Y-134070838D01*
X182823645Y-134028973D01*
X182783734Y-134007180D01*
X182759818Y-133994121D01*
X182759816Y-133994120D01*
X182759814Y-133994119D01*
X182758072Y-133993469D01*
X182756439Y-133992577D01*
X182755788Y-133992280D01*
X182755809Y-133992233D01*
X182727104Y-133976558D01*
X182699247Y-133955705D01*
X182674293Y-133930751D01*
X182653440Y-133902895D01*
X182636525Y-133871917D01*
X182622818Y-133835167D01*
X182615000Y-133791834D01*
X182615000Y-132440393D01*
X182615100Y-132435407D01*
X182615133Y-132434586D01*
X182615044Y-132431257D01*
X182615000Y-132427943D01*
X182615000Y-132385117D01*
X182613472Y-132372494D01*
X182613309Y-132366387D01*
X182602814Y-132301620D01*
X182593029Y-132261802D01*
X182589440Y-132255500D01*
X182543701Y-132175177D01*
X182543700Y-132175176D01*
X182543698Y-132175172D01*
X182512407Y-132139061D01*
X182497946Y-132122371D01*
X182465169Y-132090743D01*
X182396738Y-132054947D01*
X182376834Y-132044535D01*
X182376833Y-132044534D01*
X182376832Y-132044534D01*
X182376832Y-132044533D01*
X182309800Y-132024851D01*
X182309788Y-132024848D01*
X182237811Y-132014500D01*
X182237810Y-132014500D01*
X180793323Y-132014500D01*
X180749990Y-132006682D01*
X180667486Y-131975910D01*
X180667485Y-131975909D01*
X180667483Y-131975909D01*
X180607873Y-131969500D01*
X180607863Y-131969500D01*
X179862129Y-131969500D01*
X179862123Y-131969501D01*
X179802516Y-131975908D01*
X179720010Y-132006682D01*
X179676677Y-132014500D01*
X179382180Y-132014500D01*
X179314603Y-132023602D01*
X179314588Y-132023605D01*
X179251321Y-132040962D01*
X179212780Y-132054945D01*
X179212777Y-132054947D01*
X179131919Y-132113253D01*
X179084305Y-132164393D01*
X179056369Y-132200355D01*
X179056365Y-132200362D01*
X179019866Y-132293124D01*
X179007459Y-132361890D01*
X179007061Y-132373051D01*
X179004999Y-132379245D01*
X179004999Y-132428568D01*
X179004920Y-132432992D01*
X179004863Y-132434563D01*
X179004920Y-132436136D01*
X179004999Y-132440559D01*
X179004999Y-133791830D01*
X178997181Y-133835164D01*
X178983472Y-133871919D01*
X178966555Y-133902899D01*
X178945703Y-133930752D01*
X178920750Y-133955704D01*
X178892896Y-133976556D01*
X178861920Y-133993471D01*
X178825167Y-134007180D01*
X178781831Y-134014999D01*
X178088167Y-134014999D01*
X178044834Y-134007181D01*
X178009818Y-133994121D01*
X178008078Y-133993472D01*
X177977100Y-133976556D01*
X177949247Y-133955705D01*
X177924292Y-133930749D01*
X177903440Y-133902894D01*
X177886525Y-133871917D01*
X177872818Y-133835167D01*
X177865000Y-133791834D01*
X177865000Y-132440393D01*
X177865100Y-132435407D01*
X177865133Y-132434586D01*
X177865044Y-132431257D01*
X177865000Y-132427943D01*
X177865000Y-132385117D01*
X177863472Y-132372494D01*
X177863309Y-132366387D01*
X177852814Y-132301620D01*
X177843029Y-132261802D01*
X177839440Y-132255500D01*
X177793701Y-132175177D01*
X177793700Y-132175176D01*
X177793698Y-132175172D01*
X177762407Y-132139061D01*
X177747946Y-132122371D01*
X177715169Y-132090743D01*
X177646738Y-132054947D01*
X177626834Y-132044535D01*
X177626833Y-132044534D01*
X177626832Y-132044534D01*
X177626832Y-132044533D01*
X177559800Y-132024851D01*
X177559788Y-132024848D01*
X177487811Y-132014500D01*
X177487810Y-132014500D01*
X176043323Y-132014500D01*
X175999990Y-132006682D01*
X175917486Y-131975910D01*
X175917485Y-131975909D01*
X175917483Y-131975909D01*
X175857873Y-131969500D01*
X175857863Y-131969500D01*
X175112129Y-131969500D01*
X175112123Y-131969501D01*
X175052516Y-131975908D01*
X174970010Y-132006682D01*
X174926677Y-132014500D01*
X174632180Y-132014500D01*
X174564603Y-132023602D01*
X174564588Y-132023605D01*
X174501321Y-132040962D01*
X174462780Y-132054945D01*
X174462777Y-132054947D01*
X174381919Y-132113253D01*
X174334305Y-132164393D01*
X174306369Y-132200355D01*
X174306365Y-132200362D01*
X174269866Y-132293124D01*
X174257459Y-132361890D01*
X174257061Y-132373051D01*
X174254999Y-132379245D01*
X174254999Y-132428568D01*
X174254920Y-132432992D01*
X174254863Y-132434563D01*
X174254920Y-132436136D01*
X174254999Y-132440559D01*
X174254999Y-133791830D01*
X174247181Y-133835164D01*
X174233472Y-133871919D01*
X174216555Y-133902899D01*
X174195703Y-133930752D01*
X174170750Y-133955704D01*
X174142896Y-133976556D01*
X174111920Y-133993471D01*
X174075167Y-134007180D01*
X174031831Y-134014999D01*
X173338167Y-134014999D01*
X173294834Y-134007181D01*
X173259818Y-133994121D01*
X173258078Y-133993472D01*
X173227100Y-133976556D01*
X173199247Y-133955705D01*
X173174292Y-133930749D01*
X173153440Y-133902894D01*
X173136525Y-133871917D01*
X173122818Y-133835167D01*
X173115000Y-133791834D01*
X173115000Y-132440393D01*
X173115100Y-132435407D01*
X173115133Y-132434586D01*
X173115044Y-132431257D01*
X173115000Y-132427943D01*
X173115000Y-132385117D01*
X173113472Y-132372494D01*
X173113309Y-132366387D01*
X173102814Y-132301620D01*
X173093029Y-132261802D01*
X173089440Y-132255500D01*
X173043701Y-132175177D01*
X173043700Y-132175176D01*
X173043698Y-132175172D01*
X173012407Y-132139061D01*
X172997946Y-132122371D01*
X172965169Y-132090743D01*
X172896738Y-132054947D01*
X172876834Y-132044535D01*
X172876833Y-132044534D01*
X172876832Y-132044534D01*
X172876832Y-132044533D01*
X172809800Y-132024851D01*
X172809791Y-132024849D01*
X172771852Y-132019394D01*
X172708296Y-131990368D01*
X172670523Y-131931590D01*
X172665500Y-131896656D01*
X172665500Y-129394000D01*
X172685185Y-129326961D01*
X172737989Y-129281206D01*
X172789500Y-129270000D01*
X177760001Y-129270000D01*
X178010000Y-129270000D01*
X178010000Y-126299503D01*
X186489048Y-126299503D01*
X186489048Y-126299504D01*
X186516420Y-126310842D01*
X186659999Y-126329746D01*
X186660001Y-126329746D01*
X186803574Y-126310843D01*
X186803578Y-126310842D01*
X186830951Y-126299503D01*
X187689048Y-126299503D01*
X187689048Y-126299504D01*
X187716420Y-126310842D01*
X187859999Y-126329746D01*
X187860001Y-126329746D01*
X188003574Y-126310843D01*
X188003578Y-126310842D01*
X188030951Y-126299503D01*
X188889048Y-126299503D01*
X188889048Y-126299504D01*
X188916420Y-126310842D01*
X189059999Y-126329746D01*
X189060001Y-126329746D01*
X189203574Y-126310843D01*
X189203578Y-126310842D01*
X189230951Y-126299503D01*
X189060001Y-126128553D01*
X188889048Y-126299503D01*
X188030951Y-126299503D01*
X187860001Y-126128553D01*
X187689048Y-126299503D01*
X186830951Y-126299503D01*
X186660001Y-126128553D01*
X186489048Y-126299503D01*
X178010000Y-126299503D01*
X178010000Y-125774999D01*
X186105254Y-125774999D01*
X186105254Y-125775000D01*
X186124157Y-125918579D01*
X186124157Y-125918580D01*
X186135494Y-125945950D01*
X186306446Y-125774999D01*
X186276610Y-125745163D01*
X186510000Y-125745163D01*
X186510000Y-125804837D01*
X186532836Y-125859968D01*
X186575032Y-125902164D01*
X186630163Y-125925000D01*
X186689837Y-125925000D01*
X186744968Y-125902164D01*
X186787164Y-125859968D01*
X186810000Y-125804837D01*
X186810000Y-125775000D01*
X187013553Y-125775000D01*
X187013553Y-125775001D01*
X187184502Y-125945950D01*
X187235812Y-125935745D01*
X187284194Y-125935746D01*
X187335494Y-125945950D01*
X187506446Y-125774999D01*
X187476610Y-125745163D01*
X187710000Y-125745163D01*
X187710000Y-125804837D01*
X187732836Y-125859968D01*
X187775032Y-125902164D01*
X187830163Y-125925000D01*
X187889837Y-125925000D01*
X187944968Y-125902164D01*
X187987164Y-125859968D01*
X188010000Y-125804837D01*
X188010000Y-125775000D01*
X188213553Y-125775000D01*
X188213553Y-125775001D01*
X188384502Y-125945950D01*
X188435812Y-125935745D01*
X188484194Y-125935746D01*
X188535494Y-125945950D01*
X188706446Y-125774999D01*
X188676610Y-125745163D01*
X188910000Y-125745163D01*
X188910000Y-125804837D01*
X188932836Y-125859968D01*
X188975032Y-125902164D01*
X189030163Y-125925000D01*
X189089837Y-125925000D01*
X189144968Y-125902164D01*
X189187164Y-125859968D01*
X189210000Y-125804837D01*
X189210000Y-125775000D01*
X189413553Y-125775000D01*
X189413553Y-125775001D01*
X189584502Y-125945950D01*
X189635812Y-125935745D01*
X189684194Y-125935746D01*
X189735494Y-125945950D01*
X189906446Y-125774999D01*
X189876610Y-125745163D01*
X190110000Y-125745163D01*
X190110000Y-125804837D01*
X190132836Y-125859968D01*
X190175032Y-125902164D01*
X190230163Y-125925000D01*
X190289837Y-125925000D01*
X190344968Y-125902164D01*
X190387164Y-125859968D01*
X190410000Y-125804837D01*
X190410000Y-125745163D01*
X190387164Y-125690032D01*
X190344968Y-125647836D01*
X190289837Y-125625000D01*
X190230163Y-125625000D01*
X190175032Y-125647836D01*
X190132836Y-125690032D01*
X190110000Y-125745163D01*
X189876610Y-125745163D01*
X189735494Y-125604047D01*
X189684193Y-125614252D01*
X189635813Y-125614253D01*
X189584504Y-125604048D01*
X189413553Y-125775000D01*
X189210000Y-125775000D01*
X189210000Y-125745163D01*
X189187164Y-125690032D01*
X189144968Y-125647836D01*
X189089837Y-125625000D01*
X189030163Y-125625000D01*
X188975032Y-125647836D01*
X188932836Y-125690032D01*
X188910000Y-125745163D01*
X188676610Y-125745163D01*
X188535494Y-125604047D01*
X188484193Y-125614252D01*
X188435813Y-125614253D01*
X188384504Y-125604048D01*
X188213553Y-125775000D01*
X188010000Y-125775000D01*
X188010000Y-125745163D01*
X187987164Y-125690032D01*
X187944968Y-125647836D01*
X187889837Y-125625000D01*
X187830163Y-125625000D01*
X187775032Y-125647836D01*
X187732836Y-125690032D01*
X187710000Y-125745163D01*
X187476610Y-125745163D01*
X187335494Y-125604047D01*
X187284193Y-125614252D01*
X187235813Y-125614253D01*
X187184504Y-125604048D01*
X187013553Y-125775000D01*
X186810000Y-125775000D01*
X186810000Y-125745163D01*
X186787164Y-125690032D01*
X186744968Y-125647836D01*
X186689837Y-125625000D01*
X186630163Y-125625000D01*
X186575032Y-125647836D01*
X186532836Y-125690032D01*
X186510000Y-125745163D01*
X186276610Y-125745163D01*
X186135495Y-125604048D01*
X186124156Y-125631422D01*
X186105254Y-125774999D01*
X178010000Y-125774999D01*
X178010000Y-125250494D01*
X186489047Y-125250494D01*
X186659999Y-125421446D01*
X186830950Y-125250494D01*
X187689047Y-125250494D01*
X187859999Y-125421446D01*
X188030950Y-125250494D01*
X188889047Y-125250494D01*
X189059999Y-125421446D01*
X189230950Y-125250494D01*
X189220746Y-125199194D01*
X189220745Y-125150812D01*
X189230950Y-125099502D01*
X189060001Y-124928553D01*
X188889048Y-125099504D01*
X188899253Y-125150813D01*
X188899252Y-125199193D01*
X188889047Y-125250494D01*
X188030950Y-125250494D01*
X188020746Y-125199194D01*
X188020745Y-125150812D01*
X188030950Y-125099502D01*
X187860001Y-124928553D01*
X187689048Y-125099504D01*
X187699253Y-125150813D01*
X187699252Y-125199193D01*
X187689047Y-125250494D01*
X186830950Y-125250494D01*
X186820746Y-125199194D01*
X186820745Y-125150812D01*
X186830950Y-125099502D01*
X186660001Y-124928553D01*
X186489048Y-125099504D01*
X186499253Y-125150813D01*
X186499252Y-125199193D01*
X186489047Y-125250494D01*
X178010000Y-125250494D01*
X178010000Y-123628059D01*
X179682410Y-123628059D01*
X179702891Y-123770515D01*
X179740968Y-123853890D01*
X179762680Y-123901432D01*
X179790578Y-123933628D01*
X179839180Y-123989719D01*
X179868204Y-124053275D01*
X179858260Y-124122433D01*
X179839180Y-124152123D01*
X179774623Y-124226627D01*
X179774622Y-124226628D01*
X179714834Y-124357543D01*
X179694353Y-124500000D01*
X179714834Y-124642456D01*
X179774622Y-124773371D01*
X179774623Y-124773373D01*
X179868872Y-124882143D01*
X179989947Y-124959953D01*
X179989950Y-124959954D01*
X179989949Y-124959954D01*
X180030301Y-124971802D01*
X180109181Y-124994963D01*
X180128036Y-125000499D01*
X180128038Y-125000500D01*
X180128039Y-125000500D01*
X180271962Y-125000500D01*
X180271962Y-125000499D01*
X180410053Y-124959953D01*
X180531128Y-124882143D01*
X180625377Y-124773373D01*
X180685165Y-124642457D01*
X180694864Y-124574999D01*
X186105254Y-124574999D01*
X186105254Y-124575000D01*
X186124157Y-124718579D01*
X186124157Y-124718580D01*
X186135494Y-124745950D01*
X186306446Y-124574999D01*
X186276610Y-124545163D01*
X186510000Y-124545163D01*
X186510000Y-124604837D01*
X186532836Y-124659968D01*
X186575032Y-124702164D01*
X186630163Y-124725000D01*
X186689837Y-124725000D01*
X186744968Y-124702164D01*
X186787164Y-124659968D01*
X186810000Y-124604837D01*
X186810000Y-124575000D01*
X187013553Y-124575000D01*
X187013553Y-124575001D01*
X187184502Y-124745950D01*
X187235812Y-124735745D01*
X187284194Y-124735746D01*
X187335494Y-124745950D01*
X187506446Y-124574999D01*
X187476610Y-124545163D01*
X187710000Y-124545163D01*
X187710000Y-124604837D01*
X187732836Y-124659968D01*
X187775032Y-124702164D01*
X187830163Y-124725000D01*
X187889837Y-124725000D01*
X187944968Y-124702164D01*
X187987164Y-124659968D01*
X188010000Y-124604837D01*
X188010000Y-124575000D01*
X188213553Y-124575000D01*
X188213553Y-124575001D01*
X188384502Y-124745950D01*
X188435812Y-124735745D01*
X188484194Y-124735746D01*
X188535494Y-124745950D01*
X188706446Y-124574999D01*
X188676610Y-124545163D01*
X188910000Y-124545163D01*
X188910000Y-124604837D01*
X188932836Y-124659968D01*
X188975032Y-124702164D01*
X189030163Y-124725000D01*
X189089837Y-124725000D01*
X189144968Y-124702164D01*
X189187164Y-124659968D01*
X189210000Y-124604837D01*
X189210000Y-124575000D01*
X189413553Y-124575000D01*
X189413553Y-124575001D01*
X189584502Y-124745950D01*
X189635812Y-124735745D01*
X189684194Y-124735746D01*
X189735494Y-124745950D01*
X189906446Y-124574999D01*
X189876610Y-124545163D01*
X190110000Y-124545163D01*
X190110000Y-124604837D01*
X190132836Y-124659968D01*
X190175032Y-124702164D01*
X190230163Y-124725000D01*
X190289837Y-124725000D01*
X190344968Y-124702164D01*
X190387164Y-124659968D01*
X190410000Y-124604837D01*
X190410000Y-124545163D01*
X190387164Y-124490032D01*
X190344968Y-124447836D01*
X190289837Y-124425000D01*
X190230163Y-124425000D01*
X190175032Y-124447836D01*
X190132836Y-124490032D01*
X190110000Y-124545163D01*
X189876610Y-124545163D01*
X189735494Y-124404047D01*
X189684193Y-124414252D01*
X189635813Y-124414253D01*
X189584504Y-124404048D01*
X189413553Y-124575000D01*
X189210000Y-124575000D01*
X189210000Y-124545163D01*
X189187164Y-124490032D01*
X189144968Y-124447836D01*
X189089837Y-124425000D01*
X189030163Y-124425000D01*
X188975032Y-124447836D01*
X188932836Y-124490032D01*
X188910000Y-124545163D01*
X188676610Y-124545163D01*
X188535494Y-124404047D01*
X188484193Y-124414252D01*
X188435813Y-124414253D01*
X188384504Y-124404048D01*
X188213553Y-124575000D01*
X188010000Y-124575000D01*
X188010000Y-124545163D01*
X187987164Y-124490032D01*
X187944968Y-124447836D01*
X187889837Y-124425000D01*
X187830163Y-124425000D01*
X187775032Y-124447836D01*
X187732836Y-124490032D01*
X187710000Y-124545163D01*
X187476610Y-124545163D01*
X187335494Y-124404047D01*
X187284193Y-124414252D01*
X187235813Y-124414253D01*
X187184504Y-124404048D01*
X187013553Y-124575000D01*
X186810000Y-124575000D01*
X186810000Y-124545163D01*
X186787164Y-124490032D01*
X186744968Y-124447836D01*
X186689837Y-124425000D01*
X186630163Y-124425000D01*
X186575032Y-124447836D01*
X186532836Y-124490032D01*
X186510000Y-124545163D01*
X186276610Y-124545163D01*
X186135495Y-124404048D01*
X186124156Y-124431422D01*
X186105254Y-124574999D01*
X180694864Y-124574999D01*
X180705647Y-124500000D01*
X180685165Y-124357543D01*
X180625377Y-124226627D01*
X180569273Y-124161879D01*
X180548876Y-124138339D01*
X180519852Y-124074783D01*
X180529796Y-124005625D01*
X180548873Y-123975939D01*
X180613434Y-123901432D01*
X180673222Y-123770516D01*
X180693704Y-123628059D01*
X180673222Y-123485602D01*
X180613434Y-123354686D01*
X180519185Y-123245916D01*
X180398110Y-123168106D01*
X180398108Y-123168105D01*
X180398106Y-123168104D01*
X180398107Y-123168104D01*
X180260020Y-123127559D01*
X180260018Y-123127559D01*
X180116096Y-123127559D01*
X180116093Y-123127559D01*
X179978006Y-123168104D01*
X179856930Y-123245915D01*
X179762680Y-123354685D01*
X179762679Y-123354687D01*
X179702891Y-123485602D01*
X179682410Y-123628059D01*
X178010000Y-123628059D01*
X178010000Y-121200000D01*
X181719353Y-121200000D01*
X181739834Y-121342456D01*
X181799622Y-121473371D01*
X181799623Y-121473373D01*
X181893872Y-121582143D01*
X182014947Y-121659953D01*
X182014950Y-121659954D01*
X182014949Y-121659954D01*
X182153036Y-121700499D01*
X182153038Y-121700500D01*
X182153039Y-121700500D01*
X182296962Y-121700500D01*
X182296962Y-121700499D01*
X182404121Y-121669035D01*
X182435050Y-121659954D01*
X182435050Y-121659953D01*
X182435053Y-121659953D01*
X182556128Y-121582143D01*
X182650377Y-121473373D01*
X182710165Y-121342457D01*
X182730647Y-121200000D01*
X182710165Y-121057543D01*
X182650377Y-120926627D01*
X182556128Y-120817857D01*
X182435053Y-120740047D01*
X182435051Y-120740046D01*
X182435049Y-120740045D01*
X182435050Y-120740045D01*
X182296963Y-120699500D01*
X182296961Y-120699500D01*
X182153039Y-120699500D01*
X182153036Y-120699500D01*
X182014949Y-120740045D01*
X181893873Y-120817856D01*
X181799623Y-120926626D01*
X181799622Y-120926628D01*
X181739834Y-121057543D01*
X181719353Y-121200000D01*
X178010000Y-121200000D01*
X178010000Y-120595000D01*
X176217568Y-118280890D01*
X176058770Y-118075874D01*
X176047622Y-118058727D01*
X176023316Y-118013584D01*
X176010152Y-117974997D01*
X176001801Y-117924414D01*
X176000145Y-117904035D01*
X176006762Y-113550000D01*
X176894929Y-113550000D01*
X176915183Y-113807349D01*
X176975444Y-114058355D01*
X176975444Y-114058356D01*
X177074228Y-114296843D01*
X177074230Y-114296846D01*
X177209111Y-114516951D01*
X177213895Y-114522551D01*
X177756732Y-113979713D01*
X177848692Y-114117342D01*
X177972658Y-114241308D01*
X178110284Y-114333266D01*
X177567447Y-114876103D01*
X177567447Y-114876104D01*
X177573046Y-114880885D01*
X177573052Y-114880890D01*
X177793153Y-115015769D01*
X177793156Y-115015771D01*
X178031644Y-115114555D01*
X178093585Y-115129426D01*
X178154177Y-115164217D01*
X178186341Y-115226243D01*
X178179865Y-115295812D01*
X178136805Y-115350836D01*
X178093585Y-115370574D01*
X178031644Y-115385444D01*
X178031643Y-115385444D01*
X177793156Y-115484228D01*
X177793153Y-115484230D01*
X177573057Y-115619105D01*
X177573052Y-115619109D01*
X177567447Y-115623894D01*
X178110285Y-116166732D01*
X177972658Y-116258692D01*
X177848692Y-116382658D01*
X177756732Y-116520285D01*
X177213894Y-115977447D01*
X177209109Y-115983052D01*
X177209105Y-115983057D01*
X177074230Y-116203153D01*
X177074228Y-116203156D01*
X176975444Y-116441643D01*
X176975444Y-116441644D01*
X176915183Y-116692650D01*
X176894929Y-116950000D01*
X176915183Y-117207349D01*
X176975444Y-117458355D01*
X176975444Y-117458356D01*
X177074228Y-117696843D01*
X177074230Y-117696846D01*
X177209111Y-117916951D01*
X177213895Y-117922551D01*
X177756732Y-117379713D01*
X177848692Y-117517342D01*
X177972658Y-117641308D01*
X178110284Y-117733266D01*
X177567447Y-118276103D01*
X177567447Y-118276104D01*
X177573046Y-118280885D01*
X177573052Y-118280890D01*
X177793153Y-118415769D01*
X177793156Y-118415771D01*
X178031644Y-118514555D01*
X178282650Y-118574816D01*
X178540000Y-118595070D01*
X178797349Y-118574816D01*
X179048355Y-118514555D01*
X179048356Y-118514555D01*
X179286843Y-118415771D01*
X179286846Y-118415769D01*
X179506942Y-118280894D01*
X179512550Y-118276103D01*
X178969714Y-117733267D01*
X179107342Y-117641308D01*
X179231308Y-117517342D01*
X179323267Y-117379714D01*
X179866103Y-117922550D01*
X179870894Y-117916942D01*
X180005769Y-117696846D01*
X180005771Y-117696843D01*
X180104555Y-117458356D01*
X180104555Y-117458355D01*
X180164816Y-117207349D01*
X180185070Y-116950000D01*
X180164816Y-116692650D01*
X180104555Y-116441644D01*
X180104555Y-116441643D01*
X180005771Y-116203156D01*
X180005769Y-116203153D01*
X179870890Y-115983052D01*
X179870885Y-115983046D01*
X179866103Y-115977447D01*
X179323266Y-116520284D01*
X179231308Y-116382658D01*
X179107342Y-116258692D01*
X178969714Y-116166732D01*
X179512551Y-115623895D01*
X179512551Y-115623894D01*
X179506951Y-115619111D01*
X179286846Y-115484230D01*
X179286843Y-115484228D01*
X179048355Y-115385444D01*
X178986414Y-115370574D01*
X178925822Y-115335783D01*
X178893658Y-115273757D01*
X178900134Y-115204188D01*
X178943193Y-115149164D01*
X178986414Y-115129426D01*
X179048355Y-115114555D01*
X179048356Y-115114555D01*
X179286843Y-115015771D01*
X179286846Y-115015769D01*
X179506942Y-114880894D01*
X179512550Y-114876103D01*
X178969714Y-114333267D01*
X179107342Y-114241308D01*
X179231308Y-114117342D01*
X179323267Y-113979714D01*
X179866103Y-114522550D01*
X179870894Y-114516942D01*
X180005769Y-114296846D01*
X180005771Y-114296843D01*
X180104555Y-114058356D01*
X180104555Y-114058355D01*
X180164816Y-113807349D01*
X180185070Y-113550000D01*
X180164816Y-113292650D01*
X180104555Y-113041644D01*
X180104555Y-113041643D01*
X180005771Y-112803156D01*
X180005769Y-112803153D01*
X179870890Y-112583052D01*
X179870885Y-112583046D01*
X179866103Y-112577447D01*
X179323266Y-113120284D01*
X179231308Y-112982658D01*
X179107342Y-112858692D01*
X178969714Y-112766732D01*
X179512551Y-112223895D01*
X179512551Y-112223894D01*
X179506951Y-112219111D01*
X179286846Y-112084230D01*
X179286843Y-112084228D01*
X179048355Y-111985444D01*
X178797349Y-111925183D01*
X178540000Y-111904929D01*
X178282650Y-111925183D01*
X178031644Y-111985444D01*
X178031643Y-111985444D01*
X177793156Y-112084228D01*
X177793153Y-112084230D01*
X177573057Y-112219105D01*
X177573052Y-112219109D01*
X177567447Y-112223894D01*
X178110285Y-112766732D01*
X177972658Y-112858692D01*
X177848692Y-112982658D01*
X177756732Y-113120285D01*
X177213894Y-112577447D01*
X177209109Y-112583052D01*
X177209105Y-112583057D01*
X177074230Y-112803153D01*
X177074228Y-112803156D01*
X176975444Y-113041643D01*
X176975444Y-113041644D01*
X176915183Y-113292650D01*
X176894929Y-113550000D01*
X176006762Y-113550000D01*
X176009601Y-111682096D01*
X176012018Y-111657927D01*
X176023939Y-111598447D01*
X176042510Y-111553794D01*
X176069349Y-111513744D01*
X176103588Y-111479594D01*
X176143709Y-111452859D01*
X176188411Y-111434405D01*
X176247917Y-111422639D01*
X176272099Y-111420285D01*
X176850597Y-111420914D01*
G37*
%TD.AperFunction*%
%TD*%
%TA.AperFunction,Conductor*%
%TO.N,/SW*%
G36*
X162942539Y-137232185D02*
G01*
X162988294Y-137284989D01*
X162999500Y-137336500D01*
X162999500Y-138419017D01*
X163010292Y-138487157D01*
X163014354Y-138512804D01*
X163071950Y-138625842D01*
X163071952Y-138625844D01*
X163071954Y-138625847D01*
X163161652Y-138715545D01*
X163161654Y-138715546D01*
X163161658Y-138715550D01*
X163274696Y-138773146D01*
X163274698Y-138773147D01*
X163368475Y-138787999D01*
X163368481Y-138788000D01*
X163706000Y-138787999D01*
X163773039Y-138807683D01*
X163818794Y-138860487D01*
X163830000Y-138911999D01*
X163830000Y-142350500D01*
X163810315Y-142417539D01*
X163757511Y-142463294D01*
X163706000Y-142474500D01*
X163404519Y-142474500D01*
X163404509Y-142474501D01*
X163347885Y-142480587D01*
X163332891Y-142486181D01*
X163289555Y-142494000D01*
X162176000Y-142494000D01*
X162108961Y-142474315D01*
X162063206Y-142421511D01*
X162052000Y-142370000D01*
X162052000Y-142210564D01*
X162071685Y-142143525D01*
X162073880Y-142140800D01*
X162073815Y-142140756D01*
X162080599Y-142130601D01*
X162080601Y-142130601D01*
X162135966Y-142047740D01*
X162150500Y-141974674D01*
X162150500Y-139225326D01*
X162150500Y-139225323D01*
X162150499Y-139225321D01*
X162135967Y-139152264D01*
X162135966Y-139152263D01*
X162135966Y-139152260D01*
X162080601Y-139069399D01*
X162073816Y-139059244D01*
X162077291Y-139056921D01*
X162054834Y-139015793D01*
X162052000Y-138989435D01*
X162052000Y-138753254D01*
X162071685Y-138686215D01*
X162088320Y-138665572D01*
X162128046Y-138625846D01*
X162128050Y-138625842D01*
X162185646Y-138512804D01*
X162185646Y-138512802D01*
X162185647Y-138512801D01*
X162200499Y-138419024D01*
X162200500Y-138419019D01*
X162200499Y-137336499D01*
X162220184Y-137269461D01*
X162272987Y-137223706D01*
X162324499Y-137212500D01*
X162875500Y-137212500D01*
X162942539Y-137232185D01*
G37*
%TD.AperFunction*%
%TD*%
%TA.AperFunction,Conductor*%
%TO.N,VBAT_Fused*%
G36*
X177303929Y-135909685D02*
G01*
X177349684Y-135962489D01*
X177359628Y-136031647D01*
X177336157Y-136088311D01*
X177195966Y-136275583D01*
X177195965Y-136275584D01*
X177066406Y-136512854D01*
X177066404Y-136512858D01*
X176971924Y-136766169D01*
X176914460Y-137030329D01*
X176914459Y-137030336D01*
X176895172Y-137299998D01*
X176895172Y-137300001D01*
X176914459Y-137569663D01*
X176914460Y-137569670D01*
X176971924Y-137833830D01*
X177066404Y-138087141D01*
X177066406Y-138087145D01*
X177195965Y-138324415D01*
X177195970Y-138324423D01*
X177288464Y-138447980D01*
X177288465Y-138447981D01*
X178006732Y-137729713D01*
X178098692Y-137867342D01*
X178222658Y-137991308D01*
X178360285Y-138083266D01*
X177642017Y-138801533D01*
X177765577Y-138894029D01*
X177768158Y-138895688D01*
X177768831Y-138896465D01*
X177769125Y-138896685D01*
X177769077Y-138896748D01*
X177813909Y-138948495D01*
X177823849Y-139017654D01*
X177794820Y-139081208D01*
X177768158Y-139104312D01*
X177765570Y-139105975D01*
X177642017Y-139198464D01*
X178360285Y-139916732D01*
X178222658Y-140008692D01*
X178098692Y-140132658D01*
X178006732Y-140270285D01*
X177288464Y-139552017D01*
X177195970Y-139675576D01*
X177195965Y-139675584D01*
X177066406Y-139912854D01*
X177066404Y-139912858D01*
X176971924Y-140166169D01*
X176914460Y-140430329D01*
X176914459Y-140430336D01*
X176895172Y-140699998D01*
X176895172Y-140700001D01*
X176914459Y-140969663D01*
X176914460Y-140969670D01*
X176971924Y-141233830D01*
X177066404Y-141487141D01*
X177066406Y-141487145D01*
X177195965Y-141724415D01*
X177195970Y-141724423D01*
X177288464Y-141847980D01*
X177288465Y-141847981D01*
X178006732Y-141129714D01*
X178098692Y-141267342D01*
X178222658Y-141391308D01*
X178360285Y-141483266D01*
X177642017Y-142201533D01*
X177765583Y-142294033D01*
X177765584Y-142294034D01*
X178002854Y-142423593D01*
X178002858Y-142423595D01*
X178256169Y-142518075D01*
X178520329Y-142575539D01*
X178520336Y-142575540D01*
X178789999Y-142594828D01*
X178790001Y-142594828D01*
X179059663Y-142575540D01*
X179059670Y-142575539D01*
X179323830Y-142518075D01*
X179577141Y-142423595D01*
X179577145Y-142423593D01*
X179814424Y-142294029D01*
X179937980Y-142201534D01*
X179937981Y-142201533D01*
X179219714Y-141483267D01*
X179357342Y-141391308D01*
X179481308Y-141267342D01*
X179573267Y-141129714D01*
X180291533Y-141847981D01*
X180291534Y-141847980D01*
X180384029Y-141724424D01*
X180513593Y-141487145D01*
X180513595Y-141487141D01*
X180608075Y-141233830D01*
X180665539Y-140969670D01*
X180665540Y-140969663D01*
X180684828Y-140700001D01*
X180684828Y-140699998D01*
X180665540Y-140430336D01*
X180665539Y-140430329D01*
X180608075Y-140166169D01*
X180513595Y-139912858D01*
X180513593Y-139912854D01*
X180384034Y-139675584D01*
X180384033Y-139675583D01*
X180291533Y-139552017D01*
X179573266Y-140270284D01*
X179481308Y-140132658D01*
X179357342Y-140008692D01*
X179219714Y-139916732D01*
X179937981Y-139198465D01*
X179937980Y-139198464D01*
X179814422Y-139105969D01*
X179811849Y-139104316D01*
X179811176Y-139103539D01*
X179810876Y-139103315D01*
X179810924Y-139103249D01*
X179766093Y-139051513D01*
X179756149Y-138982355D01*
X179785173Y-138918799D01*
X179811849Y-138895684D01*
X179814414Y-138894035D01*
X179937981Y-138801533D01*
X179219714Y-138083267D01*
X179357342Y-137991308D01*
X179481308Y-137867342D01*
X179573266Y-137729714D01*
X180291533Y-138447981D01*
X180291534Y-138447980D01*
X180384029Y-138324424D01*
X180513593Y-138087145D01*
X180513595Y-138087141D01*
X180608075Y-137833830D01*
X180665539Y-137569670D01*
X180665540Y-137569663D01*
X180684828Y-137300001D01*
X180684828Y-137299998D01*
X180665540Y-137030336D01*
X180665539Y-137030329D01*
X180608075Y-136766169D01*
X180513595Y-136512858D01*
X180513593Y-136512854D01*
X180384034Y-136275584D01*
X180384033Y-136275583D01*
X180243843Y-136088311D01*
X180219426Y-136022846D01*
X180234278Y-135954573D01*
X180283683Y-135905168D01*
X180343110Y-135890000D01*
X182007292Y-135890000D01*
X182061223Y-135904452D01*
X182061649Y-135903426D01*
X182166753Y-135946961D01*
X182215238Y-135967044D01*
X182293619Y-135977363D01*
X182371999Y-135987682D01*
X182372000Y-135987682D01*
X182372001Y-135987682D01*
X182424254Y-135980802D01*
X182528762Y-135967044D01*
X182605992Y-135935054D01*
X182682351Y-135903426D01*
X182682776Y-135904452D01*
X182736708Y-135890000D01*
X184026000Y-135890000D01*
X184093039Y-135909685D01*
X184138794Y-135962489D01*
X184150000Y-136014000D01*
X184150000Y-143202028D01*
X184130315Y-143269067D01*
X184087360Y-143309782D01*
X184055178Y-143328107D01*
X184055173Y-143328111D01*
X184002371Y-143373863D01*
X183970743Y-143406640D01*
X183924534Y-143494977D01*
X183924533Y-143494977D01*
X183904851Y-143562009D01*
X183904848Y-143562021D01*
X183894500Y-143633998D01*
X183894500Y-150975500D01*
X183874815Y-151042539D01*
X183822011Y-151088294D01*
X183770500Y-151099500D01*
X166494000Y-151099500D01*
X166426961Y-151079815D01*
X166381206Y-151027011D01*
X166370000Y-150975500D01*
X166370000Y-142363998D01*
X173734500Y-142363998D01*
X173734500Y-148466002D01*
X173740338Y-148520312D01*
X173751543Y-148571818D01*
X173751546Y-148571827D01*
X173758779Y-148598192D01*
X173758783Y-148598203D01*
X173808105Y-148684818D01*
X173808110Y-148684825D01*
X173808112Y-148684828D01*
X173833030Y-148713585D01*
X173853863Y-148737628D01*
X173853866Y-148737631D01*
X173853867Y-148737632D01*
X173886641Y-148769257D01*
X173974976Y-148815465D01*
X173974977Y-148815465D01*
X173974977Y-148815466D01*
X174019218Y-148828456D01*
X174042015Y-148835150D01*
X174042019Y-148835150D01*
X174042021Y-148835151D01*
X174053652Y-148836823D01*
X174114000Y-148845500D01*
X174114001Y-148845500D01*
X178946000Y-148845500D01*
X179000313Y-148839661D01*
X179051824Y-148828455D01*
X179078198Y-148821219D01*
X179121651Y-148796475D01*
X179164818Y-148771894D01*
X179164819Y-148771892D01*
X179164828Y-148771888D01*
X179217632Y-148726133D01*
X179249257Y-148693359D01*
X179295465Y-148605024D01*
X179297470Y-148598198D01*
X179305215Y-148571818D01*
X179315150Y-148537985D01*
X179325500Y-148466000D01*
X179325500Y-146174000D01*
X179319661Y-146119687D01*
X179308455Y-146068176D01*
X179301219Y-146041802D01*
X179301216Y-146041796D01*
X179251894Y-145955181D01*
X179251890Y-145955176D01*
X179251888Y-145955172D01*
X179206133Y-145902368D01*
X179173359Y-145870743D01*
X179085024Y-145824535D01*
X179085023Y-145824534D01*
X179085022Y-145824534D01*
X179085022Y-145824533D01*
X179017990Y-145804851D01*
X179017978Y-145804848D01*
X178946001Y-145794500D01*
X178946000Y-145794500D01*
X177671500Y-145794500D01*
X177604461Y-145774815D01*
X177558706Y-145722011D01*
X177547500Y-145670500D01*
X177547500Y-145267615D01*
X177567185Y-145200576D01*
X177619989Y-145154821D01*
X177647309Y-145145998D01*
X177697735Y-145135967D01*
X177697735Y-145135966D01*
X177697740Y-145135966D01*
X177780601Y-145080601D01*
X177835966Y-144997740D01*
X177850500Y-144924674D01*
X177850500Y-143275326D01*
X177850500Y-143275323D01*
X177850499Y-143275321D01*
X177835967Y-143202264D01*
X177835966Y-143202260D01*
X177835811Y-143202028D01*
X177780601Y-143119399D01*
X177697740Y-143064034D01*
X177697739Y-143064033D01*
X177697736Y-143064032D01*
X177647307Y-143054001D01*
X177585397Y-143021615D01*
X177550823Y-142960899D01*
X177547500Y-142932384D01*
X177547500Y-142799360D01*
X177547345Y-142796486D01*
X177546036Y-142772048D01*
X177543202Y-142745690D01*
X177513413Y-142650556D01*
X177479928Y-142589233D01*
X177436347Y-142531015D01*
X177436342Y-142531010D01*
X177436334Y-142531001D01*
X177000998Y-142095666D01*
X177000985Y-142095653D01*
X176980635Y-142077374D01*
X176980629Y-142077369D01*
X176980620Y-142077361D01*
X176959999Y-142060744D01*
X176959996Y-142060742D01*
X176959993Y-142060740D01*
X176871662Y-142014535D01*
X176871659Y-142014534D01*
X176804624Y-141994850D01*
X176804616Y-141994848D01*
X176732639Y-141984500D01*
X176732638Y-141984500D01*
X174114000Y-141984500D01*
X174113997Y-141984500D01*
X174059687Y-141990338D01*
X174008181Y-142001543D01*
X174008172Y-142001546D01*
X173981807Y-142008779D01*
X173981796Y-142008783D01*
X173895181Y-142058105D01*
X173895173Y-142058111D01*
X173842371Y-142103863D01*
X173810743Y-142136640D01*
X173764534Y-142224977D01*
X173764533Y-142224977D01*
X173744851Y-142292009D01*
X173744848Y-142292021D01*
X173734500Y-142363998D01*
X166370000Y-142363998D01*
X166370000Y-141094000D01*
X166389685Y-141026961D01*
X166442489Y-140981206D01*
X166494000Y-140970000D01*
X172212000Y-140970000D01*
X172212000Y-136014000D01*
X172231685Y-135946961D01*
X172284489Y-135901206D01*
X172336000Y-135890000D01*
X177236890Y-135890000D01*
X177303929Y-135909685D01*
G37*
%TD.AperFunction*%
%TD*%
%TA.AperFunction,Conductor*%
%TO.N,VDD*%
G36*
X158893452Y-137597818D02*
G01*
X159017517Y-137644091D01*
X159017516Y-137644091D01*
X159024444Y-137644835D01*
X159077127Y-137650500D01*
X160122872Y-137650499D01*
X160182483Y-137644091D01*
X160306548Y-137597818D01*
X160349881Y-137590000D01*
X160975500Y-137590000D01*
X161042539Y-137609685D01*
X161088294Y-137662489D01*
X161099500Y-137714000D01*
X161099500Y-138419017D01*
X161101694Y-138432867D01*
X161114354Y-138512804D01*
X161171950Y-138625842D01*
X161171952Y-138625844D01*
X161171954Y-138625847D01*
X161261652Y-138715545D01*
X161261654Y-138715546D01*
X161261658Y-138715550D01*
X161374696Y-138773146D01*
X161374698Y-138773147D01*
X161468475Y-138787999D01*
X161468481Y-138788000D01*
X161672500Y-138787999D01*
X161739539Y-138807683D01*
X161785294Y-138860487D01*
X161796500Y-138911999D01*
X161796500Y-138989438D01*
X161797822Y-139014105D01*
X161798000Y-139020741D01*
X161798000Y-142116000D01*
X161778315Y-142183039D01*
X161725511Y-142228794D01*
X161674000Y-142240000D01*
X160699500Y-142240000D01*
X160632461Y-142220315D01*
X160586706Y-142167511D01*
X160575500Y-142116001D01*
X160575499Y-141902130D01*
X160575498Y-141902123D01*
X160569091Y-141842516D01*
X160518797Y-141707671D01*
X160518793Y-141707664D01*
X160432547Y-141592455D01*
X160432544Y-141592452D01*
X160317335Y-141506206D01*
X160317328Y-141506202D01*
X160182482Y-141455908D01*
X160182483Y-141455908D01*
X160122883Y-141449501D01*
X160122881Y-141449500D01*
X160122873Y-141449500D01*
X160122864Y-141449500D01*
X159077129Y-141449500D01*
X159077123Y-141449501D01*
X159017516Y-141455908D01*
X158882671Y-141506202D01*
X158882664Y-141506206D01*
X158767455Y-141592452D01*
X158719266Y-141656824D01*
X158663332Y-141698694D01*
X158593640Y-141703678D01*
X158532317Y-141670192D01*
X158498833Y-141608868D01*
X158496000Y-141582512D01*
X158496000Y-139581668D01*
X158497061Y-139565483D01*
X158505682Y-139500000D01*
X158505682Y-139499998D01*
X158497061Y-139434516D01*
X158496000Y-139418331D01*
X158496000Y-137714000D01*
X158515685Y-137646961D01*
X158568489Y-137601206D01*
X158620000Y-137590000D01*
X158850119Y-137590000D01*
X158893452Y-137597818D01*
G37*
%TD.AperFunction*%
%TD*%
%TA.AperFunction,Conductor*%
%TO.N,VBAT_Fused*%
G36*
X165139336Y-127745500D02*
G01*
X165495540Y-127745500D01*
X165527650Y-127749730D01*
X165529515Y-127750230D01*
X165589170Y-127786603D01*
X165619691Y-127849454D01*
X165611387Y-127918828D01*
X165566894Y-127972700D01*
X165529506Y-127989773D01*
X165525774Y-127990773D01*
X165493674Y-127995000D01*
X165085000Y-127995000D01*
X165085000Y-128195000D01*
X165347789Y-128195000D01*
X165371980Y-128197383D01*
X165431480Y-128209218D01*
X165476175Y-128227730D01*
X165516272Y-128254522D01*
X165550477Y-128288727D01*
X165577267Y-128328822D01*
X165595781Y-128373517D01*
X165607617Y-128433022D01*
X165610000Y-128457210D01*
X165610000Y-128745000D01*
X165722500Y-128745000D01*
X165835000Y-128745000D01*
X165835000Y-128486326D01*
X165839225Y-128454232D01*
X165840225Y-128450500D01*
X165876590Y-128390840D01*
X165939437Y-128360311D01*
X166008813Y-128368606D01*
X166062691Y-128413091D01*
X166079775Y-128450500D01*
X166080775Y-128454232D01*
X166085000Y-128486326D01*
X166085000Y-128745000D01*
X166210000Y-128745000D01*
X166335000Y-128745000D01*
X166335000Y-128486326D01*
X166339225Y-128454232D01*
X166340225Y-128450500D01*
X166376590Y-128390840D01*
X166439437Y-128360311D01*
X166508813Y-128368606D01*
X166562691Y-128413091D01*
X166579775Y-128450500D01*
X166580775Y-128454232D01*
X166585000Y-128486326D01*
X166585000Y-128745000D01*
X166710000Y-128745000D01*
X166835000Y-128745000D01*
X166835000Y-128486326D01*
X166839224Y-128454235D01*
X166841369Y-128446229D01*
X166877733Y-128386568D01*
X166940579Y-128356037D01*
X167009955Y-128364331D01*
X167063834Y-128408815D01*
X167080306Y-128444018D01*
X167083326Y-128454509D01*
X167088134Y-128486056D01*
X167104513Y-129223107D01*
X167102829Y-129246415D01*
X167093151Y-129303996D01*
X167076967Y-129347619D01*
X167052933Y-129387354D01*
X167021810Y-129421942D01*
X166984822Y-129450022D01*
X166943144Y-129470703D01*
X166919990Y-129477158D01*
X166886901Y-129486382D01*
X166863911Y-129490506D01*
X166510000Y-129520000D01*
X166510000Y-129750028D01*
X166510000Y-133550423D01*
X166507532Y-133575042D01*
X166495278Y-133635534D01*
X166476115Y-133680891D01*
X166448445Y-133721370D01*
X166413140Y-133755694D01*
X166371897Y-133782213D01*
X166326020Y-133800089D01*
X166290441Y-133806259D01*
X166265213Y-133810634D01*
X166240535Y-133812408D01*
X164992013Y-133777239D01*
X164968202Y-133774245D01*
X164909751Y-133761051D01*
X164866047Y-133741750D01*
X164826995Y-133714472D01*
X164793834Y-133680083D01*
X164767992Y-133640063D01*
X164750295Y-133595691D01*
X164746417Y-133575042D01*
X164739233Y-133536792D01*
X164737107Y-133512903D01*
X164757934Y-130972049D01*
X164760000Y-130720000D01*
X164507942Y-130720000D01*
X164507938Y-130720000D01*
X162847211Y-130720000D01*
X162823020Y-130717617D01*
X162808189Y-130714667D01*
X162763518Y-130705781D01*
X162718822Y-130687267D01*
X162678727Y-130660477D01*
X162644522Y-130626272D01*
X162617730Y-130586175D01*
X162599218Y-130541480D01*
X162587383Y-130481980D01*
X162585000Y-130457789D01*
X162585000Y-129847072D01*
X162594439Y-129799619D01*
X162614980Y-129750028D01*
X162637044Y-129696762D01*
X162657682Y-129540000D01*
X162637044Y-129383238D01*
X162604221Y-129303996D01*
X162594439Y-129280379D01*
X162585000Y-129232927D01*
X162585000Y-129112210D01*
X162587383Y-129088019D01*
X162599218Y-129028519D01*
X162617729Y-128983826D01*
X162644524Y-128943724D01*
X162678724Y-128909524D01*
X162718826Y-128882729D01*
X162763514Y-128864219D01*
X162823028Y-128852381D01*
X162847211Y-128850000D01*
X163193657Y-128850000D01*
X163260696Y-128869685D01*
X163267292Y-128874231D01*
X163272118Y-128877793D01*
X163400299Y-128922646D01*
X163430730Y-128925500D01*
X163430734Y-128925500D01*
X163939270Y-128925500D01*
X163969699Y-128922646D01*
X163969701Y-128922646D01*
X164033790Y-128900219D01*
X164097882Y-128877793D01*
X164207150Y-128797150D01*
X164287793Y-128687882D01*
X164310219Y-128623790D01*
X164332646Y-128559701D01*
X164332646Y-128559699D01*
X164335500Y-128529269D01*
X164335500Y-127869000D01*
X164355185Y-127801961D01*
X164407989Y-127756206D01*
X164459500Y-127745000D01*
X165129158Y-127745000D01*
X165139336Y-127745500D01*
G37*
%TD.AperFunction*%
%TD*%
%TA.AperFunction,Conductor*%
%TO.N,/OUT2*%
G36*
X204943039Y-120019685D02*
G01*
X204988794Y-120072489D01*
X205000000Y-120124000D01*
X205000000Y-123376000D01*
X204980315Y-123443039D01*
X204927511Y-123488794D01*
X204876000Y-123500000D01*
X190910772Y-123500000D01*
X190843733Y-123480315D01*
X190806994Y-123443868D01*
X190787813Y-123414537D01*
X190759588Y-123378794D01*
X190759587Y-123378793D01*
X190759586Y-123378792D01*
X190759587Y-123378792D01*
X190678275Y-123321134D01*
X190678271Y-123321132D01*
X190678267Y-123321129D01*
X190614483Y-123292610D01*
X190588705Y-123283746D01*
X190571411Y-123277799D01*
X190471827Y-123273253D01*
X190471823Y-123273254D01*
X190402756Y-123283744D01*
X190402745Y-123283747D01*
X190333143Y-123304785D01*
X190333142Y-123304785D01*
X190325431Y-123308382D01*
X190273027Y-123319999D01*
X190234500Y-123319999D01*
X190167461Y-123300314D01*
X190121706Y-123247510D01*
X190110500Y-123195999D01*
X190110499Y-121917155D01*
X190130184Y-121850116D01*
X190167460Y-121812839D01*
X190167622Y-121812734D01*
X190167625Y-121812734D01*
X190288700Y-121734924D01*
X190382949Y-121626154D01*
X190440562Y-121500000D01*
X195524016Y-121500000D01*
X196980384Y-121500000D01*
X196964185Y-121528058D01*
X196925000Y-121674300D01*
X196925000Y-121825700D01*
X196964185Y-121971942D01*
X196980384Y-122000000D01*
X195524016Y-122000000D01*
X195530781Y-122042716D01*
X195591581Y-122229837D01*
X195680904Y-122405143D01*
X195796555Y-122564321D01*
X195935678Y-122703444D01*
X196094856Y-122819095D01*
X196270164Y-122908418D01*
X196457294Y-122969221D01*
X196651618Y-123000000D01*
X197250000Y-123000000D01*
X197250000Y-122269615D01*
X197278058Y-122285815D01*
X197424300Y-122325000D01*
X197575700Y-122325000D01*
X197721942Y-122285815D01*
X197750000Y-122269615D01*
X197750000Y-123000000D01*
X198348382Y-123000000D01*
X198542705Y-122969221D01*
X198729835Y-122908418D01*
X198905143Y-122819095D01*
X199064321Y-122703444D01*
X199203444Y-122564321D01*
X199319095Y-122405143D01*
X199408418Y-122229837D01*
X199469218Y-122042716D01*
X199475984Y-122000000D01*
X198019616Y-122000000D01*
X198035815Y-121971942D01*
X198075000Y-121825700D01*
X198075000Y-121674300D01*
X198035815Y-121528058D01*
X198019616Y-121500000D01*
X199475984Y-121500000D01*
X200524016Y-121500000D01*
X201980384Y-121500000D01*
X201964185Y-121528058D01*
X201925000Y-121674300D01*
X201925000Y-121825700D01*
X201964185Y-121971942D01*
X201980384Y-122000000D01*
X200524016Y-122000000D01*
X200530781Y-122042716D01*
X200591581Y-122229837D01*
X200680904Y-122405143D01*
X200796555Y-122564321D01*
X200935678Y-122703444D01*
X201094856Y-122819095D01*
X201270164Y-122908418D01*
X201457294Y-122969221D01*
X201651618Y-123000000D01*
X202250000Y-123000000D01*
X202250000Y-122269615D01*
X202278058Y-122285815D01*
X202424300Y-122325000D01*
X202575700Y-122325000D01*
X202721942Y-122285815D01*
X202750000Y-122269615D01*
X202750000Y-123000000D01*
X203348382Y-123000000D01*
X203542705Y-122969221D01*
X203729835Y-122908418D01*
X203905143Y-122819095D01*
X204064321Y-122703444D01*
X204203444Y-122564321D01*
X204319095Y-122405143D01*
X204408418Y-122229837D01*
X204469218Y-122042716D01*
X204475984Y-122000000D01*
X203019616Y-122000000D01*
X203035815Y-121971942D01*
X203075000Y-121825700D01*
X203075000Y-121674300D01*
X203035815Y-121528058D01*
X203019616Y-121500000D01*
X204475984Y-121500000D01*
X204469218Y-121457283D01*
X204408418Y-121270162D01*
X204319095Y-121094856D01*
X204203444Y-120935678D01*
X204064321Y-120796555D01*
X203905143Y-120680904D01*
X203729835Y-120591581D01*
X203542705Y-120530778D01*
X203348382Y-120500000D01*
X202750000Y-120500000D01*
X202750000Y-121230384D01*
X202721942Y-121214185D01*
X202575700Y-121175000D01*
X202424300Y-121175000D01*
X202278058Y-121214185D01*
X202250000Y-121230384D01*
X202250000Y-120500000D01*
X201651618Y-120500000D01*
X201457294Y-120530778D01*
X201270164Y-120591581D01*
X201094856Y-120680904D01*
X200935678Y-120796555D01*
X200796555Y-120935678D01*
X200680904Y-121094856D01*
X200591581Y-121270162D01*
X200530781Y-121457283D01*
X200524016Y-121500000D01*
X199475984Y-121500000D01*
X199469218Y-121457283D01*
X199408418Y-121270162D01*
X199319095Y-121094856D01*
X199203444Y-120935678D01*
X199064321Y-120796555D01*
X198905143Y-120680904D01*
X198729835Y-120591581D01*
X198542705Y-120530778D01*
X198348382Y-120500000D01*
X197750000Y-120500000D01*
X197750000Y-121230384D01*
X197721942Y-121214185D01*
X197575700Y-121175000D01*
X197424300Y-121175000D01*
X197278058Y-121214185D01*
X197250000Y-121230384D01*
X197250000Y-120500000D01*
X196651618Y-120500000D01*
X196457294Y-120530778D01*
X196270164Y-120591581D01*
X196094856Y-120680904D01*
X195935678Y-120796555D01*
X195796555Y-120935678D01*
X195680904Y-121094856D01*
X195591581Y-121270162D01*
X195530781Y-121457283D01*
X195524016Y-121500000D01*
X190440562Y-121500000D01*
X190442737Y-121495238D01*
X190463219Y-121352781D01*
X190442737Y-121210324D01*
X190382949Y-121079408D01*
X190288700Y-120970638D01*
X190167625Y-120892828D01*
X190167623Y-120892827D01*
X190167621Y-120892826D01*
X190167622Y-120892826D01*
X190029535Y-120852281D01*
X190029533Y-120852281D01*
X190022936Y-120852281D01*
X189955897Y-120832596D01*
X189910142Y-120779792D01*
X189900198Y-120745927D01*
X189897360Y-120726188D01*
X189864203Y-120653586D01*
X189837572Y-120595272D01*
X189743323Y-120486502D01*
X189622248Y-120408692D01*
X189622245Y-120408690D01*
X189589065Y-120398948D01*
X189530287Y-120361173D01*
X189501262Y-120297618D01*
X189500000Y-120279971D01*
X189500000Y-120124000D01*
X189519685Y-120056961D01*
X189572489Y-120011206D01*
X189624000Y-120000000D01*
X204876000Y-120000000D01*
X204943039Y-120019685D01*
G37*
%TD.AperFunction*%
%TD*%
%TA.AperFunction,Conductor*%
%TO.N,VBAT_Fused*%
G36*
X162249498Y-132861685D02*
G01*
X162295253Y-132914489D01*
X162306458Y-132965540D01*
X162309999Y-133919999D01*
X162309999Y-133920000D01*
X162883271Y-134908649D01*
X162900000Y-134970850D01*
X162900000Y-136138500D01*
X162880315Y-136205539D01*
X162827511Y-136251294D01*
X162776000Y-136262500D01*
X161403086Y-136262500D01*
X161336047Y-136242815D01*
X161313359Y-136224086D01*
X161074164Y-135973317D01*
X161042136Y-135911220D01*
X161039891Y-135888008D01*
X161036000Y-134112000D01*
X161035999Y-134112000D01*
X158366000Y-134112000D01*
X158298961Y-134092315D01*
X158253206Y-134039511D01*
X158242000Y-133988000D01*
X158242000Y-132966000D01*
X158261685Y-132898961D01*
X158314489Y-132853206D01*
X158366000Y-132842000D01*
X162182459Y-132842000D01*
X162249498Y-132861685D01*
G37*
%TD.AperFunction*%
%TD*%
%TA.AperFunction,Conductor*%
%TO.N,GNDPWR*%
G36*
X158586144Y-124400454D02*
G01*
X158632598Y-124452644D01*
X158644500Y-124505653D01*
X158644500Y-124857439D01*
X158648000Y-124870500D01*
X158670091Y-124952945D01*
X158708856Y-125020088D01*
X158719526Y-125038568D01*
X161311521Y-127630562D01*
X161366969Y-127686010D01*
X161400454Y-127747333D01*
X161396331Y-127814641D01*
X161387355Y-127840296D01*
X161387353Y-127840305D01*
X161384500Y-127870730D01*
X161384500Y-128529269D01*
X161387353Y-128559699D01*
X161387353Y-128559701D01*
X161421716Y-128657901D01*
X161432207Y-128687882D01*
X161512850Y-128797150D01*
X161559134Y-128831309D01*
X161601384Y-128886954D01*
X161609500Y-128931078D01*
X161609500Y-129088154D01*
X161589815Y-129155193D01*
X161583876Y-129163640D01*
X161527464Y-129237157D01*
X161466956Y-129383237D01*
X161466955Y-129383239D01*
X161446318Y-129539998D01*
X161446318Y-129540001D01*
X161466955Y-129696760D01*
X161466956Y-129696762D01*
X161485883Y-129742457D01*
X161527464Y-129842841D01*
X161623718Y-129968282D01*
X161749159Y-130064536D01*
X161895238Y-130125044D01*
X161934683Y-130130237D01*
X162051999Y-130145682D01*
X162052000Y-130145682D01*
X162169315Y-130130237D01*
X162238350Y-130141002D01*
X162290606Y-130187382D01*
X162309500Y-130253176D01*
X162309500Y-130517869D01*
X162309501Y-130517876D01*
X162315908Y-130577483D01*
X162366202Y-130712328D01*
X162366206Y-130712335D01*
X162452452Y-130827544D01*
X162452455Y-130827547D01*
X162567664Y-130913793D01*
X162567671Y-130913797D01*
X162570000Y-130914665D01*
X162570000Y-133835748D01*
X162565120Y-133817737D01*
X162564632Y-133686267D01*
X162561956Y-132964592D01*
X162556018Y-132910765D01*
X162544813Y-132859714D01*
X162537678Y-132833802D01*
X162488347Y-132747172D01*
X162452556Y-132705867D01*
X162442595Y-132694371D01*
X162409818Y-132662743D01*
X162321481Y-132616534D01*
X162321481Y-132616533D01*
X162254449Y-132596851D01*
X162254437Y-132596848D01*
X162182460Y-132586500D01*
X162182459Y-132586500D01*
X160112808Y-132586500D01*
X160045769Y-132566815D01*
X160000014Y-132514011D01*
X159990070Y-132444853D01*
X160008828Y-132399124D01*
X160007649Y-132398501D01*
X160011989Y-132390287D01*
X160011993Y-132390282D01*
X160034419Y-132326190D01*
X160056846Y-132262101D01*
X160056846Y-132262099D01*
X160059700Y-132231669D01*
X160059700Y-131723130D01*
X160056846Y-131692700D01*
X160056846Y-131692698D01*
X160011993Y-131564519D01*
X160011992Y-131564517D01*
X159931350Y-131455250D01*
X159822082Y-131374607D01*
X159822080Y-131374606D01*
X159693900Y-131329753D01*
X159663470Y-131326900D01*
X159663466Y-131326900D01*
X159004934Y-131326900D01*
X159004930Y-131326900D01*
X158974500Y-131329753D01*
X158974498Y-131329753D01*
X158846319Y-131374606D01*
X158846317Y-131374607D01*
X158737050Y-131455250D01*
X158656407Y-131564517D01*
X158656406Y-131564519D01*
X158611553Y-131692698D01*
X158611553Y-131692700D01*
X158608700Y-131723130D01*
X158608700Y-132231669D01*
X158611553Y-132262099D01*
X158611553Y-132262101D01*
X158656406Y-132390280D01*
X158660751Y-132398501D01*
X158659184Y-132399328D01*
X158679334Y-132454498D01*
X158664016Y-132522668D01*
X158614275Y-132571735D01*
X158555592Y-132586500D01*
X158365997Y-132586500D01*
X158311687Y-132592338D01*
X158260181Y-132603543D01*
X158260172Y-132603546D01*
X158233807Y-132610779D01*
X158233796Y-132610783D01*
X158147181Y-132660105D01*
X158147173Y-132660111D01*
X158094371Y-132705863D01*
X158062743Y-132738640D01*
X158016534Y-132826977D01*
X158016533Y-132826977D01*
X157996851Y-132894009D01*
X157996848Y-132894021D01*
X157986500Y-132965998D01*
X157986500Y-133988002D01*
X157992338Y-134042312D01*
X158003543Y-134093818D01*
X158003546Y-134093827D01*
X158010779Y-134120192D01*
X158010783Y-134120203D01*
X158060105Y-134206818D01*
X158060110Y-134206825D01*
X158060112Y-134206828D01*
X158077267Y-134226626D01*
X158105863Y-134259628D01*
X158105866Y-134259631D01*
X158105867Y-134259632D01*
X158138641Y-134291257D01*
X158226976Y-134337465D01*
X158226977Y-134337465D01*
X158226977Y-134337466D01*
X158277105Y-134352184D01*
X158294015Y-134357150D01*
X158294019Y-134357150D01*
X158294021Y-134357151D01*
X158296748Y-134357543D01*
X158366000Y-134367500D01*
X160576166Y-134367500D01*
X160643205Y-134387185D01*
X160688960Y-134439989D01*
X160699104Y-134507683D01*
X160684318Y-134620000D01*
X160684318Y-134620001D01*
X160704955Y-134776760D01*
X160704956Y-134776762D01*
X160765463Y-134922839D01*
X160765798Y-134923419D01*
X160765973Y-134924070D01*
X160768574Y-134930349D01*
X160767754Y-134930688D01*
X160782412Y-134985149D01*
X160784391Y-135888563D01*
X160785577Y-135912598D01*
X160785579Y-135912621D01*
X160787822Y-135935812D01*
X160815061Y-136028341D01*
X160847083Y-136090428D01*
X160847093Y-136090444D01*
X160889282Y-136149667D01*
X160889287Y-136149672D01*
X161126758Y-136398633D01*
X161128477Y-136400435D01*
X161150704Y-136421123D01*
X161150708Y-136421126D01*
X161150719Y-136421136D01*
X161151370Y-136421673D01*
X161173392Y-136439852D01*
X161175727Y-136441757D01*
X161264062Y-136487965D01*
X161264063Y-136487966D01*
X161308304Y-136500956D01*
X161331101Y-136507650D01*
X161331105Y-136507650D01*
X161331107Y-136507651D01*
X161342738Y-136509323D01*
X161403086Y-136518000D01*
X161403087Y-136518000D01*
X162776000Y-136518000D01*
X162830313Y-136512161D01*
X162881824Y-136500955D01*
X162908198Y-136493719D01*
X162937074Y-136477275D01*
X162994818Y-136444394D01*
X162994820Y-136444392D01*
X162994828Y-136444388D01*
X162999007Y-136440766D01*
X163062559Y-136411736D01*
X163131718Y-136421673D01*
X163152713Y-136436249D01*
X163153759Y-136434811D01*
X163161653Y-136440545D01*
X163161658Y-136440550D01*
X163254715Y-136487965D01*
X163274698Y-136498147D01*
X163368475Y-136512999D01*
X163368481Y-136513000D01*
X163731518Y-136512999D01*
X163825304Y-136498146D01*
X163938342Y-136440550D01*
X164028050Y-136350842D01*
X164085646Y-136237804D01*
X164085646Y-136237802D01*
X164085647Y-136237801D01*
X164096282Y-136170647D01*
X164100500Y-136144019D01*
X164100499Y-135306057D01*
X171704000Y-135292689D01*
X171704000Y-140590500D01*
X171684315Y-140657539D01*
X171631511Y-140703294D01*
X171580000Y-140714500D01*
X166493997Y-140714500D01*
X166439687Y-140720338D01*
X166388181Y-140731543D01*
X166388172Y-140731546D01*
X166361807Y-140738779D01*
X166361796Y-140738783D01*
X166275181Y-140788105D01*
X166275173Y-140788111D01*
X166222371Y-140833863D01*
X166190743Y-140866640D01*
X166144534Y-140954977D01*
X166144533Y-140954977D01*
X166124851Y-141022009D01*
X166124848Y-141022021D01*
X166114500Y-141093998D01*
X166114500Y-150975500D01*
X166094815Y-151042539D01*
X166042011Y-151088294D01*
X165990500Y-151099500D01*
X157624500Y-151099500D01*
X157557461Y-151079815D01*
X157511706Y-151027011D01*
X157500500Y-150975500D01*
X157500500Y-147600000D01*
X158695065Y-147600000D01*
X158714784Y-147900852D01*
X158714786Y-147900864D01*
X158773602Y-148196553D01*
X158773607Y-148196573D01*
X158870514Y-148482052D01*
X158870518Y-148482062D01*
X159003868Y-148752469D01*
X159171371Y-149003155D01*
X159171374Y-149003159D01*
X159204973Y-149041470D01*
X159204974Y-149041470D01*
X159705747Y-148540697D01*
X159779588Y-148642330D01*
X159957670Y-148820412D01*
X160059301Y-148894251D01*
X159558528Y-149395024D01*
X159558528Y-149395025D01*
X159596840Y-149428625D01*
X159596844Y-149428628D01*
X159847530Y-149596131D01*
X160117937Y-149729481D01*
X160117947Y-149729485D01*
X160403426Y-149826392D01*
X160403446Y-149826397D01*
X160699135Y-149885213D01*
X160699147Y-149885215D01*
X161000000Y-149904934D01*
X161300852Y-149885215D01*
X161300864Y-149885213D01*
X161596553Y-149826397D01*
X161596573Y-149826392D01*
X161882052Y-149729485D01*
X161882062Y-149729481D01*
X162152469Y-149596131D01*
X162403157Y-149428627D01*
X162441470Y-149395025D01*
X162441470Y-149395023D01*
X161940698Y-148894251D01*
X162042330Y-148820412D01*
X162220412Y-148642330D01*
X162294251Y-148540698D01*
X162795023Y-149041470D01*
X162795025Y-149041470D01*
X162828627Y-149003157D01*
X162996131Y-148752469D01*
X163129481Y-148482062D01*
X163129485Y-148482052D01*
X163226392Y-148196573D01*
X163226397Y-148196553D01*
X163285213Y-147900864D01*
X163285215Y-147900852D01*
X163304934Y-147600000D01*
X163285215Y-147299147D01*
X163285213Y-147299135D01*
X163226397Y-147003446D01*
X163226393Y-147003431D01*
X163129483Y-146717944D01*
X163129474Y-146717923D01*
X162996129Y-146447528D01*
X162828633Y-146196851D01*
X162828625Y-146196840D01*
X162795025Y-146158528D01*
X162795024Y-146158528D01*
X162294251Y-146659301D01*
X162220412Y-146557670D01*
X162042330Y-146379588D01*
X161940697Y-146305747D01*
X162441470Y-145804974D01*
X162441470Y-145804973D01*
X162403159Y-145771374D01*
X162403155Y-145771371D01*
X162152469Y-145603868D01*
X161882062Y-145470518D01*
X161882052Y-145470514D01*
X161596573Y-145373607D01*
X161596553Y-145373602D01*
X161300864Y-145314786D01*
X161300852Y-145314784D01*
X161000000Y-145295065D01*
X160699147Y-145314784D01*
X160699135Y-145314786D01*
X160403446Y-145373602D01*
X160403431Y-145373606D01*
X160117944Y-145470516D01*
X160117923Y-145470525D01*
X159847528Y-145603870D01*
X159596844Y-145771370D01*
X159596837Y-145771376D01*
X159558528Y-145804972D01*
X159558527Y-145804974D01*
X160059301Y-146305748D01*
X159957670Y-146379588D01*
X159779588Y-146557670D01*
X159705748Y-146659301D01*
X159204974Y-146158527D01*
X159204972Y-146158528D01*
X159171376Y-146196837D01*
X159171370Y-146196844D01*
X159003870Y-146447528D01*
X158870525Y-146717923D01*
X158870516Y-146717944D01*
X158773606Y-147003431D01*
X158773602Y-147003446D01*
X158714786Y-147299135D01*
X158714784Y-147299147D01*
X158695065Y-147600000D01*
X157500500Y-147600000D01*
X157500500Y-137713998D01*
X158240500Y-137713998D01*
X158240500Y-139418317D01*
X158241047Y-139435046D01*
X158242109Y-139451254D01*
X158243746Y-139467866D01*
X158245846Y-139483816D01*
X158245847Y-139516180D01*
X158243744Y-139532155D01*
X158242109Y-139548745D01*
X158241047Y-139564952D01*
X158241047Y-139564955D01*
X158240500Y-139581668D01*
X158240500Y-141582512D01*
X158241348Y-141598358D01*
X158241962Y-141609808D01*
X158241963Y-141609822D01*
X158244086Y-141629568D01*
X158244248Y-141632592D01*
X158244795Y-141636173D01*
X158274583Y-141731310D01*
X158274584Y-141731313D01*
X158308067Y-141792634D01*
X158308068Y-141792637D01*
X158319630Y-141809941D01*
X158333372Y-141830508D01*
X158354394Y-141848077D01*
X158409862Y-141894434D01*
X158409870Y-141894440D01*
X158471181Y-141927919D01*
X158471184Y-141927920D01*
X158471189Y-141927923D01*
X158512952Y-141946102D01*
X158611865Y-141958527D01*
X158664163Y-141954786D01*
X158681547Y-141953544D01*
X158681550Y-141953543D01*
X158681557Y-141953543D01*
X158726514Y-141946259D01*
X158816444Y-141903235D01*
X158872378Y-141861365D01*
X158923803Y-141809941D01*
X158939294Y-141789246D01*
X158964242Y-141764296D01*
X158992109Y-141743435D01*
X159023075Y-141726527D01*
X159059834Y-141712817D01*
X159103164Y-141705000D01*
X160096834Y-141705000D01*
X160140167Y-141712818D01*
X160176917Y-141726525D01*
X160207896Y-141743441D01*
X160235750Y-141764293D01*
X160260704Y-141789247D01*
X160281556Y-141817101D01*
X160298471Y-141848077D01*
X160312180Y-141884830D01*
X160319999Y-141928165D01*
X160319999Y-142115994D01*
X160320000Y-142116008D01*
X160325839Y-142170313D01*
X160325840Y-142170317D01*
X160337046Y-142221826D01*
X160337049Y-142221838D01*
X160344280Y-142248198D01*
X160393608Y-142334822D01*
X160393610Y-142334825D01*
X160393612Y-142334828D01*
X160403694Y-142346463D01*
X160439363Y-142387628D01*
X160439366Y-142387631D01*
X160439367Y-142387632D01*
X160472141Y-142419257D01*
X160560476Y-142465465D01*
X160560477Y-142465465D01*
X160560477Y-142465466D01*
X160605944Y-142478816D01*
X160627515Y-142485150D01*
X160627519Y-142485150D01*
X160627521Y-142485151D01*
X160639152Y-142486823D01*
X160699500Y-142495500D01*
X160699501Y-142495500D01*
X161398541Y-142495500D01*
X161465580Y-142515185D01*
X161511335Y-142567989D01*
X161521279Y-142637147D01*
X161497808Y-142693811D01*
X161478373Y-142719771D01*
X161430587Y-142847889D01*
X161424500Y-142904498D01*
X161424500Y-143495481D01*
X161424501Y-143495490D01*
X161430587Y-143552114D01*
X161478372Y-143680226D01*
X161560313Y-143789687D01*
X161669774Y-143871628D01*
X161797886Y-143919412D01*
X161854515Y-143925500D01*
X162395484Y-143925499D01*
X162452114Y-143919412D01*
X162580226Y-143871628D01*
X162689687Y-143789687D01*
X162771628Y-143680226D01*
X162783819Y-143647538D01*
X162825687Y-143591609D01*
X162891150Y-143567191D01*
X162959424Y-143582042D01*
X163008830Y-143631446D01*
X163016180Y-143647539D01*
X163028372Y-143680227D01*
X163028373Y-143680228D01*
X163110313Y-143789687D01*
X163219774Y-143871628D01*
X163347886Y-143919412D01*
X163404515Y-143925500D01*
X163945484Y-143925499D01*
X164002114Y-143919412D01*
X164130226Y-143871628D01*
X164239687Y-143789687D01*
X164321628Y-143680226D01*
X164369412Y-143552114D01*
X164371687Y-143530944D01*
X164375499Y-143495501D01*
X164375499Y-143495490D01*
X164375500Y-143495485D01*
X164375499Y-143152608D01*
X164395183Y-143085570D01*
X164411813Y-143064933D01*
X164815485Y-142661263D01*
X164871503Y-142564237D01*
X164900500Y-142456018D01*
X164900500Y-142343981D01*
X164900500Y-138743982D01*
X164871503Y-138635763D01*
X164815485Y-138538737D01*
X164736263Y-138459515D01*
X164136818Y-137860070D01*
X164103333Y-137798747D01*
X164100499Y-137772389D01*
X164100499Y-137330982D01*
X164095592Y-137299998D01*
X164085646Y-137237196D01*
X164028050Y-137124158D01*
X164028046Y-137124154D01*
X164028045Y-137124152D01*
X163938347Y-137034454D01*
X163938344Y-137034452D01*
X163938342Y-137034450D01*
X163861517Y-136995305D01*
X163825301Y-136976852D01*
X163731524Y-136962000D01*
X163368482Y-136962000D01*
X163274695Y-136976854D01*
X163190082Y-137019966D01*
X163121412Y-137032862D01*
X163076312Y-137019356D01*
X163014523Y-136987034D01*
X163014522Y-136987033D01*
X162947490Y-136967351D01*
X162947478Y-136967348D01*
X162875501Y-136957000D01*
X162875500Y-136957000D01*
X162324499Y-136957000D01*
X162270186Y-136962839D01*
X162218687Y-136974042D01*
X162218671Y-136974046D01*
X162192302Y-136981280D01*
X162192299Y-136981281D01*
X162105669Y-137030613D01*
X162105662Y-137030618D01*
X162052876Y-137076357D01*
X162052871Y-137076363D01*
X162021242Y-137109140D01*
X161975034Y-137197475D01*
X161955348Y-137264511D01*
X161944999Y-137336498D01*
X161944999Y-138389152D01*
X161943471Y-138408559D01*
X161942692Y-138413475D01*
X161930707Y-138450359D01*
X161927589Y-138456479D01*
X161908537Y-138483466D01*
X161908764Y-138483670D01*
X161889376Y-138505254D01*
X161889345Y-138505291D01*
X161889107Y-138505587D01*
X161889075Y-138505609D01*
X161888306Y-138506513D01*
X161888272Y-138506484D01*
X161888268Y-138506489D01*
X161888091Y-138506330D01*
X161888066Y-138506308D01*
X161831698Y-138545411D01*
X161761871Y-138547874D01*
X161757656Y-138546716D01*
X161744489Y-138542850D01*
X161744473Y-138542846D01*
X161672499Y-138532499D01*
X161498348Y-138532499D01*
X161478956Y-138530973D01*
X161474036Y-138530194D01*
X161437126Y-138518201D01*
X161431197Y-138515180D01*
X161399819Y-138492380D01*
X161395118Y-138487679D01*
X161372318Y-138456301D01*
X161369296Y-138450370D01*
X161357302Y-138413446D01*
X161356522Y-138408515D01*
X161355000Y-138389146D01*
X161355000Y-137714000D01*
X161349161Y-137659687D01*
X161337955Y-137608176D01*
X161330719Y-137581802D01*
X161326832Y-137574976D01*
X161281394Y-137495181D01*
X161281390Y-137495176D01*
X161281388Y-137495172D01*
X161245597Y-137453867D01*
X161235636Y-137442371D01*
X161202859Y-137410743D01*
X161114522Y-137364534D01*
X161114522Y-137364533D01*
X161047490Y-137344851D01*
X161047478Y-137344848D01*
X160975501Y-137334500D01*
X160975500Y-137334500D01*
X160349881Y-137334500D01*
X160304517Y-137338559D01*
X160261184Y-137346377D01*
X160261179Y-137346378D01*
X160261175Y-137346379D01*
X160217264Y-137358425D01*
X160159794Y-137379860D01*
X160140165Y-137387181D01*
X160096834Y-137394999D01*
X159103166Y-137394999D01*
X159059834Y-137387181D01*
X159037793Y-137378960D01*
X158982735Y-137358425D01*
X158938824Y-137346379D01*
X158938821Y-137346378D01*
X158938816Y-137346377D01*
X158895483Y-137338559D01*
X158850119Y-137334500D01*
X158620000Y-137334500D01*
X158619997Y-137334500D01*
X158565687Y-137340338D01*
X158514181Y-137351543D01*
X158514172Y-137351546D01*
X158487807Y-137358779D01*
X158487796Y-137358783D01*
X158401181Y-137408105D01*
X158401173Y-137408111D01*
X158348371Y-137453863D01*
X158316743Y-137486640D01*
X158270534Y-137574977D01*
X158270533Y-137574977D01*
X158250851Y-137642009D01*
X158250848Y-137642021D01*
X158240500Y-137713998D01*
X157500500Y-137713998D01*
X157500500Y-128688330D01*
X158405500Y-128688330D01*
X158405500Y-129196869D01*
X158408353Y-129227299D01*
X158408353Y-129227301D01*
X158451187Y-129349709D01*
X158453207Y-129355482D01*
X158533850Y-129464750D01*
X158574986Y-129495109D01*
X158617237Y-129550755D01*
X158625353Y-129594879D01*
X158625353Y-129599999D01*
X158645834Y-129742456D01*
X158645835Y-129742457D01*
X158668090Y-129791189D01*
X158678033Y-129860347D01*
X158659463Y-129905624D01*
X158660748Y-129906303D01*
X158656409Y-129914512D01*
X158611553Y-130042703D01*
X158608700Y-130073130D01*
X158608700Y-130581669D01*
X158611553Y-130612099D01*
X158611553Y-130612101D01*
X158656406Y-130740280D01*
X158656407Y-130740282D01*
X158737050Y-130849550D01*
X158846318Y-130930193D01*
X158889045Y-130945144D01*
X158974499Y-130975046D01*
X159004930Y-130977900D01*
X159004934Y-130977900D01*
X159663470Y-130977900D01*
X159693899Y-130975046D01*
X159693901Y-130975046D01*
X159757990Y-130952619D01*
X159822082Y-130930193D01*
X159931350Y-130849550D01*
X160011993Y-130740282D01*
X160034419Y-130676190D01*
X160056846Y-130612101D01*
X160056846Y-130612099D01*
X160059700Y-130581669D01*
X160059700Y-130073130D01*
X160056846Y-130042700D01*
X160056846Y-130042698D01*
X160011993Y-129914519D01*
X160011992Y-129914517D01*
X159931350Y-129805250D01*
X159822082Y-129724607D01*
X159740962Y-129696221D01*
X159684186Y-129655498D01*
X159658440Y-129590545D01*
X159671897Y-129521984D01*
X159708283Y-129479411D01*
X159728150Y-129464750D01*
X159808793Y-129355482D01*
X159832143Y-129288752D01*
X159853646Y-129227301D01*
X159853646Y-129227299D01*
X159856500Y-129196869D01*
X159856500Y-128688330D01*
X159853646Y-128657900D01*
X159853646Y-128657898D01*
X159819284Y-128559699D01*
X159808793Y-128529718D01*
X159728150Y-128420450D01*
X159618882Y-128339807D01*
X159618880Y-128339806D01*
X159490700Y-128294953D01*
X159460270Y-128292100D01*
X159460266Y-128292100D01*
X158801734Y-128292100D01*
X158801730Y-128292100D01*
X158771300Y-128294953D01*
X158771298Y-128294953D01*
X158643119Y-128339806D01*
X158643117Y-128339807D01*
X158533850Y-128420450D01*
X158453207Y-128529717D01*
X158453206Y-128529719D01*
X158408353Y-128657898D01*
X158408353Y-128657900D01*
X158405500Y-128688330D01*
X157500500Y-128688330D01*
X157500500Y-124517590D01*
X157520185Y-124450551D01*
X157572989Y-124404796D01*
X157622843Y-124393601D01*
X158518849Y-124381664D01*
X158586144Y-124400454D01*
G37*
%TD.AperFunction*%
%TD*%
%TA.AperFunction,Conductor*%
%TO.N,GNDPWR*%
G36*
X176799677Y-142259685D02*
G01*
X176820319Y-142276319D01*
X177255681Y-142711681D01*
X177289166Y-142773004D01*
X177292000Y-142799362D01*
X177292000Y-146050000D01*
X178946000Y-146050000D01*
X179013039Y-146069685D01*
X179058794Y-146122489D01*
X179070000Y-146174000D01*
X179070000Y-148466000D01*
X179050315Y-148533039D01*
X178997511Y-148578794D01*
X178946000Y-148590000D01*
X174114000Y-148590000D01*
X174046961Y-148570315D01*
X174001206Y-148517511D01*
X173990000Y-148466000D01*
X173990000Y-142364000D01*
X174009685Y-142296961D01*
X174062489Y-142251206D01*
X174114000Y-142240000D01*
X176732638Y-142240000D01*
X176799677Y-142259685D01*
G37*
%TD.AperFunction*%
%TD*%
%TA.AperFunction,Conductor*%
%TO.N,/OUT3*%
G36*
X204943039Y-114519685D02*
G01*
X204988794Y-114572489D01*
X205000000Y-114624000D01*
X205000000Y-119606000D01*
X204980315Y-119673039D01*
X204927511Y-119718794D01*
X204876000Y-119730000D01*
X189150000Y-119730000D01*
X189150000Y-120258446D01*
X189130315Y-120325485D01*
X189077511Y-120371240D01*
X189008353Y-120381184D01*
X188958961Y-120362762D01*
X188883527Y-120314284D01*
X188745440Y-120273739D01*
X188745438Y-120273739D01*
X188601516Y-120273739D01*
X188601513Y-120273739D01*
X188463426Y-120314284D01*
X188361378Y-120379866D01*
X188294338Y-120399550D01*
X188227299Y-120379865D01*
X188200628Y-120356755D01*
X188197130Y-120352719D01*
X188188585Y-120342857D01*
X188067510Y-120265047D01*
X188067508Y-120265046D01*
X188067506Y-120265045D01*
X188067507Y-120265045D01*
X187929420Y-120224500D01*
X187929418Y-120224500D01*
X187785496Y-120224500D01*
X187785493Y-120224500D01*
X187647406Y-120265045D01*
X187526329Y-120342857D01*
X187526326Y-120342859D01*
X187464902Y-120413746D01*
X187406124Y-120451520D01*
X187336256Y-120451520D01*
X187233936Y-120421477D01*
X187233933Y-120421477D01*
X187090011Y-120421477D01*
X187090008Y-120421477D01*
X186951921Y-120462022D01*
X186830845Y-120539833D01*
X186736595Y-120648603D01*
X186736594Y-120648605D01*
X186676806Y-120779520D01*
X186656325Y-120921977D01*
X186676806Y-121064433D01*
X186683645Y-121079408D01*
X186736595Y-121195350D01*
X186804213Y-121273386D01*
X186833238Y-121336941D01*
X186834500Y-121354588D01*
X186834500Y-121696736D01*
X186822882Y-121749141D01*
X186815742Y-121764452D01*
X186815740Y-121764458D01*
X186809500Y-121811860D01*
X186809500Y-123288132D01*
X186809501Y-123288138D01*
X186815741Y-123335545D01*
X186815742Y-123335548D01*
X186815743Y-123335551D01*
X186847731Y-123404150D01*
X186858223Y-123473227D01*
X186829703Y-123537011D01*
X186771226Y-123575250D01*
X186736919Y-123580544D01*
X185325570Y-123598410D01*
X185258286Y-123579576D01*
X185211867Y-123527355D01*
X185200000Y-123474420D01*
X185200000Y-118173207D01*
X185219685Y-118106168D01*
X185272489Y-118060413D01*
X185323203Y-118049210D01*
X187173326Y-118037350D01*
X187240485Y-118056603D01*
X187268403Y-118080812D01*
X187296404Y-118113596D01*
X187492756Y-118281297D01*
X187712925Y-118416216D01*
X187712927Y-118416216D01*
X187712929Y-118416218D01*
X187787312Y-118447028D01*
X187951490Y-118515033D01*
X188202576Y-118575313D01*
X188460000Y-118595573D01*
X188717424Y-118575313D01*
X188968510Y-118515033D01*
X189207075Y-118416216D01*
X189427244Y-118281297D01*
X189623596Y-118113596D01*
X189665751Y-118064238D01*
X189724255Y-118026046D01*
X189759237Y-118020774D01*
X193000000Y-118000000D01*
X193000000Y-116500000D01*
X195524016Y-116500000D01*
X196980384Y-116500000D01*
X196964185Y-116528058D01*
X196925000Y-116674300D01*
X196925000Y-116825700D01*
X196964185Y-116971942D01*
X196980384Y-117000000D01*
X195524016Y-117000000D01*
X195530781Y-117042716D01*
X195591581Y-117229837D01*
X195680904Y-117405143D01*
X195796555Y-117564321D01*
X195935678Y-117703444D01*
X196094856Y-117819095D01*
X196270164Y-117908418D01*
X196457294Y-117969221D01*
X196651618Y-118000000D01*
X197250000Y-118000000D01*
X197250000Y-117269615D01*
X197278058Y-117285815D01*
X197424300Y-117325000D01*
X197575700Y-117325000D01*
X197721942Y-117285815D01*
X197750000Y-117269615D01*
X197750000Y-118000000D01*
X198348382Y-118000000D01*
X198542705Y-117969221D01*
X198729835Y-117908418D01*
X198905143Y-117819095D01*
X199064321Y-117703444D01*
X199203444Y-117564321D01*
X199319095Y-117405143D01*
X199408418Y-117229837D01*
X199469218Y-117042716D01*
X199475984Y-117000000D01*
X198019616Y-117000000D01*
X198035815Y-116971942D01*
X198075000Y-116825700D01*
X198075000Y-116674300D01*
X198035815Y-116528058D01*
X198019616Y-116500000D01*
X199475984Y-116500000D01*
X200524016Y-116500000D01*
X201980384Y-116500000D01*
X201964185Y-116528058D01*
X201925000Y-116674300D01*
X201925000Y-116825700D01*
X201964185Y-116971942D01*
X201980384Y-117000000D01*
X200524016Y-117000000D01*
X200530781Y-117042716D01*
X200591581Y-117229837D01*
X200680904Y-117405143D01*
X200796555Y-117564321D01*
X200935678Y-117703444D01*
X201094856Y-117819095D01*
X201270164Y-117908418D01*
X201457294Y-117969221D01*
X201651618Y-118000000D01*
X202250000Y-118000000D01*
X202250000Y-117269615D01*
X202278058Y-117285815D01*
X202424300Y-117325000D01*
X202575700Y-117325000D01*
X202721942Y-117285815D01*
X202750000Y-117269615D01*
X202750000Y-118000000D01*
X203348382Y-118000000D01*
X203542705Y-117969221D01*
X203729835Y-117908418D01*
X203905143Y-117819095D01*
X204064321Y-117703444D01*
X204203444Y-117564321D01*
X204319095Y-117405143D01*
X204408418Y-117229837D01*
X204469218Y-117042716D01*
X204475984Y-117000000D01*
X203019616Y-117000000D01*
X203035815Y-116971942D01*
X203075000Y-116825700D01*
X203075000Y-116674300D01*
X203035815Y-116528058D01*
X203019616Y-116500000D01*
X204475984Y-116500000D01*
X204469218Y-116457283D01*
X204408418Y-116270162D01*
X204319095Y-116094856D01*
X204203444Y-115935678D01*
X204064321Y-115796555D01*
X203905143Y-115680904D01*
X203729835Y-115591581D01*
X203542705Y-115530778D01*
X203348382Y-115500000D01*
X202750000Y-115500000D01*
X202750000Y-116230384D01*
X202721942Y-116214185D01*
X202575700Y-116175000D01*
X202424300Y-116175000D01*
X202278058Y-116214185D01*
X202250000Y-116230384D01*
X202250000Y-115500000D01*
X201651618Y-115500000D01*
X201457294Y-115530778D01*
X201270164Y-115591581D01*
X201094856Y-115680904D01*
X200935678Y-115796555D01*
X200796555Y-115935678D01*
X200680904Y-116094856D01*
X200591581Y-116270162D01*
X200530781Y-116457283D01*
X200524016Y-116500000D01*
X199475984Y-116500000D01*
X199469218Y-116457283D01*
X199408418Y-116270162D01*
X199319095Y-116094856D01*
X199203444Y-115935678D01*
X199064321Y-115796555D01*
X198905143Y-115680904D01*
X198729835Y-115591581D01*
X198542705Y-115530778D01*
X198348382Y-115500000D01*
X197750000Y-115500000D01*
X197750000Y-116230384D01*
X197721942Y-116214185D01*
X197575700Y-116175000D01*
X197424300Y-116175000D01*
X197278058Y-116214185D01*
X197250000Y-116230384D01*
X197250000Y-115500000D01*
X196651618Y-115500000D01*
X196457294Y-115530778D01*
X196270164Y-115591581D01*
X196094856Y-115680904D01*
X195935678Y-115796555D01*
X195796555Y-115935678D01*
X195680904Y-116094856D01*
X195591581Y-116270162D01*
X195530781Y-116457283D01*
X195524016Y-116500000D01*
X193000000Y-116500000D01*
X193000000Y-114624000D01*
X193019685Y-114556961D01*
X193072489Y-114511206D01*
X193124000Y-114500000D01*
X204876000Y-114500000D01*
X204943039Y-114519685D01*
G37*
%TD.AperFunction*%
%TD*%
%TA.AperFunction,Conductor*%
%TO.N,GNDA*%
G36*
X165201197Y-119289685D02*
G01*
X165227873Y-119312800D01*
X165242362Y-119329522D01*
X165243872Y-119331264D01*
X165364947Y-119409074D01*
X165364950Y-119409075D01*
X165364949Y-119409075D01*
X165503036Y-119449620D01*
X165503038Y-119449621D01*
X165503039Y-119449621D01*
X165646962Y-119449621D01*
X165646962Y-119449620D01*
X165785053Y-119409074D01*
X165906128Y-119331264D01*
X165922127Y-119312800D01*
X165980904Y-119275024D01*
X166015842Y-119270000D01*
X166547789Y-119270000D01*
X166571980Y-119272383D01*
X166631480Y-119284218D01*
X166676175Y-119302730D01*
X166716272Y-119329522D01*
X166750477Y-119363727D01*
X166777267Y-119403822D01*
X166795781Y-119448517D01*
X166796001Y-119449621D01*
X166807617Y-119508022D01*
X166810000Y-119532210D01*
X166810000Y-120207789D01*
X166807617Y-120231982D01*
X166795781Y-120291482D01*
X166777267Y-120336179D01*
X166750481Y-120376268D01*
X166716269Y-120410479D01*
X166681975Y-120433394D01*
X166676179Y-120437267D01*
X166631482Y-120455781D01*
X166597857Y-120462469D01*
X166571978Y-120467617D01*
X166547789Y-120470000D01*
X165235388Y-120470000D01*
X165173452Y-120451813D01*
X165173010Y-120452623D01*
X165169288Y-120450590D01*
X165168349Y-120450315D01*
X165166748Y-120449204D01*
X165165230Y-120448375D01*
X165165226Y-120448372D01*
X165037114Y-120400588D01*
X165037112Y-120400587D01*
X165037110Y-120400587D01*
X164980493Y-120394500D01*
X164439518Y-120394500D01*
X164439509Y-120394501D01*
X164382885Y-120400587D01*
X164284547Y-120437267D01*
X164254774Y-120448372D01*
X164254771Y-120448373D01*
X164254771Y-120448374D01*
X164235787Y-120462585D01*
X164219166Y-120470000D01*
X164010000Y-120470000D01*
X164010628Y-120720622D01*
X164010628Y-120720628D01*
X164010839Y-120805102D01*
X164010129Y-120818661D01*
X164009500Y-120824505D01*
X164009500Y-121238101D01*
X163989815Y-121305140D01*
X163973181Y-121325782D01*
X163909526Y-121389436D01*
X163860091Y-121475059D01*
X163860091Y-121475060D01*
X163860090Y-121475062D01*
X163834500Y-121570565D01*
X163834500Y-121570567D01*
X163834500Y-123919435D01*
X163839859Y-123939433D01*
X163839860Y-123939437D01*
X163860090Y-124014939D01*
X163860091Y-124014940D01*
X163902561Y-124088500D01*
X163919034Y-124156400D01*
X163896181Y-124222427D01*
X163841260Y-124265618D01*
X163795174Y-124274500D01*
X163430730Y-124274500D01*
X163400300Y-124277353D01*
X163400298Y-124277353D01*
X163272119Y-124322206D01*
X163272117Y-124322207D01*
X163162850Y-124402850D01*
X163082207Y-124512117D01*
X163082206Y-124512119D01*
X163037353Y-124640298D01*
X163037353Y-124640300D01*
X163034500Y-124670730D01*
X163034500Y-125068101D01*
X163014815Y-125135140D01*
X162998181Y-125155782D01*
X162825282Y-125328681D01*
X162763959Y-125362166D01*
X162737601Y-125365000D01*
X161573119Y-125365000D01*
X161549008Y-125362633D01*
X161512350Y-125355366D01*
X161489689Y-125350874D01*
X161445116Y-125332479D01*
X161405102Y-125305857D01*
X161370912Y-125271847D01*
X161344080Y-125231973D01*
X161325451Y-125187496D01*
X161313380Y-125128238D01*
X161310887Y-125104139D01*
X161308449Y-124640298D01*
X161304349Y-123860104D01*
X161305640Y-123841614D01*
X161310500Y-123808260D01*
X161310500Y-123291740D01*
X161302266Y-123235233D01*
X161300975Y-123218034D01*
X161300552Y-123137530D01*
X161319883Y-123070392D01*
X161363150Y-123032500D01*
X161405000Y-123032500D01*
X161405710Y-122498058D01*
X161415147Y-122450776D01*
X161445045Y-122378598D01*
X161451007Y-122333314D01*
X161479274Y-122269417D01*
X161537599Y-122230947D01*
X161573946Y-122225500D01*
X161643261Y-122225500D01*
X161665971Y-122222191D01*
X161711393Y-122215573D01*
X161816483Y-122164198D01*
X161899198Y-122081483D01*
X161950573Y-121976393D01*
X161960500Y-121908260D01*
X161960500Y-121391740D01*
X161950573Y-121323607D01*
X161948097Y-121318543D01*
X161935500Y-121264087D01*
X161935500Y-121092610D01*
X161955185Y-121025571D01*
X161971819Y-121004929D01*
X162336974Y-120639774D01*
X162740485Y-120236263D01*
X162796503Y-120139237D01*
X162825500Y-120031018D01*
X162825500Y-119918982D01*
X162825500Y-119473999D01*
X162845185Y-119406960D01*
X162851125Y-119398512D01*
X162912511Y-119318513D01*
X162968939Y-119277311D01*
X163010886Y-119270000D01*
X165134158Y-119270000D01*
X165201197Y-119289685D01*
G37*
%TD.AperFunction*%
%TD*%
%TA.AperFunction,Conductor*%
%TO.N,GNDPWR*%
G36*
X172353039Y-128145185D02*
G01*
X172398794Y-128197989D01*
X172410000Y-128249500D01*
X172410000Y-132270000D01*
X172737810Y-132270000D01*
X172804849Y-132289685D01*
X172850604Y-132342489D01*
X172861099Y-132407256D01*
X172859500Y-132422119D01*
X172859500Y-133817870D01*
X172859501Y-133817876D01*
X172865908Y-133877483D01*
X172916202Y-134012328D01*
X172916206Y-134012335D01*
X173002452Y-134127544D01*
X173002455Y-134127547D01*
X173117664Y-134213793D01*
X173117671Y-134213797D01*
X173152068Y-134226626D01*
X173252517Y-134264091D01*
X173312127Y-134270500D01*
X174057872Y-134270499D01*
X174117483Y-134264091D01*
X174252331Y-134213796D01*
X174367546Y-134127546D01*
X174453796Y-134012331D01*
X174504091Y-133877483D01*
X174510500Y-133817873D01*
X174510499Y-132422128D01*
X174508900Y-132407253D01*
X174521306Y-132338495D01*
X174568917Y-132287358D01*
X174632190Y-132270000D01*
X177487810Y-132270000D01*
X177554849Y-132289685D01*
X177600604Y-132342489D01*
X177611099Y-132407256D01*
X177609500Y-132422119D01*
X177609500Y-133817870D01*
X177609501Y-133817876D01*
X177615908Y-133877483D01*
X177666202Y-134012328D01*
X177666206Y-134012335D01*
X177752452Y-134127544D01*
X177752455Y-134127547D01*
X177867664Y-134213793D01*
X177867671Y-134213797D01*
X177902068Y-134226626D01*
X178002517Y-134264091D01*
X178062127Y-134270500D01*
X178807872Y-134270499D01*
X178867483Y-134264091D01*
X179002331Y-134213796D01*
X179117546Y-134127546D01*
X179203796Y-134012331D01*
X179254091Y-133877483D01*
X179260500Y-133817873D01*
X179260499Y-132422128D01*
X179258900Y-132407253D01*
X179271306Y-132338495D01*
X179318917Y-132287358D01*
X179382190Y-132270000D01*
X182237810Y-132270000D01*
X182304849Y-132289685D01*
X182350604Y-132342489D01*
X182361099Y-132407256D01*
X182359500Y-132422119D01*
X182359500Y-133817870D01*
X182359501Y-133817876D01*
X182365908Y-133877483D01*
X182416202Y-134012328D01*
X182416206Y-134012335D01*
X182502452Y-134127544D01*
X182502455Y-134127547D01*
X182617664Y-134213793D01*
X182617667Y-134213795D01*
X182617668Y-134213795D01*
X182617669Y-134213796D01*
X182670530Y-134233512D01*
X182726462Y-134275381D01*
X182750880Y-134340845D01*
X182736029Y-134409118D01*
X182714877Y-134437374D01*
X182406293Y-134745957D01*
X182344970Y-134779442D01*
X182334798Y-134781215D01*
X182233931Y-134794494D01*
X182215238Y-134796956D01*
X182215237Y-134796956D01*
X182069160Y-134857463D01*
X181943718Y-134953718D01*
X181847463Y-135079160D01*
X181797991Y-135198597D01*
X181754150Y-135253000D01*
X181687856Y-135275065D01*
X181683648Y-135275143D01*
X173018465Y-135290377D01*
X171953559Y-135292250D01*
X171953555Y-135292250D01*
X164100499Y-135306057D01*
X164100499Y-135055982D01*
X164085646Y-134962196D01*
X164035568Y-134863913D01*
X164022673Y-134795248D01*
X164033258Y-134756114D01*
X164085165Y-134642457D01*
X164105647Y-134500000D01*
X164085165Y-134357543D01*
X164025377Y-134226627D01*
X163931128Y-134117857D01*
X163810053Y-134040047D01*
X163810051Y-134040046D01*
X163810049Y-134040045D01*
X163810050Y-134040045D01*
X163671963Y-133999500D01*
X163671961Y-133999500D01*
X163528039Y-133999500D01*
X163528036Y-133999500D01*
X163389949Y-134040045D01*
X163268873Y-134117856D01*
X163268872Y-134117856D01*
X163268872Y-134117857D01*
X163260476Y-134127547D01*
X163174623Y-134226626D01*
X163174622Y-134226628D01*
X163114834Y-134357544D01*
X163112335Y-134366056D01*
X163111087Y-134365689D01*
X163085814Y-134421018D01*
X163027032Y-134458786D01*
X162957163Y-134458780D01*
X162898388Y-134421000D01*
X162884838Y-134402007D01*
X162879471Y-134392752D01*
X162687903Y-134062378D01*
X162581848Y-133879478D01*
X162570000Y-133835748D01*
X162570000Y-130914665D01*
X162639057Y-130940422D01*
X162702516Y-130964091D01*
X162718933Y-130965856D01*
X162762127Y-130970500D01*
X162779477Y-130970499D01*
X162796449Y-130971752D01*
X162796456Y-130971699D01*
X162797545Y-130971833D01*
X162797690Y-130971844D01*
X162797973Y-130971886D01*
X162822164Y-130974269D01*
X162847211Y-130975500D01*
X164377377Y-130975500D01*
X164444416Y-130995185D01*
X164490171Y-131047989D01*
X164501373Y-131100516D01*
X164492760Y-132151296D01*
X164481638Y-133508198D01*
X164481616Y-133510826D01*
X164482611Y-133535518D01*
X164482613Y-133535562D01*
X164484738Y-133559436D01*
X164484739Y-133559448D01*
X164488119Y-133583923D01*
X164488124Y-133583956D01*
X164494243Y-133616540D01*
X164494245Y-133616545D01*
X164499182Y-133642840D01*
X164499185Y-133642850D01*
X164512973Y-133690340D01*
X164512979Y-133690357D01*
X164530665Y-133734701D01*
X164530669Y-133734709D01*
X164530671Y-133734714D01*
X164553352Y-133778662D01*
X164553355Y-133778667D01*
X164579190Y-133818677D01*
X164579193Y-133818682D01*
X164592722Y-133835748D01*
X164609914Y-133857435D01*
X164643075Y-133891824D01*
X164643080Y-133891828D01*
X164680678Y-133923927D01*
X164680682Y-133923929D01*
X164680686Y-133923933D01*
X164702095Y-133938887D01*
X164719733Y-133951208D01*
X164719735Y-133951209D01*
X164719738Y-133951211D01*
X164762828Y-133975472D01*
X164806532Y-133994773D01*
X164806540Y-133994775D01*
X164806546Y-133994778D01*
X164853471Y-134010273D01*
X164853475Y-134010274D01*
X164853493Y-134010280D01*
X164911944Y-134023474D01*
X164936326Y-134027749D01*
X164936350Y-134027752D01*
X164936363Y-134027754D01*
X164954484Y-134030032D01*
X164960137Y-134030743D01*
X164984819Y-134032638D01*
X166233341Y-134067807D01*
X166258855Y-134067250D01*
X166283533Y-134065476D01*
X166308870Y-134062377D01*
X166334098Y-134058002D01*
X166334097Y-134058001D01*
X166355800Y-134054237D01*
X166369676Y-134051832D01*
X166369676Y-134051831D01*
X166372715Y-134051305D01*
X166372739Y-134051300D01*
X166389121Y-134048459D01*
X166397461Y-134044093D01*
X166418783Y-134038155D01*
X166464660Y-134020279D01*
X166510081Y-133997121D01*
X166551324Y-133970602D01*
X166591243Y-133938887D01*
X166626548Y-133904563D01*
X166659375Y-133865554D01*
X166687045Y-133825075D01*
X166711471Y-133780327D01*
X166730634Y-133734970D01*
X166745692Y-133686261D01*
X166757946Y-133625769D01*
X166761758Y-133600528D01*
X166764226Y-133575909D01*
X166765049Y-133559441D01*
X166765499Y-133550453D01*
X166765500Y-133550415D01*
X166765500Y-129869188D01*
X166785185Y-129802149D01*
X166837989Y-129756394D01*
X166879205Y-129745616D01*
X166885130Y-129745123D01*
X166909023Y-129741992D01*
X166932013Y-129737868D01*
X166955509Y-129732498D01*
X166988598Y-129723274D01*
X166988603Y-129723273D01*
X167011757Y-129716818D01*
X167056712Y-129699575D01*
X167098390Y-129678894D01*
X167139313Y-129653523D01*
X167139322Y-129653517D01*
X167176289Y-129625452D01*
X167176301Y-129625443D01*
X167211739Y-129592844D01*
X167242862Y-129558256D01*
X167271553Y-129519588D01*
X167295587Y-129479853D01*
X167295592Y-129479840D01*
X167295599Y-129479830D01*
X167316501Y-129436515D01*
X167316501Y-129436513D01*
X167316513Y-129436490D01*
X167332697Y-129392867D01*
X167345117Y-129346345D01*
X167354795Y-129288764D01*
X167357665Y-129264827D01*
X167359349Y-129241519D01*
X167359950Y-129217431D01*
X167359173Y-129182471D01*
X167356969Y-129083279D01*
X167375159Y-129015819D01*
X167426933Y-128968902D01*
X167495854Y-128957424D01*
X167560038Y-128985030D01*
X167599110Y-129042954D01*
X167599599Y-129044531D01*
X167613162Y-129089247D01*
X167631674Y-129133941D01*
X167631675Y-129133943D01*
X167655283Y-129178111D01*
X167655294Y-129178129D01*
X167682083Y-129218222D01*
X167697624Y-129237159D01*
X167713856Y-129256938D01*
X167713860Y-129256942D01*
X167748055Y-129291138D01*
X167748060Y-129291142D01*
X167748061Y-129291143D01*
X167786781Y-129322919D01*
X167786790Y-129322925D01*
X167786794Y-129322928D01*
X167826869Y-129349705D01*
X167826874Y-129349707D01*
X167826876Y-129349709D01*
X167871045Y-129373318D01*
X167894994Y-129383238D01*
X167915738Y-129391831D01*
X167915740Y-129391831D01*
X167915741Y-129391832D01*
X167963670Y-129406371D01*
X168008341Y-129415257D01*
X168008345Y-129415258D01*
X168023176Y-129418208D01*
X168023180Y-129418208D01*
X168023198Y-129418212D01*
X168047972Y-129421886D01*
X168051354Y-129422219D01*
X168072164Y-129424269D01*
X168097211Y-129425500D01*
X168097224Y-129425500D01*
X169841057Y-129425500D01*
X169856597Y-129424716D01*
X169866699Y-129424208D01*
X169866701Y-129424208D01*
X169866702Y-129424207D01*
X169866719Y-129424207D01*
X169891503Y-129421704D01*
X169916901Y-129417841D01*
X169941224Y-129412879D01*
X169941228Y-129412878D01*
X169977783Y-129405420D01*
X170026794Y-129390158D01*
X170072403Y-129370740D01*
X170117371Y-129345991D01*
X170168519Y-129310717D01*
X170188920Y-129295077D01*
X170207905Y-129278943D01*
X170226623Y-129261340D01*
X171009104Y-128447560D01*
X171282186Y-128163555D01*
X171342841Y-128128874D01*
X171371569Y-128125500D01*
X172286000Y-128125500D01*
X172353039Y-128145185D01*
G37*
%TD.AperFunction*%
%TA.AperFunction,Conductor*%
G36*
X168927750Y-127995671D02*
G01*
X168924032Y-127995000D01*
X168933987Y-127995000D01*
X168927750Y-127995671D01*
G37*
%TD.AperFunction*%
%TA.AperFunction,Conductor*%
G36*
X168805000Y-126495000D02*
G01*
X169335000Y-126495000D01*
X169335000Y-126745000D01*
X168805000Y-126745000D01*
X168805000Y-126995000D01*
X169335000Y-126995000D01*
X169335000Y-127245000D01*
X168805000Y-127245000D01*
X168805000Y-127495000D01*
X169335000Y-127495000D01*
X169335000Y-127745000D01*
X168805000Y-127745000D01*
X168805000Y-127925238D01*
X168790500Y-127872381D01*
X168790500Y-126369500D01*
X168805000Y-126320118D01*
X168805000Y-126495000D01*
G37*
%TD.AperFunction*%
%TA.AperFunction,Conductor*%
G36*
X169885069Y-127737066D02*
G01*
X169885146Y-127741437D01*
X169885146Y-127748591D01*
X169885067Y-127753015D01*
X169885000Y-127754891D01*
X169885000Y-127735109D01*
X169885069Y-127737066D01*
G37*
%TD.AperFunction*%
%TA.AperFunction,Conductor*%
G36*
X169885069Y-127112066D02*
G01*
X169885146Y-127116437D01*
X169885146Y-127123591D01*
X169885067Y-127128015D01*
X169885000Y-127129891D01*
X169885000Y-127110109D01*
X169885069Y-127112066D01*
G37*
%TD.AperFunction*%
%TA.AperFunction,Conductor*%
G36*
X169885069Y-126487066D02*
G01*
X169885146Y-126491437D01*
X169885146Y-126498591D01*
X169885067Y-126503015D01*
X169885000Y-126504891D01*
X169885000Y-126485109D01*
X169885069Y-126487066D01*
G37*
%TD.AperFunction*%
%TD*%
M02*
