M48
; DRILL file {KiCad 8.0.3} date 2024-06-13T00:54:25+0200
; FORMAT={-:-/ absolute / inch / decimal}
; #@! TF.CreationDate,2024-06-13T00:54:25+02:00
; #@! TF.GenerationSoftware,Kicad,Pcbnew,8.0.3
; #@! TF.FileFunction,Plated,1,4,PTH
FMAT,2
INCH
; #@! TA.AperFunction,Plated,PTH,ViaDrill
T1C0.0118
; #@! TA.AperFunction,Plated,PTH,ComponentDrill
T2C0.0118
; #@! TA.AperFunction,Plated,PTH,ViaDrill
T3C0.0157
; #@! TA.AperFunction,Plated,PTH,ComponentDrill
T4C0.0256
; #@! TA.AperFunction,Plated,PTH,ComponentDrill
T5C0.0374
; #@! TA.AperFunction,Plated,PTH,ComponentDrill
T6C0.0453
; #@! TA.AperFunction,Plated,PTH,ComponentDrill
T7C0.0630
; #@! TA.AperFunction,Plated,PTH,ComponentDrill
T8C0.0701
; #@! TA.AperFunction,Plated,PTH,ComponentDrill
T9C0.1260
%
G90
G05
T1
X6.236Y-4.734
X6.2606Y-4.7642
X6.265Y-5.1024
X6.3386Y-4.5433
X6.3586Y-4.5236
X6.374Y-4.3386
X6.4208Y-4.3976
X6.4374Y-5.1839
X6.4409Y-5.2953
X6.4646Y-4.3976
X6.4925Y-5.0854
X6.5039Y-4.5512
X6.5042Y-4.6033
X6.5079Y-4.6535
X6.514Y-4.45
X6.5157Y-4.3622
X6.5187Y-4.683
X6.5197Y-4.5748
X6.5236Y-4.5236
X6.5236Y-4.626
X6.5319Y-5.0854
X6.538Y-4.474
X6.5437Y-4.9437
X6.5437Y-4.9673
X6.5437Y-4.9909
X6.5437Y-5.0146
X6.5437Y-5.0382
X6.5476Y-4.8374
X6.5673Y-4.9437
X6.5673Y-4.9673
X6.5673Y-4.9909
X6.5673Y-5.0146
X6.5673Y-5.0382
X6.5673Y-5.0844
X6.587Y-5.1327
X6.587Y-5.2311
X6.6185Y-4.9437
X6.6185Y-4.9673
X6.6185Y-4.9909
X6.6185Y-5.0146
X6.6185Y-5.0382
X6.6417Y-4.5472
X6.6427Y-4.6326
X6.646Y-4.6032
X6.6497Y-4.4959
X6.6514Y-4.6608
X6.6785Y-4.9801
X6.6785Y-5.0047
X6.6785Y-5.0293
X6.6894Y-5.113
X6.6894Y-5.1563
X6.7327Y-5.113
X6.7327Y-5.1563
X6.7406Y-5.0776
X6.776Y-5.0697
X6.776Y-5.113
X6.776Y-5.1563
X6.776Y-5.239
X6.868Y-4.54
X6.965Y-5.239
X7.094Y-4.8672
X7.0945Y-4.9016
X7.15Y-5.239
X7.1742Y-4.7717
X7.3071Y-5.1732
X7.3494Y-5.0887
X7.3686Y-4.7607
X7.396Y-4.753
X7.3971Y-5.0974
X7.4173Y-5.3031
X7.4281Y-4.7549
X7.4528Y-5.2047
X7.4546Y-5.097
X7.4572Y-4.7586
X7.4772Y-5.0807
X7.4786Y-4.7777
X7.5118Y-5.2047
X7.5394Y-5.3031
T2
X7.3488Y-4.9045
X7.3488Y-4.9518
X7.3961Y-4.9045
X7.3961Y-4.9518
X7.4433Y-4.9045
X7.4433Y-4.9518
X7.4906Y-4.9045
X7.4906Y-4.9518
T3
X6.2165Y-5.4921
X6.2365Y-4.9623
X6.2402Y-4.6807
X6.2835Y-5.3583
X6.2835Y-5.6339
X6.3126Y-4.7075
X6.3228Y-5.5236
X6.3268Y-5.4646
X6.3331Y-4.8119
X6.335Y-5.255
X6.35Y-5.3
X6.3675Y-4.4423
X6.38Y-5.1
X6.3937Y-4.685
X6.3937Y-4.8858
X6.4819Y-4.9835
X6.4961Y-4.3268
X6.565Y-4.212
X6.565Y-4.259
X6.74Y-4.332
X6.74Y-4.373
X6.7463Y-4.5348
X6.759Y-4.607
X6.82Y-4.606
X6.8287Y-4.5445
X6.88Y-5.64
X6.88Y-5.72
X6.88Y-5.8
X6.96Y-5.74
X7.0197Y-4.3346
X7.0827Y-4.3346
X7.18Y-5.33
X7.4253Y-5.1132
T4
X6.3Y-4.4539
X6.3Y-4.5039
X6.3Y-4.5539
X6.3Y-4.6039
T5
X6.7244Y-4.1614
X6.8228Y-4.1614
X6.9213Y-4.1614
X7.0197Y-4.1614
T6
X7.7756Y-4.2028
X7.7756Y-4.3996
X7.7756Y-4.5965
X7.7756Y-4.7933
X7.7756Y-4.9902
X7.7756Y-5.187
X7.7756Y-5.4823
X7.7756Y-5.7776
X7.9724Y-4.2028
X7.9724Y-4.3996
X7.9724Y-4.5965
X7.9724Y-4.7933
X7.9724Y-4.9902
X7.9724Y-5.187
X7.9724Y-5.4823
X7.9724Y-5.7776
T7
X7.2677Y-4.189
X7.4055Y-4.189
T8
X7.0291Y-4.4705
X7.0291Y-4.6043
X7.039Y-5.4055
X7.039Y-5.5394
X7.4197Y-4.4705
X7.4197Y-4.6043
X7.4295Y-5.4055
X7.4295Y-5.5394
T9
X6.3386Y-4.1575
X6.3386Y-5.811
X7.4016Y-5.811
M30
