%TF.GenerationSoftware,KiCad,Pcbnew,8.0.3*%
%TF.CreationDate,2024-06-13T00:54:22+02:00*%
%TF.ProjectId,pwm-ctrl,70776d2d-6374-4726-9c2e-6b696361645f,1*%
%TF.SameCoordinates,Original*%
%TF.FileFunction,Copper,L2,Inr*%
%TF.FilePolarity,Positive*%
%FSLAX46Y46*%
G04 Gerber Fmt 4.6, Leading zero omitted, Abs format (unit mm)*
G04 Created by KiCad (PCBNEW 8.0.3) date 2024-06-13 00:54:22*
%MOMM*%
%LPD*%
G01*
G04 APERTURE LIST*
G04 Aperture macros list*
%AMRoundRect*
0 Rectangle with rounded corners*
0 $1 Rounding radius*
0 $2 $3 $4 $5 $6 $7 $8 $9 X,Y pos of 4 corners*
0 Add a 4 corners polygon primitive as box body*
4,1,4,$2,$3,$4,$5,$6,$7,$8,$9,$2,$3,0*
0 Add four circle primitives for the rounded corners*
1,1,$1+$1,$2,$3*
1,1,$1+$1,$4,$5*
1,1,$1+$1,$6,$7*
1,1,$1+$1,$8,$9*
0 Add four rect primitives between the rounded corners*
20,1,$1+$1,$2,$3,$4,$5,0*
20,1,$1+$1,$4,$5,$6,$7,0*
20,1,$1+$1,$6,$7,$8,$9,0*
20,1,$1+$1,$8,$9,$2,$3,0*%
G04 Aperture macros list end*
%TA.AperFunction,ComponentPad*%
%ADD10C,3.600000*%
%TD*%
%TA.AperFunction,ComponentPad*%
%ADD11RoundRect,0.250000X0.600000X0.725000X-0.600000X0.725000X-0.600000X-0.725000X0.600000X-0.725000X0*%
%TD*%
%TA.AperFunction,ComponentPad*%
%ADD12O,1.700000X1.950000*%
%TD*%
%TA.AperFunction,ComponentPad*%
%ADD13C,2.780000*%
%TD*%
%TA.AperFunction,ComponentPad*%
%ADD14R,3.000000X1.500000*%
%TD*%
%TA.AperFunction,ComponentPad*%
%ADD15O,3.000000X1.500000*%
%TD*%
%TA.AperFunction,ComponentPad*%
%ADD16R,1.000000X1.000000*%
%TD*%
%TA.AperFunction,ComponentPad*%
%ADD17O,1.000000X1.000000*%
%TD*%
%TA.AperFunction,HeatsinkPad*%
%ADD18C,0.600000*%
%TD*%
%TA.AperFunction,ComponentPad*%
%ADD19RoundRect,0.250000X-0.750000X-1.050000X0.750000X-1.050000X0.750000X1.050000X-0.750000X1.050000X0*%
%TD*%
%TA.AperFunction,ComponentPad*%
%ADD20O,2.000000X2.600000*%
%TD*%
%TA.AperFunction,ViaPad*%
%ADD21C,0.700000*%
%TD*%
%TA.AperFunction,ViaPad*%
%ADD22C,0.500000*%
%TD*%
%TA.AperFunction,ViaPad*%
%ADD23C,0.800000*%
%TD*%
%TA.AperFunction,Conductor*%
%ADD24C,1.000000*%
%TD*%
%TA.AperFunction,Conductor*%
%ADD25C,0.250000*%
%TD*%
G04 APERTURE END LIST*
D10*
%TO.N,GNDPWR*%
%TO.C,H1*%
X161000000Y-105600000D03*
%TD*%
D11*
%TO.N,Net-(J1-Pin_1)*%
%TO.C,J1*%
X178300000Y-105700000D03*
D12*
%TO.N,GNDPWR*%
X175800000Y-105700000D03*
%TO.N,/SCL*%
X173300000Y-105700000D03*
%TO.N,/SDA*%
X170800000Y-105700000D03*
%TD*%
D13*
%TO.N,VBAT*%
%TO.C,F3*%
X188710000Y-140700000D03*
X188710000Y-137300000D03*
%TO.N,VBAT_Fused*%
X178790000Y-140700000D03*
X178790000Y-137300000D03*
%TD*%
D14*
%TO.N,/OUT0*%
%TO.C,J4*%
X197500000Y-131750000D03*
X202500000Y-131750000D03*
D15*
%TO.N,/OUT1*%
X197500000Y-126750000D03*
X202500000Y-126750000D03*
%TO.N,/OUT2*%
X197500000Y-121750000D03*
X202500000Y-121750000D03*
%TO.N,/OUT3*%
X197500000Y-116750000D03*
X202500000Y-116750000D03*
%TO.N,GNDPWR*%
X197500000Y-111750000D03*
X202500000Y-111750000D03*
%TO.N,VH_Fused*%
X197500000Y-106750000D03*
X202500000Y-106750000D03*
%TD*%
D14*
%TO.N,GNDPWR*%
%TO.C,J5*%
X197500000Y-146750000D03*
X202500000Y-146750000D03*
D15*
%TO.N,VBAT*%
X197500000Y-139250000D03*
X202500000Y-139250000D03*
%TD*%
D16*
%TO.N,GNDPWR*%
%TO.C,J3*%
X160020000Y-113130000D03*
D17*
%TO.N,/~{RST}*%
X160020000Y-114400000D03*
%TO.N,/SWCLK*%
X160020000Y-115670000D03*
%TO.N,/SWDIO*%
X160020000Y-116940000D03*
%TD*%
D10*
%TO.N,GNDPWR*%
%TO.C,H3*%
X188000000Y-147600000D03*
%TD*%
D18*
%TO.N,VH*%
%TO.C,U5*%
X186660000Y-125775000D03*
X187860000Y-125775000D03*
X189060000Y-125775000D03*
X190260000Y-125775000D03*
X186660000Y-124575000D03*
X187860000Y-124575000D03*
X189060000Y-124575000D03*
X190260000Y-124575000D03*
%TD*%
D10*
%TO.N,GNDPWR*%
%TO.C,H2*%
X161000000Y-147600000D03*
%TD*%
D19*
%TO.N,/CAN+*%
%TO.C,J2*%
X184600000Y-106400000D03*
D20*
%TO.N,/CAN-*%
X188100000Y-106400000D03*
%TD*%
D13*
%TO.N,VH*%
%TO.C,F2*%
X178540000Y-113550000D03*
X178540000Y-116950000D03*
%TO.N,VH_Fused*%
X188460000Y-113550000D03*
X188460000Y-116950000D03*
%TD*%
D21*
%TO.N,GNDA*%
X164639881Y-126581438D03*
X162400000Y-124100000D03*
%TO.N,GNDPWR*%
X158406000Y-126043247D03*
X188601702Y-129875000D03*
X176784000Y-145796000D03*
D22*
X181610000Y-133070000D03*
D21*
X174752000Y-143256000D03*
D22*
X169635000Y-126495000D03*
X172110000Y-130970000D03*
X167310000Y-130370000D03*
X169910000Y-129870000D03*
D21*
X159600000Y-143100000D03*
D22*
X171010000Y-130970000D03*
X169635000Y-127120000D03*
X172110000Y-129870000D03*
X163510000Y-131670000D03*
X169910000Y-130970000D03*
X171010000Y-129870000D03*
D23*
X179900000Y-110100000D03*
D22*
X158395000Y-120244458D03*
X172110000Y-128770000D03*
D21*
X159600000Y-136100000D03*
X171678600Y-117017800D03*
D22*
X176910000Y-133070000D03*
X191500000Y-134700000D03*
X169635000Y-127745000D03*
D21*
X160860001Y-122221836D03*
D22*
X172110000Y-133070000D03*
D21*
X157900000Y-139500000D03*
X174752000Y-147320000D03*
D23*
X178300000Y-110100000D03*
D21*
X161734761Y-112834761D03*
X160340000Y-119570000D03*
X174752000Y-145288000D03*
X165000000Y-109900000D03*
D22*
X167310000Y-132870000D03*
X171210000Y-128970000D03*
%TO.N,/LX*%
X168110000Y-126770000D03*
X168110000Y-127970000D03*
X168110000Y-125570000D03*
X168110000Y-126170000D03*
X168110000Y-127370000D03*
D21*
%TO.N,VH*%
X162052000Y-129540000D03*
X182372000Y-135382000D03*
D22*
%TO.N,/EN*%
X165700000Y-114900000D03*
X159020000Y-121010000D03*
%TO.N,/SWDIO*%
X166065200Y-113639600D03*
%TO.N,/CH2*%
X189921312Y-129050000D03*
X165600000Y-116200000D03*
%TO.N,/SCL*%
X164200000Y-111700000D03*
X161508000Y-114900000D03*
%TO.N,/CH4*%
X180200000Y-124500000D03*
X165700000Y-117500000D03*
X182225000Y-121200000D03*
X187857457Y-120725000D03*
%TO.N,/CH1*%
X165200000Y-115600000D03*
X187885215Y-129474514D03*
%TO.N,/SDA*%
X161000000Y-115400000D03*
X163087500Y-111700000D03*
%TO.N,/CAN_RX*%
X168902760Y-114195753D03*
X174447200Y-115316000D03*
%TO.N,/SWCLK*%
X165455600Y-113030000D03*
%TO.N,/CH3*%
X165207933Y-116925000D03*
X189957572Y-121352781D03*
X180188057Y-123628059D03*
%TO.N,VDD*%
X163600000Y-134500000D03*
D21*
X162400000Y-119000000D03*
X160700000Y-138800000D03*
D22*
X161900000Y-110200000D03*
D21*
X158500000Y-118890000D03*
X171196000Y-111074200D03*
X160600000Y-140300000D03*
X166751000Y-106984800D03*
D22*
X188400000Y-134700000D03*
D21*
X171356430Y-115185057D03*
X173448161Y-115429794D03*
X173228000Y-116992400D03*
X166751000Y-108178600D03*
X171196000Y-110032800D03*
D22*
%TO.N,Net-(U5-SEn)*%
X186675000Y-129252208D03*
X189300000Y-132200000D03*
%TO.N,/BATT_VOLTAGE*%
X168700000Y-115500000D03*
X159131000Y-129600000D03*
X165500000Y-110800000D03*
X165575000Y-118949121D03*
%TO.N,/SEL0*%
X189412195Y-120868645D03*
X168945209Y-118384400D03*
%TO.N,/SENSE*%
X185600000Y-131400000D03*
X165300000Y-118200000D03*
%TO.N,/SEL1*%
X187161972Y-120921977D03*
X168725000Y-117667454D03*
%TO.N,VBAT_Fused*%
X166810000Y-127370000D03*
X166810000Y-125570000D03*
X166810002Y-129145000D03*
D21*
X161290000Y-134620000D03*
D22*
X166210000Y-126770000D03*
X164910000Y-129170000D03*
X166210000Y-126170000D03*
X166810000Y-127970000D03*
X166210000Y-127370000D03*
X166210000Y-125570000D03*
X166310000Y-122870000D03*
D21*
X160909000Y-133476998D03*
D22*
X166810000Y-126170000D03*
X166810000Y-126770000D03*
X166210000Y-127970000D03*
X165910000Y-129170000D03*
%TO.N,Net-(U5-CS)*%
X188673477Y-120774239D03*
X190800000Y-132200000D03*
%TO.N,/FRST*%
X189346312Y-129465049D03*
X168808749Y-116922142D03*
%TD*%
D24*
%TO.N,GNDA*%
X162400000Y-124100000D02*
X162400000Y-124341557D01*
X162400000Y-124341557D02*
X164639881Y-126581438D01*
D25*
%TO.N,/CH4*%
X182225000Y-122475000D02*
X182225000Y-121200000D01*
X180200000Y-124500000D02*
X182225000Y-122475000D01*
%TO.N,/CH3*%
X180371941Y-123628059D02*
X181600000Y-122400000D01*
X186950761Y-120149239D02*
X189649239Y-120149239D01*
X190300000Y-120800000D02*
X190300000Y-121100000D01*
X181800000Y-120600000D02*
X186500000Y-120600000D01*
X181600000Y-120800000D02*
X181800000Y-120600000D01*
X180188057Y-123628059D02*
X180371941Y-123628059D01*
X190047219Y-121352781D02*
X189957572Y-121352781D01*
X189649239Y-120149239D02*
X190300000Y-120800000D01*
X181600000Y-122400000D02*
X181600000Y-120800000D01*
X186500000Y-120600000D02*
X186950761Y-120149239D01*
X190300000Y-121100000D02*
X190047219Y-121352781D01*
%TD*%
%TA.AperFunction,Conductor*%
%TO.N,GNDPWR*%
G36*
X206442539Y-102120185D02*
G01*
X206488294Y-102172989D01*
X206499500Y-102224500D01*
X206499500Y-150975500D01*
X206479815Y-151042539D01*
X206427011Y-151088294D01*
X206375500Y-151099500D01*
X157624500Y-151099500D01*
X157557461Y-151079815D01*
X157511706Y-151027011D01*
X157500500Y-150975500D01*
X157500500Y-147600000D01*
X158695065Y-147600000D01*
X158714784Y-147900852D01*
X158714786Y-147900864D01*
X158773602Y-148196553D01*
X158773607Y-148196573D01*
X158870514Y-148482052D01*
X158870518Y-148482062D01*
X159003868Y-148752469D01*
X159171371Y-149003155D01*
X159171374Y-149003159D01*
X159204973Y-149041470D01*
X159204974Y-149041470D01*
X159705747Y-148540697D01*
X159779588Y-148642330D01*
X159957670Y-148820412D01*
X160059301Y-148894251D01*
X159558528Y-149395024D01*
X159558528Y-149395025D01*
X159596840Y-149428625D01*
X159596844Y-149428628D01*
X159847530Y-149596131D01*
X160117937Y-149729481D01*
X160117947Y-149729485D01*
X160403426Y-149826392D01*
X160403446Y-149826397D01*
X160699135Y-149885213D01*
X160699147Y-149885215D01*
X161000000Y-149904934D01*
X161300852Y-149885215D01*
X161300864Y-149885213D01*
X161596553Y-149826397D01*
X161596573Y-149826392D01*
X161882052Y-149729485D01*
X161882062Y-149729481D01*
X162152469Y-149596131D01*
X162403157Y-149428627D01*
X162441470Y-149395025D01*
X162441470Y-149395023D01*
X161940698Y-148894251D01*
X162042330Y-148820412D01*
X162220412Y-148642330D01*
X162294251Y-148540698D01*
X162795023Y-149041470D01*
X162795025Y-149041470D01*
X162828627Y-149003157D01*
X162996131Y-148752469D01*
X163129481Y-148482062D01*
X163129485Y-148482052D01*
X163226392Y-148196573D01*
X163226397Y-148196553D01*
X163285213Y-147900864D01*
X163285215Y-147900852D01*
X163304934Y-147600000D01*
X185695065Y-147600000D01*
X185714784Y-147900852D01*
X185714786Y-147900864D01*
X185773602Y-148196553D01*
X185773607Y-148196573D01*
X185870514Y-148482052D01*
X185870518Y-148482062D01*
X186003868Y-148752469D01*
X186171371Y-149003155D01*
X186171374Y-149003159D01*
X186204973Y-149041470D01*
X186204974Y-149041470D01*
X186705747Y-148540697D01*
X186779588Y-148642330D01*
X186957670Y-148820412D01*
X187059301Y-148894251D01*
X186558528Y-149395024D01*
X186558528Y-149395025D01*
X186596840Y-149428625D01*
X186596844Y-149428628D01*
X186847530Y-149596131D01*
X187117937Y-149729481D01*
X187117947Y-149729485D01*
X187403426Y-149826392D01*
X187403446Y-149826397D01*
X187699135Y-149885213D01*
X187699147Y-149885215D01*
X188000000Y-149904934D01*
X188300852Y-149885215D01*
X188300864Y-149885213D01*
X188596553Y-149826397D01*
X188596573Y-149826392D01*
X188882052Y-149729485D01*
X188882062Y-149729481D01*
X189152469Y-149596131D01*
X189403157Y-149428627D01*
X189441470Y-149395025D01*
X189441470Y-149395023D01*
X188940698Y-148894251D01*
X189042330Y-148820412D01*
X189220412Y-148642330D01*
X189294251Y-148540698D01*
X189795023Y-149041470D01*
X189795025Y-149041470D01*
X189828627Y-149003157D01*
X189996131Y-148752469D01*
X190129481Y-148482062D01*
X190129485Y-148482052D01*
X190226392Y-148196573D01*
X190226397Y-148196553D01*
X190285213Y-147900864D01*
X190285215Y-147900852D01*
X190304934Y-147600000D01*
X190285215Y-147299147D01*
X190285213Y-147299135D01*
X190226397Y-147003446D01*
X190226393Y-147003431D01*
X190129483Y-146717944D01*
X190129474Y-146717923D01*
X189996129Y-146447528D01*
X189828633Y-146196851D01*
X189828625Y-146196840D01*
X189795025Y-146158528D01*
X189795024Y-146158528D01*
X189294251Y-146659300D01*
X189220412Y-146557670D01*
X189042330Y-146379588D01*
X188940697Y-146305747D01*
X189294289Y-145952155D01*
X195500000Y-145952155D01*
X195500000Y-146500000D01*
X196980384Y-146500000D01*
X196964185Y-146528058D01*
X196925000Y-146674300D01*
X196925000Y-146825700D01*
X196964185Y-146971942D01*
X196980384Y-147000000D01*
X195500000Y-147000000D01*
X195500000Y-147547844D01*
X195506401Y-147607372D01*
X195506403Y-147607379D01*
X195556645Y-147742086D01*
X195556649Y-147742093D01*
X195642809Y-147857187D01*
X195642812Y-147857190D01*
X195757906Y-147943350D01*
X195757913Y-147943354D01*
X195892620Y-147993596D01*
X195892627Y-147993598D01*
X195952155Y-147999999D01*
X195952172Y-148000000D01*
X197250000Y-148000000D01*
X197250000Y-147269615D01*
X197278058Y-147285815D01*
X197424300Y-147325000D01*
X197575700Y-147325000D01*
X197721942Y-147285815D01*
X197750000Y-147269615D01*
X197750000Y-148000000D01*
X199047828Y-148000000D01*
X199047844Y-147999999D01*
X199107372Y-147993598D01*
X199107379Y-147993596D01*
X199242086Y-147943354D01*
X199242093Y-147943350D01*
X199357187Y-147857190D01*
X199357190Y-147857187D01*
X199443350Y-147742093D01*
X199443354Y-147742086D01*
X199493596Y-147607379D01*
X199493598Y-147607372D01*
X199499999Y-147547844D01*
X199500000Y-147547827D01*
X199500000Y-147000000D01*
X198019616Y-147000000D01*
X198035815Y-146971942D01*
X198075000Y-146825700D01*
X198075000Y-146674300D01*
X198035815Y-146528058D01*
X198019616Y-146500000D01*
X199500000Y-146500000D01*
X199500000Y-145952172D01*
X199499999Y-145952155D01*
X200500000Y-145952155D01*
X200500000Y-146500000D01*
X201980384Y-146500000D01*
X201964185Y-146528058D01*
X201925000Y-146674300D01*
X201925000Y-146825700D01*
X201964185Y-146971942D01*
X201980384Y-147000000D01*
X200500000Y-147000000D01*
X200500000Y-147547844D01*
X200506401Y-147607372D01*
X200506403Y-147607379D01*
X200556645Y-147742086D01*
X200556649Y-147742093D01*
X200642809Y-147857187D01*
X200642812Y-147857190D01*
X200757906Y-147943350D01*
X200757913Y-147943354D01*
X200892620Y-147993596D01*
X200892627Y-147993598D01*
X200952155Y-147999999D01*
X200952172Y-148000000D01*
X202250000Y-148000000D01*
X202250000Y-147269615D01*
X202278058Y-147285815D01*
X202424300Y-147325000D01*
X202575700Y-147325000D01*
X202721942Y-147285815D01*
X202750000Y-147269615D01*
X202750000Y-148000000D01*
X204047828Y-148000000D01*
X204047844Y-147999999D01*
X204107372Y-147993598D01*
X204107379Y-147993596D01*
X204242086Y-147943354D01*
X204242093Y-147943350D01*
X204357187Y-147857190D01*
X204357190Y-147857187D01*
X204443350Y-147742093D01*
X204443354Y-147742086D01*
X204493596Y-147607379D01*
X204493598Y-147607372D01*
X204499999Y-147547844D01*
X204500000Y-147547827D01*
X204500000Y-147000000D01*
X203019616Y-147000000D01*
X203035815Y-146971942D01*
X203075000Y-146825700D01*
X203075000Y-146674300D01*
X203035815Y-146528058D01*
X203019616Y-146500000D01*
X204500000Y-146500000D01*
X204500000Y-145952172D01*
X204499999Y-145952155D01*
X204493598Y-145892627D01*
X204493596Y-145892620D01*
X204443354Y-145757913D01*
X204443350Y-145757906D01*
X204357190Y-145642812D01*
X204357187Y-145642809D01*
X204242093Y-145556649D01*
X204242086Y-145556645D01*
X204107379Y-145506403D01*
X204107372Y-145506401D01*
X204047844Y-145500000D01*
X202750000Y-145500000D01*
X202750000Y-146230384D01*
X202721942Y-146214185D01*
X202575700Y-146175000D01*
X202424300Y-146175000D01*
X202278058Y-146214185D01*
X202250000Y-146230384D01*
X202250000Y-145500000D01*
X200952155Y-145500000D01*
X200892627Y-145506401D01*
X200892620Y-145506403D01*
X200757913Y-145556645D01*
X200757906Y-145556649D01*
X200642812Y-145642809D01*
X200642809Y-145642812D01*
X200556649Y-145757906D01*
X200556645Y-145757913D01*
X200506403Y-145892620D01*
X200506401Y-145892627D01*
X200500000Y-145952155D01*
X199499999Y-145952155D01*
X199493598Y-145892627D01*
X199493596Y-145892620D01*
X199443354Y-145757913D01*
X199443350Y-145757906D01*
X199357190Y-145642812D01*
X199357187Y-145642809D01*
X199242093Y-145556649D01*
X199242086Y-145556645D01*
X199107379Y-145506403D01*
X199107372Y-145506401D01*
X199047844Y-145500000D01*
X197750000Y-145500000D01*
X197750000Y-146230384D01*
X197721942Y-146214185D01*
X197575700Y-146175000D01*
X197424300Y-146175000D01*
X197278058Y-146214185D01*
X197250000Y-146230384D01*
X197250000Y-145500000D01*
X195952155Y-145500000D01*
X195892627Y-145506401D01*
X195892620Y-145506403D01*
X195757913Y-145556645D01*
X195757906Y-145556649D01*
X195642812Y-145642809D01*
X195642809Y-145642812D01*
X195556649Y-145757906D01*
X195556645Y-145757913D01*
X195506403Y-145892620D01*
X195506401Y-145892627D01*
X195500000Y-145952155D01*
X189294289Y-145952155D01*
X189441470Y-145804974D01*
X189441470Y-145804973D01*
X189403159Y-145771374D01*
X189403155Y-145771371D01*
X189152469Y-145603868D01*
X188882062Y-145470518D01*
X188882052Y-145470514D01*
X188596573Y-145373607D01*
X188596553Y-145373602D01*
X188300864Y-145314786D01*
X188300852Y-145314784D01*
X188000000Y-145295065D01*
X187699147Y-145314784D01*
X187699135Y-145314786D01*
X187403446Y-145373602D01*
X187403431Y-145373606D01*
X187117944Y-145470516D01*
X187117923Y-145470525D01*
X186847528Y-145603870D01*
X186596844Y-145771370D01*
X186596837Y-145771376D01*
X186558528Y-145804972D01*
X186558527Y-145804974D01*
X187059301Y-146305748D01*
X186957670Y-146379588D01*
X186779588Y-146557670D01*
X186705748Y-146659301D01*
X186204974Y-146158527D01*
X186204972Y-146158528D01*
X186171376Y-146196837D01*
X186171370Y-146196844D01*
X186003870Y-146447528D01*
X185870525Y-146717923D01*
X185870516Y-146717944D01*
X185773606Y-147003431D01*
X185773602Y-147003446D01*
X185714786Y-147299135D01*
X185714784Y-147299147D01*
X185695065Y-147600000D01*
X163304934Y-147600000D01*
X163285215Y-147299147D01*
X163285213Y-147299135D01*
X163226397Y-147003446D01*
X163226393Y-147003431D01*
X163129483Y-146717944D01*
X163129474Y-146717923D01*
X162996129Y-146447528D01*
X162828633Y-146196851D01*
X162828625Y-146196840D01*
X162795025Y-146158528D01*
X162795024Y-146158528D01*
X162294251Y-146659300D01*
X162220412Y-146557670D01*
X162042330Y-146379588D01*
X161940697Y-146305747D01*
X162441470Y-145804974D01*
X162441470Y-145804973D01*
X162403159Y-145771374D01*
X162403155Y-145771371D01*
X162152469Y-145603868D01*
X161882062Y-145470518D01*
X161882052Y-145470514D01*
X161596573Y-145373607D01*
X161596553Y-145373602D01*
X161300864Y-145314786D01*
X161300852Y-145314784D01*
X161000000Y-145295065D01*
X160699147Y-145314784D01*
X160699135Y-145314786D01*
X160403446Y-145373602D01*
X160403431Y-145373606D01*
X160117944Y-145470516D01*
X160117923Y-145470525D01*
X159847528Y-145603870D01*
X159596844Y-145771370D01*
X159596837Y-145771376D01*
X159558528Y-145804972D01*
X159558527Y-145804974D01*
X160059301Y-146305748D01*
X159957670Y-146379588D01*
X159779588Y-146557670D01*
X159705748Y-146659301D01*
X159204974Y-146158527D01*
X159204972Y-146158528D01*
X159171376Y-146196837D01*
X159171370Y-146196844D01*
X159003870Y-146447528D01*
X158870525Y-146717923D01*
X158870516Y-146717944D01*
X158773606Y-147003431D01*
X158773602Y-147003446D01*
X158714786Y-147299135D01*
X158714784Y-147299147D01*
X158695065Y-147600000D01*
X157500500Y-147600000D01*
X157500500Y-142470000D01*
X161420000Y-142470000D01*
X161420000Y-143930000D01*
X164379999Y-143930000D01*
X164380000Y-143930000D01*
X164340472Y-143056621D01*
X164357105Y-142988761D01*
X164376660Y-142963339D01*
X164846000Y-142494000D01*
X164846000Y-138684000D01*
X164120319Y-137958319D01*
X164086834Y-137896996D01*
X164084000Y-137870638D01*
X164084000Y-137300000D01*
X177144427Y-137300000D01*
X177164687Y-137557427D01*
X177224964Y-137808500D01*
X177224968Y-137808512D01*
X177323781Y-138047070D01*
X177323783Y-138047074D01*
X177323784Y-138047075D01*
X177458703Y-138267244D01*
X177626404Y-138463596D01*
X177822756Y-138631297D01*
X178042925Y-138766216D01*
X178042927Y-138766216D01*
X178042929Y-138766218D01*
X178117312Y-138797028D01*
X178281490Y-138865033D01*
X178313803Y-138872790D01*
X178341441Y-138879426D01*
X178402033Y-138914217D01*
X178434197Y-138976243D01*
X178427721Y-139045812D01*
X178384662Y-139100836D01*
X178341441Y-139120574D01*
X178281499Y-139134964D01*
X178281487Y-139134968D01*
X178042929Y-139233781D01*
X177822755Y-139368703D01*
X177626404Y-139536404D01*
X177458703Y-139732755D01*
X177323781Y-139952929D01*
X177224968Y-140191487D01*
X177224964Y-140191499D01*
X177164687Y-140442572D01*
X177144427Y-140700000D01*
X177164687Y-140957427D01*
X177224964Y-141208500D01*
X177224968Y-141208512D01*
X177323781Y-141447070D01*
X177323783Y-141447074D01*
X177323784Y-141447075D01*
X177458703Y-141667244D01*
X177626404Y-141863596D01*
X177822756Y-142031297D01*
X178042925Y-142166216D01*
X178042927Y-142166216D01*
X178042929Y-142166218D01*
X178117312Y-142197028D01*
X178281490Y-142265033D01*
X178532576Y-142325313D01*
X178790000Y-142345573D01*
X179047424Y-142325313D01*
X179298510Y-142265033D01*
X179537075Y-142166216D01*
X179757244Y-142031297D01*
X179953596Y-141863596D01*
X180121297Y-141667244D01*
X180256216Y-141447075D01*
X180355033Y-141208510D01*
X180415313Y-140957424D01*
X180435573Y-140700000D01*
X180415313Y-140442576D01*
X180355033Y-140191490D01*
X180256216Y-139952925D01*
X180121297Y-139732756D01*
X179953596Y-139536404D01*
X179757244Y-139368703D01*
X179537075Y-139233784D01*
X179537074Y-139233783D01*
X179537070Y-139233781D01*
X179298512Y-139134968D01*
X179298514Y-139134968D01*
X179298510Y-139134967D01*
X179298506Y-139134966D01*
X179298497Y-139134963D01*
X179238559Y-139120574D01*
X179177966Y-139085784D01*
X179145802Y-139023758D01*
X179152278Y-138954189D01*
X179195337Y-138899165D01*
X179238559Y-138879426D01*
X179270437Y-138871772D01*
X179298510Y-138865033D01*
X179537075Y-138766216D01*
X179757244Y-138631297D01*
X179953596Y-138463596D01*
X180121297Y-138267244D01*
X180256216Y-138047075D01*
X180355033Y-137808510D01*
X180415313Y-137557424D01*
X180435573Y-137300000D01*
X187064427Y-137300000D01*
X187084687Y-137557427D01*
X187144964Y-137808500D01*
X187144968Y-137808512D01*
X187243781Y-138047070D01*
X187243783Y-138047074D01*
X187243784Y-138047075D01*
X187378703Y-138267244D01*
X187546404Y-138463596D01*
X187742756Y-138631297D01*
X187962925Y-138766216D01*
X187962927Y-138766216D01*
X187962929Y-138766218D01*
X188037312Y-138797028D01*
X188201490Y-138865033D01*
X188233803Y-138872790D01*
X188261441Y-138879426D01*
X188322033Y-138914217D01*
X188354197Y-138976243D01*
X188347721Y-139045812D01*
X188304662Y-139100836D01*
X188261441Y-139120574D01*
X188201499Y-139134964D01*
X188201487Y-139134968D01*
X187962929Y-139233781D01*
X187742755Y-139368703D01*
X187546404Y-139536404D01*
X187378703Y-139732755D01*
X187243781Y-139952929D01*
X187144968Y-140191487D01*
X187144964Y-140191499D01*
X187084687Y-140442572D01*
X187064427Y-140700000D01*
X187084687Y-140957427D01*
X187144964Y-141208500D01*
X187144968Y-141208512D01*
X187243781Y-141447070D01*
X187243783Y-141447074D01*
X187243784Y-141447075D01*
X187378703Y-141667244D01*
X187546404Y-141863596D01*
X187742756Y-142031297D01*
X187962925Y-142166216D01*
X187962927Y-142166216D01*
X187962929Y-142166218D01*
X188037312Y-142197028D01*
X188201490Y-142265033D01*
X188452576Y-142325313D01*
X188710000Y-142345573D01*
X188967424Y-142325313D01*
X189218510Y-142265033D01*
X189457075Y-142166216D01*
X189677244Y-142031297D01*
X189873596Y-141863596D01*
X190041297Y-141667244D01*
X190176216Y-141447075D01*
X190275033Y-141208510D01*
X190335313Y-140957424D01*
X190355573Y-140700000D01*
X190335313Y-140442576D01*
X190275033Y-140191490D01*
X190176216Y-139952925D01*
X190041297Y-139732756D01*
X189873596Y-139536404D01*
X189677244Y-139368703D01*
X189644346Y-139348543D01*
X195749499Y-139348543D01*
X195787947Y-139541829D01*
X195787950Y-139541839D01*
X195863364Y-139723907D01*
X195863371Y-139723920D01*
X195972860Y-139887781D01*
X195972863Y-139887785D01*
X196112214Y-140027136D01*
X196112218Y-140027139D01*
X196276079Y-140136628D01*
X196276092Y-140136635D01*
X196458160Y-140212049D01*
X196458165Y-140212051D01*
X196458169Y-140212051D01*
X196458170Y-140212052D01*
X196651456Y-140250500D01*
X196651459Y-140250500D01*
X198348543Y-140250500D01*
X198478582Y-140224632D01*
X198541835Y-140212051D01*
X198723914Y-140136632D01*
X198887782Y-140027139D01*
X199027139Y-139887782D01*
X199136632Y-139723914D01*
X199140343Y-139714956D01*
X199212049Y-139541839D01*
X199212051Y-139541835D01*
X199243239Y-139385044D01*
X199250500Y-139348543D01*
X200749499Y-139348543D01*
X200787947Y-139541829D01*
X200787950Y-139541839D01*
X200863364Y-139723907D01*
X200863371Y-139723920D01*
X200972860Y-139887781D01*
X200972863Y-139887785D01*
X201112214Y-140027136D01*
X201112218Y-140027139D01*
X201276079Y-140136628D01*
X201276092Y-140136635D01*
X201458160Y-140212049D01*
X201458165Y-140212051D01*
X201458169Y-140212051D01*
X201458170Y-140212052D01*
X201651456Y-140250500D01*
X201651459Y-140250500D01*
X203348543Y-140250500D01*
X203478582Y-140224632D01*
X203541835Y-140212051D01*
X203723914Y-140136632D01*
X203887782Y-140027139D01*
X204027139Y-139887782D01*
X204136632Y-139723914D01*
X204140343Y-139714956D01*
X204212049Y-139541839D01*
X204212051Y-139541835D01*
X204243239Y-139385044D01*
X204250500Y-139348543D01*
X204250500Y-139151456D01*
X204212052Y-138958170D01*
X204212051Y-138958169D01*
X204212051Y-138958165D01*
X204206835Y-138945573D01*
X204136635Y-138776092D01*
X204136628Y-138776079D01*
X204027139Y-138612218D01*
X204027136Y-138612214D01*
X203887785Y-138472863D01*
X203887781Y-138472860D01*
X203723920Y-138363371D01*
X203723907Y-138363364D01*
X203541839Y-138287950D01*
X203541829Y-138287947D01*
X203348543Y-138249500D01*
X203348541Y-138249500D01*
X201651459Y-138249500D01*
X201651457Y-138249500D01*
X201458170Y-138287947D01*
X201458160Y-138287950D01*
X201276092Y-138363364D01*
X201276079Y-138363371D01*
X201112218Y-138472860D01*
X201112214Y-138472863D01*
X200972863Y-138612214D01*
X200972860Y-138612218D01*
X200863371Y-138776079D01*
X200863364Y-138776092D01*
X200787950Y-138958160D01*
X200787947Y-138958170D01*
X200749500Y-139151456D01*
X200749500Y-139151459D01*
X200749500Y-139348541D01*
X200749500Y-139348543D01*
X200749499Y-139348543D01*
X199250500Y-139348543D01*
X199250500Y-139151456D01*
X199212052Y-138958170D01*
X199212051Y-138958169D01*
X199212051Y-138958165D01*
X199206835Y-138945573D01*
X199136635Y-138776092D01*
X199136628Y-138776079D01*
X199027139Y-138612218D01*
X199027136Y-138612214D01*
X198887785Y-138472863D01*
X198887781Y-138472860D01*
X198723920Y-138363371D01*
X198723907Y-138363364D01*
X198541839Y-138287950D01*
X198541829Y-138287947D01*
X198348543Y-138249500D01*
X198348541Y-138249500D01*
X196651459Y-138249500D01*
X196651457Y-138249500D01*
X196458170Y-138287947D01*
X196458160Y-138287950D01*
X196276092Y-138363364D01*
X196276079Y-138363371D01*
X196112218Y-138472860D01*
X196112214Y-138472863D01*
X195972863Y-138612214D01*
X195972860Y-138612218D01*
X195863371Y-138776079D01*
X195863364Y-138776092D01*
X195787950Y-138958160D01*
X195787947Y-138958170D01*
X195749500Y-139151456D01*
X195749500Y-139151459D01*
X195749500Y-139348541D01*
X195749500Y-139348543D01*
X195749499Y-139348543D01*
X189644346Y-139348543D01*
X189457075Y-139233784D01*
X189457074Y-139233783D01*
X189457070Y-139233781D01*
X189218512Y-139134968D01*
X189218514Y-139134968D01*
X189218510Y-139134967D01*
X189218506Y-139134966D01*
X189218497Y-139134963D01*
X189158559Y-139120574D01*
X189097966Y-139085784D01*
X189065802Y-139023758D01*
X189072278Y-138954189D01*
X189115337Y-138899165D01*
X189158559Y-138879426D01*
X189190437Y-138871772D01*
X189218510Y-138865033D01*
X189457075Y-138766216D01*
X189677244Y-138631297D01*
X189873596Y-138463596D01*
X190041297Y-138267244D01*
X190176216Y-138047075D01*
X190275033Y-137808510D01*
X190335313Y-137557424D01*
X190355573Y-137300000D01*
X190335313Y-137042576D01*
X190275033Y-136791490D01*
X190176216Y-136552925D01*
X190041297Y-136332756D01*
X189873596Y-136136404D01*
X189677244Y-135968703D01*
X189457075Y-135833784D01*
X189457074Y-135833783D01*
X189457070Y-135833781D01*
X189218512Y-135734968D01*
X189218514Y-135734968D01*
X189218510Y-135734967D01*
X189218506Y-135734966D01*
X189218500Y-135734964D01*
X188967427Y-135674687D01*
X188710000Y-135654427D01*
X188452572Y-135674687D01*
X188201499Y-135734964D01*
X188201487Y-135734968D01*
X187962929Y-135833781D01*
X187742755Y-135968703D01*
X187546404Y-136136404D01*
X187378703Y-136332755D01*
X187243781Y-136552929D01*
X187144968Y-136791487D01*
X187144964Y-136791499D01*
X187084687Y-137042572D01*
X187064427Y-137300000D01*
X180435573Y-137300000D01*
X180415313Y-137042576D01*
X180355033Y-136791490D01*
X180256216Y-136552925D01*
X180121297Y-136332756D01*
X179953596Y-136136404D01*
X179757244Y-135968703D01*
X179537075Y-135833784D01*
X179537074Y-135833783D01*
X179537070Y-135833781D01*
X179298512Y-135734968D01*
X179298514Y-135734968D01*
X179298510Y-135734967D01*
X179298506Y-135734966D01*
X179298500Y-135734964D01*
X179047427Y-135674687D01*
X178790000Y-135654427D01*
X178532572Y-135674687D01*
X178281499Y-135734964D01*
X178281487Y-135734968D01*
X178042929Y-135833781D01*
X177822755Y-135968703D01*
X177626404Y-136136404D01*
X177458703Y-136332755D01*
X177323781Y-136552929D01*
X177224968Y-136791487D01*
X177224964Y-136791499D01*
X177164687Y-137042572D01*
X177144427Y-137300000D01*
X164084000Y-137300000D01*
X164084000Y-137160000D01*
X162052000Y-137160000D01*
X162052000Y-141924777D01*
X162032315Y-141991816D01*
X162003393Y-142023224D01*
X161687640Y-142265035D01*
X161420000Y-142470000D01*
X157500500Y-142470000D01*
X157500500Y-140299998D01*
X159994318Y-140299998D01*
X159994318Y-140300001D01*
X160014955Y-140456760D01*
X160014956Y-140456762D01*
X160075464Y-140602841D01*
X160171718Y-140728282D01*
X160297159Y-140824536D01*
X160443238Y-140885044D01*
X160521619Y-140895363D01*
X160599999Y-140905682D01*
X160600000Y-140905682D01*
X160600001Y-140905682D01*
X160652254Y-140898802D01*
X160756762Y-140885044D01*
X160902841Y-140824536D01*
X161028282Y-140728282D01*
X161124536Y-140602841D01*
X161185044Y-140456762D01*
X161205682Y-140300000D01*
X161194103Y-140212052D01*
X161185044Y-140143239D01*
X161185044Y-140143238D01*
X161124536Y-139997159D01*
X161028282Y-139871718D01*
X160902841Y-139775464D01*
X160778388Y-139723914D01*
X160756762Y-139714956D01*
X160756760Y-139714955D01*
X160600001Y-139694318D01*
X160599999Y-139694318D01*
X160443239Y-139714955D01*
X160443237Y-139714956D01*
X160297160Y-139775463D01*
X160171718Y-139871718D01*
X160075463Y-139997160D01*
X160014956Y-140143237D01*
X160014955Y-140143239D01*
X159994318Y-140299998D01*
X157500500Y-140299998D01*
X157500500Y-138799998D01*
X160094318Y-138799998D01*
X160094318Y-138800001D01*
X160114955Y-138956760D01*
X160114956Y-138956762D01*
X160174633Y-139100836D01*
X160175464Y-139102841D01*
X160271718Y-139228282D01*
X160397159Y-139324536D01*
X160543238Y-139385044D01*
X160621619Y-139395363D01*
X160699999Y-139405682D01*
X160700000Y-139405682D01*
X160700001Y-139405682D01*
X160752254Y-139398802D01*
X160856762Y-139385044D01*
X161002841Y-139324536D01*
X161128282Y-139228282D01*
X161224536Y-139102841D01*
X161285044Y-138956762D01*
X161305682Y-138800000D01*
X161302534Y-138776092D01*
X161285044Y-138643239D01*
X161285044Y-138643238D01*
X161224536Y-138497159D01*
X161128282Y-138371718D01*
X161002841Y-138275464D01*
X160982996Y-138267244D01*
X160856762Y-138214956D01*
X160856760Y-138214955D01*
X160700001Y-138194318D01*
X160699999Y-138194318D01*
X160543239Y-138214955D01*
X160543237Y-138214956D01*
X160397160Y-138275463D01*
X160271718Y-138371718D01*
X160175463Y-138497160D01*
X160114956Y-138643237D01*
X160114955Y-138643239D01*
X160094318Y-138799998D01*
X157500500Y-138799998D01*
X157500500Y-135381998D01*
X181766318Y-135381998D01*
X181766318Y-135382001D01*
X181786955Y-135538760D01*
X181786956Y-135538762D01*
X181847464Y-135684841D01*
X181943718Y-135810282D01*
X182069159Y-135906536D01*
X182215238Y-135967044D01*
X182293619Y-135977363D01*
X182371999Y-135987682D01*
X182372000Y-135987682D01*
X182372001Y-135987682D01*
X182424254Y-135980802D01*
X182528762Y-135967044D01*
X182674841Y-135906536D01*
X182800282Y-135810282D01*
X182896536Y-135684841D01*
X182957044Y-135538762D01*
X182977682Y-135382000D01*
X182957044Y-135225238D01*
X182896536Y-135079159D01*
X182800282Y-134953718D01*
X182674841Y-134857464D01*
X182528762Y-134796956D01*
X182528760Y-134796955D01*
X182372001Y-134776318D01*
X182371999Y-134776318D01*
X182215239Y-134796955D01*
X182215237Y-134796956D01*
X182069160Y-134857463D01*
X181943718Y-134953718D01*
X181847463Y-135079160D01*
X181786956Y-135225237D01*
X181786955Y-135225239D01*
X181766318Y-135381998D01*
X157500500Y-135381998D01*
X157500500Y-133476996D01*
X160303318Y-133476996D01*
X160303318Y-133476999D01*
X160323955Y-133633758D01*
X160323956Y-133633760D01*
X160384464Y-133779839D01*
X160480718Y-133905280D01*
X160606159Y-134001534D01*
X160752238Y-134062042D01*
X160752239Y-134062042D01*
X160759747Y-134065152D01*
X160758592Y-134067938D01*
X160805975Y-134096810D01*
X160836512Y-134159652D01*
X160828227Y-134229029D01*
X160812609Y-134255717D01*
X160765464Y-134317158D01*
X160704956Y-134463237D01*
X160704955Y-134463239D01*
X160684318Y-134619998D01*
X160684318Y-134620001D01*
X160704955Y-134776760D01*
X160704956Y-134776762D01*
X160738383Y-134857463D01*
X160765464Y-134922841D01*
X160861718Y-135048282D01*
X160987159Y-135144536D01*
X161133238Y-135205044D01*
X161211619Y-135215363D01*
X161289999Y-135225682D01*
X161290000Y-135225682D01*
X161290001Y-135225682D01*
X161342254Y-135218802D01*
X161446762Y-135205044D01*
X161592841Y-135144536D01*
X161718282Y-135048282D01*
X161814536Y-134922841D01*
X161875044Y-134776762D01*
X161888802Y-134672254D01*
X161895682Y-134620001D01*
X161895682Y-134619998D01*
X161879884Y-134500000D01*
X163094353Y-134500000D01*
X163114834Y-134642456D01*
X163141114Y-134700000D01*
X163174623Y-134773373D01*
X163268872Y-134882143D01*
X163389947Y-134959953D01*
X163389950Y-134959954D01*
X163389949Y-134959954D01*
X163528036Y-135000499D01*
X163528038Y-135000500D01*
X163528039Y-135000500D01*
X163671962Y-135000500D01*
X163671962Y-135000499D01*
X163810053Y-134959953D01*
X163931128Y-134882143D01*
X164025377Y-134773373D01*
X164058886Y-134700000D01*
X187894353Y-134700000D01*
X187914834Y-134842456D01*
X187965647Y-134953718D01*
X187974623Y-134973373D01*
X188068872Y-135082143D01*
X188189947Y-135159953D01*
X188189950Y-135159954D01*
X188189949Y-135159954D01*
X188328036Y-135200499D01*
X188328038Y-135200500D01*
X188328039Y-135200500D01*
X188471962Y-135200500D01*
X188471962Y-135200499D01*
X188610053Y-135159953D01*
X188731128Y-135082143D01*
X188825377Y-134973373D01*
X188885165Y-134842457D01*
X188905647Y-134700000D01*
X188885165Y-134557543D01*
X188825377Y-134426627D01*
X188731128Y-134317857D01*
X188610053Y-134240047D01*
X188610051Y-134240046D01*
X188610049Y-134240045D01*
X188610050Y-134240045D01*
X188471963Y-134199500D01*
X188471961Y-134199500D01*
X188328039Y-134199500D01*
X188328036Y-134199500D01*
X188189949Y-134240045D01*
X188068873Y-134317856D01*
X187974623Y-134426626D01*
X187974622Y-134426628D01*
X187914834Y-134557543D01*
X187894353Y-134700000D01*
X164058886Y-134700000D01*
X164085165Y-134642457D01*
X164105647Y-134500000D01*
X164085165Y-134357543D01*
X164025377Y-134226627D01*
X163931128Y-134117857D01*
X163810053Y-134040047D01*
X163810051Y-134040046D01*
X163810049Y-134040045D01*
X163810050Y-134040045D01*
X163671963Y-133999500D01*
X163671961Y-133999500D01*
X163528039Y-133999500D01*
X163528036Y-133999500D01*
X163389949Y-134040045D01*
X163268873Y-134117856D01*
X163174623Y-134226626D01*
X163174622Y-134226628D01*
X163114834Y-134357543D01*
X163094353Y-134500000D01*
X161879884Y-134500000D01*
X161875044Y-134463239D01*
X161875044Y-134463238D01*
X161814536Y-134317159D01*
X161718282Y-134191718D01*
X161592841Y-134095464D01*
X161446762Y-134034956D01*
X161446760Y-134034955D01*
X161439253Y-134031846D01*
X161440404Y-134029066D01*
X161392995Y-134000155D01*
X161362479Y-133937302D01*
X161370789Y-133867928D01*
X161386392Y-133841278D01*
X161433535Y-133779840D01*
X161433534Y-133779840D01*
X161433536Y-133779839D01*
X161494044Y-133633760D01*
X161514682Y-133476998D01*
X161494044Y-133320236D01*
X161433536Y-133174157D01*
X161337282Y-133048716D01*
X161211841Y-132952462D01*
X161065762Y-132891954D01*
X161065760Y-132891953D01*
X160909001Y-132871316D01*
X160908999Y-132871316D01*
X160752239Y-132891953D01*
X160752237Y-132891954D01*
X160606160Y-132952461D01*
X160480718Y-133048716D01*
X160384463Y-133174158D01*
X160323956Y-133320235D01*
X160323955Y-133320237D01*
X160303318Y-133476996D01*
X157500500Y-133476996D01*
X157500500Y-132200000D01*
X188794353Y-132200000D01*
X188814834Y-132342456D01*
X188874622Y-132473371D01*
X188874623Y-132473373D01*
X188968872Y-132582143D01*
X189089947Y-132659953D01*
X189089950Y-132659954D01*
X189089949Y-132659954D01*
X189228036Y-132700499D01*
X189228038Y-132700500D01*
X189228039Y-132700500D01*
X189371962Y-132700500D01*
X189371962Y-132700499D01*
X189510053Y-132659953D01*
X189631128Y-132582143D01*
X189725377Y-132473373D01*
X189785165Y-132342457D01*
X189805647Y-132200000D01*
X190294353Y-132200000D01*
X190314834Y-132342456D01*
X190374622Y-132473371D01*
X190374623Y-132473373D01*
X190468872Y-132582143D01*
X190589947Y-132659953D01*
X190589950Y-132659954D01*
X190589949Y-132659954D01*
X190728036Y-132700499D01*
X190728038Y-132700500D01*
X190728039Y-132700500D01*
X190871962Y-132700500D01*
X190871962Y-132700499D01*
X191010053Y-132659953D01*
X191131128Y-132582143D01*
X191225377Y-132473373D01*
X191285165Y-132342457D01*
X191305647Y-132200000D01*
X191285165Y-132057543D01*
X191225377Y-131926627D01*
X191131128Y-131817857D01*
X191010053Y-131740047D01*
X191010051Y-131740046D01*
X191010049Y-131740045D01*
X191010050Y-131740045D01*
X190871963Y-131699500D01*
X190871961Y-131699500D01*
X190728039Y-131699500D01*
X190728036Y-131699500D01*
X190589949Y-131740045D01*
X190468873Y-131817856D01*
X190374623Y-131926626D01*
X190374622Y-131926628D01*
X190314834Y-132057543D01*
X190294353Y-132200000D01*
X189805647Y-132200000D01*
X189785165Y-132057543D01*
X189725377Y-131926627D01*
X189631128Y-131817857D01*
X189510053Y-131740047D01*
X189510051Y-131740046D01*
X189510049Y-131740045D01*
X189510050Y-131740045D01*
X189371963Y-131699500D01*
X189371961Y-131699500D01*
X189228039Y-131699500D01*
X189228036Y-131699500D01*
X189089949Y-131740045D01*
X188968873Y-131817856D01*
X188874623Y-131926626D01*
X188874622Y-131926628D01*
X188814834Y-132057543D01*
X188794353Y-132200000D01*
X157500500Y-132200000D01*
X157500500Y-131400000D01*
X185094353Y-131400000D01*
X185114834Y-131542456D01*
X185174622Y-131673371D01*
X185174623Y-131673373D01*
X185268872Y-131782143D01*
X185389947Y-131859953D01*
X185389950Y-131859954D01*
X185389949Y-131859954D01*
X185528036Y-131900499D01*
X185528038Y-131900500D01*
X185528039Y-131900500D01*
X185671962Y-131900500D01*
X185671962Y-131900499D01*
X185810053Y-131859953D01*
X185931128Y-131782143D01*
X186025377Y-131673373D01*
X186085165Y-131542457D01*
X186105647Y-131400000D01*
X186085165Y-131257543D01*
X186025377Y-131126627D01*
X185931128Y-131017857D01*
X185864941Y-130975321D01*
X195749500Y-130975321D01*
X195749500Y-132524678D01*
X195764032Y-132597735D01*
X195764033Y-132597739D01*
X195764034Y-132597740D01*
X195819399Y-132680601D01*
X195902260Y-132735966D01*
X195902264Y-132735967D01*
X195975321Y-132750499D01*
X195975324Y-132750500D01*
X195975326Y-132750500D01*
X199024676Y-132750500D01*
X199024677Y-132750499D01*
X199097740Y-132735966D01*
X199180601Y-132680601D01*
X199235966Y-132597740D01*
X199250500Y-132524674D01*
X199250500Y-130975326D01*
X199250500Y-130975323D01*
X199250499Y-130975321D01*
X200749500Y-130975321D01*
X200749500Y-132524678D01*
X200764032Y-132597735D01*
X200764033Y-132597739D01*
X200764034Y-132597740D01*
X200819399Y-132680601D01*
X200902260Y-132735966D01*
X200902264Y-132735967D01*
X200975321Y-132750499D01*
X200975324Y-132750500D01*
X200975326Y-132750500D01*
X204024676Y-132750500D01*
X204024677Y-132750499D01*
X204097740Y-132735966D01*
X204180601Y-132680601D01*
X204235966Y-132597740D01*
X204250500Y-132524674D01*
X204250500Y-130975326D01*
X204250500Y-130975323D01*
X204250499Y-130975321D01*
X204235967Y-130902264D01*
X204235966Y-130902260D01*
X204234122Y-130899500D01*
X204180601Y-130819399D01*
X204097740Y-130764034D01*
X204097739Y-130764033D01*
X204097735Y-130764032D01*
X204024677Y-130749500D01*
X204024674Y-130749500D01*
X200975326Y-130749500D01*
X200975323Y-130749500D01*
X200902264Y-130764032D01*
X200902260Y-130764033D01*
X200819399Y-130819399D01*
X200764033Y-130902260D01*
X200764032Y-130902264D01*
X200749500Y-130975321D01*
X199250499Y-130975321D01*
X199235967Y-130902264D01*
X199235966Y-130902260D01*
X199234122Y-130899500D01*
X199180601Y-130819399D01*
X199097740Y-130764034D01*
X199097739Y-130764033D01*
X199097735Y-130764032D01*
X199024677Y-130749500D01*
X199024674Y-130749500D01*
X195975326Y-130749500D01*
X195975323Y-130749500D01*
X195902264Y-130764032D01*
X195902260Y-130764033D01*
X195819399Y-130819399D01*
X195764033Y-130902260D01*
X195764032Y-130902264D01*
X195749500Y-130975321D01*
X185864941Y-130975321D01*
X185810053Y-130940047D01*
X185810051Y-130940046D01*
X185810049Y-130940045D01*
X185810050Y-130940045D01*
X185671963Y-130899500D01*
X185671961Y-130899500D01*
X185528039Y-130899500D01*
X185528036Y-130899500D01*
X185389949Y-130940045D01*
X185268873Y-131017856D01*
X185174623Y-131126626D01*
X185174622Y-131126628D01*
X185114834Y-131257543D01*
X185094353Y-131400000D01*
X157500500Y-131400000D01*
X157500500Y-129600000D01*
X158625353Y-129600000D01*
X158645834Y-129742456D01*
X158691678Y-129842839D01*
X158705623Y-129873373D01*
X158799872Y-129982143D01*
X158920947Y-130059953D01*
X158920950Y-130059954D01*
X158920949Y-130059954D01*
X159059036Y-130100499D01*
X159059038Y-130100500D01*
X159059039Y-130100500D01*
X159202962Y-130100500D01*
X159202962Y-130100499D01*
X159341053Y-130059953D01*
X159462128Y-129982143D01*
X159556377Y-129873373D01*
X159616165Y-129742457D01*
X159636647Y-129600000D01*
X159628020Y-129539998D01*
X161446318Y-129539998D01*
X161446318Y-129540000D01*
X161466955Y-129696760D01*
X161466956Y-129696762D01*
X161485883Y-129742457D01*
X161527464Y-129842841D01*
X161623718Y-129968282D01*
X161749159Y-130064536D01*
X161895238Y-130125044D01*
X161973619Y-130135363D01*
X162051999Y-130145682D01*
X162052000Y-130145682D01*
X162052001Y-130145682D01*
X162104254Y-130138802D01*
X162208762Y-130125044D01*
X162354841Y-130064536D01*
X162480282Y-129968282D01*
X162576536Y-129842841D01*
X162637044Y-129696762D01*
X162657682Y-129540000D01*
X162655989Y-129527143D01*
X162637044Y-129383239D01*
X162637044Y-129383238D01*
X162576536Y-129237159D01*
X162525003Y-129170000D01*
X164404353Y-129170000D01*
X164424834Y-129312456D01*
X164473206Y-129418373D01*
X164484623Y-129443373D01*
X164578872Y-129552143D01*
X164699947Y-129629953D01*
X164699950Y-129629954D01*
X164699949Y-129629954D01*
X164838036Y-129670499D01*
X164838038Y-129670500D01*
X164838039Y-129670500D01*
X164981962Y-129670500D01*
X164981962Y-129670499D01*
X165120053Y-129629953D01*
X165241128Y-129552143D01*
X165316287Y-129465403D01*
X165375064Y-129427629D01*
X165444934Y-129427629D01*
X165503711Y-129465402D01*
X165510148Y-129472831D01*
X165557209Y-129527143D01*
X165578872Y-129552143D01*
X165699947Y-129629953D01*
X165699950Y-129629954D01*
X165699949Y-129629954D01*
X165838036Y-129670499D01*
X165838038Y-129670500D01*
X165838039Y-129670500D01*
X165981962Y-129670500D01*
X165981962Y-129670499D01*
X166120053Y-129629953D01*
X166241128Y-129552143D01*
X166277119Y-129510605D01*
X166335895Y-129472831D01*
X166405765Y-129472830D01*
X166464541Y-129510602D01*
X166478874Y-129527143D01*
X166599949Y-129604953D01*
X166599952Y-129604954D01*
X166599951Y-129604954D01*
X166738038Y-129645499D01*
X166738040Y-129645500D01*
X166738041Y-129645500D01*
X166881964Y-129645500D01*
X166881964Y-129645499D01*
X167020052Y-129604954D01*
X167020053Y-129604954D01*
X167090493Y-129559685D01*
X167157533Y-129540000D01*
X173736000Y-129540000D01*
X173736000Y-129252208D01*
X186169353Y-129252208D01*
X186189834Y-129394664D01*
X186249621Y-129525577D01*
X186249623Y-129525581D01*
X186343872Y-129634351D01*
X186464947Y-129712161D01*
X186464950Y-129712162D01*
X186464949Y-129712162D01*
X186603036Y-129752707D01*
X186603038Y-129752708D01*
X186603039Y-129752708D01*
X186746962Y-129752708D01*
X186746962Y-129752707D01*
X186885053Y-129712161D01*
X187006128Y-129634351D01*
X187100377Y-129525581D01*
X187107216Y-129510607D01*
X187131449Y-129457543D01*
X187142869Y-129432536D01*
X187188623Y-129379733D01*
X187255663Y-129360048D01*
X187322702Y-129379732D01*
X187368457Y-129432536D01*
X187378401Y-129466401D01*
X187400049Y-129616970D01*
X187455515Y-129738422D01*
X187459838Y-129747887D01*
X187554087Y-129856657D01*
X187675162Y-129934467D01*
X187675165Y-129934468D01*
X187675164Y-129934468D01*
X187813251Y-129975013D01*
X187813253Y-129975014D01*
X187813254Y-129975014D01*
X187957177Y-129975014D01*
X187957177Y-129975013D01*
X188095268Y-129934467D01*
X188216343Y-129856657D01*
X188310592Y-129747887D01*
X188370380Y-129616971D01*
X188390862Y-129474514D01*
X188389501Y-129465049D01*
X188840665Y-129465049D01*
X188861146Y-129607505D01*
X188901908Y-129696760D01*
X188920935Y-129738422D01*
X189015184Y-129847192D01*
X189136259Y-129925002D01*
X189136262Y-129925003D01*
X189136261Y-129925003D01*
X189274348Y-129965548D01*
X189274350Y-129965549D01*
X189274351Y-129965549D01*
X189418274Y-129965549D01*
X189418274Y-129965548D01*
X189556365Y-129925002D01*
X189677440Y-129847192D01*
X189771689Y-129738422D01*
X189824406Y-129622988D01*
X189870161Y-129570185D01*
X189937200Y-129550500D01*
X189993274Y-129550500D01*
X189993274Y-129550499D01*
X190131365Y-129509953D01*
X190252440Y-129432143D01*
X190346689Y-129323373D01*
X190406477Y-129192457D01*
X190426959Y-129050000D01*
X190406477Y-128907543D01*
X190346689Y-128776627D01*
X190252440Y-128667857D01*
X190131365Y-128590047D01*
X190131363Y-128590046D01*
X190131361Y-128590045D01*
X190131362Y-128590045D01*
X189993275Y-128549500D01*
X189993273Y-128549500D01*
X189849351Y-128549500D01*
X189849348Y-128549500D01*
X189711261Y-128590045D01*
X189590185Y-128667856D01*
X189495935Y-128776626D01*
X189495932Y-128776630D01*
X189443218Y-128892060D01*
X189397463Y-128944864D01*
X189330424Y-128964549D01*
X189274348Y-128964549D01*
X189136261Y-129005094D01*
X189015185Y-129082905D01*
X189015184Y-129082905D01*
X189015184Y-129082906D01*
X189006983Y-129092371D01*
X188920935Y-129191675D01*
X188920934Y-129191677D01*
X188861146Y-129322592D01*
X188840665Y-129465049D01*
X188389501Y-129465049D01*
X188370380Y-129332057D01*
X188310592Y-129201141D01*
X188216343Y-129092371D01*
X188095268Y-129014561D01*
X188095266Y-129014560D01*
X188095264Y-129014559D01*
X188095265Y-129014559D01*
X187957178Y-128974014D01*
X187957176Y-128974014D01*
X187813254Y-128974014D01*
X187813251Y-128974014D01*
X187675164Y-129014559D01*
X187554088Y-129092370D01*
X187459838Y-129201140D01*
X187417345Y-129294186D01*
X187371589Y-129346989D01*
X187304550Y-129366673D01*
X187237511Y-129346988D01*
X187191756Y-129294183D01*
X187181813Y-129260320D01*
X187173304Y-129201140D01*
X187160165Y-129109751D01*
X187100377Y-128978835D01*
X187006128Y-128870065D01*
X186885053Y-128792255D01*
X186885051Y-128792254D01*
X186885049Y-128792253D01*
X186885050Y-128792253D01*
X186746963Y-128751708D01*
X186746961Y-128751708D01*
X186603039Y-128751708D01*
X186603036Y-128751708D01*
X186464949Y-128792253D01*
X186343873Y-128870064D01*
X186249623Y-128978834D01*
X186249622Y-128978836D01*
X186189834Y-129109751D01*
X186169353Y-129252208D01*
X173736000Y-129252208D01*
X173736000Y-126848543D01*
X195749499Y-126848543D01*
X195787947Y-127041829D01*
X195787950Y-127041839D01*
X195863364Y-127223907D01*
X195863371Y-127223920D01*
X195972860Y-127387781D01*
X195972863Y-127387785D01*
X196112214Y-127527136D01*
X196112218Y-127527139D01*
X196276079Y-127636628D01*
X196276092Y-127636635D01*
X196458160Y-127712049D01*
X196458165Y-127712051D01*
X196458169Y-127712051D01*
X196458170Y-127712052D01*
X196651456Y-127750500D01*
X196651459Y-127750500D01*
X198348543Y-127750500D01*
X198494272Y-127721512D01*
X198541835Y-127712051D01*
X198723914Y-127636632D01*
X198887782Y-127527139D01*
X199027139Y-127387782D01*
X199136632Y-127223914D01*
X199212051Y-127041835D01*
X199237786Y-126912457D01*
X199250500Y-126848543D01*
X200749499Y-126848543D01*
X200787947Y-127041829D01*
X200787950Y-127041839D01*
X200863364Y-127223907D01*
X200863371Y-127223920D01*
X200972860Y-127387781D01*
X200972863Y-127387785D01*
X201112214Y-127527136D01*
X201112218Y-127527139D01*
X201276079Y-127636628D01*
X201276092Y-127636635D01*
X201458160Y-127712049D01*
X201458165Y-127712051D01*
X201458169Y-127712051D01*
X201458170Y-127712052D01*
X201651456Y-127750500D01*
X201651459Y-127750500D01*
X203348543Y-127750500D01*
X203494272Y-127721512D01*
X203541835Y-127712051D01*
X203723914Y-127636632D01*
X203887782Y-127527139D01*
X204027139Y-127387782D01*
X204136632Y-127223914D01*
X204212051Y-127041835D01*
X204237786Y-126912457D01*
X204250500Y-126848543D01*
X204250500Y-126651456D01*
X204212052Y-126458170D01*
X204212051Y-126458169D01*
X204212051Y-126458165D01*
X204205924Y-126443373D01*
X204136635Y-126276092D01*
X204136628Y-126276079D01*
X204027139Y-126112218D01*
X204027136Y-126112214D01*
X203887785Y-125972863D01*
X203887781Y-125972860D01*
X203723920Y-125863371D01*
X203723907Y-125863364D01*
X203541839Y-125787950D01*
X203541829Y-125787947D01*
X203348543Y-125749500D01*
X203348541Y-125749500D01*
X201651459Y-125749500D01*
X201651457Y-125749500D01*
X201458170Y-125787947D01*
X201458160Y-125787950D01*
X201276092Y-125863364D01*
X201276079Y-125863371D01*
X201112218Y-125972860D01*
X201112214Y-125972863D01*
X200972863Y-126112214D01*
X200972860Y-126112218D01*
X200863371Y-126276079D01*
X200863364Y-126276092D01*
X200787950Y-126458160D01*
X200787947Y-126458170D01*
X200749500Y-126651456D01*
X200749500Y-126651459D01*
X200749500Y-126848541D01*
X200749500Y-126848543D01*
X200749499Y-126848543D01*
X199250500Y-126848543D01*
X199250500Y-126651456D01*
X199212052Y-126458170D01*
X199212051Y-126458169D01*
X199212051Y-126458165D01*
X199205924Y-126443373D01*
X199136635Y-126276092D01*
X199136628Y-126276079D01*
X199027139Y-126112218D01*
X199027136Y-126112214D01*
X198887785Y-125972863D01*
X198887781Y-125972860D01*
X198723920Y-125863371D01*
X198723907Y-125863364D01*
X198541839Y-125787950D01*
X198541829Y-125787947D01*
X198348543Y-125749500D01*
X198348541Y-125749500D01*
X196651459Y-125749500D01*
X196651457Y-125749500D01*
X196458170Y-125787947D01*
X196458160Y-125787950D01*
X196276092Y-125863364D01*
X196276079Y-125863371D01*
X196112218Y-125972860D01*
X196112214Y-125972863D01*
X195972863Y-126112214D01*
X195972860Y-126112218D01*
X195863371Y-126276079D01*
X195863364Y-126276092D01*
X195787950Y-126458160D01*
X195787947Y-126458170D01*
X195749500Y-126651456D01*
X195749500Y-126651459D01*
X195749500Y-126848541D01*
X195749500Y-126848543D01*
X195749499Y-126848543D01*
X173736000Y-126848543D01*
X173736000Y-123628059D01*
X179682410Y-123628059D01*
X179702891Y-123770515D01*
X179753391Y-123881092D01*
X179762680Y-123901432D01*
X179810519Y-123956642D01*
X179839180Y-123989719D01*
X179868204Y-124053275D01*
X179858260Y-124122433D01*
X179839180Y-124152123D01*
X179774623Y-124226627D01*
X179774622Y-124226628D01*
X179714834Y-124357543D01*
X179694353Y-124500000D01*
X179714834Y-124642456D01*
X179749659Y-124718711D01*
X179774623Y-124773373D01*
X179868872Y-124882143D01*
X179989947Y-124959953D01*
X179989950Y-124959954D01*
X179989949Y-124959954D01*
X180128036Y-125000499D01*
X180128038Y-125000500D01*
X180128039Y-125000500D01*
X180271962Y-125000500D01*
X180271962Y-125000499D01*
X180410053Y-124959953D01*
X180531128Y-124882143D01*
X180625377Y-124773373D01*
X180685165Y-124642457D01*
X180694862Y-124575000D01*
X186104750Y-124575000D01*
X186113631Y-124642460D01*
X186123670Y-124718708D01*
X186123671Y-124718711D01*
X186179137Y-124852622D01*
X186179138Y-124852624D01*
X186179139Y-124852625D01*
X186267379Y-124967621D01*
X186382375Y-125055861D01*
X186393428Y-125060439D01*
X186447831Y-125104281D01*
X186469895Y-125170575D01*
X186452615Y-125238274D01*
X186401478Y-125285884D01*
X186393433Y-125289558D01*
X186382375Y-125294139D01*
X186267379Y-125382379D01*
X186179137Y-125497377D01*
X186123671Y-125631287D01*
X186123670Y-125631291D01*
X186104750Y-125775000D01*
X186116384Y-125863371D01*
X186123670Y-125918708D01*
X186123671Y-125918712D01*
X186179137Y-126052622D01*
X186179138Y-126052624D01*
X186179139Y-126052625D01*
X186267379Y-126167621D01*
X186382375Y-126255861D01*
X186516291Y-126311330D01*
X186643280Y-126328048D01*
X186659999Y-126330250D01*
X186660000Y-126330250D01*
X186660001Y-126330250D01*
X186674977Y-126328278D01*
X186803709Y-126311330D01*
X186937625Y-126255861D01*
X187052621Y-126167621D01*
X187140861Y-126052625D01*
X187145439Y-126041570D01*
X187189279Y-125987170D01*
X187255573Y-125965104D01*
X187323272Y-125982383D01*
X187370883Y-126033519D01*
X187374553Y-126041553D01*
X187379139Y-126052625D01*
X187467379Y-126167621D01*
X187582375Y-126255861D01*
X187716291Y-126311330D01*
X187843280Y-126328048D01*
X187859999Y-126330250D01*
X187860000Y-126330250D01*
X187860001Y-126330250D01*
X187874977Y-126328278D01*
X188003709Y-126311330D01*
X188137625Y-126255861D01*
X188252621Y-126167621D01*
X188340861Y-126052625D01*
X188345439Y-126041570D01*
X188389279Y-125987170D01*
X188455573Y-125965104D01*
X188523272Y-125982383D01*
X188570883Y-126033519D01*
X188574553Y-126041553D01*
X188579139Y-126052625D01*
X188667379Y-126167621D01*
X188782375Y-126255861D01*
X188916291Y-126311330D01*
X189043280Y-126328048D01*
X189059999Y-126330250D01*
X189060000Y-126330250D01*
X189060001Y-126330250D01*
X189074977Y-126328278D01*
X189203709Y-126311330D01*
X189337625Y-126255861D01*
X189452621Y-126167621D01*
X189540861Y-126052625D01*
X189545439Y-126041570D01*
X189589279Y-125987170D01*
X189655573Y-125965104D01*
X189723272Y-125982383D01*
X189770883Y-126033519D01*
X189774553Y-126041553D01*
X189779139Y-126052625D01*
X189867379Y-126167621D01*
X189982375Y-126255861D01*
X190116291Y-126311330D01*
X190243280Y-126328048D01*
X190259999Y-126330250D01*
X190260000Y-126330250D01*
X190260001Y-126330250D01*
X190274977Y-126328278D01*
X190403709Y-126311330D01*
X190537625Y-126255861D01*
X190652621Y-126167621D01*
X190740861Y-126052625D01*
X190796330Y-125918709D01*
X190815250Y-125775000D01*
X190796330Y-125631291D01*
X190740861Y-125497375D01*
X190652621Y-125382379D01*
X190537625Y-125294139D01*
X190526570Y-125289560D01*
X190472170Y-125245721D01*
X190450104Y-125179427D01*
X190467383Y-125111728D01*
X190518519Y-125064117D01*
X190526553Y-125060446D01*
X190537625Y-125055861D01*
X190652621Y-124967621D01*
X190740861Y-124852625D01*
X190796330Y-124718709D01*
X190815250Y-124575000D01*
X190796330Y-124431291D01*
X190740861Y-124297375D01*
X190652621Y-124182379D01*
X190537625Y-124094139D01*
X190537624Y-124094138D01*
X190537622Y-124094137D01*
X190403712Y-124038671D01*
X190403710Y-124038670D01*
X190403709Y-124038670D01*
X190331854Y-124029210D01*
X190260001Y-124019750D01*
X190259999Y-124019750D01*
X190116291Y-124038670D01*
X190116287Y-124038671D01*
X189982377Y-124094137D01*
X189867379Y-124182379D01*
X189779139Y-124297375D01*
X189774561Y-124308428D01*
X189730719Y-124362831D01*
X189664425Y-124384895D01*
X189596726Y-124367615D01*
X189549116Y-124316478D01*
X189545439Y-124308428D01*
X189540861Y-124297375D01*
X189452621Y-124182379D01*
X189337625Y-124094139D01*
X189337624Y-124094138D01*
X189337622Y-124094137D01*
X189203712Y-124038671D01*
X189203710Y-124038670D01*
X189203709Y-124038670D01*
X189131854Y-124029210D01*
X189060001Y-124019750D01*
X189059999Y-124019750D01*
X188916291Y-124038670D01*
X188916287Y-124038671D01*
X188782377Y-124094137D01*
X188667379Y-124182379D01*
X188579139Y-124297375D01*
X188574561Y-124308428D01*
X188530719Y-124362831D01*
X188464425Y-124384895D01*
X188396726Y-124367615D01*
X188349116Y-124316478D01*
X188345439Y-124308428D01*
X188340861Y-124297375D01*
X188252621Y-124182379D01*
X188137625Y-124094139D01*
X188137624Y-124094138D01*
X188137622Y-124094137D01*
X188003712Y-124038671D01*
X188003710Y-124038670D01*
X188003709Y-124038670D01*
X187931854Y-124029210D01*
X187860001Y-124019750D01*
X187859999Y-124019750D01*
X187716291Y-124038670D01*
X187716287Y-124038671D01*
X187582377Y-124094137D01*
X187467379Y-124182379D01*
X187379139Y-124297375D01*
X187374561Y-124308428D01*
X187330719Y-124362831D01*
X187264425Y-124384895D01*
X187196726Y-124367615D01*
X187149116Y-124316478D01*
X187145439Y-124308428D01*
X187140861Y-124297375D01*
X187052621Y-124182379D01*
X186937625Y-124094139D01*
X186937624Y-124094138D01*
X186937622Y-124094137D01*
X186803712Y-124038671D01*
X186803710Y-124038670D01*
X186803709Y-124038670D01*
X186731854Y-124029210D01*
X186660001Y-124019750D01*
X186659999Y-124019750D01*
X186516291Y-124038670D01*
X186516287Y-124038671D01*
X186382377Y-124094137D01*
X186267379Y-124182379D01*
X186179137Y-124297377D01*
X186123671Y-124431287D01*
X186123670Y-124431291D01*
X186104750Y-124575000D01*
X180694862Y-124575000D01*
X180695509Y-124570502D01*
X180724533Y-124506949D01*
X180730552Y-124500483D01*
X182525474Y-122705563D01*
X182528412Y-122700475D01*
X182574910Y-122619938D01*
X182595006Y-122544938D01*
X182600500Y-122524436D01*
X182600500Y-122425564D01*
X182600500Y-121577183D01*
X182620185Y-121510144D01*
X182630783Y-121495985D01*
X182650377Y-121473373D01*
X182710165Y-121342457D01*
X182730647Y-121200000D01*
X182730647Y-121199999D01*
X182718735Y-121117146D01*
X182728679Y-121047988D01*
X182774434Y-120995184D01*
X182841473Y-120975500D01*
X186557564Y-120975500D01*
X186557564Y-120979035D01*
X186610495Y-120987189D01*
X186662838Y-121033471D01*
X186675784Y-121062194D01*
X186715626Y-121149436D01*
X186736595Y-121195350D01*
X186830844Y-121304120D01*
X186951919Y-121381930D01*
X186951922Y-121381931D01*
X186951921Y-121381931D01*
X187090008Y-121422476D01*
X187090010Y-121422477D01*
X187090011Y-121422477D01*
X187233934Y-121422477D01*
X187233934Y-121422476D01*
X187341093Y-121391012D01*
X187372022Y-121381931D01*
X187372022Y-121381930D01*
X187372025Y-121381930D01*
X187493100Y-121304120D01*
X187554525Y-121233230D01*
X187613302Y-121195456D01*
X187683172Y-121195456D01*
X187785493Y-121225499D01*
X187785495Y-121225500D01*
X187785496Y-121225500D01*
X187929419Y-121225500D01*
X187929419Y-121225499D01*
X188067510Y-121184953D01*
X188169556Y-121119371D01*
X188236595Y-121099688D01*
X188303635Y-121119373D01*
X188330308Y-121142486D01*
X188336333Y-121149440D01*
X188342349Y-121156382D01*
X188463424Y-121234192D01*
X188463427Y-121234193D01*
X188463426Y-121234193D01*
X188601513Y-121274738D01*
X188601515Y-121274739D01*
X188601516Y-121274739D01*
X188745439Y-121274739D01*
X188745439Y-121274738D01*
X188883530Y-121234192D01*
X188910783Y-121216676D01*
X188977819Y-121196991D01*
X189044859Y-121216673D01*
X189071534Y-121239786D01*
X189081067Y-121250788D01*
X189202142Y-121328598D01*
X189202145Y-121328599D01*
X189202144Y-121328599D01*
X189340231Y-121369144D01*
X189340233Y-121369145D01*
X189340234Y-121369145D01*
X189346831Y-121369145D01*
X189413870Y-121388830D01*
X189459625Y-121441634D01*
X189469569Y-121475499D01*
X189472406Y-121495237D01*
X189479377Y-121510500D01*
X189532195Y-121626154D01*
X189626444Y-121734924D01*
X189747519Y-121812734D01*
X189747522Y-121812735D01*
X189747521Y-121812735D01*
X189885608Y-121853280D01*
X189885610Y-121853281D01*
X189885611Y-121853281D01*
X190029534Y-121853281D01*
X190029534Y-121853280D01*
X190045667Y-121848543D01*
X195749499Y-121848543D01*
X195787947Y-122041829D01*
X195787950Y-122041839D01*
X195863364Y-122223907D01*
X195863371Y-122223920D01*
X195972860Y-122387781D01*
X195972863Y-122387785D01*
X196112214Y-122527136D01*
X196112218Y-122527139D01*
X196276079Y-122636628D01*
X196276092Y-122636635D01*
X196458160Y-122712049D01*
X196458165Y-122712051D01*
X196458169Y-122712051D01*
X196458170Y-122712052D01*
X196651456Y-122750500D01*
X196651459Y-122750500D01*
X198348543Y-122750500D01*
X198478582Y-122724632D01*
X198541835Y-122712051D01*
X198723914Y-122636632D01*
X198887782Y-122527139D01*
X199027139Y-122387782D01*
X199136632Y-122223914D01*
X199149396Y-122193100D01*
X199212049Y-122041839D01*
X199212051Y-122041835D01*
X199224632Y-121978582D01*
X199250500Y-121848543D01*
X200749499Y-121848543D01*
X200787947Y-122041829D01*
X200787950Y-122041839D01*
X200863364Y-122223907D01*
X200863371Y-122223920D01*
X200972860Y-122387781D01*
X200972863Y-122387785D01*
X201112214Y-122527136D01*
X201112218Y-122527139D01*
X201276079Y-122636628D01*
X201276092Y-122636635D01*
X201458160Y-122712049D01*
X201458165Y-122712051D01*
X201458169Y-122712051D01*
X201458170Y-122712052D01*
X201651456Y-122750500D01*
X201651459Y-122750500D01*
X203348543Y-122750500D01*
X203478582Y-122724632D01*
X203541835Y-122712051D01*
X203723914Y-122636632D01*
X203887782Y-122527139D01*
X204027139Y-122387782D01*
X204136632Y-122223914D01*
X204149396Y-122193100D01*
X204212049Y-122041839D01*
X204212051Y-122041835D01*
X204224632Y-121978582D01*
X204250500Y-121848543D01*
X204250500Y-121651456D01*
X204212052Y-121458170D01*
X204212051Y-121458169D01*
X204212051Y-121458165D01*
X204159197Y-121330562D01*
X204136635Y-121276092D01*
X204136628Y-121276079D01*
X204027139Y-121112218D01*
X204027136Y-121112214D01*
X203887785Y-120972863D01*
X203887781Y-120972860D01*
X203723920Y-120863371D01*
X203723907Y-120863364D01*
X203541839Y-120787950D01*
X203541829Y-120787947D01*
X203348543Y-120749500D01*
X203348541Y-120749500D01*
X201651459Y-120749500D01*
X201651457Y-120749500D01*
X201458170Y-120787947D01*
X201458160Y-120787950D01*
X201276092Y-120863364D01*
X201276079Y-120863371D01*
X201112218Y-120972860D01*
X201112214Y-120972863D01*
X200972863Y-121112214D01*
X200972860Y-121112218D01*
X200863371Y-121276079D01*
X200863364Y-121276092D01*
X200787950Y-121458160D01*
X200787947Y-121458170D01*
X200749500Y-121651456D01*
X200749500Y-121651459D01*
X200749500Y-121848541D01*
X200749500Y-121848543D01*
X200749499Y-121848543D01*
X199250500Y-121848543D01*
X199250500Y-121651456D01*
X199212052Y-121458170D01*
X199212051Y-121458169D01*
X199212051Y-121458165D01*
X199159197Y-121330562D01*
X199136635Y-121276092D01*
X199136628Y-121276079D01*
X199027139Y-121112218D01*
X199027136Y-121112214D01*
X198887785Y-120972863D01*
X198887781Y-120972860D01*
X198723920Y-120863371D01*
X198723907Y-120863364D01*
X198541839Y-120787950D01*
X198541829Y-120787947D01*
X198348543Y-120749500D01*
X198348541Y-120749500D01*
X196651459Y-120749500D01*
X196651457Y-120749500D01*
X196458170Y-120787947D01*
X196458160Y-120787950D01*
X196276092Y-120863364D01*
X196276079Y-120863371D01*
X196112218Y-120972860D01*
X196112214Y-120972863D01*
X195972863Y-121112214D01*
X195972860Y-121112218D01*
X195863371Y-121276079D01*
X195863364Y-121276092D01*
X195787950Y-121458160D01*
X195787947Y-121458170D01*
X195749500Y-121651456D01*
X195749500Y-121651459D01*
X195749500Y-121848541D01*
X195749500Y-121848543D01*
X195749499Y-121848543D01*
X190045667Y-121848543D01*
X190167625Y-121812734D01*
X190288700Y-121734924D01*
X190382949Y-121626154D01*
X190439276Y-121502815D01*
X190464386Y-121466649D01*
X190600474Y-121330563D01*
X190600475Y-121330562D01*
X190649910Y-121244938D01*
X190673639Y-121156382D01*
X190675500Y-121149436D01*
X190675500Y-121050564D01*
X190675500Y-120750565D01*
X190675500Y-120750563D01*
X190673567Y-120743353D01*
X190673567Y-120743340D01*
X190673564Y-120743341D01*
X190649910Y-120655063D01*
X190649910Y-120655062D01*
X190634203Y-120627857D01*
X190600475Y-120569438D01*
X190530562Y-120499525D01*
X189879802Y-119848765D01*
X189879801Y-119848764D01*
X189794177Y-119799329D01*
X189746425Y-119786534D01*
X189746423Y-119786533D01*
X189746421Y-119786532D01*
X189698675Y-119773739D01*
X189698674Y-119773739D01*
X187000197Y-119773739D01*
X186901325Y-119773739D01*
X186853573Y-119786534D01*
X186853572Y-119786533D01*
X186805824Y-119799328D01*
X186805823Y-119799328D01*
X186720196Y-119848766D01*
X186380782Y-120188181D01*
X186319459Y-120221666D01*
X186293101Y-120224500D01*
X181750564Y-120224500D01*
X181655063Y-120250089D01*
X181655060Y-120250090D01*
X181569440Y-120299522D01*
X181569435Y-120299526D01*
X181369438Y-120499525D01*
X181299527Y-120569435D01*
X181250090Y-120655062D01*
X181250090Y-120655063D01*
X181226436Y-120743341D01*
X181226434Y-120743346D01*
X181224500Y-120750562D01*
X181224500Y-122193100D01*
X181204815Y-122260139D01*
X181188181Y-122280781D01*
X180374954Y-123094007D01*
X180313631Y-123127492D01*
X180269211Y-123125930D01*
X180268796Y-123128821D01*
X180260018Y-123127559D01*
X180116096Y-123127559D01*
X180116093Y-123127559D01*
X179978006Y-123168104D01*
X179856930Y-123245915D01*
X179762680Y-123354685D01*
X179762679Y-123354687D01*
X179702891Y-123485602D01*
X179682410Y-123628059D01*
X173736000Y-123628059D01*
X173736000Y-122428000D01*
X166810000Y-122395000D01*
X166809999Y-122395000D01*
X166798927Y-122406125D01*
X166790696Y-122435178D01*
X166738329Y-122481433D01*
X166669268Y-122492033D01*
X166618709Y-122473449D01*
X166591574Y-122456011D01*
X166520053Y-122410047D01*
X166520051Y-122410046D01*
X166520049Y-122410045D01*
X166520050Y-122410045D01*
X166381963Y-122369500D01*
X166381961Y-122369500D01*
X166238039Y-122369500D01*
X166238036Y-122369500D01*
X166099949Y-122410045D01*
X165978873Y-122487856D01*
X165884623Y-122596626D01*
X165884622Y-122596628D01*
X165824834Y-122727543D01*
X165804353Y-122870000D01*
X165824834Y-123012456D01*
X165862078Y-123094007D01*
X165884623Y-123143373D01*
X165978872Y-123252143D01*
X166099947Y-123329953D01*
X166099950Y-123329954D01*
X166099949Y-123329954D01*
X166238036Y-123370499D01*
X166238038Y-123370500D01*
X166238039Y-123370500D01*
X166381962Y-123370500D01*
X166381962Y-123370499D01*
X166520050Y-123329954D01*
X166520051Y-123329954D01*
X166520053Y-123329953D01*
X166628186Y-123260459D01*
X166695222Y-123240776D01*
X166762262Y-123260460D01*
X166808017Y-123313264D01*
X166819217Y-123363596D01*
X166834290Y-124947230D01*
X166815245Y-125014454D01*
X166762879Y-125060709D01*
X166745231Y-125067387D01*
X166599949Y-125110045D01*
X166577037Y-125124770D01*
X166509997Y-125144453D01*
X166442963Y-125124770D01*
X166435900Y-125120231D01*
X166420053Y-125110047D01*
X166420051Y-125110046D01*
X166420049Y-125110045D01*
X166281963Y-125069500D01*
X166281961Y-125069500D01*
X166138039Y-125069500D01*
X166138036Y-125069500D01*
X165999949Y-125110045D01*
X165878873Y-125187856D01*
X165784623Y-125296626D01*
X165784622Y-125296628D01*
X165724834Y-125427543D01*
X165704353Y-125570000D01*
X165724834Y-125712456D01*
X165773258Y-125818488D01*
X165783202Y-125887647D01*
X165773258Y-125921512D01*
X165724834Y-126027543D01*
X165704353Y-126170000D01*
X165724834Y-126312456D01*
X165773258Y-126418488D01*
X165783202Y-126487647D01*
X165773258Y-126521512D01*
X165724834Y-126627543D01*
X165704353Y-126770000D01*
X165724834Y-126912456D01*
X165773258Y-127018488D01*
X165783202Y-127087647D01*
X165773258Y-127121512D01*
X165724834Y-127227543D01*
X165704353Y-127370000D01*
X165724834Y-127512456D01*
X165773258Y-127618488D01*
X165783202Y-127687647D01*
X165773258Y-127721512D01*
X165724834Y-127827543D01*
X165704353Y-127970000D01*
X165724834Y-128112456D01*
X165784622Y-128243371D01*
X165784623Y-128243373D01*
X165878872Y-128352143D01*
X165999947Y-128429953D01*
X165999949Y-128429953D01*
X166005977Y-128432707D01*
X166058779Y-128478464D01*
X166070742Y-128519210D01*
X166114030Y-128481704D01*
X166165538Y-128470500D01*
X166281962Y-128470500D01*
X166281962Y-128470499D01*
X166420053Y-128429953D01*
X166442959Y-128415231D01*
X166509998Y-128395546D01*
X166577038Y-128415230D01*
X166577041Y-128415232D01*
X166599947Y-128429953D01*
X166599949Y-128429954D01*
X166629132Y-128438523D01*
X166687910Y-128476297D01*
X166716936Y-128539852D01*
X166706993Y-128609011D01*
X166661238Y-128661815D01*
X166629134Y-128676477D01*
X166599950Y-128685046D01*
X166478874Y-128762857D01*
X166478871Y-128762859D01*
X166442881Y-128804394D01*
X166384103Y-128842168D01*
X166314233Y-128842168D01*
X166255457Y-128804394D01*
X166241128Y-128787857D01*
X166120053Y-128710047D01*
X166120052Y-128710046D01*
X166120051Y-128710046D01*
X166114023Y-128707293D01*
X166061221Y-128661536D01*
X166049257Y-128620789D01*
X166005970Y-128658296D01*
X165954462Y-128669500D01*
X165838036Y-128669500D01*
X165699949Y-128710045D01*
X165578873Y-128787856D01*
X165578872Y-128787856D01*
X165578872Y-128787857D01*
X165506286Y-128871627D01*
X165503713Y-128874596D01*
X165444935Y-128912370D01*
X165375065Y-128912370D01*
X165316287Y-128874596D01*
X165241128Y-128787857D01*
X165120053Y-128710047D01*
X165120051Y-128710046D01*
X165120049Y-128710045D01*
X165120050Y-128710045D01*
X164981963Y-128669500D01*
X164981961Y-128669500D01*
X164838039Y-128669500D01*
X164838036Y-128669500D01*
X164699949Y-128710045D01*
X164578873Y-128787856D01*
X164484623Y-128896626D01*
X164484622Y-128896628D01*
X164424834Y-129027543D01*
X164404353Y-129170000D01*
X162525003Y-129170000D01*
X162480282Y-129111718D01*
X162354841Y-129015464D01*
X162352656Y-129014559D01*
X162208762Y-128954956D01*
X162208760Y-128954955D01*
X162052001Y-128934318D01*
X162051999Y-128934318D01*
X161895239Y-128954955D01*
X161895237Y-128954956D01*
X161749160Y-129015463D01*
X161623718Y-129111718D01*
X161527463Y-129237160D01*
X161466956Y-129383237D01*
X161466955Y-129383239D01*
X161446318Y-129539998D01*
X159628020Y-129539998D01*
X159616165Y-129457543D01*
X159556377Y-129326627D01*
X159462128Y-129217857D01*
X159341053Y-129140047D01*
X159341051Y-129140046D01*
X159341049Y-129140045D01*
X159341050Y-129140045D01*
X159202963Y-129099500D01*
X159202961Y-129099500D01*
X159059039Y-129099500D01*
X159059036Y-129099500D01*
X158920949Y-129140045D01*
X158799873Y-129217856D01*
X158705623Y-129326626D01*
X158705622Y-129326628D01*
X158645834Y-129457543D01*
X158625353Y-129600000D01*
X157500500Y-129600000D01*
X157500500Y-124415477D01*
X161649499Y-124415477D01*
X161678340Y-124560464D01*
X161678343Y-124560474D01*
X161734913Y-124697046D01*
X161734914Y-124697048D01*
X161734916Y-124697052D01*
X161749323Y-124718614D01*
X161749389Y-124718712D01*
X161749388Y-124718712D01*
X161817046Y-124819971D01*
X161817052Y-124819978D01*
X164161459Y-127164384D01*
X164161466Y-127164390D01*
X164284385Y-127246521D01*
X164284386Y-127246521D01*
X164284387Y-127246522D01*
X164420968Y-127303096D01*
X164420972Y-127303096D01*
X164420973Y-127303097D01*
X164565961Y-127331938D01*
X164565964Y-127331938D01*
X164713800Y-127331938D01*
X164811342Y-127312534D01*
X164858793Y-127303096D01*
X164995375Y-127246522D01*
X165118297Y-127164389D01*
X165222832Y-127059854D01*
X165304965Y-126936932D01*
X165361539Y-126800350D01*
X165390381Y-126655355D01*
X165390381Y-126507521D01*
X165390381Y-126507518D01*
X165361540Y-126362530D01*
X165361539Y-126362529D01*
X165361539Y-126362525D01*
X165304965Y-126225944D01*
X165265995Y-126167621D01*
X165222833Y-126103023D01*
X165222827Y-126103016D01*
X163178242Y-124058431D01*
X163144757Y-123997108D01*
X163144306Y-123994942D01*
X163121659Y-123881092D01*
X163121658Y-123881091D01*
X163121658Y-123881087D01*
X163121656Y-123881082D01*
X163065087Y-123744511D01*
X163065080Y-123744498D01*
X162982951Y-123621584D01*
X162982948Y-123621580D01*
X162878419Y-123517051D01*
X162878415Y-123517048D01*
X162755501Y-123434919D01*
X162755488Y-123434912D01*
X162618917Y-123378343D01*
X162618907Y-123378340D01*
X162473920Y-123349500D01*
X162473918Y-123349500D01*
X162326082Y-123349500D01*
X162326080Y-123349500D01*
X162181092Y-123378340D01*
X162181082Y-123378343D01*
X162044511Y-123434912D01*
X162044498Y-123434919D01*
X161921584Y-123517048D01*
X161921580Y-123517051D01*
X161817051Y-123621580D01*
X161817048Y-123621584D01*
X161734919Y-123744498D01*
X161734912Y-123744511D01*
X161678343Y-123881082D01*
X161678340Y-123881092D01*
X161649500Y-124026079D01*
X161649500Y-124026082D01*
X161649500Y-124415475D01*
X161649500Y-124415477D01*
X161649499Y-124415477D01*
X157500500Y-124415477D01*
X157500500Y-121010000D01*
X158514353Y-121010000D01*
X158534834Y-121152456D01*
X158579742Y-121250788D01*
X158594623Y-121283373D01*
X158688872Y-121392143D01*
X158809947Y-121469953D01*
X158809950Y-121469954D01*
X158809949Y-121469954D01*
X158948036Y-121510499D01*
X158948038Y-121510500D01*
X158948039Y-121510500D01*
X159091962Y-121510500D01*
X159091962Y-121510499D01*
X159211165Y-121475499D01*
X159230050Y-121469954D01*
X159230050Y-121469953D01*
X159230053Y-121469953D01*
X159351128Y-121392143D01*
X159445377Y-121283373D01*
X159505165Y-121152457D01*
X159525647Y-121010000D01*
X159505165Y-120867543D01*
X159445377Y-120736627D01*
X159351128Y-120627857D01*
X159230053Y-120550047D01*
X159230051Y-120550046D01*
X159230049Y-120550045D01*
X159230050Y-120550045D01*
X159091963Y-120509500D01*
X159091961Y-120509500D01*
X158948039Y-120509500D01*
X158948036Y-120509500D01*
X158809949Y-120550045D01*
X158688873Y-120627856D01*
X158594623Y-120736626D01*
X158594622Y-120736628D01*
X158534834Y-120867543D01*
X158514353Y-121010000D01*
X157500500Y-121010000D01*
X157500500Y-118889998D01*
X157894318Y-118889998D01*
X157894318Y-118890001D01*
X157914955Y-119046760D01*
X157914956Y-119046762D01*
X157960519Y-119156762D01*
X157975464Y-119192841D01*
X158071718Y-119318282D01*
X158197159Y-119414536D01*
X158343238Y-119475044D01*
X158421619Y-119485363D01*
X158499999Y-119495682D01*
X158500000Y-119495682D01*
X158500001Y-119495682D01*
X158552254Y-119488802D01*
X158656762Y-119475044D01*
X158802841Y-119414536D01*
X158928282Y-119318282D01*
X159024536Y-119192841D01*
X159085044Y-119046762D01*
X159091201Y-118999998D01*
X161794318Y-118999998D01*
X161794318Y-119000001D01*
X161814955Y-119156760D01*
X161814956Y-119156762D01*
X161875464Y-119302841D01*
X161971718Y-119428282D01*
X162097159Y-119524536D01*
X162243238Y-119585044D01*
X162321619Y-119595363D01*
X162399999Y-119605682D01*
X162400000Y-119605682D01*
X162400001Y-119605682D01*
X162452254Y-119598802D01*
X162556762Y-119585044D01*
X162702841Y-119524536D01*
X162828282Y-119428282D01*
X162924536Y-119302841D01*
X162985044Y-119156762D01*
X163005682Y-119000000D01*
X162985044Y-118843238D01*
X162924536Y-118697159D01*
X162828282Y-118571718D01*
X162702841Y-118475464D01*
X162669655Y-118461718D01*
X162556762Y-118414956D01*
X162556760Y-118414955D01*
X162400001Y-118394318D01*
X162399999Y-118394318D01*
X162243239Y-118414955D01*
X162243237Y-118414956D01*
X162097160Y-118475463D01*
X161971718Y-118571718D01*
X161875463Y-118697160D01*
X161814956Y-118843237D01*
X161814955Y-118843239D01*
X161794318Y-118999998D01*
X159091201Y-118999998D01*
X159105682Y-118890000D01*
X159105010Y-118884899D01*
X159085044Y-118733239D01*
X159085044Y-118733238D01*
X159024536Y-118587159D01*
X158928282Y-118461718D01*
X158802841Y-118365464D01*
X158747297Y-118342457D01*
X158656762Y-118304956D01*
X158656760Y-118304955D01*
X158500001Y-118284318D01*
X158499999Y-118284318D01*
X158343239Y-118304955D01*
X158343237Y-118304956D01*
X158197160Y-118365463D01*
X158071718Y-118461718D01*
X157975463Y-118587160D01*
X157914956Y-118733237D01*
X157914955Y-118733239D01*
X157894318Y-118889998D01*
X157500500Y-118889998D01*
X157500500Y-113380000D01*
X159020000Y-113380000D01*
X159020000Y-113677844D01*
X159026401Y-113737372D01*
X159026403Y-113737379D01*
X159076645Y-113872086D01*
X159076649Y-113872093D01*
X159162809Y-113987187D01*
X159253720Y-114055244D01*
X159295590Y-114111178D01*
X159300574Y-114180870D01*
X159296450Y-114195463D01*
X159283687Y-114231938D01*
X159283685Y-114231945D01*
X159264751Y-114399997D01*
X159264751Y-114400002D01*
X159283685Y-114568056D01*
X159339545Y-114727694D01*
X159339547Y-114727697D01*
X159429518Y-114870884D01*
X159429523Y-114870890D01*
X159505952Y-114947319D01*
X159539437Y-115008642D01*
X159534453Y-115078334D01*
X159505952Y-115122681D01*
X159429523Y-115199109D01*
X159429518Y-115199115D01*
X159339547Y-115342302D01*
X159339545Y-115342305D01*
X159283685Y-115501943D01*
X159264751Y-115669997D01*
X159264751Y-115670002D01*
X159283685Y-115838056D01*
X159339545Y-115997694D01*
X159339547Y-115997697D01*
X159429518Y-116140884D01*
X159429523Y-116140890D01*
X159505952Y-116217319D01*
X159539437Y-116278642D01*
X159534453Y-116348334D01*
X159505952Y-116392681D01*
X159429523Y-116469109D01*
X159429518Y-116469115D01*
X159339547Y-116612302D01*
X159339545Y-116612305D01*
X159283685Y-116771943D01*
X159264751Y-116939997D01*
X159264751Y-116940002D01*
X159283685Y-117108056D01*
X159339545Y-117267694D01*
X159339547Y-117267697D01*
X159429518Y-117410884D01*
X159429523Y-117410890D01*
X159549109Y-117530476D01*
X159549115Y-117530481D01*
X159692302Y-117620452D01*
X159692305Y-117620454D01*
X159692309Y-117620455D01*
X159692310Y-117620456D01*
X159738527Y-117636628D01*
X159851943Y-117676314D01*
X160019997Y-117695249D01*
X160020000Y-117695249D01*
X160020003Y-117695249D01*
X160188056Y-117676314D01*
X160188059Y-117676313D01*
X160347690Y-117620456D01*
X160347692Y-117620454D01*
X160347694Y-117620454D01*
X160347697Y-117620452D01*
X160490884Y-117530481D01*
X160490885Y-117530480D01*
X160490890Y-117530477D01*
X160610477Y-117410890D01*
X160610481Y-117410884D01*
X160700452Y-117267697D01*
X160700454Y-117267694D01*
X160700454Y-117267692D01*
X160700456Y-117267690D01*
X160756313Y-117108059D01*
X160756313Y-117108058D01*
X160756314Y-117108056D01*
X160775249Y-116940002D01*
X160775249Y-116939997D01*
X160756314Y-116771943D01*
X160714214Y-116651628D01*
X160700456Y-116612310D01*
X160700455Y-116612309D01*
X160700454Y-116612305D01*
X160700452Y-116612302D01*
X160610481Y-116469115D01*
X160610476Y-116469109D01*
X160534048Y-116392681D01*
X160500563Y-116331358D01*
X160505547Y-116261666D01*
X160534048Y-116217319D01*
X160560235Y-116191132D01*
X160610477Y-116140890D01*
X160628493Y-116112218D01*
X160700452Y-115997697D01*
X160700453Y-115997694D01*
X160700456Y-115997690D01*
X160713582Y-115960176D01*
X160754300Y-115903402D01*
X160819252Y-115877653D01*
X160865558Y-115882154D01*
X160928038Y-115900500D01*
X160928039Y-115900500D01*
X161071962Y-115900500D01*
X161071962Y-115900499D01*
X161198412Y-115863371D01*
X161210050Y-115859954D01*
X161210050Y-115859953D01*
X161210053Y-115859953D01*
X161331128Y-115782143D01*
X161425377Y-115673373D01*
X161458886Y-115600000D01*
X164694353Y-115600000D01*
X164714834Y-115742456D01*
X164767637Y-115858076D01*
X164774623Y-115873373D01*
X164868872Y-115982143D01*
X164989947Y-116059953D01*
X165006348Y-116064768D01*
X165065125Y-116102541D01*
X165094152Y-116166097D01*
X165094153Y-116191132D01*
X165094353Y-116191132D01*
X165094353Y-116199999D01*
X165111718Y-116320778D01*
X165101774Y-116389937D01*
X165056019Y-116442741D01*
X165023915Y-116457402D01*
X164997881Y-116465045D01*
X164876806Y-116542856D01*
X164782556Y-116651626D01*
X164782555Y-116651628D01*
X164722767Y-116782543D01*
X164702286Y-116925000D01*
X164722767Y-117067456D01*
X164745785Y-117117857D01*
X164782556Y-117198373D01*
X164876805Y-117307143D01*
X164997880Y-117384953D01*
X164997883Y-117384954D01*
X164997882Y-117384954D01*
X165109279Y-117417663D01*
X165168058Y-117455437D01*
X165197083Y-117518993D01*
X165207947Y-117594555D01*
X165198003Y-117663714D01*
X165152248Y-117716518D01*
X165120146Y-117731178D01*
X165089951Y-117740044D01*
X165089950Y-117740045D01*
X164968873Y-117817856D01*
X164874623Y-117926626D01*
X164874622Y-117926628D01*
X164814834Y-118057543D01*
X164794353Y-118200000D01*
X164814834Y-118342456D01*
X164848520Y-118416216D01*
X164874623Y-118473373D01*
X164968872Y-118582143D01*
X165051269Y-118635096D01*
X165097023Y-118687899D01*
X165106967Y-118757057D01*
X165097024Y-118790922D01*
X165089835Y-118806663D01*
X165089834Y-118806664D01*
X165069353Y-118949121D01*
X165089834Y-119091577D01*
X165119603Y-119156760D01*
X165149623Y-119222494D01*
X165243872Y-119331264D01*
X165364947Y-119409074D01*
X165364950Y-119409075D01*
X165364949Y-119409075D01*
X165503036Y-119449620D01*
X165503038Y-119449621D01*
X165503039Y-119449621D01*
X165646962Y-119449621D01*
X165646962Y-119449620D01*
X165785053Y-119409074D01*
X165906128Y-119331264D01*
X166000377Y-119222494D01*
X166060165Y-119091578D01*
X166080647Y-118949121D01*
X166060165Y-118806664D01*
X166000377Y-118675748D01*
X165906128Y-118566978D01*
X165823730Y-118514024D01*
X165777976Y-118461221D01*
X165768032Y-118392062D01*
X165777977Y-118358195D01*
X165785165Y-118342457D01*
X165805647Y-118200000D01*
X165792052Y-118105443D01*
X165801996Y-118036285D01*
X165847751Y-117983481D01*
X165879856Y-117968820D01*
X165910050Y-117959954D01*
X165910050Y-117959953D01*
X165910053Y-117959953D01*
X166031128Y-117882143D01*
X166125377Y-117773373D01*
X166173749Y-117667454D01*
X168219353Y-117667454D01*
X168239834Y-117809910D01*
X168299622Y-117940825D01*
X168299623Y-117940827D01*
X168393872Y-118049597D01*
X168393874Y-118049598D01*
X168393874Y-118049599D01*
X168422548Y-118068026D01*
X168468304Y-118120829D01*
X168478248Y-118189988D01*
X168468305Y-118223852D01*
X168460045Y-118241939D01*
X168460043Y-118241943D01*
X168439562Y-118384400D01*
X168460043Y-118526856D01*
X168491425Y-118595572D01*
X168519832Y-118657773D01*
X168614081Y-118766543D01*
X168735156Y-118844353D01*
X168735159Y-118844354D01*
X168735158Y-118844354D01*
X168873245Y-118884899D01*
X168873247Y-118884900D01*
X168873248Y-118884900D01*
X169017171Y-118884900D01*
X169017171Y-118884899D01*
X169155262Y-118844353D01*
X169276337Y-118766543D01*
X169370586Y-118657773D01*
X169430374Y-118526857D01*
X169450856Y-118384400D01*
X169430374Y-118241943D01*
X169370586Y-118111027D01*
X169276337Y-118002257D01*
X169247658Y-117983826D01*
X169201904Y-117931023D01*
X169191960Y-117861864D01*
X169201902Y-117828002D01*
X169210165Y-117809911D01*
X169230647Y-117667454D01*
X169210165Y-117524997D01*
X169153001Y-117399828D01*
X169143058Y-117330672D01*
X169172082Y-117267118D01*
X169210050Y-117223299D01*
X169234123Y-117195519D01*
X169234123Y-117195517D01*
X169234126Y-117195515D01*
X169293914Y-117064599D01*
X169304295Y-116992398D01*
X172622318Y-116992398D01*
X172622318Y-116992401D01*
X172642955Y-117149160D01*
X172642956Y-117149162D01*
X172675043Y-117226628D01*
X172703464Y-117295241D01*
X172799718Y-117420682D01*
X172925159Y-117516936D01*
X173071238Y-117577444D01*
X173149619Y-117587763D01*
X173227999Y-117598082D01*
X173228000Y-117598082D01*
X173228001Y-117598082D01*
X173280254Y-117591202D01*
X173384762Y-117577444D01*
X173530841Y-117516936D01*
X173656282Y-117420682D01*
X173752536Y-117295241D01*
X173813044Y-117149162D01*
X173833682Y-116992400D01*
X173830675Y-116969562D01*
X173813044Y-116835639D01*
X173813044Y-116835638D01*
X173752536Y-116689559D01*
X173656282Y-116564118D01*
X173530841Y-116467864D01*
X173524040Y-116465047D01*
X173384762Y-116407356D01*
X173384760Y-116407355D01*
X173228001Y-116386718D01*
X173227999Y-116386718D01*
X173071239Y-116407355D01*
X173071237Y-116407356D01*
X172925160Y-116467863D01*
X172799718Y-116564118D01*
X172703463Y-116689560D01*
X172642956Y-116835637D01*
X172642955Y-116835639D01*
X172622318Y-116992398D01*
X169304295Y-116992398D01*
X169314396Y-116922142D01*
X169293914Y-116779685D01*
X169234126Y-116648769D01*
X169139877Y-116539999D01*
X169018802Y-116462189D01*
X169018800Y-116462188D01*
X169018798Y-116462187D01*
X169018799Y-116462187D01*
X168880712Y-116421642D01*
X168880710Y-116421642D01*
X168736788Y-116421642D01*
X168736785Y-116421642D01*
X168598698Y-116462187D01*
X168477622Y-116539998D01*
X168477621Y-116539998D01*
X168477621Y-116539999D01*
X168475145Y-116542857D01*
X168383372Y-116648768D01*
X168383371Y-116648770D01*
X168323583Y-116779685D01*
X168303102Y-116922142D01*
X168323583Y-117064596D01*
X168323583Y-117064597D01*
X168323584Y-117064599D01*
X168343430Y-117108056D01*
X168380746Y-117189766D01*
X168390689Y-117258924D01*
X168361665Y-117322478D01*
X168299625Y-117394077D01*
X168299622Y-117394082D01*
X168239834Y-117524997D01*
X168219353Y-117667454D01*
X166173749Y-117667454D01*
X166185165Y-117642457D01*
X166205647Y-117500000D01*
X166185165Y-117357543D01*
X166125377Y-117226627D01*
X166031128Y-117117857D01*
X165934452Y-117055727D01*
X165910050Y-117040045D01*
X165798652Y-117007336D01*
X165739874Y-116969562D01*
X165710849Y-116906007D01*
X165702587Y-116848543D01*
X165696214Y-116804218D01*
X165706157Y-116735063D01*
X165751912Y-116682259D01*
X165784017Y-116667597D01*
X165810053Y-116659953D01*
X165931128Y-116582143D01*
X166025377Y-116473373D01*
X166085165Y-116342457D01*
X166105647Y-116200000D01*
X166085165Y-116057543D01*
X166025377Y-115926627D01*
X165931128Y-115817857D01*
X165810053Y-115740047D01*
X165810050Y-115740046D01*
X165793646Y-115735229D01*
X165734869Y-115697453D01*
X165705847Y-115633896D01*
X165705848Y-115608869D01*
X165705647Y-115608869D01*
X165705647Y-115600002D01*
X165704119Y-115589373D01*
X165696102Y-115533615D01*
X165700935Y-115500000D01*
X168194353Y-115500000D01*
X168214834Y-115642456D01*
X168260504Y-115742457D01*
X168274623Y-115773373D01*
X168368872Y-115882143D01*
X168489947Y-115959953D01*
X168489950Y-115959954D01*
X168489949Y-115959954D01*
X168628036Y-116000499D01*
X168628038Y-116000500D01*
X168628039Y-116000500D01*
X168771962Y-116000500D01*
X168771962Y-116000499D01*
X168910053Y-115959953D01*
X169031128Y-115882143D01*
X169125377Y-115773373D01*
X169185165Y-115642457D01*
X169205647Y-115500000D01*
X169185165Y-115357543D01*
X169125377Y-115226627D01*
X169089355Y-115185055D01*
X170750748Y-115185055D01*
X170750748Y-115185058D01*
X170771385Y-115341817D01*
X170771386Y-115341819D01*
X170819320Y-115457543D01*
X170831894Y-115487898D01*
X170928148Y-115613339D01*
X171053589Y-115709593D01*
X171199668Y-115770101D01*
X171278049Y-115780420D01*
X171356429Y-115790739D01*
X171356430Y-115790739D01*
X171356431Y-115790739D01*
X171421723Y-115782143D01*
X171513192Y-115770101D01*
X171659271Y-115709593D01*
X171784712Y-115613339D01*
X171880966Y-115487898D01*
X171905034Y-115429792D01*
X172842479Y-115429792D01*
X172842479Y-115429795D01*
X172863116Y-115586554D01*
X172863117Y-115586556D01*
X172907195Y-115692971D01*
X172923625Y-115732635D01*
X173019879Y-115858076D01*
X173145320Y-115954330D01*
X173291399Y-116014838D01*
X173369780Y-116025157D01*
X173448160Y-116035476D01*
X173448161Y-116035476D01*
X173448162Y-116035476D01*
X173500415Y-116028596D01*
X173604923Y-116014838D01*
X173751002Y-115954330D01*
X173876443Y-115858076D01*
X173968328Y-115738327D01*
X174024755Y-115697126D01*
X174094501Y-115692971D01*
X174133742Y-115709499D01*
X174152563Y-115721594D01*
X174237147Y-115775953D01*
X174237150Y-115775954D01*
X174237149Y-115775954D01*
X174375236Y-115816499D01*
X174375238Y-115816500D01*
X174375239Y-115816500D01*
X174519162Y-115816500D01*
X174519162Y-115816499D01*
X174657253Y-115775953D01*
X174778328Y-115698143D01*
X174872577Y-115589373D01*
X174932365Y-115458457D01*
X174952847Y-115316000D01*
X174932365Y-115173543D01*
X174872577Y-115042627D01*
X174778328Y-114933857D01*
X174657253Y-114856047D01*
X174657251Y-114856046D01*
X174657249Y-114856045D01*
X174657250Y-114856045D01*
X174519163Y-114815500D01*
X174519161Y-114815500D01*
X174375239Y-114815500D01*
X174375236Y-114815500D01*
X174237149Y-114856045D01*
X174116072Y-114933856D01*
X174060635Y-114997834D01*
X174001857Y-115035607D01*
X173931987Y-115035607D01*
X173879242Y-115004311D01*
X173876447Y-115001516D01*
X173876444Y-115001514D01*
X173876443Y-115001512D01*
X173751002Y-114905258D01*
X173736246Y-114899146D01*
X173604923Y-114844750D01*
X173604921Y-114844749D01*
X173448162Y-114824112D01*
X173448160Y-114824112D01*
X173291400Y-114844749D01*
X173291398Y-114844750D01*
X173145321Y-114905257D01*
X173019879Y-115001512D01*
X172923624Y-115126954D01*
X172863117Y-115273031D01*
X172863116Y-115273033D01*
X172842479Y-115429792D01*
X171905034Y-115429792D01*
X171941474Y-115341819D01*
X171962112Y-115185057D01*
X171959368Y-115164217D01*
X171941474Y-115028296D01*
X171941474Y-115028295D01*
X171880966Y-114882216D01*
X171784712Y-114756775D01*
X171659271Y-114660521D01*
X171577441Y-114626626D01*
X171513192Y-114600013D01*
X171513190Y-114600012D01*
X171356431Y-114579375D01*
X171356429Y-114579375D01*
X171199669Y-114600012D01*
X171199667Y-114600013D01*
X171053590Y-114660520D01*
X170928148Y-114756775D01*
X170831893Y-114882217D01*
X170771386Y-115028294D01*
X170771385Y-115028296D01*
X170750748Y-115185055D01*
X169089355Y-115185055D01*
X169031128Y-115117857D01*
X168910053Y-115040047D01*
X168910051Y-115040046D01*
X168910049Y-115040045D01*
X168910050Y-115040045D01*
X168771963Y-114999500D01*
X168771961Y-114999500D01*
X168628039Y-114999500D01*
X168628036Y-114999500D01*
X168489949Y-115040045D01*
X168368873Y-115117856D01*
X168368872Y-115117856D01*
X168368872Y-115117857D01*
X168356290Y-115132377D01*
X168274623Y-115226626D01*
X168274622Y-115226628D01*
X168214834Y-115357543D01*
X168194353Y-115500000D01*
X165700935Y-115500000D01*
X165706045Y-115464459D01*
X165751800Y-115411655D01*
X165783906Y-115396993D01*
X165910050Y-115359954D01*
X165910050Y-115359953D01*
X165910053Y-115359953D01*
X166031128Y-115282143D01*
X166125377Y-115173373D01*
X166185165Y-115042457D01*
X166205647Y-114900000D01*
X166185165Y-114757543D01*
X166125377Y-114626627D01*
X166031128Y-114517857D01*
X165910053Y-114440047D01*
X165910051Y-114440046D01*
X165910049Y-114440045D01*
X165910050Y-114440045D01*
X165771963Y-114399500D01*
X165771961Y-114399500D01*
X165628039Y-114399500D01*
X165628036Y-114399500D01*
X165489949Y-114440045D01*
X165368873Y-114517856D01*
X165274623Y-114626626D01*
X165274622Y-114626628D01*
X165214834Y-114757543D01*
X165194353Y-114900000D01*
X165203897Y-114966383D01*
X165193953Y-115035541D01*
X165148198Y-115088345D01*
X165116094Y-115103006D01*
X164989949Y-115140045D01*
X164868873Y-115217856D01*
X164774623Y-115326626D01*
X164774622Y-115326628D01*
X164714834Y-115457543D01*
X164694353Y-115600000D01*
X161458886Y-115600000D01*
X161485165Y-115542457D01*
X161490955Y-115502183D01*
X161519979Y-115438628D01*
X161578757Y-115400853D01*
X161578759Y-115400853D01*
X161718050Y-115359954D01*
X161718050Y-115359953D01*
X161718053Y-115359953D01*
X161839128Y-115282143D01*
X161933377Y-115173373D01*
X161993165Y-115042457D01*
X162013647Y-114900000D01*
X161993165Y-114757543D01*
X161933377Y-114626627D01*
X161839128Y-114517857D01*
X161718053Y-114440047D01*
X161718051Y-114440046D01*
X161718049Y-114440045D01*
X161718050Y-114440045D01*
X161579963Y-114399500D01*
X161579961Y-114399500D01*
X161436039Y-114399500D01*
X161436036Y-114399500D01*
X161297949Y-114440045D01*
X161176873Y-114517856D01*
X161082623Y-114626626D01*
X161082622Y-114626628D01*
X161022834Y-114757543D01*
X161017044Y-114797817D01*
X160988018Y-114861373D01*
X160929240Y-114899146D01*
X160830677Y-114928086D01*
X160760807Y-114928086D01*
X160702030Y-114890311D01*
X160673005Y-114826755D01*
X160682949Y-114757597D01*
X160690745Y-114743144D01*
X160700456Y-114727690D01*
X160756313Y-114568059D01*
X160756313Y-114568058D01*
X160756314Y-114568056D01*
X160775249Y-114400002D01*
X160775249Y-114399997D01*
X160756314Y-114231945D01*
X160756312Y-114231938D01*
X160743650Y-114195753D01*
X168397113Y-114195753D01*
X168417594Y-114338209D01*
X168464102Y-114440045D01*
X168477383Y-114469126D01*
X168571632Y-114577896D01*
X168692707Y-114655706D01*
X168692710Y-114655707D01*
X168692709Y-114655707D01*
X168830796Y-114696252D01*
X168830798Y-114696253D01*
X168830799Y-114696253D01*
X168974722Y-114696253D01*
X168974722Y-114696252D01*
X169081881Y-114664788D01*
X169112810Y-114655707D01*
X169112810Y-114655706D01*
X169112813Y-114655706D01*
X169233888Y-114577896D01*
X169328137Y-114469126D01*
X169387925Y-114338210D01*
X169408407Y-114195753D01*
X169387925Y-114053296D01*
X169328137Y-113922380D01*
X169233888Y-113813610D01*
X169112813Y-113735800D01*
X169112811Y-113735799D01*
X169112809Y-113735798D01*
X169112810Y-113735798D01*
X168974723Y-113695253D01*
X168974721Y-113695253D01*
X168830799Y-113695253D01*
X168830796Y-113695253D01*
X168692709Y-113735798D01*
X168571633Y-113813609D01*
X168477383Y-113922379D01*
X168477382Y-113922381D01*
X168417594Y-114053296D01*
X168397113Y-114195753D01*
X160743650Y-114195753D01*
X160743548Y-114195462D01*
X160739986Y-114125687D01*
X160774715Y-114065059D01*
X160786279Y-114055243D01*
X160877191Y-113987186D01*
X160963350Y-113872093D01*
X160963354Y-113872086D01*
X161013596Y-113737379D01*
X161013598Y-113737372D01*
X161019999Y-113677844D01*
X161020000Y-113677827D01*
X161020000Y-113380000D01*
X160229618Y-113380000D01*
X160280064Y-113329554D01*
X160322851Y-113255445D01*
X160345000Y-113172787D01*
X160345000Y-113087213D01*
X160329669Y-113030000D01*
X164949953Y-113030000D01*
X164970434Y-113172456D01*
X165025290Y-113292572D01*
X165030223Y-113303373D01*
X165124472Y-113412143D01*
X165245547Y-113489953D01*
X165245550Y-113489954D01*
X165245549Y-113489954D01*
X165383636Y-113530499D01*
X165383638Y-113530500D01*
X165436420Y-113530500D01*
X165503459Y-113550185D01*
X165549214Y-113602989D01*
X165559158Y-113636853D01*
X165580034Y-113782056D01*
X165639822Y-113912971D01*
X165639823Y-113912973D01*
X165734072Y-114021743D01*
X165855147Y-114099553D01*
X165855150Y-114099554D01*
X165855149Y-114099554D01*
X165993236Y-114140099D01*
X165993238Y-114140100D01*
X165993239Y-114140100D01*
X166137162Y-114140100D01*
X166137162Y-114140099D01*
X166275253Y-114099553D01*
X166396328Y-114021743D01*
X166490577Y-113912973D01*
X166550365Y-113782057D01*
X166570847Y-113639600D01*
X166557965Y-113550000D01*
X176894427Y-113550000D01*
X176914687Y-113807427D01*
X176974964Y-114058500D01*
X176974968Y-114058512D01*
X177073781Y-114297070D01*
X177073783Y-114297074D01*
X177073784Y-114297075D01*
X177208703Y-114517244D01*
X177376404Y-114713596D01*
X177572756Y-114881297D01*
X177792925Y-115016216D01*
X177792927Y-115016216D01*
X177792929Y-115016218D01*
X177839739Y-115035607D01*
X178031490Y-115115033D01*
X178043249Y-115117856D01*
X178091441Y-115129426D01*
X178152033Y-115164217D01*
X178184197Y-115226243D01*
X178177721Y-115295812D01*
X178134662Y-115350836D01*
X178091441Y-115370574D01*
X178031499Y-115384964D01*
X178031487Y-115384968D01*
X177792929Y-115483781D01*
X177572755Y-115618703D01*
X177376404Y-115786404D01*
X177208703Y-115982755D01*
X177073781Y-116202929D01*
X176974968Y-116441487D01*
X176974964Y-116441499D01*
X176914687Y-116692572D01*
X176894427Y-116950000D01*
X176914687Y-117207427D01*
X176974964Y-117458500D01*
X176974968Y-117458512D01*
X177073781Y-117697070D01*
X177073783Y-117697074D01*
X177073784Y-117697075D01*
X177208703Y-117917244D01*
X177376404Y-118113596D01*
X177572756Y-118281297D01*
X177792925Y-118416216D01*
X177792927Y-118416216D01*
X177792929Y-118416218D01*
X177867312Y-118447028D01*
X178031490Y-118515033D01*
X178282576Y-118575313D01*
X178540000Y-118595573D01*
X178797424Y-118575313D01*
X179048510Y-118515033D01*
X179287075Y-118416216D01*
X179507244Y-118281297D01*
X179703596Y-118113596D01*
X179871297Y-117917244D01*
X180006216Y-117697075D01*
X180105033Y-117458510D01*
X180165313Y-117207424D01*
X180185573Y-116950000D01*
X180165313Y-116692576D01*
X180105033Y-116441490D01*
X180006216Y-116202925D01*
X179871297Y-115982756D01*
X179703596Y-115786404D01*
X179507244Y-115618703D01*
X179287075Y-115483784D01*
X179287074Y-115483783D01*
X179287070Y-115483781D01*
X179048512Y-115384968D01*
X179048514Y-115384968D01*
X179048510Y-115384967D01*
X179048506Y-115384966D01*
X179048497Y-115384963D01*
X178988559Y-115370574D01*
X178927966Y-115335784D01*
X178895802Y-115273758D01*
X178902278Y-115204189D01*
X178945337Y-115149165D01*
X178988559Y-115129426D01*
X179036751Y-115117856D01*
X179048510Y-115115033D01*
X179287075Y-115016216D01*
X179507244Y-114881297D01*
X179703596Y-114713596D01*
X179871297Y-114517244D01*
X180006216Y-114297075D01*
X180105033Y-114058510D01*
X180165313Y-113807424D01*
X180185573Y-113550000D01*
X186814427Y-113550000D01*
X186834687Y-113807427D01*
X186894964Y-114058500D01*
X186894968Y-114058512D01*
X186993781Y-114297070D01*
X186993783Y-114297074D01*
X186993784Y-114297075D01*
X187128703Y-114517244D01*
X187296404Y-114713596D01*
X187492756Y-114881297D01*
X187712925Y-115016216D01*
X187712927Y-115016216D01*
X187712929Y-115016218D01*
X187759739Y-115035607D01*
X187951490Y-115115033D01*
X187963249Y-115117856D01*
X188011441Y-115129426D01*
X188072033Y-115164217D01*
X188104197Y-115226243D01*
X188097721Y-115295812D01*
X188054662Y-115350836D01*
X188011441Y-115370574D01*
X187951499Y-115384964D01*
X187951487Y-115384968D01*
X187712929Y-115483781D01*
X187492755Y-115618703D01*
X187296404Y-115786404D01*
X187128703Y-115982755D01*
X186993781Y-116202929D01*
X186894968Y-116441487D01*
X186894964Y-116441499D01*
X186834687Y-116692572D01*
X186814427Y-116950000D01*
X186834687Y-117207427D01*
X186894964Y-117458500D01*
X186894968Y-117458512D01*
X186993781Y-117697070D01*
X186993783Y-117697074D01*
X186993784Y-117697075D01*
X187128703Y-117917244D01*
X187296404Y-118113596D01*
X187492756Y-118281297D01*
X187712925Y-118416216D01*
X187712927Y-118416216D01*
X187712929Y-118416218D01*
X187787312Y-118447028D01*
X187951490Y-118515033D01*
X188202576Y-118575313D01*
X188460000Y-118595573D01*
X188717424Y-118575313D01*
X188968510Y-118515033D01*
X189207075Y-118416216D01*
X189427244Y-118281297D01*
X189623596Y-118113596D01*
X189791297Y-117917244D01*
X189926216Y-117697075D01*
X190025033Y-117458510D01*
X190085313Y-117207424D01*
X190105573Y-116950000D01*
X190097588Y-116848543D01*
X195749499Y-116848543D01*
X195787947Y-117041829D01*
X195787950Y-117041839D01*
X195863364Y-117223907D01*
X195863371Y-117223920D01*
X195972860Y-117387781D01*
X195972863Y-117387785D01*
X196112214Y-117527136D01*
X196112218Y-117527139D01*
X196276079Y-117636628D01*
X196276092Y-117636635D01*
X196417601Y-117695249D01*
X196458165Y-117712051D01*
X196458169Y-117712051D01*
X196458170Y-117712052D01*
X196651456Y-117750500D01*
X196651459Y-117750500D01*
X198348543Y-117750500D01*
X198478582Y-117724632D01*
X198541835Y-117712051D01*
X198723914Y-117636632D01*
X198887782Y-117527139D01*
X199027139Y-117387782D01*
X199136632Y-117223914D01*
X199212051Y-117041835D01*
X199232307Y-116940002D01*
X199250500Y-116848543D01*
X200749499Y-116848543D01*
X200787947Y-117041829D01*
X200787950Y-117041839D01*
X200863364Y-117223907D01*
X200863371Y-117223920D01*
X200972860Y-117387781D01*
X200972863Y-117387785D01*
X201112214Y-117527136D01*
X201112218Y-117527139D01*
X201276079Y-117636628D01*
X201276092Y-117636635D01*
X201417601Y-117695249D01*
X201458165Y-117712051D01*
X201458169Y-117712051D01*
X201458170Y-117712052D01*
X201651456Y-117750500D01*
X201651459Y-117750500D01*
X203348543Y-117750500D01*
X203478582Y-117724632D01*
X203541835Y-117712051D01*
X203723914Y-117636632D01*
X203887782Y-117527139D01*
X204027139Y-117387782D01*
X204136632Y-117223914D01*
X204212051Y-117041835D01*
X204232307Y-116940002D01*
X204250500Y-116848543D01*
X204250500Y-116651456D01*
X204212052Y-116458170D01*
X204212051Y-116458169D01*
X204212051Y-116458165D01*
X204196923Y-116421642D01*
X204136635Y-116276092D01*
X204136628Y-116276079D01*
X204027139Y-116112218D01*
X204027136Y-116112214D01*
X203887785Y-115972863D01*
X203887781Y-115972860D01*
X203723920Y-115863371D01*
X203723907Y-115863364D01*
X203541839Y-115787950D01*
X203541829Y-115787947D01*
X203348543Y-115749500D01*
X203348541Y-115749500D01*
X201651459Y-115749500D01*
X201651457Y-115749500D01*
X201458170Y-115787947D01*
X201458160Y-115787950D01*
X201276092Y-115863364D01*
X201276079Y-115863371D01*
X201112218Y-115972860D01*
X201112214Y-115972863D01*
X200972863Y-116112214D01*
X200972860Y-116112218D01*
X200863371Y-116276079D01*
X200863364Y-116276092D01*
X200787950Y-116458160D01*
X200787947Y-116458170D01*
X200749500Y-116651456D01*
X200749500Y-116651459D01*
X200749500Y-116848541D01*
X200749500Y-116848543D01*
X200749499Y-116848543D01*
X199250500Y-116848543D01*
X199250500Y-116651456D01*
X199212052Y-116458170D01*
X199212051Y-116458169D01*
X199212051Y-116458165D01*
X199196923Y-116421642D01*
X199136635Y-116276092D01*
X199136628Y-116276079D01*
X199027139Y-116112218D01*
X199027136Y-116112214D01*
X198887785Y-115972863D01*
X198887781Y-115972860D01*
X198723920Y-115863371D01*
X198723907Y-115863364D01*
X198541839Y-115787950D01*
X198541829Y-115787947D01*
X198348543Y-115749500D01*
X198348541Y-115749500D01*
X196651459Y-115749500D01*
X196651457Y-115749500D01*
X196458170Y-115787947D01*
X196458160Y-115787950D01*
X196276092Y-115863364D01*
X196276079Y-115863371D01*
X196112218Y-115972860D01*
X196112214Y-115972863D01*
X195972863Y-116112214D01*
X195972860Y-116112218D01*
X195863371Y-116276079D01*
X195863364Y-116276092D01*
X195787950Y-116458160D01*
X195787947Y-116458170D01*
X195749500Y-116651456D01*
X195749500Y-116651459D01*
X195749500Y-116848541D01*
X195749500Y-116848543D01*
X195749499Y-116848543D01*
X190097588Y-116848543D01*
X190085313Y-116692576D01*
X190025033Y-116441490D01*
X189926216Y-116202925D01*
X189791297Y-115982756D01*
X189623596Y-115786404D01*
X189427244Y-115618703D01*
X189207075Y-115483784D01*
X189207074Y-115483783D01*
X189207070Y-115483781D01*
X188968512Y-115384968D01*
X188968514Y-115384968D01*
X188968510Y-115384967D01*
X188968506Y-115384966D01*
X188968497Y-115384963D01*
X188908559Y-115370574D01*
X188847966Y-115335784D01*
X188815802Y-115273758D01*
X188822278Y-115204189D01*
X188865337Y-115149165D01*
X188908559Y-115129426D01*
X188956751Y-115117856D01*
X188968510Y-115115033D01*
X189207075Y-115016216D01*
X189427244Y-114881297D01*
X189623596Y-114713596D01*
X189791297Y-114517244D01*
X189926216Y-114297075D01*
X190025033Y-114058510D01*
X190085313Y-113807424D01*
X190105573Y-113550000D01*
X190085313Y-113292576D01*
X190025033Y-113041490D01*
X189932914Y-112819095D01*
X189926218Y-112802929D01*
X189897844Y-112756627D01*
X189791297Y-112582756D01*
X189623596Y-112386404D01*
X189427244Y-112218703D01*
X189207075Y-112083784D01*
X189207074Y-112083783D01*
X189207070Y-112083781D01*
X188968512Y-111984968D01*
X188968514Y-111984968D01*
X188968510Y-111984967D01*
X188968506Y-111984966D01*
X188968500Y-111984964D01*
X188717427Y-111924687D01*
X188460000Y-111904427D01*
X188202572Y-111924687D01*
X187951499Y-111984964D01*
X187951487Y-111984968D01*
X187712929Y-112083781D01*
X187492755Y-112218703D01*
X187296404Y-112386404D01*
X187128703Y-112582755D01*
X186993781Y-112802929D01*
X186894968Y-113041487D01*
X186894964Y-113041499D01*
X186834687Y-113292572D01*
X186814427Y-113550000D01*
X180185573Y-113550000D01*
X180165313Y-113292576D01*
X180105033Y-113041490D01*
X180012914Y-112819095D01*
X180006218Y-112802929D01*
X179977844Y-112756627D01*
X179871297Y-112582756D01*
X179703596Y-112386404D01*
X179507244Y-112218703D01*
X179287075Y-112083784D01*
X179287074Y-112083783D01*
X179287070Y-112083781D01*
X179048512Y-111984968D01*
X179048514Y-111984968D01*
X179048510Y-111984967D01*
X179048506Y-111984966D01*
X179048500Y-111984964D01*
X178797427Y-111924687D01*
X178540000Y-111904427D01*
X178282572Y-111924687D01*
X178031499Y-111984964D01*
X178031487Y-111984968D01*
X177792929Y-112083781D01*
X177572755Y-112218703D01*
X177376404Y-112386404D01*
X177208703Y-112582755D01*
X177073781Y-112802929D01*
X176974968Y-113041487D01*
X176974964Y-113041499D01*
X176914687Y-113292572D01*
X176894427Y-113550000D01*
X166557965Y-113550000D01*
X166550365Y-113497143D01*
X166490577Y-113366227D01*
X166396328Y-113257457D01*
X166275253Y-113179647D01*
X166275251Y-113179646D01*
X166275249Y-113179645D01*
X166275250Y-113179645D01*
X166137163Y-113139100D01*
X166137161Y-113139100D01*
X166084380Y-113139100D01*
X166017341Y-113119415D01*
X165971586Y-113066611D01*
X165961642Y-113032747D01*
X165940765Y-112887543D01*
X165932724Y-112869936D01*
X165880977Y-112756627D01*
X165786728Y-112647857D01*
X165665653Y-112570047D01*
X165665651Y-112570046D01*
X165665649Y-112570045D01*
X165665650Y-112570045D01*
X165527563Y-112529500D01*
X165527561Y-112529500D01*
X165383639Y-112529500D01*
X165383636Y-112529500D01*
X165245549Y-112570045D01*
X165124473Y-112647856D01*
X165030223Y-112756626D01*
X165030222Y-112756628D01*
X164970434Y-112887543D01*
X164949953Y-113030000D01*
X160329669Y-113030000D01*
X160322851Y-113004555D01*
X160280064Y-112930446D01*
X160229618Y-112880000D01*
X160270000Y-112880000D01*
X161020000Y-112880000D01*
X161020000Y-112582172D01*
X161019999Y-112582155D01*
X161013598Y-112522627D01*
X161013596Y-112522620D01*
X160963354Y-112387913D01*
X160963350Y-112387906D01*
X160877190Y-112272812D01*
X160877187Y-112272809D01*
X160762093Y-112186649D01*
X160762086Y-112186645D01*
X160627379Y-112136403D01*
X160627372Y-112136401D01*
X160567844Y-112130000D01*
X160270000Y-112130000D01*
X160270000Y-112880000D01*
X160229618Y-112880000D01*
X160219554Y-112869936D01*
X160145445Y-112827149D01*
X160062787Y-112805000D01*
X159977213Y-112805000D01*
X159894555Y-112827149D01*
X159820446Y-112869936D01*
X159759936Y-112930446D01*
X159717149Y-113004555D01*
X159695000Y-113087213D01*
X159695000Y-113172787D01*
X159717149Y-113255445D01*
X159759936Y-113329554D01*
X159810382Y-113380000D01*
X159020000Y-113380000D01*
X157500500Y-113380000D01*
X157500500Y-112582155D01*
X159020000Y-112582155D01*
X159020000Y-112880000D01*
X159770000Y-112880000D01*
X159770000Y-112130000D01*
X159472155Y-112130000D01*
X159412627Y-112136401D01*
X159412620Y-112136403D01*
X159277913Y-112186645D01*
X159277906Y-112186649D01*
X159162812Y-112272809D01*
X159162809Y-112272812D01*
X159076649Y-112387906D01*
X159076645Y-112387913D01*
X159026403Y-112522620D01*
X159026401Y-112522627D01*
X159020000Y-112582155D01*
X157500500Y-112582155D01*
X157500500Y-111700000D01*
X162581853Y-111700000D01*
X162602334Y-111842456D01*
X162644044Y-111933786D01*
X162662123Y-111973373D01*
X162756372Y-112082143D01*
X162877447Y-112159953D01*
X162877450Y-112159954D01*
X162877449Y-112159954D01*
X163015536Y-112200499D01*
X163015538Y-112200500D01*
X163015539Y-112200500D01*
X163159462Y-112200500D01*
X163159462Y-112200499D01*
X163297553Y-112159953D01*
X163418628Y-112082143D01*
X163512877Y-111973373D01*
X163530956Y-111933786D01*
X163576711Y-111880982D01*
X163643750Y-111861298D01*
X163710790Y-111880983D01*
X163756544Y-111933786D01*
X163774623Y-111973373D01*
X163868872Y-112082143D01*
X163989947Y-112159953D01*
X163989950Y-112159954D01*
X163989949Y-112159954D01*
X164128036Y-112200499D01*
X164128038Y-112200500D01*
X164128039Y-112200500D01*
X164271962Y-112200500D01*
X164271962Y-112200499D01*
X164410053Y-112159953D01*
X164531128Y-112082143D01*
X164625377Y-111973373D01*
X164685165Y-111842457D01*
X164705647Y-111700000D01*
X164685165Y-111557543D01*
X164625377Y-111426627D01*
X164531128Y-111317857D01*
X164410053Y-111240047D01*
X164410051Y-111240046D01*
X164410049Y-111240045D01*
X164410050Y-111240045D01*
X164271963Y-111199500D01*
X164271961Y-111199500D01*
X164128039Y-111199500D01*
X164128036Y-111199500D01*
X163989949Y-111240045D01*
X163868873Y-111317856D01*
X163774623Y-111426626D01*
X163756544Y-111466214D01*
X163710788Y-111519017D01*
X163643749Y-111538701D01*
X163576709Y-111519016D01*
X163530956Y-111466214D01*
X163512877Y-111426628D01*
X163512877Y-111426627D01*
X163418628Y-111317857D01*
X163297553Y-111240047D01*
X163297551Y-111240046D01*
X163297549Y-111240045D01*
X163297550Y-111240045D01*
X163159463Y-111199500D01*
X163159461Y-111199500D01*
X163015539Y-111199500D01*
X163015536Y-111199500D01*
X162877449Y-111240045D01*
X162756373Y-111317856D01*
X162662123Y-111426626D01*
X162662122Y-111426628D01*
X162602334Y-111557543D01*
X162581853Y-111700000D01*
X157500500Y-111700000D01*
X157500500Y-110800000D01*
X164994353Y-110800000D01*
X165014834Y-110942456D01*
X165074622Y-111073371D01*
X165074623Y-111073373D01*
X165168872Y-111182143D01*
X165289947Y-111259953D01*
X165289950Y-111259954D01*
X165289949Y-111259954D01*
X165428036Y-111300499D01*
X165428038Y-111300500D01*
X165428039Y-111300500D01*
X165571962Y-111300500D01*
X165571962Y-111300499D01*
X165710053Y-111259953D01*
X165831128Y-111182143D01*
X165925377Y-111073373D01*
X165985165Y-110942457D01*
X166005647Y-110800000D01*
X165985165Y-110657543D01*
X165925377Y-110526627D01*
X165831128Y-110417857D01*
X165710053Y-110340047D01*
X165710051Y-110340046D01*
X165710049Y-110340045D01*
X165710050Y-110340045D01*
X165571963Y-110299500D01*
X165571961Y-110299500D01*
X165428039Y-110299500D01*
X165428036Y-110299500D01*
X165289949Y-110340045D01*
X165168873Y-110417856D01*
X165074623Y-110526626D01*
X165074622Y-110526628D01*
X165014834Y-110657543D01*
X164994353Y-110800000D01*
X157500500Y-110800000D01*
X157500500Y-110200000D01*
X161394353Y-110200000D01*
X161414834Y-110342456D01*
X161449269Y-110417856D01*
X161474623Y-110473373D01*
X161568872Y-110582143D01*
X161689947Y-110659953D01*
X161689950Y-110659954D01*
X161689949Y-110659954D01*
X161828036Y-110700499D01*
X161828038Y-110700500D01*
X161828039Y-110700500D01*
X161971962Y-110700500D01*
X161971962Y-110700499D01*
X162110053Y-110659953D01*
X162231128Y-110582143D01*
X162325377Y-110473373D01*
X162385165Y-110342457D01*
X162405647Y-110200000D01*
X162385165Y-110057543D01*
X162373864Y-110032798D01*
X170590318Y-110032798D01*
X170590318Y-110032801D01*
X170610955Y-110189560D01*
X170610956Y-110189562D01*
X170671464Y-110335641D01*
X170767718Y-110461082D01*
X170767720Y-110461083D01*
X170767722Y-110461086D01*
X170772455Y-110465819D01*
X170805940Y-110527142D01*
X170800956Y-110596834D01*
X170772455Y-110641181D01*
X170767722Y-110645913D01*
X170671463Y-110771360D01*
X170610956Y-110917437D01*
X170610955Y-110917439D01*
X170590318Y-111074198D01*
X170590318Y-111074201D01*
X170610955Y-111230960D01*
X170610956Y-111230962D01*
X170671464Y-111377041D01*
X170767718Y-111502482D01*
X170893159Y-111598736D01*
X171039238Y-111659244D01*
X171117619Y-111669563D01*
X171195999Y-111679882D01*
X171196000Y-111679882D01*
X171196001Y-111679882D01*
X171248254Y-111673002D01*
X171352762Y-111659244D01*
X171498841Y-111598736D01*
X171624282Y-111502482D01*
X171626187Y-111500000D01*
X195524016Y-111500000D01*
X196980384Y-111500000D01*
X196964185Y-111528058D01*
X196925000Y-111674300D01*
X196925000Y-111825700D01*
X196964185Y-111971942D01*
X196980384Y-112000000D01*
X195524016Y-112000000D01*
X195530781Y-112042716D01*
X195591581Y-112229837D01*
X195680904Y-112405143D01*
X195796555Y-112564321D01*
X195935678Y-112703444D01*
X196094856Y-112819095D01*
X196270164Y-112908418D01*
X196457294Y-112969221D01*
X196651618Y-113000000D01*
X197250000Y-113000000D01*
X197250000Y-112269615D01*
X197278058Y-112285815D01*
X197424300Y-112325000D01*
X197575700Y-112325000D01*
X197721942Y-112285815D01*
X197750000Y-112269615D01*
X197750000Y-113000000D01*
X198348382Y-113000000D01*
X198542705Y-112969221D01*
X198729835Y-112908418D01*
X198905143Y-112819095D01*
X199064321Y-112703444D01*
X199203444Y-112564321D01*
X199319095Y-112405143D01*
X199408418Y-112229837D01*
X199469218Y-112042716D01*
X199475984Y-112000000D01*
X198019616Y-112000000D01*
X198035815Y-111971942D01*
X198075000Y-111825700D01*
X198075000Y-111674300D01*
X198035815Y-111528058D01*
X198019616Y-111500000D01*
X199475984Y-111500000D01*
X200524016Y-111500000D01*
X201980384Y-111500000D01*
X201964185Y-111528058D01*
X201925000Y-111674300D01*
X201925000Y-111825700D01*
X201964185Y-111971942D01*
X201980384Y-112000000D01*
X200524016Y-112000000D01*
X200530781Y-112042716D01*
X200591581Y-112229837D01*
X200680904Y-112405143D01*
X200796555Y-112564321D01*
X200935678Y-112703444D01*
X201094856Y-112819095D01*
X201270164Y-112908418D01*
X201457294Y-112969221D01*
X201651618Y-113000000D01*
X202250000Y-113000000D01*
X202250000Y-112269615D01*
X202278058Y-112285815D01*
X202424300Y-112325000D01*
X202575700Y-112325000D01*
X202721942Y-112285815D01*
X202750000Y-112269615D01*
X202750000Y-113000000D01*
X203348382Y-113000000D01*
X203542705Y-112969221D01*
X203729835Y-112908418D01*
X203905143Y-112819095D01*
X204064321Y-112703444D01*
X204203444Y-112564321D01*
X204319095Y-112405143D01*
X204408418Y-112229837D01*
X204469218Y-112042716D01*
X204475984Y-112000000D01*
X203019616Y-112000000D01*
X203035815Y-111971942D01*
X203075000Y-111825700D01*
X203075000Y-111674300D01*
X203035815Y-111528058D01*
X203019616Y-111500000D01*
X204475984Y-111500000D01*
X204469218Y-111457283D01*
X204408418Y-111270162D01*
X204319095Y-111094856D01*
X204203444Y-110935678D01*
X204064321Y-110796555D01*
X203905143Y-110680904D01*
X203729835Y-110591581D01*
X203542705Y-110530778D01*
X203348382Y-110500000D01*
X202750000Y-110500000D01*
X202750000Y-111230384D01*
X202721942Y-111214185D01*
X202575700Y-111175000D01*
X202424300Y-111175000D01*
X202278058Y-111214185D01*
X202250000Y-111230384D01*
X202250000Y-110500000D01*
X201651618Y-110500000D01*
X201457294Y-110530778D01*
X201270164Y-110591581D01*
X201094856Y-110680904D01*
X200935678Y-110796555D01*
X200796555Y-110935678D01*
X200680904Y-111094856D01*
X200591581Y-111270162D01*
X200530781Y-111457283D01*
X200524016Y-111500000D01*
X199475984Y-111500000D01*
X199469218Y-111457283D01*
X199408418Y-111270162D01*
X199319095Y-111094856D01*
X199203444Y-110935678D01*
X199064321Y-110796555D01*
X198905143Y-110680904D01*
X198729835Y-110591581D01*
X198542705Y-110530778D01*
X198348382Y-110500000D01*
X197750000Y-110500000D01*
X197750000Y-111230384D01*
X197721942Y-111214185D01*
X197575700Y-111175000D01*
X197424300Y-111175000D01*
X197278058Y-111214185D01*
X197250000Y-111230384D01*
X197250000Y-110500000D01*
X196651618Y-110500000D01*
X196457294Y-110530778D01*
X196270164Y-110591581D01*
X196094856Y-110680904D01*
X195935678Y-110796555D01*
X195796555Y-110935678D01*
X195680904Y-111094856D01*
X195591581Y-111270162D01*
X195530781Y-111457283D01*
X195524016Y-111500000D01*
X171626187Y-111500000D01*
X171720536Y-111377041D01*
X171781044Y-111230962D01*
X171801682Y-111074200D01*
X171781044Y-110917438D01*
X171720536Y-110771359D01*
X171624282Y-110645918D01*
X171624279Y-110645915D01*
X171624277Y-110645913D01*
X171619545Y-110641181D01*
X171586060Y-110579858D01*
X171591044Y-110510166D01*
X171619545Y-110465819D01*
X171624277Y-110461086D01*
X171624277Y-110461085D01*
X171624282Y-110461082D01*
X171720536Y-110335641D01*
X171781044Y-110189562D01*
X171801682Y-110032800D01*
X171781044Y-109876038D01*
X171720536Y-109729959D01*
X171624282Y-109604518D01*
X171498841Y-109508264D01*
X171352762Y-109447756D01*
X171352760Y-109447755D01*
X171196001Y-109427118D01*
X171195999Y-109427118D01*
X171039239Y-109447755D01*
X171039237Y-109447756D01*
X170893160Y-109508263D01*
X170767718Y-109604518D01*
X170671463Y-109729960D01*
X170610956Y-109876037D01*
X170610955Y-109876039D01*
X170590318Y-110032798D01*
X162373864Y-110032798D01*
X162325377Y-109926627D01*
X162231128Y-109817857D01*
X162110053Y-109740047D01*
X162110051Y-109740046D01*
X162110049Y-109740045D01*
X162110050Y-109740045D01*
X161971963Y-109699500D01*
X161971961Y-109699500D01*
X161828039Y-109699500D01*
X161828036Y-109699500D01*
X161689949Y-109740045D01*
X161568873Y-109817856D01*
X161474623Y-109926626D01*
X161474622Y-109926628D01*
X161414834Y-110057543D01*
X161394353Y-110200000D01*
X157500500Y-110200000D01*
X157500500Y-105600000D01*
X158695065Y-105600000D01*
X158714784Y-105900852D01*
X158714786Y-105900864D01*
X158773602Y-106196553D01*
X158773607Y-106196573D01*
X158870514Y-106482052D01*
X158870518Y-106482062D01*
X159003868Y-106752469D01*
X159171371Y-107003155D01*
X159171374Y-107003159D01*
X159204973Y-107041470D01*
X159204974Y-107041470D01*
X159705747Y-106540697D01*
X159779588Y-106642330D01*
X159957670Y-106820412D01*
X160059301Y-106894251D01*
X159558528Y-107395024D01*
X159558528Y-107395025D01*
X159596840Y-107428625D01*
X159596844Y-107428628D01*
X159847530Y-107596131D01*
X160117937Y-107729481D01*
X160117947Y-107729485D01*
X160403426Y-107826392D01*
X160403446Y-107826397D01*
X160699135Y-107885213D01*
X160699147Y-107885215D01*
X161000000Y-107904934D01*
X161300852Y-107885215D01*
X161300864Y-107885213D01*
X161596553Y-107826397D01*
X161596573Y-107826392D01*
X161882052Y-107729485D01*
X161882062Y-107729481D01*
X162152469Y-107596131D01*
X162403157Y-107428627D01*
X162441470Y-107395025D01*
X162441470Y-107395023D01*
X161940698Y-106894251D01*
X162042330Y-106820412D01*
X162220412Y-106642330D01*
X162294251Y-106540698D01*
X162795023Y-107041470D01*
X162795025Y-107041470D01*
X162828627Y-107003157D01*
X162840894Y-106984798D01*
X166145318Y-106984798D01*
X166145318Y-106984801D01*
X166165955Y-107141560D01*
X166165956Y-107141562D01*
X166226464Y-107287641D01*
X166322718Y-107413082D01*
X166414260Y-107483325D01*
X166455462Y-107539752D01*
X166459617Y-107609498D01*
X166425404Y-107670419D01*
X166414264Y-107680072D01*
X166349868Y-107729485D01*
X166322718Y-107750318D01*
X166226463Y-107875760D01*
X166165956Y-108021837D01*
X166165955Y-108021839D01*
X166145318Y-108178598D01*
X166145318Y-108178601D01*
X166165955Y-108335360D01*
X166165956Y-108335362D01*
X166226464Y-108481441D01*
X166322718Y-108606882D01*
X166448159Y-108703136D01*
X166594238Y-108763644D01*
X166672619Y-108773963D01*
X166750999Y-108784282D01*
X166751000Y-108784282D01*
X166751001Y-108784282D01*
X166803254Y-108777402D01*
X166907762Y-108763644D01*
X167053841Y-108703136D01*
X167179282Y-108606882D01*
X167275536Y-108481441D01*
X167336044Y-108335362D01*
X167356682Y-108178600D01*
X167336044Y-108021838D01*
X167275536Y-107875759D01*
X167179282Y-107750318D01*
X167179280Y-107750317D01*
X167179280Y-107750316D01*
X167129409Y-107712049D01*
X167087739Y-107680074D01*
X167046537Y-107623648D01*
X167042382Y-107553902D01*
X167076594Y-107492982D01*
X167087735Y-107483327D01*
X167179282Y-107413082D01*
X167275536Y-107287641D01*
X167336044Y-107141562D01*
X167356682Y-106984800D01*
X167336044Y-106828038D01*
X167275536Y-106681959D01*
X167179282Y-106556518D01*
X167053841Y-106460264D01*
X166907762Y-106399756D01*
X166907760Y-106399755D01*
X166751001Y-106379118D01*
X166750999Y-106379118D01*
X166594239Y-106399755D01*
X166594237Y-106399756D01*
X166448160Y-106460263D01*
X166322718Y-106556518D01*
X166226463Y-106681960D01*
X166165956Y-106828037D01*
X166165955Y-106828039D01*
X166145318Y-106984798D01*
X162840894Y-106984798D01*
X162996131Y-106752469D01*
X163129481Y-106482062D01*
X163129485Y-106482052D01*
X163226392Y-106196573D01*
X163226397Y-106196553D01*
X163285213Y-105900864D01*
X163285215Y-105900852D01*
X163304934Y-105600000D01*
X163297619Y-105488389D01*
X169699500Y-105488389D01*
X169699500Y-105911611D01*
X169726598Y-106082701D01*
X169780127Y-106247445D01*
X169858768Y-106401788D01*
X169960586Y-106541928D01*
X170083072Y-106664414D01*
X170223212Y-106766232D01*
X170377555Y-106844873D01*
X170542299Y-106898402D01*
X170713389Y-106925500D01*
X170713390Y-106925500D01*
X170886610Y-106925500D01*
X170886611Y-106925500D01*
X171057701Y-106898402D01*
X171222445Y-106844873D01*
X171376788Y-106766232D01*
X171516928Y-106664414D01*
X171639414Y-106541928D01*
X171741232Y-106401788D01*
X171819873Y-106247445D01*
X171873402Y-106082701D01*
X171900500Y-105911611D01*
X171900500Y-105488389D01*
X172199500Y-105488389D01*
X172199500Y-105911611D01*
X172226598Y-106082701D01*
X172280127Y-106247445D01*
X172358768Y-106401788D01*
X172460586Y-106541928D01*
X172583072Y-106664414D01*
X172723212Y-106766232D01*
X172877555Y-106844873D01*
X173042299Y-106898402D01*
X173213389Y-106925500D01*
X173213390Y-106925500D01*
X173386610Y-106925500D01*
X173386611Y-106925500D01*
X173557701Y-106898402D01*
X173722445Y-106844873D01*
X173876788Y-106766232D01*
X174016928Y-106664414D01*
X174139414Y-106541928D01*
X174241232Y-106401788D01*
X174304814Y-106276999D01*
X174352788Y-106226204D01*
X174420609Y-106209408D01*
X174486744Y-106231945D01*
X174530196Y-106286660D01*
X174533230Y-106294976D01*
X174548904Y-106343217D01*
X174645379Y-106532557D01*
X174770272Y-106704459D01*
X174770276Y-106704464D01*
X174920535Y-106854723D01*
X174920540Y-106854727D01*
X175092442Y-106979620D01*
X175281782Y-107076095D01*
X175483871Y-107141757D01*
X175550000Y-107152231D01*
X175550000Y-106104145D01*
X175616657Y-106142630D01*
X175737465Y-106175000D01*
X175862535Y-106175000D01*
X175983343Y-106142630D01*
X176050000Y-106104145D01*
X176050000Y-107152230D01*
X176116126Y-107141757D01*
X176116129Y-107141757D01*
X176318217Y-107076095D01*
X176507557Y-106979620D01*
X176679459Y-106854727D01*
X176679464Y-106854723D01*
X176829723Y-106704464D01*
X176829727Y-106704459D01*
X176954622Y-106532555D01*
X176972910Y-106496664D01*
X177020884Y-106445867D01*
X177088705Y-106429072D01*
X177154840Y-106451609D01*
X177198292Y-106506324D01*
X177203039Y-106525188D01*
X177204124Y-106524932D01*
X177205907Y-106532479D01*
X177256202Y-106667328D01*
X177256206Y-106667335D01*
X177342452Y-106782544D01*
X177342455Y-106782547D01*
X177457664Y-106868793D01*
X177457671Y-106868797D01*
X177592517Y-106919091D01*
X177592516Y-106919091D01*
X177599444Y-106919835D01*
X177652127Y-106925500D01*
X178947872Y-106925499D01*
X179007483Y-106919091D01*
X179142331Y-106868796D01*
X179257546Y-106782546D01*
X179343796Y-106667331D01*
X179394091Y-106532483D01*
X179400500Y-106472873D01*
X179400499Y-105302135D01*
X183349500Y-105302135D01*
X183349500Y-107497870D01*
X183349501Y-107497876D01*
X183355908Y-107557483D01*
X183406202Y-107692328D01*
X183406206Y-107692335D01*
X183492452Y-107807544D01*
X183492455Y-107807547D01*
X183607664Y-107893793D01*
X183607671Y-107893797D01*
X183742517Y-107944091D01*
X183742516Y-107944091D01*
X183749444Y-107944835D01*
X183802127Y-107950500D01*
X185397872Y-107950499D01*
X185457483Y-107944091D01*
X185592331Y-107893796D01*
X185707546Y-107807546D01*
X185793796Y-107692331D01*
X185844091Y-107557483D01*
X185850500Y-107497873D01*
X185850499Y-106001577D01*
X186849500Y-106001577D01*
X186849500Y-106798422D01*
X186880290Y-106992826D01*
X186941117Y-107180029D01*
X187030476Y-107355405D01*
X187146172Y-107514646D01*
X187285354Y-107653828D01*
X187444595Y-107769524D01*
X187519214Y-107807544D01*
X187619970Y-107858882D01*
X187619972Y-107858882D01*
X187619975Y-107858884D01*
X187671911Y-107875759D01*
X187807173Y-107919709D01*
X188001578Y-107950500D01*
X188001583Y-107950500D01*
X188198422Y-107950500D01*
X188392826Y-107919709D01*
X188580025Y-107858884D01*
X188755405Y-107769524D01*
X188914646Y-107653828D01*
X189053828Y-107514646D01*
X189169524Y-107355405D01*
X189258884Y-107180025D01*
X189319709Y-106992826D01*
X189320980Y-106984800D01*
X189342561Y-106848543D01*
X195749499Y-106848543D01*
X195787947Y-107041829D01*
X195787950Y-107041839D01*
X195863364Y-107223907D01*
X195863371Y-107223920D01*
X195972860Y-107387781D01*
X195972863Y-107387785D01*
X196112214Y-107527136D01*
X196112218Y-107527139D01*
X196276079Y-107636628D01*
X196276092Y-107636635D01*
X196410549Y-107692328D01*
X196458165Y-107712051D01*
X196458169Y-107712051D01*
X196458170Y-107712052D01*
X196651456Y-107750500D01*
X196651459Y-107750500D01*
X198348543Y-107750500D01*
X198478582Y-107724632D01*
X198541835Y-107712051D01*
X198723914Y-107636632D01*
X198887782Y-107527139D01*
X199027139Y-107387782D01*
X199136632Y-107223914D01*
X199212051Y-107041835D01*
X199249270Y-106854727D01*
X199250500Y-106848543D01*
X200749499Y-106848543D01*
X200787947Y-107041829D01*
X200787950Y-107041839D01*
X200863364Y-107223907D01*
X200863371Y-107223920D01*
X200972860Y-107387781D01*
X200972863Y-107387785D01*
X201112214Y-107527136D01*
X201112218Y-107527139D01*
X201276079Y-107636628D01*
X201276092Y-107636635D01*
X201410549Y-107692328D01*
X201458165Y-107712051D01*
X201458169Y-107712051D01*
X201458170Y-107712052D01*
X201651456Y-107750500D01*
X201651459Y-107750500D01*
X203348543Y-107750500D01*
X203478582Y-107724632D01*
X203541835Y-107712051D01*
X203723914Y-107636632D01*
X203887782Y-107527139D01*
X204027139Y-107387782D01*
X204136632Y-107223914D01*
X204212051Y-107041835D01*
X204249270Y-106854727D01*
X204250500Y-106848543D01*
X204250500Y-106651456D01*
X204212052Y-106458170D01*
X204212051Y-106458169D01*
X204212051Y-106458165D01*
X204212049Y-106458160D01*
X204136635Y-106276092D01*
X204136628Y-106276079D01*
X204027139Y-106112218D01*
X204027136Y-106112214D01*
X203887785Y-105972863D01*
X203887781Y-105972860D01*
X203723920Y-105863371D01*
X203723907Y-105863364D01*
X203541839Y-105787950D01*
X203541829Y-105787947D01*
X203348543Y-105749500D01*
X203348541Y-105749500D01*
X201651459Y-105749500D01*
X201651457Y-105749500D01*
X201458170Y-105787947D01*
X201458160Y-105787950D01*
X201276092Y-105863364D01*
X201276079Y-105863371D01*
X201112218Y-105972860D01*
X201112214Y-105972863D01*
X200972863Y-106112214D01*
X200972860Y-106112218D01*
X200863371Y-106276079D01*
X200863364Y-106276092D01*
X200787950Y-106458160D01*
X200787947Y-106458170D01*
X200749500Y-106651456D01*
X200749500Y-106651459D01*
X200749500Y-106848541D01*
X200749500Y-106848543D01*
X200749499Y-106848543D01*
X199250500Y-106848543D01*
X199250500Y-106651456D01*
X199212052Y-106458170D01*
X199212051Y-106458169D01*
X199212051Y-106458165D01*
X199212049Y-106458160D01*
X199136635Y-106276092D01*
X199136628Y-106276079D01*
X199027139Y-106112218D01*
X199027136Y-106112214D01*
X198887785Y-105972863D01*
X198887781Y-105972860D01*
X198723920Y-105863371D01*
X198723907Y-105863364D01*
X198541839Y-105787950D01*
X198541829Y-105787947D01*
X198348543Y-105749500D01*
X198348541Y-105749500D01*
X196651459Y-105749500D01*
X196651457Y-105749500D01*
X196458170Y-105787947D01*
X196458160Y-105787950D01*
X196276092Y-105863364D01*
X196276079Y-105863371D01*
X196112218Y-105972860D01*
X196112214Y-105972863D01*
X195972863Y-106112214D01*
X195972860Y-106112218D01*
X195863371Y-106276079D01*
X195863364Y-106276092D01*
X195787950Y-106458160D01*
X195787947Y-106458170D01*
X195749500Y-106651456D01*
X195749500Y-106651459D01*
X195749500Y-106848541D01*
X195749500Y-106848543D01*
X195749499Y-106848543D01*
X189342561Y-106848543D01*
X189350500Y-106798422D01*
X189350500Y-106001577D01*
X189319709Y-105807173D01*
X189258882Y-105619970D01*
X189191838Y-105488389D01*
X189169524Y-105444595D01*
X189053828Y-105285354D01*
X188914646Y-105146172D01*
X188755405Y-105030476D01*
X188580029Y-104941117D01*
X188392826Y-104880290D01*
X188198422Y-104849500D01*
X188198417Y-104849500D01*
X188001583Y-104849500D01*
X188001578Y-104849500D01*
X187807173Y-104880290D01*
X187619970Y-104941117D01*
X187444594Y-105030476D01*
X187408389Y-105056781D01*
X187285354Y-105146172D01*
X187285352Y-105146174D01*
X187285351Y-105146174D01*
X187146174Y-105285351D01*
X187146174Y-105285352D01*
X187146172Y-105285354D01*
X187121069Y-105319905D01*
X187030476Y-105444594D01*
X186941117Y-105619970D01*
X186880290Y-105807173D01*
X186849500Y-106001577D01*
X185850499Y-106001577D01*
X185850499Y-105302128D01*
X185844091Y-105242517D01*
X185837681Y-105225332D01*
X185793797Y-105107671D01*
X185793793Y-105107664D01*
X185707547Y-104992455D01*
X185707544Y-104992452D01*
X185592335Y-104906206D01*
X185592328Y-104906202D01*
X185457482Y-104855908D01*
X185457483Y-104855908D01*
X185397883Y-104849501D01*
X185397881Y-104849500D01*
X185397873Y-104849500D01*
X185397864Y-104849500D01*
X183802129Y-104849500D01*
X183802123Y-104849501D01*
X183742516Y-104855908D01*
X183607671Y-104906202D01*
X183607664Y-104906206D01*
X183492455Y-104992452D01*
X183492452Y-104992455D01*
X183406206Y-105107664D01*
X183406202Y-105107671D01*
X183355908Y-105242517D01*
X183349820Y-105299147D01*
X183349501Y-105302123D01*
X183349500Y-105302135D01*
X179400499Y-105302135D01*
X179400499Y-104927128D01*
X179394091Y-104867517D01*
X179390568Y-104858072D01*
X179343797Y-104732671D01*
X179343793Y-104732664D01*
X179257547Y-104617455D01*
X179257544Y-104617452D01*
X179142335Y-104531206D01*
X179142328Y-104531202D01*
X179007482Y-104480908D01*
X179007483Y-104480908D01*
X178947883Y-104474501D01*
X178947881Y-104474500D01*
X178947873Y-104474500D01*
X178947864Y-104474500D01*
X177652129Y-104474500D01*
X177652123Y-104474501D01*
X177592516Y-104480908D01*
X177457671Y-104531202D01*
X177457664Y-104531206D01*
X177342455Y-104617452D01*
X177342452Y-104617455D01*
X177256206Y-104732664D01*
X177256202Y-104732671D01*
X177205908Y-104867517D01*
X177204126Y-104875062D01*
X177200925Y-104874305D01*
X177179791Y-104925041D01*
X177122319Y-104964774D01*
X177052489Y-104967129D01*
X176992471Y-104931356D01*
X176972910Y-104903336D01*
X176954622Y-104867444D01*
X176829727Y-104695540D01*
X176829723Y-104695535D01*
X176679464Y-104545276D01*
X176679459Y-104545272D01*
X176507557Y-104420379D01*
X176318215Y-104323903D01*
X176116124Y-104258241D01*
X176050000Y-104247768D01*
X176050000Y-105295854D01*
X175983343Y-105257370D01*
X175862535Y-105225000D01*
X175737465Y-105225000D01*
X175616657Y-105257370D01*
X175550000Y-105295854D01*
X175550000Y-104247768D01*
X175549999Y-104247768D01*
X175483875Y-104258241D01*
X175281784Y-104323903D01*
X175092442Y-104420379D01*
X174920540Y-104545272D01*
X174920535Y-104545276D01*
X174770276Y-104695535D01*
X174770272Y-104695540D01*
X174645379Y-104867442D01*
X174548905Y-105056781D01*
X174533230Y-105105024D01*
X174493792Y-105162699D01*
X174429433Y-105189897D01*
X174360587Y-105177982D01*
X174309111Y-105130738D01*
X174304814Y-105122999D01*
X174241233Y-104998213D01*
X174216938Y-104964774D01*
X174139414Y-104858072D01*
X174016928Y-104735586D01*
X173876788Y-104633768D01*
X173722445Y-104555127D01*
X173557701Y-104501598D01*
X173557699Y-104501597D01*
X173557698Y-104501597D01*
X173426271Y-104480781D01*
X173386611Y-104474500D01*
X173213389Y-104474500D01*
X173173728Y-104480781D01*
X173042302Y-104501597D01*
X172877552Y-104555128D01*
X172723211Y-104633768D01*
X172643256Y-104691859D01*
X172583072Y-104735586D01*
X172583070Y-104735588D01*
X172583069Y-104735588D01*
X172460588Y-104858069D01*
X172460588Y-104858070D01*
X172460586Y-104858072D01*
X172416859Y-104918256D01*
X172358768Y-104998211D01*
X172280128Y-105152552D01*
X172226597Y-105317302D01*
X172226185Y-105319905D01*
X172199500Y-105488389D01*
X171900500Y-105488389D01*
X171873402Y-105317299D01*
X171819873Y-105152555D01*
X171741232Y-104998212D01*
X171639414Y-104858072D01*
X171516928Y-104735586D01*
X171376788Y-104633768D01*
X171222445Y-104555127D01*
X171057701Y-104501598D01*
X171057699Y-104501597D01*
X171057698Y-104501597D01*
X170926271Y-104480781D01*
X170886611Y-104474500D01*
X170713389Y-104474500D01*
X170673728Y-104480781D01*
X170542302Y-104501597D01*
X170377552Y-104555128D01*
X170223211Y-104633768D01*
X170143256Y-104691859D01*
X170083072Y-104735586D01*
X170083070Y-104735588D01*
X170083069Y-104735588D01*
X169960588Y-104858069D01*
X169960588Y-104858070D01*
X169960586Y-104858072D01*
X169916859Y-104918256D01*
X169858768Y-104998211D01*
X169780128Y-105152552D01*
X169726597Y-105317302D01*
X169726185Y-105319905D01*
X169699500Y-105488389D01*
X163297619Y-105488389D01*
X163285215Y-105299147D01*
X163285213Y-105299135D01*
X163226397Y-105003446D01*
X163226393Y-105003431D01*
X163129483Y-104717944D01*
X163129474Y-104717923D01*
X162996129Y-104447528D01*
X162828633Y-104196851D01*
X162828625Y-104196840D01*
X162795025Y-104158528D01*
X162795024Y-104158528D01*
X162294251Y-104659300D01*
X162220412Y-104557670D01*
X162042330Y-104379588D01*
X161940697Y-104305747D01*
X162441470Y-103804974D01*
X162441470Y-103804973D01*
X162403159Y-103771374D01*
X162403155Y-103771371D01*
X162152469Y-103603868D01*
X161882062Y-103470518D01*
X161882052Y-103470514D01*
X161596573Y-103373607D01*
X161596553Y-103373602D01*
X161300864Y-103314786D01*
X161300852Y-103314784D01*
X161000000Y-103295065D01*
X160699147Y-103314784D01*
X160699135Y-103314786D01*
X160403446Y-103373602D01*
X160403431Y-103373606D01*
X160117944Y-103470516D01*
X160117923Y-103470525D01*
X159847528Y-103603870D01*
X159596844Y-103771370D01*
X159596837Y-103771376D01*
X159558528Y-103804972D01*
X159558527Y-103804974D01*
X160059301Y-104305748D01*
X159957670Y-104379588D01*
X159779588Y-104557670D01*
X159705748Y-104659301D01*
X159204974Y-104158527D01*
X159204972Y-104158528D01*
X159171376Y-104196837D01*
X159171370Y-104196844D01*
X159003870Y-104447528D01*
X158870525Y-104717923D01*
X158870516Y-104717944D01*
X158773606Y-105003431D01*
X158773602Y-105003446D01*
X158714786Y-105299135D01*
X158714784Y-105299147D01*
X158695065Y-105600000D01*
X157500500Y-105600000D01*
X157500500Y-102224500D01*
X157520185Y-102157461D01*
X157572989Y-102111706D01*
X157624500Y-102100500D01*
X206375500Y-102100500D01*
X206442539Y-102120185D01*
G37*
%TD.AperFunction*%
%TD*%
M02*
