%TF.GenerationSoftware,KiCad,Pcbnew,8.0.3*%
%TF.CreationDate,2024-06-13T00:54:26+02:00*%
%TF.ProjectId,pwm-ctrl,70776d2d-6374-4726-9c2e-6b696361645f,1*%
%TF.SameCoordinates,Original*%
%TF.FileFunction,Drillmap*%
%TF.FilePolarity,Positive*%
%FSLAX45Y45*%
G04 Gerber Fmt 4.5, Leading zero omitted, Abs format (unit mm)*
G04 Created by KiCad (PCBNEW 8.0.3) date 2024-06-13 00:54:26*
%MOMM*%
%LPD*%
G01*
G04 APERTURE LIST*
%ADD10C,0.100000*%
%ADD11C,0.200000*%
%ADD12C,0.115000*%
%ADD13C,0.160000*%
%ADD14C,0.178000*%
%ADD15C,0.320000*%
G04 APERTURE END LIST*
D10*
X15700000Y-10160000D02*
X20700000Y-10160000D01*
X20700000Y-15160000D01*
X15700000Y-15160000D01*
X15700000Y-10160000D01*
D11*
D10*
X15824500Y-12009446D02*
X15854500Y-12039446D01*
X15854500Y-12009446D02*
X15824500Y-12039446D01*
X15887000Y-12086000D02*
X15917000Y-12116000D01*
X15917000Y-12086000D02*
X15887000Y-12116000D01*
X15898100Y-12945000D02*
X15928100Y-12975000D01*
X15928100Y-12945000D02*
X15898100Y-12975000D01*
X16085000Y-11525000D02*
X16115000Y-11555000D01*
X16115000Y-11525000D02*
X16085000Y-11555000D01*
X16135800Y-11475000D02*
X16165800Y-11505000D01*
X16165800Y-11475000D02*
X16135800Y-11505000D01*
X16175000Y-11005000D02*
X16205000Y-11035000D01*
X16205000Y-11005000D02*
X16175000Y-11035000D01*
X16293750Y-11155000D02*
X16323750Y-11185000D01*
X16323750Y-11155000D02*
X16293750Y-11185000D01*
X16336000Y-13152000D02*
X16366000Y-13182000D01*
X16366000Y-13152000D02*
X16336000Y-13182000D01*
X16345000Y-13435000D02*
X16375000Y-13465000D01*
X16375000Y-13435000D02*
X16345000Y-13465000D01*
X16405000Y-11155000D02*
X16435000Y-11185000D01*
X16435000Y-11155000D02*
X16405000Y-11185000D01*
X16476000Y-12902000D02*
X16506000Y-12932000D01*
X16506000Y-12902000D02*
X16476000Y-12932000D01*
X16505000Y-11545000D02*
X16535000Y-11575000D01*
X16535000Y-11545000D02*
X16505000Y-11575000D01*
X16505793Y-11677500D02*
X16535793Y-11707500D01*
X16535793Y-11677500D02*
X16505793Y-11707500D01*
X16515000Y-11805000D02*
X16545000Y-11835000D01*
X16545000Y-11805000D02*
X16515000Y-11835000D01*
X16530560Y-11288000D02*
X16560560Y-11318000D01*
X16560560Y-11288000D02*
X16530560Y-11318000D01*
X16535000Y-11065000D02*
X16565000Y-11095000D01*
X16565000Y-11065000D02*
X16535000Y-11095000D01*
X16542500Y-11879912D02*
X16572500Y-11909912D01*
X16572500Y-11879912D02*
X16542500Y-11909912D01*
X16545000Y-11605000D02*
X16575000Y-11635000D01*
X16575000Y-11605000D02*
X16545000Y-11635000D01*
X16555000Y-11475000D02*
X16585000Y-11505000D01*
X16585000Y-11475000D02*
X16555000Y-11505000D01*
X16555000Y-11735000D02*
X16585000Y-11765000D01*
X16585000Y-11735000D02*
X16555000Y-11765000D01*
X16576000Y-12902000D02*
X16606000Y-12932000D01*
X16606000Y-12902000D02*
X16576000Y-12932000D01*
X16591520Y-11348960D02*
X16621520Y-11378960D01*
X16621520Y-11348960D02*
X16591520Y-11378960D01*
X16606000Y-12542000D02*
X16636000Y-12572000D01*
X16636000Y-12542000D02*
X16606000Y-12572000D01*
X16606000Y-12602000D02*
X16636000Y-12632000D01*
X16636000Y-12602000D02*
X16606000Y-12632000D01*
X16606000Y-12662000D02*
X16636000Y-12692000D01*
X16636000Y-12662000D02*
X16606000Y-12692000D01*
X16606000Y-12722000D02*
X16636000Y-12752000D01*
X16636000Y-12722000D02*
X16606000Y-12752000D01*
X16606000Y-12782000D02*
X16636000Y-12812000D01*
X16636000Y-12782000D02*
X16606000Y-12812000D01*
X16616000Y-12272000D02*
X16646000Y-12302000D01*
X16646000Y-12272000D02*
X16616000Y-12302000D01*
X16666000Y-12542000D02*
X16696000Y-12572000D01*
X16696000Y-12542000D02*
X16666000Y-12572000D01*
X16666000Y-12602000D02*
X16696000Y-12632000D01*
X16696000Y-12602000D02*
X16666000Y-12632000D01*
X16666000Y-12662000D02*
X16696000Y-12692000D01*
X16696000Y-12662000D02*
X16666000Y-12692000D01*
X16666000Y-12722000D02*
X16696000Y-12752000D01*
X16696000Y-12722000D02*
X16666000Y-12752000D01*
X16666000Y-12782000D02*
X16696000Y-12812000D01*
X16696000Y-12782000D02*
X16666000Y-12812000D01*
X16666000Y-12899500D02*
X16696000Y-12929500D01*
X16696000Y-12899500D02*
X16666000Y-12929500D01*
X16716000Y-13022000D02*
X16746000Y-13052000D01*
X16746000Y-13022000D02*
X16716000Y-13052000D01*
X16716000Y-13272000D02*
X16746000Y-13302000D01*
X16746000Y-13272000D02*
X16716000Y-13302000D01*
X16796000Y-12542000D02*
X16826000Y-12572000D01*
X16826000Y-12542000D02*
X16796000Y-12572000D01*
X16796000Y-12602000D02*
X16826000Y-12632000D01*
X16826000Y-12602000D02*
X16796000Y-12632000D01*
X16796000Y-12662000D02*
X16826000Y-12692000D01*
X16826000Y-12662000D02*
X16796000Y-12692000D01*
X16796000Y-12722000D02*
X16826000Y-12752000D01*
X16826000Y-12722000D02*
X16796000Y-12752000D01*
X16796000Y-12782000D02*
X16826000Y-12812000D01*
X16826000Y-12782000D02*
X16796000Y-12812000D01*
X16855000Y-11535000D02*
X16885000Y-11565000D01*
X16885000Y-11535000D02*
X16855000Y-11565000D01*
X16857500Y-11751745D02*
X16887500Y-11781745D01*
X16887500Y-11751745D02*
X16857500Y-11781745D01*
X16865875Y-11677214D02*
X16895875Y-11707214D01*
X16895875Y-11677214D02*
X16865875Y-11707214D01*
X16875276Y-11404575D02*
X16905276Y-11434575D01*
X16905276Y-11404575D02*
X16875276Y-11434575D01*
X16879521Y-11823440D02*
X16909521Y-11853440D01*
X16909521Y-11823440D02*
X16879521Y-11853440D01*
X16948500Y-12634500D02*
X16978500Y-12664500D01*
X16978500Y-12634500D02*
X16948500Y-12664500D01*
X16948500Y-12697000D02*
X16978500Y-12727000D01*
X16978500Y-12697000D02*
X16948500Y-12727000D01*
X16948500Y-12759500D02*
X16978500Y-12789500D01*
X16978500Y-12759500D02*
X16948500Y-12789500D01*
X16976000Y-12972000D02*
X17006000Y-13002000D01*
X17006000Y-12972000D02*
X16976000Y-13002000D01*
X16976000Y-13082000D02*
X17006000Y-13112000D01*
X17006000Y-13082000D02*
X16976000Y-13112000D01*
X17086000Y-12972000D02*
X17116000Y-13002000D01*
X17116000Y-12972000D02*
X17086000Y-13002000D01*
X17086000Y-13082000D02*
X17116000Y-13112000D01*
X17116000Y-13082000D02*
X17086000Y-13112000D01*
X17106000Y-12882000D02*
X17136000Y-12912000D01*
X17136000Y-12882000D02*
X17106000Y-12912000D01*
X17196000Y-12862000D02*
X17226000Y-12892000D01*
X17226000Y-12862000D02*
X17196000Y-12892000D01*
X17196000Y-12972000D02*
X17226000Y-13002000D01*
X17226000Y-12972000D02*
X17196000Y-13002000D01*
X17196000Y-13082000D02*
X17226000Y-13112000D01*
X17226000Y-13082000D02*
X17196000Y-13112000D01*
X17196000Y-13292000D02*
X17226000Y-13322000D01*
X17226000Y-13292000D02*
X17196000Y-13322000D01*
X17429720Y-11516600D02*
X17459720Y-11546600D01*
X17459720Y-11516600D02*
X17429720Y-11546600D01*
X17676000Y-13292000D02*
X17706000Y-13322000D01*
X17706000Y-13292000D02*
X17676000Y-13322000D01*
X18003806Y-12347806D02*
X18033806Y-12377806D01*
X18033806Y-12347806D02*
X18003806Y-12377806D01*
X18005000Y-12435000D02*
X18035000Y-12465000D01*
X18035000Y-12435000D02*
X18005000Y-12465000D01*
X18146000Y-13292000D02*
X18176000Y-13322000D01*
X18176000Y-13292000D02*
X18146000Y-13322000D01*
X18207500Y-12105000D02*
X18237500Y-12135000D01*
X18237500Y-12105000D02*
X18207500Y-12135000D01*
X18545000Y-13125000D02*
X18575000Y-13155000D01*
X18575000Y-13125000D02*
X18545000Y-13155000D01*
X18652500Y-12910221D02*
X18682500Y-12940221D01*
X18682500Y-12910221D02*
X18652500Y-12940221D01*
X18701197Y-12077198D02*
X18731197Y-12107198D01*
X18731197Y-12077198D02*
X18701197Y-12107198D01*
X18770746Y-12057500D02*
X18800746Y-12087500D01*
X18800746Y-12057500D02*
X18770746Y-12087500D01*
X18773522Y-12932451D02*
X18803522Y-12962451D01*
X18803522Y-12932451D02*
X18773522Y-12962451D01*
X18825000Y-13455000D02*
X18855000Y-13485000D01*
X18855000Y-13455000D02*
X18825000Y-13485000D01*
X18852348Y-12062424D02*
X18882348Y-12092424D01*
X18882348Y-12062424D02*
X18852348Y-12092424D01*
X18915000Y-13205000D02*
X18945000Y-13235000D01*
X18945000Y-13205000D02*
X18915000Y-13235000D01*
X18919631Y-12931505D02*
X18949631Y-12961505D01*
X18949631Y-12931505D02*
X18919631Y-12961505D01*
X18926220Y-12071864D02*
X18956220Y-12101864D01*
X18956220Y-12071864D02*
X18926220Y-12101864D01*
X18977131Y-12890000D02*
X19007131Y-12920000D01*
X19007131Y-12890000D02*
X18977131Y-12920000D01*
X18980757Y-12120278D02*
X19010757Y-12150278D01*
X19010757Y-12120278D02*
X18980757Y-12150278D01*
X19065000Y-13205000D02*
X19095000Y-13235000D01*
X19095000Y-13205000D02*
X19065000Y-13235000D01*
X19135000Y-13455000D02*
X19165000Y-13485000D01*
X19165000Y-13455000D02*
X19135000Y-13485000D01*
X18681000Y-12457500D02*
G75*
G02*
X18651000Y-12457500I-15000J0D01*
G01*
X18651000Y-12457500D02*
G75*
G02*
X18681000Y-12457500I15000J0D01*
G01*
X18681000Y-12577500D02*
G75*
G02*
X18651000Y-12577500I-15000J0D01*
G01*
X18651000Y-12577500D02*
G75*
G02*
X18681000Y-12577500I15000J0D01*
G01*
X18801000Y-12457500D02*
G75*
G02*
X18771000Y-12457500I-15000J0D01*
G01*
X18771000Y-12457500D02*
G75*
G02*
X18801000Y-12457500I15000J0D01*
G01*
X18801000Y-12577500D02*
G75*
G02*
X18771000Y-12577500I-15000J0D01*
G01*
X18771000Y-12577500D02*
G75*
G02*
X18801000Y-12577500I15000J0D01*
G01*
X18921000Y-12457500D02*
G75*
G02*
X18891000Y-12457500I-15000J0D01*
G01*
X18891000Y-12457500D02*
G75*
G02*
X18921000Y-12457500I15000J0D01*
G01*
X18921000Y-12577500D02*
G75*
G02*
X18891000Y-12577500I-15000J0D01*
G01*
X18891000Y-12577500D02*
G75*
G02*
X18921000Y-12577500I15000J0D01*
G01*
X19041000Y-12457500D02*
G75*
G02*
X19011000Y-12457500I-15000J0D01*
G01*
X19011000Y-12457500D02*
G75*
G02*
X19041000Y-12457500I15000J0D01*
G01*
X19041000Y-12577500D02*
G75*
G02*
X19011000Y-12577500I-15000J0D01*
G01*
X19011000Y-12577500D02*
G75*
G02*
X19041000Y-12577500I15000J0D01*
G01*
X15790000Y-13930000D02*
X15790000Y-13970000D01*
X15770000Y-13950000D02*
X15810000Y-13950000D01*
X15840600Y-12584325D02*
X15840600Y-12624325D01*
X15820600Y-12604325D02*
X15860600Y-12604325D01*
X15850000Y-11869000D02*
X15850000Y-11909000D01*
X15830000Y-11889000D02*
X15870000Y-11889000D01*
X15960000Y-13590000D02*
X15960000Y-13630000D01*
X15940000Y-13610000D02*
X15980000Y-13610000D01*
X15960000Y-14290000D02*
X15960000Y-14330000D01*
X15940000Y-14310000D02*
X15980000Y-14310000D01*
X16034000Y-11937000D02*
X16034000Y-11977000D01*
X16014000Y-11957000D02*
X16054000Y-11957000D01*
X16060000Y-14010000D02*
X16060000Y-14050000D01*
X16040000Y-14030000D02*
X16080000Y-14030000D01*
X16070000Y-13860000D02*
X16070000Y-13900000D01*
X16050000Y-13880000D02*
X16090000Y-13880000D01*
X16086000Y-12202184D02*
X16086000Y-12242184D01*
X16066000Y-12222184D02*
X16106000Y-12222184D01*
X16090900Y-13327700D02*
X16090900Y-13367700D01*
X16070900Y-13347700D02*
X16110900Y-13347700D01*
X16129000Y-13442000D02*
X16129000Y-13482000D01*
X16109000Y-13462000D02*
X16149000Y-13462000D01*
X16173476Y-11263476D02*
X16173476Y-11303476D01*
X16153476Y-11283476D02*
X16193476Y-11283476D01*
X16205200Y-12934000D02*
X16205200Y-12974000D01*
X16185200Y-12954000D02*
X16225200Y-12954000D01*
X16240000Y-11880000D02*
X16240000Y-11920000D01*
X16220000Y-11900000D02*
X16260000Y-11900000D01*
X16240000Y-12390000D02*
X16240000Y-12430000D01*
X16220000Y-12410000D02*
X16260000Y-12410000D01*
X16463988Y-12638144D02*
X16463988Y-12678144D01*
X16443988Y-12658144D02*
X16483988Y-12658144D01*
X16500000Y-10970000D02*
X16500000Y-11010000D01*
X16480000Y-10990000D02*
X16520000Y-10990000D01*
X16675100Y-10678480D02*
X16675100Y-10718480D01*
X16655100Y-10698480D02*
X16695100Y-10698480D01*
X16675100Y-10797860D02*
X16675100Y-10837860D01*
X16655100Y-10817860D02*
X16695100Y-10817860D01*
X17119600Y-10983280D02*
X17119600Y-11023280D01*
X17099600Y-11003280D02*
X17139600Y-11003280D01*
X17119600Y-11087420D02*
X17119600Y-11127420D01*
X17099600Y-11107420D02*
X17139600Y-11107420D01*
X17135643Y-11498506D02*
X17135643Y-11538506D01*
X17115643Y-11518506D02*
X17155643Y-11518506D01*
X17167860Y-11681780D02*
X17167860Y-11721780D01*
X17147860Y-11701780D02*
X17187860Y-11701780D01*
X17322800Y-11679240D02*
X17322800Y-11719240D01*
X17302800Y-11699240D02*
X17342800Y-11699240D01*
X17344816Y-11522979D02*
X17344816Y-11562979D01*
X17324816Y-11542979D02*
X17364816Y-11542979D01*
X17475200Y-14305600D02*
X17475200Y-14345600D01*
X17455200Y-14325600D02*
X17495200Y-14325600D01*
X17475200Y-14508800D02*
X17475200Y-14548800D01*
X17455200Y-14528800D02*
X17495200Y-14528800D01*
X17475200Y-14712000D02*
X17475200Y-14752000D01*
X17455200Y-14732000D02*
X17495200Y-14732000D01*
X17678400Y-14559600D02*
X17678400Y-14599600D01*
X17658400Y-14579600D02*
X17698400Y-14579600D01*
X17830000Y-10990000D02*
X17830000Y-11030000D01*
X17810000Y-11010000D02*
X17850000Y-11010000D01*
X17990000Y-10990000D02*
X17990000Y-11030000D01*
X17970000Y-11010000D02*
X18010000Y-11010000D01*
X18237200Y-13518200D02*
X18237200Y-13558200D01*
X18217200Y-13538200D02*
X18257200Y-13538200D01*
X18860170Y-12967500D02*
X18860170Y-13007500D01*
X18840170Y-12987500D02*
X18880170Y-12987500D01*
X16024981Y-11335981D02*
X16024981Y-11290019D01*
X15979019Y-11290019D01*
X15979019Y-11335981D01*
X16024981Y-11335981D01*
X16024981Y-11462981D02*
X16024981Y-11417019D01*
X15979019Y-11417019D01*
X15979019Y-11462981D01*
X16024981Y-11462981D01*
X16024981Y-11589981D02*
X16024981Y-11544019D01*
X15979019Y-11544019D01*
X15979019Y-11589981D01*
X16024981Y-11589981D01*
X16024981Y-11716981D02*
X16024981Y-11671019D01*
X15979019Y-11671019D01*
X15979019Y-11716981D01*
X16024981Y-11716981D01*
X17080000Y-10617500D02*
X17127500Y-10570000D01*
X17080000Y-10522500D01*
X17032500Y-10570000D01*
X17080000Y-10617500D01*
X17330000Y-10617500D02*
X17377500Y-10570000D01*
X17330000Y-10522500D01*
X17282500Y-10570000D01*
X17330000Y-10617500D01*
X17580000Y-10617500D02*
X17627500Y-10570000D01*
X17580000Y-10522500D01*
X17532500Y-10570000D01*
X17580000Y-10617500D01*
X17830000Y-10617500D02*
X17877500Y-10570000D01*
X17830000Y-10522500D01*
X17782500Y-10570000D01*
X17830000Y-10617500D01*
D12*
X19692500Y-10617500D02*
X19807500Y-10732500D01*
X19807500Y-10617500D02*
X19692500Y-10732500D01*
X19807500Y-10675000D02*
G75*
G02*
X19692500Y-10675000I-57500J0D01*
G01*
X19692500Y-10675000D02*
G75*
G02*
X19807500Y-10675000I57500J0D01*
G01*
X19692500Y-11117500D02*
X19807500Y-11232500D01*
X19807500Y-11117500D02*
X19692500Y-11232500D01*
X19807500Y-11175000D02*
G75*
G02*
X19692500Y-11175000I-57500J0D01*
G01*
X19692500Y-11175000D02*
G75*
G02*
X19807500Y-11175000I57500J0D01*
G01*
X19692500Y-11617500D02*
X19807500Y-11732500D01*
X19807500Y-11617500D02*
X19692500Y-11732500D01*
X19807500Y-11675000D02*
G75*
G02*
X19692500Y-11675000I-57500J0D01*
G01*
X19692500Y-11675000D02*
G75*
G02*
X19807500Y-11675000I57500J0D01*
G01*
X19692500Y-12117500D02*
X19807500Y-12232500D01*
X19807500Y-12117500D02*
X19692500Y-12232500D01*
X19807500Y-12175000D02*
G75*
G02*
X19692500Y-12175000I-57500J0D01*
G01*
X19692500Y-12175000D02*
G75*
G02*
X19807500Y-12175000I57500J0D01*
G01*
X19692500Y-12617500D02*
X19807500Y-12732500D01*
X19807500Y-12617500D02*
X19692500Y-12732500D01*
X19807500Y-12675000D02*
G75*
G02*
X19692500Y-12675000I-57500J0D01*
G01*
X19692500Y-12675000D02*
G75*
G02*
X19807500Y-12675000I57500J0D01*
G01*
X19692500Y-13117500D02*
X19807500Y-13232500D01*
X19807500Y-13117500D02*
X19692500Y-13232500D01*
X19807500Y-13175000D02*
G75*
G02*
X19692500Y-13175000I-57500J0D01*
G01*
X19692500Y-13175000D02*
G75*
G02*
X19807500Y-13175000I57500J0D01*
G01*
X19692500Y-13867500D02*
X19807500Y-13982500D01*
X19807500Y-13867500D02*
X19692500Y-13982500D01*
X19807500Y-13925000D02*
G75*
G02*
X19692500Y-13925000I-57500J0D01*
G01*
X19692500Y-13925000D02*
G75*
G02*
X19807500Y-13925000I57500J0D01*
G01*
X19692500Y-14617500D02*
X19807500Y-14732500D01*
X19807500Y-14617500D02*
X19692500Y-14732500D01*
X19807500Y-14675000D02*
G75*
G02*
X19692500Y-14675000I-57500J0D01*
G01*
X19692500Y-14675000D02*
G75*
G02*
X19807500Y-14675000I57500J0D01*
G01*
X20192500Y-10617500D02*
X20307500Y-10732500D01*
X20307500Y-10617500D02*
X20192500Y-10732500D01*
X20307500Y-10675000D02*
G75*
G02*
X20192500Y-10675000I-57500J0D01*
G01*
X20192500Y-10675000D02*
G75*
G02*
X20307500Y-10675000I57500J0D01*
G01*
X20192500Y-11117500D02*
X20307500Y-11232500D01*
X20307500Y-11117500D02*
X20192500Y-11232500D01*
X20307500Y-11175000D02*
G75*
G02*
X20192500Y-11175000I-57500J0D01*
G01*
X20192500Y-11175000D02*
G75*
G02*
X20307500Y-11175000I57500J0D01*
G01*
X20192500Y-11617500D02*
X20307500Y-11732500D01*
X20307500Y-11617500D02*
X20192500Y-11732500D01*
X20307500Y-11675000D02*
G75*
G02*
X20192500Y-11675000I-57500J0D01*
G01*
X20192500Y-11675000D02*
G75*
G02*
X20307500Y-11675000I57500J0D01*
G01*
X20192500Y-12117500D02*
X20307500Y-12232500D01*
X20307500Y-12117500D02*
X20192500Y-12232500D01*
X20307500Y-12175000D02*
G75*
G02*
X20192500Y-12175000I-57500J0D01*
G01*
X20192500Y-12175000D02*
G75*
G02*
X20307500Y-12175000I57500J0D01*
G01*
X20192500Y-12617500D02*
X20307500Y-12732500D01*
X20307500Y-12617500D02*
X20192500Y-12732500D01*
X20307500Y-12675000D02*
G75*
G02*
X20192500Y-12675000I-57500J0D01*
G01*
X20192500Y-12675000D02*
G75*
G02*
X20307500Y-12675000I57500J0D01*
G01*
X20192500Y-13117500D02*
X20307500Y-13232500D01*
X20307500Y-13117500D02*
X20192500Y-13232500D01*
X20307500Y-13175000D02*
G75*
G02*
X20192500Y-13175000I-57500J0D01*
G01*
X20192500Y-13175000D02*
G75*
G02*
X20307500Y-13175000I57500J0D01*
G01*
X20192500Y-13867500D02*
X20307500Y-13982500D01*
X20307500Y-13867500D02*
X20192500Y-13982500D01*
X20307500Y-13925000D02*
G75*
G02*
X20192500Y-13925000I-57500J0D01*
G01*
X20192500Y-13925000D02*
G75*
G02*
X20307500Y-13925000I57500J0D01*
G01*
X20192500Y-14617500D02*
X20307500Y-14732500D01*
X20307500Y-14617500D02*
X20192500Y-14732500D01*
X20307500Y-14675000D02*
G75*
G02*
X20192500Y-14675000I-57500J0D01*
G01*
X20192500Y-14675000D02*
G75*
G02*
X20307500Y-14675000I57500J0D01*
G01*
D13*
X18380000Y-10560000D02*
X18540000Y-10720000D01*
X18540000Y-10560000D02*
X18380000Y-10720000D01*
X18460000Y-10560000D02*
X18460000Y-10720000D01*
X18380000Y-10640000D02*
X18540000Y-10640000D01*
X18730000Y-10560000D02*
X18890000Y-10720000D01*
X18890000Y-10560000D02*
X18730000Y-10720000D01*
X18810000Y-10560000D02*
X18810000Y-10720000D01*
X18730000Y-10640000D02*
X18890000Y-10640000D01*
D14*
X17765000Y-11266000D02*
X17943000Y-11444000D01*
X17943000Y-11266000D02*
X17765000Y-11444000D01*
X17916933Y-11417933D02*
X17916933Y-11292067D01*
X17791067Y-11292067D01*
X17791067Y-11417933D01*
X17916933Y-11417933D01*
X17765000Y-11606000D02*
X17943000Y-11784000D01*
X17943000Y-11606000D02*
X17765000Y-11784000D01*
X17916933Y-11757933D02*
X17916933Y-11632067D01*
X17791067Y-11632067D01*
X17791067Y-11757933D01*
X17916933Y-11757933D01*
X17790000Y-13641000D02*
X17968000Y-13819000D01*
X17968000Y-13641000D02*
X17790000Y-13819000D01*
X17941933Y-13792933D02*
X17941933Y-13667067D01*
X17816067Y-13667067D01*
X17816067Y-13792933D01*
X17941933Y-13792933D01*
X17790000Y-13981000D02*
X17968000Y-14159000D01*
X17968000Y-13981000D02*
X17790000Y-14159000D01*
X17941933Y-14132933D02*
X17941933Y-14007067D01*
X17816067Y-14007067D01*
X17816067Y-14132933D01*
X17941933Y-14132933D01*
X18757000Y-11266000D02*
X18935000Y-11444000D01*
X18935000Y-11266000D02*
X18757000Y-11444000D01*
X18908933Y-11417933D02*
X18908933Y-11292067D01*
X18783067Y-11292067D01*
X18783067Y-11417933D01*
X18908933Y-11417933D01*
X18757000Y-11606000D02*
X18935000Y-11784000D01*
X18935000Y-11606000D02*
X18757000Y-11784000D01*
X18908933Y-11757933D02*
X18908933Y-11632067D01*
X18783067Y-11632067D01*
X18783067Y-11757933D01*
X18908933Y-11757933D01*
X18782000Y-13641000D02*
X18960000Y-13819000D01*
X18960000Y-13641000D02*
X18782000Y-13819000D01*
X18933933Y-13792933D02*
X18933933Y-13667067D01*
X18808067Y-13667067D01*
X18808067Y-13792933D01*
X18933933Y-13792933D01*
X18782000Y-13981000D02*
X18960000Y-14159000D01*
X18960000Y-13981000D02*
X18782000Y-14159000D01*
X18933933Y-14132933D02*
X18933933Y-14007067D01*
X18808067Y-14007067D01*
X18808067Y-14132933D01*
X18933933Y-14132933D01*
D15*
X15940000Y-10400000D02*
X16260000Y-10720000D01*
X16260000Y-10400000D02*
X15940000Y-10720000D01*
X16100000Y-10720000D02*
X16260000Y-10560000D01*
X16100000Y-10400000D01*
X15940000Y-10560000D01*
X16100000Y-10720000D01*
X15940000Y-14600000D02*
X16260000Y-14920000D01*
X16260000Y-14600000D02*
X15940000Y-14920000D01*
X16100000Y-14920000D02*
X16260000Y-14760000D01*
X16100000Y-14600000D01*
X15940000Y-14760000D01*
X16100000Y-14920000D01*
X18640000Y-14600000D02*
X18960000Y-14920000D01*
X18960000Y-14600000D02*
X18640000Y-14920000D01*
X18800000Y-14920000D02*
X18960000Y-14760000D01*
X18800000Y-14600000D01*
X18640000Y-14760000D01*
X18800000Y-14920000D01*
D11*
X15955777Y-15476484D02*
X15955777Y-15276484D01*
X15955777Y-15276484D02*
X16003396Y-15276484D01*
X16003396Y-15276484D02*
X16031967Y-15286008D01*
X16031967Y-15286008D02*
X16051015Y-15305055D01*
X16051015Y-15305055D02*
X16060539Y-15324103D01*
X16060539Y-15324103D02*
X16070062Y-15362198D01*
X16070062Y-15362198D02*
X16070062Y-15390769D01*
X16070062Y-15390769D02*
X16060539Y-15428865D01*
X16060539Y-15428865D02*
X16051015Y-15447912D01*
X16051015Y-15447912D02*
X16031967Y-15466960D01*
X16031967Y-15466960D02*
X16003396Y-15476484D01*
X16003396Y-15476484D02*
X15955777Y-15476484D01*
X16155777Y-15476484D02*
X16155777Y-15343150D01*
X16155777Y-15381246D02*
X16165301Y-15362198D01*
X16165301Y-15362198D02*
X16174824Y-15352674D01*
X16174824Y-15352674D02*
X16193872Y-15343150D01*
X16193872Y-15343150D02*
X16212920Y-15343150D01*
X16279586Y-15476484D02*
X16279586Y-15343150D01*
X16279586Y-15276484D02*
X16270062Y-15286008D01*
X16270062Y-15286008D02*
X16279586Y-15295531D01*
X16279586Y-15295531D02*
X16289110Y-15286008D01*
X16289110Y-15286008D02*
X16279586Y-15276484D01*
X16279586Y-15276484D02*
X16279586Y-15295531D01*
X16403396Y-15476484D02*
X16384348Y-15466960D01*
X16384348Y-15466960D02*
X16374824Y-15447912D01*
X16374824Y-15447912D02*
X16374824Y-15276484D01*
X16508158Y-15476484D02*
X16489110Y-15466960D01*
X16489110Y-15466960D02*
X16479586Y-15447912D01*
X16479586Y-15447912D02*
X16479586Y-15276484D01*
X16736729Y-15476484D02*
X16736729Y-15276484D01*
X16736729Y-15276484D02*
X16803396Y-15419341D01*
X16803396Y-15419341D02*
X16870063Y-15276484D01*
X16870063Y-15276484D02*
X16870063Y-15476484D01*
X17051015Y-15476484D02*
X17051015Y-15371722D01*
X17051015Y-15371722D02*
X17041491Y-15352674D01*
X17041491Y-15352674D02*
X17022444Y-15343150D01*
X17022444Y-15343150D02*
X16984348Y-15343150D01*
X16984348Y-15343150D02*
X16965301Y-15352674D01*
X17051015Y-15466960D02*
X17031967Y-15476484D01*
X17031967Y-15476484D02*
X16984348Y-15476484D01*
X16984348Y-15476484D02*
X16965301Y-15466960D01*
X16965301Y-15466960D02*
X16955777Y-15447912D01*
X16955777Y-15447912D02*
X16955777Y-15428865D01*
X16955777Y-15428865D02*
X16965301Y-15409817D01*
X16965301Y-15409817D02*
X16984348Y-15400293D01*
X16984348Y-15400293D02*
X17031967Y-15400293D01*
X17031967Y-15400293D02*
X17051015Y-15390769D01*
X17146253Y-15343150D02*
X17146253Y-15543150D01*
X17146253Y-15352674D02*
X17165301Y-15343150D01*
X17165301Y-15343150D02*
X17203396Y-15343150D01*
X17203396Y-15343150D02*
X17222444Y-15352674D01*
X17222444Y-15352674D02*
X17231967Y-15362198D01*
X17231967Y-15362198D02*
X17241491Y-15381246D01*
X17241491Y-15381246D02*
X17241491Y-15438388D01*
X17241491Y-15438388D02*
X17231967Y-15457436D01*
X17231967Y-15457436D02*
X17222444Y-15466960D01*
X17222444Y-15466960D02*
X17203396Y-15476484D01*
X17203396Y-15476484D02*
X17165301Y-15476484D01*
X17165301Y-15476484D02*
X17146253Y-15466960D01*
X17327205Y-15457436D02*
X17336729Y-15466960D01*
X17336729Y-15466960D02*
X17327205Y-15476484D01*
X17327205Y-15476484D02*
X17317682Y-15466960D01*
X17317682Y-15466960D02*
X17327205Y-15457436D01*
X17327205Y-15457436D02*
X17327205Y-15476484D01*
X17327205Y-15352674D02*
X17336729Y-15362198D01*
X17336729Y-15362198D02*
X17327205Y-15371722D01*
X17327205Y-15371722D02*
X17317682Y-15362198D01*
X17317682Y-15362198D02*
X17327205Y-15352674D01*
X17327205Y-15352674D02*
X17327205Y-15371722D01*
D10*
X15665000Y-15790000D02*
X15695000Y-15820000D01*
X15695000Y-15790000D02*
X15665000Y-15820000D01*
D11*
X15993872Y-15696484D02*
X16012920Y-15696484D01*
X16012920Y-15696484D02*
X16031967Y-15706008D01*
X16031967Y-15706008D02*
X16041491Y-15715531D01*
X16041491Y-15715531D02*
X16051015Y-15734579D01*
X16051015Y-15734579D02*
X16060539Y-15772674D01*
X16060539Y-15772674D02*
X16060539Y-15820293D01*
X16060539Y-15820293D02*
X16051015Y-15858388D01*
X16051015Y-15858388D02*
X16041491Y-15877436D01*
X16041491Y-15877436D02*
X16031967Y-15886960D01*
X16031967Y-15886960D02*
X16012920Y-15896484D01*
X16012920Y-15896484D02*
X15993872Y-15896484D01*
X15993872Y-15896484D02*
X15974824Y-15886960D01*
X15974824Y-15886960D02*
X15965301Y-15877436D01*
X15965301Y-15877436D02*
X15955777Y-15858388D01*
X15955777Y-15858388D02*
X15946253Y-15820293D01*
X15946253Y-15820293D02*
X15946253Y-15772674D01*
X15946253Y-15772674D02*
X15955777Y-15734579D01*
X15955777Y-15734579D02*
X15965301Y-15715531D01*
X15965301Y-15715531D02*
X15974824Y-15706008D01*
X15974824Y-15706008D02*
X15993872Y-15696484D01*
X16146253Y-15877436D02*
X16155777Y-15886960D01*
X16155777Y-15886960D02*
X16146253Y-15896484D01*
X16146253Y-15896484D02*
X16136729Y-15886960D01*
X16136729Y-15886960D02*
X16146253Y-15877436D01*
X16146253Y-15877436D02*
X16146253Y-15896484D01*
X16222443Y-15696484D02*
X16346253Y-15696484D01*
X16346253Y-15696484D02*
X16279586Y-15772674D01*
X16279586Y-15772674D02*
X16308158Y-15772674D01*
X16308158Y-15772674D02*
X16327205Y-15782198D01*
X16327205Y-15782198D02*
X16336729Y-15791722D01*
X16336729Y-15791722D02*
X16346253Y-15810769D01*
X16346253Y-15810769D02*
X16346253Y-15858388D01*
X16346253Y-15858388D02*
X16336729Y-15877436D01*
X16336729Y-15877436D02*
X16327205Y-15886960D01*
X16327205Y-15886960D02*
X16308158Y-15896484D01*
X16308158Y-15896484D02*
X16251015Y-15896484D01*
X16251015Y-15896484D02*
X16231967Y-15886960D01*
X16231967Y-15886960D02*
X16222443Y-15877436D01*
X16470062Y-15696484D02*
X16489110Y-15696484D01*
X16489110Y-15696484D02*
X16508158Y-15706008D01*
X16508158Y-15706008D02*
X16517682Y-15715531D01*
X16517682Y-15715531D02*
X16527205Y-15734579D01*
X16527205Y-15734579D02*
X16536729Y-15772674D01*
X16536729Y-15772674D02*
X16536729Y-15820293D01*
X16536729Y-15820293D02*
X16527205Y-15858388D01*
X16527205Y-15858388D02*
X16517682Y-15877436D01*
X16517682Y-15877436D02*
X16508158Y-15886960D01*
X16508158Y-15886960D02*
X16489110Y-15896484D01*
X16489110Y-15896484D02*
X16470062Y-15896484D01*
X16470062Y-15896484D02*
X16451015Y-15886960D01*
X16451015Y-15886960D02*
X16441491Y-15877436D01*
X16441491Y-15877436D02*
X16431967Y-15858388D01*
X16431967Y-15858388D02*
X16422443Y-15820293D01*
X16422443Y-15820293D02*
X16422443Y-15772674D01*
X16422443Y-15772674D02*
X16431967Y-15734579D01*
X16431967Y-15734579D02*
X16441491Y-15715531D01*
X16441491Y-15715531D02*
X16451015Y-15706008D01*
X16451015Y-15706008D02*
X16470062Y-15696484D01*
X16660539Y-15696484D02*
X16679586Y-15696484D01*
X16679586Y-15696484D02*
X16698634Y-15706008D01*
X16698634Y-15706008D02*
X16708158Y-15715531D01*
X16708158Y-15715531D02*
X16717682Y-15734579D01*
X16717682Y-15734579D02*
X16727205Y-15772674D01*
X16727205Y-15772674D02*
X16727205Y-15820293D01*
X16727205Y-15820293D02*
X16717682Y-15858388D01*
X16717682Y-15858388D02*
X16708158Y-15877436D01*
X16708158Y-15877436D02*
X16698634Y-15886960D01*
X16698634Y-15886960D02*
X16679586Y-15896484D01*
X16679586Y-15896484D02*
X16660539Y-15896484D01*
X16660539Y-15896484D02*
X16641491Y-15886960D01*
X16641491Y-15886960D02*
X16631967Y-15877436D01*
X16631967Y-15877436D02*
X16622443Y-15858388D01*
X16622443Y-15858388D02*
X16612920Y-15820293D01*
X16612920Y-15820293D02*
X16612920Y-15772674D01*
X16612920Y-15772674D02*
X16622443Y-15734579D01*
X16622443Y-15734579D02*
X16631967Y-15715531D01*
X16631967Y-15715531D02*
X16641491Y-15706008D01*
X16641491Y-15706008D02*
X16660539Y-15696484D01*
X16812920Y-15896484D02*
X16812920Y-15763150D01*
X16812920Y-15782198D02*
X16822444Y-15772674D01*
X16822444Y-15772674D02*
X16841491Y-15763150D01*
X16841491Y-15763150D02*
X16870063Y-15763150D01*
X16870063Y-15763150D02*
X16889110Y-15772674D01*
X16889110Y-15772674D02*
X16898634Y-15791722D01*
X16898634Y-15791722D02*
X16898634Y-15896484D01*
X16898634Y-15791722D02*
X16908158Y-15772674D01*
X16908158Y-15772674D02*
X16927205Y-15763150D01*
X16927205Y-15763150D02*
X16955777Y-15763150D01*
X16955777Y-15763150D02*
X16974825Y-15772674D01*
X16974825Y-15772674D02*
X16984348Y-15791722D01*
X16984348Y-15791722D02*
X16984348Y-15896484D01*
X17079586Y-15896484D02*
X17079586Y-15763150D01*
X17079586Y-15782198D02*
X17089110Y-15772674D01*
X17089110Y-15772674D02*
X17108158Y-15763150D01*
X17108158Y-15763150D02*
X17136729Y-15763150D01*
X17136729Y-15763150D02*
X17155777Y-15772674D01*
X17155777Y-15772674D02*
X17165301Y-15791722D01*
X17165301Y-15791722D02*
X17165301Y-15896484D01*
X17165301Y-15791722D02*
X17174825Y-15772674D01*
X17174825Y-15772674D02*
X17193872Y-15763150D01*
X17193872Y-15763150D02*
X17222444Y-15763150D01*
X17222444Y-15763150D02*
X17241491Y-15772674D01*
X17241491Y-15772674D02*
X17251015Y-15791722D01*
X17251015Y-15791722D02*
X17251015Y-15896484D01*
X17641491Y-15686960D02*
X17470063Y-15944103D01*
X17898634Y-15696484D02*
X17917682Y-15696484D01*
X17917682Y-15696484D02*
X17936729Y-15706008D01*
X17936729Y-15706008D02*
X17946253Y-15715531D01*
X17946253Y-15715531D02*
X17955777Y-15734579D01*
X17955777Y-15734579D02*
X17965301Y-15772674D01*
X17965301Y-15772674D02*
X17965301Y-15820293D01*
X17965301Y-15820293D02*
X17955777Y-15858388D01*
X17955777Y-15858388D02*
X17946253Y-15877436D01*
X17946253Y-15877436D02*
X17936729Y-15886960D01*
X17936729Y-15886960D02*
X17917682Y-15896484D01*
X17917682Y-15896484D02*
X17898634Y-15896484D01*
X17898634Y-15896484D02*
X17879587Y-15886960D01*
X17879587Y-15886960D02*
X17870063Y-15877436D01*
X17870063Y-15877436D02*
X17860539Y-15858388D01*
X17860539Y-15858388D02*
X17851015Y-15820293D01*
X17851015Y-15820293D02*
X17851015Y-15772674D01*
X17851015Y-15772674D02*
X17860539Y-15734579D01*
X17860539Y-15734579D02*
X17870063Y-15715531D01*
X17870063Y-15715531D02*
X17879587Y-15706008D01*
X17879587Y-15706008D02*
X17898634Y-15696484D01*
X18051015Y-15877436D02*
X18060539Y-15886960D01*
X18060539Y-15886960D02*
X18051015Y-15896484D01*
X18051015Y-15896484D02*
X18041491Y-15886960D01*
X18041491Y-15886960D02*
X18051015Y-15877436D01*
X18051015Y-15877436D02*
X18051015Y-15896484D01*
X18184348Y-15696484D02*
X18203396Y-15696484D01*
X18203396Y-15696484D02*
X18222444Y-15706008D01*
X18222444Y-15706008D02*
X18231968Y-15715531D01*
X18231968Y-15715531D02*
X18241491Y-15734579D01*
X18241491Y-15734579D02*
X18251015Y-15772674D01*
X18251015Y-15772674D02*
X18251015Y-15820293D01*
X18251015Y-15820293D02*
X18241491Y-15858388D01*
X18241491Y-15858388D02*
X18231968Y-15877436D01*
X18231968Y-15877436D02*
X18222444Y-15886960D01*
X18222444Y-15886960D02*
X18203396Y-15896484D01*
X18203396Y-15896484D02*
X18184348Y-15896484D01*
X18184348Y-15896484D02*
X18165301Y-15886960D01*
X18165301Y-15886960D02*
X18155777Y-15877436D01*
X18155777Y-15877436D02*
X18146253Y-15858388D01*
X18146253Y-15858388D02*
X18136729Y-15820293D01*
X18136729Y-15820293D02*
X18136729Y-15772674D01*
X18136729Y-15772674D02*
X18146253Y-15734579D01*
X18146253Y-15734579D02*
X18155777Y-15715531D01*
X18155777Y-15715531D02*
X18165301Y-15706008D01*
X18165301Y-15706008D02*
X18184348Y-15696484D01*
X18441491Y-15896484D02*
X18327206Y-15896484D01*
X18384348Y-15896484D02*
X18384348Y-15696484D01*
X18384348Y-15696484D02*
X18365301Y-15725055D01*
X18365301Y-15725055D02*
X18346253Y-15744103D01*
X18346253Y-15744103D02*
X18327206Y-15753627D01*
X18631968Y-15896484D02*
X18517682Y-15896484D01*
X18574825Y-15896484D02*
X18574825Y-15696484D01*
X18574825Y-15696484D02*
X18555777Y-15725055D01*
X18555777Y-15725055D02*
X18536729Y-15744103D01*
X18536729Y-15744103D02*
X18517682Y-15753627D01*
X18746253Y-15782198D02*
X18727206Y-15772674D01*
X18727206Y-15772674D02*
X18717682Y-15763150D01*
X18717682Y-15763150D02*
X18708158Y-15744103D01*
X18708158Y-15744103D02*
X18708158Y-15734579D01*
X18708158Y-15734579D02*
X18717682Y-15715531D01*
X18717682Y-15715531D02*
X18727206Y-15706008D01*
X18727206Y-15706008D02*
X18746253Y-15696484D01*
X18746253Y-15696484D02*
X18784349Y-15696484D01*
X18784349Y-15696484D02*
X18803396Y-15706008D01*
X18803396Y-15706008D02*
X18812920Y-15715531D01*
X18812920Y-15715531D02*
X18822444Y-15734579D01*
X18822444Y-15734579D02*
X18822444Y-15744103D01*
X18822444Y-15744103D02*
X18812920Y-15763150D01*
X18812920Y-15763150D02*
X18803396Y-15772674D01*
X18803396Y-15772674D02*
X18784349Y-15782198D01*
X18784349Y-15782198D02*
X18746253Y-15782198D01*
X18746253Y-15782198D02*
X18727206Y-15791722D01*
X18727206Y-15791722D02*
X18717682Y-15801246D01*
X18717682Y-15801246D02*
X18708158Y-15820293D01*
X18708158Y-15820293D02*
X18708158Y-15858388D01*
X18708158Y-15858388D02*
X18717682Y-15877436D01*
X18717682Y-15877436D02*
X18727206Y-15886960D01*
X18727206Y-15886960D02*
X18746253Y-15896484D01*
X18746253Y-15896484D02*
X18784349Y-15896484D01*
X18784349Y-15896484D02*
X18803396Y-15886960D01*
X18803396Y-15886960D02*
X18812920Y-15877436D01*
X18812920Y-15877436D02*
X18822444Y-15858388D01*
X18822444Y-15858388D02*
X18822444Y-15820293D01*
X18822444Y-15820293D02*
X18812920Y-15801246D01*
X18812920Y-15801246D02*
X18803396Y-15791722D01*
X18803396Y-15791722D02*
X18784349Y-15782198D01*
X18898634Y-15696484D02*
X18898634Y-15734579D01*
X18974825Y-15696484D02*
X18974825Y-15734579D01*
X19270063Y-15972674D02*
X19260539Y-15963150D01*
X19260539Y-15963150D02*
X19241491Y-15934579D01*
X19241491Y-15934579D02*
X19231968Y-15915531D01*
X19231968Y-15915531D02*
X19222444Y-15886960D01*
X19222444Y-15886960D02*
X19212920Y-15839341D01*
X19212920Y-15839341D02*
X19212920Y-15801246D01*
X19212920Y-15801246D02*
X19222444Y-15753627D01*
X19222444Y-15753627D02*
X19231968Y-15725055D01*
X19231968Y-15725055D02*
X19241491Y-15706008D01*
X19241491Y-15706008D02*
X19260539Y-15677436D01*
X19260539Y-15677436D02*
X19270063Y-15667912D01*
X19327206Y-15696484D02*
X19460539Y-15696484D01*
X19460539Y-15696484D02*
X19374825Y-15896484D01*
X19565301Y-15782198D02*
X19546253Y-15772674D01*
X19546253Y-15772674D02*
X19536730Y-15763150D01*
X19536730Y-15763150D02*
X19527206Y-15744103D01*
X19527206Y-15744103D02*
X19527206Y-15734579D01*
X19527206Y-15734579D02*
X19536730Y-15715531D01*
X19536730Y-15715531D02*
X19546253Y-15706008D01*
X19546253Y-15706008D02*
X19565301Y-15696484D01*
X19565301Y-15696484D02*
X19603396Y-15696484D01*
X19603396Y-15696484D02*
X19622444Y-15706008D01*
X19622444Y-15706008D02*
X19631968Y-15715531D01*
X19631968Y-15715531D02*
X19641491Y-15734579D01*
X19641491Y-15734579D02*
X19641491Y-15744103D01*
X19641491Y-15744103D02*
X19631968Y-15763150D01*
X19631968Y-15763150D02*
X19622444Y-15772674D01*
X19622444Y-15772674D02*
X19603396Y-15782198D01*
X19603396Y-15782198D02*
X19565301Y-15782198D01*
X19565301Y-15782198D02*
X19546253Y-15791722D01*
X19546253Y-15791722D02*
X19536730Y-15801246D01*
X19536730Y-15801246D02*
X19527206Y-15820293D01*
X19527206Y-15820293D02*
X19527206Y-15858388D01*
X19527206Y-15858388D02*
X19536730Y-15877436D01*
X19536730Y-15877436D02*
X19546253Y-15886960D01*
X19546253Y-15886960D02*
X19565301Y-15896484D01*
X19565301Y-15896484D02*
X19603396Y-15896484D01*
X19603396Y-15896484D02*
X19622444Y-15886960D01*
X19622444Y-15886960D02*
X19631968Y-15877436D01*
X19631968Y-15877436D02*
X19641491Y-15858388D01*
X19641491Y-15858388D02*
X19641491Y-15820293D01*
X19641491Y-15820293D02*
X19631968Y-15801246D01*
X19631968Y-15801246D02*
X19622444Y-15791722D01*
X19622444Y-15791722D02*
X19603396Y-15782198D01*
X19879587Y-15896484D02*
X19879587Y-15696484D01*
X19965301Y-15896484D02*
X19965301Y-15791722D01*
X19965301Y-15791722D02*
X19955777Y-15772674D01*
X19955777Y-15772674D02*
X19936730Y-15763150D01*
X19936730Y-15763150D02*
X19908158Y-15763150D01*
X19908158Y-15763150D02*
X19889111Y-15772674D01*
X19889111Y-15772674D02*
X19879587Y-15782198D01*
X20089111Y-15896484D02*
X20070063Y-15886960D01*
X20070063Y-15886960D02*
X20060539Y-15877436D01*
X20060539Y-15877436D02*
X20051015Y-15858388D01*
X20051015Y-15858388D02*
X20051015Y-15801246D01*
X20051015Y-15801246D02*
X20060539Y-15782198D01*
X20060539Y-15782198D02*
X20070063Y-15772674D01*
X20070063Y-15772674D02*
X20089111Y-15763150D01*
X20089111Y-15763150D02*
X20117682Y-15763150D01*
X20117682Y-15763150D02*
X20136730Y-15772674D01*
X20136730Y-15772674D02*
X20146253Y-15782198D01*
X20146253Y-15782198D02*
X20155777Y-15801246D01*
X20155777Y-15801246D02*
X20155777Y-15858388D01*
X20155777Y-15858388D02*
X20146253Y-15877436D01*
X20146253Y-15877436D02*
X20136730Y-15886960D01*
X20136730Y-15886960D02*
X20117682Y-15896484D01*
X20117682Y-15896484D02*
X20089111Y-15896484D01*
X20270063Y-15896484D02*
X20251015Y-15886960D01*
X20251015Y-15886960D02*
X20241492Y-15867912D01*
X20241492Y-15867912D02*
X20241492Y-15696484D01*
X20422444Y-15886960D02*
X20403396Y-15896484D01*
X20403396Y-15896484D02*
X20365301Y-15896484D01*
X20365301Y-15896484D02*
X20346253Y-15886960D01*
X20346253Y-15886960D02*
X20336730Y-15867912D01*
X20336730Y-15867912D02*
X20336730Y-15791722D01*
X20336730Y-15791722D02*
X20346253Y-15772674D01*
X20346253Y-15772674D02*
X20365301Y-15763150D01*
X20365301Y-15763150D02*
X20403396Y-15763150D01*
X20403396Y-15763150D02*
X20422444Y-15772674D01*
X20422444Y-15772674D02*
X20431968Y-15791722D01*
X20431968Y-15791722D02*
X20431968Y-15810769D01*
X20431968Y-15810769D02*
X20336730Y-15829817D01*
X20508158Y-15886960D02*
X20527206Y-15896484D01*
X20527206Y-15896484D02*
X20565301Y-15896484D01*
X20565301Y-15896484D02*
X20584349Y-15886960D01*
X20584349Y-15886960D02*
X20593873Y-15867912D01*
X20593873Y-15867912D02*
X20593873Y-15858388D01*
X20593873Y-15858388D02*
X20584349Y-15839341D01*
X20584349Y-15839341D02*
X20565301Y-15829817D01*
X20565301Y-15829817D02*
X20536730Y-15829817D01*
X20536730Y-15829817D02*
X20517682Y-15820293D01*
X20517682Y-15820293D02*
X20508158Y-15801246D01*
X20508158Y-15801246D02*
X20508158Y-15791722D01*
X20508158Y-15791722D02*
X20517682Y-15772674D01*
X20517682Y-15772674D02*
X20536730Y-15763150D01*
X20536730Y-15763150D02*
X20565301Y-15763150D01*
X20565301Y-15763150D02*
X20584349Y-15772674D01*
X20660539Y-15972674D02*
X20670063Y-15963150D01*
X20670063Y-15963150D02*
X20689111Y-15934579D01*
X20689111Y-15934579D02*
X20698634Y-15915531D01*
X20698634Y-15915531D02*
X20708158Y-15886960D01*
X20708158Y-15886960D02*
X20717682Y-15839341D01*
X20717682Y-15839341D02*
X20717682Y-15801246D01*
X20717682Y-15801246D02*
X20708158Y-15753627D01*
X20708158Y-15753627D02*
X20698634Y-15725055D01*
X20698634Y-15725055D02*
X20689111Y-15706008D01*
X20689111Y-15706008D02*
X20670063Y-15677436D01*
X20670063Y-15677436D02*
X20660539Y-15667912D01*
D10*
X15695000Y-16069000D02*
G75*
G02*
X15665000Y-16069000I-15000J0D01*
G01*
X15665000Y-16069000D02*
G75*
G02*
X15695000Y-16069000I15000J0D01*
G01*
D11*
X15993872Y-15960484D02*
X16012920Y-15960484D01*
X16012920Y-15960484D02*
X16031967Y-15970008D01*
X16031967Y-15970008D02*
X16041491Y-15979531D01*
X16041491Y-15979531D02*
X16051015Y-15998579D01*
X16051015Y-15998579D02*
X16060539Y-16036674D01*
X16060539Y-16036674D02*
X16060539Y-16084293D01*
X16060539Y-16084293D02*
X16051015Y-16122388D01*
X16051015Y-16122388D02*
X16041491Y-16141436D01*
X16041491Y-16141436D02*
X16031967Y-16150960D01*
X16031967Y-16150960D02*
X16012920Y-16160484D01*
X16012920Y-16160484D02*
X15993872Y-16160484D01*
X15993872Y-16160484D02*
X15974824Y-16150960D01*
X15974824Y-16150960D02*
X15965301Y-16141436D01*
X15965301Y-16141436D02*
X15955777Y-16122388D01*
X15955777Y-16122388D02*
X15946253Y-16084293D01*
X15946253Y-16084293D02*
X15946253Y-16036674D01*
X15946253Y-16036674D02*
X15955777Y-15998579D01*
X15955777Y-15998579D02*
X15965301Y-15979531D01*
X15965301Y-15979531D02*
X15974824Y-15970008D01*
X15974824Y-15970008D02*
X15993872Y-15960484D01*
X16146253Y-16141436D02*
X16155777Y-16150960D01*
X16155777Y-16150960D02*
X16146253Y-16160484D01*
X16146253Y-16160484D02*
X16136729Y-16150960D01*
X16136729Y-16150960D02*
X16146253Y-16141436D01*
X16146253Y-16141436D02*
X16146253Y-16160484D01*
X16222443Y-15960484D02*
X16346253Y-15960484D01*
X16346253Y-15960484D02*
X16279586Y-16036674D01*
X16279586Y-16036674D02*
X16308158Y-16036674D01*
X16308158Y-16036674D02*
X16327205Y-16046198D01*
X16327205Y-16046198D02*
X16336729Y-16055722D01*
X16336729Y-16055722D02*
X16346253Y-16074769D01*
X16346253Y-16074769D02*
X16346253Y-16122388D01*
X16346253Y-16122388D02*
X16336729Y-16141436D01*
X16336729Y-16141436D02*
X16327205Y-16150960D01*
X16327205Y-16150960D02*
X16308158Y-16160484D01*
X16308158Y-16160484D02*
X16251015Y-16160484D01*
X16251015Y-16160484D02*
X16231967Y-16150960D01*
X16231967Y-16150960D02*
X16222443Y-16141436D01*
X16470062Y-15960484D02*
X16489110Y-15960484D01*
X16489110Y-15960484D02*
X16508158Y-15970008D01*
X16508158Y-15970008D02*
X16517682Y-15979531D01*
X16517682Y-15979531D02*
X16527205Y-15998579D01*
X16527205Y-15998579D02*
X16536729Y-16036674D01*
X16536729Y-16036674D02*
X16536729Y-16084293D01*
X16536729Y-16084293D02*
X16527205Y-16122388D01*
X16527205Y-16122388D02*
X16517682Y-16141436D01*
X16517682Y-16141436D02*
X16508158Y-16150960D01*
X16508158Y-16150960D02*
X16489110Y-16160484D01*
X16489110Y-16160484D02*
X16470062Y-16160484D01*
X16470062Y-16160484D02*
X16451015Y-16150960D01*
X16451015Y-16150960D02*
X16441491Y-16141436D01*
X16441491Y-16141436D02*
X16431967Y-16122388D01*
X16431967Y-16122388D02*
X16422443Y-16084293D01*
X16422443Y-16084293D02*
X16422443Y-16036674D01*
X16422443Y-16036674D02*
X16431967Y-15998579D01*
X16431967Y-15998579D02*
X16441491Y-15979531D01*
X16441491Y-15979531D02*
X16451015Y-15970008D01*
X16451015Y-15970008D02*
X16470062Y-15960484D01*
X16660539Y-15960484D02*
X16679586Y-15960484D01*
X16679586Y-15960484D02*
X16698634Y-15970008D01*
X16698634Y-15970008D02*
X16708158Y-15979531D01*
X16708158Y-15979531D02*
X16717682Y-15998579D01*
X16717682Y-15998579D02*
X16727205Y-16036674D01*
X16727205Y-16036674D02*
X16727205Y-16084293D01*
X16727205Y-16084293D02*
X16717682Y-16122388D01*
X16717682Y-16122388D02*
X16708158Y-16141436D01*
X16708158Y-16141436D02*
X16698634Y-16150960D01*
X16698634Y-16150960D02*
X16679586Y-16160484D01*
X16679586Y-16160484D02*
X16660539Y-16160484D01*
X16660539Y-16160484D02*
X16641491Y-16150960D01*
X16641491Y-16150960D02*
X16631967Y-16141436D01*
X16631967Y-16141436D02*
X16622443Y-16122388D01*
X16622443Y-16122388D02*
X16612920Y-16084293D01*
X16612920Y-16084293D02*
X16612920Y-16036674D01*
X16612920Y-16036674D02*
X16622443Y-15998579D01*
X16622443Y-15998579D02*
X16631967Y-15979531D01*
X16631967Y-15979531D02*
X16641491Y-15970008D01*
X16641491Y-15970008D02*
X16660539Y-15960484D01*
X16812920Y-16160484D02*
X16812920Y-16027150D01*
X16812920Y-16046198D02*
X16822444Y-16036674D01*
X16822444Y-16036674D02*
X16841491Y-16027150D01*
X16841491Y-16027150D02*
X16870063Y-16027150D01*
X16870063Y-16027150D02*
X16889110Y-16036674D01*
X16889110Y-16036674D02*
X16898634Y-16055722D01*
X16898634Y-16055722D02*
X16898634Y-16160484D01*
X16898634Y-16055722D02*
X16908158Y-16036674D01*
X16908158Y-16036674D02*
X16927205Y-16027150D01*
X16927205Y-16027150D02*
X16955777Y-16027150D01*
X16955777Y-16027150D02*
X16974825Y-16036674D01*
X16974825Y-16036674D02*
X16984348Y-16055722D01*
X16984348Y-16055722D02*
X16984348Y-16160484D01*
X17079586Y-16160484D02*
X17079586Y-16027150D01*
X17079586Y-16046198D02*
X17089110Y-16036674D01*
X17089110Y-16036674D02*
X17108158Y-16027150D01*
X17108158Y-16027150D02*
X17136729Y-16027150D01*
X17136729Y-16027150D02*
X17155777Y-16036674D01*
X17155777Y-16036674D02*
X17165301Y-16055722D01*
X17165301Y-16055722D02*
X17165301Y-16160484D01*
X17165301Y-16055722D02*
X17174825Y-16036674D01*
X17174825Y-16036674D02*
X17193872Y-16027150D01*
X17193872Y-16027150D02*
X17222444Y-16027150D01*
X17222444Y-16027150D02*
X17241491Y-16036674D01*
X17241491Y-16036674D02*
X17251015Y-16055722D01*
X17251015Y-16055722D02*
X17251015Y-16160484D01*
X17641491Y-15950960D02*
X17470063Y-16208103D01*
X17898634Y-15960484D02*
X17917682Y-15960484D01*
X17917682Y-15960484D02*
X17936729Y-15970008D01*
X17936729Y-15970008D02*
X17946253Y-15979531D01*
X17946253Y-15979531D02*
X17955777Y-15998579D01*
X17955777Y-15998579D02*
X17965301Y-16036674D01*
X17965301Y-16036674D02*
X17965301Y-16084293D01*
X17965301Y-16084293D02*
X17955777Y-16122388D01*
X17955777Y-16122388D02*
X17946253Y-16141436D01*
X17946253Y-16141436D02*
X17936729Y-16150960D01*
X17936729Y-16150960D02*
X17917682Y-16160484D01*
X17917682Y-16160484D02*
X17898634Y-16160484D01*
X17898634Y-16160484D02*
X17879587Y-16150960D01*
X17879587Y-16150960D02*
X17870063Y-16141436D01*
X17870063Y-16141436D02*
X17860539Y-16122388D01*
X17860539Y-16122388D02*
X17851015Y-16084293D01*
X17851015Y-16084293D02*
X17851015Y-16036674D01*
X17851015Y-16036674D02*
X17860539Y-15998579D01*
X17860539Y-15998579D02*
X17870063Y-15979531D01*
X17870063Y-15979531D02*
X17879587Y-15970008D01*
X17879587Y-15970008D02*
X17898634Y-15960484D01*
X18051015Y-16141436D02*
X18060539Y-16150960D01*
X18060539Y-16150960D02*
X18051015Y-16160484D01*
X18051015Y-16160484D02*
X18041491Y-16150960D01*
X18041491Y-16150960D02*
X18051015Y-16141436D01*
X18051015Y-16141436D02*
X18051015Y-16160484D01*
X18184348Y-15960484D02*
X18203396Y-15960484D01*
X18203396Y-15960484D02*
X18222444Y-15970008D01*
X18222444Y-15970008D02*
X18231968Y-15979531D01*
X18231968Y-15979531D02*
X18241491Y-15998579D01*
X18241491Y-15998579D02*
X18251015Y-16036674D01*
X18251015Y-16036674D02*
X18251015Y-16084293D01*
X18251015Y-16084293D02*
X18241491Y-16122388D01*
X18241491Y-16122388D02*
X18231968Y-16141436D01*
X18231968Y-16141436D02*
X18222444Y-16150960D01*
X18222444Y-16150960D02*
X18203396Y-16160484D01*
X18203396Y-16160484D02*
X18184348Y-16160484D01*
X18184348Y-16160484D02*
X18165301Y-16150960D01*
X18165301Y-16150960D02*
X18155777Y-16141436D01*
X18155777Y-16141436D02*
X18146253Y-16122388D01*
X18146253Y-16122388D02*
X18136729Y-16084293D01*
X18136729Y-16084293D02*
X18136729Y-16036674D01*
X18136729Y-16036674D02*
X18146253Y-15998579D01*
X18146253Y-15998579D02*
X18155777Y-15979531D01*
X18155777Y-15979531D02*
X18165301Y-15970008D01*
X18165301Y-15970008D02*
X18184348Y-15960484D01*
X18441491Y-16160484D02*
X18327206Y-16160484D01*
X18384348Y-16160484D02*
X18384348Y-15960484D01*
X18384348Y-15960484D02*
X18365301Y-15989055D01*
X18365301Y-15989055D02*
X18346253Y-16008103D01*
X18346253Y-16008103D02*
X18327206Y-16017627D01*
X18631968Y-16160484D02*
X18517682Y-16160484D01*
X18574825Y-16160484D02*
X18574825Y-15960484D01*
X18574825Y-15960484D02*
X18555777Y-15989055D01*
X18555777Y-15989055D02*
X18536729Y-16008103D01*
X18536729Y-16008103D02*
X18517682Y-16017627D01*
X18746253Y-16046198D02*
X18727206Y-16036674D01*
X18727206Y-16036674D02*
X18717682Y-16027150D01*
X18717682Y-16027150D02*
X18708158Y-16008103D01*
X18708158Y-16008103D02*
X18708158Y-15998579D01*
X18708158Y-15998579D02*
X18717682Y-15979531D01*
X18717682Y-15979531D02*
X18727206Y-15970008D01*
X18727206Y-15970008D02*
X18746253Y-15960484D01*
X18746253Y-15960484D02*
X18784349Y-15960484D01*
X18784349Y-15960484D02*
X18803396Y-15970008D01*
X18803396Y-15970008D02*
X18812920Y-15979531D01*
X18812920Y-15979531D02*
X18822444Y-15998579D01*
X18822444Y-15998579D02*
X18822444Y-16008103D01*
X18822444Y-16008103D02*
X18812920Y-16027150D01*
X18812920Y-16027150D02*
X18803396Y-16036674D01*
X18803396Y-16036674D02*
X18784349Y-16046198D01*
X18784349Y-16046198D02*
X18746253Y-16046198D01*
X18746253Y-16046198D02*
X18727206Y-16055722D01*
X18727206Y-16055722D02*
X18717682Y-16065246D01*
X18717682Y-16065246D02*
X18708158Y-16084293D01*
X18708158Y-16084293D02*
X18708158Y-16122388D01*
X18708158Y-16122388D02*
X18717682Y-16141436D01*
X18717682Y-16141436D02*
X18727206Y-16150960D01*
X18727206Y-16150960D02*
X18746253Y-16160484D01*
X18746253Y-16160484D02*
X18784349Y-16160484D01*
X18784349Y-16160484D02*
X18803396Y-16150960D01*
X18803396Y-16150960D02*
X18812920Y-16141436D01*
X18812920Y-16141436D02*
X18822444Y-16122388D01*
X18822444Y-16122388D02*
X18822444Y-16084293D01*
X18822444Y-16084293D02*
X18812920Y-16065246D01*
X18812920Y-16065246D02*
X18803396Y-16055722D01*
X18803396Y-16055722D02*
X18784349Y-16046198D01*
X18898634Y-15960484D02*
X18898634Y-15998579D01*
X18974825Y-15960484D02*
X18974825Y-15998579D01*
X19270063Y-16236674D02*
X19260539Y-16227150D01*
X19260539Y-16227150D02*
X19241491Y-16198579D01*
X19241491Y-16198579D02*
X19231968Y-16179531D01*
X19231968Y-16179531D02*
X19222444Y-16150960D01*
X19222444Y-16150960D02*
X19212920Y-16103341D01*
X19212920Y-16103341D02*
X19212920Y-16065246D01*
X19212920Y-16065246D02*
X19222444Y-16017627D01*
X19222444Y-16017627D02*
X19231968Y-15989055D01*
X19231968Y-15989055D02*
X19241491Y-15970008D01*
X19241491Y-15970008D02*
X19260539Y-15941436D01*
X19260539Y-15941436D02*
X19270063Y-15931912D01*
X19374825Y-16046198D02*
X19355777Y-16036674D01*
X19355777Y-16036674D02*
X19346253Y-16027150D01*
X19346253Y-16027150D02*
X19336730Y-16008103D01*
X19336730Y-16008103D02*
X19336730Y-15998579D01*
X19336730Y-15998579D02*
X19346253Y-15979531D01*
X19346253Y-15979531D02*
X19355777Y-15970008D01*
X19355777Y-15970008D02*
X19374825Y-15960484D01*
X19374825Y-15960484D02*
X19412920Y-15960484D01*
X19412920Y-15960484D02*
X19431968Y-15970008D01*
X19431968Y-15970008D02*
X19441491Y-15979531D01*
X19441491Y-15979531D02*
X19451015Y-15998579D01*
X19451015Y-15998579D02*
X19451015Y-16008103D01*
X19451015Y-16008103D02*
X19441491Y-16027150D01*
X19441491Y-16027150D02*
X19431968Y-16036674D01*
X19431968Y-16036674D02*
X19412920Y-16046198D01*
X19412920Y-16046198D02*
X19374825Y-16046198D01*
X19374825Y-16046198D02*
X19355777Y-16055722D01*
X19355777Y-16055722D02*
X19346253Y-16065246D01*
X19346253Y-16065246D02*
X19336730Y-16084293D01*
X19336730Y-16084293D02*
X19336730Y-16122388D01*
X19336730Y-16122388D02*
X19346253Y-16141436D01*
X19346253Y-16141436D02*
X19355777Y-16150960D01*
X19355777Y-16150960D02*
X19374825Y-16160484D01*
X19374825Y-16160484D02*
X19412920Y-16160484D01*
X19412920Y-16160484D02*
X19431968Y-16150960D01*
X19431968Y-16150960D02*
X19441491Y-16141436D01*
X19441491Y-16141436D02*
X19451015Y-16122388D01*
X19451015Y-16122388D02*
X19451015Y-16084293D01*
X19451015Y-16084293D02*
X19441491Y-16065246D01*
X19441491Y-16065246D02*
X19431968Y-16055722D01*
X19431968Y-16055722D02*
X19412920Y-16046198D01*
X19689111Y-16160484D02*
X19689111Y-15960484D01*
X19774825Y-16160484D02*
X19774825Y-16055722D01*
X19774825Y-16055722D02*
X19765301Y-16036674D01*
X19765301Y-16036674D02*
X19746253Y-16027150D01*
X19746253Y-16027150D02*
X19717682Y-16027150D01*
X19717682Y-16027150D02*
X19698634Y-16036674D01*
X19698634Y-16036674D02*
X19689111Y-16046198D01*
X19898634Y-16160484D02*
X19879587Y-16150960D01*
X19879587Y-16150960D02*
X19870063Y-16141436D01*
X19870063Y-16141436D02*
X19860539Y-16122388D01*
X19860539Y-16122388D02*
X19860539Y-16065246D01*
X19860539Y-16065246D02*
X19870063Y-16046198D01*
X19870063Y-16046198D02*
X19879587Y-16036674D01*
X19879587Y-16036674D02*
X19898634Y-16027150D01*
X19898634Y-16027150D02*
X19927206Y-16027150D01*
X19927206Y-16027150D02*
X19946253Y-16036674D01*
X19946253Y-16036674D02*
X19955777Y-16046198D01*
X19955777Y-16046198D02*
X19965301Y-16065246D01*
X19965301Y-16065246D02*
X19965301Y-16122388D01*
X19965301Y-16122388D02*
X19955777Y-16141436D01*
X19955777Y-16141436D02*
X19946253Y-16150960D01*
X19946253Y-16150960D02*
X19927206Y-16160484D01*
X19927206Y-16160484D02*
X19898634Y-16160484D01*
X20079587Y-16160484D02*
X20060539Y-16150960D01*
X20060539Y-16150960D02*
X20051015Y-16131912D01*
X20051015Y-16131912D02*
X20051015Y-15960484D01*
X20231968Y-16150960D02*
X20212920Y-16160484D01*
X20212920Y-16160484D02*
X20174825Y-16160484D01*
X20174825Y-16160484D02*
X20155777Y-16150960D01*
X20155777Y-16150960D02*
X20146253Y-16131912D01*
X20146253Y-16131912D02*
X20146253Y-16055722D01*
X20146253Y-16055722D02*
X20155777Y-16036674D01*
X20155777Y-16036674D02*
X20174825Y-16027150D01*
X20174825Y-16027150D02*
X20212920Y-16027150D01*
X20212920Y-16027150D02*
X20231968Y-16036674D01*
X20231968Y-16036674D02*
X20241492Y-16055722D01*
X20241492Y-16055722D02*
X20241492Y-16074769D01*
X20241492Y-16074769D02*
X20146253Y-16093817D01*
X20317682Y-16150960D02*
X20336730Y-16160484D01*
X20336730Y-16160484D02*
X20374825Y-16160484D01*
X20374825Y-16160484D02*
X20393873Y-16150960D01*
X20393873Y-16150960D02*
X20403396Y-16131912D01*
X20403396Y-16131912D02*
X20403396Y-16122388D01*
X20403396Y-16122388D02*
X20393873Y-16103341D01*
X20393873Y-16103341D02*
X20374825Y-16093817D01*
X20374825Y-16093817D02*
X20346253Y-16093817D01*
X20346253Y-16093817D02*
X20327206Y-16084293D01*
X20327206Y-16084293D02*
X20317682Y-16065246D01*
X20317682Y-16065246D02*
X20317682Y-16055722D01*
X20317682Y-16055722D02*
X20327206Y-16036674D01*
X20327206Y-16036674D02*
X20346253Y-16027150D01*
X20346253Y-16027150D02*
X20374825Y-16027150D01*
X20374825Y-16027150D02*
X20393873Y-16036674D01*
X20470063Y-16236674D02*
X20479587Y-16227150D01*
X20479587Y-16227150D02*
X20498634Y-16198579D01*
X20498634Y-16198579D02*
X20508158Y-16179531D01*
X20508158Y-16179531D02*
X20517682Y-16150960D01*
X20517682Y-16150960D02*
X20527206Y-16103341D01*
X20527206Y-16103341D02*
X20527206Y-16065246D01*
X20527206Y-16065246D02*
X20517682Y-16017627D01*
X20517682Y-16017627D02*
X20508158Y-15989055D01*
X20508158Y-15989055D02*
X20498634Y-15970008D01*
X20498634Y-15970008D02*
X20479587Y-15941436D01*
X20479587Y-15941436D02*
X20470063Y-15931912D01*
D10*
X15675000Y-16313000D02*
X15675000Y-16353000D01*
X15655000Y-16333000D02*
X15695000Y-16333000D01*
D11*
X15993872Y-16224484D02*
X16012920Y-16224484D01*
X16012920Y-16224484D02*
X16031967Y-16234008D01*
X16031967Y-16234008D02*
X16041491Y-16243531D01*
X16041491Y-16243531D02*
X16051015Y-16262579D01*
X16051015Y-16262579D02*
X16060539Y-16300674D01*
X16060539Y-16300674D02*
X16060539Y-16348293D01*
X16060539Y-16348293D02*
X16051015Y-16386388D01*
X16051015Y-16386388D02*
X16041491Y-16405436D01*
X16041491Y-16405436D02*
X16031967Y-16414960D01*
X16031967Y-16414960D02*
X16012920Y-16424484D01*
X16012920Y-16424484D02*
X15993872Y-16424484D01*
X15993872Y-16424484D02*
X15974824Y-16414960D01*
X15974824Y-16414960D02*
X15965301Y-16405436D01*
X15965301Y-16405436D02*
X15955777Y-16386388D01*
X15955777Y-16386388D02*
X15946253Y-16348293D01*
X15946253Y-16348293D02*
X15946253Y-16300674D01*
X15946253Y-16300674D02*
X15955777Y-16262579D01*
X15955777Y-16262579D02*
X15965301Y-16243531D01*
X15965301Y-16243531D02*
X15974824Y-16234008D01*
X15974824Y-16234008D02*
X15993872Y-16224484D01*
X16146253Y-16405436D02*
X16155777Y-16414960D01*
X16155777Y-16414960D02*
X16146253Y-16424484D01*
X16146253Y-16424484D02*
X16136729Y-16414960D01*
X16136729Y-16414960D02*
X16146253Y-16405436D01*
X16146253Y-16405436D02*
X16146253Y-16424484D01*
X16327205Y-16291150D02*
X16327205Y-16424484D01*
X16279586Y-16214960D02*
X16231967Y-16357817D01*
X16231967Y-16357817D02*
X16355777Y-16357817D01*
X16470062Y-16224484D02*
X16489110Y-16224484D01*
X16489110Y-16224484D02*
X16508158Y-16234008D01*
X16508158Y-16234008D02*
X16517682Y-16243531D01*
X16517682Y-16243531D02*
X16527205Y-16262579D01*
X16527205Y-16262579D02*
X16536729Y-16300674D01*
X16536729Y-16300674D02*
X16536729Y-16348293D01*
X16536729Y-16348293D02*
X16527205Y-16386388D01*
X16527205Y-16386388D02*
X16517682Y-16405436D01*
X16517682Y-16405436D02*
X16508158Y-16414960D01*
X16508158Y-16414960D02*
X16489110Y-16424484D01*
X16489110Y-16424484D02*
X16470062Y-16424484D01*
X16470062Y-16424484D02*
X16451015Y-16414960D01*
X16451015Y-16414960D02*
X16441491Y-16405436D01*
X16441491Y-16405436D02*
X16431967Y-16386388D01*
X16431967Y-16386388D02*
X16422443Y-16348293D01*
X16422443Y-16348293D02*
X16422443Y-16300674D01*
X16422443Y-16300674D02*
X16431967Y-16262579D01*
X16431967Y-16262579D02*
X16441491Y-16243531D01*
X16441491Y-16243531D02*
X16451015Y-16234008D01*
X16451015Y-16234008D02*
X16470062Y-16224484D01*
X16660539Y-16224484D02*
X16679586Y-16224484D01*
X16679586Y-16224484D02*
X16698634Y-16234008D01*
X16698634Y-16234008D02*
X16708158Y-16243531D01*
X16708158Y-16243531D02*
X16717682Y-16262579D01*
X16717682Y-16262579D02*
X16727205Y-16300674D01*
X16727205Y-16300674D02*
X16727205Y-16348293D01*
X16727205Y-16348293D02*
X16717682Y-16386388D01*
X16717682Y-16386388D02*
X16708158Y-16405436D01*
X16708158Y-16405436D02*
X16698634Y-16414960D01*
X16698634Y-16414960D02*
X16679586Y-16424484D01*
X16679586Y-16424484D02*
X16660539Y-16424484D01*
X16660539Y-16424484D02*
X16641491Y-16414960D01*
X16641491Y-16414960D02*
X16631967Y-16405436D01*
X16631967Y-16405436D02*
X16622443Y-16386388D01*
X16622443Y-16386388D02*
X16612920Y-16348293D01*
X16612920Y-16348293D02*
X16612920Y-16300674D01*
X16612920Y-16300674D02*
X16622443Y-16262579D01*
X16622443Y-16262579D02*
X16631967Y-16243531D01*
X16631967Y-16243531D02*
X16641491Y-16234008D01*
X16641491Y-16234008D02*
X16660539Y-16224484D01*
X16812920Y-16424484D02*
X16812920Y-16291150D01*
X16812920Y-16310198D02*
X16822444Y-16300674D01*
X16822444Y-16300674D02*
X16841491Y-16291150D01*
X16841491Y-16291150D02*
X16870063Y-16291150D01*
X16870063Y-16291150D02*
X16889110Y-16300674D01*
X16889110Y-16300674D02*
X16898634Y-16319722D01*
X16898634Y-16319722D02*
X16898634Y-16424484D01*
X16898634Y-16319722D02*
X16908158Y-16300674D01*
X16908158Y-16300674D02*
X16927205Y-16291150D01*
X16927205Y-16291150D02*
X16955777Y-16291150D01*
X16955777Y-16291150D02*
X16974825Y-16300674D01*
X16974825Y-16300674D02*
X16984348Y-16319722D01*
X16984348Y-16319722D02*
X16984348Y-16424484D01*
X17079586Y-16424484D02*
X17079586Y-16291150D01*
X17079586Y-16310198D02*
X17089110Y-16300674D01*
X17089110Y-16300674D02*
X17108158Y-16291150D01*
X17108158Y-16291150D02*
X17136729Y-16291150D01*
X17136729Y-16291150D02*
X17155777Y-16300674D01*
X17155777Y-16300674D02*
X17165301Y-16319722D01*
X17165301Y-16319722D02*
X17165301Y-16424484D01*
X17165301Y-16319722D02*
X17174825Y-16300674D01*
X17174825Y-16300674D02*
X17193872Y-16291150D01*
X17193872Y-16291150D02*
X17222444Y-16291150D01*
X17222444Y-16291150D02*
X17241491Y-16300674D01*
X17241491Y-16300674D02*
X17251015Y-16319722D01*
X17251015Y-16319722D02*
X17251015Y-16424484D01*
X17641491Y-16214960D02*
X17470063Y-16472103D01*
X17898634Y-16224484D02*
X17917682Y-16224484D01*
X17917682Y-16224484D02*
X17936729Y-16234008D01*
X17936729Y-16234008D02*
X17946253Y-16243531D01*
X17946253Y-16243531D02*
X17955777Y-16262579D01*
X17955777Y-16262579D02*
X17965301Y-16300674D01*
X17965301Y-16300674D02*
X17965301Y-16348293D01*
X17965301Y-16348293D02*
X17955777Y-16386388D01*
X17955777Y-16386388D02*
X17946253Y-16405436D01*
X17946253Y-16405436D02*
X17936729Y-16414960D01*
X17936729Y-16414960D02*
X17917682Y-16424484D01*
X17917682Y-16424484D02*
X17898634Y-16424484D01*
X17898634Y-16424484D02*
X17879587Y-16414960D01*
X17879587Y-16414960D02*
X17870063Y-16405436D01*
X17870063Y-16405436D02*
X17860539Y-16386388D01*
X17860539Y-16386388D02*
X17851015Y-16348293D01*
X17851015Y-16348293D02*
X17851015Y-16300674D01*
X17851015Y-16300674D02*
X17860539Y-16262579D01*
X17860539Y-16262579D02*
X17870063Y-16243531D01*
X17870063Y-16243531D02*
X17879587Y-16234008D01*
X17879587Y-16234008D02*
X17898634Y-16224484D01*
X18051015Y-16405436D02*
X18060539Y-16414960D01*
X18060539Y-16414960D02*
X18051015Y-16424484D01*
X18051015Y-16424484D02*
X18041491Y-16414960D01*
X18041491Y-16414960D02*
X18051015Y-16405436D01*
X18051015Y-16405436D02*
X18051015Y-16424484D01*
X18184348Y-16224484D02*
X18203396Y-16224484D01*
X18203396Y-16224484D02*
X18222444Y-16234008D01*
X18222444Y-16234008D02*
X18231968Y-16243531D01*
X18231968Y-16243531D02*
X18241491Y-16262579D01*
X18241491Y-16262579D02*
X18251015Y-16300674D01*
X18251015Y-16300674D02*
X18251015Y-16348293D01*
X18251015Y-16348293D02*
X18241491Y-16386388D01*
X18241491Y-16386388D02*
X18231968Y-16405436D01*
X18231968Y-16405436D02*
X18222444Y-16414960D01*
X18222444Y-16414960D02*
X18203396Y-16424484D01*
X18203396Y-16424484D02*
X18184348Y-16424484D01*
X18184348Y-16424484D02*
X18165301Y-16414960D01*
X18165301Y-16414960D02*
X18155777Y-16405436D01*
X18155777Y-16405436D02*
X18146253Y-16386388D01*
X18146253Y-16386388D02*
X18136729Y-16348293D01*
X18136729Y-16348293D02*
X18136729Y-16300674D01*
X18136729Y-16300674D02*
X18146253Y-16262579D01*
X18146253Y-16262579D02*
X18155777Y-16243531D01*
X18155777Y-16243531D02*
X18165301Y-16234008D01*
X18165301Y-16234008D02*
X18184348Y-16224484D01*
X18441491Y-16424484D02*
X18327206Y-16424484D01*
X18384348Y-16424484D02*
X18384348Y-16224484D01*
X18384348Y-16224484D02*
X18365301Y-16253055D01*
X18365301Y-16253055D02*
X18346253Y-16272103D01*
X18346253Y-16272103D02*
X18327206Y-16281627D01*
X18622444Y-16224484D02*
X18527206Y-16224484D01*
X18527206Y-16224484D02*
X18517682Y-16319722D01*
X18517682Y-16319722D02*
X18527206Y-16310198D01*
X18527206Y-16310198D02*
X18546253Y-16300674D01*
X18546253Y-16300674D02*
X18593872Y-16300674D01*
X18593872Y-16300674D02*
X18612920Y-16310198D01*
X18612920Y-16310198D02*
X18622444Y-16319722D01*
X18622444Y-16319722D02*
X18631968Y-16338769D01*
X18631968Y-16338769D02*
X18631968Y-16386388D01*
X18631968Y-16386388D02*
X18622444Y-16405436D01*
X18622444Y-16405436D02*
X18612920Y-16414960D01*
X18612920Y-16414960D02*
X18593872Y-16424484D01*
X18593872Y-16424484D02*
X18546253Y-16424484D01*
X18546253Y-16424484D02*
X18527206Y-16414960D01*
X18527206Y-16414960D02*
X18517682Y-16405436D01*
X18698634Y-16224484D02*
X18831968Y-16224484D01*
X18831968Y-16224484D02*
X18746253Y-16424484D01*
X18898634Y-16224484D02*
X18898634Y-16262579D01*
X18974825Y-16224484D02*
X18974825Y-16262579D01*
X19270063Y-16500674D02*
X19260539Y-16491150D01*
X19260539Y-16491150D02*
X19241491Y-16462579D01*
X19241491Y-16462579D02*
X19231968Y-16443531D01*
X19231968Y-16443531D02*
X19222444Y-16414960D01*
X19222444Y-16414960D02*
X19212920Y-16367341D01*
X19212920Y-16367341D02*
X19212920Y-16329246D01*
X19212920Y-16329246D02*
X19222444Y-16281627D01*
X19222444Y-16281627D02*
X19231968Y-16253055D01*
X19231968Y-16253055D02*
X19241491Y-16234008D01*
X19241491Y-16234008D02*
X19260539Y-16205436D01*
X19260539Y-16205436D02*
X19270063Y-16195912D01*
X19327206Y-16224484D02*
X19451015Y-16224484D01*
X19451015Y-16224484D02*
X19384349Y-16300674D01*
X19384349Y-16300674D02*
X19412920Y-16300674D01*
X19412920Y-16300674D02*
X19431968Y-16310198D01*
X19431968Y-16310198D02*
X19441491Y-16319722D01*
X19441491Y-16319722D02*
X19451015Y-16338769D01*
X19451015Y-16338769D02*
X19451015Y-16386388D01*
X19451015Y-16386388D02*
X19441491Y-16405436D01*
X19441491Y-16405436D02*
X19431968Y-16414960D01*
X19431968Y-16414960D02*
X19412920Y-16424484D01*
X19412920Y-16424484D02*
X19355777Y-16424484D01*
X19355777Y-16424484D02*
X19336730Y-16414960D01*
X19336730Y-16414960D02*
X19327206Y-16405436D01*
X19517682Y-16224484D02*
X19641491Y-16224484D01*
X19641491Y-16224484D02*
X19574825Y-16300674D01*
X19574825Y-16300674D02*
X19603396Y-16300674D01*
X19603396Y-16300674D02*
X19622444Y-16310198D01*
X19622444Y-16310198D02*
X19631968Y-16319722D01*
X19631968Y-16319722D02*
X19641491Y-16338769D01*
X19641491Y-16338769D02*
X19641491Y-16386388D01*
X19641491Y-16386388D02*
X19631968Y-16405436D01*
X19631968Y-16405436D02*
X19622444Y-16414960D01*
X19622444Y-16414960D02*
X19603396Y-16424484D01*
X19603396Y-16424484D02*
X19546253Y-16424484D01*
X19546253Y-16424484D02*
X19527206Y-16414960D01*
X19527206Y-16414960D02*
X19517682Y-16405436D01*
X19879587Y-16424484D02*
X19879587Y-16224484D01*
X19965301Y-16424484D02*
X19965301Y-16319722D01*
X19965301Y-16319722D02*
X19955777Y-16300674D01*
X19955777Y-16300674D02*
X19936730Y-16291150D01*
X19936730Y-16291150D02*
X19908158Y-16291150D01*
X19908158Y-16291150D02*
X19889111Y-16300674D01*
X19889111Y-16300674D02*
X19879587Y-16310198D01*
X20089111Y-16424484D02*
X20070063Y-16414960D01*
X20070063Y-16414960D02*
X20060539Y-16405436D01*
X20060539Y-16405436D02*
X20051015Y-16386388D01*
X20051015Y-16386388D02*
X20051015Y-16329246D01*
X20051015Y-16329246D02*
X20060539Y-16310198D01*
X20060539Y-16310198D02*
X20070063Y-16300674D01*
X20070063Y-16300674D02*
X20089111Y-16291150D01*
X20089111Y-16291150D02*
X20117682Y-16291150D01*
X20117682Y-16291150D02*
X20136730Y-16300674D01*
X20136730Y-16300674D02*
X20146253Y-16310198D01*
X20146253Y-16310198D02*
X20155777Y-16329246D01*
X20155777Y-16329246D02*
X20155777Y-16386388D01*
X20155777Y-16386388D02*
X20146253Y-16405436D01*
X20146253Y-16405436D02*
X20136730Y-16414960D01*
X20136730Y-16414960D02*
X20117682Y-16424484D01*
X20117682Y-16424484D02*
X20089111Y-16424484D01*
X20270063Y-16424484D02*
X20251015Y-16414960D01*
X20251015Y-16414960D02*
X20241492Y-16395912D01*
X20241492Y-16395912D02*
X20241492Y-16224484D01*
X20422444Y-16414960D02*
X20403396Y-16424484D01*
X20403396Y-16424484D02*
X20365301Y-16424484D01*
X20365301Y-16424484D02*
X20346253Y-16414960D01*
X20346253Y-16414960D02*
X20336730Y-16395912D01*
X20336730Y-16395912D02*
X20336730Y-16319722D01*
X20336730Y-16319722D02*
X20346253Y-16300674D01*
X20346253Y-16300674D02*
X20365301Y-16291150D01*
X20365301Y-16291150D02*
X20403396Y-16291150D01*
X20403396Y-16291150D02*
X20422444Y-16300674D01*
X20422444Y-16300674D02*
X20431968Y-16319722D01*
X20431968Y-16319722D02*
X20431968Y-16338769D01*
X20431968Y-16338769D02*
X20336730Y-16357817D01*
X20508158Y-16414960D02*
X20527206Y-16424484D01*
X20527206Y-16424484D02*
X20565301Y-16424484D01*
X20565301Y-16424484D02*
X20584349Y-16414960D01*
X20584349Y-16414960D02*
X20593873Y-16395912D01*
X20593873Y-16395912D02*
X20593873Y-16386388D01*
X20593873Y-16386388D02*
X20584349Y-16367341D01*
X20584349Y-16367341D02*
X20565301Y-16357817D01*
X20565301Y-16357817D02*
X20536730Y-16357817D01*
X20536730Y-16357817D02*
X20517682Y-16348293D01*
X20517682Y-16348293D02*
X20508158Y-16329246D01*
X20508158Y-16329246D02*
X20508158Y-16319722D01*
X20508158Y-16319722D02*
X20517682Y-16300674D01*
X20517682Y-16300674D02*
X20536730Y-16291150D01*
X20536730Y-16291150D02*
X20565301Y-16291150D01*
X20565301Y-16291150D02*
X20584349Y-16300674D01*
X20660539Y-16500674D02*
X20670063Y-16491150D01*
X20670063Y-16491150D02*
X20689111Y-16462579D01*
X20689111Y-16462579D02*
X20698634Y-16443531D01*
X20698634Y-16443531D02*
X20708158Y-16414960D01*
X20708158Y-16414960D02*
X20717682Y-16367341D01*
X20717682Y-16367341D02*
X20717682Y-16329246D01*
X20717682Y-16329246D02*
X20708158Y-16281627D01*
X20708158Y-16281627D02*
X20698634Y-16253055D01*
X20698634Y-16253055D02*
X20689111Y-16234008D01*
X20689111Y-16234008D02*
X20670063Y-16205436D01*
X20670063Y-16205436D02*
X20660539Y-16195912D01*
D10*
X15685481Y-16619981D02*
X15685481Y-16574019D01*
X15639519Y-16574019D01*
X15639519Y-16619981D01*
X15685481Y-16619981D01*
D11*
X15993872Y-16488484D02*
X16012920Y-16488484D01*
X16012920Y-16488484D02*
X16031967Y-16498008D01*
X16031967Y-16498008D02*
X16041491Y-16507531D01*
X16041491Y-16507531D02*
X16051015Y-16526579D01*
X16051015Y-16526579D02*
X16060539Y-16564674D01*
X16060539Y-16564674D02*
X16060539Y-16612293D01*
X16060539Y-16612293D02*
X16051015Y-16650388D01*
X16051015Y-16650388D02*
X16041491Y-16669436D01*
X16041491Y-16669436D02*
X16031967Y-16678960D01*
X16031967Y-16678960D02*
X16012920Y-16688484D01*
X16012920Y-16688484D02*
X15993872Y-16688484D01*
X15993872Y-16688484D02*
X15974824Y-16678960D01*
X15974824Y-16678960D02*
X15965301Y-16669436D01*
X15965301Y-16669436D02*
X15955777Y-16650388D01*
X15955777Y-16650388D02*
X15946253Y-16612293D01*
X15946253Y-16612293D02*
X15946253Y-16564674D01*
X15946253Y-16564674D02*
X15955777Y-16526579D01*
X15955777Y-16526579D02*
X15965301Y-16507531D01*
X15965301Y-16507531D02*
X15974824Y-16498008D01*
X15974824Y-16498008D02*
X15993872Y-16488484D01*
X16146253Y-16669436D02*
X16155777Y-16678960D01*
X16155777Y-16678960D02*
X16146253Y-16688484D01*
X16146253Y-16688484D02*
X16136729Y-16678960D01*
X16136729Y-16678960D02*
X16146253Y-16669436D01*
X16146253Y-16669436D02*
X16146253Y-16688484D01*
X16327205Y-16488484D02*
X16289110Y-16488484D01*
X16289110Y-16488484D02*
X16270062Y-16498008D01*
X16270062Y-16498008D02*
X16260539Y-16507531D01*
X16260539Y-16507531D02*
X16241491Y-16536103D01*
X16241491Y-16536103D02*
X16231967Y-16574198D01*
X16231967Y-16574198D02*
X16231967Y-16650388D01*
X16231967Y-16650388D02*
X16241491Y-16669436D01*
X16241491Y-16669436D02*
X16251015Y-16678960D01*
X16251015Y-16678960D02*
X16270062Y-16688484D01*
X16270062Y-16688484D02*
X16308158Y-16688484D01*
X16308158Y-16688484D02*
X16327205Y-16678960D01*
X16327205Y-16678960D02*
X16336729Y-16669436D01*
X16336729Y-16669436D02*
X16346253Y-16650388D01*
X16346253Y-16650388D02*
X16346253Y-16602769D01*
X16346253Y-16602769D02*
X16336729Y-16583722D01*
X16336729Y-16583722D02*
X16327205Y-16574198D01*
X16327205Y-16574198D02*
X16308158Y-16564674D01*
X16308158Y-16564674D02*
X16270062Y-16564674D01*
X16270062Y-16564674D02*
X16251015Y-16574198D01*
X16251015Y-16574198D02*
X16241491Y-16583722D01*
X16241491Y-16583722D02*
X16231967Y-16602769D01*
X16527205Y-16488484D02*
X16431967Y-16488484D01*
X16431967Y-16488484D02*
X16422443Y-16583722D01*
X16422443Y-16583722D02*
X16431967Y-16574198D01*
X16431967Y-16574198D02*
X16451015Y-16564674D01*
X16451015Y-16564674D02*
X16498634Y-16564674D01*
X16498634Y-16564674D02*
X16517682Y-16574198D01*
X16517682Y-16574198D02*
X16527205Y-16583722D01*
X16527205Y-16583722D02*
X16536729Y-16602769D01*
X16536729Y-16602769D02*
X16536729Y-16650388D01*
X16536729Y-16650388D02*
X16527205Y-16669436D01*
X16527205Y-16669436D02*
X16517682Y-16678960D01*
X16517682Y-16678960D02*
X16498634Y-16688484D01*
X16498634Y-16688484D02*
X16451015Y-16688484D01*
X16451015Y-16688484D02*
X16431967Y-16678960D01*
X16431967Y-16678960D02*
X16422443Y-16669436D01*
X16660539Y-16488484D02*
X16679586Y-16488484D01*
X16679586Y-16488484D02*
X16698634Y-16498008D01*
X16698634Y-16498008D02*
X16708158Y-16507531D01*
X16708158Y-16507531D02*
X16717682Y-16526579D01*
X16717682Y-16526579D02*
X16727205Y-16564674D01*
X16727205Y-16564674D02*
X16727205Y-16612293D01*
X16727205Y-16612293D02*
X16717682Y-16650388D01*
X16717682Y-16650388D02*
X16708158Y-16669436D01*
X16708158Y-16669436D02*
X16698634Y-16678960D01*
X16698634Y-16678960D02*
X16679586Y-16688484D01*
X16679586Y-16688484D02*
X16660539Y-16688484D01*
X16660539Y-16688484D02*
X16641491Y-16678960D01*
X16641491Y-16678960D02*
X16631967Y-16669436D01*
X16631967Y-16669436D02*
X16622443Y-16650388D01*
X16622443Y-16650388D02*
X16612920Y-16612293D01*
X16612920Y-16612293D02*
X16612920Y-16564674D01*
X16612920Y-16564674D02*
X16622443Y-16526579D01*
X16622443Y-16526579D02*
X16631967Y-16507531D01*
X16631967Y-16507531D02*
X16641491Y-16498008D01*
X16641491Y-16498008D02*
X16660539Y-16488484D01*
X16812920Y-16688484D02*
X16812920Y-16555150D01*
X16812920Y-16574198D02*
X16822444Y-16564674D01*
X16822444Y-16564674D02*
X16841491Y-16555150D01*
X16841491Y-16555150D02*
X16870063Y-16555150D01*
X16870063Y-16555150D02*
X16889110Y-16564674D01*
X16889110Y-16564674D02*
X16898634Y-16583722D01*
X16898634Y-16583722D02*
X16898634Y-16688484D01*
X16898634Y-16583722D02*
X16908158Y-16564674D01*
X16908158Y-16564674D02*
X16927205Y-16555150D01*
X16927205Y-16555150D02*
X16955777Y-16555150D01*
X16955777Y-16555150D02*
X16974825Y-16564674D01*
X16974825Y-16564674D02*
X16984348Y-16583722D01*
X16984348Y-16583722D02*
X16984348Y-16688484D01*
X17079586Y-16688484D02*
X17079586Y-16555150D01*
X17079586Y-16574198D02*
X17089110Y-16564674D01*
X17089110Y-16564674D02*
X17108158Y-16555150D01*
X17108158Y-16555150D02*
X17136729Y-16555150D01*
X17136729Y-16555150D02*
X17155777Y-16564674D01*
X17155777Y-16564674D02*
X17165301Y-16583722D01*
X17165301Y-16583722D02*
X17165301Y-16688484D01*
X17165301Y-16583722D02*
X17174825Y-16564674D01*
X17174825Y-16564674D02*
X17193872Y-16555150D01*
X17193872Y-16555150D02*
X17222444Y-16555150D01*
X17222444Y-16555150D02*
X17241491Y-16564674D01*
X17241491Y-16564674D02*
X17251015Y-16583722D01*
X17251015Y-16583722D02*
X17251015Y-16688484D01*
X17641491Y-16478960D02*
X17470063Y-16736103D01*
X17898634Y-16488484D02*
X17917682Y-16488484D01*
X17917682Y-16488484D02*
X17936729Y-16498008D01*
X17936729Y-16498008D02*
X17946253Y-16507531D01*
X17946253Y-16507531D02*
X17955777Y-16526579D01*
X17955777Y-16526579D02*
X17965301Y-16564674D01*
X17965301Y-16564674D02*
X17965301Y-16612293D01*
X17965301Y-16612293D02*
X17955777Y-16650388D01*
X17955777Y-16650388D02*
X17946253Y-16669436D01*
X17946253Y-16669436D02*
X17936729Y-16678960D01*
X17936729Y-16678960D02*
X17917682Y-16688484D01*
X17917682Y-16688484D02*
X17898634Y-16688484D01*
X17898634Y-16688484D02*
X17879587Y-16678960D01*
X17879587Y-16678960D02*
X17870063Y-16669436D01*
X17870063Y-16669436D02*
X17860539Y-16650388D01*
X17860539Y-16650388D02*
X17851015Y-16612293D01*
X17851015Y-16612293D02*
X17851015Y-16564674D01*
X17851015Y-16564674D02*
X17860539Y-16526579D01*
X17860539Y-16526579D02*
X17870063Y-16507531D01*
X17870063Y-16507531D02*
X17879587Y-16498008D01*
X17879587Y-16498008D02*
X17898634Y-16488484D01*
X18051015Y-16669436D02*
X18060539Y-16678960D01*
X18060539Y-16678960D02*
X18051015Y-16688484D01*
X18051015Y-16688484D02*
X18041491Y-16678960D01*
X18041491Y-16678960D02*
X18051015Y-16669436D01*
X18051015Y-16669436D02*
X18051015Y-16688484D01*
X18184348Y-16488484D02*
X18203396Y-16488484D01*
X18203396Y-16488484D02*
X18222444Y-16498008D01*
X18222444Y-16498008D02*
X18231968Y-16507531D01*
X18231968Y-16507531D02*
X18241491Y-16526579D01*
X18241491Y-16526579D02*
X18251015Y-16564674D01*
X18251015Y-16564674D02*
X18251015Y-16612293D01*
X18251015Y-16612293D02*
X18241491Y-16650388D01*
X18241491Y-16650388D02*
X18231968Y-16669436D01*
X18231968Y-16669436D02*
X18222444Y-16678960D01*
X18222444Y-16678960D02*
X18203396Y-16688484D01*
X18203396Y-16688484D02*
X18184348Y-16688484D01*
X18184348Y-16688484D02*
X18165301Y-16678960D01*
X18165301Y-16678960D02*
X18155777Y-16669436D01*
X18155777Y-16669436D02*
X18146253Y-16650388D01*
X18146253Y-16650388D02*
X18136729Y-16612293D01*
X18136729Y-16612293D02*
X18136729Y-16564674D01*
X18136729Y-16564674D02*
X18146253Y-16526579D01*
X18146253Y-16526579D02*
X18155777Y-16507531D01*
X18155777Y-16507531D02*
X18165301Y-16498008D01*
X18165301Y-16498008D02*
X18184348Y-16488484D01*
X18327206Y-16507531D02*
X18336729Y-16498008D01*
X18336729Y-16498008D02*
X18355777Y-16488484D01*
X18355777Y-16488484D02*
X18403396Y-16488484D01*
X18403396Y-16488484D02*
X18422444Y-16498008D01*
X18422444Y-16498008D02*
X18431968Y-16507531D01*
X18431968Y-16507531D02*
X18441491Y-16526579D01*
X18441491Y-16526579D02*
X18441491Y-16545627D01*
X18441491Y-16545627D02*
X18431968Y-16574198D01*
X18431968Y-16574198D02*
X18317682Y-16688484D01*
X18317682Y-16688484D02*
X18441491Y-16688484D01*
X18622444Y-16488484D02*
X18527206Y-16488484D01*
X18527206Y-16488484D02*
X18517682Y-16583722D01*
X18517682Y-16583722D02*
X18527206Y-16574198D01*
X18527206Y-16574198D02*
X18546253Y-16564674D01*
X18546253Y-16564674D02*
X18593872Y-16564674D01*
X18593872Y-16564674D02*
X18612920Y-16574198D01*
X18612920Y-16574198D02*
X18622444Y-16583722D01*
X18622444Y-16583722D02*
X18631968Y-16602769D01*
X18631968Y-16602769D02*
X18631968Y-16650388D01*
X18631968Y-16650388D02*
X18622444Y-16669436D01*
X18622444Y-16669436D02*
X18612920Y-16678960D01*
X18612920Y-16678960D02*
X18593872Y-16688484D01*
X18593872Y-16688484D02*
X18546253Y-16688484D01*
X18546253Y-16688484D02*
X18527206Y-16678960D01*
X18527206Y-16678960D02*
X18517682Y-16669436D01*
X18803396Y-16488484D02*
X18765301Y-16488484D01*
X18765301Y-16488484D02*
X18746253Y-16498008D01*
X18746253Y-16498008D02*
X18736729Y-16507531D01*
X18736729Y-16507531D02*
X18717682Y-16536103D01*
X18717682Y-16536103D02*
X18708158Y-16574198D01*
X18708158Y-16574198D02*
X18708158Y-16650388D01*
X18708158Y-16650388D02*
X18717682Y-16669436D01*
X18717682Y-16669436D02*
X18727206Y-16678960D01*
X18727206Y-16678960D02*
X18746253Y-16688484D01*
X18746253Y-16688484D02*
X18784349Y-16688484D01*
X18784349Y-16688484D02*
X18803396Y-16678960D01*
X18803396Y-16678960D02*
X18812920Y-16669436D01*
X18812920Y-16669436D02*
X18822444Y-16650388D01*
X18822444Y-16650388D02*
X18822444Y-16602769D01*
X18822444Y-16602769D02*
X18812920Y-16583722D01*
X18812920Y-16583722D02*
X18803396Y-16574198D01*
X18803396Y-16574198D02*
X18784349Y-16564674D01*
X18784349Y-16564674D02*
X18746253Y-16564674D01*
X18746253Y-16564674D02*
X18727206Y-16574198D01*
X18727206Y-16574198D02*
X18717682Y-16583722D01*
X18717682Y-16583722D02*
X18708158Y-16602769D01*
X18898634Y-16488484D02*
X18898634Y-16526579D01*
X18974825Y-16488484D02*
X18974825Y-16526579D01*
X19270063Y-16764674D02*
X19260539Y-16755150D01*
X19260539Y-16755150D02*
X19241491Y-16726579D01*
X19241491Y-16726579D02*
X19231968Y-16707531D01*
X19231968Y-16707531D02*
X19222444Y-16678960D01*
X19222444Y-16678960D02*
X19212920Y-16631341D01*
X19212920Y-16631341D02*
X19212920Y-16593246D01*
X19212920Y-16593246D02*
X19222444Y-16545627D01*
X19222444Y-16545627D02*
X19231968Y-16517055D01*
X19231968Y-16517055D02*
X19241491Y-16498008D01*
X19241491Y-16498008D02*
X19260539Y-16469436D01*
X19260539Y-16469436D02*
X19270063Y-16459912D01*
X19431968Y-16555150D02*
X19431968Y-16688484D01*
X19384349Y-16478960D02*
X19336730Y-16621817D01*
X19336730Y-16621817D02*
X19460539Y-16621817D01*
X19689111Y-16688484D02*
X19689111Y-16488484D01*
X19774825Y-16688484D02*
X19774825Y-16583722D01*
X19774825Y-16583722D02*
X19765301Y-16564674D01*
X19765301Y-16564674D02*
X19746253Y-16555150D01*
X19746253Y-16555150D02*
X19717682Y-16555150D01*
X19717682Y-16555150D02*
X19698634Y-16564674D01*
X19698634Y-16564674D02*
X19689111Y-16574198D01*
X19898634Y-16688484D02*
X19879587Y-16678960D01*
X19879587Y-16678960D02*
X19870063Y-16669436D01*
X19870063Y-16669436D02*
X19860539Y-16650388D01*
X19860539Y-16650388D02*
X19860539Y-16593246D01*
X19860539Y-16593246D02*
X19870063Y-16574198D01*
X19870063Y-16574198D02*
X19879587Y-16564674D01*
X19879587Y-16564674D02*
X19898634Y-16555150D01*
X19898634Y-16555150D02*
X19927206Y-16555150D01*
X19927206Y-16555150D02*
X19946253Y-16564674D01*
X19946253Y-16564674D02*
X19955777Y-16574198D01*
X19955777Y-16574198D02*
X19965301Y-16593246D01*
X19965301Y-16593246D02*
X19965301Y-16650388D01*
X19965301Y-16650388D02*
X19955777Y-16669436D01*
X19955777Y-16669436D02*
X19946253Y-16678960D01*
X19946253Y-16678960D02*
X19927206Y-16688484D01*
X19927206Y-16688484D02*
X19898634Y-16688484D01*
X20079587Y-16688484D02*
X20060539Y-16678960D01*
X20060539Y-16678960D02*
X20051015Y-16659912D01*
X20051015Y-16659912D02*
X20051015Y-16488484D01*
X20231968Y-16678960D02*
X20212920Y-16688484D01*
X20212920Y-16688484D02*
X20174825Y-16688484D01*
X20174825Y-16688484D02*
X20155777Y-16678960D01*
X20155777Y-16678960D02*
X20146253Y-16659912D01*
X20146253Y-16659912D02*
X20146253Y-16583722D01*
X20146253Y-16583722D02*
X20155777Y-16564674D01*
X20155777Y-16564674D02*
X20174825Y-16555150D01*
X20174825Y-16555150D02*
X20212920Y-16555150D01*
X20212920Y-16555150D02*
X20231968Y-16564674D01*
X20231968Y-16564674D02*
X20241492Y-16583722D01*
X20241492Y-16583722D02*
X20241492Y-16602769D01*
X20241492Y-16602769D02*
X20146253Y-16621817D01*
X20317682Y-16678960D02*
X20336730Y-16688484D01*
X20336730Y-16688484D02*
X20374825Y-16688484D01*
X20374825Y-16688484D02*
X20393873Y-16678960D01*
X20393873Y-16678960D02*
X20403396Y-16659912D01*
X20403396Y-16659912D02*
X20403396Y-16650388D01*
X20403396Y-16650388D02*
X20393873Y-16631341D01*
X20393873Y-16631341D02*
X20374825Y-16621817D01*
X20374825Y-16621817D02*
X20346253Y-16621817D01*
X20346253Y-16621817D02*
X20327206Y-16612293D01*
X20327206Y-16612293D02*
X20317682Y-16593246D01*
X20317682Y-16593246D02*
X20317682Y-16583722D01*
X20317682Y-16583722D02*
X20327206Y-16564674D01*
X20327206Y-16564674D02*
X20346253Y-16555150D01*
X20346253Y-16555150D02*
X20374825Y-16555150D01*
X20374825Y-16555150D02*
X20393873Y-16564674D01*
X20470063Y-16764674D02*
X20479587Y-16755150D01*
X20479587Y-16755150D02*
X20498634Y-16726579D01*
X20498634Y-16726579D02*
X20508158Y-16707531D01*
X20508158Y-16707531D02*
X20517682Y-16678960D01*
X20517682Y-16678960D02*
X20527206Y-16631341D01*
X20527206Y-16631341D02*
X20527206Y-16593246D01*
X20527206Y-16593246D02*
X20517682Y-16545627D01*
X20517682Y-16545627D02*
X20508158Y-16517055D01*
X20508158Y-16517055D02*
X20498634Y-16498008D01*
X20498634Y-16498008D02*
X20479587Y-16469436D01*
X20479587Y-16469436D02*
X20470063Y-16459912D01*
D10*
X15647500Y-16908500D02*
X15695000Y-16861000D01*
X15647500Y-16813500D01*
X15600000Y-16861000D01*
X15647500Y-16908500D01*
D11*
X15993872Y-16752484D02*
X16012920Y-16752484D01*
X16012920Y-16752484D02*
X16031967Y-16762008D01*
X16031967Y-16762008D02*
X16041491Y-16771531D01*
X16041491Y-16771531D02*
X16051015Y-16790579D01*
X16051015Y-16790579D02*
X16060539Y-16828674D01*
X16060539Y-16828674D02*
X16060539Y-16876293D01*
X16060539Y-16876293D02*
X16051015Y-16914389D01*
X16051015Y-16914389D02*
X16041491Y-16933436D01*
X16041491Y-16933436D02*
X16031967Y-16942960D01*
X16031967Y-16942960D02*
X16012920Y-16952484D01*
X16012920Y-16952484D02*
X15993872Y-16952484D01*
X15993872Y-16952484D02*
X15974824Y-16942960D01*
X15974824Y-16942960D02*
X15965301Y-16933436D01*
X15965301Y-16933436D02*
X15955777Y-16914389D01*
X15955777Y-16914389D02*
X15946253Y-16876293D01*
X15946253Y-16876293D02*
X15946253Y-16828674D01*
X15946253Y-16828674D02*
X15955777Y-16790579D01*
X15955777Y-16790579D02*
X15965301Y-16771531D01*
X15965301Y-16771531D02*
X15974824Y-16762008D01*
X15974824Y-16762008D02*
X15993872Y-16752484D01*
X16146253Y-16933436D02*
X16155777Y-16942960D01*
X16155777Y-16942960D02*
X16146253Y-16952484D01*
X16146253Y-16952484D02*
X16136729Y-16942960D01*
X16136729Y-16942960D02*
X16146253Y-16933436D01*
X16146253Y-16933436D02*
X16146253Y-16952484D01*
X16251015Y-16952484D02*
X16289110Y-16952484D01*
X16289110Y-16952484D02*
X16308158Y-16942960D01*
X16308158Y-16942960D02*
X16317682Y-16933436D01*
X16317682Y-16933436D02*
X16336729Y-16904865D01*
X16336729Y-16904865D02*
X16346253Y-16866770D01*
X16346253Y-16866770D02*
X16346253Y-16790579D01*
X16346253Y-16790579D02*
X16336729Y-16771531D01*
X16336729Y-16771531D02*
X16327205Y-16762008D01*
X16327205Y-16762008D02*
X16308158Y-16752484D01*
X16308158Y-16752484D02*
X16270062Y-16752484D01*
X16270062Y-16752484D02*
X16251015Y-16762008D01*
X16251015Y-16762008D02*
X16241491Y-16771531D01*
X16241491Y-16771531D02*
X16231967Y-16790579D01*
X16231967Y-16790579D02*
X16231967Y-16838198D01*
X16231967Y-16838198D02*
X16241491Y-16857246D01*
X16241491Y-16857246D02*
X16251015Y-16866770D01*
X16251015Y-16866770D02*
X16270062Y-16876293D01*
X16270062Y-16876293D02*
X16308158Y-16876293D01*
X16308158Y-16876293D02*
X16327205Y-16866770D01*
X16327205Y-16866770D02*
X16336729Y-16857246D01*
X16336729Y-16857246D02*
X16346253Y-16838198D01*
X16527205Y-16752484D02*
X16431967Y-16752484D01*
X16431967Y-16752484D02*
X16422443Y-16847722D01*
X16422443Y-16847722D02*
X16431967Y-16838198D01*
X16431967Y-16838198D02*
X16451015Y-16828674D01*
X16451015Y-16828674D02*
X16498634Y-16828674D01*
X16498634Y-16828674D02*
X16517682Y-16838198D01*
X16517682Y-16838198D02*
X16527205Y-16847722D01*
X16527205Y-16847722D02*
X16536729Y-16866770D01*
X16536729Y-16866770D02*
X16536729Y-16914389D01*
X16536729Y-16914389D02*
X16527205Y-16933436D01*
X16527205Y-16933436D02*
X16517682Y-16942960D01*
X16517682Y-16942960D02*
X16498634Y-16952484D01*
X16498634Y-16952484D02*
X16451015Y-16952484D01*
X16451015Y-16952484D02*
X16431967Y-16942960D01*
X16431967Y-16942960D02*
X16422443Y-16933436D01*
X16660539Y-16752484D02*
X16679586Y-16752484D01*
X16679586Y-16752484D02*
X16698634Y-16762008D01*
X16698634Y-16762008D02*
X16708158Y-16771531D01*
X16708158Y-16771531D02*
X16717682Y-16790579D01*
X16717682Y-16790579D02*
X16727205Y-16828674D01*
X16727205Y-16828674D02*
X16727205Y-16876293D01*
X16727205Y-16876293D02*
X16717682Y-16914389D01*
X16717682Y-16914389D02*
X16708158Y-16933436D01*
X16708158Y-16933436D02*
X16698634Y-16942960D01*
X16698634Y-16942960D02*
X16679586Y-16952484D01*
X16679586Y-16952484D02*
X16660539Y-16952484D01*
X16660539Y-16952484D02*
X16641491Y-16942960D01*
X16641491Y-16942960D02*
X16631967Y-16933436D01*
X16631967Y-16933436D02*
X16622443Y-16914389D01*
X16622443Y-16914389D02*
X16612920Y-16876293D01*
X16612920Y-16876293D02*
X16612920Y-16828674D01*
X16612920Y-16828674D02*
X16622443Y-16790579D01*
X16622443Y-16790579D02*
X16631967Y-16771531D01*
X16631967Y-16771531D02*
X16641491Y-16762008D01*
X16641491Y-16762008D02*
X16660539Y-16752484D01*
X16812920Y-16952484D02*
X16812920Y-16819150D01*
X16812920Y-16838198D02*
X16822444Y-16828674D01*
X16822444Y-16828674D02*
X16841491Y-16819150D01*
X16841491Y-16819150D02*
X16870063Y-16819150D01*
X16870063Y-16819150D02*
X16889110Y-16828674D01*
X16889110Y-16828674D02*
X16898634Y-16847722D01*
X16898634Y-16847722D02*
X16898634Y-16952484D01*
X16898634Y-16847722D02*
X16908158Y-16828674D01*
X16908158Y-16828674D02*
X16927205Y-16819150D01*
X16927205Y-16819150D02*
X16955777Y-16819150D01*
X16955777Y-16819150D02*
X16974825Y-16828674D01*
X16974825Y-16828674D02*
X16984348Y-16847722D01*
X16984348Y-16847722D02*
X16984348Y-16952484D01*
X17079586Y-16952484D02*
X17079586Y-16819150D01*
X17079586Y-16838198D02*
X17089110Y-16828674D01*
X17089110Y-16828674D02*
X17108158Y-16819150D01*
X17108158Y-16819150D02*
X17136729Y-16819150D01*
X17136729Y-16819150D02*
X17155777Y-16828674D01*
X17155777Y-16828674D02*
X17165301Y-16847722D01*
X17165301Y-16847722D02*
X17165301Y-16952484D01*
X17165301Y-16847722D02*
X17174825Y-16828674D01*
X17174825Y-16828674D02*
X17193872Y-16819150D01*
X17193872Y-16819150D02*
X17222444Y-16819150D01*
X17222444Y-16819150D02*
X17241491Y-16828674D01*
X17241491Y-16828674D02*
X17251015Y-16847722D01*
X17251015Y-16847722D02*
X17251015Y-16952484D01*
X17641491Y-16742960D02*
X17470063Y-17000103D01*
X17898634Y-16752484D02*
X17917682Y-16752484D01*
X17917682Y-16752484D02*
X17936729Y-16762008D01*
X17936729Y-16762008D02*
X17946253Y-16771531D01*
X17946253Y-16771531D02*
X17955777Y-16790579D01*
X17955777Y-16790579D02*
X17965301Y-16828674D01*
X17965301Y-16828674D02*
X17965301Y-16876293D01*
X17965301Y-16876293D02*
X17955777Y-16914389D01*
X17955777Y-16914389D02*
X17946253Y-16933436D01*
X17946253Y-16933436D02*
X17936729Y-16942960D01*
X17936729Y-16942960D02*
X17917682Y-16952484D01*
X17917682Y-16952484D02*
X17898634Y-16952484D01*
X17898634Y-16952484D02*
X17879587Y-16942960D01*
X17879587Y-16942960D02*
X17870063Y-16933436D01*
X17870063Y-16933436D02*
X17860539Y-16914389D01*
X17860539Y-16914389D02*
X17851015Y-16876293D01*
X17851015Y-16876293D02*
X17851015Y-16828674D01*
X17851015Y-16828674D02*
X17860539Y-16790579D01*
X17860539Y-16790579D02*
X17870063Y-16771531D01*
X17870063Y-16771531D02*
X17879587Y-16762008D01*
X17879587Y-16762008D02*
X17898634Y-16752484D01*
X18051015Y-16933436D02*
X18060539Y-16942960D01*
X18060539Y-16942960D02*
X18051015Y-16952484D01*
X18051015Y-16952484D02*
X18041491Y-16942960D01*
X18041491Y-16942960D02*
X18051015Y-16933436D01*
X18051015Y-16933436D02*
X18051015Y-16952484D01*
X18184348Y-16752484D02*
X18203396Y-16752484D01*
X18203396Y-16752484D02*
X18222444Y-16762008D01*
X18222444Y-16762008D02*
X18231968Y-16771531D01*
X18231968Y-16771531D02*
X18241491Y-16790579D01*
X18241491Y-16790579D02*
X18251015Y-16828674D01*
X18251015Y-16828674D02*
X18251015Y-16876293D01*
X18251015Y-16876293D02*
X18241491Y-16914389D01*
X18241491Y-16914389D02*
X18231968Y-16933436D01*
X18231968Y-16933436D02*
X18222444Y-16942960D01*
X18222444Y-16942960D02*
X18203396Y-16952484D01*
X18203396Y-16952484D02*
X18184348Y-16952484D01*
X18184348Y-16952484D02*
X18165301Y-16942960D01*
X18165301Y-16942960D02*
X18155777Y-16933436D01*
X18155777Y-16933436D02*
X18146253Y-16914389D01*
X18146253Y-16914389D02*
X18136729Y-16876293D01*
X18136729Y-16876293D02*
X18136729Y-16828674D01*
X18136729Y-16828674D02*
X18146253Y-16790579D01*
X18146253Y-16790579D02*
X18155777Y-16771531D01*
X18155777Y-16771531D02*
X18165301Y-16762008D01*
X18165301Y-16762008D02*
X18184348Y-16752484D01*
X18317682Y-16752484D02*
X18441491Y-16752484D01*
X18441491Y-16752484D02*
X18374825Y-16828674D01*
X18374825Y-16828674D02*
X18403396Y-16828674D01*
X18403396Y-16828674D02*
X18422444Y-16838198D01*
X18422444Y-16838198D02*
X18431968Y-16847722D01*
X18431968Y-16847722D02*
X18441491Y-16866770D01*
X18441491Y-16866770D02*
X18441491Y-16914389D01*
X18441491Y-16914389D02*
X18431968Y-16933436D01*
X18431968Y-16933436D02*
X18422444Y-16942960D01*
X18422444Y-16942960D02*
X18403396Y-16952484D01*
X18403396Y-16952484D02*
X18346253Y-16952484D01*
X18346253Y-16952484D02*
X18327206Y-16942960D01*
X18327206Y-16942960D02*
X18317682Y-16933436D01*
X18508158Y-16752484D02*
X18641491Y-16752484D01*
X18641491Y-16752484D02*
X18555777Y-16952484D01*
X18803396Y-16819150D02*
X18803396Y-16952484D01*
X18755777Y-16742960D02*
X18708158Y-16885817D01*
X18708158Y-16885817D02*
X18831968Y-16885817D01*
X18898634Y-16752484D02*
X18898634Y-16790579D01*
X18974825Y-16752484D02*
X18974825Y-16790579D01*
X19270063Y-17028674D02*
X19260539Y-17019150D01*
X19260539Y-17019150D02*
X19241491Y-16990579D01*
X19241491Y-16990579D02*
X19231968Y-16971531D01*
X19231968Y-16971531D02*
X19222444Y-16942960D01*
X19222444Y-16942960D02*
X19212920Y-16895341D01*
X19212920Y-16895341D02*
X19212920Y-16857246D01*
X19212920Y-16857246D02*
X19222444Y-16809627D01*
X19222444Y-16809627D02*
X19231968Y-16781055D01*
X19231968Y-16781055D02*
X19241491Y-16762008D01*
X19241491Y-16762008D02*
X19260539Y-16733436D01*
X19260539Y-16733436D02*
X19270063Y-16723912D01*
X19431968Y-16819150D02*
X19431968Y-16952484D01*
X19384349Y-16742960D02*
X19336730Y-16885817D01*
X19336730Y-16885817D02*
X19460539Y-16885817D01*
X19689111Y-16952484D02*
X19689111Y-16752484D01*
X19774825Y-16952484D02*
X19774825Y-16847722D01*
X19774825Y-16847722D02*
X19765301Y-16828674D01*
X19765301Y-16828674D02*
X19746253Y-16819150D01*
X19746253Y-16819150D02*
X19717682Y-16819150D01*
X19717682Y-16819150D02*
X19698634Y-16828674D01*
X19698634Y-16828674D02*
X19689111Y-16838198D01*
X19898634Y-16952484D02*
X19879587Y-16942960D01*
X19879587Y-16942960D02*
X19870063Y-16933436D01*
X19870063Y-16933436D02*
X19860539Y-16914389D01*
X19860539Y-16914389D02*
X19860539Y-16857246D01*
X19860539Y-16857246D02*
X19870063Y-16838198D01*
X19870063Y-16838198D02*
X19879587Y-16828674D01*
X19879587Y-16828674D02*
X19898634Y-16819150D01*
X19898634Y-16819150D02*
X19927206Y-16819150D01*
X19927206Y-16819150D02*
X19946253Y-16828674D01*
X19946253Y-16828674D02*
X19955777Y-16838198D01*
X19955777Y-16838198D02*
X19965301Y-16857246D01*
X19965301Y-16857246D02*
X19965301Y-16914389D01*
X19965301Y-16914389D02*
X19955777Y-16933436D01*
X19955777Y-16933436D02*
X19946253Y-16942960D01*
X19946253Y-16942960D02*
X19927206Y-16952484D01*
X19927206Y-16952484D02*
X19898634Y-16952484D01*
X20079587Y-16952484D02*
X20060539Y-16942960D01*
X20060539Y-16942960D02*
X20051015Y-16923912D01*
X20051015Y-16923912D02*
X20051015Y-16752484D01*
X20231968Y-16942960D02*
X20212920Y-16952484D01*
X20212920Y-16952484D02*
X20174825Y-16952484D01*
X20174825Y-16952484D02*
X20155777Y-16942960D01*
X20155777Y-16942960D02*
X20146253Y-16923912D01*
X20146253Y-16923912D02*
X20146253Y-16847722D01*
X20146253Y-16847722D02*
X20155777Y-16828674D01*
X20155777Y-16828674D02*
X20174825Y-16819150D01*
X20174825Y-16819150D02*
X20212920Y-16819150D01*
X20212920Y-16819150D02*
X20231968Y-16828674D01*
X20231968Y-16828674D02*
X20241492Y-16847722D01*
X20241492Y-16847722D02*
X20241492Y-16866770D01*
X20241492Y-16866770D02*
X20146253Y-16885817D01*
X20317682Y-16942960D02*
X20336730Y-16952484D01*
X20336730Y-16952484D02*
X20374825Y-16952484D01*
X20374825Y-16952484D02*
X20393873Y-16942960D01*
X20393873Y-16942960D02*
X20403396Y-16923912D01*
X20403396Y-16923912D02*
X20403396Y-16914389D01*
X20403396Y-16914389D02*
X20393873Y-16895341D01*
X20393873Y-16895341D02*
X20374825Y-16885817D01*
X20374825Y-16885817D02*
X20346253Y-16885817D01*
X20346253Y-16885817D02*
X20327206Y-16876293D01*
X20327206Y-16876293D02*
X20317682Y-16857246D01*
X20317682Y-16857246D02*
X20317682Y-16847722D01*
X20317682Y-16847722D02*
X20327206Y-16828674D01*
X20327206Y-16828674D02*
X20346253Y-16819150D01*
X20346253Y-16819150D02*
X20374825Y-16819150D01*
X20374825Y-16819150D02*
X20393873Y-16828674D01*
X20470063Y-17028674D02*
X20479587Y-17019150D01*
X20479587Y-17019150D02*
X20498634Y-16990579D01*
X20498634Y-16990579D02*
X20508158Y-16971531D01*
X20508158Y-16971531D02*
X20517682Y-16942960D01*
X20517682Y-16942960D02*
X20527206Y-16895341D01*
X20527206Y-16895341D02*
X20527206Y-16857246D01*
X20527206Y-16857246D02*
X20517682Y-16809627D01*
X20517682Y-16809627D02*
X20508158Y-16781055D01*
X20508158Y-16781055D02*
X20498634Y-16762008D01*
X20498634Y-16762008D02*
X20479587Y-16733436D01*
X20479587Y-16733436D02*
X20470063Y-16723912D01*
D12*
X15580000Y-17067500D02*
X15695000Y-17182500D01*
X15695000Y-17067500D02*
X15580000Y-17182500D01*
X15695000Y-17125000D02*
G75*
G02*
X15580000Y-17125000I-57500J0D01*
G01*
X15580000Y-17125000D02*
G75*
G02*
X15695000Y-17125000I57500J0D01*
G01*
D11*
X16060539Y-17216484D02*
X15946253Y-17216484D01*
X16003396Y-17216484D02*
X16003396Y-17016484D01*
X16003396Y-17016484D02*
X15984348Y-17045055D01*
X15984348Y-17045055D02*
X15965301Y-17064103D01*
X15965301Y-17064103D02*
X15946253Y-17073627D01*
X16146253Y-17197436D02*
X16155777Y-17206960D01*
X16155777Y-17206960D02*
X16146253Y-17216484D01*
X16146253Y-17216484D02*
X16136729Y-17206960D01*
X16136729Y-17206960D02*
X16146253Y-17197436D01*
X16146253Y-17197436D02*
X16146253Y-17216484D01*
X16346253Y-17216484D02*
X16231967Y-17216484D01*
X16289110Y-17216484D02*
X16289110Y-17016484D01*
X16289110Y-17016484D02*
X16270062Y-17045055D01*
X16270062Y-17045055D02*
X16251015Y-17064103D01*
X16251015Y-17064103D02*
X16231967Y-17073627D01*
X16527205Y-17016484D02*
X16431967Y-17016484D01*
X16431967Y-17016484D02*
X16422443Y-17111722D01*
X16422443Y-17111722D02*
X16431967Y-17102198D01*
X16431967Y-17102198D02*
X16451015Y-17092674D01*
X16451015Y-17092674D02*
X16498634Y-17092674D01*
X16498634Y-17092674D02*
X16517682Y-17102198D01*
X16517682Y-17102198D02*
X16527205Y-17111722D01*
X16527205Y-17111722D02*
X16536729Y-17130770D01*
X16536729Y-17130770D02*
X16536729Y-17178389D01*
X16536729Y-17178389D02*
X16527205Y-17197436D01*
X16527205Y-17197436D02*
X16517682Y-17206960D01*
X16517682Y-17206960D02*
X16498634Y-17216484D01*
X16498634Y-17216484D02*
X16451015Y-17216484D01*
X16451015Y-17216484D02*
X16431967Y-17206960D01*
X16431967Y-17206960D02*
X16422443Y-17197436D01*
X16660539Y-17016484D02*
X16679586Y-17016484D01*
X16679586Y-17016484D02*
X16698634Y-17026008D01*
X16698634Y-17026008D02*
X16708158Y-17035531D01*
X16708158Y-17035531D02*
X16717682Y-17054579D01*
X16717682Y-17054579D02*
X16727205Y-17092674D01*
X16727205Y-17092674D02*
X16727205Y-17140293D01*
X16727205Y-17140293D02*
X16717682Y-17178389D01*
X16717682Y-17178389D02*
X16708158Y-17197436D01*
X16708158Y-17197436D02*
X16698634Y-17206960D01*
X16698634Y-17206960D02*
X16679586Y-17216484D01*
X16679586Y-17216484D02*
X16660539Y-17216484D01*
X16660539Y-17216484D02*
X16641491Y-17206960D01*
X16641491Y-17206960D02*
X16631967Y-17197436D01*
X16631967Y-17197436D02*
X16622443Y-17178389D01*
X16622443Y-17178389D02*
X16612920Y-17140293D01*
X16612920Y-17140293D02*
X16612920Y-17092674D01*
X16612920Y-17092674D02*
X16622443Y-17054579D01*
X16622443Y-17054579D02*
X16631967Y-17035531D01*
X16631967Y-17035531D02*
X16641491Y-17026008D01*
X16641491Y-17026008D02*
X16660539Y-17016484D01*
X16812920Y-17216484D02*
X16812920Y-17083150D01*
X16812920Y-17102198D02*
X16822444Y-17092674D01*
X16822444Y-17092674D02*
X16841491Y-17083150D01*
X16841491Y-17083150D02*
X16870063Y-17083150D01*
X16870063Y-17083150D02*
X16889110Y-17092674D01*
X16889110Y-17092674D02*
X16898634Y-17111722D01*
X16898634Y-17111722D02*
X16898634Y-17216484D01*
X16898634Y-17111722D02*
X16908158Y-17092674D01*
X16908158Y-17092674D02*
X16927205Y-17083150D01*
X16927205Y-17083150D02*
X16955777Y-17083150D01*
X16955777Y-17083150D02*
X16974825Y-17092674D01*
X16974825Y-17092674D02*
X16984348Y-17111722D01*
X16984348Y-17111722D02*
X16984348Y-17216484D01*
X17079586Y-17216484D02*
X17079586Y-17083150D01*
X17079586Y-17102198D02*
X17089110Y-17092674D01*
X17089110Y-17092674D02*
X17108158Y-17083150D01*
X17108158Y-17083150D02*
X17136729Y-17083150D01*
X17136729Y-17083150D02*
X17155777Y-17092674D01*
X17155777Y-17092674D02*
X17165301Y-17111722D01*
X17165301Y-17111722D02*
X17165301Y-17216484D01*
X17165301Y-17111722D02*
X17174825Y-17092674D01*
X17174825Y-17092674D02*
X17193872Y-17083150D01*
X17193872Y-17083150D02*
X17222444Y-17083150D01*
X17222444Y-17083150D02*
X17241491Y-17092674D01*
X17241491Y-17092674D02*
X17251015Y-17111722D01*
X17251015Y-17111722D02*
X17251015Y-17216484D01*
X17641491Y-17006960D02*
X17470063Y-17264103D01*
X17898634Y-17016484D02*
X17917682Y-17016484D01*
X17917682Y-17016484D02*
X17936729Y-17026008D01*
X17936729Y-17026008D02*
X17946253Y-17035531D01*
X17946253Y-17035531D02*
X17955777Y-17054579D01*
X17955777Y-17054579D02*
X17965301Y-17092674D01*
X17965301Y-17092674D02*
X17965301Y-17140293D01*
X17965301Y-17140293D02*
X17955777Y-17178389D01*
X17955777Y-17178389D02*
X17946253Y-17197436D01*
X17946253Y-17197436D02*
X17936729Y-17206960D01*
X17936729Y-17206960D02*
X17917682Y-17216484D01*
X17917682Y-17216484D02*
X17898634Y-17216484D01*
X17898634Y-17216484D02*
X17879587Y-17206960D01*
X17879587Y-17206960D02*
X17870063Y-17197436D01*
X17870063Y-17197436D02*
X17860539Y-17178389D01*
X17860539Y-17178389D02*
X17851015Y-17140293D01*
X17851015Y-17140293D02*
X17851015Y-17092674D01*
X17851015Y-17092674D02*
X17860539Y-17054579D01*
X17860539Y-17054579D02*
X17870063Y-17035531D01*
X17870063Y-17035531D02*
X17879587Y-17026008D01*
X17879587Y-17026008D02*
X17898634Y-17016484D01*
X18051015Y-17197436D02*
X18060539Y-17206960D01*
X18060539Y-17206960D02*
X18051015Y-17216484D01*
X18051015Y-17216484D02*
X18041491Y-17206960D01*
X18041491Y-17206960D02*
X18051015Y-17197436D01*
X18051015Y-17197436D02*
X18051015Y-17216484D01*
X18184348Y-17016484D02*
X18203396Y-17016484D01*
X18203396Y-17016484D02*
X18222444Y-17026008D01*
X18222444Y-17026008D02*
X18231968Y-17035531D01*
X18231968Y-17035531D02*
X18241491Y-17054579D01*
X18241491Y-17054579D02*
X18251015Y-17092674D01*
X18251015Y-17092674D02*
X18251015Y-17140293D01*
X18251015Y-17140293D02*
X18241491Y-17178389D01*
X18241491Y-17178389D02*
X18231968Y-17197436D01*
X18231968Y-17197436D02*
X18222444Y-17206960D01*
X18222444Y-17206960D02*
X18203396Y-17216484D01*
X18203396Y-17216484D02*
X18184348Y-17216484D01*
X18184348Y-17216484D02*
X18165301Y-17206960D01*
X18165301Y-17206960D02*
X18155777Y-17197436D01*
X18155777Y-17197436D02*
X18146253Y-17178389D01*
X18146253Y-17178389D02*
X18136729Y-17140293D01*
X18136729Y-17140293D02*
X18136729Y-17092674D01*
X18136729Y-17092674D02*
X18146253Y-17054579D01*
X18146253Y-17054579D02*
X18155777Y-17035531D01*
X18155777Y-17035531D02*
X18165301Y-17026008D01*
X18165301Y-17026008D02*
X18184348Y-17016484D01*
X18422444Y-17083150D02*
X18422444Y-17216484D01*
X18374825Y-17006960D02*
X18327206Y-17149817D01*
X18327206Y-17149817D02*
X18451015Y-17149817D01*
X18622444Y-17016484D02*
X18527206Y-17016484D01*
X18527206Y-17016484D02*
X18517682Y-17111722D01*
X18517682Y-17111722D02*
X18527206Y-17102198D01*
X18527206Y-17102198D02*
X18546253Y-17092674D01*
X18546253Y-17092674D02*
X18593872Y-17092674D01*
X18593872Y-17092674D02*
X18612920Y-17102198D01*
X18612920Y-17102198D02*
X18622444Y-17111722D01*
X18622444Y-17111722D02*
X18631968Y-17130770D01*
X18631968Y-17130770D02*
X18631968Y-17178389D01*
X18631968Y-17178389D02*
X18622444Y-17197436D01*
X18622444Y-17197436D02*
X18612920Y-17206960D01*
X18612920Y-17206960D02*
X18593872Y-17216484D01*
X18593872Y-17216484D02*
X18546253Y-17216484D01*
X18546253Y-17216484D02*
X18527206Y-17206960D01*
X18527206Y-17206960D02*
X18517682Y-17197436D01*
X18698634Y-17016484D02*
X18822444Y-17016484D01*
X18822444Y-17016484D02*
X18755777Y-17092674D01*
X18755777Y-17092674D02*
X18784349Y-17092674D01*
X18784349Y-17092674D02*
X18803396Y-17102198D01*
X18803396Y-17102198D02*
X18812920Y-17111722D01*
X18812920Y-17111722D02*
X18822444Y-17130770D01*
X18822444Y-17130770D02*
X18822444Y-17178389D01*
X18822444Y-17178389D02*
X18812920Y-17197436D01*
X18812920Y-17197436D02*
X18803396Y-17206960D01*
X18803396Y-17206960D02*
X18784349Y-17216484D01*
X18784349Y-17216484D02*
X18727206Y-17216484D01*
X18727206Y-17216484D02*
X18708158Y-17206960D01*
X18708158Y-17206960D02*
X18698634Y-17197436D01*
X18898634Y-17016484D02*
X18898634Y-17054579D01*
X18974825Y-17016484D02*
X18974825Y-17054579D01*
X19270063Y-17292674D02*
X19260539Y-17283150D01*
X19260539Y-17283150D02*
X19241491Y-17254579D01*
X19241491Y-17254579D02*
X19231968Y-17235531D01*
X19231968Y-17235531D02*
X19222444Y-17206960D01*
X19222444Y-17206960D02*
X19212920Y-17159341D01*
X19212920Y-17159341D02*
X19212920Y-17121246D01*
X19212920Y-17121246D02*
X19222444Y-17073627D01*
X19222444Y-17073627D02*
X19231968Y-17045055D01*
X19231968Y-17045055D02*
X19241491Y-17026008D01*
X19241491Y-17026008D02*
X19260539Y-16997436D01*
X19260539Y-16997436D02*
X19270063Y-16987912D01*
X19451015Y-17216484D02*
X19336730Y-17216484D01*
X19393872Y-17216484D02*
X19393872Y-17016484D01*
X19393872Y-17016484D02*
X19374825Y-17045055D01*
X19374825Y-17045055D02*
X19355777Y-17064103D01*
X19355777Y-17064103D02*
X19336730Y-17073627D01*
X19622444Y-17016484D02*
X19584349Y-17016484D01*
X19584349Y-17016484D02*
X19565301Y-17026008D01*
X19565301Y-17026008D02*
X19555777Y-17035531D01*
X19555777Y-17035531D02*
X19536730Y-17064103D01*
X19536730Y-17064103D02*
X19527206Y-17102198D01*
X19527206Y-17102198D02*
X19527206Y-17178389D01*
X19527206Y-17178389D02*
X19536730Y-17197436D01*
X19536730Y-17197436D02*
X19546253Y-17206960D01*
X19546253Y-17206960D02*
X19565301Y-17216484D01*
X19565301Y-17216484D02*
X19603396Y-17216484D01*
X19603396Y-17216484D02*
X19622444Y-17206960D01*
X19622444Y-17206960D02*
X19631968Y-17197436D01*
X19631968Y-17197436D02*
X19641491Y-17178389D01*
X19641491Y-17178389D02*
X19641491Y-17130770D01*
X19641491Y-17130770D02*
X19631968Y-17111722D01*
X19631968Y-17111722D02*
X19622444Y-17102198D01*
X19622444Y-17102198D02*
X19603396Y-17092674D01*
X19603396Y-17092674D02*
X19565301Y-17092674D01*
X19565301Y-17092674D02*
X19546253Y-17102198D01*
X19546253Y-17102198D02*
X19536730Y-17111722D01*
X19536730Y-17111722D02*
X19527206Y-17130770D01*
X19879587Y-17216484D02*
X19879587Y-17016484D01*
X19965301Y-17216484D02*
X19965301Y-17111722D01*
X19965301Y-17111722D02*
X19955777Y-17092674D01*
X19955777Y-17092674D02*
X19936730Y-17083150D01*
X19936730Y-17083150D02*
X19908158Y-17083150D01*
X19908158Y-17083150D02*
X19889111Y-17092674D01*
X19889111Y-17092674D02*
X19879587Y-17102198D01*
X20089111Y-17216484D02*
X20070063Y-17206960D01*
X20070063Y-17206960D02*
X20060539Y-17197436D01*
X20060539Y-17197436D02*
X20051015Y-17178389D01*
X20051015Y-17178389D02*
X20051015Y-17121246D01*
X20051015Y-17121246D02*
X20060539Y-17102198D01*
X20060539Y-17102198D02*
X20070063Y-17092674D01*
X20070063Y-17092674D02*
X20089111Y-17083150D01*
X20089111Y-17083150D02*
X20117682Y-17083150D01*
X20117682Y-17083150D02*
X20136730Y-17092674D01*
X20136730Y-17092674D02*
X20146253Y-17102198D01*
X20146253Y-17102198D02*
X20155777Y-17121246D01*
X20155777Y-17121246D02*
X20155777Y-17178389D01*
X20155777Y-17178389D02*
X20146253Y-17197436D01*
X20146253Y-17197436D02*
X20136730Y-17206960D01*
X20136730Y-17206960D02*
X20117682Y-17216484D01*
X20117682Y-17216484D02*
X20089111Y-17216484D01*
X20270063Y-17216484D02*
X20251015Y-17206960D01*
X20251015Y-17206960D02*
X20241492Y-17187912D01*
X20241492Y-17187912D02*
X20241492Y-17016484D01*
X20422444Y-17206960D02*
X20403396Y-17216484D01*
X20403396Y-17216484D02*
X20365301Y-17216484D01*
X20365301Y-17216484D02*
X20346253Y-17206960D01*
X20346253Y-17206960D02*
X20336730Y-17187912D01*
X20336730Y-17187912D02*
X20336730Y-17111722D01*
X20336730Y-17111722D02*
X20346253Y-17092674D01*
X20346253Y-17092674D02*
X20365301Y-17083150D01*
X20365301Y-17083150D02*
X20403396Y-17083150D01*
X20403396Y-17083150D02*
X20422444Y-17092674D01*
X20422444Y-17092674D02*
X20431968Y-17111722D01*
X20431968Y-17111722D02*
X20431968Y-17130770D01*
X20431968Y-17130770D02*
X20336730Y-17149817D01*
X20508158Y-17206960D02*
X20527206Y-17216484D01*
X20527206Y-17216484D02*
X20565301Y-17216484D01*
X20565301Y-17216484D02*
X20584349Y-17206960D01*
X20584349Y-17206960D02*
X20593873Y-17187912D01*
X20593873Y-17187912D02*
X20593873Y-17178389D01*
X20593873Y-17178389D02*
X20584349Y-17159341D01*
X20584349Y-17159341D02*
X20565301Y-17149817D01*
X20565301Y-17149817D02*
X20536730Y-17149817D01*
X20536730Y-17149817D02*
X20517682Y-17140293D01*
X20517682Y-17140293D02*
X20508158Y-17121246D01*
X20508158Y-17121246D02*
X20508158Y-17111722D01*
X20508158Y-17111722D02*
X20517682Y-17092674D01*
X20517682Y-17092674D02*
X20536730Y-17083150D01*
X20536730Y-17083150D02*
X20565301Y-17083150D01*
X20565301Y-17083150D02*
X20584349Y-17092674D01*
X20660539Y-17292674D02*
X20670063Y-17283150D01*
X20670063Y-17283150D02*
X20689111Y-17254579D01*
X20689111Y-17254579D02*
X20698634Y-17235531D01*
X20698634Y-17235531D02*
X20708158Y-17206960D01*
X20708158Y-17206960D02*
X20717682Y-17159341D01*
X20717682Y-17159341D02*
X20717682Y-17121246D01*
X20717682Y-17121246D02*
X20708158Y-17073627D01*
X20708158Y-17073627D02*
X20698634Y-17045055D01*
X20698634Y-17045055D02*
X20689111Y-17026008D01*
X20689111Y-17026008D02*
X20670063Y-16997436D01*
X20670063Y-16997436D02*
X20660539Y-16987912D01*
D13*
X15535000Y-17309000D02*
X15695000Y-17469000D01*
X15695000Y-17309000D02*
X15535000Y-17469000D01*
X15615000Y-17309000D02*
X15615000Y-17469000D01*
X15535000Y-17389000D02*
X15695000Y-17389000D01*
D11*
X16060539Y-17480484D02*
X15946253Y-17480484D01*
X16003396Y-17480484D02*
X16003396Y-17280484D01*
X16003396Y-17280484D02*
X15984348Y-17309055D01*
X15984348Y-17309055D02*
X15965301Y-17328103D01*
X15965301Y-17328103D02*
X15946253Y-17337627D01*
X16146253Y-17461436D02*
X16155777Y-17470960D01*
X16155777Y-17470960D02*
X16146253Y-17480484D01*
X16146253Y-17480484D02*
X16136729Y-17470960D01*
X16136729Y-17470960D02*
X16146253Y-17461436D01*
X16146253Y-17461436D02*
X16146253Y-17480484D01*
X16327205Y-17280484D02*
X16289110Y-17280484D01*
X16289110Y-17280484D02*
X16270062Y-17290008D01*
X16270062Y-17290008D02*
X16260539Y-17299531D01*
X16260539Y-17299531D02*
X16241491Y-17328103D01*
X16241491Y-17328103D02*
X16231967Y-17366198D01*
X16231967Y-17366198D02*
X16231967Y-17442389D01*
X16231967Y-17442389D02*
X16241491Y-17461436D01*
X16241491Y-17461436D02*
X16251015Y-17470960D01*
X16251015Y-17470960D02*
X16270062Y-17480484D01*
X16270062Y-17480484D02*
X16308158Y-17480484D01*
X16308158Y-17480484D02*
X16327205Y-17470960D01*
X16327205Y-17470960D02*
X16336729Y-17461436D01*
X16336729Y-17461436D02*
X16346253Y-17442389D01*
X16346253Y-17442389D02*
X16346253Y-17394770D01*
X16346253Y-17394770D02*
X16336729Y-17375722D01*
X16336729Y-17375722D02*
X16327205Y-17366198D01*
X16327205Y-17366198D02*
X16308158Y-17356674D01*
X16308158Y-17356674D02*
X16270062Y-17356674D01*
X16270062Y-17356674D02*
X16251015Y-17366198D01*
X16251015Y-17366198D02*
X16241491Y-17375722D01*
X16241491Y-17375722D02*
X16231967Y-17394770D01*
X16470062Y-17280484D02*
X16489110Y-17280484D01*
X16489110Y-17280484D02*
X16508158Y-17290008D01*
X16508158Y-17290008D02*
X16517682Y-17299531D01*
X16517682Y-17299531D02*
X16527205Y-17318579D01*
X16527205Y-17318579D02*
X16536729Y-17356674D01*
X16536729Y-17356674D02*
X16536729Y-17404293D01*
X16536729Y-17404293D02*
X16527205Y-17442389D01*
X16527205Y-17442389D02*
X16517682Y-17461436D01*
X16517682Y-17461436D02*
X16508158Y-17470960D01*
X16508158Y-17470960D02*
X16489110Y-17480484D01*
X16489110Y-17480484D02*
X16470062Y-17480484D01*
X16470062Y-17480484D02*
X16451015Y-17470960D01*
X16451015Y-17470960D02*
X16441491Y-17461436D01*
X16441491Y-17461436D02*
X16431967Y-17442389D01*
X16431967Y-17442389D02*
X16422443Y-17404293D01*
X16422443Y-17404293D02*
X16422443Y-17356674D01*
X16422443Y-17356674D02*
X16431967Y-17318579D01*
X16431967Y-17318579D02*
X16441491Y-17299531D01*
X16441491Y-17299531D02*
X16451015Y-17290008D01*
X16451015Y-17290008D02*
X16470062Y-17280484D01*
X16660539Y-17280484D02*
X16679586Y-17280484D01*
X16679586Y-17280484D02*
X16698634Y-17290008D01*
X16698634Y-17290008D02*
X16708158Y-17299531D01*
X16708158Y-17299531D02*
X16717682Y-17318579D01*
X16717682Y-17318579D02*
X16727205Y-17356674D01*
X16727205Y-17356674D02*
X16727205Y-17404293D01*
X16727205Y-17404293D02*
X16717682Y-17442389D01*
X16717682Y-17442389D02*
X16708158Y-17461436D01*
X16708158Y-17461436D02*
X16698634Y-17470960D01*
X16698634Y-17470960D02*
X16679586Y-17480484D01*
X16679586Y-17480484D02*
X16660539Y-17480484D01*
X16660539Y-17480484D02*
X16641491Y-17470960D01*
X16641491Y-17470960D02*
X16631967Y-17461436D01*
X16631967Y-17461436D02*
X16622443Y-17442389D01*
X16622443Y-17442389D02*
X16612920Y-17404293D01*
X16612920Y-17404293D02*
X16612920Y-17356674D01*
X16612920Y-17356674D02*
X16622443Y-17318579D01*
X16622443Y-17318579D02*
X16631967Y-17299531D01*
X16631967Y-17299531D02*
X16641491Y-17290008D01*
X16641491Y-17290008D02*
X16660539Y-17280484D01*
X16812920Y-17480484D02*
X16812920Y-17347150D01*
X16812920Y-17366198D02*
X16822444Y-17356674D01*
X16822444Y-17356674D02*
X16841491Y-17347150D01*
X16841491Y-17347150D02*
X16870063Y-17347150D01*
X16870063Y-17347150D02*
X16889110Y-17356674D01*
X16889110Y-17356674D02*
X16898634Y-17375722D01*
X16898634Y-17375722D02*
X16898634Y-17480484D01*
X16898634Y-17375722D02*
X16908158Y-17356674D01*
X16908158Y-17356674D02*
X16927205Y-17347150D01*
X16927205Y-17347150D02*
X16955777Y-17347150D01*
X16955777Y-17347150D02*
X16974825Y-17356674D01*
X16974825Y-17356674D02*
X16984348Y-17375722D01*
X16984348Y-17375722D02*
X16984348Y-17480484D01*
X17079586Y-17480484D02*
X17079586Y-17347150D01*
X17079586Y-17366198D02*
X17089110Y-17356674D01*
X17089110Y-17356674D02*
X17108158Y-17347150D01*
X17108158Y-17347150D02*
X17136729Y-17347150D01*
X17136729Y-17347150D02*
X17155777Y-17356674D01*
X17155777Y-17356674D02*
X17165301Y-17375722D01*
X17165301Y-17375722D02*
X17165301Y-17480484D01*
X17165301Y-17375722D02*
X17174825Y-17356674D01*
X17174825Y-17356674D02*
X17193872Y-17347150D01*
X17193872Y-17347150D02*
X17222444Y-17347150D01*
X17222444Y-17347150D02*
X17241491Y-17356674D01*
X17241491Y-17356674D02*
X17251015Y-17375722D01*
X17251015Y-17375722D02*
X17251015Y-17480484D01*
X17641491Y-17270960D02*
X17470063Y-17528103D01*
X17898634Y-17280484D02*
X17917682Y-17280484D01*
X17917682Y-17280484D02*
X17936729Y-17290008D01*
X17936729Y-17290008D02*
X17946253Y-17299531D01*
X17946253Y-17299531D02*
X17955777Y-17318579D01*
X17955777Y-17318579D02*
X17965301Y-17356674D01*
X17965301Y-17356674D02*
X17965301Y-17404293D01*
X17965301Y-17404293D02*
X17955777Y-17442389D01*
X17955777Y-17442389D02*
X17946253Y-17461436D01*
X17946253Y-17461436D02*
X17936729Y-17470960D01*
X17936729Y-17470960D02*
X17917682Y-17480484D01*
X17917682Y-17480484D02*
X17898634Y-17480484D01*
X17898634Y-17480484D02*
X17879587Y-17470960D01*
X17879587Y-17470960D02*
X17870063Y-17461436D01*
X17870063Y-17461436D02*
X17860539Y-17442389D01*
X17860539Y-17442389D02*
X17851015Y-17404293D01*
X17851015Y-17404293D02*
X17851015Y-17356674D01*
X17851015Y-17356674D02*
X17860539Y-17318579D01*
X17860539Y-17318579D02*
X17870063Y-17299531D01*
X17870063Y-17299531D02*
X17879587Y-17290008D01*
X17879587Y-17290008D02*
X17898634Y-17280484D01*
X18051015Y-17461436D02*
X18060539Y-17470960D01*
X18060539Y-17470960D02*
X18051015Y-17480484D01*
X18051015Y-17480484D02*
X18041491Y-17470960D01*
X18041491Y-17470960D02*
X18051015Y-17461436D01*
X18051015Y-17461436D02*
X18051015Y-17480484D01*
X18184348Y-17280484D02*
X18203396Y-17280484D01*
X18203396Y-17280484D02*
X18222444Y-17290008D01*
X18222444Y-17290008D02*
X18231968Y-17299531D01*
X18231968Y-17299531D02*
X18241491Y-17318579D01*
X18241491Y-17318579D02*
X18251015Y-17356674D01*
X18251015Y-17356674D02*
X18251015Y-17404293D01*
X18251015Y-17404293D02*
X18241491Y-17442389D01*
X18241491Y-17442389D02*
X18231968Y-17461436D01*
X18231968Y-17461436D02*
X18222444Y-17470960D01*
X18222444Y-17470960D02*
X18203396Y-17480484D01*
X18203396Y-17480484D02*
X18184348Y-17480484D01*
X18184348Y-17480484D02*
X18165301Y-17470960D01*
X18165301Y-17470960D02*
X18155777Y-17461436D01*
X18155777Y-17461436D02*
X18146253Y-17442389D01*
X18146253Y-17442389D02*
X18136729Y-17404293D01*
X18136729Y-17404293D02*
X18136729Y-17356674D01*
X18136729Y-17356674D02*
X18146253Y-17318579D01*
X18146253Y-17318579D02*
X18155777Y-17299531D01*
X18155777Y-17299531D02*
X18165301Y-17290008D01*
X18165301Y-17290008D02*
X18184348Y-17280484D01*
X18422444Y-17280484D02*
X18384348Y-17280484D01*
X18384348Y-17280484D02*
X18365301Y-17290008D01*
X18365301Y-17290008D02*
X18355777Y-17299531D01*
X18355777Y-17299531D02*
X18336729Y-17328103D01*
X18336729Y-17328103D02*
X18327206Y-17366198D01*
X18327206Y-17366198D02*
X18327206Y-17442389D01*
X18327206Y-17442389D02*
X18336729Y-17461436D01*
X18336729Y-17461436D02*
X18346253Y-17470960D01*
X18346253Y-17470960D02*
X18365301Y-17480484D01*
X18365301Y-17480484D02*
X18403396Y-17480484D01*
X18403396Y-17480484D02*
X18422444Y-17470960D01*
X18422444Y-17470960D02*
X18431968Y-17461436D01*
X18431968Y-17461436D02*
X18441491Y-17442389D01*
X18441491Y-17442389D02*
X18441491Y-17394770D01*
X18441491Y-17394770D02*
X18431968Y-17375722D01*
X18431968Y-17375722D02*
X18422444Y-17366198D01*
X18422444Y-17366198D02*
X18403396Y-17356674D01*
X18403396Y-17356674D02*
X18365301Y-17356674D01*
X18365301Y-17356674D02*
X18346253Y-17366198D01*
X18346253Y-17366198D02*
X18336729Y-17375722D01*
X18336729Y-17375722D02*
X18327206Y-17394770D01*
X18508158Y-17280484D02*
X18631968Y-17280484D01*
X18631968Y-17280484D02*
X18565301Y-17356674D01*
X18565301Y-17356674D02*
X18593872Y-17356674D01*
X18593872Y-17356674D02*
X18612920Y-17366198D01*
X18612920Y-17366198D02*
X18622444Y-17375722D01*
X18622444Y-17375722D02*
X18631968Y-17394770D01*
X18631968Y-17394770D02*
X18631968Y-17442389D01*
X18631968Y-17442389D02*
X18622444Y-17461436D01*
X18622444Y-17461436D02*
X18612920Y-17470960D01*
X18612920Y-17470960D02*
X18593872Y-17480484D01*
X18593872Y-17480484D02*
X18536729Y-17480484D01*
X18536729Y-17480484D02*
X18517682Y-17470960D01*
X18517682Y-17470960D02*
X18508158Y-17461436D01*
X18755777Y-17280484D02*
X18774825Y-17280484D01*
X18774825Y-17280484D02*
X18793872Y-17290008D01*
X18793872Y-17290008D02*
X18803396Y-17299531D01*
X18803396Y-17299531D02*
X18812920Y-17318579D01*
X18812920Y-17318579D02*
X18822444Y-17356674D01*
X18822444Y-17356674D02*
X18822444Y-17404293D01*
X18822444Y-17404293D02*
X18812920Y-17442389D01*
X18812920Y-17442389D02*
X18803396Y-17461436D01*
X18803396Y-17461436D02*
X18793872Y-17470960D01*
X18793872Y-17470960D02*
X18774825Y-17480484D01*
X18774825Y-17480484D02*
X18755777Y-17480484D01*
X18755777Y-17480484D02*
X18736729Y-17470960D01*
X18736729Y-17470960D02*
X18727206Y-17461436D01*
X18727206Y-17461436D02*
X18717682Y-17442389D01*
X18717682Y-17442389D02*
X18708158Y-17404293D01*
X18708158Y-17404293D02*
X18708158Y-17356674D01*
X18708158Y-17356674D02*
X18717682Y-17318579D01*
X18717682Y-17318579D02*
X18727206Y-17299531D01*
X18727206Y-17299531D02*
X18736729Y-17290008D01*
X18736729Y-17290008D02*
X18755777Y-17280484D01*
X18898634Y-17280484D02*
X18898634Y-17318579D01*
X18974825Y-17280484D02*
X18974825Y-17318579D01*
X19270063Y-17556674D02*
X19260539Y-17547150D01*
X19260539Y-17547150D02*
X19241491Y-17518579D01*
X19241491Y-17518579D02*
X19231968Y-17499531D01*
X19231968Y-17499531D02*
X19222444Y-17470960D01*
X19222444Y-17470960D02*
X19212920Y-17423341D01*
X19212920Y-17423341D02*
X19212920Y-17385246D01*
X19212920Y-17385246D02*
X19222444Y-17337627D01*
X19222444Y-17337627D02*
X19231968Y-17309055D01*
X19231968Y-17309055D02*
X19241491Y-17290008D01*
X19241491Y-17290008D02*
X19260539Y-17261436D01*
X19260539Y-17261436D02*
X19270063Y-17251912D01*
X19336730Y-17299531D02*
X19346253Y-17290008D01*
X19346253Y-17290008D02*
X19365301Y-17280484D01*
X19365301Y-17280484D02*
X19412920Y-17280484D01*
X19412920Y-17280484D02*
X19431968Y-17290008D01*
X19431968Y-17290008D02*
X19441491Y-17299531D01*
X19441491Y-17299531D02*
X19451015Y-17318579D01*
X19451015Y-17318579D02*
X19451015Y-17337627D01*
X19451015Y-17337627D02*
X19441491Y-17366198D01*
X19441491Y-17366198D02*
X19327206Y-17480484D01*
X19327206Y-17480484D02*
X19451015Y-17480484D01*
X19689111Y-17480484D02*
X19689111Y-17280484D01*
X19774825Y-17480484D02*
X19774825Y-17375722D01*
X19774825Y-17375722D02*
X19765301Y-17356674D01*
X19765301Y-17356674D02*
X19746253Y-17347150D01*
X19746253Y-17347150D02*
X19717682Y-17347150D01*
X19717682Y-17347150D02*
X19698634Y-17356674D01*
X19698634Y-17356674D02*
X19689111Y-17366198D01*
X19898634Y-17480484D02*
X19879587Y-17470960D01*
X19879587Y-17470960D02*
X19870063Y-17461436D01*
X19870063Y-17461436D02*
X19860539Y-17442389D01*
X19860539Y-17442389D02*
X19860539Y-17385246D01*
X19860539Y-17385246D02*
X19870063Y-17366198D01*
X19870063Y-17366198D02*
X19879587Y-17356674D01*
X19879587Y-17356674D02*
X19898634Y-17347150D01*
X19898634Y-17347150D02*
X19927206Y-17347150D01*
X19927206Y-17347150D02*
X19946253Y-17356674D01*
X19946253Y-17356674D02*
X19955777Y-17366198D01*
X19955777Y-17366198D02*
X19965301Y-17385246D01*
X19965301Y-17385246D02*
X19965301Y-17442389D01*
X19965301Y-17442389D02*
X19955777Y-17461436D01*
X19955777Y-17461436D02*
X19946253Y-17470960D01*
X19946253Y-17470960D02*
X19927206Y-17480484D01*
X19927206Y-17480484D02*
X19898634Y-17480484D01*
X20079587Y-17480484D02*
X20060539Y-17470960D01*
X20060539Y-17470960D02*
X20051015Y-17451912D01*
X20051015Y-17451912D02*
X20051015Y-17280484D01*
X20231968Y-17470960D02*
X20212920Y-17480484D01*
X20212920Y-17480484D02*
X20174825Y-17480484D01*
X20174825Y-17480484D02*
X20155777Y-17470960D01*
X20155777Y-17470960D02*
X20146253Y-17451912D01*
X20146253Y-17451912D02*
X20146253Y-17375722D01*
X20146253Y-17375722D02*
X20155777Y-17356674D01*
X20155777Y-17356674D02*
X20174825Y-17347150D01*
X20174825Y-17347150D02*
X20212920Y-17347150D01*
X20212920Y-17347150D02*
X20231968Y-17356674D01*
X20231968Y-17356674D02*
X20241492Y-17375722D01*
X20241492Y-17375722D02*
X20241492Y-17394770D01*
X20241492Y-17394770D02*
X20146253Y-17413817D01*
X20317682Y-17470960D02*
X20336730Y-17480484D01*
X20336730Y-17480484D02*
X20374825Y-17480484D01*
X20374825Y-17480484D02*
X20393873Y-17470960D01*
X20393873Y-17470960D02*
X20403396Y-17451912D01*
X20403396Y-17451912D02*
X20403396Y-17442389D01*
X20403396Y-17442389D02*
X20393873Y-17423341D01*
X20393873Y-17423341D02*
X20374825Y-17413817D01*
X20374825Y-17413817D02*
X20346253Y-17413817D01*
X20346253Y-17413817D02*
X20327206Y-17404293D01*
X20327206Y-17404293D02*
X20317682Y-17385246D01*
X20317682Y-17385246D02*
X20317682Y-17375722D01*
X20317682Y-17375722D02*
X20327206Y-17356674D01*
X20327206Y-17356674D02*
X20346253Y-17347150D01*
X20346253Y-17347150D02*
X20374825Y-17347150D01*
X20374825Y-17347150D02*
X20393873Y-17356674D01*
X20470063Y-17556674D02*
X20479587Y-17547150D01*
X20479587Y-17547150D02*
X20498634Y-17518579D01*
X20498634Y-17518579D02*
X20508158Y-17499531D01*
X20508158Y-17499531D02*
X20517682Y-17470960D01*
X20517682Y-17470960D02*
X20527206Y-17423341D01*
X20527206Y-17423341D02*
X20527206Y-17385246D01*
X20527206Y-17385246D02*
X20517682Y-17337627D01*
X20517682Y-17337627D02*
X20508158Y-17309055D01*
X20508158Y-17309055D02*
X20498634Y-17290008D01*
X20498634Y-17290008D02*
X20479587Y-17261436D01*
X20479587Y-17261436D02*
X20470063Y-17251912D01*
D14*
X15517000Y-17580000D02*
X15695000Y-17758000D01*
X15695000Y-17580000D02*
X15517000Y-17758000D01*
X15668933Y-17731933D02*
X15668933Y-17606067D01*
X15543067Y-17606067D01*
X15543067Y-17731933D01*
X15668933Y-17731933D01*
D11*
X16060539Y-17760484D02*
X15946253Y-17760484D01*
X16003396Y-17760484D02*
X16003396Y-17560484D01*
X16003396Y-17560484D02*
X15984348Y-17589055D01*
X15984348Y-17589055D02*
X15965301Y-17608103D01*
X15965301Y-17608103D02*
X15946253Y-17617627D01*
X16146253Y-17741436D02*
X16155777Y-17750960D01*
X16155777Y-17750960D02*
X16146253Y-17760484D01*
X16146253Y-17760484D02*
X16136729Y-17750960D01*
X16136729Y-17750960D02*
X16146253Y-17741436D01*
X16146253Y-17741436D02*
X16146253Y-17760484D01*
X16222443Y-17560484D02*
X16355777Y-17560484D01*
X16355777Y-17560484D02*
X16270062Y-17760484D01*
X16460539Y-17646198D02*
X16441491Y-17636674D01*
X16441491Y-17636674D02*
X16431967Y-17627150D01*
X16431967Y-17627150D02*
X16422443Y-17608103D01*
X16422443Y-17608103D02*
X16422443Y-17598579D01*
X16422443Y-17598579D02*
X16431967Y-17579531D01*
X16431967Y-17579531D02*
X16441491Y-17570008D01*
X16441491Y-17570008D02*
X16460539Y-17560484D01*
X16460539Y-17560484D02*
X16498634Y-17560484D01*
X16498634Y-17560484D02*
X16517682Y-17570008D01*
X16517682Y-17570008D02*
X16527205Y-17579531D01*
X16527205Y-17579531D02*
X16536729Y-17598579D01*
X16536729Y-17598579D02*
X16536729Y-17608103D01*
X16536729Y-17608103D02*
X16527205Y-17627150D01*
X16527205Y-17627150D02*
X16517682Y-17636674D01*
X16517682Y-17636674D02*
X16498634Y-17646198D01*
X16498634Y-17646198D02*
X16460539Y-17646198D01*
X16460539Y-17646198D02*
X16441491Y-17655722D01*
X16441491Y-17655722D02*
X16431967Y-17665246D01*
X16431967Y-17665246D02*
X16422443Y-17684293D01*
X16422443Y-17684293D02*
X16422443Y-17722389D01*
X16422443Y-17722389D02*
X16431967Y-17741436D01*
X16431967Y-17741436D02*
X16441491Y-17750960D01*
X16441491Y-17750960D02*
X16460539Y-17760484D01*
X16460539Y-17760484D02*
X16498634Y-17760484D01*
X16498634Y-17760484D02*
X16517682Y-17750960D01*
X16517682Y-17750960D02*
X16527205Y-17741436D01*
X16527205Y-17741436D02*
X16536729Y-17722389D01*
X16536729Y-17722389D02*
X16536729Y-17684293D01*
X16536729Y-17684293D02*
X16527205Y-17665246D01*
X16527205Y-17665246D02*
X16517682Y-17655722D01*
X16517682Y-17655722D02*
X16498634Y-17646198D01*
X16660539Y-17560484D02*
X16679586Y-17560484D01*
X16679586Y-17560484D02*
X16698634Y-17570008D01*
X16698634Y-17570008D02*
X16708158Y-17579531D01*
X16708158Y-17579531D02*
X16717682Y-17598579D01*
X16717682Y-17598579D02*
X16727205Y-17636674D01*
X16727205Y-17636674D02*
X16727205Y-17684293D01*
X16727205Y-17684293D02*
X16717682Y-17722389D01*
X16717682Y-17722389D02*
X16708158Y-17741436D01*
X16708158Y-17741436D02*
X16698634Y-17750960D01*
X16698634Y-17750960D02*
X16679586Y-17760484D01*
X16679586Y-17760484D02*
X16660539Y-17760484D01*
X16660539Y-17760484D02*
X16641491Y-17750960D01*
X16641491Y-17750960D02*
X16631967Y-17741436D01*
X16631967Y-17741436D02*
X16622443Y-17722389D01*
X16622443Y-17722389D02*
X16612920Y-17684293D01*
X16612920Y-17684293D02*
X16612920Y-17636674D01*
X16612920Y-17636674D02*
X16622443Y-17598579D01*
X16622443Y-17598579D02*
X16631967Y-17579531D01*
X16631967Y-17579531D02*
X16641491Y-17570008D01*
X16641491Y-17570008D02*
X16660539Y-17560484D01*
X16812920Y-17760484D02*
X16812920Y-17627150D01*
X16812920Y-17646198D02*
X16822444Y-17636674D01*
X16822444Y-17636674D02*
X16841491Y-17627150D01*
X16841491Y-17627150D02*
X16870063Y-17627150D01*
X16870063Y-17627150D02*
X16889110Y-17636674D01*
X16889110Y-17636674D02*
X16898634Y-17655722D01*
X16898634Y-17655722D02*
X16898634Y-17760484D01*
X16898634Y-17655722D02*
X16908158Y-17636674D01*
X16908158Y-17636674D02*
X16927205Y-17627150D01*
X16927205Y-17627150D02*
X16955777Y-17627150D01*
X16955777Y-17627150D02*
X16974825Y-17636674D01*
X16974825Y-17636674D02*
X16984348Y-17655722D01*
X16984348Y-17655722D02*
X16984348Y-17760484D01*
X17079586Y-17760484D02*
X17079586Y-17627150D01*
X17079586Y-17646198D02*
X17089110Y-17636674D01*
X17089110Y-17636674D02*
X17108158Y-17627150D01*
X17108158Y-17627150D02*
X17136729Y-17627150D01*
X17136729Y-17627150D02*
X17155777Y-17636674D01*
X17155777Y-17636674D02*
X17165301Y-17655722D01*
X17165301Y-17655722D02*
X17165301Y-17760484D01*
X17165301Y-17655722D02*
X17174825Y-17636674D01*
X17174825Y-17636674D02*
X17193872Y-17627150D01*
X17193872Y-17627150D02*
X17222444Y-17627150D01*
X17222444Y-17627150D02*
X17241491Y-17636674D01*
X17241491Y-17636674D02*
X17251015Y-17655722D01*
X17251015Y-17655722D02*
X17251015Y-17760484D01*
X17641491Y-17550960D02*
X17470063Y-17808103D01*
X17898634Y-17560484D02*
X17917682Y-17560484D01*
X17917682Y-17560484D02*
X17936729Y-17570008D01*
X17936729Y-17570008D02*
X17946253Y-17579531D01*
X17946253Y-17579531D02*
X17955777Y-17598579D01*
X17955777Y-17598579D02*
X17965301Y-17636674D01*
X17965301Y-17636674D02*
X17965301Y-17684293D01*
X17965301Y-17684293D02*
X17955777Y-17722389D01*
X17955777Y-17722389D02*
X17946253Y-17741436D01*
X17946253Y-17741436D02*
X17936729Y-17750960D01*
X17936729Y-17750960D02*
X17917682Y-17760484D01*
X17917682Y-17760484D02*
X17898634Y-17760484D01*
X17898634Y-17760484D02*
X17879587Y-17750960D01*
X17879587Y-17750960D02*
X17870063Y-17741436D01*
X17870063Y-17741436D02*
X17860539Y-17722389D01*
X17860539Y-17722389D02*
X17851015Y-17684293D01*
X17851015Y-17684293D02*
X17851015Y-17636674D01*
X17851015Y-17636674D02*
X17860539Y-17598579D01*
X17860539Y-17598579D02*
X17870063Y-17579531D01*
X17870063Y-17579531D02*
X17879587Y-17570008D01*
X17879587Y-17570008D02*
X17898634Y-17560484D01*
X18051015Y-17741436D02*
X18060539Y-17750960D01*
X18060539Y-17750960D02*
X18051015Y-17760484D01*
X18051015Y-17760484D02*
X18041491Y-17750960D01*
X18041491Y-17750960D02*
X18051015Y-17741436D01*
X18051015Y-17741436D02*
X18051015Y-17760484D01*
X18184348Y-17560484D02*
X18203396Y-17560484D01*
X18203396Y-17560484D02*
X18222444Y-17570008D01*
X18222444Y-17570008D02*
X18231968Y-17579531D01*
X18231968Y-17579531D02*
X18241491Y-17598579D01*
X18241491Y-17598579D02*
X18251015Y-17636674D01*
X18251015Y-17636674D02*
X18251015Y-17684293D01*
X18251015Y-17684293D02*
X18241491Y-17722389D01*
X18241491Y-17722389D02*
X18231968Y-17741436D01*
X18231968Y-17741436D02*
X18222444Y-17750960D01*
X18222444Y-17750960D02*
X18203396Y-17760484D01*
X18203396Y-17760484D02*
X18184348Y-17760484D01*
X18184348Y-17760484D02*
X18165301Y-17750960D01*
X18165301Y-17750960D02*
X18155777Y-17741436D01*
X18155777Y-17741436D02*
X18146253Y-17722389D01*
X18146253Y-17722389D02*
X18136729Y-17684293D01*
X18136729Y-17684293D02*
X18136729Y-17636674D01*
X18136729Y-17636674D02*
X18146253Y-17598579D01*
X18146253Y-17598579D02*
X18155777Y-17579531D01*
X18155777Y-17579531D02*
X18165301Y-17570008D01*
X18165301Y-17570008D02*
X18184348Y-17560484D01*
X18317682Y-17560484D02*
X18451015Y-17560484D01*
X18451015Y-17560484D02*
X18365301Y-17760484D01*
X18565301Y-17560484D02*
X18584349Y-17560484D01*
X18584349Y-17560484D02*
X18603396Y-17570008D01*
X18603396Y-17570008D02*
X18612920Y-17579531D01*
X18612920Y-17579531D02*
X18622444Y-17598579D01*
X18622444Y-17598579D02*
X18631968Y-17636674D01*
X18631968Y-17636674D02*
X18631968Y-17684293D01*
X18631968Y-17684293D02*
X18622444Y-17722389D01*
X18622444Y-17722389D02*
X18612920Y-17741436D01*
X18612920Y-17741436D02*
X18603396Y-17750960D01*
X18603396Y-17750960D02*
X18584349Y-17760484D01*
X18584349Y-17760484D02*
X18565301Y-17760484D01*
X18565301Y-17760484D02*
X18546253Y-17750960D01*
X18546253Y-17750960D02*
X18536729Y-17741436D01*
X18536729Y-17741436D02*
X18527206Y-17722389D01*
X18527206Y-17722389D02*
X18517682Y-17684293D01*
X18517682Y-17684293D02*
X18517682Y-17636674D01*
X18517682Y-17636674D02*
X18527206Y-17598579D01*
X18527206Y-17598579D02*
X18536729Y-17579531D01*
X18536729Y-17579531D02*
X18546253Y-17570008D01*
X18546253Y-17570008D02*
X18565301Y-17560484D01*
X18822444Y-17760484D02*
X18708158Y-17760484D01*
X18765301Y-17760484D02*
X18765301Y-17560484D01*
X18765301Y-17560484D02*
X18746253Y-17589055D01*
X18746253Y-17589055D02*
X18727206Y-17608103D01*
X18727206Y-17608103D02*
X18708158Y-17617627D01*
X18898634Y-17560484D02*
X18898634Y-17598579D01*
X18974825Y-17560484D02*
X18974825Y-17598579D01*
X19270063Y-17836674D02*
X19260539Y-17827150D01*
X19260539Y-17827150D02*
X19241491Y-17798579D01*
X19241491Y-17798579D02*
X19231968Y-17779531D01*
X19231968Y-17779531D02*
X19222444Y-17750960D01*
X19222444Y-17750960D02*
X19212920Y-17703341D01*
X19212920Y-17703341D02*
X19212920Y-17665246D01*
X19212920Y-17665246D02*
X19222444Y-17617627D01*
X19222444Y-17617627D02*
X19231968Y-17589055D01*
X19231968Y-17589055D02*
X19241491Y-17570008D01*
X19241491Y-17570008D02*
X19260539Y-17541436D01*
X19260539Y-17541436D02*
X19270063Y-17531912D01*
X19374825Y-17646198D02*
X19355777Y-17636674D01*
X19355777Y-17636674D02*
X19346253Y-17627150D01*
X19346253Y-17627150D02*
X19336730Y-17608103D01*
X19336730Y-17608103D02*
X19336730Y-17598579D01*
X19336730Y-17598579D02*
X19346253Y-17579531D01*
X19346253Y-17579531D02*
X19355777Y-17570008D01*
X19355777Y-17570008D02*
X19374825Y-17560484D01*
X19374825Y-17560484D02*
X19412920Y-17560484D01*
X19412920Y-17560484D02*
X19431968Y-17570008D01*
X19431968Y-17570008D02*
X19441491Y-17579531D01*
X19441491Y-17579531D02*
X19451015Y-17598579D01*
X19451015Y-17598579D02*
X19451015Y-17608103D01*
X19451015Y-17608103D02*
X19441491Y-17627150D01*
X19441491Y-17627150D02*
X19431968Y-17636674D01*
X19431968Y-17636674D02*
X19412920Y-17646198D01*
X19412920Y-17646198D02*
X19374825Y-17646198D01*
X19374825Y-17646198D02*
X19355777Y-17655722D01*
X19355777Y-17655722D02*
X19346253Y-17665246D01*
X19346253Y-17665246D02*
X19336730Y-17684293D01*
X19336730Y-17684293D02*
X19336730Y-17722389D01*
X19336730Y-17722389D02*
X19346253Y-17741436D01*
X19346253Y-17741436D02*
X19355777Y-17750960D01*
X19355777Y-17750960D02*
X19374825Y-17760484D01*
X19374825Y-17760484D02*
X19412920Y-17760484D01*
X19412920Y-17760484D02*
X19431968Y-17750960D01*
X19431968Y-17750960D02*
X19441491Y-17741436D01*
X19441491Y-17741436D02*
X19451015Y-17722389D01*
X19451015Y-17722389D02*
X19451015Y-17684293D01*
X19451015Y-17684293D02*
X19441491Y-17665246D01*
X19441491Y-17665246D02*
X19431968Y-17655722D01*
X19431968Y-17655722D02*
X19412920Y-17646198D01*
X19689111Y-17760484D02*
X19689111Y-17560484D01*
X19774825Y-17760484D02*
X19774825Y-17655722D01*
X19774825Y-17655722D02*
X19765301Y-17636674D01*
X19765301Y-17636674D02*
X19746253Y-17627150D01*
X19746253Y-17627150D02*
X19717682Y-17627150D01*
X19717682Y-17627150D02*
X19698634Y-17636674D01*
X19698634Y-17636674D02*
X19689111Y-17646198D01*
X19898634Y-17760484D02*
X19879587Y-17750960D01*
X19879587Y-17750960D02*
X19870063Y-17741436D01*
X19870063Y-17741436D02*
X19860539Y-17722389D01*
X19860539Y-17722389D02*
X19860539Y-17665246D01*
X19860539Y-17665246D02*
X19870063Y-17646198D01*
X19870063Y-17646198D02*
X19879587Y-17636674D01*
X19879587Y-17636674D02*
X19898634Y-17627150D01*
X19898634Y-17627150D02*
X19927206Y-17627150D01*
X19927206Y-17627150D02*
X19946253Y-17636674D01*
X19946253Y-17636674D02*
X19955777Y-17646198D01*
X19955777Y-17646198D02*
X19965301Y-17665246D01*
X19965301Y-17665246D02*
X19965301Y-17722389D01*
X19965301Y-17722389D02*
X19955777Y-17741436D01*
X19955777Y-17741436D02*
X19946253Y-17750960D01*
X19946253Y-17750960D02*
X19927206Y-17760484D01*
X19927206Y-17760484D02*
X19898634Y-17760484D01*
X20079587Y-17760484D02*
X20060539Y-17750960D01*
X20060539Y-17750960D02*
X20051015Y-17731912D01*
X20051015Y-17731912D02*
X20051015Y-17560484D01*
X20231968Y-17750960D02*
X20212920Y-17760484D01*
X20212920Y-17760484D02*
X20174825Y-17760484D01*
X20174825Y-17760484D02*
X20155777Y-17750960D01*
X20155777Y-17750960D02*
X20146253Y-17731912D01*
X20146253Y-17731912D02*
X20146253Y-17655722D01*
X20146253Y-17655722D02*
X20155777Y-17636674D01*
X20155777Y-17636674D02*
X20174825Y-17627150D01*
X20174825Y-17627150D02*
X20212920Y-17627150D01*
X20212920Y-17627150D02*
X20231968Y-17636674D01*
X20231968Y-17636674D02*
X20241492Y-17655722D01*
X20241492Y-17655722D02*
X20241492Y-17674770D01*
X20241492Y-17674770D02*
X20146253Y-17693817D01*
X20317682Y-17750960D02*
X20336730Y-17760484D01*
X20336730Y-17760484D02*
X20374825Y-17760484D01*
X20374825Y-17760484D02*
X20393873Y-17750960D01*
X20393873Y-17750960D02*
X20403396Y-17731912D01*
X20403396Y-17731912D02*
X20403396Y-17722389D01*
X20403396Y-17722389D02*
X20393873Y-17703341D01*
X20393873Y-17703341D02*
X20374825Y-17693817D01*
X20374825Y-17693817D02*
X20346253Y-17693817D01*
X20346253Y-17693817D02*
X20327206Y-17684293D01*
X20327206Y-17684293D02*
X20317682Y-17665246D01*
X20317682Y-17665246D02*
X20317682Y-17655722D01*
X20317682Y-17655722D02*
X20327206Y-17636674D01*
X20327206Y-17636674D02*
X20346253Y-17627150D01*
X20346253Y-17627150D02*
X20374825Y-17627150D01*
X20374825Y-17627150D02*
X20393873Y-17636674D01*
X20470063Y-17836674D02*
X20479587Y-17827150D01*
X20479587Y-17827150D02*
X20498634Y-17798579D01*
X20498634Y-17798579D02*
X20508158Y-17779531D01*
X20508158Y-17779531D02*
X20517682Y-17750960D01*
X20517682Y-17750960D02*
X20527206Y-17703341D01*
X20527206Y-17703341D02*
X20527206Y-17665246D01*
X20527206Y-17665246D02*
X20517682Y-17617627D01*
X20517682Y-17617627D02*
X20508158Y-17589055D01*
X20508158Y-17589055D02*
X20498634Y-17570008D01*
X20498634Y-17570008D02*
X20479587Y-17541436D01*
X20479587Y-17541436D02*
X20470063Y-17531912D01*
X15495000Y-17867000D02*
X15695000Y-18067000D01*
X15695000Y-17867000D02*
X15495000Y-18067000D01*
X15595000Y-18067000D02*
X15695000Y-17967000D01*
X15595000Y-17867000D01*
X15495000Y-17967000D01*
X15595000Y-18067000D01*
X15936729Y-17858484D02*
X16060539Y-17858484D01*
X16060539Y-17858484D02*
X15993872Y-17934674D01*
X15993872Y-17934674D02*
X16022443Y-17934674D01*
X16022443Y-17934674D02*
X16041491Y-17944198D01*
X16041491Y-17944198D02*
X16051015Y-17953722D01*
X16051015Y-17953722D02*
X16060539Y-17972770D01*
X16060539Y-17972770D02*
X16060539Y-18020389D01*
X16060539Y-18020389D02*
X16051015Y-18039436D01*
X16051015Y-18039436D02*
X16041491Y-18048960D01*
X16041491Y-18048960D02*
X16022443Y-18058484D01*
X16022443Y-18058484D02*
X15965301Y-18058484D01*
X15965301Y-18058484D02*
X15946253Y-18048960D01*
X15946253Y-18048960D02*
X15936729Y-18039436D01*
X16146253Y-18039436D02*
X16155777Y-18048960D01*
X16155777Y-18048960D02*
X16146253Y-18058484D01*
X16146253Y-18058484D02*
X16136729Y-18048960D01*
X16136729Y-18048960D02*
X16146253Y-18039436D01*
X16146253Y-18039436D02*
X16146253Y-18058484D01*
X16231967Y-17877531D02*
X16241491Y-17868008D01*
X16241491Y-17868008D02*
X16260539Y-17858484D01*
X16260539Y-17858484D02*
X16308158Y-17858484D01*
X16308158Y-17858484D02*
X16327205Y-17868008D01*
X16327205Y-17868008D02*
X16336729Y-17877531D01*
X16336729Y-17877531D02*
X16346253Y-17896579D01*
X16346253Y-17896579D02*
X16346253Y-17915627D01*
X16346253Y-17915627D02*
X16336729Y-17944198D01*
X16336729Y-17944198D02*
X16222443Y-18058484D01*
X16222443Y-18058484D02*
X16346253Y-18058484D01*
X16470062Y-17858484D02*
X16489110Y-17858484D01*
X16489110Y-17858484D02*
X16508158Y-17868008D01*
X16508158Y-17868008D02*
X16517682Y-17877531D01*
X16517682Y-17877531D02*
X16527205Y-17896579D01*
X16527205Y-17896579D02*
X16536729Y-17934674D01*
X16536729Y-17934674D02*
X16536729Y-17982293D01*
X16536729Y-17982293D02*
X16527205Y-18020389D01*
X16527205Y-18020389D02*
X16517682Y-18039436D01*
X16517682Y-18039436D02*
X16508158Y-18048960D01*
X16508158Y-18048960D02*
X16489110Y-18058484D01*
X16489110Y-18058484D02*
X16470062Y-18058484D01*
X16470062Y-18058484D02*
X16451015Y-18048960D01*
X16451015Y-18048960D02*
X16441491Y-18039436D01*
X16441491Y-18039436D02*
X16431967Y-18020389D01*
X16431967Y-18020389D02*
X16422443Y-17982293D01*
X16422443Y-17982293D02*
X16422443Y-17934674D01*
X16422443Y-17934674D02*
X16431967Y-17896579D01*
X16431967Y-17896579D02*
X16441491Y-17877531D01*
X16441491Y-17877531D02*
X16451015Y-17868008D01*
X16451015Y-17868008D02*
X16470062Y-17858484D01*
X16660539Y-17858484D02*
X16679586Y-17858484D01*
X16679586Y-17858484D02*
X16698634Y-17868008D01*
X16698634Y-17868008D02*
X16708158Y-17877531D01*
X16708158Y-17877531D02*
X16717682Y-17896579D01*
X16717682Y-17896579D02*
X16727205Y-17934674D01*
X16727205Y-17934674D02*
X16727205Y-17982293D01*
X16727205Y-17982293D02*
X16717682Y-18020389D01*
X16717682Y-18020389D02*
X16708158Y-18039436D01*
X16708158Y-18039436D02*
X16698634Y-18048960D01*
X16698634Y-18048960D02*
X16679586Y-18058484D01*
X16679586Y-18058484D02*
X16660539Y-18058484D01*
X16660539Y-18058484D02*
X16641491Y-18048960D01*
X16641491Y-18048960D02*
X16631967Y-18039436D01*
X16631967Y-18039436D02*
X16622443Y-18020389D01*
X16622443Y-18020389D02*
X16612920Y-17982293D01*
X16612920Y-17982293D02*
X16612920Y-17934674D01*
X16612920Y-17934674D02*
X16622443Y-17896579D01*
X16622443Y-17896579D02*
X16631967Y-17877531D01*
X16631967Y-17877531D02*
X16641491Y-17868008D01*
X16641491Y-17868008D02*
X16660539Y-17858484D01*
X16812920Y-18058484D02*
X16812920Y-17925150D01*
X16812920Y-17944198D02*
X16822444Y-17934674D01*
X16822444Y-17934674D02*
X16841491Y-17925150D01*
X16841491Y-17925150D02*
X16870063Y-17925150D01*
X16870063Y-17925150D02*
X16889110Y-17934674D01*
X16889110Y-17934674D02*
X16898634Y-17953722D01*
X16898634Y-17953722D02*
X16898634Y-18058484D01*
X16898634Y-17953722D02*
X16908158Y-17934674D01*
X16908158Y-17934674D02*
X16927205Y-17925150D01*
X16927205Y-17925150D02*
X16955777Y-17925150D01*
X16955777Y-17925150D02*
X16974825Y-17934674D01*
X16974825Y-17934674D02*
X16984348Y-17953722D01*
X16984348Y-17953722D02*
X16984348Y-18058484D01*
X17079586Y-18058484D02*
X17079586Y-17925150D01*
X17079586Y-17944198D02*
X17089110Y-17934674D01*
X17089110Y-17934674D02*
X17108158Y-17925150D01*
X17108158Y-17925150D02*
X17136729Y-17925150D01*
X17136729Y-17925150D02*
X17155777Y-17934674D01*
X17155777Y-17934674D02*
X17165301Y-17953722D01*
X17165301Y-17953722D02*
X17165301Y-18058484D01*
X17165301Y-17953722D02*
X17174825Y-17934674D01*
X17174825Y-17934674D02*
X17193872Y-17925150D01*
X17193872Y-17925150D02*
X17222444Y-17925150D01*
X17222444Y-17925150D02*
X17241491Y-17934674D01*
X17241491Y-17934674D02*
X17251015Y-17953722D01*
X17251015Y-17953722D02*
X17251015Y-18058484D01*
X17641491Y-17848960D02*
X17470063Y-18106103D01*
X17898634Y-17858484D02*
X17917682Y-17858484D01*
X17917682Y-17858484D02*
X17936729Y-17868008D01*
X17936729Y-17868008D02*
X17946253Y-17877531D01*
X17946253Y-17877531D02*
X17955777Y-17896579D01*
X17955777Y-17896579D02*
X17965301Y-17934674D01*
X17965301Y-17934674D02*
X17965301Y-17982293D01*
X17965301Y-17982293D02*
X17955777Y-18020389D01*
X17955777Y-18020389D02*
X17946253Y-18039436D01*
X17946253Y-18039436D02*
X17936729Y-18048960D01*
X17936729Y-18048960D02*
X17917682Y-18058484D01*
X17917682Y-18058484D02*
X17898634Y-18058484D01*
X17898634Y-18058484D02*
X17879587Y-18048960D01*
X17879587Y-18048960D02*
X17870063Y-18039436D01*
X17870063Y-18039436D02*
X17860539Y-18020389D01*
X17860539Y-18020389D02*
X17851015Y-17982293D01*
X17851015Y-17982293D02*
X17851015Y-17934674D01*
X17851015Y-17934674D02*
X17860539Y-17896579D01*
X17860539Y-17896579D02*
X17870063Y-17877531D01*
X17870063Y-17877531D02*
X17879587Y-17868008D01*
X17879587Y-17868008D02*
X17898634Y-17858484D01*
X18051015Y-18039436D02*
X18060539Y-18048960D01*
X18060539Y-18048960D02*
X18051015Y-18058484D01*
X18051015Y-18058484D02*
X18041491Y-18048960D01*
X18041491Y-18048960D02*
X18051015Y-18039436D01*
X18051015Y-18039436D02*
X18051015Y-18058484D01*
X18251015Y-18058484D02*
X18136729Y-18058484D01*
X18193872Y-18058484D02*
X18193872Y-17858484D01*
X18193872Y-17858484D02*
X18174825Y-17887055D01*
X18174825Y-17887055D02*
X18155777Y-17906103D01*
X18155777Y-17906103D02*
X18136729Y-17915627D01*
X18327206Y-17877531D02*
X18336729Y-17868008D01*
X18336729Y-17868008D02*
X18355777Y-17858484D01*
X18355777Y-17858484D02*
X18403396Y-17858484D01*
X18403396Y-17858484D02*
X18422444Y-17868008D01*
X18422444Y-17868008D02*
X18431968Y-17877531D01*
X18431968Y-17877531D02*
X18441491Y-17896579D01*
X18441491Y-17896579D02*
X18441491Y-17915627D01*
X18441491Y-17915627D02*
X18431968Y-17944198D01*
X18431968Y-17944198D02*
X18317682Y-18058484D01*
X18317682Y-18058484D02*
X18441491Y-18058484D01*
X18612920Y-17858484D02*
X18574825Y-17858484D01*
X18574825Y-17858484D02*
X18555777Y-17868008D01*
X18555777Y-17868008D02*
X18546253Y-17877531D01*
X18546253Y-17877531D02*
X18527206Y-17906103D01*
X18527206Y-17906103D02*
X18517682Y-17944198D01*
X18517682Y-17944198D02*
X18517682Y-18020389D01*
X18517682Y-18020389D02*
X18527206Y-18039436D01*
X18527206Y-18039436D02*
X18536729Y-18048960D01*
X18536729Y-18048960D02*
X18555777Y-18058484D01*
X18555777Y-18058484D02*
X18593872Y-18058484D01*
X18593872Y-18058484D02*
X18612920Y-18048960D01*
X18612920Y-18048960D02*
X18622444Y-18039436D01*
X18622444Y-18039436D02*
X18631968Y-18020389D01*
X18631968Y-18020389D02*
X18631968Y-17972770D01*
X18631968Y-17972770D02*
X18622444Y-17953722D01*
X18622444Y-17953722D02*
X18612920Y-17944198D01*
X18612920Y-17944198D02*
X18593872Y-17934674D01*
X18593872Y-17934674D02*
X18555777Y-17934674D01*
X18555777Y-17934674D02*
X18536729Y-17944198D01*
X18536729Y-17944198D02*
X18527206Y-17953722D01*
X18527206Y-17953722D02*
X18517682Y-17972770D01*
X18755777Y-17858484D02*
X18774825Y-17858484D01*
X18774825Y-17858484D02*
X18793872Y-17868008D01*
X18793872Y-17868008D02*
X18803396Y-17877531D01*
X18803396Y-17877531D02*
X18812920Y-17896579D01*
X18812920Y-17896579D02*
X18822444Y-17934674D01*
X18822444Y-17934674D02*
X18822444Y-17982293D01*
X18822444Y-17982293D02*
X18812920Y-18020389D01*
X18812920Y-18020389D02*
X18803396Y-18039436D01*
X18803396Y-18039436D02*
X18793872Y-18048960D01*
X18793872Y-18048960D02*
X18774825Y-18058484D01*
X18774825Y-18058484D02*
X18755777Y-18058484D01*
X18755777Y-18058484D02*
X18736729Y-18048960D01*
X18736729Y-18048960D02*
X18727206Y-18039436D01*
X18727206Y-18039436D02*
X18717682Y-18020389D01*
X18717682Y-18020389D02*
X18708158Y-17982293D01*
X18708158Y-17982293D02*
X18708158Y-17934674D01*
X18708158Y-17934674D02*
X18717682Y-17896579D01*
X18717682Y-17896579D02*
X18727206Y-17877531D01*
X18727206Y-17877531D02*
X18736729Y-17868008D01*
X18736729Y-17868008D02*
X18755777Y-17858484D01*
X18898634Y-17858484D02*
X18898634Y-17896579D01*
X18974825Y-17858484D02*
X18974825Y-17896579D01*
X19270063Y-18134674D02*
X19260539Y-18125150D01*
X19260539Y-18125150D02*
X19241491Y-18096579D01*
X19241491Y-18096579D02*
X19231968Y-18077531D01*
X19231968Y-18077531D02*
X19222444Y-18048960D01*
X19222444Y-18048960D02*
X19212920Y-18001341D01*
X19212920Y-18001341D02*
X19212920Y-17963246D01*
X19212920Y-17963246D02*
X19222444Y-17915627D01*
X19222444Y-17915627D02*
X19231968Y-17887055D01*
X19231968Y-17887055D02*
X19241491Y-17868008D01*
X19241491Y-17868008D02*
X19260539Y-17839436D01*
X19260539Y-17839436D02*
X19270063Y-17829912D01*
X19327206Y-17858484D02*
X19451015Y-17858484D01*
X19451015Y-17858484D02*
X19384349Y-17934674D01*
X19384349Y-17934674D02*
X19412920Y-17934674D01*
X19412920Y-17934674D02*
X19431968Y-17944198D01*
X19431968Y-17944198D02*
X19441491Y-17953722D01*
X19441491Y-17953722D02*
X19451015Y-17972770D01*
X19451015Y-17972770D02*
X19451015Y-18020389D01*
X19451015Y-18020389D02*
X19441491Y-18039436D01*
X19441491Y-18039436D02*
X19431968Y-18048960D01*
X19431968Y-18048960D02*
X19412920Y-18058484D01*
X19412920Y-18058484D02*
X19355777Y-18058484D01*
X19355777Y-18058484D02*
X19336730Y-18048960D01*
X19336730Y-18048960D02*
X19327206Y-18039436D01*
X19689111Y-18058484D02*
X19689111Y-17858484D01*
X19774825Y-18058484D02*
X19774825Y-17953722D01*
X19774825Y-17953722D02*
X19765301Y-17934674D01*
X19765301Y-17934674D02*
X19746253Y-17925150D01*
X19746253Y-17925150D02*
X19717682Y-17925150D01*
X19717682Y-17925150D02*
X19698634Y-17934674D01*
X19698634Y-17934674D02*
X19689111Y-17944198D01*
X19898634Y-18058484D02*
X19879587Y-18048960D01*
X19879587Y-18048960D02*
X19870063Y-18039436D01*
X19870063Y-18039436D02*
X19860539Y-18020389D01*
X19860539Y-18020389D02*
X19860539Y-17963246D01*
X19860539Y-17963246D02*
X19870063Y-17944198D01*
X19870063Y-17944198D02*
X19879587Y-17934674D01*
X19879587Y-17934674D02*
X19898634Y-17925150D01*
X19898634Y-17925150D02*
X19927206Y-17925150D01*
X19927206Y-17925150D02*
X19946253Y-17934674D01*
X19946253Y-17934674D02*
X19955777Y-17944198D01*
X19955777Y-17944198D02*
X19965301Y-17963246D01*
X19965301Y-17963246D02*
X19965301Y-18020389D01*
X19965301Y-18020389D02*
X19955777Y-18039436D01*
X19955777Y-18039436D02*
X19946253Y-18048960D01*
X19946253Y-18048960D02*
X19927206Y-18058484D01*
X19927206Y-18058484D02*
X19898634Y-18058484D01*
X20079587Y-18058484D02*
X20060539Y-18048960D01*
X20060539Y-18048960D02*
X20051015Y-18029912D01*
X20051015Y-18029912D02*
X20051015Y-17858484D01*
X20231968Y-18048960D02*
X20212920Y-18058484D01*
X20212920Y-18058484D02*
X20174825Y-18058484D01*
X20174825Y-18058484D02*
X20155777Y-18048960D01*
X20155777Y-18048960D02*
X20146253Y-18029912D01*
X20146253Y-18029912D02*
X20146253Y-17953722D01*
X20146253Y-17953722D02*
X20155777Y-17934674D01*
X20155777Y-17934674D02*
X20174825Y-17925150D01*
X20174825Y-17925150D02*
X20212920Y-17925150D01*
X20212920Y-17925150D02*
X20231968Y-17934674D01*
X20231968Y-17934674D02*
X20241492Y-17953722D01*
X20241492Y-17953722D02*
X20241492Y-17972770D01*
X20241492Y-17972770D02*
X20146253Y-17991817D01*
X20317682Y-18048960D02*
X20336730Y-18058484D01*
X20336730Y-18058484D02*
X20374825Y-18058484D01*
X20374825Y-18058484D02*
X20393873Y-18048960D01*
X20393873Y-18048960D02*
X20403396Y-18029912D01*
X20403396Y-18029912D02*
X20403396Y-18020389D01*
X20403396Y-18020389D02*
X20393873Y-18001341D01*
X20393873Y-18001341D02*
X20374825Y-17991817D01*
X20374825Y-17991817D02*
X20346253Y-17991817D01*
X20346253Y-17991817D02*
X20327206Y-17982293D01*
X20327206Y-17982293D02*
X20317682Y-17963246D01*
X20317682Y-17963246D02*
X20317682Y-17953722D01*
X20317682Y-17953722D02*
X20327206Y-17934674D01*
X20327206Y-17934674D02*
X20346253Y-17925150D01*
X20346253Y-17925150D02*
X20374825Y-17925150D01*
X20374825Y-17925150D02*
X20393873Y-17934674D01*
X20470063Y-18134674D02*
X20479587Y-18125150D01*
X20479587Y-18125150D02*
X20498634Y-18096579D01*
X20498634Y-18096579D02*
X20508158Y-18077531D01*
X20508158Y-18077531D02*
X20517682Y-18048960D01*
X20517682Y-18048960D02*
X20527206Y-18001341D01*
X20527206Y-18001341D02*
X20527206Y-17963246D01*
X20527206Y-17963246D02*
X20517682Y-17915627D01*
X20517682Y-17915627D02*
X20508158Y-17887055D01*
X20508158Y-17887055D02*
X20498634Y-17868008D01*
X20498634Y-17868008D02*
X20479587Y-17839436D01*
X20479587Y-17839436D02*
X20470063Y-17829912D01*
M02*
