%TF.GenerationSoftware,KiCad,Pcbnew,8.0.3*%
%TF.CreationDate,2024-06-13T00:54:22+02:00*%
%TF.ProjectId,pwm-ctrl,70776d2d-6374-4726-9c2e-6b696361645f,1*%
%TF.SameCoordinates,Original*%
%TF.FileFunction,Legend,Top*%
%TF.FilePolarity,Positive*%
%FSLAX46Y46*%
G04 Gerber Fmt 4.6, Leading zero omitted, Abs format (unit mm)*
G04 Created by KiCad (PCBNEW 8.0.3) date 2024-06-13 00:54:22*
%MOMM*%
%LPD*%
G01*
G04 APERTURE LIST*
%ADD10C,0.150000*%
%ADD11C,0.100000*%
%ADD12C,0.120000*%
G04 APERTURE END LIST*
D10*
X159000000Y-111750000D02*
X162000000Y-112000000D01*
X158750000Y-111250000D02*
X159000000Y-111750000D01*
X162000000Y-112000000D02*
X162433000Y-112820000D01*
X158155819Y-128284266D02*
X157679628Y-128617599D01*
X158155819Y-128855694D02*
X157155819Y-128855694D01*
X157155819Y-128855694D02*
X157155819Y-128474742D01*
X157155819Y-128474742D02*
X157203438Y-128379504D01*
X157203438Y-128379504D02*
X157251057Y-128331885D01*
X157251057Y-128331885D02*
X157346295Y-128284266D01*
X157346295Y-128284266D02*
X157489152Y-128284266D01*
X157489152Y-128284266D02*
X157584390Y-128331885D01*
X157584390Y-128331885D02*
X157632009Y-128379504D01*
X157632009Y-128379504D02*
X157679628Y-128474742D01*
X157679628Y-128474742D02*
X157679628Y-128855694D01*
X157155819Y-127379504D02*
X157155819Y-127855694D01*
X157155819Y-127855694D02*
X157632009Y-127903313D01*
X157632009Y-127903313D02*
X157584390Y-127855694D01*
X157584390Y-127855694D02*
X157536771Y-127760456D01*
X157536771Y-127760456D02*
X157536771Y-127522361D01*
X157536771Y-127522361D02*
X157584390Y-127427123D01*
X157584390Y-127427123D02*
X157632009Y-127379504D01*
X157632009Y-127379504D02*
X157727247Y-127331885D01*
X157727247Y-127331885D02*
X157965342Y-127331885D01*
X157965342Y-127331885D02*
X158060580Y-127379504D01*
X158060580Y-127379504D02*
X158108200Y-127427123D01*
X158108200Y-127427123D02*
X158155819Y-127522361D01*
X158155819Y-127522361D02*
X158155819Y-127760456D01*
X158155819Y-127760456D02*
X158108200Y-127855694D01*
X158108200Y-127855694D02*
X158060580Y-127903313D01*
X171957142Y-135259580D02*
X171909523Y-135307200D01*
X171909523Y-135307200D02*
X171766666Y-135354819D01*
X171766666Y-135354819D02*
X171671428Y-135354819D01*
X171671428Y-135354819D02*
X171528571Y-135307200D01*
X171528571Y-135307200D02*
X171433333Y-135211961D01*
X171433333Y-135211961D02*
X171385714Y-135116723D01*
X171385714Y-135116723D02*
X171338095Y-134926247D01*
X171338095Y-134926247D02*
X171338095Y-134783390D01*
X171338095Y-134783390D02*
X171385714Y-134592914D01*
X171385714Y-134592914D02*
X171433333Y-134497676D01*
X171433333Y-134497676D02*
X171528571Y-134402438D01*
X171528571Y-134402438D02*
X171671428Y-134354819D01*
X171671428Y-134354819D02*
X171766666Y-134354819D01*
X171766666Y-134354819D02*
X171909523Y-134402438D01*
X171909523Y-134402438D02*
X171957142Y-134450057D01*
X172909523Y-135354819D02*
X172338095Y-135354819D01*
X172623809Y-135354819D02*
X172623809Y-134354819D01*
X172623809Y-134354819D02*
X172528571Y-134497676D01*
X172528571Y-134497676D02*
X172433333Y-134592914D01*
X172433333Y-134592914D02*
X172338095Y-134640533D01*
X173861904Y-135354819D02*
X173290476Y-135354819D01*
X173576190Y-135354819D02*
X173576190Y-134354819D01*
X173576190Y-134354819D02*
X173480952Y-134497676D01*
X173480952Y-134497676D02*
X173385714Y-134592914D01*
X173385714Y-134592914D02*
X173290476Y-134640533D01*
X170569580Y-130536666D02*
X170617200Y-130584285D01*
X170617200Y-130584285D02*
X170664819Y-130727142D01*
X170664819Y-130727142D02*
X170664819Y-130822380D01*
X170664819Y-130822380D02*
X170617200Y-130965237D01*
X170617200Y-130965237D02*
X170521961Y-131060475D01*
X170521961Y-131060475D02*
X170426723Y-131108094D01*
X170426723Y-131108094D02*
X170236247Y-131155713D01*
X170236247Y-131155713D02*
X170093390Y-131155713D01*
X170093390Y-131155713D02*
X169902914Y-131108094D01*
X169902914Y-131108094D02*
X169807676Y-131060475D01*
X169807676Y-131060475D02*
X169712438Y-130965237D01*
X169712438Y-130965237D02*
X169664819Y-130822380D01*
X169664819Y-130822380D02*
X169664819Y-130727142D01*
X169664819Y-130727142D02*
X169712438Y-130584285D01*
X169712438Y-130584285D02*
X169760057Y-130536666D01*
X170093390Y-129965237D02*
X170045771Y-130060475D01*
X170045771Y-130060475D02*
X169998152Y-130108094D01*
X169998152Y-130108094D02*
X169902914Y-130155713D01*
X169902914Y-130155713D02*
X169855295Y-130155713D01*
X169855295Y-130155713D02*
X169760057Y-130108094D01*
X169760057Y-130108094D02*
X169712438Y-130060475D01*
X169712438Y-130060475D02*
X169664819Y-129965237D01*
X169664819Y-129965237D02*
X169664819Y-129774761D01*
X169664819Y-129774761D02*
X169712438Y-129679523D01*
X169712438Y-129679523D02*
X169760057Y-129631904D01*
X169760057Y-129631904D02*
X169855295Y-129584285D01*
X169855295Y-129584285D02*
X169902914Y-129584285D01*
X169902914Y-129584285D02*
X169998152Y-129631904D01*
X169998152Y-129631904D02*
X170045771Y-129679523D01*
X170045771Y-129679523D02*
X170093390Y-129774761D01*
X170093390Y-129774761D02*
X170093390Y-129965237D01*
X170093390Y-129965237D02*
X170141009Y-130060475D01*
X170141009Y-130060475D02*
X170188628Y-130108094D01*
X170188628Y-130108094D02*
X170283866Y-130155713D01*
X170283866Y-130155713D02*
X170474342Y-130155713D01*
X170474342Y-130155713D02*
X170569580Y-130108094D01*
X170569580Y-130108094D02*
X170617200Y-130060475D01*
X170617200Y-130060475D02*
X170664819Y-129965237D01*
X170664819Y-129965237D02*
X170664819Y-129774761D01*
X170664819Y-129774761D02*
X170617200Y-129679523D01*
X170617200Y-129679523D02*
X170569580Y-129631904D01*
X170569580Y-129631904D02*
X170474342Y-129584285D01*
X170474342Y-129584285D02*
X170283866Y-129584285D01*
X170283866Y-129584285D02*
X170188628Y-129631904D01*
X170188628Y-129631904D02*
X170141009Y-129679523D01*
X170141009Y-129679523D02*
X170093390Y-129774761D01*
X160869333Y-109928819D02*
X160536000Y-109452628D01*
X160297905Y-109928819D02*
X160297905Y-108928819D01*
X160297905Y-108928819D02*
X160678857Y-108928819D01*
X160678857Y-108928819D02*
X160774095Y-108976438D01*
X160774095Y-108976438D02*
X160821714Y-109024057D01*
X160821714Y-109024057D02*
X160869333Y-109119295D01*
X160869333Y-109119295D02*
X160869333Y-109262152D01*
X160869333Y-109262152D02*
X160821714Y-109357390D01*
X160821714Y-109357390D02*
X160774095Y-109405009D01*
X160774095Y-109405009D02*
X160678857Y-109452628D01*
X160678857Y-109452628D02*
X160297905Y-109452628D01*
X161821714Y-109928819D02*
X161250286Y-109928819D01*
X161536000Y-109928819D02*
X161536000Y-108928819D01*
X161536000Y-108928819D02*
X161440762Y-109071676D01*
X161440762Y-109071676D02*
X161345524Y-109166914D01*
X161345524Y-109166914D02*
X161250286Y-109214533D01*
X184583333Y-120954819D02*
X184107143Y-120954819D01*
X184107143Y-120954819D02*
X184107143Y-119954819D01*
X185440476Y-120954819D02*
X184869048Y-120954819D01*
X185154762Y-120954819D02*
X185154762Y-119954819D01*
X185154762Y-119954819D02*
X185059524Y-120097676D01*
X185059524Y-120097676D02*
X184964286Y-120192914D01*
X184964286Y-120192914D02*
X184869048Y-120240533D01*
X158106009Y-117258333D02*
X158106009Y-117591666D01*
X158629819Y-117591666D02*
X157629819Y-117591666D01*
X157629819Y-117591666D02*
X157629819Y-117115476D01*
X158106009Y-116401190D02*
X158153628Y-116258333D01*
X158153628Y-116258333D02*
X158201247Y-116210714D01*
X158201247Y-116210714D02*
X158296485Y-116163095D01*
X158296485Y-116163095D02*
X158439342Y-116163095D01*
X158439342Y-116163095D02*
X158534580Y-116210714D01*
X158534580Y-116210714D02*
X158582200Y-116258333D01*
X158582200Y-116258333D02*
X158629819Y-116353571D01*
X158629819Y-116353571D02*
X158629819Y-116734523D01*
X158629819Y-116734523D02*
X157629819Y-116734523D01*
X157629819Y-116734523D02*
X157629819Y-116401190D01*
X157629819Y-116401190D02*
X157677438Y-116305952D01*
X157677438Y-116305952D02*
X157725057Y-116258333D01*
X157725057Y-116258333D02*
X157820295Y-116210714D01*
X157820295Y-116210714D02*
X157915533Y-116210714D01*
X157915533Y-116210714D02*
X158010771Y-116258333D01*
X158010771Y-116258333D02*
X158058390Y-116305952D01*
X158058390Y-116305952D02*
X158106009Y-116401190D01*
X158106009Y-116401190D02*
X158106009Y-116734523D01*
X158629819Y-115210714D02*
X158629819Y-115782142D01*
X158629819Y-115496428D02*
X157629819Y-115496428D01*
X157629819Y-115496428D02*
X157772676Y-115591666D01*
X157772676Y-115591666D02*
X157867914Y-115686904D01*
X157867914Y-115686904D02*
X157915533Y-115782142D01*
X160518333Y-128654819D02*
X160185000Y-128178628D01*
X159946905Y-128654819D02*
X159946905Y-127654819D01*
X159946905Y-127654819D02*
X160327857Y-127654819D01*
X160327857Y-127654819D02*
X160423095Y-127702438D01*
X160423095Y-127702438D02*
X160470714Y-127750057D01*
X160470714Y-127750057D02*
X160518333Y-127845295D01*
X160518333Y-127845295D02*
X160518333Y-127988152D01*
X160518333Y-127988152D02*
X160470714Y-128083390D01*
X160470714Y-128083390D02*
X160423095Y-128131009D01*
X160423095Y-128131009D02*
X160327857Y-128178628D01*
X160327857Y-128178628D02*
X159946905Y-128178628D01*
X161375476Y-127654819D02*
X161185000Y-127654819D01*
X161185000Y-127654819D02*
X161089762Y-127702438D01*
X161089762Y-127702438D02*
X161042143Y-127750057D01*
X161042143Y-127750057D02*
X160946905Y-127892914D01*
X160946905Y-127892914D02*
X160899286Y-128083390D01*
X160899286Y-128083390D02*
X160899286Y-128464342D01*
X160899286Y-128464342D02*
X160946905Y-128559580D01*
X160946905Y-128559580D02*
X160994524Y-128607200D01*
X160994524Y-128607200D02*
X161089762Y-128654819D01*
X161089762Y-128654819D02*
X161280238Y-128654819D01*
X161280238Y-128654819D02*
X161375476Y-128607200D01*
X161375476Y-128607200D02*
X161423095Y-128559580D01*
X161423095Y-128559580D02*
X161470714Y-128464342D01*
X161470714Y-128464342D02*
X161470714Y-128226247D01*
X161470714Y-128226247D02*
X161423095Y-128131009D01*
X161423095Y-128131009D02*
X161375476Y-128083390D01*
X161375476Y-128083390D02*
X161280238Y-128035771D01*
X161280238Y-128035771D02*
X161089762Y-128035771D01*
X161089762Y-128035771D02*
X160994524Y-128083390D01*
X160994524Y-128083390D02*
X160946905Y-128131009D01*
X160946905Y-128131009D02*
X160899286Y-128226247D01*
X189924819Y-131806666D02*
X189448628Y-132139999D01*
X189924819Y-132378094D02*
X188924819Y-132378094D01*
X188924819Y-132378094D02*
X188924819Y-131997142D01*
X188924819Y-131997142D02*
X188972438Y-131901904D01*
X188972438Y-131901904D02*
X189020057Y-131854285D01*
X189020057Y-131854285D02*
X189115295Y-131806666D01*
X189115295Y-131806666D02*
X189258152Y-131806666D01*
X189258152Y-131806666D02*
X189353390Y-131854285D01*
X189353390Y-131854285D02*
X189401009Y-131901904D01*
X189401009Y-131901904D02*
X189448628Y-131997142D01*
X189448628Y-131997142D02*
X189448628Y-132378094D01*
X189924819Y-131330475D02*
X189924819Y-131139999D01*
X189924819Y-131139999D02*
X189877200Y-131044761D01*
X189877200Y-131044761D02*
X189829580Y-130997142D01*
X189829580Y-130997142D02*
X189686723Y-130901904D01*
X189686723Y-130901904D02*
X189496247Y-130854285D01*
X189496247Y-130854285D02*
X189115295Y-130854285D01*
X189115295Y-130854285D02*
X189020057Y-130901904D01*
X189020057Y-130901904D02*
X188972438Y-130949523D01*
X188972438Y-130949523D02*
X188924819Y-131044761D01*
X188924819Y-131044761D02*
X188924819Y-131235237D01*
X188924819Y-131235237D02*
X188972438Y-131330475D01*
X188972438Y-131330475D02*
X189020057Y-131378094D01*
X189020057Y-131378094D02*
X189115295Y-131425713D01*
X189115295Y-131425713D02*
X189353390Y-131425713D01*
X189353390Y-131425713D02*
X189448628Y-131378094D01*
X189448628Y-131378094D02*
X189496247Y-131330475D01*
X189496247Y-131330475D02*
X189543866Y-131235237D01*
X189543866Y-131235237D02*
X189543866Y-131044761D01*
X189543866Y-131044761D02*
X189496247Y-130949523D01*
X189496247Y-130949523D02*
X189448628Y-130901904D01*
X189448628Y-130901904D02*
X189353390Y-130854285D01*
X159357142Y-143959580D02*
X159309523Y-144007200D01*
X159309523Y-144007200D02*
X159166666Y-144054819D01*
X159166666Y-144054819D02*
X159071428Y-144054819D01*
X159071428Y-144054819D02*
X158928571Y-144007200D01*
X158928571Y-144007200D02*
X158833333Y-143911961D01*
X158833333Y-143911961D02*
X158785714Y-143816723D01*
X158785714Y-143816723D02*
X158738095Y-143626247D01*
X158738095Y-143626247D02*
X158738095Y-143483390D01*
X158738095Y-143483390D02*
X158785714Y-143292914D01*
X158785714Y-143292914D02*
X158833333Y-143197676D01*
X158833333Y-143197676D02*
X158928571Y-143102438D01*
X158928571Y-143102438D02*
X159071428Y-143054819D01*
X159071428Y-143054819D02*
X159166666Y-143054819D01*
X159166666Y-143054819D02*
X159309523Y-143102438D01*
X159309523Y-143102438D02*
X159357142Y-143150057D01*
X160309523Y-144054819D02*
X159738095Y-144054819D01*
X160023809Y-144054819D02*
X160023809Y-143054819D01*
X160023809Y-143054819D02*
X159928571Y-143197676D01*
X159928571Y-143197676D02*
X159833333Y-143292914D01*
X159833333Y-143292914D02*
X159738095Y-143340533D01*
X160880952Y-143483390D02*
X160785714Y-143435771D01*
X160785714Y-143435771D02*
X160738095Y-143388152D01*
X160738095Y-143388152D02*
X160690476Y-143292914D01*
X160690476Y-143292914D02*
X160690476Y-143245295D01*
X160690476Y-143245295D02*
X160738095Y-143150057D01*
X160738095Y-143150057D02*
X160785714Y-143102438D01*
X160785714Y-143102438D02*
X160880952Y-143054819D01*
X160880952Y-143054819D02*
X161071428Y-143054819D01*
X161071428Y-143054819D02*
X161166666Y-143102438D01*
X161166666Y-143102438D02*
X161214285Y-143150057D01*
X161214285Y-143150057D02*
X161261904Y-143245295D01*
X161261904Y-143245295D02*
X161261904Y-143292914D01*
X161261904Y-143292914D02*
X161214285Y-143388152D01*
X161214285Y-143388152D02*
X161166666Y-143435771D01*
X161166666Y-143435771D02*
X161071428Y-143483390D01*
X161071428Y-143483390D02*
X160880952Y-143483390D01*
X160880952Y-143483390D02*
X160785714Y-143531009D01*
X160785714Y-143531009D02*
X160738095Y-143578628D01*
X160738095Y-143578628D02*
X160690476Y-143673866D01*
X160690476Y-143673866D02*
X160690476Y-143864342D01*
X160690476Y-143864342D02*
X160738095Y-143959580D01*
X160738095Y-143959580D02*
X160785714Y-144007200D01*
X160785714Y-144007200D02*
X160880952Y-144054819D01*
X160880952Y-144054819D02*
X161071428Y-144054819D01*
X161071428Y-144054819D02*
X161166666Y-144007200D01*
X161166666Y-144007200D02*
X161214285Y-143959580D01*
X161214285Y-143959580D02*
X161261904Y-143864342D01*
X161261904Y-143864342D02*
X161261904Y-143673866D01*
X161261904Y-143673866D02*
X161214285Y-143578628D01*
X161214285Y-143578628D02*
X161166666Y-143531009D01*
X161166666Y-143531009D02*
X161071428Y-143483390D01*
X170769580Y-121736666D02*
X170817200Y-121784285D01*
X170817200Y-121784285D02*
X170864819Y-121927142D01*
X170864819Y-121927142D02*
X170864819Y-122022380D01*
X170864819Y-122022380D02*
X170817200Y-122165237D01*
X170817200Y-122165237D02*
X170721961Y-122260475D01*
X170721961Y-122260475D02*
X170626723Y-122308094D01*
X170626723Y-122308094D02*
X170436247Y-122355713D01*
X170436247Y-122355713D02*
X170293390Y-122355713D01*
X170293390Y-122355713D02*
X170102914Y-122308094D01*
X170102914Y-122308094D02*
X170007676Y-122260475D01*
X170007676Y-122260475D02*
X169912438Y-122165237D01*
X169912438Y-122165237D02*
X169864819Y-122022380D01*
X169864819Y-122022380D02*
X169864819Y-121927142D01*
X169864819Y-121927142D02*
X169912438Y-121784285D01*
X169912438Y-121784285D02*
X169960057Y-121736666D01*
X169864819Y-121403332D02*
X169864819Y-120736666D01*
X169864819Y-120736666D02*
X170864819Y-121165237D01*
X158354819Y-123361904D02*
X159164342Y-123361904D01*
X159164342Y-123361904D02*
X159259580Y-123314285D01*
X159259580Y-123314285D02*
X159307200Y-123266666D01*
X159307200Y-123266666D02*
X159354819Y-123171428D01*
X159354819Y-123171428D02*
X159354819Y-122980952D01*
X159354819Y-122980952D02*
X159307200Y-122885714D01*
X159307200Y-122885714D02*
X159259580Y-122838095D01*
X159259580Y-122838095D02*
X159164342Y-122790476D01*
X159164342Y-122790476D02*
X158354819Y-122790476D01*
X158688152Y-121885714D02*
X159354819Y-121885714D01*
X158307200Y-122123809D02*
X159021485Y-122361904D01*
X159021485Y-122361904D02*
X159021485Y-121742857D01*
X166966666Y-102054819D02*
X166966666Y-102769104D01*
X166966666Y-102769104D02*
X166919047Y-102911961D01*
X166919047Y-102911961D02*
X166823809Y-103007200D01*
X166823809Y-103007200D02*
X166680952Y-103054819D01*
X166680952Y-103054819D02*
X166585714Y-103054819D01*
X167966666Y-103054819D02*
X167395238Y-103054819D01*
X167680952Y-103054819D02*
X167680952Y-102054819D01*
X167680952Y-102054819D02*
X167585714Y-102197676D01*
X167585714Y-102197676D02*
X167490476Y-102292914D01*
X167490476Y-102292914D02*
X167395238Y-102340533D01*
X178585905Y-150274819D02*
X178585905Y-149274819D01*
X178585905Y-149274819D02*
X178824000Y-149274819D01*
X178824000Y-149274819D02*
X178966857Y-149322438D01*
X178966857Y-149322438D02*
X179062095Y-149417676D01*
X179062095Y-149417676D02*
X179109714Y-149512914D01*
X179109714Y-149512914D02*
X179157333Y-149703390D01*
X179157333Y-149703390D02*
X179157333Y-149846247D01*
X179157333Y-149846247D02*
X179109714Y-150036723D01*
X179109714Y-150036723D02*
X179062095Y-150131961D01*
X179062095Y-150131961D02*
X178966857Y-150227200D01*
X178966857Y-150227200D02*
X178824000Y-150274819D01*
X178824000Y-150274819D02*
X178585905Y-150274819D01*
X179490667Y-149274819D02*
X180109714Y-149274819D01*
X180109714Y-149274819D02*
X179776381Y-149655771D01*
X179776381Y-149655771D02*
X179919238Y-149655771D01*
X179919238Y-149655771D02*
X180014476Y-149703390D01*
X180014476Y-149703390D02*
X180062095Y-149751009D01*
X180062095Y-149751009D02*
X180109714Y-149846247D01*
X180109714Y-149846247D02*
X180109714Y-150084342D01*
X180109714Y-150084342D02*
X180062095Y-150179580D01*
X180062095Y-150179580D02*
X180014476Y-150227200D01*
X180014476Y-150227200D02*
X179919238Y-150274819D01*
X179919238Y-150274819D02*
X179633524Y-150274819D01*
X179633524Y-150274819D02*
X179538286Y-150227200D01*
X179538286Y-150227200D02*
X179490667Y-150179580D01*
X183416666Y-143301009D02*
X183083333Y-143301009D01*
X183083333Y-143824819D02*
X183083333Y-142824819D01*
X183083333Y-142824819D02*
X183559523Y-142824819D01*
X183845238Y-142824819D02*
X184464285Y-142824819D01*
X184464285Y-142824819D02*
X184130952Y-143205771D01*
X184130952Y-143205771D02*
X184273809Y-143205771D01*
X184273809Y-143205771D02*
X184369047Y-143253390D01*
X184369047Y-143253390D02*
X184416666Y-143301009D01*
X184416666Y-143301009D02*
X184464285Y-143396247D01*
X184464285Y-143396247D02*
X184464285Y-143634342D01*
X184464285Y-143634342D02*
X184416666Y-143729580D01*
X184416666Y-143729580D02*
X184369047Y-143777200D01*
X184369047Y-143777200D02*
X184273809Y-143824819D01*
X184273809Y-143824819D02*
X183988095Y-143824819D01*
X183988095Y-143824819D02*
X183892857Y-143777200D01*
X183892857Y-143777200D02*
X183845238Y-143729580D01*
X186233333Y-134154819D02*
X185900000Y-133678628D01*
X185661905Y-134154819D02*
X185661905Y-133154819D01*
X185661905Y-133154819D02*
X186042857Y-133154819D01*
X186042857Y-133154819D02*
X186138095Y-133202438D01*
X186138095Y-133202438D02*
X186185714Y-133250057D01*
X186185714Y-133250057D02*
X186233333Y-133345295D01*
X186233333Y-133345295D02*
X186233333Y-133488152D01*
X186233333Y-133488152D02*
X186185714Y-133583390D01*
X186185714Y-133583390D02*
X186138095Y-133631009D01*
X186138095Y-133631009D02*
X186042857Y-133678628D01*
X186042857Y-133678628D02*
X185661905Y-133678628D01*
X186804762Y-133583390D02*
X186709524Y-133535771D01*
X186709524Y-133535771D02*
X186661905Y-133488152D01*
X186661905Y-133488152D02*
X186614286Y-133392914D01*
X186614286Y-133392914D02*
X186614286Y-133345295D01*
X186614286Y-133345295D02*
X186661905Y-133250057D01*
X186661905Y-133250057D02*
X186709524Y-133202438D01*
X186709524Y-133202438D02*
X186804762Y-133154819D01*
X186804762Y-133154819D02*
X186995238Y-133154819D01*
X186995238Y-133154819D02*
X187090476Y-133202438D01*
X187090476Y-133202438D02*
X187138095Y-133250057D01*
X187138095Y-133250057D02*
X187185714Y-133345295D01*
X187185714Y-133345295D02*
X187185714Y-133392914D01*
X187185714Y-133392914D02*
X187138095Y-133488152D01*
X187138095Y-133488152D02*
X187090476Y-133535771D01*
X187090476Y-133535771D02*
X186995238Y-133583390D01*
X186995238Y-133583390D02*
X186804762Y-133583390D01*
X186804762Y-133583390D02*
X186709524Y-133631009D01*
X186709524Y-133631009D02*
X186661905Y-133678628D01*
X186661905Y-133678628D02*
X186614286Y-133773866D01*
X186614286Y-133773866D02*
X186614286Y-133964342D01*
X186614286Y-133964342D02*
X186661905Y-134059580D01*
X186661905Y-134059580D02*
X186709524Y-134107200D01*
X186709524Y-134107200D02*
X186804762Y-134154819D01*
X186804762Y-134154819D02*
X186995238Y-134154819D01*
X186995238Y-134154819D02*
X187090476Y-134107200D01*
X187090476Y-134107200D02*
X187138095Y-134059580D01*
X187138095Y-134059580D02*
X187185714Y-133964342D01*
X187185714Y-133964342D02*
X187185714Y-133773866D01*
X187185714Y-133773866D02*
X187138095Y-133678628D01*
X187138095Y-133678628D02*
X187090476Y-133631009D01*
X187090476Y-133631009D02*
X186995238Y-133583390D01*
D11*
X175167704Y-115703332D02*
X175205800Y-115741428D01*
X175205800Y-115741428D02*
X175243895Y-115855713D01*
X175243895Y-115855713D02*
X175243895Y-115931904D01*
X175243895Y-115931904D02*
X175205800Y-116046190D01*
X175205800Y-116046190D02*
X175129609Y-116122380D01*
X175129609Y-116122380D02*
X175053419Y-116160475D01*
X175053419Y-116160475D02*
X174901038Y-116198571D01*
X174901038Y-116198571D02*
X174786752Y-116198571D01*
X174786752Y-116198571D02*
X174634371Y-116160475D01*
X174634371Y-116160475D02*
X174558180Y-116122380D01*
X174558180Y-116122380D02*
X174481990Y-116046190D01*
X174481990Y-116046190D02*
X174443895Y-115931904D01*
X174443895Y-115931904D02*
X174443895Y-115855713D01*
X174443895Y-115855713D02*
X174481990Y-115741428D01*
X174481990Y-115741428D02*
X174520085Y-115703332D01*
X174443895Y-115436666D02*
X174443895Y-114941428D01*
X174443895Y-114941428D02*
X174748657Y-115208094D01*
X174748657Y-115208094D02*
X174748657Y-115093809D01*
X174748657Y-115093809D02*
X174786752Y-115017618D01*
X174786752Y-115017618D02*
X174824847Y-114979523D01*
X174824847Y-114979523D02*
X174901038Y-114941428D01*
X174901038Y-114941428D02*
X175091514Y-114941428D01*
X175091514Y-114941428D02*
X175167704Y-114979523D01*
X175167704Y-114979523D02*
X175205800Y-115017618D01*
X175205800Y-115017618D02*
X175243895Y-115093809D01*
X175243895Y-115093809D02*
X175243895Y-115322380D01*
X175243895Y-115322380D02*
X175205800Y-115398571D01*
X175205800Y-115398571D02*
X175167704Y-115436666D01*
D10*
X161204819Y-130511904D02*
X162014342Y-130511904D01*
X162014342Y-130511904D02*
X162109580Y-130464285D01*
X162109580Y-130464285D02*
X162157200Y-130416666D01*
X162157200Y-130416666D02*
X162204819Y-130321428D01*
X162204819Y-130321428D02*
X162204819Y-130130952D01*
X162204819Y-130130952D02*
X162157200Y-130035714D01*
X162157200Y-130035714D02*
X162109580Y-129988095D01*
X162109580Y-129988095D02*
X162014342Y-129940476D01*
X162014342Y-129940476D02*
X161204819Y-129940476D01*
X161204819Y-129035714D02*
X161204819Y-129226190D01*
X161204819Y-129226190D02*
X161252438Y-129321428D01*
X161252438Y-129321428D02*
X161300057Y-129369047D01*
X161300057Y-129369047D02*
X161442914Y-129464285D01*
X161442914Y-129464285D02*
X161633390Y-129511904D01*
X161633390Y-129511904D02*
X162014342Y-129511904D01*
X162014342Y-129511904D02*
X162109580Y-129464285D01*
X162109580Y-129464285D02*
X162157200Y-129416666D01*
X162157200Y-129416666D02*
X162204819Y-129321428D01*
X162204819Y-129321428D02*
X162204819Y-129130952D01*
X162204819Y-129130952D02*
X162157200Y-129035714D01*
X162157200Y-129035714D02*
X162109580Y-128988095D01*
X162109580Y-128988095D02*
X162014342Y-128940476D01*
X162014342Y-128940476D02*
X161776247Y-128940476D01*
X161776247Y-128940476D02*
X161681009Y-128988095D01*
X161681009Y-128988095D02*
X161633390Y-129035714D01*
X161633390Y-129035714D02*
X161585771Y-129130952D01*
X161585771Y-129130952D02*
X161585771Y-129321428D01*
X161585771Y-129321428D02*
X161633390Y-129416666D01*
X161633390Y-129416666D02*
X161681009Y-129464285D01*
X161681009Y-129464285D02*
X161776247Y-129511904D01*
X164643333Y-120129580D02*
X164595714Y-120177200D01*
X164595714Y-120177200D02*
X164452857Y-120224819D01*
X164452857Y-120224819D02*
X164357619Y-120224819D01*
X164357619Y-120224819D02*
X164214762Y-120177200D01*
X164214762Y-120177200D02*
X164119524Y-120081961D01*
X164119524Y-120081961D02*
X164071905Y-119986723D01*
X164071905Y-119986723D02*
X164024286Y-119796247D01*
X164024286Y-119796247D02*
X164024286Y-119653390D01*
X164024286Y-119653390D02*
X164071905Y-119462914D01*
X164071905Y-119462914D02*
X164119524Y-119367676D01*
X164119524Y-119367676D02*
X164214762Y-119272438D01*
X164214762Y-119272438D02*
X164357619Y-119224819D01*
X164357619Y-119224819D02*
X164452857Y-119224819D01*
X164452857Y-119224819D02*
X164595714Y-119272438D01*
X164595714Y-119272438D02*
X164643333Y-119320057D01*
X165500476Y-119558152D02*
X165500476Y-120224819D01*
X165262381Y-119177200D02*
X165024286Y-119891485D01*
X165024286Y-119891485D02*
X165643333Y-119891485D01*
X190834819Y-120333333D02*
X191549104Y-120333333D01*
X191549104Y-120333333D02*
X191691961Y-120380952D01*
X191691961Y-120380952D02*
X191787200Y-120476190D01*
X191787200Y-120476190D02*
X191834819Y-120619047D01*
X191834819Y-120619047D02*
X191834819Y-120714285D01*
X191168152Y-119428571D02*
X191834819Y-119428571D01*
X190787200Y-119666666D02*
X191501485Y-119904761D01*
X191501485Y-119904761D02*
X191501485Y-119285714D01*
X164354819Y-144966666D02*
X164354819Y-145442856D01*
X164354819Y-145442856D02*
X163354819Y-145442856D01*
X163450057Y-144680951D02*
X163402438Y-144633332D01*
X163402438Y-144633332D02*
X163354819Y-144538094D01*
X163354819Y-144538094D02*
X163354819Y-144299999D01*
X163354819Y-144299999D02*
X163402438Y-144204761D01*
X163402438Y-144204761D02*
X163450057Y-144157142D01*
X163450057Y-144157142D02*
X163545295Y-144109523D01*
X163545295Y-144109523D02*
X163640533Y-144109523D01*
X163640533Y-144109523D02*
X163783390Y-144157142D01*
X163783390Y-144157142D02*
X164354819Y-144728570D01*
X164354819Y-144728570D02*
X164354819Y-144109523D01*
X168829123Y-109344619D02*
X168495790Y-108868428D01*
X168257695Y-109344619D02*
X168257695Y-108344619D01*
X168257695Y-108344619D02*
X168638647Y-108344619D01*
X168638647Y-108344619D02*
X168733885Y-108392238D01*
X168733885Y-108392238D02*
X168781504Y-108439857D01*
X168781504Y-108439857D02*
X168829123Y-108535095D01*
X168829123Y-108535095D02*
X168829123Y-108677952D01*
X168829123Y-108677952D02*
X168781504Y-108773190D01*
X168781504Y-108773190D02*
X168733885Y-108820809D01*
X168733885Y-108820809D02*
X168638647Y-108868428D01*
X168638647Y-108868428D02*
X168257695Y-108868428D01*
X169257695Y-109344619D02*
X169257695Y-108344619D01*
X169257695Y-108344619D02*
X169829123Y-109344619D01*
X169829123Y-109344619D02*
X169829123Y-108344619D01*
X170829123Y-109344619D02*
X170257695Y-109344619D01*
X170543409Y-109344619D02*
X170543409Y-108344619D01*
X170543409Y-108344619D02*
X170448171Y-108487476D01*
X170448171Y-108487476D02*
X170352933Y-108582714D01*
X170352933Y-108582714D02*
X170257695Y-108630333D01*
X190834819Y-141933333D02*
X191549104Y-141933333D01*
X191549104Y-141933333D02*
X191691961Y-141980952D01*
X191691961Y-141980952D02*
X191787200Y-142076190D01*
X191787200Y-142076190D02*
X191834819Y-142219047D01*
X191834819Y-142219047D02*
X191834819Y-142314285D01*
X190834819Y-140980952D02*
X190834819Y-141457142D01*
X190834819Y-141457142D02*
X191311009Y-141504761D01*
X191311009Y-141504761D02*
X191263390Y-141457142D01*
X191263390Y-141457142D02*
X191215771Y-141361904D01*
X191215771Y-141361904D02*
X191215771Y-141123809D01*
X191215771Y-141123809D02*
X191263390Y-141028571D01*
X191263390Y-141028571D02*
X191311009Y-140980952D01*
X191311009Y-140980952D02*
X191406247Y-140933333D01*
X191406247Y-140933333D02*
X191644342Y-140933333D01*
X191644342Y-140933333D02*
X191739580Y-140980952D01*
X191739580Y-140980952D02*
X191787200Y-141028571D01*
X191787200Y-141028571D02*
X191834819Y-141123809D01*
X191834819Y-141123809D02*
X191834819Y-141361904D01*
X191834819Y-141361904D02*
X191787200Y-141457142D01*
X191787200Y-141457142D02*
X191739580Y-141504761D01*
X159109580Y-109916666D02*
X159157200Y-109964285D01*
X159157200Y-109964285D02*
X159204819Y-110107142D01*
X159204819Y-110107142D02*
X159204819Y-110202380D01*
X159204819Y-110202380D02*
X159157200Y-110345237D01*
X159157200Y-110345237D02*
X159061961Y-110440475D01*
X159061961Y-110440475D02*
X158966723Y-110488094D01*
X158966723Y-110488094D02*
X158776247Y-110535713D01*
X158776247Y-110535713D02*
X158633390Y-110535713D01*
X158633390Y-110535713D02*
X158442914Y-110488094D01*
X158442914Y-110488094D02*
X158347676Y-110440475D01*
X158347676Y-110440475D02*
X158252438Y-110345237D01*
X158252438Y-110345237D02*
X158204819Y-110202380D01*
X158204819Y-110202380D02*
X158204819Y-110107142D01*
X158204819Y-110107142D02*
X158252438Y-109964285D01*
X158252438Y-109964285D02*
X158300057Y-109916666D01*
X159204819Y-108964285D02*
X159204819Y-109535713D01*
X159204819Y-109249999D02*
X158204819Y-109249999D01*
X158204819Y-109249999D02*
X158347676Y-109345237D01*
X158347676Y-109345237D02*
X158442914Y-109440475D01*
X158442914Y-109440475D02*
X158490533Y-109535713D01*
X157629819Y-114508333D02*
X158344104Y-114508333D01*
X158344104Y-114508333D02*
X158486961Y-114555952D01*
X158486961Y-114555952D02*
X158582200Y-114651190D01*
X158582200Y-114651190D02*
X158629819Y-114794047D01*
X158629819Y-114794047D02*
X158629819Y-114889285D01*
X157629819Y-114127380D02*
X157629819Y-113508333D01*
X157629819Y-113508333D02*
X158010771Y-113841666D01*
X158010771Y-113841666D02*
X158010771Y-113698809D01*
X158010771Y-113698809D02*
X158058390Y-113603571D01*
X158058390Y-113603571D02*
X158106009Y-113555952D01*
X158106009Y-113555952D02*
X158201247Y-113508333D01*
X158201247Y-113508333D02*
X158439342Y-113508333D01*
X158439342Y-113508333D02*
X158534580Y-113555952D01*
X158534580Y-113555952D02*
X158582200Y-113603571D01*
X158582200Y-113603571D02*
X158629819Y-113698809D01*
X158629819Y-113698809D02*
X158629819Y-113984523D01*
X158629819Y-113984523D02*
X158582200Y-114079761D01*
X158582200Y-114079761D02*
X158534580Y-114127380D01*
D11*
X174786704Y-117862332D02*
X174824800Y-117900428D01*
X174824800Y-117900428D02*
X174862895Y-118014713D01*
X174862895Y-118014713D02*
X174862895Y-118090904D01*
X174862895Y-118090904D02*
X174824800Y-118205190D01*
X174824800Y-118205190D02*
X174748609Y-118281380D01*
X174748609Y-118281380D02*
X174672419Y-118319475D01*
X174672419Y-118319475D02*
X174520038Y-118357571D01*
X174520038Y-118357571D02*
X174405752Y-118357571D01*
X174405752Y-118357571D02*
X174253371Y-118319475D01*
X174253371Y-118319475D02*
X174177180Y-118281380D01*
X174177180Y-118281380D02*
X174100990Y-118205190D01*
X174100990Y-118205190D02*
X174062895Y-118090904D01*
X174062895Y-118090904D02*
X174062895Y-118014713D01*
X174062895Y-118014713D02*
X174100990Y-117900428D01*
X174100990Y-117900428D02*
X174139085Y-117862332D01*
X174139085Y-117557571D02*
X174100990Y-117519475D01*
X174100990Y-117519475D02*
X174062895Y-117443285D01*
X174062895Y-117443285D02*
X174062895Y-117252809D01*
X174062895Y-117252809D02*
X174100990Y-117176618D01*
X174100990Y-117176618D02*
X174139085Y-117138523D01*
X174139085Y-117138523D02*
X174215276Y-117100428D01*
X174215276Y-117100428D02*
X174291466Y-117100428D01*
X174291466Y-117100428D02*
X174405752Y-117138523D01*
X174405752Y-117138523D02*
X174862895Y-117595666D01*
X174862895Y-117595666D02*
X174862895Y-117100428D01*
D10*
X169464819Y-121336666D02*
X168988628Y-121669999D01*
X169464819Y-121908094D02*
X168464819Y-121908094D01*
X168464819Y-121908094D02*
X168464819Y-121527142D01*
X168464819Y-121527142D02*
X168512438Y-121431904D01*
X168512438Y-121431904D02*
X168560057Y-121384285D01*
X168560057Y-121384285D02*
X168655295Y-121336666D01*
X168655295Y-121336666D02*
X168798152Y-121336666D01*
X168798152Y-121336666D02*
X168893390Y-121384285D01*
X168893390Y-121384285D02*
X168941009Y-121431904D01*
X168941009Y-121431904D02*
X168988628Y-121527142D01*
X168988628Y-121527142D02*
X168988628Y-121908094D01*
X168560057Y-120955713D02*
X168512438Y-120908094D01*
X168512438Y-120908094D02*
X168464819Y-120812856D01*
X168464819Y-120812856D02*
X168464819Y-120574761D01*
X168464819Y-120574761D02*
X168512438Y-120479523D01*
X168512438Y-120479523D02*
X168560057Y-120431904D01*
X168560057Y-120431904D02*
X168655295Y-120384285D01*
X168655295Y-120384285D02*
X168750533Y-120384285D01*
X168750533Y-120384285D02*
X168893390Y-120431904D01*
X168893390Y-120431904D02*
X169464819Y-121003332D01*
X169464819Y-121003332D02*
X169464819Y-120384285D01*
X172357142Y-147559580D02*
X172309523Y-147607200D01*
X172309523Y-147607200D02*
X172166666Y-147654819D01*
X172166666Y-147654819D02*
X172071428Y-147654819D01*
X172071428Y-147654819D02*
X171928571Y-147607200D01*
X171928571Y-147607200D02*
X171833333Y-147511961D01*
X171833333Y-147511961D02*
X171785714Y-147416723D01*
X171785714Y-147416723D02*
X171738095Y-147226247D01*
X171738095Y-147226247D02*
X171738095Y-147083390D01*
X171738095Y-147083390D02*
X171785714Y-146892914D01*
X171785714Y-146892914D02*
X171833333Y-146797676D01*
X171833333Y-146797676D02*
X171928571Y-146702438D01*
X171928571Y-146702438D02*
X172071428Y-146654819D01*
X172071428Y-146654819D02*
X172166666Y-146654819D01*
X172166666Y-146654819D02*
X172309523Y-146702438D01*
X172309523Y-146702438D02*
X172357142Y-146750057D01*
X173309523Y-147654819D02*
X172738095Y-147654819D01*
X173023809Y-147654819D02*
X173023809Y-146654819D01*
X173023809Y-146654819D02*
X172928571Y-146797676D01*
X172928571Y-146797676D02*
X172833333Y-146892914D01*
X172833333Y-146892914D02*
X172738095Y-146940533D01*
X173642857Y-146654819D02*
X174309523Y-146654819D01*
X174309523Y-146654819D02*
X173880952Y-147654819D01*
X158359019Y-131319066D02*
X157882828Y-131652399D01*
X158359019Y-131890494D02*
X157359019Y-131890494D01*
X157359019Y-131890494D02*
X157359019Y-131509542D01*
X157359019Y-131509542D02*
X157406638Y-131414304D01*
X157406638Y-131414304D02*
X157454257Y-131366685D01*
X157454257Y-131366685D02*
X157549495Y-131319066D01*
X157549495Y-131319066D02*
X157692352Y-131319066D01*
X157692352Y-131319066D02*
X157787590Y-131366685D01*
X157787590Y-131366685D02*
X157835209Y-131414304D01*
X157835209Y-131414304D02*
X157882828Y-131509542D01*
X157882828Y-131509542D02*
X157882828Y-131890494D01*
X157359019Y-130985732D02*
X157359019Y-130319066D01*
X157359019Y-130319066D02*
X158359019Y-130747637D01*
X160738095Y-133554819D02*
X160738095Y-134364342D01*
X160738095Y-134364342D02*
X160785714Y-134459580D01*
X160785714Y-134459580D02*
X160833333Y-134507200D01*
X160833333Y-134507200D02*
X160928571Y-134554819D01*
X160928571Y-134554819D02*
X161119047Y-134554819D01*
X161119047Y-134554819D02*
X161214285Y-134507200D01*
X161214285Y-134507200D02*
X161261904Y-134459580D01*
X161261904Y-134459580D02*
X161309523Y-134364342D01*
X161309523Y-134364342D02*
X161309523Y-133554819D01*
X161690476Y-133554819D02*
X162357142Y-133554819D01*
X162357142Y-133554819D02*
X161928571Y-134554819D01*
X162633333Y-120159580D02*
X162585714Y-120207200D01*
X162585714Y-120207200D02*
X162442857Y-120254819D01*
X162442857Y-120254819D02*
X162347619Y-120254819D01*
X162347619Y-120254819D02*
X162204762Y-120207200D01*
X162204762Y-120207200D02*
X162109524Y-120111961D01*
X162109524Y-120111961D02*
X162061905Y-120016723D01*
X162061905Y-120016723D02*
X162014286Y-119826247D01*
X162014286Y-119826247D02*
X162014286Y-119683390D01*
X162014286Y-119683390D02*
X162061905Y-119492914D01*
X162061905Y-119492914D02*
X162109524Y-119397676D01*
X162109524Y-119397676D02*
X162204762Y-119302438D01*
X162204762Y-119302438D02*
X162347619Y-119254819D01*
X162347619Y-119254819D02*
X162442857Y-119254819D01*
X162442857Y-119254819D02*
X162585714Y-119302438D01*
X162585714Y-119302438D02*
X162633333Y-119350057D01*
X163538095Y-119254819D02*
X163061905Y-119254819D01*
X163061905Y-119254819D02*
X163014286Y-119731009D01*
X163014286Y-119731009D02*
X163061905Y-119683390D01*
X163061905Y-119683390D02*
X163157143Y-119635771D01*
X163157143Y-119635771D02*
X163395238Y-119635771D01*
X163395238Y-119635771D02*
X163490476Y-119683390D01*
X163490476Y-119683390D02*
X163538095Y-119731009D01*
X163538095Y-119731009D02*
X163585714Y-119826247D01*
X163585714Y-119826247D02*
X163585714Y-120064342D01*
X163585714Y-120064342D02*
X163538095Y-120159580D01*
X163538095Y-120159580D02*
X163490476Y-120207200D01*
X163490476Y-120207200D02*
X163395238Y-120254819D01*
X163395238Y-120254819D02*
X163157143Y-120254819D01*
X163157143Y-120254819D02*
X163061905Y-120207200D01*
X163061905Y-120207200D02*
X163014286Y-120159580D01*
X177311905Y-108304819D02*
X177311905Y-107304819D01*
X177311905Y-107304819D02*
X177550000Y-107304819D01*
X177550000Y-107304819D02*
X177692857Y-107352438D01*
X177692857Y-107352438D02*
X177788095Y-107447676D01*
X177788095Y-107447676D02*
X177835714Y-107542914D01*
X177835714Y-107542914D02*
X177883333Y-107733390D01*
X177883333Y-107733390D02*
X177883333Y-107876247D01*
X177883333Y-107876247D02*
X177835714Y-108066723D01*
X177835714Y-108066723D02*
X177788095Y-108161961D01*
X177788095Y-108161961D02*
X177692857Y-108257200D01*
X177692857Y-108257200D02*
X177550000Y-108304819D01*
X177550000Y-108304819D02*
X177311905Y-108304819D01*
X178264286Y-107400057D02*
X178311905Y-107352438D01*
X178311905Y-107352438D02*
X178407143Y-107304819D01*
X178407143Y-107304819D02*
X178645238Y-107304819D01*
X178645238Y-107304819D02*
X178740476Y-107352438D01*
X178740476Y-107352438D02*
X178788095Y-107400057D01*
X178788095Y-107400057D02*
X178835714Y-107495295D01*
X178835714Y-107495295D02*
X178835714Y-107590533D01*
X178835714Y-107590533D02*
X178788095Y-107733390D01*
X178788095Y-107733390D02*
X178216667Y-108304819D01*
X178216667Y-108304819D02*
X178835714Y-108304819D01*
X184704819Y-125936904D02*
X185514342Y-125936904D01*
X185514342Y-125936904D02*
X185609580Y-125889285D01*
X185609580Y-125889285D02*
X185657200Y-125841666D01*
X185657200Y-125841666D02*
X185704819Y-125746428D01*
X185704819Y-125746428D02*
X185704819Y-125555952D01*
X185704819Y-125555952D02*
X185657200Y-125460714D01*
X185657200Y-125460714D02*
X185609580Y-125413095D01*
X185609580Y-125413095D02*
X185514342Y-125365476D01*
X185514342Y-125365476D02*
X184704819Y-125365476D01*
X184704819Y-124413095D02*
X184704819Y-124889285D01*
X184704819Y-124889285D02*
X185181009Y-124936904D01*
X185181009Y-124936904D02*
X185133390Y-124889285D01*
X185133390Y-124889285D02*
X185085771Y-124794047D01*
X185085771Y-124794047D02*
X185085771Y-124555952D01*
X185085771Y-124555952D02*
X185133390Y-124460714D01*
X185133390Y-124460714D02*
X185181009Y-124413095D01*
X185181009Y-124413095D02*
X185276247Y-124365476D01*
X185276247Y-124365476D02*
X185514342Y-124365476D01*
X185514342Y-124365476D02*
X185609580Y-124413095D01*
X185609580Y-124413095D02*
X185657200Y-124460714D01*
X185657200Y-124460714D02*
X185704819Y-124555952D01*
X185704819Y-124555952D02*
X185704819Y-124794047D01*
X185704819Y-124794047D02*
X185657200Y-124889285D01*
X185657200Y-124889285D02*
X185609580Y-124936904D01*
X158359580Y-138342857D02*
X158407200Y-138390476D01*
X158407200Y-138390476D02*
X158454819Y-138533333D01*
X158454819Y-138533333D02*
X158454819Y-138628571D01*
X158454819Y-138628571D02*
X158407200Y-138771428D01*
X158407200Y-138771428D02*
X158311961Y-138866666D01*
X158311961Y-138866666D02*
X158216723Y-138914285D01*
X158216723Y-138914285D02*
X158026247Y-138961904D01*
X158026247Y-138961904D02*
X157883390Y-138961904D01*
X157883390Y-138961904D02*
X157692914Y-138914285D01*
X157692914Y-138914285D02*
X157597676Y-138866666D01*
X157597676Y-138866666D02*
X157502438Y-138771428D01*
X157502438Y-138771428D02*
X157454819Y-138628571D01*
X157454819Y-138628571D02*
X157454819Y-138533333D01*
X157454819Y-138533333D02*
X157502438Y-138390476D01*
X157502438Y-138390476D02*
X157550057Y-138342857D01*
X158454819Y-137390476D02*
X158454819Y-137961904D01*
X158454819Y-137676190D02*
X157454819Y-137676190D01*
X157454819Y-137676190D02*
X157597676Y-137771428D01*
X157597676Y-137771428D02*
X157692914Y-137866666D01*
X157692914Y-137866666D02*
X157740533Y-137961904D01*
X157454819Y-136485714D02*
X157454819Y-136961904D01*
X157454819Y-136961904D02*
X157931009Y-137009523D01*
X157931009Y-137009523D02*
X157883390Y-136961904D01*
X157883390Y-136961904D02*
X157835771Y-136866666D01*
X157835771Y-136866666D02*
X157835771Y-136628571D01*
X157835771Y-136628571D02*
X157883390Y-136533333D01*
X157883390Y-136533333D02*
X157931009Y-136485714D01*
X157931009Y-136485714D02*
X158026247Y-136438095D01*
X158026247Y-136438095D02*
X158264342Y-136438095D01*
X158264342Y-136438095D02*
X158359580Y-136485714D01*
X158359580Y-136485714D02*
X158407200Y-136533333D01*
X158407200Y-136533333D02*
X158454819Y-136628571D01*
X158454819Y-136628571D02*
X158454819Y-136866666D01*
X158454819Y-136866666D02*
X158407200Y-136961904D01*
X158407200Y-136961904D02*
X158359580Y-137009523D01*
X172338095Y-109944819D02*
X172338095Y-110754342D01*
X172338095Y-110754342D02*
X172385714Y-110849580D01*
X172385714Y-110849580D02*
X172433333Y-110897200D01*
X172433333Y-110897200D02*
X172528571Y-110944819D01*
X172528571Y-110944819D02*
X172719047Y-110944819D01*
X172719047Y-110944819D02*
X172814285Y-110897200D01*
X172814285Y-110897200D02*
X172861904Y-110849580D01*
X172861904Y-110849580D02*
X172909523Y-110754342D01*
X172909523Y-110754342D02*
X172909523Y-109944819D01*
X173909523Y-110944819D02*
X173338095Y-110944819D01*
X173623809Y-110944819D02*
X173623809Y-109944819D01*
X173623809Y-109944819D02*
X173528571Y-110087676D01*
X173528571Y-110087676D02*
X173433333Y-110182914D01*
X173433333Y-110182914D02*
X173338095Y-110230533D01*
X166657142Y-135159580D02*
X166609523Y-135207200D01*
X166609523Y-135207200D02*
X166466666Y-135254819D01*
X166466666Y-135254819D02*
X166371428Y-135254819D01*
X166371428Y-135254819D02*
X166228571Y-135207200D01*
X166228571Y-135207200D02*
X166133333Y-135111961D01*
X166133333Y-135111961D02*
X166085714Y-135016723D01*
X166085714Y-135016723D02*
X166038095Y-134826247D01*
X166038095Y-134826247D02*
X166038095Y-134683390D01*
X166038095Y-134683390D02*
X166085714Y-134492914D01*
X166085714Y-134492914D02*
X166133333Y-134397676D01*
X166133333Y-134397676D02*
X166228571Y-134302438D01*
X166228571Y-134302438D02*
X166371428Y-134254819D01*
X166371428Y-134254819D02*
X166466666Y-134254819D01*
X166466666Y-134254819D02*
X166609523Y-134302438D01*
X166609523Y-134302438D02*
X166657142Y-134350057D01*
X167609523Y-135254819D02*
X167038095Y-135254819D01*
X167323809Y-135254819D02*
X167323809Y-134254819D01*
X167323809Y-134254819D02*
X167228571Y-134397676D01*
X167228571Y-134397676D02*
X167133333Y-134492914D01*
X167133333Y-134492914D02*
X167038095Y-134540533D01*
X168228571Y-134254819D02*
X168323809Y-134254819D01*
X168323809Y-134254819D02*
X168419047Y-134302438D01*
X168419047Y-134302438D02*
X168466666Y-134350057D01*
X168466666Y-134350057D02*
X168514285Y-134445295D01*
X168514285Y-134445295D02*
X168561904Y-134635771D01*
X168561904Y-134635771D02*
X168561904Y-134873866D01*
X168561904Y-134873866D02*
X168514285Y-135064342D01*
X168514285Y-135064342D02*
X168466666Y-135159580D01*
X168466666Y-135159580D02*
X168419047Y-135207200D01*
X168419047Y-135207200D02*
X168323809Y-135254819D01*
X168323809Y-135254819D02*
X168228571Y-135254819D01*
X168228571Y-135254819D02*
X168133333Y-135207200D01*
X168133333Y-135207200D02*
X168085714Y-135159580D01*
X168085714Y-135159580D02*
X168038095Y-135064342D01*
X168038095Y-135064342D02*
X167990476Y-134873866D01*
X167990476Y-134873866D02*
X167990476Y-134635771D01*
X167990476Y-134635771D02*
X168038095Y-134445295D01*
X168038095Y-134445295D02*
X168085714Y-134350057D01*
X168085714Y-134350057D02*
X168133333Y-134302438D01*
X168133333Y-134302438D02*
X168228571Y-134254819D01*
X169138095Y-119054819D02*
X169138095Y-119864342D01*
X169138095Y-119864342D02*
X169185714Y-119959580D01*
X169185714Y-119959580D02*
X169233333Y-120007200D01*
X169233333Y-120007200D02*
X169328571Y-120054819D01*
X169328571Y-120054819D02*
X169519047Y-120054819D01*
X169519047Y-120054819D02*
X169614285Y-120007200D01*
X169614285Y-120007200D02*
X169661904Y-119959580D01*
X169661904Y-119959580D02*
X169709523Y-119864342D01*
X169709523Y-119864342D02*
X169709523Y-119054819D01*
X170138095Y-119150057D02*
X170185714Y-119102438D01*
X170185714Y-119102438D02*
X170280952Y-119054819D01*
X170280952Y-119054819D02*
X170519047Y-119054819D01*
X170519047Y-119054819D02*
X170614285Y-119102438D01*
X170614285Y-119102438D02*
X170661904Y-119150057D01*
X170661904Y-119150057D02*
X170709523Y-119245295D01*
X170709523Y-119245295D02*
X170709523Y-119340533D01*
X170709523Y-119340533D02*
X170661904Y-119483390D01*
X170661904Y-119483390D02*
X170090476Y-120054819D01*
X170090476Y-120054819D02*
X170709523Y-120054819D01*
X181057142Y-135159580D02*
X181009523Y-135207200D01*
X181009523Y-135207200D02*
X180866666Y-135254819D01*
X180866666Y-135254819D02*
X180771428Y-135254819D01*
X180771428Y-135254819D02*
X180628571Y-135207200D01*
X180628571Y-135207200D02*
X180533333Y-135111961D01*
X180533333Y-135111961D02*
X180485714Y-135016723D01*
X180485714Y-135016723D02*
X180438095Y-134826247D01*
X180438095Y-134826247D02*
X180438095Y-134683390D01*
X180438095Y-134683390D02*
X180485714Y-134492914D01*
X180485714Y-134492914D02*
X180533333Y-134397676D01*
X180533333Y-134397676D02*
X180628571Y-134302438D01*
X180628571Y-134302438D02*
X180771428Y-134254819D01*
X180771428Y-134254819D02*
X180866666Y-134254819D01*
X180866666Y-134254819D02*
X181009523Y-134302438D01*
X181009523Y-134302438D02*
X181057142Y-134350057D01*
X182009523Y-135254819D02*
X181438095Y-135254819D01*
X181723809Y-135254819D02*
X181723809Y-134254819D01*
X181723809Y-134254819D02*
X181628571Y-134397676D01*
X181628571Y-134397676D02*
X181533333Y-134492914D01*
X181533333Y-134492914D02*
X181438095Y-134540533D01*
X182342857Y-134254819D02*
X182961904Y-134254819D01*
X182961904Y-134254819D02*
X182628571Y-134635771D01*
X182628571Y-134635771D02*
X182771428Y-134635771D01*
X182771428Y-134635771D02*
X182866666Y-134683390D01*
X182866666Y-134683390D02*
X182914285Y-134731009D01*
X182914285Y-134731009D02*
X182961904Y-134826247D01*
X182961904Y-134826247D02*
X182961904Y-135064342D01*
X182961904Y-135064342D02*
X182914285Y-135159580D01*
X182914285Y-135159580D02*
X182866666Y-135207200D01*
X182866666Y-135207200D02*
X182771428Y-135254819D01*
X182771428Y-135254819D02*
X182485714Y-135254819D01*
X182485714Y-135254819D02*
X182390476Y-135207200D01*
X182390476Y-135207200D02*
X182342857Y-135159580D01*
X176257142Y-135159580D02*
X176209523Y-135207200D01*
X176209523Y-135207200D02*
X176066666Y-135254819D01*
X176066666Y-135254819D02*
X175971428Y-135254819D01*
X175971428Y-135254819D02*
X175828571Y-135207200D01*
X175828571Y-135207200D02*
X175733333Y-135111961D01*
X175733333Y-135111961D02*
X175685714Y-135016723D01*
X175685714Y-135016723D02*
X175638095Y-134826247D01*
X175638095Y-134826247D02*
X175638095Y-134683390D01*
X175638095Y-134683390D02*
X175685714Y-134492914D01*
X175685714Y-134492914D02*
X175733333Y-134397676D01*
X175733333Y-134397676D02*
X175828571Y-134302438D01*
X175828571Y-134302438D02*
X175971428Y-134254819D01*
X175971428Y-134254819D02*
X176066666Y-134254819D01*
X176066666Y-134254819D02*
X176209523Y-134302438D01*
X176209523Y-134302438D02*
X176257142Y-134350057D01*
X177209523Y-135254819D02*
X176638095Y-135254819D01*
X176923809Y-135254819D02*
X176923809Y-134254819D01*
X176923809Y-134254819D02*
X176828571Y-134397676D01*
X176828571Y-134397676D02*
X176733333Y-134492914D01*
X176733333Y-134492914D02*
X176638095Y-134540533D01*
X177590476Y-134350057D02*
X177638095Y-134302438D01*
X177638095Y-134302438D02*
X177733333Y-134254819D01*
X177733333Y-134254819D02*
X177971428Y-134254819D01*
X177971428Y-134254819D02*
X178066666Y-134302438D01*
X178066666Y-134302438D02*
X178114285Y-134350057D01*
X178114285Y-134350057D02*
X178161904Y-134445295D01*
X178161904Y-134445295D02*
X178161904Y-134540533D01*
X178161904Y-134540533D02*
X178114285Y-134683390D01*
X178114285Y-134683390D02*
X177542857Y-135254819D01*
X177542857Y-135254819D02*
X178161904Y-135254819D01*
X157664819Y-120601904D02*
X158474342Y-120601904D01*
X158474342Y-120601904D02*
X158569580Y-120554285D01*
X158569580Y-120554285D02*
X158617200Y-120506666D01*
X158617200Y-120506666D02*
X158664819Y-120411428D01*
X158664819Y-120411428D02*
X158664819Y-120220952D01*
X158664819Y-120220952D02*
X158617200Y-120125714D01*
X158617200Y-120125714D02*
X158569580Y-120078095D01*
X158569580Y-120078095D02*
X158474342Y-120030476D01*
X158474342Y-120030476D02*
X157664819Y-120030476D01*
X157664819Y-119649523D02*
X157664819Y-119030476D01*
X157664819Y-119030476D02*
X158045771Y-119363809D01*
X158045771Y-119363809D02*
X158045771Y-119220952D01*
X158045771Y-119220952D02*
X158093390Y-119125714D01*
X158093390Y-119125714D02*
X158141009Y-119078095D01*
X158141009Y-119078095D02*
X158236247Y-119030476D01*
X158236247Y-119030476D02*
X158474342Y-119030476D01*
X158474342Y-119030476D02*
X158569580Y-119078095D01*
X158569580Y-119078095D02*
X158617200Y-119125714D01*
X158617200Y-119125714D02*
X158664819Y-119220952D01*
X158664819Y-119220952D02*
X158664819Y-119506666D01*
X158664819Y-119506666D02*
X158617200Y-119601904D01*
X158617200Y-119601904D02*
X158569580Y-119649523D01*
X160518333Y-127054819D02*
X160185000Y-126578628D01*
X159946905Y-127054819D02*
X159946905Y-126054819D01*
X159946905Y-126054819D02*
X160327857Y-126054819D01*
X160327857Y-126054819D02*
X160423095Y-126102438D01*
X160423095Y-126102438D02*
X160470714Y-126150057D01*
X160470714Y-126150057D02*
X160518333Y-126245295D01*
X160518333Y-126245295D02*
X160518333Y-126388152D01*
X160518333Y-126388152D02*
X160470714Y-126483390D01*
X160470714Y-126483390D02*
X160423095Y-126531009D01*
X160423095Y-126531009D02*
X160327857Y-126578628D01*
X160327857Y-126578628D02*
X159946905Y-126578628D01*
X161375476Y-126388152D02*
X161375476Y-127054819D01*
X161137381Y-126007200D02*
X160899286Y-126721485D01*
X160899286Y-126721485D02*
X161518333Y-126721485D01*
X160533333Y-125554819D02*
X160200000Y-125078628D01*
X159961905Y-125554819D02*
X159961905Y-124554819D01*
X159961905Y-124554819D02*
X160342857Y-124554819D01*
X160342857Y-124554819D02*
X160438095Y-124602438D01*
X160438095Y-124602438D02*
X160485714Y-124650057D01*
X160485714Y-124650057D02*
X160533333Y-124745295D01*
X160533333Y-124745295D02*
X160533333Y-124888152D01*
X160533333Y-124888152D02*
X160485714Y-124983390D01*
X160485714Y-124983390D02*
X160438095Y-125031009D01*
X160438095Y-125031009D02*
X160342857Y-125078628D01*
X160342857Y-125078628D02*
X159961905Y-125078628D01*
X160866667Y-124554819D02*
X161485714Y-124554819D01*
X161485714Y-124554819D02*
X161152381Y-124935771D01*
X161152381Y-124935771D02*
X161295238Y-124935771D01*
X161295238Y-124935771D02*
X161390476Y-124983390D01*
X161390476Y-124983390D02*
X161438095Y-125031009D01*
X161438095Y-125031009D02*
X161485714Y-125126247D01*
X161485714Y-125126247D02*
X161485714Y-125364342D01*
X161485714Y-125364342D02*
X161438095Y-125459580D01*
X161438095Y-125459580D02*
X161390476Y-125507200D01*
X161390476Y-125507200D02*
X161295238Y-125554819D01*
X161295238Y-125554819D02*
X161009524Y-125554819D01*
X161009524Y-125554819D02*
X160914286Y-125507200D01*
X160914286Y-125507200D02*
X160866667Y-125459580D01*
X162059580Y-131766666D02*
X162107200Y-131814285D01*
X162107200Y-131814285D02*
X162154819Y-131957142D01*
X162154819Y-131957142D02*
X162154819Y-132052380D01*
X162154819Y-132052380D02*
X162107200Y-132195237D01*
X162107200Y-132195237D02*
X162011961Y-132290475D01*
X162011961Y-132290475D02*
X161916723Y-132338094D01*
X161916723Y-132338094D02*
X161726247Y-132385713D01*
X161726247Y-132385713D02*
X161583390Y-132385713D01*
X161583390Y-132385713D02*
X161392914Y-132338094D01*
X161392914Y-132338094D02*
X161297676Y-132290475D01*
X161297676Y-132290475D02*
X161202438Y-132195237D01*
X161202438Y-132195237D02*
X161154819Y-132052380D01*
X161154819Y-132052380D02*
X161154819Y-131957142D01*
X161154819Y-131957142D02*
X161202438Y-131814285D01*
X161202438Y-131814285D02*
X161250057Y-131766666D01*
X162154819Y-131290475D02*
X162154819Y-131099999D01*
X162154819Y-131099999D02*
X162107200Y-131004761D01*
X162107200Y-131004761D02*
X162059580Y-130957142D01*
X162059580Y-130957142D02*
X161916723Y-130861904D01*
X161916723Y-130861904D02*
X161726247Y-130814285D01*
X161726247Y-130814285D02*
X161345295Y-130814285D01*
X161345295Y-130814285D02*
X161250057Y-130861904D01*
X161250057Y-130861904D02*
X161202438Y-130909523D01*
X161202438Y-130909523D02*
X161154819Y-131004761D01*
X161154819Y-131004761D02*
X161154819Y-131195237D01*
X161154819Y-131195237D02*
X161202438Y-131290475D01*
X161202438Y-131290475D02*
X161250057Y-131338094D01*
X161250057Y-131338094D02*
X161345295Y-131385713D01*
X161345295Y-131385713D02*
X161583390Y-131385713D01*
X161583390Y-131385713D02*
X161678628Y-131338094D01*
X161678628Y-131338094D02*
X161726247Y-131290475D01*
X161726247Y-131290475D02*
X161773866Y-131195237D01*
X161773866Y-131195237D02*
X161773866Y-131004761D01*
X161773866Y-131004761D02*
X161726247Y-130909523D01*
X161726247Y-130909523D02*
X161678628Y-130861904D01*
X161678628Y-130861904D02*
X161583390Y-130814285D01*
X158279580Y-135042857D02*
X158327200Y-135090476D01*
X158327200Y-135090476D02*
X158374819Y-135233333D01*
X158374819Y-135233333D02*
X158374819Y-135328571D01*
X158374819Y-135328571D02*
X158327200Y-135471428D01*
X158327200Y-135471428D02*
X158231961Y-135566666D01*
X158231961Y-135566666D02*
X158136723Y-135614285D01*
X158136723Y-135614285D02*
X157946247Y-135661904D01*
X157946247Y-135661904D02*
X157803390Y-135661904D01*
X157803390Y-135661904D02*
X157612914Y-135614285D01*
X157612914Y-135614285D02*
X157517676Y-135566666D01*
X157517676Y-135566666D02*
X157422438Y-135471428D01*
X157422438Y-135471428D02*
X157374819Y-135328571D01*
X157374819Y-135328571D02*
X157374819Y-135233333D01*
X157374819Y-135233333D02*
X157422438Y-135090476D01*
X157422438Y-135090476D02*
X157470057Y-135042857D01*
X158374819Y-134090476D02*
X158374819Y-134661904D01*
X158374819Y-134376190D02*
X157374819Y-134376190D01*
X157374819Y-134376190D02*
X157517676Y-134471428D01*
X157517676Y-134471428D02*
X157612914Y-134566666D01*
X157612914Y-134566666D02*
X157660533Y-134661904D01*
X157708152Y-133233333D02*
X158374819Y-133233333D01*
X157327200Y-133471428D02*
X158041485Y-133709523D01*
X158041485Y-133709523D02*
X158041485Y-133090476D01*
X158279580Y-141892857D02*
X158327200Y-141940476D01*
X158327200Y-141940476D02*
X158374819Y-142083333D01*
X158374819Y-142083333D02*
X158374819Y-142178571D01*
X158374819Y-142178571D02*
X158327200Y-142321428D01*
X158327200Y-142321428D02*
X158231961Y-142416666D01*
X158231961Y-142416666D02*
X158136723Y-142464285D01*
X158136723Y-142464285D02*
X157946247Y-142511904D01*
X157946247Y-142511904D02*
X157803390Y-142511904D01*
X157803390Y-142511904D02*
X157612914Y-142464285D01*
X157612914Y-142464285D02*
X157517676Y-142416666D01*
X157517676Y-142416666D02*
X157422438Y-142321428D01*
X157422438Y-142321428D02*
X157374819Y-142178571D01*
X157374819Y-142178571D02*
X157374819Y-142083333D01*
X157374819Y-142083333D02*
X157422438Y-141940476D01*
X157422438Y-141940476D02*
X157470057Y-141892857D01*
X158374819Y-140940476D02*
X158374819Y-141511904D01*
X158374819Y-141226190D02*
X157374819Y-141226190D01*
X157374819Y-141226190D02*
X157517676Y-141321428D01*
X157517676Y-141321428D02*
X157612914Y-141416666D01*
X157612914Y-141416666D02*
X157660533Y-141511904D01*
X157374819Y-140083333D02*
X157374819Y-140273809D01*
X157374819Y-140273809D02*
X157422438Y-140369047D01*
X157422438Y-140369047D02*
X157470057Y-140416666D01*
X157470057Y-140416666D02*
X157612914Y-140511904D01*
X157612914Y-140511904D02*
X157803390Y-140559523D01*
X157803390Y-140559523D02*
X158184342Y-140559523D01*
X158184342Y-140559523D02*
X158279580Y-140511904D01*
X158279580Y-140511904D02*
X158327200Y-140464285D01*
X158327200Y-140464285D02*
X158374819Y-140369047D01*
X158374819Y-140369047D02*
X158374819Y-140178571D01*
X158374819Y-140178571D02*
X158327200Y-140083333D01*
X158327200Y-140083333D02*
X158279580Y-140035714D01*
X158279580Y-140035714D02*
X158184342Y-139988095D01*
X158184342Y-139988095D02*
X157946247Y-139988095D01*
X157946247Y-139988095D02*
X157851009Y-140035714D01*
X157851009Y-140035714D02*
X157803390Y-140083333D01*
X157803390Y-140083333D02*
X157755771Y-140178571D01*
X157755771Y-140178571D02*
X157755771Y-140369047D01*
X157755771Y-140369047D02*
X157803390Y-140464285D01*
X157803390Y-140464285D02*
X157851009Y-140511904D01*
X157851009Y-140511904D02*
X157946247Y-140559523D01*
X158633333Y-125459580D02*
X158585714Y-125507200D01*
X158585714Y-125507200D02*
X158442857Y-125554819D01*
X158442857Y-125554819D02*
X158347619Y-125554819D01*
X158347619Y-125554819D02*
X158204762Y-125507200D01*
X158204762Y-125507200D02*
X158109524Y-125411961D01*
X158109524Y-125411961D02*
X158061905Y-125316723D01*
X158061905Y-125316723D02*
X158014286Y-125126247D01*
X158014286Y-125126247D02*
X158014286Y-124983390D01*
X158014286Y-124983390D02*
X158061905Y-124792914D01*
X158061905Y-124792914D02*
X158109524Y-124697676D01*
X158109524Y-124697676D02*
X158204762Y-124602438D01*
X158204762Y-124602438D02*
X158347619Y-124554819D01*
X158347619Y-124554819D02*
X158442857Y-124554819D01*
X158442857Y-124554819D02*
X158585714Y-124602438D01*
X158585714Y-124602438D02*
X158633333Y-124650057D01*
X159490476Y-124554819D02*
X159300000Y-124554819D01*
X159300000Y-124554819D02*
X159204762Y-124602438D01*
X159204762Y-124602438D02*
X159157143Y-124650057D01*
X159157143Y-124650057D02*
X159061905Y-124792914D01*
X159061905Y-124792914D02*
X159014286Y-124983390D01*
X159014286Y-124983390D02*
X159014286Y-125364342D01*
X159014286Y-125364342D02*
X159061905Y-125459580D01*
X159061905Y-125459580D02*
X159109524Y-125507200D01*
X159109524Y-125507200D02*
X159204762Y-125554819D01*
X159204762Y-125554819D02*
X159395238Y-125554819D01*
X159395238Y-125554819D02*
X159490476Y-125507200D01*
X159490476Y-125507200D02*
X159538095Y-125459580D01*
X159538095Y-125459580D02*
X159585714Y-125364342D01*
X159585714Y-125364342D02*
X159585714Y-125126247D01*
X159585714Y-125126247D02*
X159538095Y-125031009D01*
X159538095Y-125031009D02*
X159490476Y-124983390D01*
X159490476Y-124983390D02*
X159395238Y-124935771D01*
X159395238Y-124935771D02*
X159204762Y-124935771D01*
X159204762Y-124935771D02*
X159109524Y-124983390D01*
X159109524Y-124983390D02*
X159061905Y-125031009D01*
X159061905Y-125031009D02*
X159014286Y-125126247D01*
X165158009Y-105489333D02*
X165158009Y-105822666D01*
X165681819Y-105822666D02*
X164681819Y-105822666D01*
X164681819Y-105822666D02*
X164681819Y-105346476D01*
X165681819Y-104441714D02*
X165681819Y-105013142D01*
X165681819Y-104727428D02*
X164681819Y-104727428D01*
X164681819Y-104727428D02*
X164824676Y-104822666D01*
X164824676Y-104822666D02*
X164919914Y-104917904D01*
X164919914Y-104917904D02*
X164967533Y-105013142D01*
X180466666Y-108854819D02*
X180466666Y-109569104D01*
X180466666Y-109569104D02*
X180419047Y-109711961D01*
X180419047Y-109711961D02*
X180323809Y-109807200D01*
X180323809Y-109807200D02*
X180180952Y-109854819D01*
X180180952Y-109854819D02*
X180085714Y-109854819D01*
X180895238Y-108950057D02*
X180942857Y-108902438D01*
X180942857Y-108902438D02*
X181038095Y-108854819D01*
X181038095Y-108854819D02*
X181276190Y-108854819D01*
X181276190Y-108854819D02*
X181371428Y-108902438D01*
X181371428Y-108902438D02*
X181419047Y-108950057D01*
X181419047Y-108950057D02*
X181466666Y-109045295D01*
X181466666Y-109045295D02*
X181466666Y-109140533D01*
X181466666Y-109140533D02*
X181419047Y-109283390D01*
X181419047Y-109283390D02*
X180847619Y-109854819D01*
X180847619Y-109854819D02*
X181466666Y-109854819D01*
X178738095Y-143704819D02*
X178738095Y-144514342D01*
X178738095Y-144514342D02*
X178785714Y-144609580D01*
X178785714Y-144609580D02*
X178833333Y-144657200D01*
X178833333Y-144657200D02*
X178928571Y-144704819D01*
X178928571Y-144704819D02*
X179119047Y-144704819D01*
X179119047Y-144704819D02*
X179214285Y-144657200D01*
X179214285Y-144657200D02*
X179261904Y-144609580D01*
X179261904Y-144609580D02*
X179309523Y-144514342D01*
X179309523Y-144514342D02*
X179309523Y-143704819D01*
X179928571Y-144133390D02*
X179833333Y-144085771D01*
X179833333Y-144085771D02*
X179785714Y-144038152D01*
X179785714Y-144038152D02*
X179738095Y-143942914D01*
X179738095Y-143942914D02*
X179738095Y-143895295D01*
X179738095Y-143895295D02*
X179785714Y-143800057D01*
X179785714Y-143800057D02*
X179833333Y-143752438D01*
X179833333Y-143752438D02*
X179928571Y-143704819D01*
X179928571Y-143704819D02*
X180119047Y-143704819D01*
X180119047Y-143704819D02*
X180214285Y-143752438D01*
X180214285Y-143752438D02*
X180261904Y-143800057D01*
X180261904Y-143800057D02*
X180309523Y-143895295D01*
X180309523Y-143895295D02*
X180309523Y-143942914D01*
X180309523Y-143942914D02*
X180261904Y-144038152D01*
X180261904Y-144038152D02*
X180214285Y-144085771D01*
X180214285Y-144085771D02*
X180119047Y-144133390D01*
X180119047Y-144133390D02*
X179928571Y-144133390D01*
X179928571Y-144133390D02*
X179833333Y-144181009D01*
X179833333Y-144181009D02*
X179785714Y-144228628D01*
X179785714Y-144228628D02*
X179738095Y-144323866D01*
X179738095Y-144323866D02*
X179738095Y-144514342D01*
X179738095Y-144514342D02*
X179785714Y-144609580D01*
X179785714Y-144609580D02*
X179833333Y-144657200D01*
X179833333Y-144657200D02*
X179928571Y-144704819D01*
X179928571Y-144704819D02*
X180119047Y-144704819D01*
X180119047Y-144704819D02*
X180214285Y-144657200D01*
X180214285Y-144657200D02*
X180261904Y-144609580D01*
X180261904Y-144609580D02*
X180309523Y-144514342D01*
X180309523Y-144514342D02*
X180309523Y-144323866D01*
X180309523Y-144323866D02*
X180261904Y-144228628D01*
X180261904Y-144228628D02*
X180214285Y-144181009D01*
X180214285Y-144181009D02*
X180119047Y-144133390D01*
X180366666Y-111031009D02*
X180033333Y-111031009D01*
X180033333Y-111554819D02*
X180033333Y-110554819D01*
X180033333Y-110554819D02*
X180509523Y-110554819D01*
X180842857Y-110650057D02*
X180890476Y-110602438D01*
X180890476Y-110602438D02*
X180985714Y-110554819D01*
X180985714Y-110554819D02*
X181223809Y-110554819D01*
X181223809Y-110554819D02*
X181319047Y-110602438D01*
X181319047Y-110602438D02*
X181366666Y-110650057D01*
X181366666Y-110650057D02*
X181414285Y-110745295D01*
X181414285Y-110745295D02*
X181414285Y-110840533D01*
X181414285Y-110840533D02*
X181366666Y-110983390D01*
X181366666Y-110983390D02*
X180795238Y-111554819D01*
X180795238Y-111554819D02*
X181414285Y-111554819D01*
X191454819Y-131772857D02*
X190978628Y-132106190D01*
X191454819Y-132344285D02*
X190454819Y-132344285D01*
X190454819Y-132344285D02*
X190454819Y-131963333D01*
X190454819Y-131963333D02*
X190502438Y-131868095D01*
X190502438Y-131868095D02*
X190550057Y-131820476D01*
X190550057Y-131820476D02*
X190645295Y-131772857D01*
X190645295Y-131772857D02*
X190788152Y-131772857D01*
X190788152Y-131772857D02*
X190883390Y-131820476D01*
X190883390Y-131820476D02*
X190931009Y-131868095D01*
X190931009Y-131868095D02*
X190978628Y-131963333D01*
X190978628Y-131963333D02*
X190978628Y-132344285D01*
X191454819Y-130820476D02*
X191454819Y-131391904D01*
X191454819Y-131106190D02*
X190454819Y-131106190D01*
X190454819Y-131106190D02*
X190597676Y-131201428D01*
X190597676Y-131201428D02*
X190692914Y-131296666D01*
X190692914Y-131296666D02*
X190740533Y-131391904D01*
X190454819Y-130201428D02*
X190454819Y-130106190D01*
X190454819Y-130106190D02*
X190502438Y-130010952D01*
X190502438Y-130010952D02*
X190550057Y-129963333D01*
X190550057Y-129963333D02*
X190645295Y-129915714D01*
X190645295Y-129915714D02*
X190835771Y-129868095D01*
X190835771Y-129868095D02*
X191073866Y-129868095D01*
X191073866Y-129868095D02*
X191264342Y-129915714D01*
X191264342Y-129915714D02*
X191359580Y-129963333D01*
X191359580Y-129963333D02*
X191407200Y-130010952D01*
X191407200Y-130010952D02*
X191454819Y-130106190D01*
X191454819Y-130106190D02*
X191454819Y-130201428D01*
X191454819Y-130201428D02*
X191407200Y-130296666D01*
X191407200Y-130296666D02*
X191359580Y-130344285D01*
X191359580Y-130344285D02*
X191264342Y-130391904D01*
X191264342Y-130391904D02*
X191073866Y-130439523D01*
X191073866Y-130439523D02*
X190835771Y-130439523D01*
X190835771Y-130439523D02*
X190645295Y-130391904D01*
X190645295Y-130391904D02*
X190550057Y-130344285D01*
X190550057Y-130344285D02*
X190502438Y-130296666D01*
X190502438Y-130296666D02*
X190454819Y-130201428D01*
X164565105Y-107895719D02*
X164565105Y-106895719D01*
X164565105Y-106895719D02*
X164803200Y-106895719D01*
X164803200Y-106895719D02*
X164946057Y-106943338D01*
X164946057Y-106943338D02*
X165041295Y-107038576D01*
X165041295Y-107038576D02*
X165088914Y-107133814D01*
X165088914Y-107133814D02*
X165136533Y-107324290D01*
X165136533Y-107324290D02*
X165136533Y-107467147D01*
X165136533Y-107467147D02*
X165088914Y-107657623D01*
X165088914Y-107657623D02*
X165041295Y-107752861D01*
X165041295Y-107752861D02*
X164946057Y-107848100D01*
X164946057Y-107848100D02*
X164803200Y-107895719D01*
X164803200Y-107895719D02*
X164565105Y-107895719D01*
X166088914Y-107895719D02*
X165517486Y-107895719D01*
X165803200Y-107895719D02*
X165803200Y-106895719D01*
X165803200Y-106895719D02*
X165707962Y-107038576D01*
X165707962Y-107038576D02*
X165612724Y-107133814D01*
X165612724Y-107133814D02*
X165517486Y-107181433D01*
D12*
%TO.C,R5*%
X158608500Y-128354858D02*
X158608500Y-127880342D01*
X159653500Y-128354858D02*
X159653500Y-127880342D01*
%TO.C,C11*%
X171498748Y-132210000D02*
X172921252Y-132210000D01*
X171498748Y-134030000D02*
X172921252Y-134030000D01*
%TO.C,C8*%
X167921252Y-129460000D02*
X166498748Y-129460000D01*
X167921252Y-131280000D02*
X166498748Y-131280000D01*
%TO.C,R1*%
X161273258Y-110475500D02*
X160798742Y-110475500D01*
X161273258Y-111520500D02*
X160798742Y-111520500D01*
%TO.C,L1*%
X171110000Y-119620000D02*
X171110000Y-122370000D01*
X171110000Y-128370000D02*
X171110000Y-131120000D01*
X171760000Y-118970000D02*
X183260000Y-118970000D01*
X183260000Y-131770000D02*
X171760000Y-131770000D01*
X183910000Y-119620000D02*
X183910000Y-122370000D01*
X183910000Y-128370000D02*
X183910000Y-131120000D01*
X171110000Y-119620000D02*
G75*
G02*
X171760000Y-118970000I650001J-1D01*
G01*
X171760000Y-131770000D02*
G75*
G02*
X171110000Y-131120000I1J650001D01*
G01*
X183260000Y-118970000D02*
G75*
G02*
X183910000Y-119620000I0J-650000D01*
G01*
X183910000Y-131120000D02*
G75*
G02*
X183260000Y-131770000I-650000J0D01*
G01*
%TO.C,FB1*%
X161923000Y-117210721D02*
X161923000Y-117536279D01*
X162943000Y-117210721D02*
X162943000Y-117536279D01*
%TO.C,R6*%
X162622742Y-127677500D02*
X163097258Y-127677500D01*
X162622742Y-128722500D02*
X163097258Y-128722500D01*
%TO.C,R9*%
X188732700Y-134116458D02*
X188732700Y-133641942D01*
X189777700Y-134116458D02*
X189777700Y-133641942D01*
%TO.C,C18*%
X163040580Y-142690000D02*
X162759420Y-142690000D01*
X163040580Y-143710000D02*
X162759420Y-143710000D01*
%TO.C,C7*%
X167998748Y-122385000D02*
X168521252Y-122385000D01*
X167998748Y-123855000D02*
X168521252Y-123855000D01*
%TO.C,U4*%
X159700000Y-121900000D02*
X159700000Y-123300000D01*
X162020000Y-121890000D02*
X162020000Y-123300000D01*
X162300000Y-121760000D02*
X161970000Y-121520000D01*
X162300000Y-121280000D01*
X162300000Y-121760000D01*
G36*
X162300000Y-121760000D02*
G01*
X161970000Y-121520000D01*
X162300000Y-121280000D01*
X162300000Y-121760000D01*
G37*
%TO.C,J1*%
X168240000Y-102190000D02*
X168240000Y-108160000D01*
X168240000Y-108160000D02*
X180860000Y-108160000D01*
X168250000Y-105900000D02*
X169000000Y-105900000D01*
X168250000Y-107400000D02*
X168250000Y-108150000D01*
X168250000Y-108150000D02*
X170050000Y-108150000D01*
X169000000Y-102950000D02*
X174550000Y-102950000D01*
X169000000Y-105900000D02*
X169000000Y-102950000D01*
X170050000Y-107400000D02*
X168250000Y-107400000D01*
X170050000Y-108150000D02*
X170050000Y-107400000D01*
X171550000Y-107400000D02*
X171550000Y-108150000D01*
X171550000Y-108150000D02*
X177550000Y-108150000D01*
X177550000Y-107400000D02*
X171550000Y-107400000D01*
X177550000Y-108150000D02*
X177550000Y-107400000D01*
X179050000Y-107400000D02*
X179050000Y-108150000D01*
X179050000Y-108150000D02*
X180850000Y-108150000D01*
X179900000Y-108450000D02*
X181150000Y-108450000D01*
X180100000Y-102950000D02*
X174550000Y-102950000D01*
X180100000Y-105900000D02*
X180100000Y-102950000D01*
X180850000Y-105900000D02*
X180100000Y-105900000D01*
X180850000Y-107400000D02*
X179050000Y-107400000D01*
X180850000Y-108150000D02*
X180850000Y-107400000D01*
X180860000Y-102190000D02*
X168240000Y-102190000D01*
X180860000Y-108160000D02*
X180860000Y-102190000D01*
X181150000Y-108450000D02*
X181150000Y-107200000D01*
%TO.C,D3*%
X182834000Y-145670000D02*
X177324000Y-145670000D01*
X182834000Y-148970000D02*
X177324000Y-148970000D01*
X182834000Y-148970000D02*
X182834000Y-145670000D01*
%TO.C,F3*%
X175650000Y-135530000D02*
X175650000Y-142470000D01*
X175650000Y-142470000D02*
X191850000Y-142470000D01*
X182150000Y-137000000D02*
X185350000Y-137000000D01*
X184500000Y-139000000D02*
X183000000Y-139000000D01*
X185350000Y-141000000D02*
X182150000Y-141000000D01*
X191850000Y-135530000D02*
X175650000Y-135530000D01*
X191850000Y-142470000D02*
X191850000Y-135530000D01*
%TO.C,R8*%
X186662258Y-131877500D02*
X186187742Y-131877500D01*
X186662258Y-132922500D02*
X186187742Y-132922500D01*
%TO.C,C3*%
X172312420Y-117346000D02*
X172593580Y-117346000D01*
X172312420Y-118366000D02*
X172593580Y-118366000D01*
%TO.C,U6*%
X165070000Y-124480000D02*
X169350000Y-124480000D01*
X169350000Y-128750000D01*
X165070000Y-128750000D01*
X165070000Y-124480000D01*
X164910000Y-124820000D02*
X164610000Y-125020000D01*
X164610000Y-124620000D01*
X164910000Y-124820000D01*
G36*
X164910000Y-124820000D02*
G01*
X164610000Y-125020000D01*
X164610000Y-124620000D01*
X164910000Y-124820000D01*
G37*
%TO.C,C4*%
X167250580Y-119260000D02*
X166969420Y-119260000D01*
X167250580Y-120280000D02*
X166969420Y-120280000D01*
%TO.C,J4*%
X192380000Y-102830000D02*
X206620000Y-102830000D01*
X192380000Y-135370000D02*
X192380000Y-102830000D01*
X192380000Y-135370000D02*
X206620000Y-135370000D01*
X192500000Y-103750000D02*
X206500000Y-103750000D01*
X192500000Y-108750000D02*
X192500000Y-103750000D01*
X192500000Y-108750000D02*
X206500000Y-108750000D01*
X192500000Y-108750000D02*
X206500000Y-108750000D01*
X192500000Y-113750000D02*
X192500000Y-108750000D01*
X192500000Y-113750000D02*
X206500000Y-113750000D01*
X192500000Y-113750000D02*
X206500000Y-113750000D01*
X192500000Y-118750000D02*
X192500000Y-113750000D01*
X192500000Y-118750000D02*
X206500000Y-118750000D01*
X192500000Y-118750000D02*
X206500000Y-118750000D01*
X192500000Y-123750000D02*
X192500000Y-118750000D01*
X192500000Y-123750000D02*
X206500000Y-123750000D01*
X192500000Y-123750000D02*
X206500000Y-123750000D01*
X192500000Y-128750000D02*
X192500000Y-123750000D01*
X192500000Y-128750000D02*
X206500000Y-128750000D01*
X192500000Y-128750000D02*
X206500000Y-128750000D01*
X192500000Y-133750000D02*
X192500000Y-128750000D01*
X192500000Y-133750000D02*
X206500000Y-133750000D01*
X192850000Y-105750000D02*
X195349000Y-105750000D01*
X192850000Y-106750000D02*
X192850000Y-105750000D01*
X192850000Y-106750000D02*
X195349000Y-106750000D01*
X192850000Y-110750000D02*
X195349000Y-110750000D01*
X192850000Y-111750000D02*
X192850000Y-110750000D01*
X192850000Y-111750000D02*
X195349000Y-111750000D01*
X192850000Y-115750000D02*
X195349000Y-115750000D01*
X192850000Y-116750000D02*
X192850000Y-115750000D01*
X192850000Y-116750000D02*
X195349000Y-116750000D01*
X192850000Y-120750000D02*
X195349000Y-120750000D01*
X192850000Y-121750000D02*
X192850000Y-120750000D01*
X192850000Y-121750000D02*
X195349000Y-121750000D01*
X192850000Y-125750000D02*
X195349000Y-125750000D01*
X192850000Y-126750000D02*
X192850000Y-125750000D01*
X192850000Y-126750000D02*
X195349000Y-126750000D01*
X192850000Y-130750000D02*
X195349000Y-130750000D01*
X192850000Y-131750000D02*
X192850000Y-130750000D01*
X192850000Y-131750000D02*
X195349000Y-131750000D01*
X195349000Y-106750000D02*
X195349000Y-105750000D01*
X195349000Y-111750000D02*
X195349000Y-110750000D01*
X195349000Y-116750000D02*
X195349000Y-115750000D01*
X195349000Y-121750000D02*
X195349000Y-120750000D01*
X195349000Y-126750000D02*
X195349000Y-125750000D01*
X195349000Y-131750000D02*
X195349000Y-130750000D01*
X197000000Y-105520000D02*
X197000000Y-102830000D01*
X197000000Y-110520000D02*
X197000000Y-107980000D01*
X197000000Y-115520000D02*
X197000000Y-112980000D01*
X197000000Y-120520000D02*
X197000000Y-117980000D01*
X197000000Y-125520000D02*
X197000000Y-122980000D01*
X197000000Y-130520000D02*
X197000000Y-127980000D01*
X197000000Y-135370000D02*
X197000000Y-132980000D01*
X199800000Y-135370000D02*
X199800000Y-102830000D01*
X200200000Y-104250000D02*
X201200000Y-104250000D01*
X200200000Y-108250000D02*
X200200000Y-104250000D01*
X200200000Y-108250000D02*
X201200000Y-108250000D01*
X200200000Y-109250000D02*
X201200000Y-109250000D01*
X200200000Y-113250000D02*
X200200000Y-109250000D01*
X200200000Y-113250000D02*
X201200000Y-113250000D01*
X200200000Y-114250000D02*
X201200000Y-114250000D01*
X200200000Y-118250000D02*
X200200000Y-114250000D01*
X200200000Y-118250000D02*
X201200000Y-118250000D01*
X200200000Y-119250000D02*
X201200000Y-119250000D01*
X200200000Y-123250000D02*
X200200000Y-119250000D01*
X200200000Y-123250000D02*
X201200000Y-123250000D01*
X200200000Y-124250000D02*
X201200000Y-124250000D01*
X200200000Y-128250000D02*
X200200000Y-124250000D01*
X200200000Y-128250000D02*
X201200000Y-128250000D01*
X200200000Y-129250000D02*
X201200000Y-129250000D01*
X200200000Y-133250000D02*
X200200000Y-129250000D01*
X200200000Y-133250000D02*
X201200000Y-133250000D01*
X201200000Y-105520000D02*
X201200000Y-104250000D01*
X201200000Y-108250000D02*
X201200000Y-107980000D01*
X201200000Y-110520000D02*
X201200000Y-109250000D01*
X201200000Y-113250000D02*
X201200000Y-112980000D01*
X201200000Y-115520000D02*
X201200000Y-114250000D01*
X201200000Y-118250000D02*
X201200000Y-117980000D01*
X201200000Y-120520000D02*
X201200000Y-119250000D01*
X201200000Y-123250000D02*
X201200000Y-122980000D01*
X201200000Y-125520000D02*
X201200000Y-124250000D01*
X201200000Y-128250000D02*
X201200000Y-127980000D01*
X201200000Y-130520000D02*
X201200000Y-129250000D01*
X201200000Y-133250000D02*
X201200000Y-132980000D01*
X201900000Y-104250000D02*
X205200000Y-104250000D01*
X201900000Y-105520000D02*
X201900000Y-104250000D01*
X201900000Y-108250000D02*
X201900000Y-107980000D01*
X201900000Y-108250000D02*
X205200000Y-108250000D01*
X201900000Y-109250000D02*
X205200000Y-109250000D01*
X201900000Y-110520000D02*
X201900000Y-109250000D01*
X201900000Y-113250000D02*
X201900000Y-112980000D01*
X201900000Y-113250000D02*
X205200000Y-113250000D01*
X201900000Y-114250000D02*
X205200000Y-114250000D01*
X201900000Y-115520000D02*
X201900000Y-114250000D01*
X201900000Y-118250000D02*
X201900000Y-117980000D01*
X201900000Y-118250000D02*
X205200000Y-118250000D01*
X201900000Y-119250000D02*
X205200000Y-119250000D01*
X201900000Y-120520000D02*
X201900000Y-119250000D01*
X201900000Y-123250000D02*
X201900000Y-122980000D01*
X201900000Y-123250000D02*
X205200000Y-123250000D01*
X201900000Y-124250000D02*
X205200000Y-124250000D01*
X201900000Y-125520000D02*
X201900000Y-124250000D01*
X201900000Y-128250000D02*
X201900000Y-127980000D01*
X201900000Y-128250000D02*
X205200000Y-128250000D01*
X201900000Y-129250000D02*
X205200000Y-129250000D01*
X201900000Y-130520000D02*
X201900000Y-129250000D01*
X201900000Y-133250000D02*
X201900000Y-132980000D01*
X201900000Y-133250000D02*
X205200000Y-133250000D01*
X205200000Y-108250000D02*
X205200000Y-104250000D01*
X205200000Y-113250000D02*
X205200000Y-109250000D01*
X205200000Y-118250000D02*
X205200000Y-114250000D01*
X205200000Y-123250000D02*
X205200000Y-119250000D01*
X205200000Y-128250000D02*
X205200000Y-124250000D01*
X205200000Y-133250000D02*
X205200000Y-129250000D01*
X205500000Y-135370000D02*
X205500000Y-102830000D01*
X205620000Y-135610000D02*
X206860000Y-135610000D01*
X206500000Y-108750000D02*
X206500000Y-103750000D01*
X206500000Y-113750000D02*
X206500000Y-108750000D01*
X206500000Y-118750000D02*
X206500000Y-113750000D01*
X206500000Y-123750000D02*
X206500000Y-118750000D01*
X206500000Y-128750000D02*
X206500000Y-123750000D01*
X206500000Y-133750000D02*
X206500000Y-128750000D01*
X206620000Y-135370000D02*
X206620000Y-102830000D01*
X206860000Y-135610000D02*
X206860000Y-134610000D01*
%TO.C,L2*%
X161000000Y-138900000D02*
X164000000Y-138900000D01*
X161000000Y-142300000D02*
X164000000Y-142300000D01*
%TO.C,RN1*%
X170019600Y-109570800D02*
X169019600Y-109570800D01*
X170019600Y-111510800D02*
X169019600Y-111510800D01*
%TO.C,J5*%
X192380000Y-132830000D02*
X206620000Y-132830000D01*
X192380000Y-150370000D02*
X192380000Y-132830000D01*
X192380000Y-150370000D02*
X206620000Y-150370000D01*
X192500000Y-133750000D02*
X206500000Y-133750000D01*
X192500000Y-141250000D02*
X192500000Y-133750000D01*
X192500000Y-141250000D02*
X206500000Y-141250000D01*
X192500000Y-141250000D02*
X206500000Y-141250000D01*
X192500000Y-148750000D02*
X192500000Y-141250000D01*
X192500000Y-148750000D02*
X206500000Y-148750000D01*
X192850000Y-138250000D02*
X195349000Y-138250000D01*
X192850000Y-139250000D02*
X192850000Y-138250000D01*
X192850000Y-139250000D02*
X195349000Y-139250000D01*
X192850000Y-145750000D02*
X195349000Y-145750000D01*
X192850000Y-146750000D02*
X192850000Y-145750000D01*
X192850000Y-146750000D02*
X195349000Y-146750000D01*
X195349000Y-139250000D02*
X195349000Y-138250000D01*
X195349000Y-146750000D02*
X195349000Y-145750000D01*
X197000000Y-138020000D02*
X197000000Y-132830000D01*
X197000000Y-145520000D02*
X197000000Y-140480000D01*
X197000000Y-150370000D02*
X197000000Y-147980000D01*
X199800000Y-150370000D02*
X199800000Y-132830000D01*
X200200000Y-136750000D02*
X201200000Y-136750000D01*
X200200000Y-140750000D02*
X200200000Y-136750000D01*
X200200000Y-140750000D02*
X201200000Y-140750000D01*
X200200000Y-144250000D02*
X201200000Y-144250000D01*
X200200000Y-148250000D02*
X200200000Y-144250000D01*
X200200000Y-148250000D02*
X201200000Y-148250000D01*
X201200000Y-138020000D02*
X201200000Y-136750000D01*
X201200000Y-140750000D02*
X201200000Y-140480000D01*
X201200000Y-145520000D02*
X201200000Y-144250000D01*
X201200000Y-148250000D02*
X201200000Y-147980000D01*
X201900000Y-136750000D02*
X205200000Y-136750000D01*
X201900000Y-138020000D02*
X201900000Y-136750000D01*
X201900000Y-140750000D02*
X201900000Y-140480000D01*
X201900000Y-140750000D02*
X205200000Y-140750000D01*
X201900000Y-144250000D02*
X205200000Y-144250000D01*
X201900000Y-145520000D02*
X201900000Y-144250000D01*
X201900000Y-148250000D02*
X201900000Y-147980000D01*
X201900000Y-148250000D02*
X205200000Y-148250000D01*
X205200000Y-140750000D02*
X205200000Y-136750000D01*
X205200000Y-148250000D02*
X205200000Y-144250000D01*
X205500000Y-150370000D02*
X205500000Y-132830000D01*
X205620000Y-150610000D02*
X206860000Y-150610000D01*
X206500000Y-141250000D02*
X206500000Y-133750000D01*
X206500000Y-148750000D02*
X206500000Y-141250000D01*
X206620000Y-150370000D02*
X206620000Y-132830000D01*
X206860000Y-150610000D02*
X206860000Y-149610000D01*
%TO.C,C1*%
X161923000Y-114159420D02*
X161923000Y-114440580D01*
X162943000Y-114159420D02*
X162943000Y-114440580D01*
%TO.C,J3*%
X158910000Y-112370000D02*
X160020000Y-112370000D01*
X158910000Y-113130000D02*
X158910000Y-112370000D01*
X158910000Y-113890000D02*
X158910000Y-117635000D01*
X158910000Y-113890000D02*
X159456529Y-113890000D01*
X158910000Y-117635000D02*
X159712470Y-117635000D01*
X160327530Y-117635000D02*
X161130000Y-117635000D01*
X160583471Y-113890000D02*
X161130000Y-113890000D01*
X161130000Y-113890000D02*
X161130000Y-117635000D01*
%TO.C,C2*%
X172312420Y-115695000D02*
X172593580Y-115695000D01*
X172312420Y-116715000D02*
X172593580Y-116715000D01*
%TO.C,R2*%
X167347258Y-120747500D02*
X166872742Y-120747500D01*
X167347258Y-121792500D02*
X166872742Y-121792500D01*
%TO.C,C17*%
X164640000Y-135640000D02*
X168490000Y-135640000D01*
X164640000Y-145295563D02*
X164640000Y-135640000D01*
X165704437Y-146360000D02*
X164640000Y-145295563D01*
X165704437Y-146360000D02*
X168490000Y-146360000D01*
X166615000Y-147225000D02*
X167865000Y-147225000D01*
X167240000Y-147850000D02*
X167240000Y-146600000D01*
X174295563Y-146360000D02*
X171510000Y-146360000D01*
X174295563Y-146360000D02*
X175360000Y-145295563D01*
X175360000Y-135640000D02*
X171510000Y-135640000D01*
X175360000Y-145295563D02*
X175360000Y-135640000D01*
%TO.C,R7*%
X158811700Y-131389658D02*
X158811700Y-130915142D01*
X159856700Y-131389658D02*
X159856700Y-130915142D01*
%TO.C,U7*%
X161040000Y-136737500D02*
X161040000Y-135937500D01*
X161040000Y-136737500D02*
X161040000Y-137537500D01*
X164160000Y-136737500D02*
X164160000Y-135937500D01*
X164160000Y-136737500D02*
X164160000Y-137537500D01*
X164440000Y-135677500D02*
X164110000Y-135437500D01*
X164440000Y-135197500D01*
X164440000Y-135677500D01*
G36*
X164440000Y-135677500D02*
G01*
X164110000Y-135437500D01*
X164440000Y-135197500D01*
X164440000Y-135677500D01*
G37*
%TO.C,C5*%
X163794420Y-120610000D02*
X164075580Y-120610000D01*
X163794420Y-121630000D02*
X164075580Y-121630000D01*
%TO.C,D2*%
X177420000Y-108940000D02*
X178830000Y-108940000D01*
X177420000Y-111260000D02*
X178830000Y-111260000D01*
X178830000Y-108940000D02*
X178830000Y-109600000D01*
X178830000Y-110600000D02*
X178830000Y-111260000D01*
X177050000Y-108960000D02*
X176810000Y-108630000D01*
X177290000Y-108630000D01*
X177050000Y-108960000D01*
G36*
X177050000Y-108960000D02*
G01*
X176810000Y-108630000D01*
X177290000Y-108630000D01*
X177050000Y-108960000D01*
G37*
%TO.C,U5*%
X185900000Y-123115000D02*
X186300000Y-123115000D01*
X185900000Y-125175000D02*
X185900000Y-123115000D01*
X185900000Y-125175000D02*
X185900000Y-127235000D01*
X185900000Y-127235000D02*
X186300000Y-127235000D01*
X191020000Y-123115000D02*
X190620000Y-123115000D01*
X191020000Y-125175000D02*
X191020000Y-123115000D01*
X191020000Y-125175000D02*
X191020000Y-127235000D01*
X191020000Y-127235000D02*
X190620000Y-127235000D01*
X186300000Y-127850000D02*
X185970000Y-128090000D01*
X185970000Y-127610000D01*
X186300000Y-127850000D01*
G36*
X186300000Y-127850000D02*
G01*
X185970000Y-128090000D01*
X185970000Y-127610000D01*
X186300000Y-127850000D01*
G37*
%TO.C,C15*%
X158865000Y-137588748D02*
X158865000Y-138111252D01*
X160335000Y-137588748D02*
X160335000Y-138111252D01*
%TO.C,U1*%
X171540000Y-113300000D02*
X171540000Y-112500000D01*
X171540000Y-113300000D02*
X171540000Y-114100000D01*
X174660000Y-113300000D02*
X174660000Y-112500000D01*
X174660000Y-113300000D02*
X174660000Y-114100000D01*
X171615000Y-114600000D02*
X171285000Y-114840000D01*
X171285000Y-114360000D01*
X171615000Y-114600000D01*
G36*
X171615000Y-114600000D02*
G01*
X171285000Y-114840000D01*
X171285000Y-114360000D01*
X171615000Y-114600000D01*
G37*
%TO.C,C10*%
X167921252Y-131960000D02*
X166498748Y-131960000D01*
X167921252Y-133780000D02*
X166498748Y-133780000D01*
%TO.C,U2*%
X167062500Y-111940000D02*
X164862500Y-111940000D01*
X167062500Y-111940000D02*
X169262500Y-111940000D01*
X167062500Y-118710000D02*
X164862500Y-118710000D01*
X167062500Y-118710000D02*
X169262500Y-118710000D01*
X163202500Y-112400000D02*
X162872500Y-112640000D01*
X162872500Y-112160000D01*
X163202500Y-112400000D01*
G36*
X163202500Y-112400000D02*
G01*
X162872500Y-112640000D01*
X162872500Y-112160000D01*
X163202500Y-112400000D01*
G37*
%TO.C,C13*%
X180998748Y-132210000D02*
X182421252Y-132210000D01*
X180998748Y-134030000D02*
X182421252Y-134030000D01*
%TO.C,C12*%
X176248748Y-132210000D02*
X177671252Y-132210000D01*
X176248748Y-134030000D02*
X177671252Y-134030000D01*
%TO.C,U3*%
X160725000Y-118390000D02*
X159325000Y-118390000D01*
X160735000Y-120710000D02*
X159325000Y-120710000D01*
X161345000Y-120990000D02*
X160865000Y-120990000D01*
X161105000Y-120660000D01*
X161345000Y-120990000D01*
G36*
X161345000Y-120990000D02*
G01*
X160865000Y-120990000D01*
X161105000Y-120660000D01*
X161345000Y-120990000D01*
G37*
%TO.C,R4*%
X163097258Y-126077500D02*
X162622742Y-126077500D01*
X163097258Y-127122500D02*
X162622742Y-127122500D01*
%TO.C,R3*%
X163097258Y-124477500D02*
X162622742Y-124477500D01*
X163097258Y-125522500D02*
X162622742Y-125522500D01*
%TO.C,C9*%
X162550000Y-132331252D02*
X162550000Y-130908748D01*
X164370000Y-132331252D02*
X164370000Y-130908748D01*
%TO.C,C14*%
X158865000Y-134661252D02*
X158865000Y-134138748D01*
X160335000Y-134661252D02*
X160335000Y-134138748D01*
%TO.C,C16*%
X158865000Y-141511252D02*
X158865000Y-140988748D01*
X160335000Y-141511252D02*
X160335000Y-140988748D01*
%TO.C,C6*%
X164521252Y-122385000D02*
X163998748Y-122385000D01*
X164521252Y-123855000D02*
X163998748Y-123855000D01*
%TO.C,F1*%
X166041000Y-104848922D02*
X166041000Y-105366078D01*
X167461000Y-104848922D02*
X167461000Y-105366078D01*
%TO.C,J2*%
X181390000Y-101840000D02*
X183800000Y-101840000D01*
X181390000Y-104250000D02*
X181390000Y-101840000D01*
X181690000Y-102140000D02*
X181690000Y-110860000D01*
X181690000Y-110860000D02*
X191310000Y-110860000D01*
X182300000Y-103750000D02*
X182300000Y-109250000D01*
X182300000Y-109250000D02*
X184600000Y-109250000D01*
X184600000Y-109250000D02*
X184600000Y-110250000D01*
X184600000Y-110250000D02*
X187200000Y-110250000D01*
X187200000Y-109250000D02*
X188100000Y-109250000D01*
X187200000Y-110250000D02*
X187200000Y-109250000D01*
X188100000Y-109250000D02*
X188100000Y-110250000D01*
X188100000Y-110250000D02*
X190700000Y-110250000D01*
X190700000Y-103750000D02*
X182300000Y-103750000D01*
X190700000Y-110250000D02*
X190700000Y-103750000D01*
X191310000Y-102140000D02*
X181690000Y-102140000D01*
X191310000Y-110860000D02*
X191310000Y-102140000D01*
%TO.C,U8*%
X176100000Y-142990000D02*
X178100000Y-142990000D01*
X176100000Y-145210000D02*
X178100000Y-145210000D01*
X175860000Y-143090000D02*
X175580000Y-143090000D01*
X175860000Y-142810000D01*
X175860000Y-143090000D01*
G36*
X175860000Y-143090000D02*
G01*
X175580000Y-143090000D01*
X175860000Y-142810000D01*
X175860000Y-143090000D01*
G37*
%TO.C,F2*%
X175400000Y-111780000D02*
X175400000Y-118720000D01*
X175400000Y-118720000D02*
X191600000Y-118720000D01*
X181900000Y-113250000D02*
X185100000Y-113250000D01*
X182750000Y-115250000D02*
X184250000Y-115250000D01*
X185100000Y-117250000D02*
X181900000Y-117250000D01*
X191600000Y-111780000D02*
X175400000Y-111780000D01*
X191600000Y-118720000D02*
X191600000Y-111780000D01*
%TO.C,R10*%
X190232700Y-133641942D02*
X190232700Y-134116458D01*
X191277700Y-133641942D02*
X191277700Y-134116458D01*
%TO.C,D1*%
X165303200Y-108280900D02*
X164503200Y-108280900D01*
X165303200Y-108280900D02*
X166103200Y-108280900D01*
X165303200Y-111400900D02*
X164503200Y-111400900D01*
X165303200Y-111400900D02*
X166103200Y-111400900D01*
X164003200Y-108330900D02*
X163763200Y-108000900D01*
X164243200Y-108000900D01*
X164003200Y-108330900D01*
G36*
X164003200Y-108330900D02*
G01*
X163763200Y-108000900D01*
X164243200Y-108000900D01*
X164003200Y-108330900D01*
G37*
%TD*%
M02*
