%TF.GenerationSoftware,KiCad,Pcbnew,8.0.3*%
%TF.CreationDate,2024-06-13T00:49:58+02:00*%
%TF.ProjectId,can-proto,63616e2d-7072-46f7-946f-2e6b69636164,1*%
%TF.SameCoordinates,Original*%
%TF.FileFunction,Copper,L2,Bot*%
%TF.FilePolarity,Positive*%
%FSLAX46Y46*%
G04 Gerber Fmt 4.6, Leading zero omitted, Abs format (unit mm)*
G04 Created by KiCad (PCBNEW 8.0.3) date 2024-06-13 00:49:58*
%MOMM*%
%LPD*%
G01*
G04 APERTURE LIST*
G04 Aperture macros list*
%AMRoundRect*
0 Rectangle with rounded corners*
0 $1 Rounding radius*
0 $2 $3 $4 $5 $6 $7 $8 $9 X,Y pos of 4 corners*
0 Add a 4 corners polygon primitive as box body*
4,1,4,$2,$3,$4,$5,$6,$7,$8,$9,$2,$3,0*
0 Add four circle primitives for the rounded corners*
1,1,$1+$1,$2,$3*
1,1,$1+$1,$4,$5*
1,1,$1+$1,$6,$7*
1,1,$1+$1,$8,$9*
0 Add four rect primitives between the rounded corners*
20,1,$1+$1,$2,$3,$4,$5,0*
20,1,$1+$1,$4,$5,$6,$7,0*
20,1,$1+$1,$6,$7,$8,$9,0*
20,1,$1+$1,$8,$9,$2,$3,0*%
G04 Aperture macros list end*
%TA.AperFunction,ComponentPad*%
%ADD10RoundRect,0.360000X-0.540000X-0.540000X0.540000X-0.540000X0.540000X0.540000X-0.540000X0.540000X0*%
%TD*%
%TA.AperFunction,ComponentPad*%
%ADD11RoundRect,0.250000X1.050000X-0.750000X1.050000X0.750000X-1.050000X0.750000X-1.050000X-0.750000X0*%
%TD*%
%TA.AperFunction,ComponentPad*%
%ADD12O,2.600000X2.000000*%
%TD*%
%TA.AperFunction,ComponentPad*%
%ADD13R,1.000000X1.000000*%
%TD*%
%TA.AperFunction,ComponentPad*%
%ADD14O,1.000000X1.000000*%
%TD*%
%TA.AperFunction,ViaPad*%
%ADD15C,0.700000*%
%TD*%
%TA.AperFunction,ViaPad*%
%ADD16C,1.000000*%
%TD*%
%TA.AperFunction,ViaPad*%
%ADD17C,0.500000*%
%TD*%
%TA.AperFunction,ViaPad*%
%ADD18C,0.800000*%
%TD*%
%TA.AperFunction,Conductor*%
%ADD19C,0.750000*%
%TD*%
%TA.AperFunction,Conductor*%
%ADD20C,0.350000*%
%TD*%
G04 APERTURE END LIST*
D10*
%TO.P,TP28,1,1*%
%TO.N,unconnected-(TP28-Pad1)*%
X146840000Y-68900000D03*
%TD*%
%TO.P,TP102,1,1*%
%TO.N,unconnected-(TP102-Pad1)*%
X151920000Y-84140000D03*
%TD*%
%TO.P,TP121,1,1*%
%TO.N,unconnected-(TP121-Pad1)*%
X139220000Y-89220000D03*
%TD*%
%TO.P,TP113,1,1*%
%TO.N,unconnected-(TP113-Pad1)*%
X149380000Y-86680000D03*
%TD*%
%TO.P,TP160,1,1*%
%TO.N,unconnected-(TP160-Pad1)*%
X146840000Y-96840000D03*
%TD*%
%TO.P,TP139,1,1*%
%TO.N,unconnected-(TP139-Pad1)*%
X154460000Y-91760000D03*
%TD*%
%TO.P,TP166,1,1*%
%TO.N,unconnected-(TP166-Pad1)*%
X131600000Y-99380000D03*
%TD*%
%TO.P,TP45,1,1*%
%TO.N,/PA4*%
X129060000Y-73980000D03*
%TD*%
%TO.P,TP23,1,1*%
%TO.N,unconnected-(TP23-Pad1)*%
X134140000Y-68900000D03*
%TD*%
%TO.P,TP193,1,1*%
%TO.N,unconnected-(TP193-Pad1)*%
X139220000Y-104460000D03*
%TD*%
%TO.P,TP135,1,1*%
%TO.N,unconnected-(TP135-Pad1)*%
X144300000Y-91760000D03*
%TD*%
%TO.P,TP119,1,1*%
%TO.N,unconnected-(TP119-Pad1)*%
X134140000Y-89220000D03*
%TD*%
%TO.P,TP131,1,1*%
%TO.N,unconnected-(TP131-Pad1)*%
X134140000Y-91760000D03*
%TD*%
%TO.P,TP59,1,1*%
%TO.N,unconnected-(TP59-Pad1)*%
X134140000Y-76520000D03*
%TD*%
%TO.P,TP12,1,1*%
%TO.N,unconnected-(TP12-Pad1)*%
X131600000Y-66360000D03*
%TD*%
%TO.P,TP3,1,1*%
%TO.N,unconnected-(TP3-Pad1)*%
X134140000Y-63820000D03*
%TD*%
%TO.P,TP73,1,1*%
%TO.N,unconnected-(TP73-Pad1)*%
X139220000Y-79060000D03*
%TD*%
%TO.P,TP180,1,1*%
%TO.N,unconnected-(TP180-Pad1)*%
X136680000Y-101920000D03*
%TD*%
%TO.P,TP55,1,1*%
%TO.N,unconnected-(TP55-Pad1)*%
X154460000Y-73980000D03*
%TD*%
%TO.P,TP107,1,1*%
%TO.N,unconnected-(TP107-Pad1)*%
X134140000Y-86680000D03*
%TD*%
%TO.P,TP6,1,1*%
%TO.N,unconnected-(TP6-Pad1)*%
X141760000Y-63820000D03*
%TD*%
%TO.P,TP154,1,1*%
%TO.N,unconnected-(TP154-Pad1)*%
X131600000Y-96840000D03*
%TD*%
%TO.P,TP42,1,1*%
%TO.N,unconnected-(TP42-Pad1)*%
X151920000Y-71440000D03*
%TD*%
%TO.P,TP4,1,1*%
%TO.N,unconnected-(TP4-Pad1)*%
X136680000Y-63820000D03*
%TD*%
%TO.P,TP82,1,1*%
%TO.N,unconnected-(TP82-Pad1)*%
X131600000Y-81600000D03*
%TD*%
%TO.P,TP79,1,1*%
%TO.N,unconnected-(TP79-Pad1)*%
X154460000Y-79060000D03*
%TD*%
%TO.P,TP10,1,1*%
%TO.N,unconnected-(TP10-Pad1)*%
X151920000Y-63820000D03*
%TD*%
%TO.P,TP208,1,1*%
%TO.N,unconnected-(TP208-Pad1)*%
X151920000Y-107000000D03*
%TD*%
%TO.P,TP56,1,1*%
%TO.N,unconnected-(TP56-Pad1)*%
X157000000Y-73980000D03*
%TD*%
%TO.P,TP182,1,1*%
%TO.N,unconnected-(TP182-Pad1)*%
X141760000Y-101920000D03*
%TD*%
%TO.P,TP167,1,1*%
%TO.N,unconnected-(TP167-Pad1)*%
X134140000Y-99380000D03*
%TD*%
%TO.P,TP101,1,1*%
%TO.N,unconnected-(TP101-Pad1)*%
X149380000Y-84140000D03*
%TD*%
%TO.P,TP36,1,1*%
%TO.N,unconnected-(TP36-Pad1)*%
X136680000Y-71440000D03*
%TD*%
%TO.P,TP70,1,1*%
%TO.N,unconnected-(TP70-Pad1)*%
X131600000Y-79060000D03*
%TD*%
%TO.P,TP57,1,1*%
%TO.N,/PA3*%
X129060000Y-76520000D03*
%TD*%
%TO.P,TP48,1,1*%
%TO.N,unconnected-(TP48-Pad1)*%
X136680000Y-73980000D03*
%TD*%
%TO.P,TP26,1,1*%
%TO.N,unconnected-(TP26-Pad1)*%
X141760000Y-68900000D03*
%TD*%
%TO.P,TP99,1,1*%
%TO.N,unconnected-(TP99-Pad1)*%
X144300000Y-84140000D03*
%TD*%
%TO.P,TP72,1,1*%
%TO.N,unconnected-(TP72-Pad1)*%
X136680000Y-79060000D03*
%TD*%
%TO.P,TP138,1,1*%
%TO.N,unconnected-(TP138-Pad1)*%
X151920000Y-91760000D03*
%TD*%
%TO.P,TP1,1,1*%
%TO.N,GND*%
X129060000Y-63820000D03*
%TD*%
%TO.P,TP69,1,1*%
%TO.N,/PA2*%
X129060000Y-79060000D03*
%TD*%
%TO.P,TP71,1,1*%
%TO.N,unconnected-(TP71-Pad1)*%
X134140000Y-79060000D03*
%TD*%
%TO.P,TP137,1,1*%
%TO.N,unconnected-(TP137-Pad1)*%
X149380000Y-91760000D03*
%TD*%
%TO.P,TP123,1,1*%
%TO.N,unconnected-(TP123-Pad1)*%
X144300000Y-89220000D03*
%TD*%
%TO.P,TP58,1,1*%
%TO.N,unconnected-(TP58-Pad1)*%
X131600000Y-76520000D03*
%TD*%
%TO.P,TP186,1,1*%
%TO.N,unconnected-(TP186-Pad1)*%
X151920000Y-101920000D03*
%TD*%
%TO.P,TP130,1,1*%
%TO.N,unconnected-(TP130-Pad1)*%
X131600000Y-91760000D03*
%TD*%
%TO.P,TP87,1,1*%
%TO.N,unconnected-(TP87-Pad1)*%
X144300000Y-81600000D03*
%TD*%
%TO.P,TP192,1,1*%
%TO.N,unconnected-(TP192-Pad1)*%
X136680000Y-104460000D03*
%TD*%
%TO.P,TP37,1,1*%
%TO.N,unconnected-(TP37-Pad1)*%
X139220000Y-71440000D03*
%TD*%
%TO.P,TP91,1,1*%
%TO.N,unconnected-(TP91-Pad1)*%
X154460000Y-81600000D03*
%TD*%
%TO.P,TP9,1,1*%
%TO.N,unconnected-(TP9-Pad1)*%
X149380000Y-63820000D03*
%TD*%
%TO.P,TP32,1,1*%
%TO.N,unconnected-(TP32-Pad1)*%
X157000000Y-68900000D03*
%TD*%
%TO.P,TP44,1,1*%
%TO.N,unconnected-(TP44-Pad1)*%
X157000000Y-71440000D03*
%TD*%
%TO.P,TP7,1,1*%
%TO.N,unconnected-(TP7-Pad1)*%
X144300000Y-63820000D03*
%TD*%
%TO.P,TP142,1,1*%
%TO.N,unconnected-(TP142-Pad1)*%
X131600000Y-94300000D03*
%TD*%
%TO.P,TP176,1,1*%
%TO.N,unconnected-(TP176-Pad1)*%
X157000000Y-99380000D03*
%TD*%
%TO.P,TP199,1,1*%
%TO.N,GND*%
X129060000Y-107000000D03*
%TD*%
%TO.P,TP153,1,1*%
%TO.N,GND*%
X129060000Y-96840000D03*
%TD*%
%TO.P,TP21,1,1*%
%TO.N,/PA6*%
X129060000Y-68900000D03*
%TD*%
%TO.P,TP179,1,1*%
%TO.N,unconnected-(TP179-Pad1)*%
X134140000Y-101920000D03*
%TD*%
%TO.P,TP183,1,1*%
%TO.N,unconnected-(TP183-Pad1)*%
X144300000Y-101920000D03*
%TD*%
%TO.P,TP76,1,1*%
%TO.N,unconnected-(TP76-Pad1)*%
X146840000Y-79060000D03*
%TD*%
%TO.P,TP110,1,1*%
%TO.N,unconnected-(TP110-Pad1)*%
X141760000Y-86680000D03*
%TD*%
%TO.P,TP118,1,1*%
%TO.N,unconnected-(TP118-Pad1)*%
X131600000Y-89220000D03*
%TD*%
%TO.P,TP158,1,1*%
%TO.N,unconnected-(TP158-Pad1)*%
X141760000Y-96840000D03*
%TD*%
%TO.P,TP207,1,1*%
%TO.N,unconnected-(TP207-Pad1)*%
X149380000Y-107000000D03*
%TD*%
%TO.P,TP15,1,1*%
%TO.N,unconnected-(TP15-Pad1)*%
X139220000Y-66360000D03*
%TD*%
%TO.P,TP126,1,1*%
%TO.N,unconnected-(TP126-Pad1)*%
X151920000Y-89220000D03*
%TD*%
%TO.P,TP155,1,1*%
%TO.N,unconnected-(TP155-Pad1)*%
X134140000Y-96840000D03*
%TD*%
%TO.P,TP185,1,1*%
%TO.N,unconnected-(TP185-Pad1)*%
X149380000Y-101920000D03*
%TD*%
%TO.P,TP108,1,1*%
%TO.N,unconnected-(TP108-Pad1)*%
X136680000Y-86680000D03*
%TD*%
%TO.P,TP189,1,1*%
%TO.N,VDD*%
X129060000Y-104460000D03*
%TD*%
%TO.P,TP146,1,1*%
%TO.N,unconnected-(TP146-Pad1)*%
X141760000Y-94300000D03*
%TD*%
%TO.P,TP112,1,1*%
%TO.N,unconnected-(TP112-Pad1)*%
X146840000Y-86680000D03*
%TD*%
%TO.P,TP116,1,1*%
%TO.N,unconnected-(TP116-Pad1)*%
X157000000Y-86680000D03*
%TD*%
%TO.P,TP114,1,1*%
%TO.N,unconnected-(TP114-Pad1)*%
X151920000Y-86680000D03*
%TD*%
%TO.P,TP197,1,1*%
%TO.N,unconnected-(TP197-Pad1)*%
X149380000Y-104460000D03*
%TD*%
%TO.P,TP2,1,1*%
%TO.N,unconnected-(TP2-Pad1)*%
X131600000Y-63820000D03*
%TD*%
%TO.P,TP163,1,1*%
%TO.N,unconnected-(TP163-Pad1)*%
X154460000Y-96840000D03*
%TD*%
%TO.P,TP191,1,1*%
%TO.N,unconnected-(TP191-Pad1)*%
X134140000Y-104460000D03*
%TD*%
%TO.P,TP177,1,1*%
%TO.N,VDD*%
X129060000Y-101920000D03*
%TD*%
%TO.P,TP156,1,1*%
%TO.N,unconnected-(TP156-Pad1)*%
X136680000Y-96840000D03*
%TD*%
%TO.P,TP173,1,1*%
%TO.N,unconnected-(TP173-Pad1)*%
X149380000Y-99380000D03*
%TD*%
%TO.P,TP14,1,1*%
%TO.N,unconnected-(TP14-Pad1)*%
X136680000Y-66360000D03*
%TD*%
%TO.P,TP11,1,1*%
%TO.N,/PA7*%
X129060000Y-66360000D03*
%TD*%
%TO.P,TP50,1,1*%
%TO.N,unconnected-(TP50-Pad1)*%
X141760000Y-73980000D03*
%TD*%
%TO.P,TP96,1,1*%
%TO.N,unconnected-(TP96-Pad1)*%
X136680000Y-84140000D03*
%TD*%
%TO.P,TP94,1,1*%
%TO.N,unconnected-(TP94-Pad1)*%
X131600000Y-84140000D03*
%TD*%
%TO.P,TP19,1,1*%
%TO.N,unconnected-(TP19-Pad1)*%
X149380000Y-66360000D03*
%TD*%
%TO.P,TP98,1,1*%
%TO.N,unconnected-(TP98-Pad1)*%
X141760000Y-84140000D03*
%TD*%
%TO.P,TP105,1,1*%
%TO.N,/SCL*%
X129060000Y-86680000D03*
%TD*%
%TO.P,TP111,1,1*%
%TO.N,unconnected-(TP111-Pad1)*%
X144300000Y-86680000D03*
%TD*%
%TO.P,TP143,1,1*%
%TO.N,unconnected-(TP143-Pad1)*%
X134140000Y-94300000D03*
%TD*%
%TO.P,TP198,1,1*%
%TO.N,unconnected-(TP198-Pad1)*%
X151920000Y-104460000D03*
%TD*%
%TO.P,TP190,1,1*%
%TO.N,unconnected-(TP190-Pad1)*%
X131600000Y-104460000D03*
%TD*%
%TO.P,TP145,1,1*%
%TO.N,unconnected-(TP145-Pad1)*%
X139220000Y-94300000D03*
%TD*%
%TO.P,TP49,1,1*%
%TO.N,unconnected-(TP49-Pad1)*%
X139220000Y-73980000D03*
%TD*%
%TO.P,TP51,1,1*%
%TO.N,unconnected-(TP51-Pad1)*%
X144300000Y-73980000D03*
%TD*%
D11*
%TO.P,J3,1,Pin_1*%
%TO.N,GND*%
X114900000Y-98150000D03*
D12*
%TO.P,J3,2,Pin_2*%
%TO.N,/VIN*%
X114900000Y-94650000D03*
%TO.P,J3,3,Pin_3*%
%TO.N,GND*%
X114900000Y-91150000D03*
%TD*%
D10*
%TO.P,TP128,1,1*%
%TO.N,unconnected-(TP128-Pad1)*%
X157000000Y-89220000D03*
%TD*%
%TO.P,TP16,1,1*%
%TO.N,unconnected-(TP16-Pad1)*%
X141760000Y-66360000D03*
%TD*%
%TO.P,TP133,1,1*%
%TO.N,unconnected-(TP133-Pad1)*%
X139220000Y-91760000D03*
%TD*%
%TO.P,TP93,1,1*%
%TO.N,/PA0*%
X129060000Y-84140000D03*
%TD*%
%TO.P,TP35,1,1*%
%TO.N,unconnected-(TP35-Pad1)*%
X134140000Y-71440000D03*
%TD*%
%TO.P,TP106,1,1*%
%TO.N,unconnected-(TP106-Pad1)*%
X131600000Y-86680000D03*
%TD*%
%TO.P,TP169,1,1*%
%TO.N,unconnected-(TP169-Pad1)*%
X139220000Y-99380000D03*
%TD*%
%TO.P,TP88,1,1*%
%TO.N,unconnected-(TP88-Pad1)*%
X146840000Y-81600000D03*
%TD*%
%TO.P,TP41,1,1*%
%TO.N,unconnected-(TP41-Pad1)*%
X149380000Y-71440000D03*
%TD*%
%TO.P,TP30,1,1*%
%TO.N,unconnected-(TP30-Pad1)*%
X151920000Y-68900000D03*
%TD*%
%TO.P,TP206,1,1*%
%TO.N,unconnected-(TP206-Pad1)*%
X146840000Y-107000000D03*
%TD*%
%TO.P,TP201,1,1*%
%TO.N,unconnected-(TP201-Pad1)*%
X134140000Y-107000000D03*
%TD*%
%TO.P,TP81,1,1*%
%TO.N,/PA1*%
X129060000Y-81600000D03*
%TD*%
%TO.P,TP115,1,1*%
%TO.N,unconnected-(TP115-Pad1)*%
X154460000Y-86680000D03*
%TD*%
%TO.P,TP5,1,1*%
%TO.N,unconnected-(TP5-Pad1)*%
X139220000Y-63820000D03*
%TD*%
%TO.P,TP175,1,1*%
%TO.N,unconnected-(TP175-Pad1)*%
X154460000Y-99380000D03*
%TD*%
%TO.P,TP67,1,1*%
%TO.N,unconnected-(TP67-Pad1)*%
X154460000Y-76520000D03*
%TD*%
%TO.P,TP151,1,1*%
%TO.N,unconnected-(TP151-Pad1)*%
X154460000Y-94300000D03*
%TD*%
%TO.P,TP24,1,1*%
%TO.N,unconnected-(TP24-Pad1)*%
X136680000Y-68900000D03*
%TD*%
%TO.P,TP22,1,1*%
%TO.N,unconnected-(TP22-Pad1)*%
X131600000Y-68900000D03*
%TD*%
%TO.P,TP178,1,1*%
%TO.N,unconnected-(TP178-Pad1)*%
X131600000Y-101920000D03*
%TD*%
%TO.P,TP92,1,1*%
%TO.N,unconnected-(TP92-Pad1)*%
X157000000Y-81600000D03*
%TD*%
%TO.P,TP132,1,1*%
%TO.N,unconnected-(TP132-Pad1)*%
X136680000Y-91760000D03*
%TD*%
%TO.P,TP66,1,1*%
%TO.N,unconnected-(TP66-Pad1)*%
X151920000Y-76520000D03*
%TD*%
%TO.P,TP122,1,1*%
%TO.N,unconnected-(TP122-Pad1)*%
X141760000Y-89220000D03*
%TD*%
%TO.P,TP140,1,1*%
%TO.N,unconnected-(TP140-Pad1)*%
X157000000Y-91760000D03*
%TD*%
%TO.P,TP38,1,1*%
%TO.N,unconnected-(TP38-Pad1)*%
X141760000Y-71440000D03*
%TD*%
%TO.P,TP84,1,1*%
%TO.N,unconnected-(TP84-Pad1)*%
X136680000Y-81600000D03*
%TD*%
%TO.P,TP85,1,1*%
%TO.N,unconnected-(TP85-Pad1)*%
X139220000Y-81600000D03*
%TD*%
%TO.P,TP127,1,1*%
%TO.N,unconnected-(TP127-Pad1)*%
X154460000Y-89220000D03*
%TD*%
%TO.P,TP204,1,1*%
%TO.N,unconnected-(TP204-Pad1)*%
X141760000Y-107000000D03*
%TD*%
%TO.P,TP195,1,1*%
%TO.N,unconnected-(TP195-Pad1)*%
X144300000Y-104460000D03*
%TD*%
%TO.P,TP17,1,1*%
%TO.N,unconnected-(TP17-Pad1)*%
X144300000Y-66360000D03*
%TD*%
%TO.P,TP144,1,1*%
%TO.N,unconnected-(TP144-Pad1)*%
X136680000Y-94300000D03*
%TD*%
%TO.P,TP149,1,1*%
%TO.N,unconnected-(TP149-Pad1)*%
X149380000Y-94300000D03*
%TD*%
%TO.P,TP46,1,1*%
%TO.N,unconnected-(TP46-Pad1)*%
X131600000Y-73980000D03*
%TD*%
%TO.P,TP47,1,1*%
%TO.N,unconnected-(TP47-Pad1)*%
X134140000Y-73980000D03*
%TD*%
%TO.P,TP150,1,1*%
%TO.N,unconnected-(TP150-Pad1)*%
X151920000Y-94300000D03*
%TD*%
%TO.P,TP97,1,1*%
%TO.N,unconnected-(TP97-Pad1)*%
X139220000Y-84140000D03*
%TD*%
%TO.P,TP159,1,1*%
%TO.N,unconnected-(TP159-Pad1)*%
X144300000Y-96840000D03*
%TD*%
%TO.P,TP74,1,1*%
%TO.N,unconnected-(TP74-Pad1)*%
X141760000Y-79060000D03*
%TD*%
%TO.P,TP90,1,1*%
%TO.N,unconnected-(TP90-Pad1)*%
X151920000Y-81600000D03*
%TD*%
%TO.P,TP62,1,1*%
%TO.N,unconnected-(TP62-Pad1)*%
X141760000Y-76520000D03*
%TD*%
%TO.P,TP78,1,1*%
%TO.N,unconnected-(TP78-Pad1)*%
X151920000Y-79060000D03*
%TD*%
%TO.P,TP40,1,1*%
%TO.N,unconnected-(TP40-Pad1)*%
X146840000Y-71440000D03*
%TD*%
%TO.P,TP13,1,1*%
%TO.N,unconnected-(TP13-Pad1)*%
X134140000Y-66360000D03*
%TD*%
%TO.P,TP18,1,1*%
%TO.N,unconnected-(TP18-Pad1)*%
X146840000Y-66360000D03*
%TD*%
%TO.P,TP43,1,1*%
%TO.N,unconnected-(TP43-Pad1)*%
X154460000Y-71440000D03*
%TD*%
%TO.P,TP29,1,1*%
%TO.N,unconnected-(TP29-Pad1)*%
X149380000Y-68900000D03*
%TD*%
%TO.P,TP95,1,1*%
%TO.N,unconnected-(TP95-Pad1)*%
X134140000Y-84140000D03*
%TD*%
%TO.P,TP75,1,1*%
%TO.N,unconnected-(TP75-Pad1)*%
X144300000Y-79060000D03*
%TD*%
%TO.P,TP202,1,1*%
%TO.N,unconnected-(TP202-Pad1)*%
X136680000Y-107000000D03*
%TD*%
%TO.P,TP27,1,1*%
%TO.N,unconnected-(TP27-Pad1)*%
X144300000Y-68900000D03*
%TD*%
%TO.P,TP53,1,1*%
%TO.N,unconnected-(TP53-Pad1)*%
X149380000Y-73980000D03*
%TD*%
%TO.P,TP152,1,1*%
%TO.N,unconnected-(TP152-Pad1)*%
X157000000Y-94300000D03*
%TD*%
%TO.P,TP161,1,1*%
%TO.N,unconnected-(TP161-Pad1)*%
X149380000Y-96840000D03*
%TD*%
%TO.P,TP184,1,1*%
%TO.N,unconnected-(TP184-Pad1)*%
X146840000Y-101920000D03*
%TD*%
%TO.P,TP141,1,1*%
%TO.N,/PB1*%
X129060000Y-94300000D03*
%TD*%
%TO.P,TP147,1,1*%
%TO.N,unconnected-(TP147-Pad1)*%
X144300000Y-94300000D03*
%TD*%
D13*
%TO.P,J1,1,Pin_1*%
%TO.N,GND*%
X113250000Y-67600000D03*
D14*
%TO.P,J1,2,Pin_2*%
%TO.N,/~{RST}*%
X113250000Y-68870000D03*
%TO.P,J1,3,Pin_3*%
%TO.N,/SWCLK*%
X113250000Y-70140000D03*
%TO.P,J1,4,Pin_4*%
%TO.N,/SWDIO*%
X113250000Y-71410000D03*
%TD*%
D11*
%TO.P,J2,1,Pin_1*%
%TO.N,/CAN+*%
X114900000Y-83900000D03*
D12*
%TO.P,J2,2,Pin_2*%
%TO.N,/CAN-*%
X114900000Y-80400000D03*
%TD*%
D10*
%TO.P,TP187,1,1*%
%TO.N,unconnected-(TP187-Pad1)*%
X154460000Y-101920000D03*
%TD*%
%TO.P,TP196,1,1*%
%TO.N,unconnected-(TP196-Pad1)*%
X146840000Y-104460000D03*
%TD*%
%TO.P,TP129,1,1*%
%TO.N,/PB8*%
X129060000Y-91760000D03*
%TD*%
%TO.P,TP109,1,1*%
%TO.N,unconnected-(TP109-Pad1)*%
X139220000Y-86680000D03*
%TD*%
%TO.P,TP120,1,1*%
%TO.N,unconnected-(TP120-Pad1)*%
X136680000Y-89220000D03*
%TD*%
%TO.P,TP31,1,1*%
%TO.N,unconnected-(TP31-Pad1)*%
X154460000Y-68900000D03*
%TD*%
%TO.P,TP77,1,1*%
%TO.N,unconnected-(TP77-Pad1)*%
X149380000Y-79060000D03*
%TD*%
%TO.P,TP20,1,1*%
%TO.N,unconnected-(TP20-Pad1)*%
X151920000Y-66360000D03*
%TD*%
%TO.P,TP117,1,1*%
%TO.N,/SDA*%
X129060000Y-89220000D03*
%TD*%
%TO.P,TP89,1,1*%
%TO.N,unconnected-(TP89-Pad1)*%
X149380000Y-81600000D03*
%TD*%
%TO.P,TP33,1,1*%
%TO.N,/PA5*%
X129060000Y-71440000D03*
%TD*%
%TO.P,TP125,1,1*%
%TO.N,unconnected-(TP125-Pad1)*%
X149380000Y-89220000D03*
%TD*%
%TO.P,TP25,1,1*%
%TO.N,unconnected-(TP25-Pad1)*%
X139220000Y-68900000D03*
%TD*%
%TO.P,TP205,1,1*%
%TO.N,unconnected-(TP205-Pad1)*%
X144300000Y-107000000D03*
%TD*%
%TO.P,TP165,1,1*%
%TO.N,GND*%
X129060000Y-99380000D03*
%TD*%
%TO.P,TP83,1,1*%
%TO.N,unconnected-(TP83-Pad1)*%
X134140000Y-81600000D03*
%TD*%
%TO.P,TP64,1,1*%
%TO.N,unconnected-(TP64-Pad1)*%
X146840000Y-76520000D03*
%TD*%
%TO.P,TP188,1,1*%
%TO.N,unconnected-(TP188-Pad1)*%
X157000000Y-101920000D03*
%TD*%
%TO.P,TP134,1,1*%
%TO.N,unconnected-(TP134-Pad1)*%
X141760000Y-91760000D03*
%TD*%
%TO.P,TP34,1,1*%
%TO.N,unconnected-(TP34-Pad1)*%
X131600000Y-71440000D03*
%TD*%
%TO.P,TP164,1,1*%
%TO.N,unconnected-(TP164-Pad1)*%
X157000000Y-96840000D03*
%TD*%
%TO.P,TP100,1,1*%
%TO.N,unconnected-(TP100-Pad1)*%
X146840000Y-84140000D03*
%TD*%
%TO.P,TP148,1,1*%
%TO.N,unconnected-(TP148-Pad1)*%
X146840000Y-94300000D03*
%TD*%
%TO.P,TP86,1,1*%
%TO.N,unconnected-(TP86-Pad1)*%
X141760000Y-81600000D03*
%TD*%
%TO.P,TP162,1,1*%
%TO.N,unconnected-(TP162-Pad1)*%
X151920000Y-96840000D03*
%TD*%
%TO.P,TP174,1,1*%
%TO.N,unconnected-(TP174-Pad1)*%
X151920000Y-99380000D03*
%TD*%
%TO.P,TP203,1,1*%
%TO.N,unconnected-(TP203-Pad1)*%
X139220000Y-107000000D03*
%TD*%
%TO.P,TP65,1,1*%
%TO.N,unconnected-(TP65-Pad1)*%
X149380000Y-76520000D03*
%TD*%
%TO.P,TP172,1,1*%
%TO.N,unconnected-(TP172-Pad1)*%
X146840000Y-99380000D03*
%TD*%
%TO.P,TP8,1,1*%
%TO.N,unconnected-(TP8-Pad1)*%
X146840000Y-63820000D03*
%TD*%
%TO.P,TP68,1,1*%
%TO.N,unconnected-(TP68-Pad1)*%
X157000000Y-76520000D03*
%TD*%
%TO.P,TP61,1,1*%
%TO.N,unconnected-(TP61-Pad1)*%
X139220000Y-76520000D03*
%TD*%
%TO.P,TP103,1,1*%
%TO.N,unconnected-(TP103-Pad1)*%
X154460000Y-84140000D03*
%TD*%
%TO.P,TP80,1,1*%
%TO.N,unconnected-(TP80-Pad1)*%
X157000000Y-79060000D03*
%TD*%
%TO.P,TP200,1,1*%
%TO.N,unconnected-(TP200-Pad1)*%
X131600000Y-107000000D03*
%TD*%
%TO.P,TP60,1,1*%
%TO.N,unconnected-(TP60-Pad1)*%
X136680000Y-76520000D03*
%TD*%
%TO.P,TP136,1,1*%
%TO.N,unconnected-(TP136-Pad1)*%
X146840000Y-91760000D03*
%TD*%
%TO.P,TP168,1,1*%
%TO.N,unconnected-(TP168-Pad1)*%
X136680000Y-99380000D03*
%TD*%
%TO.P,TP194,1,1*%
%TO.N,unconnected-(TP194-Pad1)*%
X141760000Y-104460000D03*
%TD*%
%TO.P,TP124,1,1*%
%TO.N,unconnected-(TP124-Pad1)*%
X146840000Y-89220000D03*
%TD*%
%TO.P,TP170,1,1*%
%TO.N,unconnected-(TP170-Pad1)*%
X141760000Y-99380000D03*
%TD*%
%TO.P,TP157,1,1*%
%TO.N,unconnected-(TP157-Pad1)*%
X139220000Y-96840000D03*
%TD*%
%TO.P,TP39,1,1*%
%TO.N,unconnected-(TP39-Pad1)*%
X144300000Y-71440000D03*
%TD*%
%TO.P,TP63,1,1*%
%TO.N,unconnected-(TP63-Pad1)*%
X144300000Y-76520000D03*
%TD*%
%TO.P,TP104,1,1*%
%TO.N,unconnected-(TP104-Pad1)*%
X157000000Y-84140000D03*
%TD*%
%TO.P,TP54,1,1*%
%TO.N,unconnected-(TP54-Pad1)*%
X151920000Y-73980000D03*
%TD*%
%TO.P,TP52,1,1*%
%TO.N,unconnected-(TP52-Pad1)*%
X146840000Y-73980000D03*
%TD*%
%TO.P,TP171,1,1*%
%TO.N,unconnected-(TP171-Pad1)*%
X144300000Y-99380000D03*
%TD*%
%TO.P,TP181,1,1*%
%TO.N,unconnected-(TP181-Pad1)*%
X139220000Y-101920000D03*
%TD*%
D15*
%TO.N,VDD*%
X120250000Y-69000000D03*
D16*
X121694002Y-83632000D03*
D15*
X121750000Y-67500000D03*
D16*
X119001600Y-85003600D03*
X119535000Y-82870000D03*
D15*
%TO.N,/~{RST}*%
X117550000Y-72550000D03*
X119250000Y-66500000D03*
%TO.N,/SDA*%
X122075228Y-71049285D03*
X123500000Y-73250000D03*
%TO.N,/SCL*%
X122200006Y-69900000D03*
X122500000Y-73250000D03*
%TO.N,GND*%
X115681464Y-74575000D03*
X124700000Y-85350000D03*
X120500000Y-95250000D03*
X117250000Y-107758000D03*
X119500000Y-107758000D03*
X121600000Y-79300000D03*
X119250000Y-94250000D03*
D17*
X120000000Y-74000000D03*
D15*
X124700000Y-90350000D03*
X120500000Y-94250000D03*
X117250000Y-103258000D03*
X124700000Y-88850000D03*
X116400000Y-67800000D03*
X122850000Y-90162500D03*
X121600000Y-81100000D03*
X119500000Y-103258000D03*
D18*
X119916000Y-97729000D03*
X122710000Y-97729000D03*
%TD*%
D19*
%TO.N,VDD*%
X119535000Y-82870000D02*
X119001600Y-83403400D01*
X120932002Y-82870000D02*
X121694002Y-83632000D01*
X119001600Y-83403400D02*
X119001600Y-85003600D01*
D20*
X121750000Y-67500000D02*
X120250000Y-69000000D01*
D19*
X119535000Y-82870000D02*
X120932002Y-82870000D01*
D20*
%TO.N,/~{RST}*%
X118000000Y-72350000D02*
X118200000Y-72550000D01*
X118000000Y-67750000D02*
X118000000Y-72350000D01*
X118200000Y-72550000D02*
X117550000Y-72550000D01*
X119250000Y-66500000D02*
X118000000Y-67750000D01*
%TO.N,/SDA*%
X122650000Y-70500000D02*
X122100715Y-71049285D01*
X126900000Y-71100000D02*
X126300000Y-70500000D01*
X126300000Y-70500000D02*
X122650000Y-70500000D01*
X123500000Y-72474057D02*
X122075228Y-71049285D01*
X129060000Y-89220000D02*
X126900000Y-87060000D01*
X122100715Y-71049285D02*
X122075228Y-71049285D01*
X123500000Y-73250000D02*
X123500000Y-72474057D01*
X126900000Y-87060000D02*
X126900000Y-71100000D01*
%TO.N,/SCL*%
X122500000Y-73250000D02*
X122500000Y-72500000D01*
X121350228Y-71350228D02*
X121350228Y-70649772D01*
X121350228Y-70649772D02*
X122100000Y-69900000D01*
X127450000Y-85070000D02*
X127450000Y-70872182D01*
X129060000Y-86680000D02*
X127450000Y-85070000D01*
X122100000Y-69900000D02*
X122200006Y-69900000D01*
X122500000Y-72500000D02*
X121350228Y-71350228D01*
X127450000Y-70872182D02*
X126477818Y-69900000D01*
X126477818Y-69900000D02*
X122200006Y-69900000D01*
%TD*%
%TA.AperFunction,Conductor*%
%TO.N,GND*%
G36*
X130063039Y-60520185D02*
G01*
X130108794Y-60572989D01*
X130120000Y-60624500D01*
X130120000Y-62378026D01*
X130100315Y-62445065D01*
X130047511Y-62490820D01*
X129978353Y-62500764D01*
X129940907Y-62489115D01*
X129898318Y-62467994D01*
X129716789Y-62422848D01*
X129674783Y-62420000D01*
X129310000Y-62420000D01*
X129310000Y-63504314D01*
X129305606Y-63499920D01*
X129214394Y-63447259D01*
X129112661Y-63420000D01*
X129007339Y-63420000D01*
X128905606Y-63447259D01*
X128814394Y-63499920D01*
X128810000Y-63504314D01*
X128810000Y-62420000D01*
X128445217Y-62420000D01*
X128403210Y-62422848D01*
X128221681Y-62467993D01*
X128054100Y-62551106D01*
X127908302Y-62668301D01*
X127908301Y-62668302D01*
X127791106Y-62814100D01*
X127707993Y-62981681D01*
X127662848Y-63163210D01*
X127660000Y-63205217D01*
X127660000Y-63570000D01*
X128744314Y-63570000D01*
X128739920Y-63574394D01*
X128687259Y-63665606D01*
X128660000Y-63767339D01*
X128660000Y-63872661D01*
X128687259Y-63974394D01*
X128739920Y-64065606D01*
X128744314Y-64070000D01*
X127660000Y-64070000D01*
X127660000Y-64434782D01*
X127662848Y-64476789D01*
X127707993Y-64658318D01*
X127791106Y-64825899D01*
X127908299Y-64971695D01*
X128052928Y-65087949D01*
X128092847Y-65145292D01*
X128095427Y-65215114D01*
X128062923Y-65272278D01*
X127956600Y-65378601D01*
X127867337Y-65526259D01*
X127816005Y-65690991D01*
X127809500Y-65762583D01*
X127809500Y-66957426D01*
X127816004Y-67029008D01*
X127816006Y-67029015D01*
X127856758Y-67159790D01*
X127867337Y-67193740D01*
X127955716Y-67339936D01*
X127956601Y-67341400D01*
X128078597Y-67463396D01*
X128078599Y-67463397D01*
X128078603Y-67463401D01*
X128178654Y-67523884D01*
X128225840Y-67575412D01*
X128237678Y-67644271D01*
X128210409Y-67708600D01*
X128178654Y-67736115D01*
X128078603Y-67796599D01*
X128078602Y-67796599D01*
X128078597Y-67796603D01*
X127956601Y-67918599D01*
X127867337Y-68066259D01*
X127816005Y-68230991D01*
X127809500Y-68302583D01*
X127809500Y-69497426D01*
X127816004Y-69569008D01*
X127816006Y-69569015D01*
X127866523Y-69731128D01*
X127867337Y-69733740D01*
X127956599Y-69881397D01*
X127956601Y-69881400D01*
X128078597Y-70003396D01*
X128078599Y-70003397D01*
X128078603Y-70003401D01*
X128178654Y-70063884D01*
X128225840Y-70115412D01*
X128237678Y-70184271D01*
X128210409Y-70248600D01*
X128178654Y-70276115D01*
X128109692Y-70317805D01*
X128078600Y-70336601D01*
X127955775Y-70459426D01*
X127894452Y-70492910D01*
X127824760Y-70487926D01*
X127780411Y-70459423D01*
X127772665Y-70451677D01*
X127772663Y-70451676D01*
X127768331Y-70447343D01*
X127768323Y-70447336D01*
X126905393Y-69584406D01*
X126905391Y-69584403D01*
X126800484Y-69479496D01*
X126800479Y-69479492D01*
X126680656Y-69410313D01*
X126680649Y-69410310D01*
X126639886Y-69399387D01*
X126639886Y-69399388D01*
X126608923Y-69391091D01*
X126547001Y-69374499D01*
X126408635Y-69374499D01*
X126401039Y-69374499D01*
X126401023Y-69374500D01*
X122710232Y-69374500D01*
X122643193Y-69354815D01*
X122628006Y-69343316D01*
X122600858Y-69319266D01*
X122600856Y-69319264D01*
X122450232Y-69240210D01*
X122285062Y-69199500D01*
X122114950Y-69199500D01*
X121949779Y-69240210D01*
X121799156Y-69319263D01*
X121671822Y-69432072D01*
X121575188Y-69572068D01*
X121575188Y-69572069D01*
X121517685Y-69723694D01*
X121489424Y-69767404D01*
X121027565Y-70229265D01*
X120929724Y-70327105D01*
X120929720Y-70327110D01*
X120860539Y-70446935D01*
X120860540Y-70446935D01*
X120860540Y-70446936D01*
X120860540Y-70446937D01*
X120857194Y-70459426D01*
X120824727Y-70580590D01*
X120824727Y-70728944D01*
X120824728Y-70728957D01*
X120824728Y-71273432D01*
X120824727Y-71273450D01*
X120824727Y-71281045D01*
X120824727Y-71419411D01*
X120840033Y-71476531D01*
X120860540Y-71553065D01*
X120860541Y-71553066D01*
X120929720Y-71672889D01*
X120929724Y-71672894D01*
X121034628Y-71777798D01*
X121034634Y-71777803D01*
X121926139Y-72669308D01*
X121959624Y-72730631D01*
X121954640Y-72800323D01*
X121940508Y-72827429D01*
X121875183Y-72922068D01*
X121875182Y-72922068D01*
X121814860Y-73081125D01*
X121814859Y-73081130D01*
X121794355Y-73250000D01*
X121814859Y-73418869D01*
X121814860Y-73418874D01*
X121875182Y-73577931D01*
X121937475Y-73668177D01*
X121971817Y-73717929D01*
X122059043Y-73795204D01*
X122099150Y-73830736D01*
X122249773Y-73909789D01*
X122249775Y-73909790D01*
X122414944Y-73950500D01*
X122585056Y-73950500D01*
X122750225Y-73909790D01*
X122839547Y-73862909D01*
X122900845Y-73830738D01*
X122900846Y-73830736D01*
X122900852Y-73830734D01*
X122917773Y-73815742D01*
X122981004Y-73786022D01*
X123050267Y-73795204D01*
X123082224Y-73815741D01*
X123099148Y-73830734D01*
X123099150Y-73830735D01*
X123099154Y-73830738D01*
X123249773Y-73909789D01*
X123249775Y-73909790D01*
X123414944Y-73950500D01*
X123585056Y-73950500D01*
X123750225Y-73909790D01*
X123829692Y-73868081D01*
X123900849Y-73830736D01*
X123900850Y-73830734D01*
X123900852Y-73830734D01*
X124028183Y-73717929D01*
X124124818Y-73577930D01*
X124185140Y-73418872D01*
X124205645Y-73250000D01*
X124185140Y-73081128D01*
X124183560Y-73076963D01*
X124146675Y-72979702D01*
X124124818Y-72922070D01*
X124094351Y-72877931D01*
X124047450Y-72809983D01*
X124025567Y-72743629D01*
X124025500Y-72739543D01*
X124025500Y-72553242D01*
X124025501Y-72553229D01*
X124025501Y-72404875D01*
X124019138Y-72381130D01*
X123989688Y-72271222D01*
X123989688Y-72271221D01*
X123989688Y-72271220D01*
X123920507Y-72151395D01*
X123920506Y-72151394D01*
X123920505Y-72151392D01*
X123822665Y-72053552D01*
X123822664Y-72053551D01*
X123818334Y-72049221D01*
X123818323Y-72049211D01*
X123006293Y-71237181D01*
X122972808Y-71175858D01*
X122977792Y-71106166D01*
X123019664Y-71050233D01*
X123085128Y-71025816D01*
X123093974Y-71025500D01*
X126030969Y-71025500D01*
X126098008Y-71045185D01*
X126118650Y-71061819D01*
X126338181Y-71281350D01*
X126371666Y-71342673D01*
X126374500Y-71369031D01*
X126374500Y-86983204D01*
X126374499Y-86983222D01*
X126374499Y-86990817D01*
X126374499Y-87129183D01*
X126385353Y-87169689D01*
X126400530Y-87226331D01*
X126410313Y-87262838D01*
X126479492Y-87382661D01*
X126479496Y-87382666D01*
X126584400Y-87487570D01*
X126584406Y-87487575D01*
X127773181Y-88676350D01*
X127806666Y-88737673D01*
X127809500Y-88764031D01*
X127809500Y-89817426D01*
X127816004Y-89889008D01*
X127816006Y-89889015D01*
X127852419Y-90005866D01*
X127867337Y-90053740D01*
X127956599Y-90201397D01*
X127956601Y-90201400D01*
X128078597Y-90323396D01*
X128078599Y-90323397D01*
X128078603Y-90323401D01*
X128178654Y-90383884D01*
X128225840Y-90435412D01*
X128237678Y-90504271D01*
X128210409Y-90568600D01*
X128178654Y-90596115D01*
X128078603Y-90656599D01*
X128078602Y-90656599D01*
X128078597Y-90656603D01*
X127956601Y-90778599D01*
X127867337Y-90926259D01*
X127816005Y-91090991D01*
X127809500Y-91162583D01*
X127809500Y-92357426D01*
X127816004Y-92429008D01*
X127816006Y-92429015D01*
X127863577Y-92581674D01*
X127867337Y-92593740D01*
X127956599Y-92741397D01*
X127956601Y-92741400D01*
X128078597Y-92863396D01*
X128078599Y-92863397D01*
X128078603Y-92863401D01*
X128178654Y-92923884D01*
X128225840Y-92975412D01*
X128237678Y-93044271D01*
X128210409Y-93108600D01*
X128178654Y-93136115D01*
X128078603Y-93196599D01*
X128078602Y-93196599D01*
X128078597Y-93196603D01*
X127956601Y-93318599D01*
X127867337Y-93466259D01*
X127816005Y-93630991D01*
X127809500Y-93702583D01*
X127809500Y-94897426D01*
X127816004Y-94969008D01*
X127816006Y-94969015D01*
X127838474Y-95041116D01*
X127867337Y-95133740D01*
X127956599Y-95281397D01*
X128062923Y-95387721D01*
X128096407Y-95449042D01*
X128091423Y-95518734D01*
X128052928Y-95572048D01*
X127908302Y-95688301D01*
X127908301Y-95688302D01*
X127791106Y-95834100D01*
X127707993Y-96001681D01*
X127662848Y-96183210D01*
X127660000Y-96225217D01*
X127660000Y-96590000D01*
X128744314Y-96590000D01*
X128739920Y-96594394D01*
X128687259Y-96685606D01*
X128660000Y-96787339D01*
X128660000Y-96892661D01*
X128687259Y-96994394D01*
X128739920Y-97085606D01*
X128744314Y-97090000D01*
X127660000Y-97090000D01*
X127660000Y-97454782D01*
X127662848Y-97496789D01*
X127707993Y-97678318D01*
X127791106Y-97845899D01*
X127908301Y-97991697D01*
X127908302Y-97991698D01*
X127935242Y-98013353D01*
X127975161Y-98070696D01*
X127977741Y-98140518D01*
X127942162Y-98200651D01*
X127935242Y-98206647D01*
X127908302Y-98228301D01*
X127908301Y-98228302D01*
X127791106Y-98374100D01*
X127707993Y-98541681D01*
X127662848Y-98723210D01*
X127660000Y-98765217D01*
X127660000Y-99130000D01*
X128744314Y-99130000D01*
X128739920Y-99134394D01*
X128687259Y-99225606D01*
X128660000Y-99327339D01*
X128660000Y-99432661D01*
X128687259Y-99534394D01*
X128739920Y-99625606D01*
X128744314Y-99630000D01*
X127660000Y-99630000D01*
X127660000Y-99994782D01*
X127662848Y-100036789D01*
X127707993Y-100218318D01*
X127791106Y-100385899D01*
X127908299Y-100531695D01*
X128052928Y-100647949D01*
X128092847Y-100705292D01*
X128095427Y-100775114D01*
X128062923Y-100832278D01*
X127956600Y-100938601D01*
X127867337Y-101086259D01*
X127816005Y-101250991D01*
X127809500Y-101322583D01*
X127809500Y-102517426D01*
X127816004Y-102589008D01*
X127816006Y-102589015D01*
X127867336Y-102753737D01*
X127867337Y-102753740D01*
X127956599Y-102901397D01*
X127956601Y-102901400D01*
X128078597Y-103023396D01*
X128078599Y-103023397D01*
X128078603Y-103023401D01*
X128178654Y-103083884D01*
X128225840Y-103135412D01*
X128237678Y-103204271D01*
X128210409Y-103268600D01*
X128178654Y-103296115D01*
X128078603Y-103356599D01*
X128078602Y-103356599D01*
X128078597Y-103356603D01*
X127956601Y-103478599D01*
X127867337Y-103626259D01*
X127816005Y-103790991D01*
X127809500Y-103862583D01*
X127809500Y-105057426D01*
X127816004Y-105129008D01*
X127816006Y-105129015D01*
X127851821Y-105243947D01*
X127867337Y-105293740D01*
X127956599Y-105441397D01*
X128062923Y-105547721D01*
X128096407Y-105609042D01*
X128091423Y-105678734D01*
X128052928Y-105732048D01*
X127908302Y-105848301D01*
X127908301Y-105848302D01*
X127791106Y-105994100D01*
X127707993Y-106161681D01*
X127662848Y-106343210D01*
X127660000Y-106385217D01*
X127660000Y-106750000D01*
X128744314Y-106750000D01*
X128739920Y-106754394D01*
X128687259Y-106845606D01*
X128660000Y-106947339D01*
X128660000Y-107052661D01*
X128687259Y-107154394D01*
X128739920Y-107245606D01*
X128744314Y-107250000D01*
X127660000Y-107250000D01*
X127660000Y-107614782D01*
X127662848Y-107656789D01*
X127707993Y-107838318D01*
X127791106Y-108005899D01*
X127908301Y-108151697D01*
X127908302Y-108151698D01*
X128054100Y-108268893D01*
X128221681Y-108352006D01*
X128403210Y-108397151D01*
X128445217Y-108400000D01*
X128810000Y-108400000D01*
X128810000Y-107315686D01*
X128814394Y-107320080D01*
X128905606Y-107372741D01*
X129007339Y-107400000D01*
X129112661Y-107400000D01*
X129214394Y-107372741D01*
X129305606Y-107320080D01*
X129310000Y-107315686D01*
X129310000Y-108400000D01*
X129674783Y-108400000D01*
X129716789Y-108397151D01*
X129898318Y-108352006D01*
X129940905Y-108330885D01*
X130009710Y-108318733D01*
X130074162Y-108345709D01*
X130113798Y-108403248D01*
X130120000Y-108441973D01*
X130120000Y-109375500D01*
X130100315Y-109442539D01*
X130047511Y-109488294D01*
X129996000Y-109499500D01*
X113003751Y-109499500D01*
X112996264Y-109499274D01*
X112706205Y-109481728D01*
X112691340Y-109479923D01*
X112409201Y-109428219D01*
X112394663Y-109424635D01*
X112120832Y-109339306D01*
X112106831Y-109333997D01*
X111845263Y-109216275D01*
X111832004Y-109209316D01*
X111586540Y-109060928D01*
X111574217Y-109052422D01*
X111348426Y-108875526D01*
X111337218Y-108865596D01*
X111134403Y-108662781D01*
X111124473Y-108651573D01*
X111038575Y-108541932D01*
X110947573Y-108425776D01*
X110939075Y-108413465D01*
X110790680Y-108167989D01*
X110783727Y-108154743D01*
X110666000Y-107893163D01*
X110660693Y-107879167D01*
X110646537Y-107833740D01*
X110575363Y-107605335D01*
X110571780Y-107590798D01*
X110536815Y-107400000D01*
X110520075Y-107308657D01*
X110518271Y-107293794D01*
X110507836Y-107121288D01*
X110500726Y-107003736D01*
X110500500Y-106996249D01*
X110500500Y-106878711D01*
X111149500Y-106878711D01*
X111149500Y-107121288D01*
X111181161Y-107361785D01*
X111243947Y-107596104D01*
X111336773Y-107820205D01*
X111336777Y-107820214D01*
X111354885Y-107851578D01*
X111458064Y-108030289D01*
X111458066Y-108030292D01*
X111458067Y-108030293D01*
X111605733Y-108222736D01*
X111605739Y-108222743D01*
X111777256Y-108394260D01*
X111777263Y-108394266D01*
X111818336Y-108425782D01*
X111969711Y-108541936D01*
X112179788Y-108663224D01*
X112403900Y-108756054D01*
X112638211Y-108818838D01*
X112818586Y-108842584D01*
X112878711Y-108850500D01*
X112878712Y-108850500D01*
X113121289Y-108850500D01*
X113169388Y-108844167D01*
X113361789Y-108818838D01*
X113596100Y-108756054D01*
X113820212Y-108663224D01*
X114030289Y-108541936D01*
X114222738Y-108394265D01*
X114394265Y-108222738D01*
X114541936Y-108030289D01*
X114663224Y-107820212D01*
X114756054Y-107596100D01*
X114818838Y-107361789D01*
X114850500Y-107121288D01*
X114850500Y-106878712D01*
X114818838Y-106638211D01*
X114756054Y-106403900D01*
X114663224Y-106179788D01*
X114541936Y-105969711D01*
X114394265Y-105777262D01*
X114394260Y-105777256D01*
X114222743Y-105605739D01*
X114222736Y-105605733D01*
X114030293Y-105458067D01*
X114030292Y-105458066D01*
X114030289Y-105458064D01*
X113820212Y-105336776D01*
X113820205Y-105336773D01*
X113596104Y-105243947D01*
X113361785Y-105181161D01*
X113121289Y-105149500D01*
X113121288Y-105149500D01*
X112878712Y-105149500D01*
X112878711Y-105149500D01*
X112638214Y-105181161D01*
X112403895Y-105243947D01*
X112179794Y-105336773D01*
X112179785Y-105336777D01*
X111969706Y-105458067D01*
X111777263Y-105605733D01*
X111777256Y-105605739D01*
X111605739Y-105777256D01*
X111605733Y-105777263D01*
X111458067Y-105969706D01*
X111336777Y-106179785D01*
X111336773Y-106179794D01*
X111243947Y-106403895D01*
X111181161Y-106638214D01*
X111149500Y-106878711D01*
X110500500Y-106878711D01*
X110500500Y-94518872D01*
X112599500Y-94518872D01*
X112599500Y-94781127D01*
X112624237Y-94969012D01*
X112633730Y-95041116D01*
X112698113Y-95281397D01*
X112701602Y-95294418D01*
X112701605Y-95294428D01*
X112801953Y-95536690D01*
X112801958Y-95536700D01*
X112933075Y-95763803D01*
X113092718Y-95971851D01*
X113092726Y-95971860D01*
X113278140Y-96157274D01*
X113278148Y-96157281D01*
X113278149Y-96157282D01*
X113486197Y-96316924D01*
X113701943Y-96441484D01*
X113750157Y-96492049D01*
X113763381Y-96560656D01*
X113737413Y-96625521D01*
X113680499Y-96666050D01*
X113678947Y-96666576D01*
X113530878Y-96715642D01*
X113530875Y-96715643D01*
X113381654Y-96807684D01*
X113257684Y-96931654D01*
X113165643Y-97080875D01*
X113165641Y-97080880D01*
X113110494Y-97247302D01*
X113110493Y-97247309D01*
X113100000Y-97350013D01*
X113100000Y-97900000D01*
X114137639Y-97900000D01*
X114130743Y-97916649D01*
X114100000Y-98071207D01*
X114100000Y-98228793D01*
X114130743Y-98383351D01*
X114137639Y-98400000D01*
X113100001Y-98400000D01*
X113100001Y-98949986D01*
X113110494Y-99052697D01*
X113165641Y-99219119D01*
X113165643Y-99219124D01*
X113257684Y-99368345D01*
X113381654Y-99492315D01*
X113530875Y-99584356D01*
X113530880Y-99584358D01*
X113697302Y-99639505D01*
X113697309Y-99639506D01*
X113800019Y-99649999D01*
X114649999Y-99649999D01*
X114650000Y-99649998D01*
X114650000Y-98912360D01*
X114666649Y-98919257D01*
X114821207Y-98950000D01*
X114978793Y-98950000D01*
X115133351Y-98919257D01*
X115150000Y-98912360D01*
X115150000Y-99649999D01*
X115999972Y-99649999D01*
X115999986Y-99649998D01*
X116102697Y-99639505D01*
X116269119Y-99584358D01*
X116269124Y-99584356D01*
X116418345Y-99492315D01*
X116542315Y-99368345D01*
X116634356Y-99219124D01*
X116634358Y-99219119D01*
X116689505Y-99052697D01*
X116689506Y-99052690D01*
X116699999Y-98949986D01*
X116700000Y-98949973D01*
X116700000Y-98400000D01*
X115662361Y-98400000D01*
X115669257Y-98383351D01*
X115700000Y-98228793D01*
X115700000Y-98071207D01*
X115669257Y-97916649D01*
X115662361Y-97900000D01*
X116699999Y-97900000D01*
X116699999Y-97350028D01*
X116699998Y-97350013D01*
X116689505Y-97247302D01*
X116634358Y-97080880D01*
X116634356Y-97080875D01*
X116542315Y-96931654D01*
X116418345Y-96807684D01*
X116269124Y-96715643D01*
X116269119Y-96715641D01*
X116121053Y-96666577D01*
X116063608Y-96626804D01*
X116036785Y-96562288D01*
X116049100Y-96493513D01*
X116096643Y-96442313D01*
X116098058Y-96441484D01*
X116313798Y-96316927D01*
X116313802Y-96316925D01*
X116353071Y-96286792D01*
X116521851Y-96157282D01*
X116521855Y-96157277D01*
X116521860Y-96157274D01*
X116707274Y-95971860D01*
X116707277Y-95971855D01*
X116707282Y-95971851D01*
X116866924Y-95763803D01*
X116998043Y-95536697D01*
X117098398Y-95294419D01*
X117166270Y-95041116D01*
X117200500Y-94781120D01*
X117200500Y-94518880D01*
X117166270Y-94258884D01*
X117098398Y-94005581D01*
X117098394Y-94005571D01*
X116998046Y-93763309D01*
X116998041Y-93763299D01*
X116866924Y-93536196D01*
X116707281Y-93328148D01*
X116707274Y-93328140D01*
X116521860Y-93142726D01*
X116521851Y-93142718D01*
X116313803Y-92983075D01*
X116086700Y-92851958D01*
X116086690Y-92851953D01*
X115844428Y-92751605D01*
X115844413Y-92751600D01*
X115839434Y-92750266D01*
X115779775Y-92713898D01*
X115749250Y-92651049D01*
X115757548Y-92581674D01*
X115802037Y-92527799D01*
X115815240Y-92520008D01*
X115986169Y-92432916D01*
X116177186Y-92294133D01*
X116344133Y-92127186D01*
X116482914Y-91936171D01*
X116590102Y-91725802D01*
X116663065Y-91501247D01*
X116679102Y-91400000D01*
X115662361Y-91400000D01*
X115669257Y-91383351D01*
X115700000Y-91228793D01*
X115700000Y-91071207D01*
X115669257Y-90916649D01*
X115662361Y-90900000D01*
X116679102Y-90900000D01*
X116663065Y-90798752D01*
X116590102Y-90574197D01*
X116482914Y-90363828D01*
X116344133Y-90172813D01*
X116177186Y-90005866D01*
X115986171Y-89867085D01*
X115775802Y-89759897D01*
X115551247Y-89686934D01*
X115551248Y-89686934D01*
X115318052Y-89650000D01*
X115150000Y-89650000D01*
X115150000Y-90387639D01*
X115133351Y-90380743D01*
X114978793Y-90350000D01*
X114821207Y-90350000D01*
X114666649Y-90380743D01*
X114650000Y-90387639D01*
X114650000Y-89650000D01*
X114481948Y-89650000D01*
X114248752Y-89686934D01*
X114024197Y-89759897D01*
X113813828Y-89867085D01*
X113622813Y-90005866D01*
X113455866Y-90172813D01*
X113317085Y-90363828D01*
X113209897Y-90574197D01*
X113136934Y-90798752D01*
X113120898Y-90900000D01*
X114137639Y-90900000D01*
X114130743Y-90916649D01*
X114100000Y-91071207D01*
X114100000Y-91228793D01*
X114130743Y-91383351D01*
X114137639Y-91400000D01*
X113120898Y-91400000D01*
X113136934Y-91501247D01*
X113209897Y-91725802D01*
X113317085Y-91936171D01*
X113455866Y-92127186D01*
X113622813Y-92294133D01*
X113813828Y-92432914D01*
X113984760Y-92520008D01*
X114035556Y-92567982D01*
X114052351Y-92635803D01*
X114029814Y-92701938D01*
X113975099Y-92745390D01*
X113960568Y-92750265D01*
X113955591Y-92751598D01*
X113955571Y-92751605D01*
X113713309Y-92851953D01*
X113713299Y-92851958D01*
X113486196Y-92983075D01*
X113278148Y-93142718D01*
X113092718Y-93328148D01*
X112933075Y-93536196D01*
X112801958Y-93763299D01*
X112801953Y-93763309D01*
X112701605Y-94005571D01*
X112701602Y-94005581D01*
X112633730Y-94258885D01*
X112599500Y-94518872D01*
X110500500Y-94518872D01*
X110500500Y-83110645D01*
X113249500Y-83110645D01*
X113249500Y-84689363D01*
X113264953Y-84806753D01*
X113264956Y-84806762D01*
X113325464Y-84952841D01*
X113421718Y-85078282D01*
X113547159Y-85174536D01*
X113693238Y-85235044D01*
X113810639Y-85250500D01*
X115989360Y-85250499D01*
X115989363Y-85250499D01*
X116106753Y-85235046D01*
X116106757Y-85235044D01*
X116106762Y-85235044D01*
X116252841Y-85174536D01*
X116378282Y-85078282D01*
X116435587Y-85003600D01*
X118146415Y-85003600D01*
X118165103Y-85181405D01*
X118165104Y-85181407D01*
X118220347Y-85351429D01*
X118220350Y-85351435D01*
X118309741Y-85506265D01*
X118351412Y-85552546D01*
X118429364Y-85639121D01*
X118429367Y-85639123D01*
X118429370Y-85639126D01*
X118574007Y-85744212D01*
X118737333Y-85816929D01*
X118912209Y-85854100D01*
X118912210Y-85854100D01*
X119090989Y-85854100D01*
X119090991Y-85854100D01*
X119265867Y-85816929D01*
X119325565Y-85790349D01*
X119394814Y-85781065D01*
X119458091Y-85810693D01*
X119495304Y-85869828D01*
X119500000Y-85903629D01*
X119500000Y-89400000D01*
X120463681Y-90363681D01*
X120497166Y-90425004D01*
X120500000Y-90451362D01*
X120500000Y-90900000D01*
X122300000Y-90900000D01*
X122300000Y-89524000D01*
X122319685Y-89456961D01*
X122372489Y-89411206D01*
X122424000Y-89400000D01*
X122600000Y-89400000D01*
X122600000Y-84299999D01*
X122504508Y-84299075D01*
X122437662Y-84278742D01*
X122392421Y-84225498D01*
X122383148Y-84156246D01*
X122398321Y-84113083D01*
X122475252Y-83979835D01*
X122530499Y-83809803D01*
X122549187Y-83632000D01*
X122530499Y-83454197D01*
X122475252Y-83284165D01*
X122385861Y-83129335D01*
X122339005Y-83077296D01*
X122266237Y-82996478D01*
X122266234Y-82996476D01*
X122266233Y-82996475D01*
X122266232Y-82996474D01*
X122121595Y-82891388D01*
X121958269Y-82818671D01*
X121944013Y-82815640D01*
X121928684Y-82812382D01*
X121867203Y-82779187D01*
X121866787Y-82778773D01*
X121394485Y-82306470D01*
X121394484Y-82306469D01*
X121286734Y-82234474D01*
X121275655Y-82227071D01*
X121143622Y-82172381D01*
X121143616Y-82172379D01*
X121003459Y-82144500D01*
X121003457Y-82144500D01*
X120021994Y-82144500D01*
X119969269Y-82130370D01*
X119968530Y-82132031D01*
X119887614Y-82096005D01*
X119799267Y-82056671D01*
X119799265Y-82056670D01*
X119671594Y-82029533D01*
X119624391Y-82019500D01*
X119445609Y-82019500D01*
X119414954Y-82026015D01*
X119270733Y-82056670D01*
X119270728Y-82056672D01*
X119107408Y-82129387D01*
X118962768Y-82234475D01*
X118843140Y-82367336D01*
X118753750Y-82522164D01*
X118753748Y-82522168D01*
X118713338Y-82646536D01*
X118683089Y-82695898D01*
X118438066Y-82940922D01*
X118438064Y-82940925D01*
X118380711Y-83026761D01*
X118358672Y-83059744D01*
X118358670Y-83059748D01*
X118303981Y-83191779D01*
X118303979Y-83191785D01*
X118276100Y-83331942D01*
X118276100Y-84525977D01*
X118259488Y-84587976D01*
X118220349Y-84655767D01*
X118220347Y-84655770D01*
X118165104Y-84825792D01*
X118165103Y-84825794D01*
X118146415Y-85003600D01*
X116435587Y-85003600D01*
X116474536Y-84952841D01*
X116535044Y-84806762D01*
X116550500Y-84689361D01*
X116550499Y-83110640D01*
X116550499Y-83110639D01*
X116550499Y-83110636D01*
X116535046Y-82993246D01*
X116535044Y-82993239D01*
X116535044Y-82993238D01*
X116474536Y-82847159D01*
X116378282Y-82721718D01*
X116252841Y-82625464D01*
X116106762Y-82564956D01*
X116106760Y-82564955D01*
X115989370Y-82549501D01*
X115989367Y-82549500D01*
X115989361Y-82549500D01*
X115989354Y-82549500D01*
X113810636Y-82549500D01*
X113693246Y-82564953D01*
X113693237Y-82564956D01*
X113547160Y-82625463D01*
X113421718Y-82721718D01*
X113325463Y-82847160D01*
X113264956Y-82993237D01*
X113264955Y-82993239D01*
X113249501Y-83110629D01*
X113249501Y-83110636D01*
X113249500Y-83110645D01*
X110500500Y-83110645D01*
X110500500Y-80293713D01*
X113249500Y-80293713D01*
X113249500Y-80506286D01*
X113282753Y-80716239D01*
X113348444Y-80918414D01*
X113444951Y-81107820D01*
X113569890Y-81279786D01*
X113720213Y-81430109D01*
X113892179Y-81555048D01*
X113892181Y-81555049D01*
X113892184Y-81555051D01*
X114081588Y-81651557D01*
X114283757Y-81717246D01*
X114493713Y-81750500D01*
X114493714Y-81750500D01*
X115306286Y-81750500D01*
X115306287Y-81750500D01*
X115516243Y-81717246D01*
X115718412Y-81651557D01*
X115907816Y-81555051D01*
X115929789Y-81539086D01*
X116079786Y-81430109D01*
X116079788Y-81430106D01*
X116079792Y-81430104D01*
X116230104Y-81279792D01*
X116230106Y-81279788D01*
X116230109Y-81279786D01*
X116355048Y-81107820D01*
X116355047Y-81107820D01*
X116355051Y-81107816D01*
X116451557Y-80918412D01*
X116517246Y-80716243D01*
X116550500Y-80506287D01*
X116550500Y-80293713D01*
X116517246Y-80083757D01*
X116451557Y-79881588D01*
X116355051Y-79692184D01*
X116355049Y-79692181D01*
X116355048Y-79692179D01*
X116230109Y-79520213D01*
X116079786Y-79369890D01*
X115907820Y-79244951D01*
X115718414Y-79148444D01*
X115718413Y-79148443D01*
X115718412Y-79148443D01*
X115516243Y-79082754D01*
X115516241Y-79082753D01*
X115516240Y-79082753D01*
X115354957Y-79057208D01*
X115306287Y-79049500D01*
X114493713Y-79049500D01*
X114445042Y-79057208D01*
X114283760Y-79082753D01*
X114081585Y-79148444D01*
X113892179Y-79244951D01*
X113720213Y-79369890D01*
X113569890Y-79520213D01*
X113444951Y-79692179D01*
X113348444Y-79881585D01*
X113282753Y-80083760D01*
X113249500Y-80293713D01*
X110500500Y-80293713D01*
X110500500Y-72550000D01*
X116844355Y-72550000D01*
X116864859Y-72718869D01*
X116864860Y-72718874D01*
X116925182Y-72877931D01*
X116987475Y-72968177D01*
X117021817Y-73017929D01*
X117122001Y-73106684D01*
X117149150Y-73130736D01*
X117299773Y-73209789D01*
X117299775Y-73209790D01*
X117464944Y-73250500D01*
X117635056Y-73250500D01*
X117800225Y-73209790D01*
X117950852Y-73130734D01*
X117966291Y-73117056D01*
X117978000Y-73106684D01*
X118041233Y-73076963D01*
X118060226Y-73075500D01*
X118123205Y-73075500D01*
X118123221Y-73075501D01*
X118130817Y-73075501D01*
X118269181Y-73075501D01*
X118269184Y-73075501D01*
X118402835Y-73039689D01*
X118522665Y-72970505D01*
X118620505Y-72872665D01*
X118689689Y-72752835D01*
X118725501Y-72619184D01*
X118725501Y-72480817D01*
X118689689Y-72347165D01*
X118620505Y-72227335D01*
X118561819Y-72168649D01*
X118528334Y-72107326D01*
X118525500Y-72080968D01*
X118525500Y-69000000D01*
X119544355Y-69000000D01*
X119564859Y-69168869D01*
X119564860Y-69168874D01*
X119625182Y-69327931D01*
X119674506Y-69399388D01*
X119721817Y-69467929D01*
X119763662Y-69505000D01*
X119849150Y-69580736D01*
X119999773Y-69659789D01*
X119999775Y-69659790D01*
X120164944Y-69700500D01*
X120335056Y-69700500D01*
X120500225Y-69659790D01*
X120579692Y-69618081D01*
X120650849Y-69580736D01*
X120650850Y-69580734D01*
X120650852Y-69580734D01*
X120778183Y-69467929D01*
X120874818Y-69327930D01*
X120935140Y-69168872D01*
X120945301Y-69085184D01*
X120972922Y-69021008D01*
X120980705Y-69012462D01*
X121756555Y-68236613D01*
X121817876Y-68203130D01*
X121829292Y-68201200D01*
X121835052Y-68200500D01*
X121835056Y-68200500D01*
X122000225Y-68159790D01*
X122079692Y-68118081D01*
X122150849Y-68080736D01*
X122150850Y-68080734D01*
X122150852Y-68080734D01*
X122278183Y-67967929D01*
X122374818Y-67827930D01*
X122435140Y-67668872D01*
X122455645Y-67500000D01*
X122435140Y-67331128D01*
X122435138Y-67331124D01*
X122374817Y-67172068D01*
X122311773Y-67080734D01*
X122278183Y-67032071D01*
X122150852Y-66919266D01*
X122150849Y-66919263D01*
X122000226Y-66840210D01*
X121835056Y-66799500D01*
X121664944Y-66799500D01*
X121499773Y-66840210D01*
X121349150Y-66919263D01*
X121266348Y-66992620D01*
X121225275Y-67029008D01*
X121221816Y-67032072D01*
X121125182Y-67172068D01*
X121125182Y-67172069D01*
X121064860Y-67331124D01*
X121064859Y-67331129D01*
X121054697Y-67414815D01*
X121027074Y-67478992D01*
X121019282Y-67487547D01*
X120243446Y-68263384D01*
X120182123Y-68296869D01*
X120170718Y-68298798D01*
X120164949Y-68299498D01*
X119999773Y-68340210D01*
X119849150Y-68419263D01*
X119721816Y-68532072D01*
X119625182Y-68672068D01*
X119564860Y-68831125D01*
X119564859Y-68831130D01*
X119544355Y-69000000D01*
X118525500Y-69000000D01*
X118525500Y-68019031D01*
X118545185Y-67951992D01*
X118561819Y-67931350D01*
X118889175Y-67603994D01*
X119256555Y-67236613D01*
X119317876Y-67203130D01*
X119329292Y-67201200D01*
X119335052Y-67200500D01*
X119335056Y-67200500D01*
X119500225Y-67159790D01*
X119579692Y-67118081D01*
X119650849Y-67080736D01*
X119650850Y-67080734D01*
X119650852Y-67080734D01*
X119778183Y-66967929D01*
X119874818Y-66827930D01*
X119935140Y-66668872D01*
X119955645Y-66500000D01*
X119935140Y-66331128D01*
X119935138Y-66331124D01*
X119874817Y-66172068D01*
X119840476Y-66122318D01*
X119778183Y-66032071D01*
X119650852Y-65919266D01*
X119650849Y-65919263D01*
X119500226Y-65840210D01*
X119335056Y-65799500D01*
X119164944Y-65799500D01*
X118999773Y-65840210D01*
X118849150Y-65919263D01*
X118721816Y-66032072D01*
X118625182Y-66172068D01*
X118625182Y-66172069D01*
X118564860Y-66331124D01*
X118564859Y-66331129D01*
X118554697Y-66414815D01*
X118527074Y-66478992D01*
X118519282Y-66487547D01*
X117677337Y-67329493D01*
X117579496Y-67427333D01*
X117579492Y-67427338D01*
X117510311Y-67547163D01*
X117510312Y-67547163D01*
X117510312Y-67547164D01*
X117510312Y-67547165D01*
X117481148Y-67656006D01*
X117474499Y-67680818D01*
X117474499Y-67829172D01*
X117474500Y-67829185D01*
X117474500Y-71749996D01*
X117454815Y-71817035D01*
X117402011Y-71862790D01*
X117380175Y-71870393D01*
X117299773Y-71890210D01*
X117149150Y-71969263D01*
X117021816Y-72082072D01*
X116925182Y-72222068D01*
X116864860Y-72381125D01*
X116864859Y-72381130D01*
X116844355Y-72550000D01*
X110500500Y-72550000D01*
X110500500Y-67850000D01*
X112250000Y-67850000D01*
X112250000Y-68147844D01*
X112256401Y-68207372D01*
X112256403Y-68207379D01*
X112306645Y-68342086D01*
X112306647Y-68342088D01*
X112392809Y-68457186D01*
X112392811Y-68457189D01*
X112399831Y-68462444D01*
X112441702Y-68518379D01*
X112446685Y-68588070D01*
X112443450Y-68600028D01*
X112413504Y-68692192D01*
X112413503Y-68692194D01*
X112394815Y-68870000D01*
X112413503Y-69047805D01*
X112413504Y-69047807D01*
X112468747Y-69217829D01*
X112468750Y-69217835D01*
X112558138Y-69372661D01*
X112558139Y-69372663D01*
X112558141Y-69372665D01*
X112602588Y-69422028D01*
X112632817Y-69485020D01*
X112624191Y-69554355D01*
X112602588Y-69587972D01*
X112558138Y-69637338D01*
X112468750Y-69792164D01*
X112468747Y-69792170D01*
X112413504Y-69962192D01*
X112413503Y-69962194D01*
X112394815Y-70140000D01*
X112413503Y-70317805D01*
X112413504Y-70317807D01*
X112468747Y-70487829D01*
X112468750Y-70487835D01*
X112558138Y-70642661D01*
X112558139Y-70642663D01*
X112558141Y-70642665D01*
X112602588Y-70692028D01*
X112632817Y-70755020D01*
X112624191Y-70824355D01*
X112602588Y-70857972D01*
X112558138Y-70907338D01*
X112468750Y-71062164D01*
X112468747Y-71062170D01*
X112413504Y-71232192D01*
X112413503Y-71232194D01*
X112394815Y-71410000D01*
X112413503Y-71587805D01*
X112413504Y-71587807D01*
X112468747Y-71757829D01*
X112468750Y-71757835D01*
X112558141Y-71912665D01*
X112599812Y-71958946D01*
X112677764Y-72045521D01*
X112677767Y-72045523D01*
X112677770Y-72045526D01*
X112822407Y-72150612D01*
X112985733Y-72223329D01*
X113160609Y-72260500D01*
X113160610Y-72260500D01*
X113339389Y-72260500D01*
X113339391Y-72260500D01*
X113514267Y-72223329D01*
X113677593Y-72150612D01*
X113822230Y-72045526D01*
X113941859Y-71912665D01*
X114031250Y-71757835D01*
X114086497Y-71587803D01*
X114105185Y-71410000D01*
X114086497Y-71232197D01*
X114031250Y-71062165D01*
X113941859Y-70907335D01*
X113897412Y-70857972D01*
X113867182Y-70794981D01*
X113875807Y-70725646D01*
X113897412Y-70692028D01*
X113898124Y-70691236D01*
X113941859Y-70642665D01*
X114031250Y-70487835D01*
X114086497Y-70317803D01*
X114105185Y-70140000D01*
X114086497Y-69962197D01*
X114031250Y-69792165D01*
X113941859Y-69637335D01*
X113897412Y-69587972D01*
X113867182Y-69524981D01*
X113875807Y-69455646D01*
X113897412Y-69422028D01*
X113907963Y-69410310D01*
X113941859Y-69372665D01*
X114031250Y-69217835D01*
X114086497Y-69047803D01*
X114105185Y-68870000D01*
X114086497Y-68692197D01*
X114056548Y-68600026D01*
X114054554Y-68530187D01*
X114090634Y-68470354D01*
X114100176Y-68462438D01*
X114107189Y-68457188D01*
X114193352Y-68342088D01*
X114193354Y-68342086D01*
X114243596Y-68207379D01*
X114243598Y-68207372D01*
X114249999Y-68147844D01*
X114250000Y-68147827D01*
X114250000Y-67850000D01*
X113459618Y-67850000D01*
X113510064Y-67799554D01*
X113552851Y-67725445D01*
X113575000Y-67642787D01*
X113575000Y-67557213D01*
X113552851Y-67474555D01*
X113510064Y-67400446D01*
X113459618Y-67350000D01*
X113500000Y-67350000D01*
X114250000Y-67350000D01*
X114250000Y-67052172D01*
X114249999Y-67052155D01*
X114243598Y-66992627D01*
X114243596Y-66992620D01*
X114193354Y-66857913D01*
X114193350Y-66857906D01*
X114107190Y-66742812D01*
X114107187Y-66742809D01*
X113992093Y-66656649D01*
X113992086Y-66656645D01*
X113857379Y-66606403D01*
X113857372Y-66606401D01*
X113797844Y-66600000D01*
X113500000Y-66600000D01*
X113500000Y-67350000D01*
X113459618Y-67350000D01*
X113449554Y-67339936D01*
X113375445Y-67297149D01*
X113292787Y-67275000D01*
X113207213Y-67275000D01*
X113124555Y-67297149D01*
X113050446Y-67339936D01*
X112989936Y-67400446D01*
X112947149Y-67474555D01*
X112925000Y-67557213D01*
X112925000Y-67642787D01*
X112947149Y-67725445D01*
X112989936Y-67799554D01*
X113040382Y-67850000D01*
X112250000Y-67850000D01*
X110500500Y-67850000D01*
X110500500Y-67052155D01*
X112250000Y-67052155D01*
X112250000Y-67350000D01*
X113000000Y-67350000D01*
X113000000Y-66600000D01*
X112702155Y-66600000D01*
X112642627Y-66606401D01*
X112642620Y-66606403D01*
X112507913Y-66656645D01*
X112507906Y-66656649D01*
X112392812Y-66742809D01*
X112392809Y-66742812D01*
X112306649Y-66857906D01*
X112306645Y-66857913D01*
X112256403Y-66992620D01*
X112256401Y-66992627D01*
X112250000Y-67052155D01*
X110500500Y-67052155D01*
X110500500Y-63003750D01*
X110500726Y-62996263D01*
X110504486Y-62934108D01*
X110507837Y-62878711D01*
X111149500Y-62878711D01*
X111149500Y-63121288D01*
X111181161Y-63361785D01*
X111243947Y-63596104D01*
X111272736Y-63665606D01*
X111336776Y-63820212D01*
X111458064Y-64030289D01*
X111458066Y-64030292D01*
X111458067Y-64030293D01*
X111605733Y-64222736D01*
X111605739Y-64222743D01*
X111777256Y-64394260D01*
X111777263Y-64394266D01*
X111807437Y-64417419D01*
X111969711Y-64541936D01*
X112179788Y-64663224D01*
X112403900Y-64756054D01*
X112638211Y-64818838D01*
X112818586Y-64842584D01*
X112878711Y-64850500D01*
X112878712Y-64850500D01*
X113121289Y-64850500D01*
X113169388Y-64844167D01*
X113361789Y-64818838D01*
X113596100Y-64756054D01*
X113820212Y-64663224D01*
X114030289Y-64541936D01*
X114222738Y-64394265D01*
X114394265Y-64222738D01*
X114541936Y-64030289D01*
X114663224Y-63820212D01*
X114756054Y-63596100D01*
X114818838Y-63361789D01*
X114850500Y-63121288D01*
X114850500Y-62878712D01*
X114818838Y-62638211D01*
X114756054Y-62403900D01*
X114663224Y-62179788D01*
X114541936Y-61969711D01*
X114394265Y-61777262D01*
X114394260Y-61777256D01*
X114222743Y-61605739D01*
X114222736Y-61605733D01*
X114030293Y-61458067D01*
X114030292Y-61458066D01*
X114030289Y-61458064D01*
X113858661Y-61358974D01*
X113820214Y-61336777D01*
X113820205Y-61336773D01*
X113596104Y-61243947D01*
X113361785Y-61181161D01*
X113121289Y-61149500D01*
X113121288Y-61149500D01*
X112878712Y-61149500D01*
X112878711Y-61149500D01*
X112638214Y-61181161D01*
X112403895Y-61243947D01*
X112179794Y-61336773D01*
X112179785Y-61336777D01*
X111969706Y-61458067D01*
X111777263Y-61605733D01*
X111777256Y-61605739D01*
X111605739Y-61777256D01*
X111605733Y-61777263D01*
X111458067Y-61969706D01*
X111336777Y-62179785D01*
X111336773Y-62179794D01*
X111243947Y-62403895D01*
X111181161Y-62638214D01*
X111149500Y-62878711D01*
X110507837Y-62878711D01*
X110518271Y-62706201D01*
X110520076Y-62691340D01*
X110529813Y-62638211D01*
X110571780Y-62409197D01*
X110575364Y-62394663D01*
X110660696Y-62120822D01*
X110665998Y-62106841D01*
X110783731Y-61845249D01*
X110790676Y-61832016D01*
X110939080Y-61586526D01*
X110947567Y-61574230D01*
X111124480Y-61348417D01*
X111134395Y-61337226D01*
X111337226Y-61134395D01*
X111348417Y-61124480D01*
X111574230Y-60947567D01*
X111586526Y-60939080D01*
X111832016Y-60790676D01*
X111845249Y-60783731D01*
X112106841Y-60665998D01*
X112120822Y-60660696D01*
X112394668Y-60575362D01*
X112409197Y-60571780D01*
X112691344Y-60520075D01*
X112706201Y-60518271D01*
X112996264Y-60500726D01*
X113003751Y-60500500D01*
X129996000Y-60500500D01*
X130063039Y-60520185D01*
G37*
%TD.AperFunction*%
%TA.AperFunction,Conductor*%
G36*
X129310000Y-99064314D02*
G01*
X129305606Y-99059920D01*
X129214394Y-99007259D01*
X129112661Y-98980000D01*
X129007339Y-98980000D01*
X128905606Y-99007259D01*
X128814394Y-99059920D01*
X128810000Y-99064314D01*
X128810000Y-97155686D01*
X128814394Y-97160080D01*
X128905606Y-97212741D01*
X129007339Y-97240000D01*
X129112661Y-97240000D01*
X129214394Y-97212741D01*
X129305606Y-97160080D01*
X129310000Y-97155686D01*
X129310000Y-99064314D01*
G37*
%TD.AperFunction*%
%TD*%
M02*
