%TF.GenerationSoftware,KiCad,Pcbnew,8.0.3*%
%TF.CreationDate,2024-06-13T00:49:58+02:00*%
%TF.ProjectId,can-proto,63616e2d-7072-46f7-946f-2e6b69636164,1*%
%TF.SameCoordinates,Original*%
%TF.FileFunction,Legend,Bot*%
%TF.FilePolarity,Positive*%
%FSLAX46Y46*%
G04 Gerber Fmt 4.6, Leading zero omitted, Abs format (unit mm)*
G04 Created by KiCad (PCBNEW 8.0.3) date 2024-06-13 00:49:58*
%MOMM*%
%LPD*%
G01*
G04 APERTURE LIST*
%ADD10C,0.150000*%
%ADD11C,0.000000*%
G04 APERTURE END LIST*
D10*
X124119819Y-95258458D02*
X123643628Y-94925125D01*
X124119819Y-94687030D02*
X123119819Y-94687030D01*
X123119819Y-94687030D02*
X123119819Y-95067982D01*
X123119819Y-95067982D02*
X123167438Y-95163220D01*
X123167438Y-95163220D02*
X123215057Y-95210839D01*
X123215057Y-95210839D02*
X123310295Y-95258458D01*
X123310295Y-95258458D02*
X123453152Y-95258458D01*
X123453152Y-95258458D02*
X123548390Y-95210839D01*
X123548390Y-95210839D02*
X123596009Y-95163220D01*
X123596009Y-95163220D02*
X123643628Y-95067982D01*
X123643628Y-95067982D02*
X123643628Y-94687030D01*
X124072200Y-96067982D02*
X124119819Y-95972744D01*
X124119819Y-95972744D02*
X124119819Y-95782268D01*
X124119819Y-95782268D02*
X124072200Y-95687030D01*
X124072200Y-95687030D02*
X123976961Y-95639411D01*
X123976961Y-95639411D02*
X123596009Y-95639411D01*
X123596009Y-95639411D02*
X123500771Y-95687030D01*
X123500771Y-95687030D02*
X123453152Y-95782268D01*
X123453152Y-95782268D02*
X123453152Y-95972744D01*
X123453152Y-95972744D02*
X123500771Y-96067982D01*
X123500771Y-96067982D02*
X123596009Y-96115601D01*
X123596009Y-96115601D02*
X123691247Y-96115601D01*
X123691247Y-96115601D02*
X123786485Y-95639411D01*
X123453152Y-96448935D02*
X124119819Y-96687030D01*
X124119819Y-96687030D02*
X123453152Y-96925125D01*
X124024580Y-97306078D02*
X124072200Y-97353697D01*
X124072200Y-97353697D02*
X124119819Y-97306078D01*
X124119819Y-97306078D02*
X124072200Y-97258459D01*
X124072200Y-97258459D02*
X124024580Y-97306078D01*
X124024580Y-97306078D02*
X124119819Y-97306078D01*
X123215057Y-98496554D02*
X123167438Y-98544173D01*
X123167438Y-98544173D02*
X123119819Y-98639411D01*
X123119819Y-98639411D02*
X123119819Y-98877506D01*
X123119819Y-98877506D02*
X123167438Y-98972744D01*
X123167438Y-98972744D02*
X123215057Y-99020363D01*
X123215057Y-99020363D02*
X123310295Y-99067982D01*
X123310295Y-99067982D02*
X123405533Y-99067982D01*
X123405533Y-99067982D02*
X123548390Y-99020363D01*
X123548390Y-99020363D02*
X124119819Y-98448935D01*
X124119819Y-98448935D02*
X124119819Y-99067982D01*
X123119819Y-99687030D02*
X123119819Y-99782268D01*
X123119819Y-99782268D02*
X123167438Y-99877506D01*
X123167438Y-99877506D02*
X123215057Y-99925125D01*
X123215057Y-99925125D02*
X123310295Y-99972744D01*
X123310295Y-99972744D02*
X123500771Y-100020363D01*
X123500771Y-100020363D02*
X123738866Y-100020363D01*
X123738866Y-100020363D02*
X123929342Y-99972744D01*
X123929342Y-99972744D02*
X124024580Y-99925125D01*
X124024580Y-99925125D02*
X124072200Y-99877506D01*
X124072200Y-99877506D02*
X124119819Y-99782268D01*
X124119819Y-99782268D02*
X124119819Y-99687030D01*
X124119819Y-99687030D02*
X124072200Y-99591792D01*
X124072200Y-99591792D02*
X124024580Y-99544173D01*
X124024580Y-99544173D02*
X123929342Y-99496554D01*
X123929342Y-99496554D02*
X123738866Y-99448935D01*
X123738866Y-99448935D02*
X123500771Y-99448935D01*
X123500771Y-99448935D02*
X123310295Y-99496554D01*
X123310295Y-99496554D02*
X123215057Y-99544173D01*
X123215057Y-99544173D02*
X123167438Y-99591792D01*
X123167438Y-99591792D02*
X123119819Y-99687030D01*
X123215057Y-100401316D02*
X123167438Y-100448935D01*
X123167438Y-100448935D02*
X123119819Y-100544173D01*
X123119819Y-100544173D02*
X123119819Y-100782268D01*
X123119819Y-100782268D02*
X123167438Y-100877506D01*
X123167438Y-100877506D02*
X123215057Y-100925125D01*
X123215057Y-100925125D02*
X123310295Y-100972744D01*
X123310295Y-100972744D02*
X123405533Y-100972744D01*
X123405533Y-100972744D02*
X123548390Y-100925125D01*
X123548390Y-100925125D02*
X124119819Y-100353697D01*
X124119819Y-100353697D02*
X124119819Y-100972744D01*
X123453152Y-101829887D02*
X124119819Y-101829887D01*
X123072200Y-101591792D02*
X123786485Y-101353697D01*
X123786485Y-101353697D02*
X123786485Y-101972744D01*
X123738866Y-102353697D02*
X123738866Y-103115602D01*
X123119819Y-103782268D02*
X123119819Y-103877506D01*
X123119819Y-103877506D02*
X123167438Y-103972744D01*
X123167438Y-103972744D02*
X123215057Y-104020363D01*
X123215057Y-104020363D02*
X123310295Y-104067982D01*
X123310295Y-104067982D02*
X123500771Y-104115601D01*
X123500771Y-104115601D02*
X123738866Y-104115601D01*
X123738866Y-104115601D02*
X123929342Y-104067982D01*
X123929342Y-104067982D02*
X124024580Y-104020363D01*
X124024580Y-104020363D02*
X124072200Y-103972744D01*
X124072200Y-103972744D02*
X124119819Y-103877506D01*
X124119819Y-103877506D02*
X124119819Y-103782268D01*
X124119819Y-103782268D02*
X124072200Y-103687030D01*
X124072200Y-103687030D02*
X124024580Y-103639411D01*
X124024580Y-103639411D02*
X123929342Y-103591792D01*
X123929342Y-103591792D02*
X123738866Y-103544173D01*
X123738866Y-103544173D02*
X123500771Y-103544173D01*
X123500771Y-103544173D02*
X123310295Y-103591792D01*
X123310295Y-103591792D02*
X123215057Y-103639411D01*
X123215057Y-103639411D02*
X123167438Y-103687030D01*
X123167438Y-103687030D02*
X123119819Y-103782268D01*
X123119819Y-104972744D02*
X123119819Y-104782268D01*
X123119819Y-104782268D02*
X123167438Y-104687030D01*
X123167438Y-104687030D02*
X123215057Y-104639411D01*
X123215057Y-104639411D02*
X123357914Y-104544173D01*
X123357914Y-104544173D02*
X123548390Y-104496554D01*
X123548390Y-104496554D02*
X123929342Y-104496554D01*
X123929342Y-104496554D02*
X124024580Y-104544173D01*
X124024580Y-104544173D02*
X124072200Y-104591792D01*
X124072200Y-104591792D02*
X124119819Y-104687030D01*
X124119819Y-104687030D02*
X124119819Y-104877506D01*
X124119819Y-104877506D02*
X124072200Y-104972744D01*
X124072200Y-104972744D02*
X124024580Y-105020363D01*
X124024580Y-105020363D02*
X123929342Y-105067982D01*
X123929342Y-105067982D02*
X123691247Y-105067982D01*
X123691247Y-105067982D02*
X123596009Y-105020363D01*
X123596009Y-105020363D02*
X123548390Y-104972744D01*
X123548390Y-104972744D02*
X123500771Y-104877506D01*
X123500771Y-104877506D02*
X123500771Y-104687030D01*
X123500771Y-104687030D02*
X123548390Y-104591792D01*
X123548390Y-104591792D02*
X123596009Y-104544173D01*
X123596009Y-104544173D02*
X123691247Y-104496554D01*
X123738866Y-105496554D02*
X123738866Y-106258459D01*
X124119819Y-107258458D02*
X124119819Y-106687030D01*
X124119819Y-106972744D02*
X123119819Y-106972744D01*
X123119819Y-106972744D02*
X123262676Y-106877506D01*
X123262676Y-106877506D02*
X123357914Y-106782268D01*
X123357914Y-106782268D02*
X123405533Y-106687030D01*
X123119819Y-107591792D02*
X123119819Y-108210839D01*
X123119819Y-108210839D02*
X123500771Y-107877506D01*
X123500771Y-107877506D02*
X123500771Y-108020363D01*
X123500771Y-108020363D02*
X123548390Y-108115601D01*
X123548390Y-108115601D02*
X123596009Y-108163220D01*
X123596009Y-108163220D02*
X123691247Y-108210839D01*
X123691247Y-108210839D02*
X123929342Y-108210839D01*
X123929342Y-108210839D02*
X124024580Y-108163220D01*
X124024580Y-108163220D02*
X124072200Y-108115601D01*
X124072200Y-108115601D02*
X124119819Y-108020363D01*
X124119819Y-108020363D02*
X124119819Y-107734649D01*
X124119819Y-107734649D02*
X124072200Y-107639411D01*
X124072200Y-107639411D02*
X124024580Y-107591792D01*
D11*
G36*
X121440000Y-70242258D02*
G01*
X120314463Y-70728112D01*
X121440000Y-71214893D01*
X121440027Y-71540171D01*
X119936612Y-70890699D01*
X119936612Y-70565499D01*
X121440000Y-69916000D01*
X121440000Y-70242258D01*
G37*
G36*
X122104766Y-70614897D02*
G01*
X122105353Y-70645093D01*
X122107114Y-70673342D01*
X122110049Y-70699643D01*
X122114157Y-70723997D01*
X122119440Y-70746403D01*
X122125897Y-70766861D01*
X122133528Y-70785372D01*
X122142333Y-70801934D01*
X122147176Y-70809485D01*
X122152313Y-70816549D01*
X122157743Y-70823125D01*
X122163466Y-70829215D01*
X122169483Y-70834817D01*
X122175794Y-70839933D01*
X122182399Y-70844561D01*
X122189296Y-70848702D01*
X122196488Y-70852356D01*
X122203973Y-70855523D01*
X122211752Y-70858203D01*
X122219824Y-70860395D01*
X122228190Y-70862101D01*
X122236849Y-70863319D01*
X122245802Y-70864050D01*
X122255049Y-70864293D01*
X122264301Y-70864050D01*
X122273259Y-70863319D01*
X122281923Y-70862101D01*
X122290294Y-70860395D01*
X122298371Y-70858203D01*
X122306154Y-70855523D01*
X122313644Y-70852356D01*
X122320840Y-70848702D01*
X122327743Y-70844561D01*
X122334352Y-70839933D01*
X122340667Y-70834817D01*
X122346688Y-70829215D01*
X122352416Y-70823125D01*
X122357850Y-70816549D01*
X122362991Y-70809485D01*
X122367837Y-70801934D01*
X122372390Y-70793896D01*
X122376650Y-70785372D01*
X122380615Y-70776360D01*
X122384287Y-70766861D01*
X122387665Y-70756875D01*
X122390750Y-70746403D01*
X122393540Y-70735443D01*
X122396037Y-70723997D01*
X122398240Y-70712063D01*
X122400150Y-70699643D01*
X122401766Y-70686736D01*
X122403088Y-70673342D01*
X122404116Y-70659461D01*
X122404850Y-70645093D01*
X122405291Y-70630239D01*
X122405438Y-70614897D01*
X122405438Y-69667186D01*
X122706084Y-69667186D01*
X122706084Y-70112110D01*
X123307430Y-70814420D01*
X123307430Y-71274345D01*
X122706058Y-70572008D01*
X122706058Y-70664824D01*
X122704297Y-70725217D01*
X122699011Y-70781716D01*
X122695047Y-70808505D01*
X122690202Y-70834321D01*
X122684477Y-70859163D01*
X122677870Y-70883032D01*
X122670382Y-70905927D01*
X122662014Y-70927848D01*
X122652764Y-70948796D01*
X122642634Y-70968769D01*
X122631622Y-70987769D01*
X122619730Y-71005795D01*
X122606957Y-71022847D01*
X122593303Y-71038925D01*
X122578768Y-71054029D01*
X122563352Y-71068159D01*
X122547054Y-71081314D01*
X122529876Y-71093496D01*
X122511817Y-71104703D01*
X122492878Y-71114936D01*
X122473057Y-71124195D01*
X122452355Y-71132479D01*
X122430772Y-71139789D01*
X122408308Y-71146124D01*
X122384963Y-71151485D01*
X122360737Y-71155871D01*
X122335630Y-71159283D01*
X122309642Y-71161720D01*
X122282773Y-71163182D01*
X122255023Y-71163669D01*
X122227283Y-71163182D01*
X122200422Y-71161720D01*
X122174442Y-71159283D01*
X122149342Y-71155872D01*
X122125122Y-71151487D01*
X122101783Y-71146126D01*
X122079323Y-71139792D01*
X122057744Y-71132483D01*
X122037046Y-71124199D01*
X122017228Y-71114941D01*
X121998290Y-71104709D01*
X121980233Y-71093503D01*
X121963056Y-71081322D01*
X121946760Y-71068167D01*
X121931344Y-71054038D01*
X121916809Y-71038935D01*
X121903155Y-71022858D01*
X121890381Y-71005806D01*
X121878488Y-70987781D01*
X121867476Y-70968781D01*
X121857345Y-70948807D01*
X121848094Y-70927860D01*
X121839724Y-70905938D01*
X121832236Y-70883043D01*
X121825628Y-70859174D01*
X121819901Y-70834331D01*
X121815055Y-70808514D01*
X121811090Y-70781723D01*
X121808006Y-70753959D01*
X121805803Y-70725221D01*
X121804481Y-70695510D01*
X121804040Y-70664824D01*
X121804040Y-69667186D01*
X122104766Y-69667186D01*
X122104766Y-70614897D01*
G37*
G36*
X121440028Y-68221185D02*
G01*
X120589075Y-68221185D01*
X121440027Y-68651160D01*
X121440027Y-68988319D01*
X121438995Y-68988319D01*
X120588095Y-69418293D01*
X121440027Y-69418293D01*
X121440027Y-69717616D01*
X119936638Y-69717616D01*
X119936638Y-69411308D01*
X121106255Y-68819752D01*
X119936638Y-68228170D01*
X119936638Y-67921889D01*
X121440028Y-67921889D01*
X121440028Y-68221185D01*
G37*
G36*
X123846677Y-64576392D02*
G01*
X123855550Y-64570561D01*
X123864616Y-64565152D01*
X123873860Y-64560166D01*
X123883270Y-64555603D01*
X123902523Y-64547749D01*
X123922261Y-64541591D01*
X123942366Y-64537134D01*
X123962724Y-64534379D01*
X123983217Y-64533330D01*
X124003731Y-64533989D01*
X124024148Y-64536360D01*
X124044354Y-64540444D01*
X124064233Y-64546245D01*
X124074013Y-64549791D01*
X124083668Y-64553766D01*
X124093182Y-64558173D01*
X124102543Y-64563010D01*
X124111734Y-64568278D01*
X124120743Y-64573979D01*
X124129553Y-64580111D01*
X124138151Y-64586676D01*
X124146523Y-64593673D01*
X124154653Y-64601104D01*
X124163549Y-64610042D01*
X124171893Y-64619319D01*
X124179684Y-64628914D01*
X124186921Y-64638804D01*
X124193603Y-64648969D01*
X124199731Y-64659386D01*
X124205304Y-64670033D01*
X124210321Y-64680889D01*
X124214782Y-64691932D01*
X124218686Y-64703140D01*
X124222032Y-64714492D01*
X124224821Y-64725965D01*
X124227052Y-64737538D01*
X124228724Y-64749190D01*
X124229837Y-64760898D01*
X124230390Y-64772640D01*
X124230382Y-64784395D01*
X124229814Y-64796142D01*
X124228685Y-64807857D01*
X124226993Y-64819521D01*
X124224740Y-64831110D01*
X124221924Y-64842603D01*
X124218544Y-64853978D01*
X124214601Y-64865214D01*
X124210093Y-64876289D01*
X124205020Y-64887181D01*
X124199382Y-64897868D01*
X124193179Y-64908328D01*
X124186409Y-64918541D01*
X124179072Y-64928483D01*
X124171168Y-64938133D01*
X124162696Y-64947470D01*
X124153755Y-64956366D01*
X124144476Y-64964710D01*
X124134879Y-64972500D01*
X124124986Y-64979737D01*
X124114820Y-64986419D01*
X124104401Y-64992546D01*
X124093753Y-64998118D01*
X124082895Y-65003134D01*
X124071850Y-65007593D01*
X124060641Y-65011496D01*
X124049288Y-65014841D01*
X124037813Y-65017629D01*
X124026239Y-65019858D01*
X124014586Y-65021528D01*
X124002877Y-65022639D01*
X123991133Y-65023190D01*
X123979377Y-65023181D01*
X123967629Y-65022611D01*
X123955912Y-65021479D01*
X123944248Y-65019786D01*
X123932657Y-65017531D01*
X123921163Y-65014712D01*
X123909786Y-65011330D01*
X123898548Y-65007384D01*
X123887472Y-65002874D01*
X123876578Y-64997799D01*
X123865890Y-64992159D01*
X123855427Y-64985953D01*
X123845213Y-64979181D01*
X123835269Y-64971841D01*
X123825616Y-64963935D01*
X123816277Y-64955460D01*
X123816276Y-64955460D01*
X123808483Y-64947678D01*
X123801110Y-64939635D01*
X123794160Y-64931345D01*
X123787631Y-64922824D01*
X123781525Y-64914086D01*
X123775842Y-64905145D01*
X123770582Y-64896015D01*
X123765745Y-64886712D01*
X123761332Y-64877250D01*
X123757342Y-64867642D01*
X123753777Y-64857904D01*
X123750637Y-64848051D01*
X123747921Y-64838096D01*
X123745630Y-64828054D01*
X123743765Y-64817939D01*
X123742325Y-64807767D01*
X123741312Y-64797551D01*
X123740725Y-64787306D01*
X123740564Y-64777046D01*
X123740830Y-64766787D01*
X123741524Y-64756542D01*
X123742645Y-64746326D01*
X123744194Y-64736153D01*
X123746171Y-64726038D01*
X123748576Y-64715996D01*
X123751411Y-64706040D01*
X123754674Y-64696186D01*
X123758366Y-64686447D01*
X123762489Y-64676839D01*
X123767041Y-64667375D01*
X123772023Y-64658071D01*
X123777436Y-64648941D01*
X122917011Y-63827277D01*
X119840145Y-63827277D01*
X119086056Y-64628753D01*
X119091955Y-64637582D01*
X119097433Y-64646608D01*
X119102489Y-64655816D01*
X119107123Y-64665191D01*
X119115123Y-64684387D01*
X119121428Y-64704079D01*
X119126036Y-64724151D01*
X119128943Y-64744488D01*
X119130144Y-64764974D01*
X119129637Y-64785492D01*
X119127417Y-64805927D01*
X119123481Y-64826164D01*
X119117825Y-64846085D01*
X119114351Y-64855891D01*
X119110446Y-64865576D01*
X119106109Y-64875123D01*
X119101339Y-64884520D01*
X119096137Y-64893751D01*
X119090502Y-64902801D01*
X119084433Y-64911657D01*
X119077930Y-64920304D01*
X119070992Y-64928728D01*
X119063620Y-64936913D01*
X119054749Y-64945875D01*
X119045535Y-64954287D01*
X119036000Y-64962148D01*
X119026165Y-64969457D01*
X119016051Y-64976214D01*
X119005682Y-64982418D01*
X118995077Y-64988068D01*
X118984260Y-64993164D01*
X118973252Y-64997705D01*
X118962074Y-65001690D01*
X118950749Y-65005119D01*
X118939297Y-65007991D01*
X118927742Y-65010306D01*
X118916104Y-65012062D01*
X118904406Y-65013259D01*
X118892669Y-65013897D01*
X118880915Y-65013975D01*
X118869165Y-65013491D01*
X118857442Y-65012447D01*
X118845767Y-65010840D01*
X118834161Y-65008670D01*
X118822647Y-65005937D01*
X118811247Y-65002639D01*
X118799982Y-64998777D01*
X118788873Y-64994350D01*
X118777944Y-64989356D01*
X118767214Y-64983796D01*
X118756707Y-64977668D01*
X118746443Y-64970972D01*
X118736445Y-64963708D01*
X118726735Y-64955874D01*
X118717333Y-64947470D01*
X118708371Y-64938602D01*
X118699959Y-64929390D01*
X118692099Y-64919856D01*
X118684790Y-64910022D01*
X118678034Y-64899909D01*
X118671831Y-64889540D01*
X118666182Y-64878935D01*
X118661087Y-64868118D01*
X118656547Y-64857109D01*
X118652563Y-64845931D01*
X118649135Y-64834605D01*
X118646265Y-64823153D01*
X118643952Y-64811596D01*
X118642197Y-64799957D01*
X118641002Y-64788258D01*
X118640366Y-64776520D01*
X118640290Y-64764764D01*
X118640775Y-64753013D01*
X118641822Y-64741289D01*
X118643431Y-64729612D01*
X118645603Y-64718006D01*
X118648338Y-64706492D01*
X118651638Y-64695091D01*
X118655502Y-64683825D01*
X118659932Y-64672716D01*
X118664928Y-64661787D01*
X118670491Y-64651057D01*
X118676621Y-64640551D01*
X118683319Y-64630288D01*
X118690586Y-64620292D01*
X118698423Y-64610583D01*
X118706829Y-64601184D01*
X118714551Y-64593332D01*
X118722537Y-64585899D01*
X118730773Y-64578886D01*
X118739244Y-64572293D01*
X118747936Y-64566121D01*
X118756834Y-64560370D01*
X118765923Y-64555041D01*
X118775190Y-64550133D01*
X118784619Y-64545648D01*
X118794197Y-64541585D01*
X118803908Y-64537946D01*
X118813739Y-64534731D01*
X118823674Y-64531940D01*
X118833700Y-64529573D01*
X118843801Y-64527631D01*
X118853964Y-64526115D01*
X118864173Y-64525024D01*
X118874415Y-64524360D01*
X118884675Y-64524123D01*
X118894938Y-64524312D01*
X118905190Y-64524930D01*
X118915416Y-64525975D01*
X118925602Y-64527449D01*
X118935734Y-64529352D01*
X118945797Y-64531684D01*
X118955776Y-64534446D01*
X118965657Y-64537638D01*
X118975425Y-64541261D01*
X118985067Y-64545315D01*
X118994567Y-64549800D01*
X119003911Y-64554717D01*
X119013084Y-64560067D01*
X119796833Y-63727000D01*
X122957228Y-63727000D01*
X123846677Y-64576392D01*
G37*
G36*
X124370208Y-74338193D02*
G01*
X124287816Y-74338193D01*
X124287816Y-74008654D01*
X124287818Y-74008628D01*
X124205426Y-74008628D01*
X124205426Y-74338166D01*
X124123062Y-74338166D01*
X124123062Y-74008628D01*
X124040670Y-74008628D01*
X124040670Y-74338166D01*
X123958278Y-74338166D01*
X123958278Y-73926263D01*
X124370208Y-73926263D01*
X124370208Y-74338193D01*
G37*
G36*
X124123035Y-74919589D02*
G01*
X124370208Y-74919589D01*
X124287817Y-75002006D01*
X124205479Y-75002006D01*
X124205479Y-75194252D01*
X124205519Y-75197634D01*
X124205640Y-75200908D01*
X124205840Y-75204073D01*
X124206121Y-75207132D01*
X124206483Y-75210082D01*
X124206925Y-75212924D01*
X124207447Y-75215659D01*
X124208049Y-75218286D01*
X124208732Y-75220806D01*
X124209495Y-75223218D01*
X124210338Y-75225522D01*
X124211262Y-75227719D01*
X124212266Y-75229809D01*
X124213351Y-75231790D01*
X124214516Y-75233665D01*
X124215761Y-75235432D01*
X124217087Y-75237092D01*
X124218493Y-75238644D01*
X124219980Y-75240089D01*
X124221546Y-75241427D01*
X124223194Y-75242658D01*
X124224921Y-75243781D01*
X124226729Y-75244797D01*
X124228618Y-75245707D01*
X124230587Y-75246509D01*
X124232636Y-75247204D01*
X124234766Y-75247792D01*
X124236976Y-75248273D01*
X124239267Y-75248647D01*
X124241638Y-75248914D01*
X124244090Y-75249074D01*
X124246622Y-75249128D01*
X124249156Y-75249060D01*
X124251610Y-75248859D01*
X124253984Y-75248524D01*
X124256277Y-75248055D01*
X124258489Y-75247451D01*
X124260622Y-75246714D01*
X124262673Y-75245842D01*
X124264645Y-75244837D01*
X124266535Y-75243697D01*
X124268346Y-75242423D01*
X124270076Y-75241015D01*
X124271725Y-75239474D01*
X124273294Y-75237798D01*
X124274783Y-75235988D01*
X124276191Y-75234044D01*
X124277518Y-75231966D01*
X124279932Y-75227408D01*
X124282024Y-75222314D01*
X124283794Y-75216684D01*
X124285242Y-75210518D01*
X124286369Y-75203816D01*
X124287174Y-75196578D01*
X124287656Y-75188804D01*
X124287817Y-75180494D01*
X124287817Y-75002006D01*
X124370209Y-74919589D01*
X124370209Y-75194253D01*
X124370088Y-75202699D01*
X124369726Y-75210877D01*
X124369123Y-75218787D01*
X124368278Y-75226428D01*
X124367192Y-75233802D01*
X124365864Y-75240908D01*
X124364295Y-75247745D01*
X124362485Y-75254315D01*
X124360433Y-75260616D01*
X124358140Y-75266649D01*
X124355606Y-75272415D01*
X124352830Y-75277912D01*
X124349812Y-75283141D01*
X124346554Y-75288102D01*
X124343054Y-75292794D01*
X124339312Y-75297219D01*
X124335330Y-75301376D01*
X124331105Y-75305264D01*
X124326640Y-75308884D01*
X124321933Y-75312236D01*
X124316985Y-75315320D01*
X124311795Y-75318136D01*
X124306364Y-75320684D01*
X124300692Y-75322964D01*
X124294778Y-75324975D01*
X124288623Y-75326718D01*
X124282226Y-75328193D01*
X124275588Y-75329400D01*
X124268709Y-75330339D01*
X124261588Y-75331009D01*
X124254226Y-75331411D01*
X124246622Y-75331546D01*
X124242387Y-75331505D01*
X124238259Y-75331384D01*
X124234238Y-75331182D01*
X124230324Y-75330899D01*
X124226518Y-75330535D01*
X124222818Y-75330090D01*
X124219226Y-75329565D01*
X124215741Y-75328959D01*
X124212363Y-75328272D01*
X124209092Y-75327505D01*
X124205928Y-75326657D01*
X124202872Y-75325729D01*
X124199923Y-75324720D01*
X124197081Y-75323630D01*
X124194346Y-75322461D01*
X124191718Y-75321210D01*
X124189197Y-75319880D01*
X124186784Y-75318469D01*
X124184478Y-75316977D01*
X124182279Y-75315406D01*
X124180187Y-75313754D01*
X124178203Y-75312022D01*
X124176326Y-75310210D01*
X124174556Y-75308317D01*
X124172893Y-75306345D01*
X124171338Y-75304292D01*
X124169889Y-75302160D01*
X124168549Y-75299947D01*
X124167315Y-75297654D01*
X124166188Y-75295282D01*
X124165169Y-75292830D01*
X124164257Y-75290297D01*
X124162330Y-75295286D01*
X124159973Y-75299955D01*
X124157184Y-75304302D01*
X124153966Y-75308328D01*
X124150317Y-75312034D01*
X124146239Y-75315417D01*
X124141731Y-75318480D01*
X124136793Y-75321220D01*
X124131427Y-75323639D01*
X124125631Y-75325736D01*
X124119407Y-75327510D01*
X124112755Y-75328963D01*
X124105674Y-75330092D01*
X124098166Y-75330900D01*
X124090229Y-75331384D01*
X124081866Y-75331546D01*
X124074267Y-75331411D01*
X124066909Y-75331009D01*
X124059791Y-75330339D01*
X124052915Y-75329400D01*
X124046280Y-75328193D01*
X124039885Y-75326718D01*
X124033731Y-75324975D01*
X124027819Y-75322964D01*
X124022147Y-75320684D01*
X124016716Y-75318136D01*
X124011527Y-75315321D01*
X124006578Y-75312237D01*
X124001871Y-75308885D01*
X123997404Y-75305264D01*
X123993179Y-75301376D01*
X123989195Y-75297219D01*
X123985453Y-75292795D01*
X123981951Y-75288102D01*
X123978691Y-75283141D01*
X123975672Y-75277912D01*
X123972895Y-75272415D01*
X123970359Y-75266650D01*
X123968064Y-75260616D01*
X123966010Y-75254315D01*
X123964199Y-75247746D01*
X123962628Y-75240908D01*
X123961299Y-75233802D01*
X123960212Y-75226429D01*
X123958762Y-75210877D01*
X123958279Y-75194253D01*
X123958279Y-75002006D01*
X124040644Y-75002006D01*
X124040644Y-75180494D01*
X124040684Y-75184721D01*
X124040805Y-75188813D01*
X124041007Y-75192770D01*
X124041290Y-75196593D01*
X124041653Y-75200281D01*
X124042097Y-75203835D01*
X124042621Y-75207255D01*
X124043226Y-75210540D01*
X124043912Y-75213691D01*
X124044678Y-75216707D01*
X124045524Y-75219589D01*
X124046451Y-75222337D01*
X124047458Y-75224950D01*
X124048546Y-75227430D01*
X124049714Y-75229775D01*
X124050963Y-75231986D01*
X124052291Y-75234062D01*
X124053700Y-75236005D01*
X124055190Y-75237813D01*
X124056759Y-75239488D01*
X124058409Y-75241028D01*
X124060139Y-75242434D01*
X124061949Y-75243706D01*
X124063839Y-75244844D01*
X124065809Y-75245848D01*
X124067859Y-75246718D01*
X124069989Y-75247455D01*
X124072200Y-75248057D01*
X124074490Y-75248525D01*
X124076860Y-75248860D01*
X124079310Y-75249061D01*
X124081840Y-75249128D01*
X124084374Y-75249074D01*
X124086829Y-75248914D01*
X124089203Y-75248647D01*
X124091497Y-75248273D01*
X124093711Y-75247792D01*
X124095845Y-75247204D01*
X124097898Y-75246509D01*
X124099871Y-75245707D01*
X124101764Y-75244797D01*
X124103576Y-75243781D01*
X124105308Y-75242658D01*
X124106960Y-75241427D01*
X124108531Y-75240089D01*
X124110022Y-75238644D01*
X124111433Y-75237092D01*
X124112763Y-75235432D01*
X124114012Y-75233665D01*
X124115181Y-75231790D01*
X124116270Y-75229809D01*
X124117278Y-75227719D01*
X124118206Y-75225522D01*
X124119053Y-75223218D01*
X124120505Y-75218286D01*
X124121635Y-75212924D01*
X124122442Y-75207132D01*
X124122926Y-75200908D01*
X124123088Y-75194252D01*
X124123035Y-75002006D01*
X124040644Y-75002006D01*
X123958279Y-75002006D01*
X123958279Y-74919590D01*
X123958278Y-74919589D01*
X124123035Y-74919589D01*
G37*
G36*
X124370182Y-68026321D02*
G01*
X124205400Y-68026321D01*
X124205400Y-68273494D01*
X124370182Y-68273494D01*
X124370182Y-68355886D01*
X123958252Y-68355886D01*
X123958570Y-68273494D01*
X124123062Y-68273494D01*
X124123062Y-68026321D01*
X123958252Y-68026321D01*
X123958252Y-67943929D01*
X124370182Y-67943929D01*
X124370182Y-68026321D01*
G37*
G36*
X124370208Y-68511776D02*
G01*
X124287816Y-68547442D01*
X124287816Y-68743789D01*
X124370208Y-68779508D01*
X124370208Y-68869043D01*
X123958278Y-68690238D01*
X123958278Y-68645524D01*
X124061809Y-68645524D01*
X124205478Y-68707833D01*
X124205478Y-68583215D01*
X124246635Y-68565333D01*
X124205478Y-68583214D01*
X124061809Y-68645524D01*
X123958278Y-68645524D01*
X123958278Y-68600756D01*
X124246635Y-68475589D01*
X124370208Y-68421950D01*
X124370208Y-68511776D01*
G37*
G36*
X124241391Y-76403744D02*
G01*
X124249571Y-76404146D01*
X124257482Y-76404817D01*
X124265125Y-76405755D01*
X124272500Y-76406962D01*
X124279607Y-76408437D01*
X124286445Y-76410181D01*
X124293015Y-76412192D01*
X124299317Y-76414472D01*
X124305350Y-76417019D01*
X124311115Y-76419835D01*
X124316612Y-76422919D01*
X124321841Y-76426271D01*
X124326802Y-76429892D01*
X124331494Y-76433780D01*
X124335918Y-76437937D01*
X124340074Y-76442362D01*
X124343962Y-76447054D01*
X124347581Y-76452015D01*
X124350932Y-76457244D01*
X124354016Y-76462742D01*
X124356831Y-76468507D01*
X124359377Y-76474540D01*
X124361656Y-76480842D01*
X124363667Y-76487411D01*
X124365409Y-76494249D01*
X124366884Y-76501354D01*
X124368090Y-76508728D01*
X124369028Y-76516370D01*
X124369698Y-76524280D01*
X124370100Y-76532458D01*
X124370235Y-76540904D01*
X124370235Y-76815567D01*
X124150632Y-76815567D01*
X124150632Y-76733149D01*
X124287897Y-76733149D01*
X124287897Y-76552491D01*
X124287832Y-76548399D01*
X124287638Y-76544437D01*
X124287315Y-76540605D01*
X124286863Y-76536904D01*
X124286281Y-76533332D01*
X124285570Y-76529891D01*
X124284730Y-76526580D01*
X124283760Y-76523399D01*
X124282662Y-76520348D01*
X124281434Y-76517427D01*
X124280077Y-76514636D01*
X124278590Y-76511975D01*
X124276975Y-76509444D01*
X124275230Y-76507043D01*
X124273357Y-76504772D01*
X124271354Y-76502630D01*
X124269222Y-76500619D01*
X124266961Y-76498738D01*
X124264570Y-76496987D01*
X124262051Y-76495365D01*
X124259402Y-76493873D01*
X124256625Y-76492511D01*
X124253718Y-76491279D01*
X124250682Y-76490177D01*
X124247518Y-76489204D01*
X124244224Y-76488361D01*
X124240801Y-76487648D01*
X124237249Y-76487065D01*
X124233568Y-76486611D01*
X124229758Y-76486287D01*
X124225819Y-76486093D01*
X124221751Y-76486028D01*
X124106657Y-76486028D01*
X124102602Y-76486092D01*
X124098675Y-76486286D01*
X124094877Y-76486608D01*
X124091208Y-76487060D01*
X124087667Y-76487641D01*
X124084256Y-76488350D01*
X124080973Y-76489189D01*
X124077819Y-76490157D01*
X124074794Y-76491254D01*
X124071897Y-76492480D01*
X124069130Y-76493835D01*
X124066491Y-76495320D01*
X124063981Y-76496934D01*
X124061599Y-76498677D01*
X124059347Y-76500549D01*
X124057223Y-76502551D01*
X124055228Y-76504682D01*
X124053362Y-76506942D01*
X124051624Y-76509331D01*
X124050015Y-76511850D01*
X124048535Y-76514498D01*
X124047184Y-76517276D01*
X124045961Y-76520183D01*
X124044868Y-76523220D01*
X124043902Y-76526386D01*
X124043066Y-76529681D01*
X124042358Y-76533106D01*
X124041779Y-76536661D01*
X124041329Y-76540345D01*
X124041007Y-76544158D01*
X124040814Y-76548101D01*
X124040750Y-76552174D01*
X124040750Y-76815567D01*
X123958358Y-76815567D01*
X123958358Y-76540904D01*
X123958492Y-76532458D01*
X123958895Y-76524280D01*
X123959565Y-76516370D01*
X123960504Y-76508728D01*
X123961711Y-76501354D01*
X123963186Y-76494248D01*
X123964929Y-76487411D01*
X123966941Y-76480841D01*
X123969220Y-76474540D01*
X123971768Y-76468506D01*
X123974584Y-76462741D01*
X123977669Y-76457244D01*
X123981021Y-76452015D01*
X123984642Y-76447054D01*
X123988531Y-76442361D01*
X123992688Y-76437936D01*
X123997113Y-76433780D01*
X124001807Y-76429891D01*
X124006768Y-76426271D01*
X124011998Y-76422919D01*
X124017496Y-76419835D01*
X124023263Y-76417019D01*
X124029297Y-76414471D01*
X124035600Y-76412192D01*
X124042171Y-76410180D01*
X124049010Y-76408437D01*
X124056117Y-76406962D01*
X124063493Y-76405755D01*
X124071137Y-76404817D01*
X124079049Y-76404146D01*
X124087229Y-76403744D01*
X124095677Y-76403610D01*
X124232942Y-76403610D01*
X124241391Y-76403744D01*
G37*
D10*
X130330000Y-90490000D02*
X127790000Y-90490000D01*
D11*
G36*
X121270215Y-65022820D02*
G01*
X121281939Y-65023679D01*
X121293614Y-65025096D01*
X121305218Y-65027071D01*
X121316729Y-65029602D01*
X121328125Y-65032690D01*
X121339384Y-65036332D01*
X121350486Y-65040527D01*
X121361407Y-65045275D01*
X121372126Y-65050574D01*
X121382622Y-65056424D01*
X121392873Y-65062822D01*
X121402856Y-65069770D01*
X121412551Y-65077264D01*
X121421935Y-65085304D01*
X121430986Y-65093889D01*
X121439684Y-65103019D01*
X121447913Y-65112576D01*
X121455567Y-65122432D01*
X121462645Y-65132565D01*
X121469149Y-65142953D01*
X121475081Y-65153574D01*
X121480441Y-65164407D01*
X121485230Y-65175429D01*
X121489449Y-65186620D01*
X121493100Y-65197957D01*
X121496183Y-65209418D01*
X121498699Y-65220983D01*
X121500651Y-65232628D01*
X121502037Y-65244333D01*
X121502861Y-65256075D01*
X121503123Y-65267833D01*
X121502823Y-65279585D01*
X121501963Y-65291309D01*
X121500545Y-65302984D01*
X121498568Y-65314588D01*
X121496035Y-65326099D01*
X121492946Y-65337496D01*
X121489302Y-65348755D01*
X121485105Y-65359857D01*
X121480355Y-65370779D01*
X121475053Y-65381499D01*
X121469201Y-65391996D01*
X121462800Y-65402247D01*
X121455851Y-65412232D01*
X121448354Y-65421928D01*
X121440311Y-65431314D01*
X121431723Y-65440367D01*
X121422592Y-65449067D01*
X121414267Y-65456281D01*
X121405713Y-65463056D01*
X121396944Y-65469392D01*
X121387974Y-65475291D01*
X121378819Y-65480752D01*
X121369492Y-65485777D01*
X121360008Y-65490367D01*
X121350381Y-65494522D01*
X121340626Y-65498242D01*
X121330758Y-65501529D01*
X121320790Y-65504384D01*
X121310737Y-65506806D01*
X121300613Y-65508797D01*
X121290433Y-65510358D01*
X121269963Y-65512190D01*
X121249442Y-65512309D01*
X121228986Y-65510721D01*
X121208709Y-65507431D01*
X121188727Y-65502444D01*
X121178883Y-65499317D01*
X121169156Y-65495768D01*
X121159560Y-65491798D01*
X121150111Y-65487407D01*
X121140822Y-65482597D01*
X121131708Y-65477368D01*
X121122783Y-65471721D01*
X121114061Y-65465656D01*
X119627420Y-66812597D01*
X118508789Y-66812597D01*
X118506399Y-66822943D01*
X118503578Y-66833116D01*
X118500335Y-66843107D01*
X118496682Y-66852906D01*
X118492627Y-66862502D01*
X118488182Y-66871885D01*
X118483356Y-66881044D01*
X118478160Y-66889971D01*
X118472604Y-66898653D01*
X118466698Y-66907081D01*
X118460453Y-66915245D01*
X118453879Y-66923135D01*
X118446985Y-66930739D01*
X118439783Y-66938049D01*
X118432282Y-66945053D01*
X118424492Y-66951742D01*
X118416425Y-66958104D01*
X118408090Y-66964131D01*
X118399497Y-66969811D01*
X118390656Y-66975135D01*
X118381579Y-66980091D01*
X118372274Y-66984671D01*
X118362753Y-66988863D01*
X118353025Y-66992657D01*
X118343101Y-66996043D01*
X118332991Y-66999012D01*
X118322705Y-67001551D01*
X118312254Y-67003652D01*
X118301647Y-67005304D01*
X118290895Y-67006497D01*
X118280008Y-67007220D01*
X118268997Y-67007463D01*
X118268996Y-67007463D01*
X118256391Y-67007144D01*
X118243951Y-67006198D01*
X118231691Y-67004640D01*
X118219628Y-67002485D01*
X118207776Y-66999749D01*
X118196151Y-66996447D01*
X118184768Y-66992595D01*
X118173642Y-66988208D01*
X118162790Y-66983302D01*
X118152226Y-66977891D01*
X118141966Y-66971992D01*
X118132025Y-66965619D01*
X118122419Y-66958788D01*
X118113163Y-66951514D01*
X118104273Y-66943814D01*
X118095763Y-66935701D01*
X118087650Y-66927192D01*
X118079949Y-66918302D01*
X118072675Y-66909047D01*
X118065843Y-66899441D01*
X118059469Y-66889500D01*
X118053569Y-66879240D01*
X118048157Y-66868676D01*
X118043250Y-66857824D01*
X118038862Y-66846698D01*
X118035009Y-66835314D01*
X118031707Y-66823688D01*
X118028971Y-66811834D01*
X118026816Y-66799770D01*
X118025257Y-66787508D01*
X118024311Y-66775066D01*
X118023992Y-66762459D01*
X118024311Y-66749851D01*
X118025257Y-66737409D01*
X118026815Y-66725148D01*
X118028970Y-66713083D01*
X118031706Y-66701230D01*
X118035007Y-66689604D01*
X118038859Y-66678220D01*
X118043246Y-66667094D01*
X118048153Y-66656241D01*
X118053563Y-66645677D01*
X118059463Y-66635417D01*
X118065836Y-66625476D01*
X118072667Y-66615871D01*
X118079940Y-66606615D01*
X118087641Y-66597725D01*
X118095754Y-66589216D01*
X118104262Y-66581104D01*
X118113152Y-66573403D01*
X118122408Y-66566130D01*
X118132014Y-66559299D01*
X118141954Y-66552926D01*
X118152214Y-66547026D01*
X118162778Y-66541615D01*
X118173631Y-66536709D01*
X118184757Y-66532322D01*
X118196141Y-66528470D01*
X118207767Y-66525168D01*
X118219620Y-66522432D01*
X118231685Y-66520278D01*
X118243946Y-66518720D01*
X118256388Y-66517773D01*
X118268996Y-66517455D01*
X118280007Y-66517698D01*
X118290894Y-66518421D01*
X118301646Y-66519614D01*
X118312253Y-66521266D01*
X118322704Y-66523367D01*
X118332990Y-66525906D01*
X118343100Y-66528875D01*
X118353024Y-66532261D01*
X118362752Y-66536055D01*
X118372273Y-66540248D01*
X118381578Y-66544827D01*
X118390656Y-66549784D01*
X118399496Y-66555108D01*
X118408089Y-66560789D01*
X118424492Y-66573179D01*
X118439782Y-66586873D01*
X118453878Y-66601789D01*
X118466697Y-66617845D01*
X118478159Y-66634958D01*
X118483355Y-66643886D01*
X118488181Y-66653047D01*
X118492626Y-66662432D01*
X118496681Y-66672029D01*
X118500335Y-66681830D01*
X118503577Y-66691823D01*
X118506398Y-66701999D01*
X118508788Y-66712347D01*
X119588817Y-66712347D01*
X121046777Y-65391388D01*
X121041603Y-65382115D01*
X121036863Y-65372679D01*
X121028687Y-65353379D01*
X121022244Y-65333605D01*
X121017529Y-65313471D01*
X121014534Y-65293093D01*
X121013257Y-65272588D01*
X121013690Y-65252070D01*
X121015828Y-65231656D01*
X121019666Y-65211461D01*
X121025198Y-65191601D01*
X121032419Y-65172192D01*
X121041323Y-65153349D01*
X121046404Y-65144176D01*
X121051905Y-65135188D01*
X121057823Y-65126399D01*
X121064159Y-65117824D01*
X121070911Y-65109478D01*
X121078080Y-65101374D01*
X121085663Y-65093528D01*
X121093662Y-65085953D01*
X121103217Y-65077726D01*
X121113071Y-65070075D01*
X121123202Y-65062998D01*
X121133588Y-65056495D01*
X121144208Y-65050565D01*
X121155040Y-65045206D01*
X121166061Y-65040418D01*
X121177251Y-65036199D01*
X121188588Y-65032548D01*
X121200049Y-65029465D01*
X121211613Y-65026948D01*
X121223258Y-65024997D01*
X121234962Y-65023609D01*
X121246704Y-65022784D01*
X121258462Y-65022522D01*
X121270215Y-65022820D01*
G37*
D10*
X127790000Y-105730000D02*
X130330000Y-105730000D01*
X130330000Y-65090000D02*
X127790000Y-65090000D01*
D11*
G36*
X123307430Y-71748451D02*
G01*
X122181866Y-72234306D01*
X123307430Y-72721193D01*
X123307430Y-73046418D01*
X121804015Y-72396946D01*
X121804015Y-72071746D01*
X123307430Y-71422220D01*
X123307430Y-71748451D01*
G37*
G36*
X123307430Y-73542565D02*
G01*
X122456503Y-73542565D01*
X123307430Y-73972513D01*
X123307430Y-74309751D01*
X123306371Y-74309751D01*
X122455471Y-74739699D01*
X123307430Y-74739699D01*
X123307430Y-75038970D01*
X121804015Y-75038970D01*
X121804015Y-74732794D01*
X122973658Y-74141212D01*
X121804015Y-73549578D01*
X121804015Y-73243348D01*
X123307430Y-73243348D01*
X123307430Y-73542565D01*
G37*
D10*
X130330000Y-100650000D02*
X126520000Y-100650000D01*
D11*
G36*
X124370208Y-69492324D02*
G01*
X124184312Y-69492324D01*
X124370208Y-69698831D01*
X124370208Y-69821862D01*
X124164257Y-69593394D01*
X123958278Y-69821862D01*
X123958278Y-69698831D01*
X124144174Y-69492324D01*
X123958278Y-69492324D01*
X123958278Y-69409932D01*
X124370208Y-69409932D01*
X124370208Y-69492324D01*
G37*
G36*
X123307430Y-76796940D02*
G01*
X123006705Y-76796940D01*
X123006705Y-75300431D01*
X123307430Y-75300431D01*
X123307430Y-76796940D01*
G37*
G36*
X122706058Y-76796966D02*
G01*
X122405412Y-76796966D01*
X122405412Y-75300457D01*
X122706058Y-75300457D01*
X122706058Y-76796966D01*
G37*
G36*
X121440027Y-72599538D02*
G01*
X120392674Y-72599538D01*
X121440027Y-73492400D01*
X121440027Y-73796724D01*
X119936638Y-73796724D01*
X119936638Y-73497374D01*
X120983965Y-73497374D01*
X119936638Y-72605491D01*
X119936638Y-72300188D01*
X121440027Y-72300188D01*
X121440027Y-72599538D01*
G37*
G36*
X121440000Y-72036054D02*
G01*
X119936612Y-72036054D01*
X119936612Y-71736731D01*
X121440000Y-71736731D01*
X121440000Y-72036054D01*
G37*
G36*
X124370208Y-72222400D02*
G01*
X124287816Y-72222400D01*
X124287816Y-71892862D01*
X124205426Y-71892862D01*
X124205426Y-72222400D01*
X124123062Y-72222400D01*
X124123062Y-71892862D01*
X124040670Y-71892862D01*
X124040670Y-72222400D01*
X123958278Y-72222400D01*
X123958278Y-71810497D01*
X124370208Y-71810497D01*
X124370208Y-72222400D01*
G37*
G36*
X124370235Y-74504431D02*
G01*
X124083267Y-74504431D01*
X124370235Y-74750149D01*
X124370235Y-74833969D01*
X123958306Y-74833969D01*
X123958306Y-74751604D01*
X124245299Y-74751604D01*
X123958305Y-74506098D01*
X123958305Y-74422066D01*
X124370235Y-74422066D01*
X124370235Y-74504431D01*
G37*
G36*
X121786796Y-66562827D02*
G01*
X121800376Y-66608739D01*
X121815842Y-66653823D01*
X121833149Y-66698031D01*
X121852250Y-66741319D01*
X121873100Y-66783640D01*
X121895653Y-66824949D01*
X121919863Y-66865199D01*
X121945684Y-66904345D01*
X121973070Y-66942341D01*
X122001976Y-66979142D01*
X122032355Y-67014700D01*
X122064161Y-67048971D01*
X122097350Y-67081909D01*
X122131874Y-67113467D01*
X122167688Y-67143601D01*
X122204746Y-67172263D01*
X122243002Y-67199408D01*
X122282410Y-67224991D01*
X122322925Y-67248965D01*
X122364501Y-67271284D01*
X122407091Y-67291904D01*
X122450649Y-67310777D01*
X122495131Y-67327858D01*
X122540489Y-67343102D01*
X122586679Y-67356462D01*
X122633654Y-67367892D01*
X122681368Y-67377347D01*
X122729775Y-67384780D01*
X122778830Y-67390147D01*
X122828487Y-67393400D01*
X122878699Y-67394495D01*
X122932578Y-67393473D01*
X122985533Y-67390429D01*
X123037533Y-67385394D01*
X123088546Y-67378400D01*
X123138540Y-67369480D01*
X123187484Y-67358663D01*
X123235345Y-67345983D01*
X123282091Y-67331471D01*
X123327691Y-67315159D01*
X123372114Y-67297078D01*
X123415326Y-67277261D01*
X123457297Y-67255739D01*
X123497995Y-67232543D01*
X123537387Y-67207706D01*
X123575442Y-67181259D01*
X123612128Y-67153235D01*
X123647413Y-67123664D01*
X123681266Y-67092578D01*
X123713654Y-67060010D01*
X123744546Y-67025990D01*
X123773910Y-66990552D01*
X123801714Y-66953725D01*
X123827926Y-66915543D01*
X123852515Y-66876037D01*
X123875449Y-66835239D01*
X123896695Y-66793180D01*
X123916222Y-66749892D01*
X123933999Y-66705407D01*
X123949992Y-66659757D01*
X123964172Y-66612973D01*
X123976504Y-66565087D01*
X123986959Y-66516131D01*
X124190159Y-66516131D01*
X124173800Y-66598548D01*
X124152842Y-66678583D01*
X124127409Y-66756114D01*
X124097624Y-66831021D01*
X124063610Y-66903182D01*
X124025489Y-66972475D01*
X123983384Y-67038779D01*
X123937419Y-67101972D01*
X123887716Y-67161933D01*
X123834399Y-67218541D01*
X123777589Y-67271673D01*
X123717410Y-67321210D01*
X123653985Y-67367028D01*
X123587437Y-67409007D01*
X123517889Y-67447025D01*
X123445463Y-67480961D01*
X123643345Y-67758429D01*
X123643345Y-77043347D01*
X123653688Y-77045736D01*
X123663859Y-77048558D01*
X123673847Y-77051800D01*
X123683643Y-77055454D01*
X123693236Y-77059508D01*
X123702615Y-77063954D01*
X123711772Y-77068780D01*
X123720695Y-77073976D01*
X123729374Y-77079532D01*
X123737799Y-77085438D01*
X123745960Y-77091683D01*
X123753846Y-77098258D01*
X123761447Y-77105152D01*
X123768753Y-77112354D01*
X123775754Y-77119856D01*
X123782440Y-77127646D01*
X123788799Y-77135714D01*
X123794823Y-77144050D01*
X123800500Y-77152643D01*
X123805821Y-77161485D01*
X123810775Y-77170563D01*
X123815352Y-77179869D01*
X123819542Y-77189392D01*
X123823334Y-77199121D01*
X123826718Y-77209046D01*
X123829685Y-77219158D01*
X123832223Y-77229445D01*
X123834323Y-77239899D01*
X123835973Y-77250508D01*
X123837165Y-77261262D01*
X123837888Y-77272151D01*
X123838131Y-77283165D01*
X123837812Y-77295765D01*
X123836866Y-77308201D01*
X123835308Y-77320456D01*
X123833153Y-77332515D01*
X123830418Y-77344364D01*
X123827116Y-77355986D01*
X123823264Y-77367366D01*
X123818877Y-77378488D01*
X123813970Y-77389338D01*
X123808560Y-77399899D01*
X123802660Y-77410157D01*
X123796287Y-77420096D01*
X123789456Y-77429700D01*
X123782183Y-77438954D01*
X123774482Y-77447843D01*
X123766370Y-77456351D01*
X123757861Y-77464463D01*
X123748971Y-77472163D01*
X123739715Y-77479437D01*
X123730110Y-77486268D01*
X123720169Y-77492641D01*
X123709909Y-77498540D01*
X123699345Y-77503952D01*
X123688492Y-77508858D01*
X123677366Y-77513246D01*
X123665982Y-77517098D01*
X123654356Y-77520400D01*
X123642503Y-77523137D01*
X123630438Y-77525292D01*
X123618177Y-77526850D01*
X123605734Y-77527797D01*
X123593127Y-77528115D01*
X123580522Y-77527801D01*
X123568082Y-77526860D01*
X123555822Y-77525306D01*
X123543759Y-77523155D01*
X123531907Y-77520423D01*
X123520281Y-77517125D01*
X123508898Y-77513276D01*
X123497773Y-77508892D01*
X123486921Y-77503988D01*
X123476357Y-77498580D01*
X123466097Y-77492683D01*
X123456156Y-77486312D01*
X123446550Y-77479483D01*
X123437294Y-77472211D01*
X123428404Y-77464512D01*
X123419894Y-77456401D01*
X123411781Y-77447893D01*
X123404080Y-77439004D01*
X123396805Y-77429750D01*
X123389974Y-77420145D01*
X123383600Y-77410205D01*
X123377699Y-77399945D01*
X123372288Y-77389381D01*
X123367381Y-77378529D01*
X123362993Y-77367403D01*
X123359140Y-77356020D01*
X123355838Y-77344394D01*
X123353101Y-77332540D01*
X123350946Y-77320475D01*
X123349388Y-77308214D01*
X123348442Y-77295772D01*
X123348123Y-77283165D01*
X123348123Y-77283163D01*
X123348366Y-77272147D01*
X123349089Y-77261256D01*
X123350282Y-77250501D01*
X123351934Y-77239891D01*
X123354035Y-77229437D01*
X123356574Y-77219149D01*
X123359543Y-77209038D01*
X123362929Y-77199112D01*
X123366723Y-77189384D01*
X123370916Y-77179862D01*
X123375495Y-77170558D01*
X123380452Y-77161481D01*
X123385776Y-77152641D01*
X123391457Y-77144049D01*
X123403847Y-77127648D01*
X123417541Y-77112361D01*
X123432457Y-77098268D01*
X123448513Y-77085452D01*
X123465626Y-77073994D01*
X123474554Y-77068799D01*
X123483715Y-77063975D01*
X123493100Y-77059531D01*
X123502697Y-77055477D01*
X123512498Y-77051825D01*
X123522491Y-77048583D01*
X123532667Y-77045762D01*
X123543014Y-77043373D01*
X123543014Y-67790523D01*
X123348943Y-67518320D01*
X123321718Y-67527296D01*
X123294181Y-67535733D01*
X123266336Y-67543627D01*
X123238189Y-67550972D01*
X123209745Y-67557762D01*
X123181009Y-67563991D01*
X123151986Y-67569655D01*
X123122681Y-67574746D01*
X123093099Y-67579259D01*
X123063245Y-67583190D01*
X123033125Y-67586531D01*
X123002742Y-67589278D01*
X122972104Y-67591424D01*
X122941213Y-67592964D01*
X122910077Y-67593892D01*
X122878699Y-67594202D01*
X122818138Y-67592850D01*
X122758264Y-67588830D01*
X122699137Y-67582202D01*
X122640813Y-67573023D01*
X122583352Y-67561352D01*
X122526810Y-67547246D01*
X122471248Y-67530763D01*
X122416721Y-67511962D01*
X122363290Y-67490901D01*
X122311011Y-67467637D01*
X122259943Y-67442230D01*
X122210144Y-67414735D01*
X122161673Y-67385213D01*
X122114586Y-67353720D01*
X122068944Y-67320315D01*
X122024802Y-67285057D01*
X121941257Y-67209209D01*
X121864417Y-67126642D01*
X121828655Y-67082984D01*
X121794745Y-67037819D01*
X121762743Y-66991208D01*
X121732707Y-66943206D01*
X121704697Y-66893873D01*
X121678769Y-66843266D01*
X121654983Y-66791444D01*
X121633396Y-66738464D01*
X121614066Y-66684385D01*
X121597052Y-66629264D01*
X121582411Y-66573161D01*
X121570202Y-66516131D01*
X121775149Y-66516131D01*
X121786796Y-66562827D01*
G37*
G36*
X124370208Y-70912237D02*
G01*
X124287816Y-70947956D01*
X124287816Y-71144249D01*
X124370208Y-71179969D01*
X124370208Y-71269530D01*
X123958278Y-71090725D01*
X123958278Y-71046010D01*
X124061809Y-71046010D01*
X124205478Y-71108320D01*
X124205478Y-70983728D01*
X124061809Y-71046010D01*
X123958278Y-71046010D01*
X123958278Y-71001216D01*
X124205478Y-70893915D01*
X124370208Y-70822411D01*
X124370208Y-70912237D01*
G37*
G36*
X124370155Y-73705575D02*
G01*
X124370021Y-73714021D01*
X124369619Y-73722198D01*
X124368949Y-73730108D01*
X124368010Y-73737749D01*
X124366804Y-73745122D01*
X124365330Y-73752227D01*
X124363587Y-73759064D01*
X124361576Y-73765632D01*
X124359298Y-73771932D01*
X124356751Y-73777965D01*
X124353936Y-73783729D01*
X124350853Y-73789225D01*
X124347501Y-73794452D01*
X124343882Y-73799412D01*
X124339994Y-73804104D01*
X124335838Y-73808527D01*
X124331414Y-73812682D01*
X124326722Y-73816569D01*
X124321761Y-73820189D01*
X124316533Y-73823539D01*
X124311036Y-73826622D01*
X124305271Y-73829437D01*
X124299237Y-73831984D01*
X124292935Y-73834262D01*
X124286365Y-73836273D01*
X124279527Y-73838015D01*
X124272420Y-73839489D01*
X124265046Y-73840696D01*
X124257402Y-73841634D01*
X124249491Y-73842304D01*
X124241311Y-73842706D01*
X124232863Y-73842840D01*
X124095597Y-73842840D01*
X124087149Y-73842706D01*
X124078969Y-73842304D01*
X124071057Y-73841634D01*
X124063413Y-73840696D01*
X124056037Y-73839490D01*
X124048930Y-73838015D01*
X124042091Y-73836273D01*
X124035520Y-73834262D01*
X124029217Y-73831984D01*
X124023183Y-73829437D01*
X124017417Y-73826622D01*
X124011918Y-73823540D01*
X124006689Y-73820189D01*
X124001727Y-73816570D01*
X123997033Y-73812683D01*
X123992608Y-73808527D01*
X123988451Y-73804104D01*
X123984562Y-73799412D01*
X123980941Y-73794453D01*
X123977589Y-73789225D01*
X123974504Y-73783729D01*
X123971688Y-73777965D01*
X123969140Y-73771933D01*
X123966861Y-73765632D01*
X123964849Y-73759064D01*
X123963106Y-73752227D01*
X123961631Y-73745122D01*
X123960424Y-73737749D01*
X123959485Y-73730108D01*
X123958815Y-73722199D01*
X123958412Y-73714021D01*
X123958278Y-73705575D01*
X123958225Y-73430964D01*
X124040669Y-73513329D01*
X124040669Y-73694303D01*
X124040732Y-73698342D01*
X124040922Y-73702252D01*
X124041239Y-73706034D01*
X124041682Y-73709687D01*
X124042252Y-73713212D01*
X124042949Y-73716609D01*
X124043772Y-73719878D01*
X124044722Y-73723018D01*
X124045798Y-73726029D01*
X124047001Y-73728912D01*
X124048331Y-73731667D01*
X124049787Y-73734294D01*
X124051370Y-73736792D01*
X124053080Y-73739162D01*
X124054916Y-73741403D01*
X124056878Y-73743516D01*
X124058967Y-73745501D01*
X124061183Y-73747357D01*
X124063526Y-73749085D01*
X124065995Y-73750685D01*
X124068590Y-73752156D01*
X124071312Y-73753499D01*
X124074161Y-73754714D01*
X124077136Y-73755800D01*
X124080238Y-73756757D01*
X124083466Y-73757587D01*
X124086821Y-73758288D01*
X124090302Y-73758860D01*
X124093910Y-73759305D01*
X124097644Y-73759621D01*
X124101505Y-73759808D01*
X124105492Y-73759867D01*
X124222756Y-73759867D01*
X124226760Y-73759803D01*
X124230637Y-73759610D01*
X124234387Y-73759288D01*
X124238010Y-73758838D01*
X124241505Y-73758259D01*
X124244873Y-73757551D01*
X124248114Y-73756715D01*
X124251228Y-73755750D01*
X124254214Y-73754656D01*
X124257073Y-73753434D01*
X124259805Y-73752083D01*
X124262410Y-73750603D01*
X124264888Y-73748994D01*
X124267239Y-73747257D01*
X124269462Y-73745392D01*
X124271559Y-73743397D01*
X124273528Y-73741274D01*
X124275370Y-73739022D01*
X124277085Y-73736642D01*
X124278673Y-73734133D01*
X124280133Y-73731495D01*
X124281467Y-73728728D01*
X124282674Y-73725833D01*
X124283753Y-73722809D01*
X124284706Y-73719657D01*
X124285531Y-73716375D01*
X124286230Y-73712966D01*
X124286801Y-73709427D01*
X124287246Y-73705760D01*
X124287563Y-73701964D01*
X124287817Y-73693986D01*
X124287817Y-73513329D01*
X124040670Y-73513329D01*
X123958225Y-73430964D01*
X124370155Y-73430964D01*
X124370155Y-73705575D01*
G37*
G36*
X123307430Y-68221159D02*
G01*
X122706058Y-68221159D01*
X122706058Y-69418293D01*
X122405412Y-69418293D01*
X122405412Y-68221159D01*
X122104740Y-68221159D01*
X122104740Y-69418293D01*
X121804015Y-69418293D01*
X121804015Y-67921862D01*
X123307430Y-67921862D01*
X123307430Y-68221159D01*
G37*
G36*
X124370261Y-70178097D02*
G01*
X124370141Y-70186545D01*
X124369778Y-70194726D01*
X124369175Y-70202637D01*
X124368330Y-70210281D01*
X124367244Y-70217657D01*
X124365916Y-70224764D01*
X124364347Y-70231603D01*
X124362537Y-70238174D01*
X124360485Y-70244477D01*
X124358192Y-70250511D01*
X124355658Y-70256278D01*
X124352882Y-70261776D01*
X124349865Y-70267006D01*
X124346606Y-70271968D01*
X124343106Y-70276661D01*
X124339365Y-70281086D01*
X124335382Y-70285244D01*
X124331158Y-70289132D01*
X124326692Y-70292753D01*
X124321985Y-70296106D01*
X124317037Y-70299190D01*
X124311848Y-70302006D01*
X124306416Y-70304554D01*
X124300744Y-70306834D01*
X124294830Y-70308845D01*
X124288675Y-70310589D01*
X124282278Y-70312064D01*
X124275640Y-70313271D01*
X124268761Y-70314209D01*
X124261640Y-70314880D01*
X124254278Y-70315282D01*
X124246675Y-70315416D01*
X124239073Y-70315282D01*
X124231714Y-70314880D01*
X124224595Y-70314209D01*
X124217718Y-70313270D01*
X124211081Y-70312062D01*
X124204686Y-70310586D01*
X124198533Y-70308842D01*
X124192620Y-70306830D01*
X124186949Y-70304550D01*
X124181519Y-70302001D01*
X124176331Y-70299184D01*
X124171384Y-70296099D01*
X124166678Y-70292746D01*
X124162213Y-70289124D01*
X124157989Y-70285234D01*
X124154007Y-70281077D01*
X124150267Y-70276651D01*
X124146767Y-70271957D01*
X124143509Y-70266995D01*
X124140492Y-70261764D01*
X124137716Y-70256266D01*
X124135182Y-70250500D01*
X124132889Y-70244466D01*
X124130838Y-70238163D01*
X124129027Y-70231593D01*
X124127459Y-70224754D01*
X124126131Y-70217648D01*
X124125045Y-70210274D01*
X124123597Y-70194721D01*
X124123114Y-70178097D01*
X124123114Y-70054484D01*
X124123073Y-70050260D01*
X124122952Y-70046171D01*
X124122750Y-70042215D01*
X124122468Y-70038394D01*
X124122105Y-70034708D01*
X124121661Y-70031156D01*
X124121136Y-70027738D01*
X124120531Y-70024454D01*
X124119845Y-70021305D01*
X124119079Y-70018290D01*
X124118232Y-70015409D01*
X124117304Y-70012662D01*
X124116296Y-70010049D01*
X124115207Y-70007571D01*
X124114038Y-70005227D01*
X124112789Y-70003016D01*
X124111458Y-70000940D01*
X124110048Y-69998998D01*
X124108557Y-69997190D01*
X124106986Y-69995516D01*
X124105334Y-69993977D01*
X124103602Y-69992571D01*
X124101790Y-69991299D01*
X124099897Y-69990161D01*
X124097924Y-69989157D01*
X124095870Y-69988287D01*
X124093737Y-69987551D01*
X124091523Y-69986948D01*
X124089229Y-69986480D01*
X124086855Y-69986146D01*
X124084400Y-69985945D01*
X124081866Y-69985878D01*
X124079336Y-69985945D01*
X124076886Y-69986146D01*
X124074516Y-69986480D01*
X124072225Y-69986948D01*
X124070015Y-69987551D01*
X124067885Y-69988287D01*
X124065835Y-69989157D01*
X124063865Y-69990161D01*
X124061975Y-69991299D01*
X124060165Y-69992571D01*
X124058435Y-69993976D01*
X124056785Y-69995516D01*
X124055216Y-69997190D01*
X124053726Y-69998998D01*
X124052317Y-70000940D01*
X124050989Y-70003016D01*
X124048572Y-70007570D01*
X124046477Y-70012661D01*
X124044704Y-70018289D01*
X124043252Y-70024454D01*
X124042123Y-70031155D01*
X124041316Y-70038394D01*
X124040831Y-70046170D01*
X124040670Y-70054484D01*
X124040670Y-70315416D01*
X123958278Y-70315416D01*
X123958278Y-70040805D01*
X123958399Y-70032357D01*
X123958761Y-70024177D01*
X123959366Y-70016265D01*
X123960211Y-70008622D01*
X123961299Y-70001247D01*
X123962627Y-69994141D01*
X123964198Y-69987302D01*
X123966010Y-69980732D01*
X123968063Y-69974431D01*
X123970358Y-69968397D01*
X123972894Y-69962632D01*
X123975671Y-69957135D01*
X123978690Y-69951906D01*
X123981950Y-69946946D01*
X123985452Y-69942253D01*
X123989195Y-69937829D01*
X123993178Y-69933674D01*
X123997404Y-69929786D01*
X124001870Y-69926166D01*
X124006577Y-69922815D01*
X124011526Y-69919732D01*
X124016716Y-69916917D01*
X124022146Y-69914370D01*
X124027818Y-69912091D01*
X124033731Y-69910081D01*
X124039884Y-69908338D01*
X124046279Y-69906864D01*
X124052914Y-69905657D01*
X124059791Y-69904719D01*
X124066908Y-69904049D01*
X124074266Y-69903647D01*
X124081865Y-69903513D01*
X124089468Y-69903647D01*
X124096831Y-69904049D01*
X124103952Y-69904719D01*
X124110832Y-69905657D01*
X124117470Y-69906864D01*
X124123867Y-69908338D01*
X124130023Y-69910081D01*
X124135938Y-69912091D01*
X124141611Y-69914370D01*
X124147044Y-69916917D01*
X124152234Y-69919732D01*
X124157184Y-69922815D01*
X124161892Y-69926166D01*
X124166359Y-69929786D01*
X124170584Y-69933674D01*
X124174568Y-69937829D01*
X124178311Y-69942253D01*
X124181812Y-69946946D01*
X124185072Y-69951906D01*
X124188090Y-69957135D01*
X124190867Y-69962632D01*
X124193403Y-69968397D01*
X124195697Y-69974431D01*
X124197750Y-69980732D01*
X124199561Y-69987302D01*
X124201131Y-69994141D01*
X124202459Y-70001247D01*
X124203546Y-70008622D01*
X124204995Y-70024177D01*
X124205478Y-70040805D01*
X124205478Y-70164312D01*
X124205518Y-70168537D01*
X124205639Y-70172627D01*
X124205841Y-70176583D01*
X124206123Y-70180406D01*
X124206486Y-70184094D01*
X124206929Y-70187648D01*
X124207452Y-70191069D01*
X124208057Y-70194355D01*
X124208741Y-70197508D01*
X124209507Y-70200526D01*
X124210352Y-70203410D01*
X124211278Y-70206160D01*
X124212285Y-70208777D01*
X124213372Y-70211259D01*
X124214539Y-70213607D01*
X124215787Y-70215821D01*
X124217115Y-70217900D01*
X124218524Y-70219846D01*
X124220013Y-70221658D01*
X124221582Y-70223335D01*
X124223232Y-70224879D01*
X124224961Y-70226288D01*
X124226772Y-70227563D01*
X124228662Y-70228704D01*
X124230633Y-70229710D01*
X124232684Y-70230583D01*
X124234815Y-70231321D01*
X124237026Y-70231925D01*
X124239318Y-70232395D01*
X124241690Y-70232730D01*
X124244142Y-70232932D01*
X124246674Y-70232999D01*
X124249208Y-70232932D01*
X124251662Y-70232730D01*
X124254036Y-70232395D01*
X124256329Y-70231925D01*
X124258542Y-70231321D01*
X124260674Y-70230583D01*
X124262726Y-70229710D01*
X124264697Y-70228704D01*
X124266588Y-70227563D01*
X124268398Y-70226288D01*
X124270128Y-70224879D01*
X124271777Y-70223335D01*
X124273346Y-70221658D01*
X124274835Y-70219846D01*
X124276243Y-70217900D01*
X124277570Y-70215821D01*
X124279984Y-70211259D01*
X124282076Y-70206160D01*
X124283846Y-70200526D01*
X124285295Y-70194355D01*
X124286421Y-70187648D01*
X124287226Y-70180406D01*
X124287709Y-70172627D01*
X124287869Y-70164312D01*
X124287869Y-69903486D01*
X124370261Y-69903486D01*
X124370261Y-70178097D01*
G37*
G36*
X124123033Y-75910031D02*
G01*
X124370260Y-75910031D01*
X124370260Y-75992395D01*
X124205478Y-75992395D01*
X124205478Y-76032559D01*
X124370314Y-76225890D01*
X124370314Y-76352441D01*
X124205532Y-76159110D01*
X124205532Y-76184694D01*
X124205411Y-76193140D01*
X124205048Y-76201318D01*
X124204445Y-76209227D01*
X124203599Y-76216868D01*
X124202513Y-76224241D01*
X124201184Y-76231346D01*
X124199614Y-76238183D01*
X124197803Y-76244752D01*
X124195751Y-76251052D01*
X124193456Y-76257084D01*
X124190921Y-76262848D01*
X124188144Y-76268344D01*
X124185125Y-76273572D01*
X124181865Y-76278532D01*
X124178364Y-76283223D01*
X124174622Y-76287647D01*
X124170638Y-76291802D01*
X124166412Y-76295689D01*
X124161945Y-76299308D01*
X124157237Y-76302659D01*
X124152288Y-76305742D01*
X124147097Y-76308557D01*
X124141665Y-76311104D01*
X124135992Y-76313382D01*
X124130077Y-76315393D01*
X124123921Y-76317135D01*
X124117524Y-76318609D01*
X124110885Y-76319816D01*
X124104005Y-76320754D01*
X124096884Y-76321424D01*
X124089522Y-76321826D01*
X124081918Y-76321960D01*
X124074319Y-76321826D01*
X124066961Y-76321424D01*
X124059844Y-76320754D01*
X124052968Y-76319816D01*
X124046332Y-76318609D01*
X124039938Y-76317135D01*
X124033784Y-76315393D01*
X124027871Y-76313382D01*
X124022200Y-76311104D01*
X124016769Y-76308557D01*
X124011579Y-76305742D01*
X124006631Y-76302659D01*
X124001923Y-76299308D01*
X123997457Y-76295689D01*
X123993232Y-76291802D01*
X123989248Y-76287647D01*
X123985505Y-76283223D01*
X123982004Y-76278532D01*
X123978744Y-76273572D01*
X123975725Y-76268344D01*
X123972947Y-76262848D01*
X123970411Y-76257084D01*
X123968116Y-76251052D01*
X123966063Y-76244752D01*
X123964251Y-76238183D01*
X123962681Y-76231346D01*
X123961352Y-76224241D01*
X123960265Y-76216868D01*
X123958815Y-76201318D01*
X123958332Y-76184694D01*
X123958332Y-75992448D01*
X124040642Y-75992448D01*
X124040642Y-76170935D01*
X124040683Y-76175162D01*
X124040804Y-76179254D01*
X124041006Y-76183212D01*
X124041288Y-76187036D01*
X124041651Y-76190726D01*
X124042095Y-76194281D01*
X124042620Y-76197703D01*
X124043225Y-76200989D01*
X124043910Y-76204142D01*
X124044676Y-76207161D01*
X124045523Y-76210045D01*
X124046449Y-76212795D01*
X124047457Y-76215411D01*
X124048545Y-76217893D01*
X124049713Y-76220240D01*
X124050961Y-76222453D01*
X124052290Y-76224532D01*
X124053699Y-76226477D01*
X124055188Y-76228288D01*
X124056758Y-76229965D01*
X124058407Y-76231507D01*
X124060137Y-76232916D01*
X124061947Y-76234190D01*
X124063837Y-76235330D01*
X124065807Y-76236336D01*
X124067858Y-76237207D01*
X124069988Y-76237945D01*
X124072198Y-76238548D01*
X124074488Y-76239018D01*
X124076858Y-76239353D01*
X124079308Y-76239554D01*
X124081838Y-76239621D01*
X124084373Y-76239554D01*
X124086827Y-76239353D01*
X124089201Y-76239017D01*
X124091495Y-76238547D01*
X124093709Y-76237943D01*
X124095843Y-76237205D01*
X124097896Y-76236333D01*
X124099869Y-76235326D01*
X124101762Y-76234185D01*
X124103574Y-76232910D01*
X124105307Y-76231501D01*
X124106958Y-76229958D01*
X124108530Y-76228280D01*
X124110020Y-76226469D01*
X124111431Y-76224523D01*
X124112761Y-76222443D01*
X124115180Y-76217881D01*
X124117277Y-76212783D01*
X124119051Y-76207148D01*
X124120503Y-76200978D01*
X124121633Y-76194271D01*
X124122440Y-76187028D01*
X124122925Y-76179250D01*
X124123086Y-76170935D01*
X124123033Y-75992448D01*
X124040642Y-75992448D01*
X123958332Y-75992448D01*
X123958332Y-75910031D01*
X124123033Y-75910031D01*
G37*
G36*
X124109329Y-72442137D02*
G01*
X124232916Y-72442137D01*
X124241364Y-72442271D01*
X124249544Y-72442673D01*
X124257455Y-72443343D01*
X124265099Y-72444281D01*
X124272474Y-72445487D01*
X124279580Y-72446962D01*
X124286419Y-72448704D01*
X124292989Y-72450715D01*
X124299290Y-72452993D01*
X124305324Y-72455540D01*
X124311089Y-72458354D01*
X124316586Y-72461437D01*
X124321815Y-72464788D01*
X124326775Y-72468407D01*
X124331467Y-72472294D01*
X124335891Y-72476450D01*
X124340047Y-72480873D01*
X124343935Y-72485565D01*
X124347554Y-72490524D01*
X124350906Y-72495752D01*
X124353989Y-72501248D01*
X124356804Y-72507012D01*
X124359351Y-72513044D01*
X124361630Y-72519345D01*
X124363640Y-72525913D01*
X124365383Y-72532750D01*
X124366857Y-72539855D01*
X124368063Y-72547228D01*
X124369002Y-72554869D01*
X124369672Y-72562779D01*
X124370074Y-72570957D01*
X124370208Y-72579402D01*
X124370473Y-72579402D01*
X124370208Y-72716748D01*
X124370059Y-72725194D01*
X124369644Y-72733371D01*
X124368961Y-72741281D01*
X124368010Y-72748923D01*
X124366793Y-72756297D01*
X124365308Y-72763402D01*
X124363556Y-72770240D01*
X124361537Y-72776809D01*
X124359250Y-72783111D01*
X124356697Y-72789144D01*
X124353876Y-72794909D01*
X124350788Y-72800406D01*
X124347432Y-72805635D01*
X124343810Y-72810596D01*
X124339920Y-72815289D01*
X124335763Y-72819714D01*
X124331339Y-72823870D01*
X124326647Y-72827759D01*
X124321689Y-72831379D01*
X124316463Y-72834731D01*
X124310970Y-72837815D01*
X124305210Y-72840631D01*
X124299183Y-72843178D01*
X124292888Y-72845458D01*
X124286327Y-72847469D01*
X124279498Y-72849213D01*
X124272402Y-72850688D01*
X124265039Y-72851895D01*
X124257409Y-72852833D01*
X124249512Y-72853504D01*
X124241347Y-72853906D01*
X124232916Y-72854040D01*
X124145258Y-72854040D01*
X124095650Y-72854040D01*
X124087202Y-72853906D01*
X124079022Y-72853504D01*
X124071110Y-72852833D01*
X124063466Y-72851895D01*
X124056091Y-72850688D01*
X124048984Y-72849213D01*
X124042144Y-72847469D01*
X124035574Y-72845458D01*
X124029271Y-72843179D01*
X124023236Y-72840631D01*
X124017470Y-72837815D01*
X124011972Y-72834731D01*
X124006742Y-72831379D01*
X124001780Y-72827759D01*
X123997087Y-72823870D01*
X123992661Y-72819714D01*
X123988504Y-72815289D01*
X123984615Y-72810596D01*
X123980995Y-72805636D01*
X123977642Y-72800407D01*
X123974558Y-72794909D01*
X123971742Y-72789144D01*
X123969194Y-72783111D01*
X123966914Y-72776810D01*
X123964902Y-72770240D01*
X123963159Y-72763402D01*
X123961684Y-72756297D01*
X123960477Y-72748923D01*
X123959538Y-72741281D01*
X123958868Y-72733371D01*
X123958466Y-72725194D01*
X123958332Y-72716748D01*
X123958332Y-72579402D01*
X123958332Y-72579376D01*
X124040670Y-72579376D01*
X124040670Y-72702937D01*
X124040737Y-72707168D01*
X124040938Y-72711265D01*
X124041274Y-72715227D01*
X124041744Y-72719055D01*
X124042348Y-72722748D01*
X124043086Y-72726307D01*
X124043958Y-72729731D01*
X124044965Y-72733021D01*
X124046105Y-72736176D01*
X124047380Y-72739197D01*
X124048789Y-72742084D01*
X124050332Y-72744836D01*
X124052009Y-72747454D01*
X124053820Y-72749937D01*
X124055765Y-72752286D01*
X124057845Y-72754501D01*
X124060058Y-72756581D01*
X124062405Y-72758527D01*
X124064886Y-72760339D01*
X124067502Y-72762016D01*
X124070251Y-72763559D01*
X124073134Y-72764968D01*
X124076151Y-72766243D01*
X124079302Y-72767383D01*
X124082587Y-72768389D01*
X124086006Y-72769261D01*
X124089558Y-72769999D01*
X124093245Y-72770602D01*
X124097065Y-72771072D01*
X124101019Y-72771407D01*
X124105107Y-72771608D01*
X124109329Y-72771675D01*
X124149959Y-72771675D01*
X124219184Y-72771675D01*
X124223408Y-72771607D01*
X124227498Y-72771406D01*
X124231454Y-72771069D01*
X124235275Y-72770598D01*
X124238962Y-72769993D01*
X124242515Y-72769254D01*
X124245934Y-72768379D01*
X124249219Y-72767371D01*
X124252369Y-72766228D01*
X124255385Y-72764951D01*
X124258267Y-72763540D01*
X124261015Y-72761994D01*
X124263629Y-72760315D01*
X124266109Y-72758501D01*
X124268454Y-72756552D01*
X124270665Y-72754470D01*
X124272743Y-72752254D01*
X124274686Y-72749903D01*
X124276495Y-72747419D01*
X124278170Y-72744800D01*
X124279711Y-72742048D01*
X124281118Y-72739161D01*
X124282391Y-72736141D01*
X124283530Y-72732987D01*
X124284535Y-72729699D01*
X124285406Y-72726277D01*
X124286143Y-72722721D01*
X124286746Y-72719031D01*
X124287214Y-72715208D01*
X124287549Y-72711251D01*
X124287750Y-72707160D01*
X124287817Y-72702936D01*
X124287817Y-72593134D01*
X124287750Y-72588907D01*
X124287549Y-72584816D01*
X124287214Y-72580858D01*
X124286744Y-72577035D01*
X124286141Y-72573347D01*
X124285404Y-72569793D01*
X124284532Y-72566374D01*
X124283526Y-72563088D01*
X124282387Y-72559938D01*
X124281113Y-72556921D01*
X124279705Y-72554039D01*
X124278163Y-72551292D01*
X124276488Y-72548678D01*
X124274678Y-72546199D01*
X124272734Y-72543854D01*
X124270656Y-72541643D01*
X124268444Y-72539566D01*
X124266098Y-72537624D01*
X124263618Y-72535815D01*
X124261004Y-72534141D01*
X124258256Y-72532601D01*
X124255374Y-72531195D01*
X124252358Y-72529923D01*
X124249208Y-72528785D01*
X124245924Y-72527781D01*
X124242506Y-72526910D01*
X124238954Y-72526174D01*
X124235268Y-72525572D01*
X124231448Y-72525104D01*
X124227494Y-72524769D01*
X124223406Y-72524568D01*
X124219184Y-72524501D01*
X124109329Y-72524501D01*
X124105105Y-72524555D01*
X124101015Y-72524716D01*
X124097059Y-72524983D01*
X124093237Y-72525358D01*
X124089549Y-72525841D01*
X124085996Y-72526430D01*
X124082576Y-72527126D01*
X124079291Y-72527930D01*
X124076139Y-72528841D01*
X124073122Y-72529859D01*
X124070239Y-72530984D01*
X124067490Y-72532216D01*
X124064875Y-72533555D01*
X124062394Y-72535002D01*
X124060047Y-72536556D01*
X124057835Y-72538217D01*
X124055756Y-72539985D01*
X124053812Y-72541860D01*
X124052001Y-72543843D01*
X124050325Y-72545933D01*
X124048783Y-72548130D01*
X124047375Y-72550434D01*
X124046101Y-72552846D01*
X124044961Y-72555365D01*
X124043955Y-72557991D01*
X124043084Y-72560724D01*
X124042346Y-72563564D01*
X124041743Y-72566512D01*
X124041273Y-72569567D01*
X124040938Y-72572729D01*
X124040737Y-72575999D01*
X124040670Y-72579376D01*
X123958332Y-72579376D01*
X123958466Y-72570957D01*
X123958868Y-72562779D01*
X123959538Y-72554870D01*
X123960477Y-72547228D01*
X123961684Y-72539855D01*
X123963159Y-72532750D01*
X123964902Y-72525914D01*
X123966914Y-72519345D01*
X123969194Y-72513045D01*
X123971742Y-72507012D01*
X123974558Y-72501248D01*
X123977642Y-72495752D01*
X123980995Y-72490525D01*
X123984615Y-72485565D01*
X123988504Y-72480873D01*
X123992661Y-72476450D01*
X123997087Y-72472295D01*
X124001780Y-72468407D01*
X124006742Y-72464788D01*
X124011972Y-72461437D01*
X124017470Y-72458355D01*
X124023236Y-72455540D01*
X124029271Y-72452993D01*
X124035574Y-72450715D01*
X124042144Y-72448704D01*
X124048984Y-72446962D01*
X124056091Y-72445487D01*
X124063466Y-72444281D01*
X124071110Y-72443343D01*
X124079022Y-72442673D01*
X124087202Y-72442271D01*
X124095650Y-72442137D01*
X124109329Y-72442137D01*
G37*
G36*
X124370208Y-73349314D02*
G01*
X124287816Y-73349314D01*
X124287816Y-73019775D01*
X123958278Y-73019775D01*
X123958278Y-72937410D01*
X124370208Y-72937410D01*
X124370208Y-73349314D01*
G37*
G36*
X122923206Y-65357627D02*
G01*
X122936038Y-65366120D01*
X122940642Y-65384747D01*
X122940668Y-65404458D01*
X122942256Y-65423958D01*
X122945431Y-65443616D01*
X122950510Y-65462348D01*
X122962099Y-65482510D01*
X122977180Y-65498067D01*
X122994749Y-65509232D01*
X122996549Y-65509822D01*
X123014222Y-65515609D01*
X123034515Y-65516402D01*
X123054968Y-65512354D01*
X123074150Y-65503120D01*
X123091957Y-65488277D01*
X123103387Y-65472614D01*
X123113124Y-65455337D01*
X123121299Y-65437689D01*
X123128046Y-65419194D01*
X123138762Y-65403398D01*
X123153552Y-65400091D01*
X123208929Y-65419194D01*
X123262295Y-65443880D01*
X123271053Y-65456738D01*
X123268672Y-65475365D01*
X123260654Y-65493595D01*
X123254807Y-65512486D01*
X123250759Y-65531615D01*
X123248377Y-65550851D01*
X123251817Y-65574028D01*
X123259648Y-65594243D01*
X123271687Y-65611944D01*
X123287509Y-65624802D01*
X123305342Y-65633851D01*
X123325820Y-65638005D01*
X123347463Y-65636735D01*
X123369211Y-65630252D01*
X123385880Y-65620013D01*
X123401014Y-65608160D01*
X123415434Y-65594719D01*
X123428478Y-65580114D01*
X123444195Y-65570060D01*
X123459514Y-65572838D01*
X123503065Y-65611837D01*
X123543546Y-65655388D01*
X123546456Y-65670866D01*
X123537301Y-65687111D01*
X123523463Y-65700790D01*
X123510657Y-65715713D01*
X123499676Y-65731746D01*
X123490549Y-65749288D01*
X123484648Y-65771884D01*
X123484225Y-65793421D01*
X123488829Y-65814270D01*
X123498513Y-65832526D01*
X123511927Y-65848163D01*
X123529442Y-65859831D01*
X123549392Y-65866975D01*
X123572331Y-65869383D01*
X123591328Y-65866367D01*
X123610087Y-65861710D01*
X123628370Y-65854831D01*
X123645727Y-65846285D01*
X123663904Y-65843348D01*
X123677054Y-65851392D01*
X123676895Y-65851524D01*
X123702454Y-65904943D01*
X123723330Y-65960612D01*
X123720578Y-65976222D01*
X123705841Y-65987758D01*
X123687638Y-65994769D01*
X123670440Y-66004162D01*
X123654274Y-66014534D01*
X123639166Y-66026942D01*
X123625487Y-66045278D01*
X123616756Y-66065571D01*
X123613396Y-66086579D01*
X123615592Y-66106979D01*
X123621889Y-66126558D01*
X123633636Y-66143835D01*
X123649723Y-66158679D01*
X123669778Y-66170029D01*
X123688352Y-66174474D01*
X123707402Y-66177438D01*
X123726823Y-66178469D01*
X123746376Y-66177199D01*
X123764315Y-66181380D01*
X123773072Y-66194238D01*
X123776962Y-66253717D01*
X123775295Y-66313407D01*
X123767014Y-66326239D01*
X123748837Y-66331081D01*
X123729178Y-66330657D01*
X123710076Y-66332245D01*
X123690999Y-66335817D01*
X123672584Y-66341267D01*
X123652793Y-66353067D01*
X123637579Y-66368201D01*
X123626731Y-66386273D01*
X123620434Y-66406169D01*
X123619508Y-66426939D01*
X123623530Y-66447550D01*
X123632552Y-66467341D01*
X123647051Y-66485518D01*
X123662477Y-66496921D01*
X123679410Y-66506843D01*
X123696846Y-66515257D01*
X123714865Y-66522030D01*
X123730342Y-66532957D01*
X123733703Y-66548144D01*
X123714865Y-66604607D01*
X123690576Y-66658846D01*
X123677929Y-66667816D01*
X123659778Y-66665487D01*
X123641919Y-66657312D01*
X123623372Y-66651332D01*
X123604507Y-66647125D01*
X123585642Y-66644665D01*
X123562781Y-66648316D01*
X123543070Y-66656174D01*
X123526084Y-66668186D01*
X123513040Y-66684590D01*
X123504202Y-66702925D01*
X123500154Y-66723827D01*
X123501265Y-66746026D01*
X123507773Y-66768066D01*
X123517828Y-66785052D01*
X123529285Y-66800345D01*
X123542487Y-66815056D01*
X123556801Y-66828285D01*
X123566669Y-66844292D01*
X123564209Y-66859691D01*
X123525633Y-66904538D01*
X123482770Y-66945337D01*
X123467821Y-66948750D01*
X123451814Y-66939225D01*
X123438161Y-66924858D01*
X123423610Y-66912184D01*
X123408052Y-66900860D01*
X123390960Y-66891732D01*
X123368708Y-66885594D01*
X123347542Y-66885409D01*
X123327169Y-66889880D01*
X123309284Y-66899855D01*
X123293858Y-66913428D01*
X123282508Y-66931446D01*
X123275365Y-66951607D01*
X123273116Y-66975155D01*
X123275973Y-66994364D01*
X123280524Y-67013546D01*
X123287033Y-67031856D01*
X123295500Y-67049927D01*
X123298622Y-67068553D01*
X123290420Y-67081518D01*
X123238138Y-67108135D01*
X123183581Y-67129196D01*
X123168235Y-67126365D01*
X123156779Y-67111469D01*
X123150058Y-67092842D01*
X123140877Y-67075274D01*
X123130796Y-67058923D01*
X123118626Y-67043524D01*
X123100634Y-67029581D01*
X123080606Y-67020797D01*
X123060153Y-67017304D01*
X123040071Y-67019368D01*
X123020889Y-67025824D01*
X123003929Y-67037756D01*
X122989324Y-67054213D01*
X122978026Y-67074771D01*
X122973846Y-67093583D01*
X122971015Y-67113163D01*
X122969984Y-67132927D01*
X122971227Y-67152876D01*
X122966994Y-67171027D01*
X122954346Y-67179970D01*
X122896138Y-67184123D01*
X122837559Y-67182457D01*
X122824780Y-67173963D01*
X122820176Y-67155310D01*
X122820705Y-67135467D01*
X122819038Y-67115834D01*
X122815546Y-67096387D01*
X122810334Y-67077787D01*
X122798746Y-67057573D01*
X122783823Y-67041936D01*
X122766176Y-67031008D01*
X122746729Y-67024606D01*
X122726330Y-67023679D01*
X122706036Y-67027622D01*
X122686669Y-67036988D01*
X122668836Y-67051752D01*
X122657565Y-67067336D01*
X122647669Y-67084322D01*
X122639362Y-67102102D01*
X122632879Y-67120967D01*
X122622216Y-67136551D01*
X122607373Y-67140097D01*
X122551916Y-67120808D01*
X122498815Y-67096228D01*
X122490031Y-67083343D01*
X122492333Y-67064822D01*
X122500296Y-67046566D01*
X122506170Y-67027702D01*
X122510244Y-67008360D01*
X122512652Y-66989099D01*
X122509239Y-66965948D01*
X122501037Y-66945521D01*
X122489289Y-66928271D01*
X122473626Y-66915280D01*
X122455554Y-66906179D01*
X122435076Y-66902051D01*
X122413380Y-66903321D01*
X122391737Y-66909989D01*
X122375016Y-66920043D01*
X122360040Y-66931790D01*
X122345383Y-66944940D01*
X122332418Y-66959968D01*
X122316860Y-66969916D01*
X122301567Y-66967139D01*
X122257514Y-66927822D01*
X122217800Y-66884430D01*
X122214546Y-66869375D01*
X122223780Y-66852892D01*
X122238041Y-66839107D01*
X122250317Y-66824317D01*
X122261244Y-66807913D01*
X122270532Y-66790926D01*
X122276512Y-66768093D01*
X122276776Y-66746609D01*
X122272331Y-66725733D01*
X122262515Y-66707530D01*
X122249233Y-66691813D01*
X122231612Y-66680251D01*
X122211768Y-66673002D01*
X122188802Y-66670859D01*
X122169646Y-66673346D01*
X122150940Y-66678373D01*
X122133160Y-66685067D01*
X122115460Y-66693719D01*
X122097203Y-66696867D01*
X122084371Y-66688374D01*
X122058151Y-66634796D01*
X122037699Y-66579445D01*
X122040451Y-66563861D01*
X122055055Y-66552431D01*
X122073153Y-66544996D01*
X122090562Y-66535948D01*
X122106570Y-66525655D01*
X122121809Y-66513378D01*
X122135409Y-66494884D01*
X122144140Y-66474617D01*
X122147500Y-66453608D01*
X122145569Y-66433288D01*
X122139060Y-66413789D01*
X122127022Y-66396088D01*
X122111280Y-66381430D01*
X122091251Y-66370079D01*
X122072704Y-66365660D01*
X122053601Y-66362909D01*
X122034207Y-66361903D01*
X122014628Y-66363174D01*
X121996795Y-66358887D01*
X121988038Y-66346002D01*
X121983884Y-66286471D01*
X121985656Y-66226940D01*
X121994017Y-66213843D01*
X122012167Y-66209239D01*
X122031482Y-66209212D01*
X122050744Y-66207493D01*
X122070005Y-66204265D01*
X122088262Y-66198920D01*
X122108079Y-66187067D01*
X122123477Y-66171801D01*
X122134167Y-66153836D01*
X122136137Y-66147779D01*
X122216033Y-66147779D01*
X122238730Y-66151878D01*
X122477807Y-66502953D01*
X122707439Y-66340367D01*
X122675530Y-66293588D01*
X122721462Y-66261071D01*
X122833010Y-66424874D01*
X122787052Y-66457391D01*
X122755249Y-66410587D01*
X122525591Y-66573199D01*
X122764615Y-66924222D01*
X122994274Y-66761636D01*
X122962392Y-66714857D01*
X123260974Y-66503455D01*
X123292831Y-66550312D01*
X123522383Y-66387726D01*
X123283385Y-66036703D01*
X123053700Y-66199237D01*
X123085609Y-66246068D01*
X123039677Y-66278586D01*
X123007848Y-66231754D01*
X122960011Y-66161560D01*
X122928129Y-66114756D01*
X122974034Y-66082238D01*
X123005916Y-66129070D01*
X123235547Y-65966483D01*
X122996549Y-65615434D01*
X122766918Y-65777967D01*
X122798800Y-65824799D01*
X122500271Y-66036122D01*
X122468389Y-65989317D01*
X122238730Y-66151877D01*
X122216033Y-66147779D01*
X122136137Y-66147779D01*
X122140569Y-66134153D01*
X122140565Y-66134153D01*
X122141464Y-66113330D01*
X122137522Y-66092507D01*
X122128315Y-66072769D01*
X122113842Y-66054592D01*
X122098576Y-66043083D01*
X122081907Y-66032949D01*
X122064577Y-66024695D01*
X122046056Y-66018080D01*
X122030525Y-66007126D01*
X122027191Y-65991939D01*
X122046135Y-65935424D01*
X122070291Y-65881237D01*
X122082938Y-65872294D01*
X122101221Y-65874755D01*
X122119028Y-65882746D01*
X122137655Y-65888884D01*
X122156520Y-65892826D01*
X122175252Y-65895392D01*
X122198113Y-65891741D01*
X122218300Y-65883565D01*
X122235208Y-65871580D01*
X122247854Y-65855467D01*
X122256904Y-65837131D01*
X122260820Y-65816361D01*
X122259735Y-65794137D01*
X122253121Y-65771991D01*
X122243305Y-65755031D01*
X122231716Y-65739606D01*
X122218804Y-65724710D01*
X122204014Y-65711772D01*
X122194331Y-65695659D01*
X122197109Y-65680048D01*
X122235632Y-65635387D01*
X122278071Y-65594297D01*
X122293047Y-65591307D01*
X122309028Y-65600805D01*
X122322495Y-65614881D01*
X122337312Y-65627872D01*
X122353266Y-65638852D01*
X122369935Y-65648324D01*
X122392319Y-65654330D01*
X122413460Y-65654754D01*
X122433859Y-65650071D01*
X122451798Y-65640175D01*
X122467143Y-65626497D01*
X122478441Y-65608743D01*
X122485585Y-65588264D01*
X122487728Y-65564901D01*
X122485293Y-65545349D01*
X122480345Y-65526537D01*
X122473598Y-65507910D01*
X122465317Y-65490131D01*
X122462221Y-65471530D01*
X122470371Y-65458169D01*
X122523076Y-65431922D01*
X122577712Y-65410596D01*
X122592714Y-65413613D01*
X122604012Y-65428615D01*
X122611182Y-65446950D01*
X122620098Y-65464677D01*
X122630258Y-65481161D01*
X122642165Y-65496559D01*
X122660263Y-65510635D01*
X122680291Y-65519419D01*
X122700902Y-65522859D01*
X122720772Y-65520716D01*
X122740431Y-65513969D01*
X122757338Y-65501957D01*
X122771520Y-65485897D01*
X122782765Y-65465313D01*
X122787156Y-65446395D01*
X122789908Y-65427080D01*
X122790861Y-65407157D01*
X122789670Y-65387366D01*
X122793798Y-65369084D01*
X122806471Y-65360167D01*
X122864786Y-65355881D01*
X122923206Y-65357627D01*
G37*
D10*
X127790000Y-85410000D02*
X130330000Y-85410000D01*
D11*
G36*
X124241364Y-68916513D02*
G01*
X124249544Y-68916915D01*
X124257455Y-68917586D01*
X124265099Y-68918525D01*
X124272474Y-68919733D01*
X124279580Y-68921209D01*
X124286419Y-68922953D01*
X124292989Y-68924965D01*
X124299290Y-68927245D01*
X124305324Y-68929794D01*
X124311089Y-68932611D01*
X124316586Y-68935696D01*
X124321815Y-68939049D01*
X124326775Y-68942671D01*
X124331467Y-68946560D01*
X124335891Y-68950718D01*
X124340047Y-68955144D01*
X124343935Y-68959838D01*
X124347554Y-68964800D01*
X124350906Y-68970030D01*
X124353989Y-68975529D01*
X124356804Y-68981295D01*
X124359351Y-68987329D01*
X124361630Y-68993632D01*
X124363640Y-69000202D01*
X124365383Y-69007040D01*
X124366857Y-69014147D01*
X124368063Y-69021521D01*
X124369002Y-69029163D01*
X124369672Y-69037073D01*
X124370074Y-69045251D01*
X124370208Y-69053698D01*
X124370208Y-69328335D01*
X124287816Y-69328335D01*
X124287871Y-69065259D01*
X124287806Y-69061172D01*
X124287612Y-69057213D01*
X124287289Y-69053385D01*
X124286836Y-69049686D01*
X124286255Y-69046116D01*
X124285544Y-69042676D01*
X124284703Y-69039365D01*
X124283734Y-69036185D01*
X124282635Y-69033133D01*
X124281407Y-69030212D01*
X124280050Y-69027420D01*
X124278564Y-69024757D01*
X124276949Y-69022225D01*
X124275204Y-69019822D01*
X124273330Y-69017548D01*
X124271327Y-69015405D01*
X124269195Y-69013391D01*
X124266934Y-69011507D01*
X124264544Y-69009753D01*
X124262024Y-69008129D01*
X124259376Y-69006634D01*
X124256598Y-69005269D01*
X124253692Y-69004035D01*
X124250656Y-69002930D01*
X124247491Y-69001955D01*
X124244197Y-69001110D01*
X124240774Y-69000395D01*
X124237222Y-68999810D01*
X124233541Y-68999355D01*
X124229731Y-68999029D01*
X124225792Y-68998834D01*
X124221725Y-68998769D01*
X124106631Y-68998769D01*
X124102575Y-68998834D01*
X124098648Y-68999028D01*
X124094850Y-68999352D01*
X124091181Y-68999805D01*
X124087641Y-69000387D01*
X124084229Y-69001099D01*
X124080946Y-69001940D01*
X124077792Y-69002911D01*
X124074767Y-69004010D01*
X124071871Y-69005239D01*
X124069103Y-69006598D01*
X124066464Y-69008086D01*
X124063954Y-69009703D01*
X124061573Y-69011449D01*
X124059320Y-69013324D01*
X124057197Y-69015329D01*
X124055202Y-69017463D01*
X124053335Y-69019726D01*
X124051598Y-69022119D01*
X124049989Y-69024640D01*
X124048509Y-69027291D01*
X124047158Y-69030071D01*
X124045935Y-69032980D01*
X124044841Y-69036018D01*
X124043876Y-69039185D01*
X124043040Y-69042481D01*
X124042332Y-69045906D01*
X124041753Y-69049461D01*
X124041302Y-69053144D01*
X124040981Y-69056957D01*
X124040788Y-69060898D01*
X124040723Y-69064968D01*
X124040723Y-69328335D01*
X123958332Y-69328335D01*
X123958332Y-69053698D01*
X123958466Y-69045249D01*
X123958868Y-69037069D01*
X123959538Y-69029157D01*
X123960477Y-69021513D01*
X123961684Y-69014138D01*
X123963159Y-69007031D01*
X123964902Y-69000191D01*
X123966914Y-68993621D01*
X123969194Y-68987318D01*
X123971742Y-68981283D01*
X123974558Y-68975517D01*
X123977642Y-68970019D01*
X123980995Y-68964789D01*
X123984615Y-68959827D01*
X123988504Y-68955134D01*
X123992661Y-68950708D01*
X123997087Y-68946551D01*
X124001780Y-68942662D01*
X124006742Y-68939042D01*
X124011972Y-68935689D01*
X124017470Y-68932605D01*
X124023236Y-68929789D01*
X124029271Y-68927241D01*
X124035574Y-68924961D01*
X124042144Y-68922950D01*
X124048984Y-68921206D01*
X124056091Y-68919731D01*
X124063466Y-68918524D01*
X124071110Y-68917586D01*
X124079022Y-68916915D01*
X124087202Y-68916513D01*
X124095650Y-68916379D01*
X124232916Y-68916379D01*
X124241364Y-68916513D01*
G37*
G36*
X124123034Y-70397039D02*
G01*
X124370208Y-70397039D01*
X124370208Y-70479404D01*
X124205452Y-70479404D01*
X124205451Y-70479404D01*
X124205451Y-70671650D01*
X124205331Y-70680096D01*
X124204969Y-70688274D01*
X124204365Y-70696184D01*
X124203520Y-70703825D01*
X124202434Y-70711199D01*
X124201107Y-70718305D01*
X124199538Y-70725142D01*
X124197727Y-70731711D01*
X124195676Y-70738013D01*
X124193383Y-70744046D01*
X124190848Y-70749811D01*
X124188072Y-70755308D01*
X124185055Y-70760537D01*
X124181796Y-70765498D01*
X124178296Y-70770191D01*
X124174555Y-70774616D01*
X124170572Y-70778772D01*
X124166348Y-70782660D01*
X124161883Y-70786281D01*
X124157176Y-70789633D01*
X124152227Y-70792717D01*
X124147038Y-70795533D01*
X124141607Y-70798080D01*
X124135934Y-70800360D01*
X124130020Y-70802371D01*
X124123865Y-70804115D01*
X124117469Y-70805590D01*
X124110831Y-70806796D01*
X124103951Y-70807735D01*
X124096830Y-70808406D01*
X124089468Y-70808808D01*
X124081865Y-70808942D01*
X124074266Y-70808808D01*
X124066908Y-70808406D01*
X124059791Y-70807735D01*
X124052914Y-70806796D01*
X124046279Y-70805590D01*
X124039884Y-70804115D01*
X124033731Y-70802371D01*
X124027818Y-70800360D01*
X124022146Y-70798081D01*
X124016716Y-70795533D01*
X124011526Y-70792717D01*
X124006577Y-70789633D01*
X124001870Y-70786281D01*
X123997404Y-70782661D01*
X123993178Y-70778772D01*
X123989195Y-70774616D01*
X123985452Y-70770191D01*
X123981950Y-70765498D01*
X123978690Y-70760538D01*
X123975671Y-70755309D01*
X123972894Y-70749812D01*
X123970358Y-70744046D01*
X123968063Y-70738013D01*
X123966010Y-70731712D01*
X123964198Y-70725142D01*
X123962627Y-70718305D01*
X123961299Y-70711199D01*
X123960211Y-70703826D01*
X123958761Y-70688274D01*
X123958278Y-70671650D01*
X123958278Y-70479457D01*
X124040643Y-70479457D01*
X124040643Y-70657892D01*
X124040684Y-70662123D01*
X124040805Y-70666220D01*
X124041006Y-70670181D01*
X124041289Y-70674008D01*
X124041652Y-70677700D01*
X124042096Y-70681257D01*
X124042620Y-70684680D01*
X124043225Y-70687968D01*
X124043911Y-70691122D01*
X124044677Y-70694140D01*
X124045523Y-70697025D01*
X124046450Y-70699775D01*
X124047458Y-70702390D01*
X124048545Y-70704871D01*
X124049713Y-70707217D01*
X124050962Y-70709430D01*
X124052291Y-70711507D01*
X124053700Y-70713451D01*
X124055189Y-70715260D01*
X124056758Y-70716935D01*
X124058408Y-70718476D01*
X124060138Y-70719883D01*
X124061948Y-70721155D01*
X124063838Y-70722294D01*
X124065808Y-70723298D01*
X124067858Y-70724169D01*
X124069989Y-70724905D01*
X124072199Y-70725507D01*
X124074489Y-70725976D01*
X124076859Y-70726310D01*
X124079309Y-70726511D01*
X124081839Y-70726578D01*
X124084373Y-70726511D01*
X124086828Y-70726310D01*
X124089202Y-70725974D01*
X124091496Y-70725504D01*
X124093710Y-70724900D01*
X124095844Y-70724162D01*
X124097897Y-70723289D01*
X124099870Y-70722283D01*
X124101763Y-70721142D01*
X124103575Y-70719867D01*
X124105307Y-70718458D01*
X124106959Y-70716915D01*
X124108530Y-70715237D01*
X124110021Y-70713426D01*
X124111432Y-70711480D01*
X124112762Y-70709400D01*
X124115181Y-70704838D01*
X124117277Y-70699740D01*
X124119052Y-70694106D01*
X124120504Y-70687935D01*
X124121634Y-70681228D01*
X124122441Y-70673985D01*
X124122926Y-70666207D01*
X124123087Y-70657892D01*
X124123034Y-70479457D01*
X124040643Y-70479457D01*
X123958278Y-70479457D01*
X123958278Y-70397039D01*
X124123034Y-70397039D01*
G37*
D10*
X130330000Y-108270000D02*
X130330000Y-62550000D01*
D11*
G36*
X119814644Y-64345521D02*
G01*
X119825530Y-64346244D01*
X119836282Y-64347436D01*
X119846889Y-64349088D01*
X119857340Y-64351188D01*
X119867626Y-64353727D01*
X119877736Y-64356694D01*
X119887660Y-64360080D01*
X119897388Y-64363873D01*
X119906910Y-64368064D01*
X119916214Y-64372642D01*
X119925292Y-64377598D01*
X119934132Y-64382920D01*
X119942725Y-64388599D01*
X119959128Y-64400986D01*
X119974418Y-64414676D01*
X119988514Y-64429588D01*
X120001334Y-64445639D01*
X120012795Y-64462748D01*
X120017991Y-64471673D01*
X120022817Y-64480832D01*
X120027262Y-64490214D01*
X120031317Y-64499810D01*
X120034971Y-64509608D01*
X120038213Y-64519599D01*
X120041034Y-64529772D01*
X120043424Y-64540117D01*
X121474291Y-64540117D01*
X122082779Y-65205782D01*
X122125054Y-65175563D01*
X122168536Y-65146966D01*
X122213179Y-65120037D01*
X122258938Y-65094821D01*
X122305768Y-65071363D01*
X122353625Y-65049708D01*
X122402463Y-65029901D01*
X122452237Y-65011988D01*
X122502902Y-64996013D01*
X122554413Y-64982022D01*
X122606725Y-64970060D01*
X122659793Y-64960171D01*
X122713573Y-64952402D01*
X122768018Y-64946796D01*
X122823083Y-64943399D01*
X122878725Y-64942257D01*
X122937925Y-64943550D01*
X122996468Y-64947392D01*
X123054302Y-64953730D01*
X123111372Y-64962509D01*
X123167623Y-64973674D01*
X123223002Y-64987172D01*
X123277453Y-65002948D01*
X123330923Y-65020948D01*
X123383357Y-65041119D01*
X123434701Y-65063405D01*
X123533902Y-65114106D01*
X123628091Y-65172620D01*
X123716833Y-65238511D01*
X123799694Y-65311347D01*
X123876239Y-65390692D01*
X123946034Y-65476115D01*
X124008643Y-65567179D01*
X124063634Y-65663452D01*
X124088136Y-65713407D01*
X124110571Y-65764501D01*
X124130883Y-65816680D01*
X124149019Y-65869890D01*
X124164924Y-65924076D01*
X124178544Y-65979186D01*
X123972222Y-65979186D01*
X123959260Y-65934431D01*
X123944507Y-65890454D01*
X123928005Y-65847297D01*
X123909796Y-65805002D01*
X123889924Y-65763611D01*
X123868430Y-65723167D01*
X123845356Y-65683711D01*
X123820744Y-65645287D01*
X123794638Y-65607935D01*
X123767078Y-65571698D01*
X123738108Y-65536619D01*
X123707770Y-65502739D01*
X123676105Y-65470100D01*
X123643157Y-65438746D01*
X123608967Y-65408717D01*
X123573577Y-65380057D01*
X123537031Y-65352807D01*
X123499370Y-65327009D01*
X123460636Y-65302706D01*
X123420872Y-65279940D01*
X123380120Y-65258752D01*
X123338423Y-65239186D01*
X123295821Y-65221283D01*
X123252359Y-65205086D01*
X123208077Y-65190636D01*
X123163019Y-65177977D01*
X123117227Y-65167149D01*
X123070742Y-65158195D01*
X123023607Y-65151158D01*
X122975864Y-65146079D01*
X122927556Y-65143000D01*
X122878725Y-65141965D01*
X122829892Y-65143000D01*
X122781581Y-65146078D01*
X122733835Y-65151157D01*
X122686697Y-65158194D01*
X122640209Y-65167147D01*
X122594412Y-65177974D01*
X122549351Y-65190634D01*
X122505065Y-65205082D01*
X122418994Y-65239181D01*
X122336536Y-65279933D01*
X122258031Y-65327000D01*
X122183817Y-65380047D01*
X122114232Y-65438735D01*
X122049615Y-65502727D01*
X121990303Y-65571686D01*
X121936636Y-65645276D01*
X121888951Y-65723157D01*
X121847588Y-65804994D01*
X121812883Y-65890450D01*
X121798134Y-65934429D01*
X121785176Y-65979186D01*
X121578854Y-65979186D01*
X121591692Y-65926993D01*
X121606582Y-65875625D01*
X121623477Y-65825130D01*
X121642332Y-65775551D01*
X121663099Y-65726936D01*
X121685733Y-65679330D01*
X121710188Y-65632779D01*
X121736417Y-65587328D01*
X121764373Y-65543023D01*
X121794012Y-65499911D01*
X121825285Y-65458036D01*
X121858148Y-65417445D01*
X121892555Y-65378183D01*
X121928457Y-65340297D01*
X121965811Y-65303831D01*
X122004568Y-65268832D01*
X121430132Y-64640368D01*
X120043424Y-64640368D01*
X120041034Y-64650716D01*
X120038213Y-64660891D01*
X120034971Y-64670884D01*
X120031317Y-64680684D01*
X120027262Y-64690281D01*
X120022817Y-64699665D01*
X120017991Y-64708826D01*
X120012795Y-64717752D01*
X120007239Y-64726435D01*
X120001334Y-64734864D01*
X119995088Y-64743028D01*
X119988514Y-64750917D01*
X119981620Y-64758521D01*
X119974418Y-64765831D01*
X119966917Y-64772834D01*
X119959128Y-64779522D01*
X119951060Y-64785884D01*
X119942725Y-64791910D01*
X119934132Y-64797590D01*
X119925292Y-64802912D01*
X119916214Y-64807868D01*
X119906910Y-64812447D01*
X119897388Y-64816638D01*
X119887660Y-64820431D01*
X119877736Y-64823817D01*
X119867626Y-64826784D01*
X119857340Y-64829323D01*
X119846889Y-64831424D01*
X119836282Y-64833075D01*
X119825530Y-64834267D01*
X119814644Y-64834990D01*
X119803632Y-64835234D01*
X119791027Y-64834915D01*
X119778587Y-64833969D01*
X119766327Y-64832410D01*
X119754264Y-64830256D01*
X119742412Y-64827520D01*
X119730787Y-64824218D01*
X119719404Y-64820367D01*
X119708278Y-64815980D01*
X119697426Y-64811073D01*
X119686862Y-64805663D01*
X119676602Y-64799764D01*
X119666661Y-64793391D01*
X119657055Y-64786560D01*
X119647799Y-64779287D01*
X119638909Y-64771587D01*
X119630399Y-64763475D01*
X119622286Y-64754967D01*
X119614585Y-64746078D01*
X119607311Y-64736823D01*
X119600479Y-64727218D01*
X119594105Y-64717279D01*
X119588205Y-64707020D01*
X119582793Y-64696457D01*
X119577886Y-64685605D01*
X119573498Y-64674481D01*
X119569646Y-64663099D01*
X119566343Y-64651474D01*
X119563607Y-64639623D01*
X119561452Y-64627560D01*
X119559893Y-64615301D01*
X119558947Y-64602861D01*
X119558628Y-64590256D01*
X119558947Y-64577651D01*
X119559893Y-64565211D01*
X119561451Y-64552952D01*
X119563606Y-64540889D01*
X119566342Y-64529037D01*
X119569643Y-64517413D01*
X119573495Y-64506031D01*
X119577882Y-64494906D01*
X119582789Y-64484055D01*
X119588200Y-64473492D01*
X119594099Y-64463233D01*
X119600472Y-64453293D01*
X119607303Y-64443689D01*
X119614576Y-64434434D01*
X119622277Y-64425545D01*
X119630390Y-64417036D01*
X119638899Y-64408924D01*
X119647789Y-64401224D01*
X119657044Y-64393951D01*
X119666650Y-64387121D01*
X119676591Y-64380748D01*
X119686851Y-64374849D01*
X119697415Y-64369438D01*
X119708267Y-64364532D01*
X119719393Y-64360145D01*
X119730777Y-64356293D01*
X119742403Y-64352992D01*
X119754257Y-64350256D01*
X119766321Y-64348101D01*
X119778583Y-64346543D01*
X119791025Y-64345597D01*
X119803632Y-64345278D01*
X119814644Y-64345521D01*
G37*
G36*
X124241364Y-75413355D02*
G01*
X124249544Y-75413757D01*
X124257455Y-75414428D01*
X124265099Y-75415366D01*
X124272474Y-75416572D01*
X124279580Y-75418046D01*
X124286419Y-75419789D01*
X124292989Y-75421799D01*
X124299290Y-75424078D01*
X124305324Y-75426624D01*
X124311089Y-75429439D01*
X124316586Y-75432522D01*
X124321815Y-75435873D01*
X124326775Y-75439492D01*
X124331467Y-75443379D01*
X124335891Y-75447535D01*
X124340047Y-75451958D01*
X124343935Y-75456649D01*
X124347554Y-75461609D01*
X124350906Y-75466837D01*
X124353989Y-75472333D01*
X124356804Y-75478097D01*
X124359351Y-75484129D01*
X124361630Y-75490430D01*
X124363640Y-75496998D01*
X124365383Y-75503835D01*
X124366857Y-75510940D01*
X124368063Y-75518313D01*
X124369002Y-75525954D01*
X124369672Y-75533864D01*
X124370074Y-75542041D01*
X124370208Y-75550487D01*
X124370208Y-75687780D01*
X124370074Y-75696231D01*
X124369672Y-75704413D01*
X124369002Y-75712327D01*
X124368063Y-75719973D01*
X124366857Y-75727350D01*
X124365383Y-75734459D01*
X124363640Y-75741300D01*
X124361630Y-75747872D01*
X124359351Y-75754176D01*
X124356804Y-75760212D01*
X124353989Y-75765979D01*
X124350906Y-75771478D01*
X124347554Y-75776709D01*
X124343935Y-75781672D01*
X124340047Y-75786366D01*
X124335891Y-75790792D01*
X124331467Y-75794950D01*
X124326775Y-75798839D01*
X124321815Y-75802460D01*
X124316586Y-75805813D01*
X124311089Y-75808898D01*
X124305324Y-75811714D01*
X124299290Y-75814262D01*
X124292989Y-75816542D01*
X124286419Y-75818554D01*
X124279580Y-75820297D01*
X124272474Y-75821772D01*
X124265099Y-75822979D01*
X124257455Y-75823918D01*
X124249544Y-75824588D01*
X124241364Y-75824991D01*
X124232916Y-75825125D01*
X123958278Y-75825125D01*
X123958278Y-75742759D01*
X124221380Y-75742759D01*
X124225469Y-75742695D01*
X124229429Y-75742501D01*
X124233259Y-75742177D01*
X124236958Y-75741725D01*
X124240528Y-75741143D01*
X124243968Y-75740432D01*
X124247277Y-75739592D01*
X124250457Y-75738622D01*
X124253507Y-75737523D01*
X124256426Y-75736294D01*
X124259216Y-75734937D01*
X124261876Y-75733450D01*
X124264406Y-75731834D01*
X124266806Y-75730088D01*
X124269077Y-75728213D01*
X124271217Y-75726209D01*
X124273228Y-75724076D01*
X124275109Y-75721813D01*
X124276860Y-75719421D01*
X124278481Y-75716900D01*
X124279972Y-75714250D01*
X124281334Y-75711470D01*
X124282566Y-75708561D01*
X124283668Y-75705522D01*
X124284640Y-75702354D01*
X124285483Y-75699057D01*
X124286196Y-75695631D01*
X124286779Y-75692075D01*
X124287233Y-75688390D01*
X124287557Y-75684576D01*
X124287752Y-75680633D01*
X124287816Y-75676560D01*
X124287816Y-75561467D01*
X124287752Y-75557413D01*
X124287558Y-75553489D01*
X124287235Y-75549693D01*
X124286782Y-75546026D01*
X124286200Y-75542487D01*
X124285489Y-75539078D01*
X124284649Y-75535796D01*
X124283680Y-75532644D01*
X124282581Y-75529620D01*
X124281353Y-75526725D01*
X124279996Y-75523958D01*
X124278510Y-75521321D01*
X124276894Y-75518812D01*
X124275150Y-75516431D01*
X124273276Y-75514179D01*
X124271273Y-75512056D01*
X124269141Y-75510062D01*
X124266880Y-75508196D01*
X124264490Y-75506459D01*
X124261970Y-75504850D01*
X124259322Y-75503371D01*
X124256544Y-75502020D01*
X124253637Y-75500797D01*
X124250602Y-75499704D01*
X124247437Y-75498738D01*
X124244143Y-75497902D01*
X124240720Y-75497194D01*
X124237168Y-75496615D01*
X124233487Y-75496165D01*
X124229677Y-75495843D01*
X124225738Y-75495650D01*
X124221670Y-75495586D01*
X123958278Y-75495586D01*
X123958278Y-75413221D01*
X124232916Y-75413221D01*
X124241364Y-75413355D01*
G37*
D10*
X130330000Y-95570000D02*
X126520000Y-95570000D01*
D11*
G36*
X122104740Y-76796966D02*
G01*
X121804015Y-76796966D01*
X121804015Y-75300457D01*
X122104740Y-75300457D01*
X122104740Y-76796966D01*
G37*
G36*
X124241364Y-71317077D02*
G01*
X124249544Y-71317479D01*
X124257455Y-71318150D01*
X124265099Y-71319088D01*
X124272474Y-71320295D01*
X124279580Y-71321770D01*
X124286419Y-71323514D01*
X124292989Y-71325525D01*
X124299290Y-71327804D01*
X124305324Y-71330352D01*
X124311089Y-71333168D01*
X124316586Y-71336252D01*
X124321815Y-71339604D01*
X124326775Y-71343224D01*
X124331467Y-71347113D01*
X124335891Y-71351269D01*
X124340047Y-71355694D01*
X124343935Y-71360387D01*
X124347554Y-71365348D01*
X124350906Y-71370576D01*
X124353989Y-71376074D01*
X124356804Y-71381839D01*
X124359351Y-71387872D01*
X124361630Y-71394173D01*
X124363640Y-71400743D01*
X124365383Y-71407581D01*
X124366857Y-71414686D01*
X124368063Y-71422060D01*
X124369002Y-71429702D01*
X124369672Y-71437612D01*
X124370074Y-71445789D01*
X124370208Y-71454235D01*
X124370208Y-71728846D01*
X124287816Y-71728846D01*
X124287871Y-71465771D01*
X124287806Y-71461684D01*
X124287612Y-71457726D01*
X124287289Y-71453898D01*
X124286836Y-71450199D01*
X124286255Y-71446630D01*
X124285544Y-71443191D01*
X124284703Y-71439881D01*
X124283734Y-71436701D01*
X124282635Y-71433651D01*
X124281407Y-71430730D01*
X124280050Y-71427940D01*
X124278564Y-71425278D01*
X124276949Y-71422747D01*
X124275204Y-71420345D01*
X124273330Y-71418073D01*
X124271327Y-71415931D01*
X124269195Y-71413918D01*
X124266934Y-71412036D01*
X124264544Y-71410283D01*
X124262024Y-71408659D01*
X124259376Y-71407166D01*
X124256598Y-71405803D01*
X124253692Y-71404569D01*
X124250656Y-71403465D01*
X124247491Y-71402491D01*
X124244197Y-71401646D01*
X124240774Y-71400932D01*
X124237222Y-71400348D01*
X124233541Y-71399893D01*
X124229731Y-71399568D01*
X124225792Y-71399373D01*
X124221725Y-71399308D01*
X124106631Y-71399308D01*
X124102575Y-71399373D01*
X124098648Y-71399567D01*
X124094850Y-71399890D01*
X124091181Y-71400343D01*
X124087641Y-71400924D01*
X124084229Y-71401635D01*
X124080946Y-71402476D01*
X124077792Y-71403445D01*
X124074767Y-71404544D01*
X124071871Y-71405772D01*
X124069103Y-71407129D01*
X124066464Y-71408615D01*
X124063954Y-71410230D01*
X124061573Y-71411975D01*
X124059320Y-71413849D01*
X124057197Y-71415852D01*
X124055202Y-71417984D01*
X124053335Y-71420245D01*
X124051598Y-71422635D01*
X124049989Y-71425154D01*
X124048509Y-71427803D01*
X124047158Y-71430581D01*
X124045935Y-71433487D01*
X124044841Y-71436523D01*
X124043876Y-71439688D01*
X124043040Y-71442982D01*
X124042332Y-71446405D01*
X124041753Y-71449957D01*
X124041302Y-71453638D01*
X124040981Y-71457447D01*
X124040788Y-71461386D01*
X124040723Y-71465454D01*
X124040723Y-71728846D01*
X123958332Y-71728846D01*
X123958332Y-71454235D01*
X123958466Y-71445790D01*
X123958868Y-71437612D01*
X123959538Y-71429702D01*
X123960477Y-71422060D01*
X123961684Y-71414686D01*
X123963159Y-71407581D01*
X123964902Y-71400743D01*
X123966914Y-71394174D01*
X123969194Y-71387872D01*
X123971742Y-71381839D01*
X123974558Y-71376074D01*
X123977642Y-71370577D01*
X123980995Y-71365348D01*
X123984615Y-71360387D01*
X123988504Y-71355694D01*
X123992661Y-71351269D01*
X123997087Y-71347113D01*
X124001780Y-71343225D01*
X124006742Y-71339604D01*
X124011972Y-71336252D01*
X124017470Y-71333168D01*
X124023236Y-71330352D01*
X124029271Y-71327805D01*
X124035574Y-71325525D01*
X124042144Y-71323514D01*
X124048984Y-71321770D01*
X124056091Y-71320295D01*
X124063466Y-71319089D01*
X124071110Y-71318150D01*
X124079022Y-71317479D01*
X124087202Y-71317077D01*
X124095650Y-71316943D01*
X124232916Y-71316943D01*
X124241364Y-71317077D01*
G37*
D10*
X126607438Y-63058095D02*
X126559819Y-62962857D01*
X126559819Y-62962857D02*
X126559819Y-62820000D01*
X126559819Y-62820000D02*
X126607438Y-62677143D01*
X126607438Y-62677143D02*
X126702676Y-62581905D01*
X126702676Y-62581905D02*
X126797914Y-62534286D01*
X126797914Y-62534286D02*
X126988390Y-62486667D01*
X126988390Y-62486667D02*
X127131247Y-62486667D01*
X127131247Y-62486667D02*
X127321723Y-62534286D01*
X127321723Y-62534286D02*
X127416961Y-62581905D01*
X127416961Y-62581905D02*
X127512200Y-62677143D01*
X127512200Y-62677143D02*
X127559819Y-62820000D01*
X127559819Y-62820000D02*
X127559819Y-62915238D01*
X127559819Y-62915238D02*
X127512200Y-63058095D01*
X127512200Y-63058095D02*
X127464580Y-63105714D01*
X127464580Y-63105714D02*
X127131247Y-63105714D01*
X127131247Y-63105714D02*
X127131247Y-62915238D01*
X127559819Y-63534286D02*
X126559819Y-63534286D01*
X126559819Y-63534286D02*
X127559819Y-64105714D01*
X127559819Y-64105714D02*
X126559819Y-64105714D01*
X127559819Y-64581905D02*
X126559819Y-64581905D01*
X126559819Y-64581905D02*
X126559819Y-64820000D01*
X126559819Y-64820000D02*
X126607438Y-64962857D01*
X126607438Y-64962857D02*
X126702676Y-65058095D01*
X126702676Y-65058095D02*
X126797914Y-65105714D01*
X126797914Y-65105714D02*
X126988390Y-65153333D01*
X126988390Y-65153333D02*
X127131247Y-65153333D01*
X127131247Y-65153333D02*
X127321723Y-65105714D01*
X127321723Y-65105714D02*
X127416961Y-65058095D01*
X127416961Y-65058095D02*
X127512200Y-64962857D01*
X127512200Y-64962857D02*
X127559819Y-64820000D01*
X127559819Y-64820000D02*
X127559819Y-64581905D01*
X120441540Y-94723866D02*
X119679636Y-94723866D01*
X120060588Y-95104819D02*
X120060588Y-94342914D01*
X119203445Y-95104819D02*
X119203445Y-94104819D01*
X119203445Y-94104819D02*
X118822493Y-94104819D01*
X118822493Y-94104819D02*
X118727255Y-94152438D01*
X118727255Y-94152438D02*
X118679636Y-94200057D01*
X118679636Y-94200057D02*
X118632017Y-94295295D01*
X118632017Y-94295295D02*
X118632017Y-94438152D01*
X118632017Y-94438152D02*
X118679636Y-94533390D01*
X118679636Y-94533390D02*
X118727255Y-94581009D01*
X118727255Y-94581009D02*
X118822493Y-94628628D01*
X118822493Y-94628628D02*
X119203445Y-94628628D01*
X118298683Y-94104819D02*
X118060588Y-95104819D01*
X118060588Y-95104819D02*
X117870112Y-94390533D01*
X117870112Y-94390533D02*
X117679636Y-95104819D01*
X117679636Y-95104819D02*
X117441541Y-94104819D01*
X116489160Y-95104819D02*
X116822493Y-94628628D01*
X117060588Y-95104819D02*
X117060588Y-94104819D01*
X117060588Y-94104819D02*
X116679636Y-94104819D01*
X116679636Y-94104819D02*
X116584398Y-94152438D01*
X116584398Y-94152438D02*
X116536779Y-94200057D01*
X116536779Y-94200057D02*
X116489160Y-94295295D01*
X116489160Y-94295295D02*
X116489160Y-94438152D01*
X116489160Y-94438152D02*
X116536779Y-94533390D01*
X116536779Y-94533390D02*
X116584398Y-94581009D01*
X116584398Y-94581009D02*
X116679636Y-94628628D01*
X116679636Y-94628628D02*
X117060588Y-94628628D01*
X118562969Y-70547200D02*
X118420112Y-70594819D01*
X118420112Y-70594819D02*
X118182017Y-70594819D01*
X118182017Y-70594819D02*
X118086779Y-70547200D01*
X118086779Y-70547200D02*
X118039160Y-70499580D01*
X118039160Y-70499580D02*
X117991541Y-70404342D01*
X117991541Y-70404342D02*
X117991541Y-70309104D01*
X117991541Y-70309104D02*
X118039160Y-70213866D01*
X118039160Y-70213866D02*
X118086779Y-70166247D01*
X118086779Y-70166247D02*
X118182017Y-70118628D01*
X118182017Y-70118628D02*
X118372493Y-70071009D01*
X118372493Y-70071009D02*
X118467731Y-70023390D01*
X118467731Y-70023390D02*
X118515350Y-69975771D01*
X118515350Y-69975771D02*
X118562969Y-69880533D01*
X118562969Y-69880533D02*
X118562969Y-69785295D01*
X118562969Y-69785295D02*
X118515350Y-69690057D01*
X118515350Y-69690057D02*
X118467731Y-69642438D01*
X118467731Y-69642438D02*
X118372493Y-69594819D01*
X118372493Y-69594819D02*
X118134398Y-69594819D01*
X118134398Y-69594819D02*
X117991541Y-69642438D01*
X117658207Y-69594819D02*
X117420112Y-70594819D01*
X117420112Y-70594819D02*
X117229636Y-69880533D01*
X117229636Y-69880533D02*
X117039160Y-70594819D01*
X117039160Y-70594819D02*
X116801065Y-69594819D01*
X115848684Y-70499580D02*
X115896303Y-70547200D01*
X115896303Y-70547200D02*
X116039160Y-70594819D01*
X116039160Y-70594819D02*
X116134398Y-70594819D01*
X116134398Y-70594819D02*
X116277255Y-70547200D01*
X116277255Y-70547200D02*
X116372493Y-70451961D01*
X116372493Y-70451961D02*
X116420112Y-70356723D01*
X116420112Y-70356723D02*
X116467731Y-70166247D01*
X116467731Y-70166247D02*
X116467731Y-70023390D01*
X116467731Y-70023390D02*
X116420112Y-69832914D01*
X116420112Y-69832914D02*
X116372493Y-69737676D01*
X116372493Y-69737676D02*
X116277255Y-69642438D01*
X116277255Y-69642438D02*
X116134398Y-69594819D01*
X116134398Y-69594819D02*
X116039160Y-69594819D01*
X116039160Y-69594819D02*
X115896303Y-69642438D01*
X115896303Y-69642438D02*
X115848684Y-69690057D01*
X114943922Y-70594819D02*
X115420112Y-70594819D01*
X115420112Y-70594819D02*
X115420112Y-69594819D01*
X114610588Y-70594819D02*
X114610588Y-69594819D01*
X114039160Y-70594819D02*
X114467731Y-70023390D01*
X114039160Y-69594819D02*
X114610588Y-70166247D01*
X118277254Y-71817200D02*
X118134397Y-71864819D01*
X118134397Y-71864819D02*
X117896302Y-71864819D01*
X117896302Y-71864819D02*
X117801064Y-71817200D01*
X117801064Y-71817200D02*
X117753445Y-71769580D01*
X117753445Y-71769580D02*
X117705826Y-71674342D01*
X117705826Y-71674342D02*
X117705826Y-71579104D01*
X117705826Y-71579104D02*
X117753445Y-71483866D01*
X117753445Y-71483866D02*
X117801064Y-71436247D01*
X117801064Y-71436247D02*
X117896302Y-71388628D01*
X117896302Y-71388628D02*
X118086778Y-71341009D01*
X118086778Y-71341009D02*
X118182016Y-71293390D01*
X118182016Y-71293390D02*
X118229635Y-71245771D01*
X118229635Y-71245771D02*
X118277254Y-71150533D01*
X118277254Y-71150533D02*
X118277254Y-71055295D01*
X118277254Y-71055295D02*
X118229635Y-70960057D01*
X118229635Y-70960057D02*
X118182016Y-70912438D01*
X118182016Y-70912438D02*
X118086778Y-70864819D01*
X118086778Y-70864819D02*
X117848683Y-70864819D01*
X117848683Y-70864819D02*
X117705826Y-70912438D01*
X117372492Y-70864819D02*
X117134397Y-71864819D01*
X117134397Y-71864819D02*
X116943921Y-71150533D01*
X116943921Y-71150533D02*
X116753445Y-71864819D01*
X116753445Y-71864819D02*
X116515350Y-70864819D01*
X116134397Y-71864819D02*
X116134397Y-70864819D01*
X116134397Y-70864819D02*
X115896302Y-70864819D01*
X115896302Y-70864819D02*
X115753445Y-70912438D01*
X115753445Y-70912438D02*
X115658207Y-71007676D01*
X115658207Y-71007676D02*
X115610588Y-71102914D01*
X115610588Y-71102914D02*
X115562969Y-71293390D01*
X115562969Y-71293390D02*
X115562969Y-71436247D01*
X115562969Y-71436247D02*
X115610588Y-71626723D01*
X115610588Y-71626723D02*
X115658207Y-71721961D01*
X115658207Y-71721961D02*
X115753445Y-71817200D01*
X115753445Y-71817200D02*
X115896302Y-71864819D01*
X115896302Y-71864819D02*
X116134397Y-71864819D01*
X115134397Y-71864819D02*
X115134397Y-70864819D01*
X114467731Y-70864819D02*
X114277255Y-70864819D01*
X114277255Y-70864819D02*
X114182017Y-70912438D01*
X114182017Y-70912438D02*
X114086779Y-71007676D01*
X114086779Y-71007676D02*
X114039160Y-71198152D01*
X114039160Y-71198152D02*
X114039160Y-71531485D01*
X114039160Y-71531485D02*
X114086779Y-71721961D01*
X114086779Y-71721961D02*
X114182017Y-71817200D01*
X114182017Y-71817200D02*
X114277255Y-71864819D01*
X114277255Y-71864819D02*
X114467731Y-71864819D01*
X114467731Y-71864819D02*
X114562969Y-71817200D01*
X114562969Y-71817200D02*
X114658207Y-71721961D01*
X114658207Y-71721961D02*
X114705826Y-71531485D01*
X114705826Y-71531485D02*
X114705826Y-71198152D01*
X114705826Y-71198152D02*
X114658207Y-71007676D01*
X114658207Y-71007676D02*
X114562969Y-70912438D01*
X114562969Y-70912438D02*
X114467731Y-70864819D01*
X126607438Y-97348095D02*
X126559819Y-97252857D01*
X126559819Y-97252857D02*
X126559819Y-97110000D01*
X126559819Y-97110000D02*
X126607438Y-96967143D01*
X126607438Y-96967143D02*
X126702676Y-96871905D01*
X126702676Y-96871905D02*
X126797914Y-96824286D01*
X126797914Y-96824286D02*
X126988390Y-96776667D01*
X126988390Y-96776667D02*
X127131247Y-96776667D01*
X127131247Y-96776667D02*
X127321723Y-96824286D01*
X127321723Y-96824286D02*
X127416961Y-96871905D01*
X127416961Y-96871905D02*
X127512200Y-96967143D01*
X127512200Y-96967143D02*
X127559819Y-97110000D01*
X127559819Y-97110000D02*
X127559819Y-97205238D01*
X127559819Y-97205238D02*
X127512200Y-97348095D01*
X127512200Y-97348095D02*
X127464580Y-97395714D01*
X127464580Y-97395714D02*
X127131247Y-97395714D01*
X127131247Y-97395714D02*
X127131247Y-97205238D01*
X127559819Y-97824286D02*
X126559819Y-97824286D01*
X126559819Y-97824286D02*
X127559819Y-98395714D01*
X127559819Y-98395714D02*
X126559819Y-98395714D01*
X127559819Y-98871905D02*
X126559819Y-98871905D01*
X126559819Y-98871905D02*
X126559819Y-99110000D01*
X126559819Y-99110000D02*
X126607438Y-99252857D01*
X126607438Y-99252857D02*
X126702676Y-99348095D01*
X126702676Y-99348095D02*
X126797914Y-99395714D01*
X126797914Y-99395714D02*
X126988390Y-99443333D01*
X126988390Y-99443333D02*
X127131247Y-99443333D01*
X127131247Y-99443333D02*
X127321723Y-99395714D01*
X127321723Y-99395714D02*
X127416961Y-99348095D01*
X127416961Y-99348095D02*
X127512200Y-99252857D01*
X127512200Y-99252857D02*
X127559819Y-99110000D01*
X127559819Y-99110000D02*
X127559819Y-98871905D01*
X127036009Y-91355238D02*
X127083628Y-91498095D01*
X127083628Y-91498095D02*
X127131247Y-91545714D01*
X127131247Y-91545714D02*
X127226485Y-91593333D01*
X127226485Y-91593333D02*
X127369342Y-91593333D01*
X127369342Y-91593333D02*
X127464580Y-91545714D01*
X127464580Y-91545714D02*
X127512200Y-91498095D01*
X127512200Y-91498095D02*
X127559819Y-91402857D01*
X127559819Y-91402857D02*
X127559819Y-91021905D01*
X127559819Y-91021905D02*
X126559819Y-91021905D01*
X126559819Y-91021905D02*
X126559819Y-91355238D01*
X126559819Y-91355238D02*
X126607438Y-91450476D01*
X126607438Y-91450476D02*
X126655057Y-91498095D01*
X126655057Y-91498095D02*
X126750295Y-91545714D01*
X126750295Y-91545714D02*
X126845533Y-91545714D01*
X126845533Y-91545714D02*
X126940771Y-91498095D01*
X126940771Y-91498095D02*
X126988390Y-91450476D01*
X126988390Y-91450476D02*
X127036009Y-91355238D01*
X127036009Y-91355238D02*
X127036009Y-91021905D01*
X126988390Y-92164762D02*
X126940771Y-92069524D01*
X126940771Y-92069524D02*
X126893152Y-92021905D01*
X126893152Y-92021905D02*
X126797914Y-91974286D01*
X126797914Y-91974286D02*
X126750295Y-91974286D01*
X126750295Y-91974286D02*
X126655057Y-92021905D01*
X126655057Y-92021905D02*
X126607438Y-92069524D01*
X126607438Y-92069524D02*
X126559819Y-92164762D01*
X126559819Y-92164762D02*
X126559819Y-92355238D01*
X126559819Y-92355238D02*
X126607438Y-92450476D01*
X126607438Y-92450476D02*
X126655057Y-92498095D01*
X126655057Y-92498095D02*
X126750295Y-92545714D01*
X126750295Y-92545714D02*
X126797914Y-92545714D01*
X126797914Y-92545714D02*
X126893152Y-92498095D01*
X126893152Y-92498095D02*
X126940771Y-92450476D01*
X126940771Y-92450476D02*
X126988390Y-92355238D01*
X126988390Y-92355238D02*
X126988390Y-92164762D01*
X126988390Y-92164762D02*
X127036009Y-92069524D01*
X127036009Y-92069524D02*
X127083628Y-92021905D01*
X127083628Y-92021905D02*
X127178866Y-91974286D01*
X127178866Y-91974286D02*
X127369342Y-91974286D01*
X127369342Y-91974286D02*
X127464580Y-92021905D01*
X127464580Y-92021905D02*
X127512200Y-92069524D01*
X127512200Y-92069524D02*
X127559819Y-92164762D01*
X127559819Y-92164762D02*
X127559819Y-92355238D01*
X127559819Y-92355238D02*
X127512200Y-92450476D01*
X127512200Y-92450476D02*
X127464580Y-92498095D01*
X127464580Y-92498095D02*
X127369342Y-92545714D01*
X127369342Y-92545714D02*
X127178866Y-92545714D01*
X127178866Y-92545714D02*
X127083628Y-92498095D01*
X127083628Y-92498095D02*
X127036009Y-92450476D01*
X127036009Y-92450476D02*
X126988390Y-92355238D01*
X116134398Y-67102438D02*
X116229636Y-67054819D01*
X116229636Y-67054819D02*
X116372493Y-67054819D01*
X116372493Y-67054819D02*
X116515350Y-67102438D01*
X116515350Y-67102438D02*
X116610588Y-67197676D01*
X116610588Y-67197676D02*
X116658207Y-67292914D01*
X116658207Y-67292914D02*
X116705826Y-67483390D01*
X116705826Y-67483390D02*
X116705826Y-67626247D01*
X116705826Y-67626247D02*
X116658207Y-67816723D01*
X116658207Y-67816723D02*
X116610588Y-67911961D01*
X116610588Y-67911961D02*
X116515350Y-68007200D01*
X116515350Y-68007200D02*
X116372493Y-68054819D01*
X116372493Y-68054819D02*
X116277255Y-68054819D01*
X116277255Y-68054819D02*
X116134398Y-68007200D01*
X116134398Y-68007200D02*
X116086779Y-67959580D01*
X116086779Y-67959580D02*
X116086779Y-67626247D01*
X116086779Y-67626247D02*
X116277255Y-67626247D01*
X115658207Y-68054819D02*
X115658207Y-67054819D01*
X115658207Y-67054819D02*
X115086779Y-68054819D01*
X115086779Y-68054819D02*
X115086779Y-67054819D01*
X114610588Y-68054819D02*
X114610588Y-67054819D01*
X114610588Y-67054819D02*
X114372493Y-67054819D01*
X114372493Y-67054819D02*
X114229636Y-67102438D01*
X114229636Y-67102438D02*
X114134398Y-67197676D01*
X114134398Y-67197676D02*
X114086779Y-67292914D01*
X114086779Y-67292914D02*
X114039160Y-67483390D01*
X114039160Y-67483390D02*
X114039160Y-67626247D01*
X114039160Y-67626247D02*
X114086779Y-67816723D01*
X114086779Y-67816723D02*
X114134398Y-67911961D01*
X114134398Y-67911961D02*
X114229636Y-68007200D01*
X114229636Y-68007200D02*
X114372493Y-68054819D01*
X114372493Y-68054819D02*
X114610588Y-68054819D01*
X127274104Y-83425714D02*
X127274104Y-83901904D01*
X127559819Y-83330476D02*
X126559819Y-83663809D01*
X126559819Y-83663809D02*
X127559819Y-83997142D01*
X126559819Y-84520952D02*
X126559819Y-84616190D01*
X126559819Y-84616190D02*
X126607438Y-84711428D01*
X126607438Y-84711428D02*
X126655057Y-84759047D01*
X126655057Y-84759047D02*
X126750295Y-84806666D01*
X126750295Y-84806666D02*
X126940771Y-84854285D01*
X126940771Y-84854285D02*
X127178866Y-84854285D01*
X127178866Y-84854285D02*
X127369342Y-84806666D01*
X127369342Y-84806666D02*
X127464580Y-84759047D01*
X127464580Y-84759047D02*
X127512200Y-84711428D01*
X127512200Y-84711428D02*
X127559819Y-84616190D01*
X127559819Y-84616190D02*
X127559819Y-84520952D01*
X127559819Y-84520952D02*
X127512200Y-84425714D01*
X127512200Y-84425714D02*
X127464580Y-84378095D01*
X127464580Y-84378095D02*
X127369342Y-84330476D01*
X127369342Y-84330476D02*
X127178866Y-84282857D01*
X127178866Y-84282857D02*
X126940771Y-84282857D01*
X126940771Y-84282857D02*
X126750295Y-84330476D01*
X126750295Y-84330476D02*
X126655057Y-84378095D01*
X126655057Y-84378095D02*
X126607438Y-84425714D01*
X126607438Y-84425714D02*
X126559819Y-84520952D01*
X119203446Y-80759580D02*
X119251065Y-80807200D01*
X119251065Y-80807200D02*
X119393922Y-80854819D01*
X119393922Y-80854819D02*
X119489160Y-80854819D01*
X119489160Y-80854819D02*
X119632017Y-80807200D01*
X119632017Y-80807200D02*
X119727255Y-80711961D01*
X119727255Y-80711961D02*
X119774874Y-80616723D01*
X119774874Y-80616723D02*
X119822493Y-80426247D01*
X119822493Y-80426247D02*
X119822493Y-80283390D01*
X119822493Y-80283390D02*
X119774874Y-80092914D01*
X119774874Y-80092914D02*
X119727255Y-79997676D01*
X119727255Y-79997676D02*
X119632017Y-79902438D01*
X119632017Y-79902438D02*
X119489160Y-79854819D01*
X119489160Y-79854819D02*
X119393922Y-79854819D01*
X119393922Y-79854819D02*
X119251065Y-79902438D01*
X119251065Y-79902438D02*
X119203446Y-79950057D01*
X118822493Y-80569104D02*
X118346303Y-80569104D01*
X118917731Y-80854819D02*
X118584398Y-79854819D01*
X118584398Y-79854819D02*
X118251065Y-80854819D01*
X117917731Y-80854819D02*
X117917731Y-79854819D01*
X117917731Y-79854819D02*
X117346303Y-80854819D01*
X117346303Y-80854819D02*
X117346303Y-79854819D01*
X116393922Y-80854819D02*
X116870112Y-80854819D01*
X116870112Y-80854819D02*
X116870112Y-79854819D01*
X127274104Y-78345714D02*
X127274104Y-78821904D01*
X127559819Y-78250476D02*
X126559819Y-78583809D01*
X126559819Y-78583809D02*
X127559819Y-78917142D01*
X126655057Y-79202857D02*
X126607438Y-79250476D01*
X126607438Y-79250476D02*
X126559819Y-79345714D01*
X126559819Y-79345714D02*
X126559819Y-79583809D01*
X126559819Y-79583809D02*
X126607438Y-79679047D01*
X126607438Y-79679047D02*
X126655057Y-79726666D01*
X126655057Y-79726666D02*
X126750295Y-79774285D01*
X126750295Y-79774285D02*
X126845533Y-79774285D01*
X126845533Y-79774285D02*
X126988390Y-79726666D01*
X126988390Y-79726666D02*
X127559819Y-79155238D01*
X127559819Y-79155238D02*
X127559819Y-79774285D01*
X118584398Y-97652438D02*
X118679636Y-97604819D01*
X118679636Y-97604819D02*
X118822493Y-97604819D01*
X118822493Y-97604819D02*
X118965350Y-97652438D01*
X118965350Y-97652438D02*
X119060588Y-97747676D01*
X119060588Y-97747676D02*
X119108207Y-97842914D01*
X119108207Y-97842914D02*
X119155826Y-98033390D01*
X119155826Y-98033390D02*
X119155826Y-98176247D01*
X119155826Y-98176247D02*
X119108207Y-98366723D01*
X119108207Y-98366723D02*
X119060588Y-98461961D01*
X119060588Y-98461961D02*
X118965350Y-98557200D01*
X118965350Y-98557200D02*
X118822493Y-98604819D01*
X118822493Y-98604819D02*
X118727255Y-98604819D01*
X118727255Y-98604819D02*
X118584398Y-98557200D01*
X118584398Y-98557200D02*
X118536779Y-98509580D01*
X118536779Y-98509580D02*
X118536779Y-98176247D01*
X118536779Y-98176247D02*
X118727255Y-98176247D01*
X118108207Y-98604819D02*
X118108207Y-97604819D01*
X118108207Y-97604819D02*
X117536779Y-98604819D01*
X117536779Y-98604819D02*
X117536779Y-97604819D01*
X117060588Y-98604819D02*
X117060588Y-97604819D01*
X117060588Y-97604819D02*
X116822493Y-97604819D01*
X116822493Y-97604819D02*
X116679636Y-97652438D01*
X116679636Y-97652438D02*
X116584398Y-97747676D01*
X116584398Y-97747676D02*
X116536779Y-97842914D01*
X116536779Y-97842914D02*
X116489160Y-98033390D01*
X116489160Y-98033390D02*
X116489160Y-98176247D01*
X116489160Y-98176247D02*
X116536779Y-98366723D01*
X116536779Y-98366723D02*
X116584398Y-98461961D01*
X116584398Y-98461961D02*
X116679636Y-98557200D01*
X116679636Y-98557200D02*
X116822493Y-98604819D01*
X116822493Y-98604819D02*
X117060588Y-98604819D01*
X126559819Y-101856667D02*
X127559819Y-102190000D01*
X127559819Y-102190000D02*
X126559819Y-102523333D01*
X127559819Y-102856667D02*
X126559819Y-102856667D01*
X126559819Y-102856667D02*
X126559819Y-103094762D01*
X126559819Y-103094762D02*
X126607438Y-103237619D01*
X126607438Y-103237619D02*
X126702676Y-103332857D01*
X126702676Y-103332857D02*
X126797914Y-103380476D01*
X126797914Y-103380476D02*
X126988390Y-103428095D01*
X126988390Y-103428095D02*
X127131247Y-103428095D01*
X127131247Y-103428095D02*
X127321723Y-103380476D01*
X127321723Y-103380476D02*
X127416961Y-103332857D01*
X127416961Y-103332857D02*
X127512200Y-103237619D01*
X127512200Y-103237619D02*
X127559819Y-103094762D01*
X127559819Y-103094762D02*
X127559819Y-102856667D01*
X127559819Y-103856667D02*
X126559819Y-103856667D01*
X126559819Y-103856667D02*
X126559819Y-104094762D01*
X126559819Y-104094762D02*
X126607438Y-104237619D01*
X126607438Y-104237619D02*
X126702676Y-104332857D01*
X126702676Y-104332857D02*
X126797914Y-104380476D01*
X126797914Y-104380476D02*
X126988390Y-104428095D01*
X126988390Y-104428095D02*
X127131247Y-104428095D01*
X127131247Y-104428095D02*
X127321723Y-104380476D01*
X127321723Y-104380476D02*
X127416961Y-104332857D01*
X127416961Y-104332857D02*
X127512200Y-104237619D01*
X127512200Y-104237619D02*
X127559819Y-104094762D01*
X127559819Y-104094762D02*
X127559819Y-103856667D01*
X118584398Y-90652438D02*
X118679636Y-90604819D01*
X118679636Y-90604819D02*
X118822493Y-90604819D01*
X118822493Y-90604819D02*
X118965350Y-90652438D01*
X118965350Y-90652438D02*
X119060588Y-90747676D01*
X119060588Y-90747676D02*
X119108207Y-90842914D01*
X119108207Y-90842914D02*
X119155826Y-91033390D01*
X119155826Y-91033390D02*
X119155826Y-91176247D01*
X119155826Y-91176247D02*
X119108207Y-91366723D01*
X119108207Y-91366723D02*
X119060588Y-91461961D01*
X119060588Y-91461961D02*
X118965350Y-91557200D01*
X118965350Y-91557200D02*
X118822493Y-91604819D01*
X118822493Y-91604819D02*
X118727255Y-91604819D01*
X118727255Y-91604819D02*
X118584398Y-91557200D01*
X118584398Y-91557200D02*
X118536779Y-91509580D01*
X118536779Y-91509580D02*
X118536779Y-91176247D01*
X118536779Y-91176247D02*
X118727255Y-91176247D01*
X118108207Y-91604819D02*
X118108207Y-90604819D01*
X118108207Y-90604819D02*
X117536779Y-91604819D01*
X117536779Y-91604819D02*
X117536779Y-90604819D01*
X117060588Y-91604819D02*
X117060588Y-90604819D01*
X117060588Y-90604819D02*
X116822493Y-90604819D01*
X116822493Y-90604819D02*
X116679636Y-90652438D01*
X116679636Y-90652438D02*
X116584398Y-90747676D01*
X116584398Y-90747676D02*
X116536779Y-90842914D01*
X116536779Y-90842914D02*
X116489160Y-91033390D01*
X116489160Y-91033390D02*
X116489160Y-91176247D01*
X116489160Y-91176247D02*
X116536779Y-91366723D01*
X116536779Y-91366723D02*
X116584398Y-91461961D01*
X116584398Y-91461961D02*
X116679636Y-91557200D01*
X116679636Y-91557200D02*
X116822493Y-91604819D01*
X116822493Y-91604819D02*
X117060588Y-91604819D01*
X127274104Y-68185714D02*
X127274104Y-68661904D01*
X127559819Y-68090476D02*
X126559819Y-68423809D01*
X126559819Y-68423809D02*
X127559819Y-68757142D01*
X126559819Y-69519047D02*
X126559819Y-69328571D01*
X126559819Y-69328571D02*
X126607438Y-69233333D01*
X126607438Y-69233333D02*
X126655057Y-69185714D01*
X126655057Y-69185714D02*
X126797914Y-69090476D01*
X126797914Y-69090476D02*
X126988390Y-69042857D01*
X126988390Y-69042857D02*
X127369342Y-69042857D01*
X127369342Y-69042857D02*
X127464580Y-69090476D01*
X127464580Y-69090476D02*
X127512200Y-69138095D01*
X127512200Y-69138095D02*
X127559819Y-69233333D01*
X127559819Y-69233333D02*
X127559819Y-69423809D01*
X127559819Y-69423809D02*
X127512200Y-69519047D01*
X127512200Y-69519047D02*
X127464580Y-69566666D01*
X127464580Y-69566666D02*
X127369342Y-69614285D01*
X127369342Y-69614285D02*
X127131247Y-69614285D01*
X127131247Y-69614285D02*
X127036009Y-69566666D01*
X127036009Y-69566666D02*
X126988390Y-69519047D01*
X126988390Y-69519047D02*
X126940771Y-69423809D01*
X126940771Y-69423809D02*
X126940771Y-69233333D01*
X126940771Y-69233333D02*
X126988390Y-69138095D01*
X126988390Y-69138095D02*
X127036009Y-69090476D01*
X127036009Y-69090476D02*
X127131247Y-69042857D01*
X127274104Y-70725714D02*
X127274104Y-71201904D01*
X127559819Y-70630476D02*
X126559819Y-70963809D01*
X126559819Y-70963809D02*
X127559819Y-71297142D01*
X126559819Y-72106666D02*
X126559819Y-71630476D01*
X126559819Y-71630476D02*
X127036009Y-71582857D01*
X127036009Y-71582857D02*
X126988390Y-71630476D01*
X126988390Y-71630476D02*
X126940771Y-71725714D01*
X126940771Y-71725714D02*
X126940771Y-71963809D01*
X126940771Y-71963809D02*
X126988390Y-72059047D01*
X126988390Y-72059047D02*
X127036009Y-72106666D01*
X127036009Y-72106666D02*
X127131247Y-72154285D01*
X127131247Y-72154285D02*
X127369342Y-72154285D01*
X127369342Y-72154285D02*
X127464580Y-72106666D01*
X127464580Y-72106666D02*
X127512200Y-72059047D01*
X127512200Y-72059047D02*
X127559819Y-71963809D01*
X127559819Y-71963809D02*
X127559819Y-71725714D01*
X127559819Y-71725714D02*
X127512200Y-71630476D01*
X127512200Y-71630476D02*
X127464580Y-71582857D01*
X127412200Y-85608571D02*
X127455057Y-85737143D01*
X127455057Y-85737143D02*
X127455057Y-85951428D01*
X127455057Y-85951428D02*
X127412200Y-86037143D01*
X127412200Y-86037143D02*
X127369342Y-86080000D01*
X127369342Y-86080000D02*
X127283628Y-86122857D01*
X127283628Y-86122857D02*
X127197914Y-86122857D01*
X127197914Y-86122857D02*
X127112200Y-86080000D01*
X127112200Y-86080000D02*
X127069342Y-86037143D01*
X127069342Y-86037143D02*
X127026485Y-85951428D01*
X127026485Y-85951428D02*
X126983628Y-85780000D01*
X126983628Y-85780000D02*
X126940771Y-85694285D01*
X126940771Y-85694285D02*
X126897914Y-85651428D01*
X126897914Y-85651428D02*
X126812200Y-85608571D01*
X126812200Y-85608571D02*
X126726485Y-85608571D01*
X126726485Y-85608571D02*
X126640771Y-85651428D01*
X126640771Y-85651428D02*
X126597914Y-85694285D01*
X126597914Y-85694285D02*
X126555057Y-85780000D01*
X126555057Y-85780000D02*
X126555057Y-85994285D01*
X126555057Y-85994285D02*
X126597914Y-86122857D01*
X127369342Y-87022857D02*
X127412200Y-86980000D01*
X127412200Y-86980000D02*
X127455057Y-86851428D01*
X127455057Y-86851428D02*
X127455057Y-86765714D01*
X127455057Y-86765714D02*
X127412200Y-86637143D01*
X127412200Y-86637143D02*
X127326485Y-86551428D01*
X127326485Y-86551428D02*
X127240771Y-86508571D01*
X127240771Y-86508571D02*
X127069342Y-86465714D01*
X127069342Y-86465714D02*
X126940771Y-86465714D01*
X126940771Y-86465714D02*
X126769342Y-86508571D01*
X126769342Y-86508571D02*
X126683628Y-86551428D01*
X126683628Y-86551428D02*
X126597914Y-86637143D01*
X126597914Y-86637143D02*
X126555057Y-86765714D01*
X126555057Y-86765714D02*
X126555057Y-86851428D01*
X126555057Y-86851428D02*
X126597914Y-86980000D01*
X126597914Y-86980000D02*
X126640771Y-87022857D01*
X127455057Y-87837143D02*
X127455057Y-87408571D01*
X127455057Y-87408571D02*
X126555057Y-87408571D01*
X127412200Y-88127142D02*
X127455057Y-88255714D01*
X127455057Y-88255714D02*
X127455057Y-88469999D01*
X127455057Y-88469999D02*
X127412200Y-88555714D01*
X127412200Y-88555714D02*
X127369342Y-88598571D01*
X127369342Y-88598571D02*
X127283628Y-88641428D01*
X127283628Y-88641428D02*
X127197914Y-88641428D01*
X127197914Y-88641428D02*
X127112200Y-88598571D01*
X127112200Y-88598571D02*
X127069342Y-88555714D01*
X127069342Y-88555714D02*
X127026485Y-88469999D01*
X127026485Y-88469999D02*
X126983628Y-88298571D01*
X126983628Y-88298571D02*
X126940771Y-88212856D01*
X126940771Y-88212856D02*
X126897914Y-88169999D01*
X126897914Y-88169999D02*
X126812200Y-88127142D01*
X126812200Y-88127142D02*
X126726485Y-88127142D01*
X126726485Y-88127142D02*
X126640771Y-88169999D01*
X126640771Y-88169999D02*
X126597914Y-88212856D01*
X126597914Y-88212856D02*
X126555057Y-88298571D01*
X126555057Y-88298571D02*
X126555057Y-88512856D01*
X126555057Y-88512856D02*
X126597914Y-88641428D01*
X127455057Y-89027142D02*
X126555057Y-89027142D01*
X126555057Y-89027142D02*
X126555057Y-89241428D01*
X126555057Y-89241428D02*
X126597914Y-89369999D01*
X126597914Y-89369999D02*
X126683628Y-89455714D01*
X126683628Y-89455714D02*
X126769342Y-89498571D01*
X126769342Y-89498571D02*
X126940771Y-89541428D01*
X126940771Y-89541428D02*
X127069342Y-89541428D01*
X127069342Y-89541428D02*
X127240771Y-89498571D01*
X127240771Y-89498571D02*
X127326485Y-89455714D01*
X127326485Y-89455714D02*
X127412200Y-89369999D01*
X127412200Y-89369999D02*
X127455057Y-89241428D01*
X127455057Y-89241428D02*
X127455057Y-89027142D01*
X127197914Y-89884285D02*
X127197914Y-90312857D01*
X127455057Y-89798571D02*
X126555057Y-90098571D01*
X126555057Y-90098571D02*
X127455057Y-90398571D01*
X115753446Y-69354819D02*
X116086779Y-68878628D01*
X116324874Y-69354819D02*
X116324874Y-68354819D01*
X116324874Y-68354819D02*
X115943922Y-68354819D01*
X115943922Y-68354819D02*
X115848684Y-68402438D01*
X115848684Y-68402438D02*
X115801065Y-68450057D01*
X115801065Y-68450057D02*
X115753446Y-68545295D01*
X115753446Y-68545295D02*
X115753446Y-68688152D01*
X115753446Y-68688152D02*
X115801065Y-68783390D01*
X115801065Y-68783390D02*
X115848684Y-68831009D01*
X115848684Y-68831009D02*
X115943922Y-68878628D01*
X115943922Y-68878628D02*
X116324874Y-68878628D01*
X115372493Y-69307200D02*
X115229636Y-69354819D01*
X115229636Y-69354819D02*
X114991541Y-69354819D01*
X114991541Y-69354819D02*
X114896303Y-69307200D01*
X114896303Y-69307200D02*
X114848684Y-69259580D01*
X114848684Y-69259580D02*
X114801065Y-69164342D01*
X114801065Y-69164342D02*
X114801065Y-69069104D01*
X114801065Y-69069104D02*
X114848684Y-68973866D01*
X114848684Y-68973866D02*
X114896303Y-68926247D01*
X114896303Y-68926247D02*
X114991541Y-68878628D01*
X114991541Y-68878628D02*
X115182017Y-68831009D01*
X115182017Y-68831009D02*
X115277255Y-68783390D01*
X115277255Y-68783390D02*
X115324874Y-68735771D01*
X115324874Y-68735771D02*
X115372493Y-68640533D01*
X115372493Y-68640533D02*
X115372493Y-68545295D01*
X115372493Y-68545295D02*
X115324874Y-68450057D01*
X115324874Y-68450057D02*
X115277255Y-68402438D01*
X115277255Y-68402438D02*
X115182017Y-68354819D01*
X115182017Y-68354819D02*
X114943922Y-68354819D01*
X114943922Y-68354819D02*
X114801065Y-68402438D01*
X114515350Y-68354819D02*
X113943922Y-68354819D01*
X114229636Y-69354819D02*
X114229636Y-68354819D01*
X119441541Y-84259580D02*
X119489160Y-84307200D01*
X119489160Y-84307200D02*
X119632017Y-84354819D01*
X119632017Y-84354819D02*
X119727255Y-84354819D01*
X119727255Y-84354819D02*
X119870112Y-84307200D01*
X119870112Y-84307200D02*
X119965350Y-84211961D01*
X119965350Y-84211961D02*
X120012969Y-84116723D01*
X120012969Y-84116723D02*
X120060588Y-83926247D01*
X120060588Y-83926247D02*
X120060588Y-83783390D01*
X120060588Y-83783390D02*
X120012969Y-83592914D01*
X120012969Y-83592914D02*
X119965350Y-83497676D01*
X119965350Y-83497676D02*
X119870112Y-83402438D01*
X119870112Y-83402438D02*
X119727255Y-83354819D01*
X119727255Y-83354819D02*
X119632017Y-83354819D01*
X119632017Y-83354819D02*
X119489160Y-83402438D01*
X119489160Y-83402438D02*
X119441541Y-83450057D01*
X119060588Y-84069104D02*
X118584398Y-84069104D01*
X119155826Y-84354819D02*
X118822493Y-83354819D01*
X118822493Y-83354819D02*
X118489160Y-84354819D01*
X118155826Y-84354819D02*
X118155826Y-83354819D01*
X118155826Y-83354819D02*
X117584398Y-84354819D01*
X117584398Y-84354819D02*
X117584398Y-83354819D01*
X117108207Y-84354819D02*
X117108207Y-83354819D01*
X117108207Y-83831009D02*
X116536779Y-83831009D01*
X116536779Y-84354819D02*
X116536779Y-83354819D01*
X127274104Y-80885714D02*
X127274104Y-81361904D01*
X127559819Y-80790476D02*
X126559819Y-81123809D01*
X126559819Y-81123809D02*
X127559819Y-81457142D01*
X127559819Y-82314285D02*
X127559819Y-81742857D01*
X127559819Y-82028571D02*
X126559819Y-82028571D01*
X126559819Y-82028571D02*
X126702676Y-81933333D01*
X126702676Y-81933333D02*
X126797914Y-81838095D01*
X126797914Y-81838095D02*
X126845533Y-81742857D01*
X127036009Y-93895238D02*
X127083628Y-94038095D01*
X127083628Y-94038095D02*
X127131247Y-94085714D01*
X127131247Y-94085714D02*
X127226485Y-94133333D01*
X127226485Y-94133333D02*
X127369342Y-94133333D01*
X127369342Y-94133333D02*
X127464580Y-94085714D01*
X127464580Y-94085714D02*
X127512200Y-94038095D01*
X127512200Y-94038095D02*
X127559819Y-93942857D01*
X127559819Y-93942857D02*
X127559819Y-93561905D01*
X127559819Y-93561905D02*
X126559819Y-93561905D01*
X126559819Y-93561905D02*
X126559819Y-93895238D01*
X126559819Y-93895238D02*
X126607438Y-93990476D01*
X126607438Y-93990476D02*
X126655057Y-94038095D01*
X126655057Y-94038095D02*
X126750295Y-94085714D01*
X126750295Y-94085714D02*
X126845533Y-94085714D01*
X126845533Y-94085714D02*
X126940771Y-94038095D01*
X126940771Y-94038095D02*
X126988390Y-93990476D01*
X126988390Y-93990476D02*
X127036009Y-93895238D01*
X127036009Y-93895238D02*
X127036009Y-93561905D01*
X127559819Y-95085714D02*
X127559819Y-94514286D01*
X127559819Y-94800000D02*
X126559819Y-94800000D01*
X126559819Y-94800000D02*
X126702676Y-94704762D01*
X126702676Y-94704762D02*
X126797914Y-94609524D01*
X126797914Y-94609524D02*
X126845533Y-94514286D01*
X127274104Y-65645714D02*
X127274104Y-66121904D01*
X127559819Y-65550476D02*
X126559819Y-65883809D01*
X126559819Y-65883809D02*
X127559819Y-66217142D01*
X126559819Y-66455238D02*
X126559819Y-67121904D01*
X126559819Y-67121904D02*
X127559819Y-66693333D01*
X126607438Y-106238095D02*
X126559819Y-106142857D01*
X126559819Y-106142857D02*
X126559819Y-106000000D01*
X126559819Y-106000000D02*
X126607438Y-105857143D01*
X126607438Y-105857143D02*
X126702676Y-105761905D01*
X126702676Y-105761905D02*
X126797914Y-105714286D01*
X126797914Y-105714286D02*
X126988390Y-105666667D01*
X126988390Y-105666667D02*
X127131247Y-105666667D01*
X127131247Y-105666667D02*
X127321723Y-105714286D01*
X127321723Y-105714286D02*
X127416961Y-105761905D01*
X127416961Y-105761905D02*
X127512200Y-105857143D01*
X127512200Y-105857143D02*
X127559819Y-106000000D01*
X127559819Y-106000000D02*
X127559819Y-106095238D01*
X127559819Y-106095238D02*
X127512200Y-106238095D01*
X127512200Y-106238095D02*
X127464580Y-106285714D01*
X127464580Y-106285714D02*
X127131247Y-106285714D01*
X127131247Y-106285714D02*
X127131247Y-106095238D01*
X127559819Y-106714286D02*
X126559819Y-106714286D01*
X126559819Y-106714286D02*
X127559819Y-107285714D01*
X127559819Y-107285714D02*
X126559819Y-107285714D01*
X127559819Y-107761905D02*
X126559819Y-107761905D01*
X126559819Y-107761905D02*
X126559819Y-108000000D01*
X126559819Y-108000000D02*
X126607438Y-108142857D01*
X126607438Y-108142857D02*
X126702676Y-108238095D01*
X126702676Y-108238095D02*
X126797914Y-108285714D01*
X126797914Y-108285714D02*
X126988390Y-108333333D01*
X126988390Y-108333333D02*
X127131247Y-108333333D01*
X127131247Y-108333333D02*
X127321723Y-108285714D01*
X127321723Y-108285714D02*
X127416961Y-108238095D01*
X127416961Y-108238095D02*
X127512200Y-108142857D01*
X127512200Y-108142857D02*
X127559819Y-108000000D01*
X127559819Y-108000000D02*
X127559819Y-107761905D01*
X127274104Y-75805714D02*
X127274104Y-76281904D01*
X127559819Y-75710476D02*
X126559819Y-76043809D01*
X126559819Y-76043809D02*
X127559819Y-76377142D01*
X126559819Y-76615238D02*
X126559819Y-77234285D01*
X126559819Y-77234285D02*
X126940771Y-76900952D01*
X126940771Y-76900952D02*
X126940771Y-77043809D01*
X126940771Y-77043809D02*
X126988390Y-77139047D01*
X126988390Y-77139047D02*
X127036009Y-77186666D01*
X127036009Y-77186666D02*
X127131247Y-77234285D01*
X127131247Y-77234285D02*
X127369342Y-77234285D01*
X127369342Y-77234285D02*
X127464580Y-77186666D01*
X127464580Y-77186666D02*
X127512200Y-77139047D01*
X127512200Y-77139047D02*
X127559819Y-77043809D01*
X127559819Y-77043809D02*
X127559819Y-76758095D01*
X127559819Y-76758095D02*
X127512200Y-76662857D01*
X127512200Y-76662857D02*
X127464580Y-76615238D01*
X127274104Y-73265714D02*
X127274104Y-73741904D01*
X127559819Y-73170476D02*
X126559819Y-73503809D01*
X126559819Y-73503809D02*
X127559819Y-73837142D01*
X126893152Y-74599047D02*
X127559819Y-74599047D01*
X126512200Y-74360952D02*
X127226485Y-74122857D01*
X127226485Y-74122857D02*
X127226485Y-74741904D01*
M02*
