%TF.GenerationSoftware,KiCad,Pcbnew,8.0.3*%
%TF.CreationDate,2024-06-13T00:50:03+02:00*%
%TF.ProjectId,can-proto,63616e2d-7072-46f7-946f-2e6b69636164,1*%
%TF.SameCoordinates,Original*%
%TF.FileFunction,Drillmap*%
%TF.FilePolarity,Positive*%
%FSLAX45Y45*%
G04 Gerber Fmt 4.5, Leading zero omitted, Abs format (unit mm)*
G04 Created by KiCad (PCBNEW 8.0.3) date 2024-06-13 00:50:03*
%MOMM*%
%LPD*%
G01*
G04 APERTURE LIST*
%ADD10C,0.050000*%
%ADD11C,0.200000*%
%ADD12C,0.100000*%
%ADD13C,0.160000*%
G04 APERTURE END LIST*
D10*
X15700000Y-6000000D02*
G75*
G02*
X16000000Y-6300000I0J-300000D01*
G01*
X11000000Y-6300000D02*
X11000000Y-10700000D01*
X11300000Y-11000000D02*
G75*
G02*
X11000000Y-10700000I0J300000D01*
G01*
X11000000Y-6300000D02*
G75*
G02*
X11300000Y-6000000I300000J0D01*
G01*
X15700000Y-6000000D02*
X11300000Y-6000000D01*
X11300000Y-11000000D02*
X15700000Y-11000000D01*
X16000000Y-10700000D02*
G75*
G02*
X15700000Y-11000000I-300000J0D01*
G01*
X16000000Y-10700000D02*
X16000000Y-6300000D01*
D11*
D12*
X11985000Y-7385000D02*
X12015000Y-7415000D01*
X12015000Y-7385000D02*
X11985000Y-7415000D01*
X11588146Y-7457500D02*
G75*
G02*
X11548146Y-7457500I-20000J0D01*
G01*
X11548146Y-7457500D02*
G75*
G02*
X11588146Y-7457500I20000J0D01*
G01*
X11660000Y-6780000D02*
G75*
G02*
X11620000Y-6780000I-20000J0D01*
G01*
X11620000Y-6780000D02*
G75*
G02*
X11660000Y-6780000I20000J0D01*
G01*
X11745000Y-10325800D02*
G75*
G02*
X11705000Y-10325800I-20000J0D01*
G01*
X11705000Y-10325800D02*
G75*
G02*
X11745000Y-10325800I20000J0D01*
G01*
X11745000Y-10775800D02*
G75*
G02*
X11705000Y-10775800I-20000J0D01*
G01*
X11705000Y-10775800D02*
G75*
G02*
X11745000Y-10775800I20000J0D01*
G01*
X11775000Y-7255000D02*
G75*
G02*
X11735000Y-7255000I-20000J0D01*
G01*
X11735000Y-7255000D02*
G75*
G02*
X11775000Y-7255000I20000J0D01*
G01*
X11945000Y-6650000D02*
G75*
G02*
X11905000Y-6650000I-20000J0D01*
G01*
X11905000Y-6650000D02*
G75*
G02*
X11945000Y-6650000I20000J0D01*
G01*
X11945000Y-9425000D02*
G75*
G02*
X11905000Y-9425000I-20000J0D01*
G01*
X11905000Y-9425000D02*
G75*
G02*
X11945000Y-9425000I20000J0D01*
G01*
X11970000Y-10325800D02*
G75*
G02*
X11930000Y-10325800I-20000J0D01*
G01*
X11930000Y-10325800D02*
G75*
G02*
X11970000Y-10325800I20000J0D01*
G01*
X11970000Y-10775800D02*
G75*
G02*
X11930000Y-10775800I-20000J0D01*
G01*
X11930000Y-10775800D02*
G75*
G02*
X11970000Y-10775800I20000J0D01*
G01*
X12011600Y-9772900D02*
G75*
G02*
X11971600Y-9772900I-20000J0D01*
G01*
X11971600Y-9772900D02*
G75*
G02*
X12011600Y-9772900I20000J0D01*
G01*
X12045000Y-6900000D02*
G75*
G02*
X12005000Y-6900000I-20000J0D01*
G01*
X12005000Y-6900000D02*
G75*
G02*
X12045000Y-6900000I20000J0D01*
G01*
X12070000Y-9425000D02*
G75*
G02*
X12030000Y-9425000I-20000J0D01*
G01*
X12030000Y-9425000D02*
G75*
G02*
X12070000Y-9425000I20000J0D01*
G01*
X12070000Y-9525000D02*
G75*
G02*
X12030000Y-9525000I-20000J0D01*
G01*
X12030000Y-9525000D02*
G75*
G02*
X12070000Y-9525000I20000J0D01*
G01*
X12180000Y-7930000D02*
G75*
G02*
X12140000Y-7930000I-20000J0D01*
G01*
X12140000Y-7930000D02*
G75*
G02*
X12180000Y-7930000I20000J0D01*
G01*
X12180000Y-8110000D02*
G75*
G02*
X12140000Y-8110000I-20000J0D01*
G01*
X12140000Y-8110000D02*
G75*
G02*
X12180000Y-8110000I20000J0D01*
G01*
X12195000Y-6750000D02*
G75*
G02*
X12155000Y-6750000I-20000J0D01*
G01*
X12155000Y-6750000D02*
G75*
G02*
X12195000Y-6750000I20000J0D01*
G01*
X12227523Y-7104928D02*
G75*
G02*
X12187523Y-7104928I-20000J0D01*
G01*
X12187523Y-7104928D02*
G75*
G02*
X12227523Y-7104928I20000J0D01*
G01*
X12240001Y-6990000D02*
G75*
G02*
X12200001Y-6990000I-20000J0D01*
G01*
X12200001Y-6990000D02*
G75*
G02*
X12240001Y-6990000I20000J0D01*
G01*
X12270000Y-7325000D02*
G75*
G02*
X12230000Y-7325000I-20000J0D01*
G01*
X12230000Y-7325000D02*
G75*
G02*
X12270000Y-7325000I20000J0D01*
G01*
X12291000Y-9772900D02*
G75*
G02*
X12251000Y-9772900I-20000J0D01*
G01*
X12251000Y-9772900D02*
G75*
G02*
X12291000Y-9772900I20000J0D01*
G01*
X12305000Y-9016250D02*
G75*
G02*
X12265000Y-9016250I-20000J0D01*
G01*
X12265000Y-9016250D02*
G75*
G02*
X12305000Y-9016250I20000J0D01*
G01*
X12370000Y-7325000D02*
G75*
G02*
X12330000Y-7325000I-20000J0D01*
G01*
X12330000Y-7325000D02*
G75*
G02*
X12370000Y-7325000I20000J0D01*
G01*
X12490000Y-8535000D02*
G75*
G02*
X12450000Y-8535000I-20000J0D01*
G01*
X12450000Y-8535000D02*
G75*
G02*
X12490000Y-8535000I20000J0D01*
G01*
X12490000Y-8885000D02*
G75*
G02*
X12450000Y-8885000I-20000J0D01*
G01*
X12450000Y-8885000D02*
G75*
G02*
X12490000Y-8885000I20000J0D01*
G01*
X12490000Y-9035000D02*
G75*
G02*
X12450000Y-9035000I-20000J0D01*
G01*
X12450000Y-9035000D02*
G75*
G02*
X12490000Y-9035000I20000J0D01*
G01*
X11900160Y-8475360D02*
X11900160Y-8525360D01*
X11875160Y-8500360D02*
X11925160Y-8500360D01*
X11953500Y-8262000D02*
X11953500Y-8312000D01*
X11928500Y-8287000D02*
X11978500Y-8287000D01*
X12169400Y-8338200D02*
X12169400Y-8388200D01*
X12144400Y-8363200D02*
X12194400Y-8363200D01*
X11347981Y-6782981D02*
X11347981Y-6737019D01*
X11302019Y-6737019D01*
X11302019Y-6782981D01*
X11347981Y-6782981D01*
X11347981Y-6909981D02*
X11347981Y-6864019D01*
X11302019Y-6864019D01*
X11302019Y-6909981D01*
X11347981Y-6909981D01*
X11347981Y-7036981D02*
X11347981Y-6991019D01*
X11302019Y-6991019D01*
X11302019Y-7036981D01*
X11347981Y-7036981D01*
X11347981Y-7163981D02*
X11347981Y-7118019D01*
X11302019Y-7118019D01*
X11302019Y-7163981D01*
X11347981Y-7163981D01*
X12906000Y-6422000D02*
X12946000Y-6382000D01*
X12906000Y-6342000D01*
X12866000Y-6382000D01*
X12906000Y-6422000D01*
X12906000Y-6676000D02*
X12946000Y-6636000D01*
X12906000Y-6596000D01*
X12866000Y-6636000D01*
X12906000Y-6676000D01*
X12906000Y-6930000D02*
X12946000Y-6890000D01*
X12906000Y-6850000D01*
X12866000Y-6890000D01*
X12906000Y-6930000D01*
X12906000Y-7184000D02*
X12946000Y-7144000D01*
X12906000Y-7104000D01*
X12866000Y-7144000D01*
X12906000Y-7184000D01*
X12906000Y-7438000D02*
X12946000Y-7398000D01*
X12906000Y-7358000D01*
X12866000Y-7398000D01*
X12906000Y-7438000D01*
X12906000Y-7692000D02*
X12946000Y-7652000D01*
X12906000Y-7612000D01*
X12866000Y-7652000D01*
X12906000Y-7692000D01*
X12906000Y-7946000D02*
X12946000Y-7906000D01*
X12906000Y-7866000D01*
X12866000Y-7906000D01*
X12906000Y-7946000D01*
X12906000Y-8200000D02*
X12946000Y-8160000D01*
X12906000Y-8120000D01*
X12866000Y-8160000D01*
X12906000Y-8200000D01*
X12906000Y-8454000D02*
X12946000Y-8414000D01*
X12906000Y-8374000D01*
X12866000Y-8414000D01*
X12906000Y-8454000D01*
X12906000Y-8708000D02*
X12946000Y-8668000D01*
X12906000Y-8628000D01*
X12866000Y-8668000D01*
X12906000Y-8708000D01*
X12906000Y-8962000D02*
X12946000Y-8922000D01*
X12906000Y-8882000D01*
X12866000Y-8922000D01*
X12906000Y-8962000D01*
X12906000Y-9216000D02*
X12946000Y-9176000D01*
X12906000Y-9136000D01*
X12866000Y-9176000D01*
X12906000Y-9216000D01*
X12906000Y-9470000D02*
X12946000Y-9430000D01*
X12906000Y-9390000D01*
X12866000Y-9430000D01*
X12906000Y-9470000D01*
X12906000Y-9724000D02*
X12946000Y-9684000D01*
X12906000Y-9644000D01*
X12866000Y-9684000D01*
X12906000Y-9724000D01*
X12906000Y-9978000D02*
X12946000Y-9938000D01*
X12906000Y-9898000D01*
X12866000Y-9938000D01*
X12906000Y-9978000D01*
X12906000Y-10232000D02*
X12946000Y-10192000D01*
X12906000Y-10152000D01*
X12866000Y-10192000D01*
X12906000Y-10232000D01*
X12906000Y-10486000D02*
X12946000Y-10446000D01*
X12906000Y-10406000D01*
X12866000Y-10446000D01*
X12906000Y-10486000D01*
X12906000Y-10740000D02*
X12946000Y-10700000D01*
X12906000Y-10660000D01*
X12866000Y-10700000D01*
X12906000Y-10740000D01*
X13160000Y-6422000D02*
X13200000Y-6382000D01*
X13160000Y-6342000D01*
X13120000Y-6382000D01*
X13160000Y-6422000D01*
X13160000Y-6676000D02*
X13200000Y-6636000D01*
X13160000Y-6596000D01*
X13120000Y-6636000D01*
X13160000Y-6676000D01*
X13160000Y-6930000D02*
X13200000Y-6890000D01*
X13160000Y-6850000D01*
X13120000Y-6890000D01*
X13160000Y-6930000D01*
X13160000Y-7184000D02*
X13200000Y-7144000D01*
X13160000Y-7104000D01*
X13120000Y-7144000D01*
X13160000Y-7184000D01*
X13160000Y-7438000D02*
X13200000Y-7398000D01*
X13160000Y-7358000D01*
X13120000Y-7398000D01*
X13160000Y-7438000D01*
X13160000Y-7692000D02*
X13200000Y-7652000D01*
X13160000Y-7612000D01*
X13120000Y-7652000D01*
X13160000Y-7692000D01*
X13160000Y-7946000D02*
X13200000Y-7906000D01*
X13160000Y-7866000D01*
X13120000Y-7906000D01*
X13160000Y-7946000D01*
X13160000Y-8200000D02*
X13200000Y-8160000D01*
X13160000Y-8120000D01*
X13120000Y-8160000D01*
X13160000Y-8200000D01*
X13160000Y-8454000D02*
X13200000Y-8414000D01*
X13160000Y-8374000D01*
X13120000Y-8414000D01*
X13160000Y-8454000D01*
X13160000Y-8708000D02*
X13200000Y-8668000D01*
X13160000Y-8628000D01*
X13120000Y-8668000D01*
X13160000Y-8708000D01*
X13160000Y-8962000D02*
X13200000Y-8922000D01*
X13160000Y-8882000D01*
X13120000Y-8922000D01*
X13160000Y-8962000D01*
X13160000Y-9216000D02*
X13200000Y-9176000D01*
X13160000Y-9136000D01*
X13120000Y-9176000D01*
X13160000Y-9216000D01*
X13160000Y-9470000D02*
X13200000Y-9430000D01*
X13160000Y-9390000D01*
X13120000Y-9430000D01*
X13160000Y-9470000D01*
X13160000Y-9724000D02*
X13200000Y-9684000D01*
X13160000Y-9644000D01*
X13120000Y-9684000D01*
X13160000Y-9724000D01*
X13160000Y-9978000D02*
X13200000Y-9938000D01*
X13160000Y-9898000D01*
X13120000Y-9938000D01*
X13160000Y-9978000D01*
X13160000Y-10232000D02*
X13200000Y-10192000D01*
X13160000Y-10152000D01*
X13120000Y-10192000D01*
X13160000Y-10232000D01*
X13160000Y-10486000D02*
X13200000Y-10446000D01*
X13160000Y-10406000D01*
X13120000Y-10446000D01*
X13160000Y-10486000D01*
X13160000Y-10740000D02*
X13200000Y-10700000D01*
X13160000Y-10660000D01*
X13120000Y-10700000D01*
X13160000Y-10740000D01*
X13414000Y-6422000D02*
X13454000Y-6382000D01*
X13414000Y-6342000D01*
X13374000Y-6382000D01*
X13414000Y-6422000D01*
X13414000Y-6676000D02*
X13454000Y-6636000D01*
X13414000Y-6596000D01*
X13374000Y-6636000D01*
X13414000Y-6676000D01*
X13414000Y-6930000D02*
X13454000Y-6890000D01*
X13414000Y-6850000D01*
X13374000Y-6890000D01*
X13414000Y-6930000D01*
X13414000Y-7184000D02*
X13454000Y-7144000D01*
X13414000Y-7104000D01*
X13374000Y-7144000D01*
X13414000Y-7184000D01*
X13414000Y-7438000D02*
X13454000Y-7398000D01*
X13414000Y-7358000D01*
X13374000Y-7398000D01*
X13414000Y-7438000D01*
X13414000Y-7692000D02*
X13454000Y-7652000D01*
X13414000Y-7612000D01*
X13374000Y-7652000D01*
X13414000Y-7692000D01*
X13414000Y-7946000D02*
X13454000Y-7906000D01*
X13414000Y-7866000D01*
X13374000Y-7906000D01*
X13414000Y-7946000D01*
X13414000Y-8200000D02*
X13454000Y-8160000D01*
X13414000Y-8120000D01*
X13374000Y-8160000D01*
X13414000Y-8200000D01*
X13414000Y-8454000D02*
X13454000Y-8414000D01*
X13414000Y-8374000D01*
X13374000Y-8414000D01*
X13414000Y-8454000D01*
X13414000Y-8708000D02*
X13454000Y-8668000D01*
X13414000Y-8628000D01*
X13374000Y-8668000D01*
X13414000Y-8708000D01*
X13414000Y-8962000D02*
X13454000Y-8922000D01*
X13414000Y-8882000D01*
X13374000Y-8922000D01*
X13414000Y-8962000D01*
X13414000Y-9216000D02*
X13454000Y-9176000D01*
X13414000Y-9136000D01*
X13374000Y-9176000D01*
X13414000Y-9216000D01*
X13414000Y-9470000D02*
X13454000Y-9430000D01*
X13414000Y-9390000D01*
X13374000Y-9430000D01*
X13414000Y-9470000D01*
X13414000Y-9724000D02*
X13454000Y-9684000D01*
X13414000Y-9644000D01*
X13374000Y-9684000D01*
X13414000Y-9724000D01*
X13414000Y-9978000D02*
X13454000Y-9938000D01*
X13414000Y-9898000D01*
X13374000Y-9938000D01*
X13414000Y-9978000D01*
X13414000Y-10232000D02*
X13454000Y-10192000D01*
X13414000Y-10152000D01*
X13374000Y-10192000D01*
X13414000Y-10232000D01*
X13414000Y-10486000D02*
X13454000Y-10446000D01*
X13414000Y-10406000D01*
X13374000Y-10446000D01*
X13414000Y-10486000D01*
X13414000Y-10740000D02*
X13454000Y-10700000D01*
X13414000Y-10660000D01*
X13374000Y-10700000D01*
X13414000Y-10740000D01*
X13668000Y-6422000D02*
X13708000Y-6382000D01*
X13668000Y-6342000D01*
X13628000Y-6382000D01*
X13668000Y-6422000D01*
X13668000Y-6676000D02*
X13708000Y-6636000D01*
X13668000Y-6596000D01*
X13628000Y-6636000D01*
X13668000Y-6676000D01*
X13668000Y-6930000D02*
X13708000Y-6890000D01*
X13668000Y-6850000D01*
X13628000Y-6890000D01*
X13668000Y-6930000D01*
X13668000Y-7184000D02*
X13708000Y-7144000D01*
X13668000Y-7104000D01*
X13628000Y-7144000D01*
X13668000Y-7184000D01*
X13668000Y-7438000D02*
X13708000Y-7398000D01*
X13668000Y-7358000D01*
X13628000Y-7398000D01*
X13668000Y-7438000D01*
X13668000Y-7692000D02*
X13708000Y-7652000D01*
X13668000Y-7612000D01*
X13628000Y-7652000D01*
X13668000Y-7692000D01*
X13668000Y-7946000D02*
X13708000Y-7906000D01*
X13668000Y-7866000D01*
X13628000Y-7906000D01*
X13668000Y-7946000D01*
X13668000Y-8200000D02*
X13708000Y-8160000D01*
X13668000Y-8120000D01*
X13628000Y-8160000D01*
X13668000Y-8200000D01*
X13668000Y-8454000D02*
X13708000Y-8414000D01*
X13668000Y-8374000D01*
X13628000Y-8414000D01*
X13668000Y-8454000D01*
X13668000Y-8708000D02*
X13708000Y-8668000D01*
X13668000Y-8628000D01*
X13628000Y-8668000D01*
X13668000Y-8708000D01*
X13668000Y-8962000D02*
X13708000Y-8922000D01*
X13668000Y-8882000D01*
X13628000Y-8922000D01*
X13668000Y-8962000D01*
X13668000Y-9216000D02*
X13708000Y-9176000D01*
X13668000Y-9136000D01*
X13628000Y-9176000D01*
X13668000Y-9216000D01*
X13668000Y-9470000D02*
X13708000Y-9430000D01*
X13668000Y-9390000D01*
X13628000Y-9430000D01*
X13668000Y-9470000D01*
X13668000Y-9724000D02*
X13708000Y-9684000D01*
X13668000Y-9644000D01*
X13628000Y-9684000D01*
X13668000Y-9724000D01*
X13668000Y-9978000D02*
X13708000Y-9938000D01*
X13668000Y-9898000D01*
X13628000Y-9938000D01*
X13668000Y-9978000D01*
X13668000Y-10232000D02*
X13708000Y-10192000D01*
X13668000Y-10152000D01*
X13628000Y-10192000D01*
X13668000Y-10232000D01*
X13668000Y-10486000D02*
X13708000Y-10446000D01*
X13668000Y-10406000D01*
X13628000Y-10446000D01*
X13668000Y-10486000D01*
X13668000Y-10740000D02*
X13708000Y-10700000D01*
X13668000Y-10660000D01*
X13628000Y-10700000D01*
X13668000Y-10740000D01*
X13922000Y-6422000D02*
X13962000Y-6382000D01*
X13922000Y-6342000D01*
X13882000Y-6382000D01*
X13922000Y-6422000D01*
X13922000Y-6676000D02*
X13962000Y-6636000D01*
X13922000Y-6596000D01*
X13882000Y-6636000D01*
X13922000Y-6676000D01*
X13922000Y-6930000D02*
X13962000Y-6890000D01*
X13922000Y-6850000D01*
X13882000Y-6890000D01*
X13922000Y-6930000D01*
X13922000Y-7184000D02*
X13962000Y-7144000D01*
X13922000Y-7104000D01*
X13882000Y-7144000D01*
X13922000Y-7184000D01*
X13922000Y-7438000D02*
X13962000Y-7398000D01*
X13922000Y-7358000D01*
X13882000Y-7398000D01*
X13922000Y-7438000D01*
X13922000Y-7692000D02*
X13962000Y-7652000D01*
X13922000Y-7612000D01*
X13882000Y-7652000D01*
X13922000Y-7692000D01*
X13922000Y-7946000D02*
X13962000Y-7906000D01*
X13922000Y-7866000D01*
X13882000Y-7906000D01*
X13922000Y-7946000D01*
X13922000Y-8200000D02*
X13962000Y-8160000D01*
X13922000Y-8120000D01*
X13882000Y-8160000D01*
X13922000Y-8200000D01*
X13922000Y-8454000D02*
X13962000Y-8414000D01*
X13922000Y-8374000D01*
X13882000Y-8414000D01*
X13922000Y-8454000D01*
X13922000Y-8708000D02*
X13962000Y-8668000D01*
X13922000Y-8628000D01*
X13882000Y-8668000D01*
X13922000Y-8708000D01*
X13922000Y-8962000D02*
X13962000Y-8922000D01*
X13922000Y-8882000D01*
X13882000Y-8922000D01*
X13922000Y-8962000D01*
X13922000Y-9216000D02*
X13962000Y-9176000D01*
X13922000Y-9136000D01*
X13882000Y-9176000D01*
X13922000Y-9216000D01*
X13922000Y-9470000D02*
X13962000Y-9430000D01*
X13922000Y-9390000D01*
X13882000Y-9430000D01*
X13922000Y-9470000D01*
X13922000Y-9724000D02*
X13962000Y-9684000D01*
X13922000Y-9644000D01*
X13882000Y-9684000D01*
X13922000Y-9724000D01*
X13922000Y-9978000D02*
X13962000Y-9938000D01*
X13922000Y-9898000D01*
X13882000Y-9938000D01*
X13922000Y-9978000D01*
X13922000Y-10232000D02*
X13962000Y-10192000D01*
X13922000Y-10152000D01*
X13882000Y-10192000D01*
X13922000Y-10232000D01*
X13922000Y-10486000D02*
X13962000Y-10446000D01*
X13922000Y-10406000D01*
X13882000Y-10446000D01*
X13922000Y-10486000D01*
X13922000Y-10740000D02*
X13962000Y-10700000D01*
X13922000Y-10660000D01*
X13882000Y-10700000D01*
X13922000Y-10740000D01*
X14176000Y-6422000D02*
X14216000Y-6382000D01*
X14176000Y-6342000D01*
X14136000Y-6382000D01*
X14176000Y-6422000D01*
X14176000Y-6676000D02*
X14216000Y-6636000D01*
X14176000Y-6596000D01*
X14136000Y-6636000D01*
X14176000Y-6676000D01*
X14176000Y-6930000D02*
X14216000Y-6890000D01*
X14176000Y-6850000D01*
X14136000Y-6890000D01*
X14176000Y-6930000D01*
X14176000Y-7184000D02*
X14216000Y-7144000D01*
X14176000Y-7104000D01*
X14136000Y-7144000D01*
X14176000Y-7184000D01*
X14176000Y-7438000D02*
X14216000Y-7398000D01*
X14176000Y-7358000D01*
X14136000Y-7398000D01*
X14176000Y-7438000D01*
X14176000Y-7692000D02*
X14216000Y-7652000D01*
X14176000Y-7612000D01*
X14136000Y-7652000D01*
X14176000Y-7692000D01*
X14176000Y-7946000D02*
X14216000Y-7906000D01*
X14176000Y-7866000D01*
X14136000Y-7906000D01*
X14176000Y-7946000D01*
X14176000Y-8200000D02*
X14216000Y-8160000D01*
X14176000Y-8120000D01*
X14136000Y-8160000D01*
X14176000Y-8200000D01*
X14176000Y-8454000D02*
X14216000Y-8414000D01*
X14176000Y-8374000D01*
X14136000Y-8414000D01*
X14176000Y-8454000D01*
X14176000Y-8708000D02*
X14216000Y-8668000D01*
X14176000Y-8628000D01*
X14136000Y-8668000D01*
X14176000Y-8708000D01*
X14176000Y-8962000D02*
X14216000Y-8922000D01*
X14176000Y-8882000D01*
X14136000Y-8922000D01*
X14176000Y-8962000D01*
X14176000Y-9216000D02*
X14216000Y-9176000D01*
X14176000Y-9136000D01*
X14136000Y-9176000D01*
X14176000Y-9216000D01*
X14176000Y-9470000D02*
X14216000Y-9430000D01*
X14176000Y-9390000D01*
X14136000Y-9430000D01*
X14176000Y-9470000D01*
X14176000Y-9724000D02*
X14216000Y-9684000D01*
X14176000Y-9644000D01*
X14136000Y-9684000D01*
X14176000Y-9724000D01*
X14176000Y-9978000D02*
X14216000Y-9938000D01*
X14176000Y-9898000D01*
X14136000Y-9938000D01*
X14176000Y-9978000D01*
X14176000Y-10232000D02*
X14216000Y-10192000D01*
X14176000Y-10152000D01*
X14136000Y-10192000D01*
X14176000Y-10232000D01*
X14176000Y-10486000D02*
X14216000Y-10446000D01*
X14176000Y-10406000D01*
X14136000Y-10446000D01*
X14176000Y-10486000D01*
X14176000Y-10740000D02*
X14216000Y-10700000D01*
X14176000Y-10660000D01*
X14136000Y-10700000D01*
X14176000Y-10740000D01*
X14430000Y-6422000D02*
X14470000Y-6382000D01*
X14430000Y-6342000D01*
X14390000Y-6382000D01*
X14430000Y-6422000D01*
X14430000Y-6676000D02*
X14470000Y-6636000D01*
X14430000Y-6596000D01*
X14390000Y-6636000D01*
X14430000Y-6676000D01*
X14430000Y-6930000D02*
X14470000Y-6890000D01*
X14430000Y-6850000D01*
X14390000Y-6890000D01*
X14430000Y-6930000D01*
X14430000Y-7184000D02*
X14470000Y-7144000D01*
X14430000Y-7104000D01*
X14390000Y-7144000D01*
X14430000Y-7184000D01*
X14430000Y-7438000D02*
X14470000Y-7398000D01*
X14430000Y-7358000D01*
X14390000Y-7398000D01*
X14430000Y-7438000D01*
X14430000Y-7692000D02*
X14470000Y-7652000D01*
X14430000Y-7612000D01*
X14390000Y-7652000D01*
X14430000Y-7692000D01*
X14430000Y-7946000D02*
X14470000Y-7906000D01*
X14430000Y-7866000D01*
X14390000Y-7906000D01*
X14430000Y-7946000D01*
X14430000Y-8200000D02*
X14470000Y-8160000D01*
X14430000Y-8120000D01*
X14390000Y-8160000D01*
X14430000Y-8200000D01*
X14430000Y-8454000D02*
X14470000Y-8414000D01*
X14430000Y-8374000D01*
X14390000Y-8414000D01*
X14430000Y-8454000D01*
X14430000Y-8708000D02*
X14470000Y-8668000D01*
X14430000Y-8628000D01*
X14390000Y-8668000D01*
X14430000Y-8708000D01*
X14430000Y-8962000D02*
X14470000Y-8922000D01*
X14430000Y-8882000D01*
X14390000Y-8922000D01*
X14430000Y-8962000D01*
X14430000Y-9216000D02*
X14470000Y-9176000D01*
X14430000Y-9136000D01*
X14390000Y-9176000D01*
X14430000Y-9216000D01*
X14430000Y-9470000D02*
X14470000Y-9430000D01*
X14430000Y-9390000D01*
X14390000Y-9430000D01*
X14430000Y-9470000D01*
X14430000Y-9724000D02*
X14470000Y-9684000D01*
X14430000Y-9644000D01*
X14390000Y-9684000D01*
X14430000Y-9724000D01*
X14430000Y-9978000D02*
X14470000Y-9938000D01*
X14430000Y-9898000D01*
X14390000Y-9938000D01*
X14430000Y-9978000D01*
X14430000Y-10232000D02*
X14470000Y-10192000D01*
X14430000Y-10152000D01*
X14390000Y-10192000D01*
X14430000Y-10232000D01*
X14430000Y-10486000D02*
X14470000Y-10446000D01*
X14430000Y-10406000D01*
X14390000Y-10446000D01*
X14430000Y-10486000D01*
X14430000Y-10740000D02*
X14470000Y-10700000D01*
X14430000Y-10660000D01*
X14390000Y-10700000D01*
X14430000Y-10740000D01*
X14684000Y-6422000D02*
X14724000Y-6382000D01*
X14684000Y-6342000D01*
X14644000Y-6382000D01*
X14684000Y-6422000D01*
X14684000Y-6676000D02*
X14724000Y-6636000D01*
X14684000Y-6596000D01*
X14644000Y-6636000D01*
X14684000Y-6676000D01*
X14684000Y-6930000D02*
X14724000Y-6890000D01*
X14684000Y-6850000D01*
X14644000Y-6890000D01*
X14684000Y-6930000D01*
X14684000Y-7184000D02*
X14724000Y-7144000D01*
X14684000Y-7104000D01*
X14644000Y-7144000D01*
X14684000Y-7184000D01*
X14684000Y-7438000D02*
X14724000Y-7398000D01*
X14684000Y-7358000D01*
X14644000Y-7398000D01*
X14684000Y-7438000D01*
X14684000Y-7692000D02*
X14724000Y-7652000D01*
X14684000Y-7612000D01*
X14644000Y-7652000D01*
X14684000Y-7692000D01*
X14684000Y-7946000D02*
X14724000Y-7906000D01*
X14684000Y-7866000D01*
X14644000Y-7906000D01*
X14684000Y-7946000D01*
X14684000Y-8200000D02*
X14724000Y-8160000D01*
X14684000Y-8120000D01*
X14644000Y-8160000D01*
X14684000Y-8200000D01*
X14684000Y-8454000D02*
X14724000Y-8414000D01*
X14684000Y-8374000D01*
X14644000Y-8414000D01*
X14684000Y-8454000D01*
X14684000Y-8708000D02*
X14724000Y-8668000D01*
X14684000Y-8628000D01*
X14644000Y-8668000D01*
X14684000Y-8708000D01*
X14684000Y-8962000D02*
X14724000Y-8922000D01*
X14684000Y-8882000D01*
X14644000Y-8922000D01*
X14684000Y-8962000D01*
X14684000Y-9216000D02*
X14724000Y-9176000D01*
X14684000Y-9136000D01*
X14644000Y-9176000D01*
X14684000Y-9216000D01*
X14684000Y-9470000D02*
X14724000Y-9430000D01*
X14684000Y-9390000D01*
X14644000Y-9430000D01*
X14684000Y-9470000D01*
X14684000Y-9724000D02*
X14724000Y-9684000D01*
X14684000Y-9644000D01*
X14644000Y-9684000D01*
X14684000Y-9724000D01*
X14684000Y-9978000D02*
X14724000Y-9938000D01*
X14684000Y-9898000D01*
X14644000Y-9938000D01*
X14684000Y-9978000D01*
X14684000Y-10232000D02*
X14724000Y-10192000D01*
X14684000Y-10152000D01*
X14644000Y-10192000D01*
X14684000Y-10232000D01*
X14684000Y-10486000D02*
X14724000Y-10446000D01*
X14684000Y-10406000D01*
X14644000Y-10446000D01*
X14684000Y-10486000D01*
X14684000Y-10740000D02*
X14724000Y-10700000D01*
X14684000Y-10660000D01*
X14644000Y-10700000D01*
X14684000Y-10740000D01*
X14938000Y-6422000D02*
X14978000Y-6382000D01*
X14938000Y-6342000D01*
X14898000Y-6382000D01*
X14938000Y-6422000D01*
X14938000Y-6676000D02*
X14978000Y-6636000D01*
X14938000Y-6596000D01*
X14898000Y-6636000D01*
X14938000Y-6676000D01*
X14938000Y-6930000D02*
X14978000Y-6890000D01*
X14938000Y-6850000D01*
X14898000Y-6890000D01*
X14938000Y-6930000D01*
X14938000Y-7184000D02*
X14978000Y-7144000D01*
X14938000Y-7104000D01*
X14898000Y-7144000D01*
X14938000Y-7184000D01*
X14938000Y-7438000D02*
X14978000Y-7398000D01*
X14938000Y-7358000D01*
X14898000Y-7398000D01*
X14938000Y-7438000D01*
X14938000Y-7692000D02*
X14978000Y-7652000D01*
X14938000Y-7612000D01*
X14898000Y-7652000D01*
X14938000Y-7692000D01*
X14938000Y-7946000D02*
X14978000Y-7906000D01*
X14938000Y-7866000D01*
X14898000Y-7906000D01*
X14938000Y-7946000D01*
X14938000Y-8200000D02*
X14978000Y-8160000D01*
X14938000Y-8120000D01*
X14898000Y-8160000D01*
X14938000Y-8200000D01*
X14938000Y-8454000D02*
X14978000Y-8414000D01*
X14938000Y-8374000D01*
X14898000Y-8414000D01*
X14938000Y-8454000D01*
X14938000Y-8708000D02*
X14978000Y-8668000D01*
X14938000Y-8628000D01*
X14898000Y-8668000D01*
X14938000Y-8708000D01*
X14938000Y-8962000D02*
X14978000Y-8922000D01*
X14938000Y-8882000D01*
X14898000Y-8922000D01*
X14938000Y-8962000D01*
X14938000Y-9216000D02*
X14978000Y-9176000D01*
X14938000Y-9136000D01*
X14898000Y-9176000D01*
X14938000Y-9216000D01*
X14938000Y-9470000D02*
X14978000Y-9430000D01*
X14938000Y-9390000D01*
X14898000Y-9430000D01*
X14938000Y-9470000D01*
X14938000Y-9724000D02*
X14978000Y-9684000D01*
X14938000Y-9644000D01*
X14898000Y-9684000D01*
X14938000Y-9724000D01*
X14938000Y-9978000D02*
X14978000Y-9938000D01*
X14938000Y-9898000D01*
X14898000Y-9938000D01*
X14938000Y-9978000D01*
X14938000Y-10232000D02*
X14978000Y-10192000D01*
X14938000Y-10152000D01*
X14898000Y-10192000D01*
X14938000Y-10232000D01*
X14938000Y-10486000D02*
X14978000Y-10446000D01*
X14938000Y-10406000D01*
X14898000Y-10446000D01*
X14938000Y-10486000D01*
X14938000Y-10740000D02*
X14978000Y-10700000D01*
X14938000Y-10660000D01*
X14898000Y-10700000D01*
X14938000Y-10740000D01*
X15192000Y-6422000D02*
X15232000Y-6382000D01*
X15192000Y-6342000D01*
X15152000Y-6382000D01*
X15192000Y-6422000D01*
X15192000Y-6676000D02*
X15232000Y-6636000D01*
X15192000Y-6596000D01*
X15152000Y-6636000D01*
X15192000Y-6676000D01*
X15192000Y-6930000D02*
X15232000Y-6890000D01*
X15192000Y-6850000D01*
X15152000Y-6890000D01*
X15192000Y-6930000D01*
X15192000Y-7184000D02*
X15232000Y-7144000D01*
X15192000Y-7104000D01*
X15152000Y-7144000D01*
X15192000Y-7184000D01*
X15192000Y-7438000D02*
X15232000Y-7398000D01*
X15192000Y-7358000D01*
X15152000Y-7398000D01*
X15192000Y-7438000D01*
X15192000Y-7692000D02*
X15232000Y-7652000D01*
X15192000Y-7612000D01*
X15152000Y-7652000D01*
X15192000Y-7692000D01*
X15192000Y-7946000D02*
X15232000Y-7906000D01*
X15192000Y-7866000D01*
X15152000Y-7906000D01*
X15192000Y-7946000D01*
X15192000Y-8200000D02*
X15232000Y-8160000D01*
X15192000Y-8120000D01*
X15152000Y-8160000D01*
X15192000Y-8200000D01*
X15192000Y-8454000D02*
X15232000Y-8414000D01*
X15192000Y-8374000D01*
X15152000Y-8414000D01*
X15192000Y-8454000D01*
X15192000Y-8708000D02*
X15232000Y-8668000D01*
X15192000Y-8628000D01*
X15152000Y-8668000D01*
X15192000Y-8708000D01*
X15192000Y-8962000D02*
X15232000Y-8922000D01*
X15192000Y-8882000D01*
X15152000Y-8922000D01*
X15192000Y-8962000D01*
X15192000Y-9216000D02*
X15232000Y-9176000D01*
X15192000Y-9136000D01*
X15152000Y-9176000D01*
X15192000Y-9216000D01*
X15192000Y-9470000D02*
X15232000Y-9430000D01*
X15192000Y-9390000D01*
X15152000Y-9430000D01*
X15192000Y-9470000D01*
X15192000Y-9724000D02*
X15232000Y-9684000D01*
X15192000Y-9644000D01*
X15152000Y-9684000D01*
X15192000Y-9724000D01*
X15192000Y-9978000D02*
X15232000Y-9938000D01*
X15192000Y-9898000D01*
X15152000Y-9938000D01*
X15192000Y-9978000D01*
X15192000Y-10232000D02*
X15232000Y-10192000D01*
X15192000Y-10152000D01*
X15152000Y-10192000D01*
X15192000Y-10232000D01*
X15192000Y-10486000D02*
X15232000Y-10446000D01*
X15192000Y-10406000D01*
X15152000Y-10446000D01*
X15192000Y-10486000D01*
X15192000Y-10740000D02*
X15232000Y-10700000D01*
X15192000Y-10660000D01*
X15152000Y-10700000D01*
X15192000Y-10740000D01*
X15446000Y-6930000D02*
X15486000Y-6890000D01*
X15446000Y-6850000D01*
X15406000Y-6890000D01*
X15446000Y-6930000D01*
X15446000Y-7184000D02*
X15486000Y-7144000D01*
X15446000Y-7104000D01*
X15406000Y-7144000D01*
X15446000Y-7184000D01*
X15446000Y-7438000D02*
X15486000Y-7398000D01*
X15446000Y-7358000D01*
X15406000Y-7398000D01*
X15446000Y-7438000D01*
X15446000Y-7692000D02*
X15486000Y-7652000D01*
X15446000Y-7612000D01*
X15406000Y-7652000D01*
X15446000Y-7692000D01*
X15446000Y-7946000D02*
X15486000Y-7906000D01*
X15446000Y-7866000D01*
X15406000Y-7906000D01*
X15446000Y-7946000D01*
X15446000Y-8200000D02*
X15486000Y-8160000D01*
X15446000Y-8120000D01*
X15406000Y-8160000D01*
X15446000Y-8200000D01*
X15446000Y-8454000D02*
X15486000Y-8414000D01*
X15446000Y-8374000D01*
X15406000Y-8414000D01*
X15446000Y-8454000D01*
X15446000Y-8708000D02*
X15486000Y-8668000D01*
X15446000Y-8628000D01*
X15406000Y-8668000D01*
X15446000Y-8708000D01*
X15446000Y-8962000D02*
X15486000Y-8922000D01*
X15446000Y-8882000D01*
X15406000Y-8922000D01*
X15446000Y-8962000D01*
X15446000Y-9216000D02*
X15486000Y-9176000D01*
X15446000Y-9136000D01*
X15406000Y-9176000D01*
X15446000Y-9216000D01*
X15446000Y-9470000D02*
X15486000Y-9430000D01*
X15446000Y-9390000D01*
X15406000Y-9430000D01*
X15446000Y-9470000D01*
X15446000Y-9724000D02*
X15486000Y-9684000D01*
X15446000Y-9644000D01*
X15406000Y-9684000D01*
X15446000Y-9724000D01*
X15446000Y-9978000D02*
X15486000Y-9938000D01*
X15446000Y-9898000D01*
X15406000Y-9938000D01*
X15446000Y-9978000D01*
X15446000Y-10232000D02*
X15486000Y-10192000D01*
X15446000Y-10152000D01*
X15406000Y-10192000D01*
X15446000Y-10232000D01*
X15700000Y-6930000D02*
X15740000Y-6890000D01*
X15700000Y-6850000D01*
X15660000Y-6890000D01*
X15700000Y-6930000D01*
X15700000Y-7184000D02*
X15740000Y-7144000D01*
X15700000Y-7104000D01*
X15660000Y-7144000D01*
X15700000Y-7184000D01*
X15700000Y-7438000D02*
X15740000Y-7398000D01*
X15700000Y-7358000D01*
X15660000Y-7398000D01*
X15700000Y-7438000D01*
X15700000Y-7692000D02*
X15740000Y-7652000D01*
X15700000Y-7612000D01*
X15660000Y-7652000D01*
X15700000Y-7692000D01*
X15700000Y-7946000D02*
X15740000Y-7906000D01*
X15700000Y-7866000D01*
X15660000Y-7906000D01*
X15700000Y-7946000D01*
X15700000Y-8200000D02*
X15740000Y-8160000D01*
X15700000Y-8120000D01*
X15660000Y-8160000D01*
X15700000Y-8200000D01*
X15700000Y-8454000D02*
X15740000Y-8414000D01*
X15700000Y-8374000D01*
X15660000Y-8414000D01*
X15700000Y-8454000D01*
X15700000Y-8708000D02*
X15740000Y-8668000D01*
X15700000Y-8628000D01*
X15660000Y-8668000D01*
X15700000Y-8708000D01*
X15700000Y-8962000D02*
X15740000Y-8922000D01*
X15700000Y-8882000D01*
X15660000Y-8922000D01*
X15700000Y-8962000D01*
X15700000Y-9216000D02*
X15740000Y-9176000D01*
X15700000Y-9136000D01*
X15660000Y-9176000D01*
X15700000Y-9216000D01*
X15700000Y-9470000D02*
X15740000Y-9430000D01*
X15700000Y-9390000D01*
X15660000Y-9430000D01*
X15700000Y-9470000D01*
X15700000Y-9724000D02*
X15740000Y-9684000D01*
X15700000Y-9644000D01*
X15660000Y-9684000D01*
X15700000Y-9724000D01*
X15700000Y-9978000D02*
X15740000Y-9938000D01*
X15700000Y-9898000D01*
X15660000Y-9938000D01*
X15700000Y-9978000D01*
X15700000Y-10232000D02*
X15740000Y-10192000D01*
X15700000Y-10152000D01*
X15660000Y-10192000D01*
X15700000Y-10232000D01*
D13*
X11410000Y-7960000D02*
X11570000Y-8120000D01*
X11570000Y-7960000D02*
X11410000Y-8120000D01*
X11570000Y-8040000D02*
G75*
G02*
X11410000Y-8040000I-80000J0D01*
G01*
X11410000Y-8040000D02*
G75*
G02*
X11570000Y-8040000I80000J0D01*
G01*
X11410000Y-8310000D02*
X11570000Y-8470000D01*
X11570000Y-8310000D02*
X11410000Y-8470000D01*
X11570000Y-8390000D02*
G75*
G02*
X11410000Y-8390000I-80000J0D01*
G01*
X11410000Y-8390000D02*
G75*
G02*
X11570000Y-8390000I80000J0D01*
G01*
X11410000Y-9035000D02*
X11570000Y-9195000D01*
X11570000Y-9035000D02*
X11410000Y-9195000D01*
X11570000Y-9115000D02*
G75*
G02*
X11410000Y-9115000I-80000J0D01*
G01*
X11410000Y-9115000D02*
G75*
G02*
X11570000Y-9115000I80000J0D01*
G01*
X11410000Y-9385000D02*
X11570000Y-9545000D01*
X11570000Y-9385000D02*
X11410000Y-9545000D01*
X11570000Y-9465000D02*
G75*
G02*
X11410000Y-9465000I-80000J0D01*
G01*
X11410000Y-9465000D02*
G75*
G02*
X11570000Y-9465000I80000J0D01*
G01*
X11410000Y-9735000D02*
X11570000Y-9895000D01*
X11570000Y-9735000D02*
X11410000Y-9895000D01*
X11570000Y-9815000D02*
G75*
G02*
X11410000Y-9815000I-80000J0D01*
G01*
X11410000Y-9815000D02*
G75*
G02*
X11570000Y-9815000I80000J0D01*
G01*
D11*
X11258277Y-11313984D02*
X11258277Y-11113984D01*
X11258277Y-11113984D02*
X11305896Y-11113984D01*
X11305896Y-11113984D02*
X11334467Y-11123508D01*
X11334467Y-11123508D02*
X11353515Y-11142555D01*
X11353515Y-11142555D02*
X11363039Y-11161603D01*
X11363039Y-11161603D02*
X11372562Y-11199698D01*
X11372562Y-11199698D02*
X11372562Y-11228269D01*
X11372562Y-11228269D02*
X11363039Y-11266365D01*
X11363039Y-11266365D02*
X11353515Y-11285412D01*
X11353515Y-11285412D02*
X11334467Y-11304460D01*
X11334467Y-11304460D02*
X11305896Y-11313984D01*
X11305896Y-11313984D02*
X11258277Y-11313984D01*
X11458277Y-11313984D02*
X11458277Y-11180650D01*
X11458277Y-11218746D02*
X11467801Y-11199698D01*
X11467801Y-11199698D02*
X11477324Y-11190174D01*
X11477324Y-11190174D02*
X11496372Y-11180650D01*
X11496372Y-11180650D02*
X11515420Y-11180650D01*
X11582086Y-11313984D02*
X11582086Y-11180650D01*
X11582086Y-11113984D02*
X11572562Y-11123508D01*
X11572562Y-11123508D02*
X11582086Y-11133031D01*
X11582086Y-11133031D02*
X11591610Y-11123508D01*
X11591610Y-11123508D02*
X11582086Y-11113984D01*
X11582086Y-11113984D02*
X11582086Y-11133031D01*
X11705896Y-11313984D02*
X11686848Y-11304460D01*
X11686848Y-11304460D02*
X11677324Y-11285412D01*
X11677324Y-11285412D02*
X11677324Y-11113984D01*
X11810658Y-11313984D02*
X11791610Y-11304460D01*
X11791610Y-11304460D02*
X11782086Y-11285412D01*
X11782086Y-11285412D02*
X11782086Y-11113984D01*
X12039229Y-11313984D02*
X12039229Y-11113984D01*
X12039229Y-11113984D02*
X12105896Y-11256841D01*
X12105896Y-11256841D02*
X12172562Y-11113984D01*
X12172562Y-11113984D02*
X12172562Y-11313984D01*
X12353515Y-11313984D02*
X12353515Y-11209222D01*
X12353515Y-11209222D02*
X12343991Y-11190174D01*
X12343991Y-11190174D02*
X12324943Y-11180650D01*
X12324943Y-11180650D02*
X12286848Y-11180650D01*
X12286848Y-11180650D02*
X12267801Y-11190174D01*
X12353515Y-11304460D02*
X12334467Y-11313984D01*
X12334467Y-11313984D02*
X12286848Y-11313984D01*
X12286848Y-11313984D02*
X12267801Y-11304460D01*
X12267801Y-11304460D02*
X12258277Y-11285412D01*
X12258277Y-11285412D02*
X12258277Y-11266365D01*
X12258277Y-11266365D02*
X12267801Y-11247317D01*
X12267801Y-11247317D02*
X12286848Y-11237793D01*
X12286848Y-11237793D02*
X12334467Y-11237793D01*
X12334467Y-11237793D02*
X12353515Y-11228269D01*
X12448753Y-11180650D02*
X12448753Y-11380650D01*
X12448753Y-11190174D02*
X12467801Y-11180650D01*
X12467801Y-11180650D02*
X12505896Y-11180650D01*
X12505896Y-11180650D02*
X12524943Y-11190174D01*
X12524943Y-11190174D02*
X12534467Y-11199698D01*
X12534467Y-11199698D02*
X12543991Y-11218746D01*
X12543991Y-11218746D02*
X12543991Y-11275888D01*
X12543991Y-11275888D02*
X12534467Y-11294936D01*
X12534467Y-11294936D02*
X12524943Y-11304460D01*
X12524943Y-11304460D02*
X12505896Y-11313984D01*
X12505896Y-11313984D02*
X12467801Y-11313984D01*
X12467801Y-11313984D02*
X12448753Y-11304460D01*
X12629705Y-11294936D02*
X12639229Y-11304460D01*
X12639229Y-11304460D02*
X12629705Y-11313984D01*
X12629705Y-11313984D02*
X12620182Y-11304460D01*
X12620182Y-11304460D02*
X12629705Y-11294936D01*
X12629705Y-11294936D02*
X12629705Y-11313984D01*
X12629705Y-11190174D02*
X12639229Y-11199698D01*
X12639229Y-11199698D02*
X12629705Y-11209222D01*
X12629705Y-11209222D02*
X12620182Y-11199698D01*
X12620182Y-11199698D02*
X12629705Y-11190174D01*
X12629705Y-11190174D02*
X12629705Y-11209222D01*
D12*
X10967500Y-11627500D02*
X10997500Y-11657500D01*
X10997500Y-11627500D02*
X10967500Y-11657500D01*
D11*
X11296372Y-11533984D02*
X11315420Y-11533984D01*
X11315420Y-11533984D02*
X11334467Y-11543508D01*
X11334467Y-11543508D02*
X11343991Y-11553031D01*
X11343991Y-11553031D02*
X11353515Y-11572079D01*
X11353515Y-11572079D02*
X11363039Y-11610174D01*
X11363039Y-11610174D02*
X11363039Y-11657793D01*
X11363039Y-11657793D02*
X11353515Y-11695888D01*
X11353515Y-11695888D02*
X11343991Y-11714936D01*
X11343991Y-11714936D02*
X11334467Y-11724460D01*
X11334467Y-11724460D02*
X11315420Y-11733984D01*
X11315420Y-11733984D02*
X11296372Y-11733984D01*
X11296372Y-11733984D02*
X11277324Y-11724460D01*
X11277324Y-11724460D02*
X11267801Y-11714936D01*
X11267801Y-11714936D02*
X11258277Y-11695888D01*
X11258277Y-11695888D02*
X11248753Y-11657793D01*
X11248753Y-11657793D02*
X11248753Y-11610174D01*
X11248753Y-11610174D02*
X11258277Y-11572079D01*
X11258277Y-11572079D02*
X11267801Y-11553031D01*
X11267801Y-11553031D02*
X11277324Y-11543508D01*
X11277324Y-11543508D02*
X11296372Y-11533984D01*
X11448753Y-11714936D02*
X11458277Y-11724460D01*
X11458277Y-11724460D02*
X11448753Y-11733984D01*
X11448753Y-11733984D02*
X11439229Y-11724460D01*
X11439229Y-11724460D02*
X11448753Y-11714936D01*
X11448753Y-11714936D02*
X11448753Y-11733984D01*
X11524943Y-11533984D02*
X11648753Y-11533984D01*
X11648753Y-11533984D02*
X11582086Y-11610174D01*
X11582086Y-11610174D02*
X11610658Y-11610174D01*
X11610658Y-11610174D02*
X11629705Y-11619698D01*
X11629705Y-11619698D02*
X11639229Y-11629222D01*
X11639229Y-11629222D02*
X11648753Y-11648269D01*
X11648753Y-11648269D02*
X11648753Y-11695888D01*
X11648753Y-11695888D02*
X11639229Y-11714936D01*
X11639229Y-11714936D02*
X11629705Y-11724460D01*
X11629705Y-11724460D02*
X11610658Y-11733984D01*
X11610658Y-11733984D02*
X11553515Y-11733984D01*
X11553515Y-11733984D02*
X11534467Y-11724460D01*
X11534467Y-11724460D02*
X11524943Y-11714936D01*
X11772562Y-11533984D02*
X11791610Y-11533984D01*
X11791610Y-11533984D02*
X11810658Y-11543508D01*
X11810658Y-11543508D02*
X11820182Y-11553031D01*
X11820182Y-11553031D02*
X11829705Y-11572079D01*
X11829705Y-11572079D02*
X11839229Y-11610174D01*
X11839229Y-11610174D02*
X11839229Y-11657793D01*
X11839229Y-11657793D02*
X11829705Y-11695888D01*
X11829705Y-11695888D02*
X11820182Y-11714936D01*
X11820182Y-11714936D02*
X11810658Y-11724460D01*
X11810658Y-11724460D02*
X11791610Y-11733984D01*
X11791610Y-11733984D02*
X11772562Y-11733984D01*
X11772562Y-11733984D02*
X11753515Y-11724460D01*
X11753515Y-11724460D02*
X11743991Y-11714936D01*
X11743991Y-11714936D02*
X11734467Y-11695888D01*
X11734467Y-11695888D02*
X11724943Y-11657793D01*
X11724943Y-11657793D02*
X11724943Y-11610174D01*
X11724943Y-11610174D02*
X11734467Y-11572079D01*
X11734467Y-11572079D02*
X11743991Y-11553031D01*
X11743991Y-11553031D02*
X11753515Y-11543508D01*
X11753515Y-11543508D02*
X11772562Y-11533984D01*
X11963039Y-11533984D02*
X11982086Y-11533984D01*
X11982086Y-11533984D02*
X12001134Y-11543508D01*
X12001134Y-11543508D02*
X12010658Y-11553031D01*
X12010658Y-11553031D02*
X12020182Y-11572079D01*
X12020182Y-11572079D02*
X12029705Y-11610174D01*
X12029705Y-11610174D02*
X12029705Y-11657793D01*
X12029705Y-11657793D02*
X12020182Y-11695888D01*
X12020182Y-11695888D02*
X12010658Y-11714936D01*
X12010658Y-11714936D02*
X12001134Y-11724460D01*
X12001134Y-11724460D02*
X11982086Y-11733984D01*
X11982086Y-11733984D02*
X11963039Y-11733984D01*
X11963039Y-11733984D02*
X11943991Y-11724460D01*
X11943991Y-11724460D02*
X11934467Y-11714936D01*
X11934467Y-11714936D02*
X11924943Y-11695888D01*
X11924943Y-11695888D02*
X11915420Y-11657793D01*
X11915420Y-11657793D02*
X11915420Y-11610174D01*
X11915420Y-11610174D02*
X11924943Y-11572079D01*
X11924943Y-11572079D02*
X11934467Y-11553031D01*
X11934467Y-11553031D02*
X11943991Y-11543508D01*
X11943991Y-11543508D02*
X11963039Y-11533984D01*
X12115420Y-11733984D02*
X12115420Y-11600650D01*
X12115420Y-11619698D02*
X12124943Y-11610174D01*
X12124943Y-11610174D02*
X12143991Y-11600650D01*
X12143991Y-11600650D02*
X12172563Y-11600650D01*
X12172563Y-11600650D02*
X12191610Y-11610174D01*
X12191610Y-11610174D02*
X12201134Y-11629222D01*
X12201134Y-11629222D02*
X12201134Y-11733984D01*
X12201134Y-11629222D02*
X12210658Y-11610174D01*
X12210658Y-11610174D02*
X12229705Y-11600650D01*
X12229705Y-11600650D02*
X12258277Y-11600650D01*
X12258277Y-11600650D02*
X12277324Y-11610174D01*
X12277324Y-11610174D02*
X12286848Y-11629222D01*
X12286848Y-11629222D02*
X12286848Y-11733984D01*
X12382086Y-11733984D02*
X12382086Y-11600650D01*
X12382086Y-11619698D02*
X12391610Y-11610174D01*
X12391610Y-11610174D02*
X12410658Y-11600650D01*
X12410658Y-11600650D02*
X12439229Y-11600650D01*
X12439229Y-11600650D02*
X12458277Y-11610174D01*
X12458277Y-11610174D02*
X12467801Y-11629222D01*
X12467801Y-11629222D02*
X12467801Y-11733984D01*
X12467801Y-11629222D02*
X12477324Y-11610174D01*
X12477324Y-11610174D02*
X12496372Y-11600650D01*
X12496372Y-11600650D02*
X12524943Y-11600650D01*
X12524943Y-11600650D02*
X12543991Y-11610174D01*
X12543991Y-11610174D02*
X12553515Y-11629222D01*
X12553515Y-11629222D02*
X12553515Y-11733984D01*
X12943991Y-11524460D02*
X12772563Y-11781603D01*
X13201134Y-11533984D02*
X13220182Y-11533984D01*
X13220182Y-11533984D02*
X13239229Y-11543508D01*
X13239229Y-11543508D02*
X13248753Y-11553031D01*
X13248753Y-11553031D02*
X13258277Y-11572079D01*
X13258277Y-11572079D02*
X13267801Y-11610174D01*
X13267801Y-11610174D02*
X13267801Y-11657793D01*
X13267801Y-11657793D02*
X13258277Y-11695888D01*
X13258277Y-11695888D02*
X13248753Y-11714936D01*
X13248753Y-11714936D02*
X13239229Y-11724460D01*
X13239229Y-11724460D02*
X13220182Y-11733984D01*
X13220182Y-11733984D02*
X13201134Y-11733984D01*
X13201134Y-11733984D02*
X13182086Y-11724460D01*
X13182086Y-11724460D02*
X13172563Y-11714936D01*
X13172563Y-11714936D02*
X13163039Y-11695888D01*
X13163039Y-11695888D02*
X13153515Y-11657793D01*
X13153515Y-11657793D02*
X13153515Y-11610174D01*
X13153515Y-11610174D02*
X13163039Y-11572079D01*
X13163039Y-11572079D02*
X13172563Y-11553031D01*
X13172563Y-11553031D02*
X13182086Y-11543508D01*
X13182086Y-11543508D02*
X13201134Y-11533984D01*
X13353515Y-11714936D02*
X13363039Y-11724460D01*
X13363039Y-11724460D02*
X13353515Y-11733984D01*
X13353515Y-11733984D02*
X13343991Y-11724460D01*
X13343991Y-11724460D02*
X13353515Y-11714936D01*
X13353515Y-11714936D02*
X13353515Y-11733984D01*
X13486848Y-11533984D02*
X13505896Y-11533984D01*
X13505896Y-11533984D02*
X13524944Y-11543508D01*
X13524944Y-11543508D02*
X13534467Y-11553031D01*
X13534467Y-11553031D02*
X13543991Y-11572079D01*
X13543991Y-11572079D02*
X13553515Y-11610174D01*
X13553515Y-11610174D02*
X13553515Y-11657793D01*
X13553515Y-11657793D02*
X13543991Y-11695888D01*
X13543991Y-11695888D02*
X13534467Y-11714936D01*
X13534467Y-11714936D02*
X13524944Y-11724460D01*
X13524944Y-11724460D02*
X13505896Y-11733984D01*
X13505896Y-11733984D02*
X13486848Y-11733984D01*
X13486848Y-11733984D02*
X13467801Y-11724460D01*
X13467801Y-11724460D02*
X13458277Y-11714936D01*
X13458277Y-11714936D02*
X13448753Y-11695888D01*
X13448753Y-11695888D02*
X13439229Y-11657793D01*
X13439229Y-11657793D02*
X13439229Y-11610174D01*
X13439229Y-11610174D02*
X13448753Y-11572079D01*
X13448753Y-11572079D02*
X13458277Y-11553031D01*
X13458277Y-11553031D02*
X13467801Y-11543508D01*
X13467801Y-11543508D02*
X13486848Y-11533984D01*
X13743991Y-11733984D02*
X13629706Y-11733984D01*
X13686848Y-11733984D02*
X13686848Y-11533984D01*
X13686848Y-11533984D02*
X13667801Y-11562555D01*
X13667801Y-11562555D02*
X13648753Y-11581603D01*
X13648753Y-11581603D02*
X13629706Y-11591127D01*
X13934467Y-11733984D02*
X13820182Y-11733984D01*
X13877325Y-11733984D02*
X13877325Y-11533984D01*
X13877325Y-11533984D02*
X13858277Y-11562555D01*
X13858277Y-11562555D02*
X13839229Y-11581603D01*
X13839229Y-11581603D02*
X13820182Y-11591127D01*
X14048753Y-11619698D02*
X14029706Y-11610174D01*
X14029706Y-11610174D02*
X14020182Y-11600650D01*
X14020182Y-11600650D02*
X14010658Y-11581603D01*
X14010658Y-11581603D02*
X14010658Y-11572079D01*
X14010658Y-11572079D02*
X14020182Y-11553031D01*
X14020182Y-11553031D02*
X14029706Y-11543508D01*
X14029706Y-11543508D02*
X14048753Y-11533984D01*
X14048753Y-11533984D02*
X14086848Y-11533984D01*
X14086848Y-11533984D02*
X14105896Y-11543508D01*
X14105896Y-11543508D02*
X14115420Y-11553031D01*
X14115420Y-11553031D02*
X14124944Y-11572079D01*
X14124944Y-11572079D02*
X14124944Y-11581603D01*
X14124944Y-11581603D02*
X14115420Y-11600650D01*
X14115420Y-11600650D02*
X14105896Y-11610174D01*
X14105896Y-11610174D02*
X14086848Y-11619698D01*
X14086848Y-11619698D02*
X14048753Y-11619698D01*
X14048753Y-11619698D02*
X14029706Y-11629222D01*
X14029706Y-11629222D02*
X14020182Y-11638746D01*
X14020182Y-11638746D02*
X14010658Y-11657793D01*
X14010658Y-11657793D02*
X14010658Y-11695888D01*
X14010658Y-11695888D02*
X14020182Y-11714936D01*
X14020182Y-11714936D02*
X14029706Y-11724460D01*
X14029706Y-11724460D02*
X14048753Y-11733984D01*
X14048753Y-11733984D02*
X14086848Y-11733984D01*
X14086848Y-11733984D02*
X14105896Y-11724460D01*
X14105896Y-11724460D02*
X14115420Y-11714936D01*
X14115420Y-11714936D02*
X14124944Y-11695888D01*
X14124944Y-11695888D02*
X14124944Y-11657793D01*
X14124944Y-11657793D02*
X14115420Y-11638746D01*
X14115420Y-11638746D02*
X14105896Y-11629222D01*
X14105896Y-11629222D02*
X14086848Y-11619698D01*
X14201134Y-11533984D02*
X14201134Y-11572079D01*
X14277325Y-11533984D02*
X14277325Y-11572079D01*
X14572563Y-11810174D02*
X14563039Y-11800650D01*
X14563039Y-11800650D02*
X14543991Y-11772079D01*
X14543991Y-11772079D02*
X14534468Y-11753031D01*
X14534468Y-11753031D02*
X14524944Y-11724460D01*
X14524944Y-11724460D02*
X14515420Y-11676841D01*
X14515420Y-11676841D02*
X14515420Y-11638746D01*
X14515420Y-11638746D02*
X14524944Y-11591127D01*
X14524944Y-11591127D02*
X14534468Y-11562555D01*
X14534468Y-11562555D02*
X14543991Y-11543508D01*
X14543991Y-11543508D02*
X14563039Y-11514936D01*
X14563039Y-11514936D02*
X14572563Y-11505412D01*
X14753515Y-11733984D02*
X14639229Y-11733984D01*
X14696372Y-11733984D02*
X14696372Y-11533984D01*
X14696372Y-11533984D02*
X14677325Y-11562555D01*
X14677325Y-11562555D02*
X14658277Y-11581603D01*
X14658277Y-11581603D02*
X14639229Y-11591127D01*
X14991610Y-11733984D02*
X14991610Y-11533984D01*
X15077325Y-11733984D02*
X15077325Y-11629222D01*
X15077325Y-11629222D02*
X15067801Y-11610174D01*
X15067801Y-11610174D02*
X15048753Y-11600650D01*
X15048753Y-11600650D02*
X15020182Y-11600650D01*
X15020182Y-11600650D02*
X15001134Y-11610174D01*
X15001134Y-11610174D02*
X14991610Y-11619698D01*
X15201134Y-11733984D02*
X15182087Y-11724460D01*
X15182087Y-11724460D02*
X15172563Y-11714936D01*
X15172563Y-11714936D02*
X15163039Y-11695888D01*
X15163039Y-11695888D02*
X15163039Y-11638746D01*
X15163039Y-11638746D02*
X15172563Y-11619698D01*
X15172563Y-11619698D02*
X15182087Y-11610174D01*
X15182087Y-11610174D02*
X15201134Y-11600650D01*
X15201134Y-11600650D02*
X15229706Y-11600650D01*
X15229706Y-11600650D02*
X15248753Y-11610174D01*
X15248753Y-11610174D02*
X15258277Y-11619698D01*
X15258277Y-11619698D02*
X15267801Y-11638746D01*
X15267801Y-11638746D02*
X15267801Y-11695888D01*
X15267801Y-11695888D02*
X15258277Y-11714936D01*
X15258277Y-11714936D02*
X15248753Y-11724460D01*
X15248753Y-11724460D02*
X15229706Y-11733984D01*
X15229706Y-11733984D02*
X15201134Y-11733984D01*
X15382087Y-11733984D02*
X15363039Y-11724460D01*
X15363039Y-11724460D02*
X15353515Y-11705412D01*
X15353515Y-11705412D02*
X15353515Y-11533984D01*
X15534468Y-11724460D02*
X15515420Y-11733984D01*
X15515420Y-11733984D02*
X15477325Y-11733984D01*
X15477325Y-11733984D02*
X15458277Y-11724460D01*
X15458277Y-11724460D02*
X15448753Y-11705412D01*
X15448753Y-11705412D02*
X15448753Y-11629222D01*
X15448753Y-11629222D02*
X15458277Y-11610174D01*
X15458277Y-11610174D02*
X15477325Y-11600650D01*
X15477325Y-11600650D02*
X15515420Y-11600650D01*
X15515420Y-11600650D02*
X15534468Y-11610174D01*
X15534468Y-11610174D02*
X15543991Y-11629222D01*
X15543991Y-11629222D02*
X15543991Y-11648269D01*
X15543991Y-11648269D02*
X15448753Y-11667317D01*
X15610658Y-11810174D02*
X15620182Y-11800650D01*
X15620182Y-11800650D02*
X15639230Y-11772079D01*
X15639230Y-11772079D02*
X15648753Y-11753031D01*
X15648753Y-11753031D02*
X15658277Y-11724460D01*
X15658277Y-11724460D02*
X15667801Y-11676841D01*
X15667801Y-11676841D02*
X15667801Y-11638746D01*
X15667801Y-11638746D02*
X15658277Y-11591127D01*
X15658277Y-11591127D02*
X15648753Y-11562555D01*
X15648753Y-11562555D02*
X15639230Y-11543508D01*
X15639230Y-11543508D02*
X15620182Y-11514936D01*
X15620182Y-11514936D02*
X15610658Y-11505412D01*
D12*
X10997500Y-11906500D02*
G75*
G02*
X10957500Y-11906500I-20000J0D01*
G01*
X10957500Y-11906500D02*
G75*
G02*
X10997500Y-11906500I20000J0D01*
G01*
D11*
X11296372Y-11797984D02*
X11315420Y-11797984D01*
X11315420Y-11797984D02*
X11334467Y-11807508D01*
X11334467Y-11807508D02*
X11343991Y-11817031D01*
X11343991Y-11817031D02*
X11353515Y-11836079D01*
X11353515Y-11836079D02*
X11363039Y-11874174D01*
X11363039Y-11874174D02*
X11363039Y-11921793D01*
X11363039Y-11921793D02*
X11353515Y-11959888D01*
X11353515Y-11959888D02*
X11343991Y-11978936D01*
X11343991Y-11978936D02*
X11334467Y-11988460D01*
X11334467Y-11988460D02*
X11315420Y-11997984D01*
X11315420Y-11997984D02*
X11296372Y-11997984D01*
X11296372Y-11997984D02*
X11277324Y-11988460D01*
X11277324Y-11988460D02*
X11267801Y-11978936D01*
X11267801Y-11978936D02*
X11258277Y-11959888D01*
X11258277Y-11959888D02*
X11248753Y-11921793D01*
X11248753Y-11921793D02*
X11248753Y-11874174D01*
X11248753Y-11874174D02*
X11258277Y-11836079D01*
X11258277Y-11836079D02*
X11267801Y-11817031D01*
X11267801Y-11817031D02*
X11277324Y-11807508D01*
X11277324Y-11807508D02*
X11296372Y-11797984D01*
X11448753Y-11978936D02*
X11458277Y-11988460D01*
X11458277Y-11988460D02*
X11448753Y-11997984D01*
X11448753Y-11997984D02*
X11439229Y-11988460D01*
X11439229Y-11988460D02*
X11448753Y-11978936D01*
X11448753Y-11978936D02*
X11448753Y-11997984D01*
X11629705Y-11864650D02*
X11629705Y-11997984D01*
X11582086Y-11788460D02*
X11534467Y-11931317D01*
X11534467Y-11931317D02*
X11658277Y-11931317D01*
X11772562Y-11797984D02*
X11791610Y-11797984D01*
X11791610Y-11797984D02*
X11810658Y-11807508D01*
X11810658Y-11807508D02*
X11820182Y-11817031D01*
X11820182Y-11817031D02*
X11829705Y-11836079D01*
X11829705Y-11836079D02*
X11839229Y-11874174D01*
X11839229Y-11874174D02*
X11839229Y-11921793D01*
X11839229Y-11921793D02*
X11829705Y-11959888D01*
X11829705Y-11959888D02*
X11820182Y-11978936D01*
X11820182Y-11978936D02*
X11810658Y-11988460D01*
X11810658Y-11988460D02*
X11791610Y-11997984D01*
X11791610Y-11997984D02*
X11772562Y-11997984D01*
X11772562Y-11997984D02*
X11753515Y-11988460D01*
X11753515Y-11988460D02*
X11743991Y-11978936D01*
X11743991Y-11978936D02*
X11734467Y-11959888D01*
X11734467Y-11959888D02*
X11724943Y-11921793D01*
X11724943Y-11921793D02*
X11724943Y-11874174D01*
X11724943Y-11874174D02*
X11734467Y-11836079D01*
X11734467Y-11836079D02*
X11743991Y-11817031D01*
X11743991Y-11817031D02*
X11753515Y-11807508D01*
X11753515Y-11807508D02*
X11772562Y-11797984D01*
X11963039Y-11797984D02*
X11982086Y-11797984D01*
X11982086Y-11797984D02*
X12001134Y-11807508D01*
X12001134Y-11807508D02*
X12010658Y-11817031D01*
X12010658Y-11817031D02*
X12020182Y-11836079D01*
X12020182Y-11836079D02*
X12029705Y-11874174D01*
X12029705Y-11874174D02*
X12029705Y-11921793D01*
X12029705Y-11921793D02*
X12020182Y-11959888D01*
X12020182Y-11959888D02*
X12010658Y-11978936D01*
X12010658Y-11978936D02*
X12001134Y-11988460D01*
X12001134Y-11988460D02*
X11982086Y-11997984D01*
X11982086Y-11997984D02*
X11963039Y-11997984D01*
X11963039Y-11997984D02*
X11943991Y-11988460D01*
X11943991Y-11988460D02*
X11934467Y-11978936D01*
X11934467Y-11978936D02*
X11924943Y-11959888D01*
X11924943Y-11959888D02*
X11915420Y-11921793D01*
X11915420Y-11921793D02*
X11915420Y-11874174D01*
X11915420Y-11874174D02*
X11924943Y-11836079D01*
X11924943Y-11836079D02*
X11934467Y-11817031D01*
X11934467Y-11817031D02*
X11943991Y-11807508D01*
X11943991Y-11807508D02*
X11963039Y-11797984D01*
X12115420Y-11997984D02*
X12115420Y-11864650D01*
X12115420Y-11883698D02*
X12124943Y-11874174D01*
X12124943Y-11874174D02*
X12143991Y-11864650D01*
X12143991Y-11864650D02*
X12172563Y-11864650D01*
X12172563Y-11864650D02*
X12191610Y-11874174D01*
X12191610Y-11874174D02*
X12201134Y-11893222D01*
X12201134Y-11893222D02*
X12201134Y-11997984D01*
X12201134Y-11893222D02*
X12210658Y-11874174D01*
X12210658Y-11874174D02*
X12229705Y-11864650D01*
X12229705Y-11864650D02*
X12258277Y-11864650D01*
X12258277Y-11864650D02*
X12277324Y-11874174D01*
X12277324Y-11874174D02*
X12286848Y-11893222D01*
X12286848Y-11893222D02*
X12286848Y-11997984D01*
X12382086Y-11997984D02*
X12382086Y-11864650D01*
X12382086Y-11883698D02*
X12391610Y-11874174D01*
X12391610Y-11874174D02*
X12410658Y-11864650D01*
X12410658Y-11864650D02*
X12439229Y-11864650D01*
X12439229Y-11864650D02*
X12458277Y-11874174D01*
X12458277Y-11874174D02*
X12467801Y-11893222D01*
X12467801Y-11893222D02*
X12467801Y-11997984D01*
X12467801Y-11893222D02*
X12477324Y-11874174D01*
X12477324Y-11874174D02*
X12496372Y-11864650D01*
X12496372Y-11864650D02*
X12524943Y-11864650D01*
X12524943Y-11864650D02*
X12543991Y-11874174D01*
X12543991Y-11874174D02*
X12553515Y-11893222D01*
X12553515Y-11893222D02*
X12553515Y-11997984D01*
X12943991Y-11788460D02*
X12772563Y-12045603D01*
X13201134Y-11797984D02*
X13220182Y-11797984D01*
X13220182Y-11797984D02*
X13239229Y-11807508D01*
X13239229Y-11807508D02*
X13248753Y-11817031D01*
X13248753Y-11817031D02*
X13258277Y-11836079D01*
X13258277Y-11836079D02*
X13267801Y-11874174D01*
X13267801Y-11874174D02*
X13267801Y-11921793D01*
X13267801Y-11921793D02*
X13258277Y-11959888D01*
X13258277Y-11959888D02*
X13248753Y-11978936D01*
X13248753Y-11978936D02*
X13239229Y-11988460D01*
X13239229Y-11988460D02*
X13220182Y-11997984D01*
X13220182Y-11997984D02*
X13201134Y-11997984D01*
X13201134Y-11997984D02*
X13182086Y-11988460D01*
X13182086Y-11988460D02*
X13172563Y-11978936D01*
X13172563Y-11978936D02*
X13163039Y-11959888D01*
X13163039Y-11959888D02*
X13153515Y-11921793D01*
X13153515Y-11921793D02*
X13153515Y-11874174D01*
X13153515Y-11874174D02*
X13163039Y-11836079D01*
X13163039Y-11836079D02*
X13172563Y-11817031D01*
X13172563Y-11817031D02*
X13182086Y-11807508D01*
X13182086Y-11807508D02*
X13201134Y-11797984D01*
X13353515Y-11978936D02*
X13363039Y-11988460D01*
X13363039Y-11988460D02*
X13353515Y-11997984D01*
X13353515Y-11997984D02*
X13343991Y-11988460D01*
X13343991Y-11988460D02*
X13353515Y-11978936D01*
X13353515Y-11978936D02*
X13353515Y-11997984D01*
X13486848Y-11797984D02*
X13505896Y-11797984D01*
X13505896Y-11797984D02*
X13524944Y-11807508D01*
X13524944Y-11807508D02*
X13534467Y-11817031D01*
X13534467Y-11817031D02*
X13543991Y-11836079D01*
X13543991Y-11836079D02*
X13553515Y-11874174D01*
X13553515Y-11874174D02*
X13553515Y-11921793D01*
X13553515Y-11921793D02*
X13543991Y-11959888D01*
X13543991Y-11959888D02*
X13534467Y-11978936D01*
X13534467Y-11978936D02*
X13524944Y-11988460D01*
X13524944Y-11988460D02*
X13505896Y-11997984D01*
X13505896Y-11997984D02*
X13486848Y-11997984D01*
X13486848Y-11997984D02*
X13467801Y-11988460D01*
X13467801Y-11988460D02*
X13458277Y-11978936D01*
X13458277Y-11978936D02*
X13448753Y-11959888D01*
X13448753Y-11959888D02*
X13439229Y-11921793D01*
X13439229Y-11921793D02*
X13439229Y-11874174D01*
X13439229Y-11874174D02*
X13448753Y-11836079D01*
X13448753Y-11836079D02*
X13458277Y-11817031D01*
X13458277Y-11817031D02*
X13467801Y-11807508D01*
X13467801Y-11807508D02*
X13486848Y-11797984D01*
X13743991Y-11997984D02*
X13629706Y-11997984D01*
X13686848Y-11997984D02*
X13686848Y-11797984D01*
X13686848Y-11797984D02*
X13667801Y-11826555D01*
X13667801Y-11826555D02*
X13648753Y-11845603D01*
X13648753Y-11845603D02*
X13629706Y-11855127D01*
X13924944Y-11797984D02*
X13829706Y-11797984D01*
X13829706Y-11797984D02*
X13820182Y-11893222D01*
X13820182Y-11893222D02*
X13829706Y-11883698D01*
X13829706Y-11883698D02*
X13848753Y-11874174D01*
X13848753Y-11874174D02*
X13896372Y-11874174D01*
X13896372Y-11874174D02*
X13915420Y-11883698D01*
X13915420Y-11883698D02*
X13924944Y-11893222D01*
X13924944Y-11893222D02*
X13934467Y-11912269D01*
X13934467Y-11912269D02*
X13934467Y-11959888D01*
X13934467Y-11959888D02*
X13924944Y-11978936D01*
X13924944Y-11978936D02*
X13915420Y-11988460D01*
X13915420Y-11988460D02*
X13896372Y-11997984D01*
X13896372Y-11997984D02*
X13848753Y-11997984D01*
X13848753Y-11997984D02*
X13829706Y-11988460D01*
X13829706Y-11988460D02*
X13820182Y-11978936D01*
X14001134Y-11797984D02*
X14134467Y-11797984D01*
X14134467Y-11797984D02*
X14048753Y-11997984D01*
X14201134Y-11797984D02*
X14201134Y-11836079D01*
X14277325Y-11797984D02*
X14277325Y-11836079D01*
X14572563Y-12074174D02*
X14563039Y-12064650D01*
X14563039Y-12064650D02*
X14543991Y-12036079D01*
X14543991Y-12036079D02*
X14534468Y-12017031D01*
X14534468Y-12017031D02*
X14524944Y-11988460D01*
X14524944Y-11988460D02*
X14515420Y-11940841D01*
X14515420Y-11940841D02*
X14515420Y-11902746D01*
X14515420Y-11902746D02*
X14524944Y-11855127D01*
X14524944Y-11855127D02*
X14534468Y-11826555D01*
X14534468Y-11826555D02*
X14543991Y-11807508D01*
X14543991Y-11807508D02*
X14563039Y-11778936D01*
X14563039Y-11778936D02*
X14572563Y-11769412D01*
X14639229Y-11817031D02*
X14648753Y-11807508D01*
X14648753Y-11807508D02*
X14667801Y-11797984D01*
X14667801Y-11797984D02*
X14715420Y-11797984D01*
X14715420Y-11797984D02*
X14734468Y-11807508D01*
X14734468Y-11807508D02*
X14743991Y-11817031D01*
X14743991Y-11817031D02*
X14753515Y-11836079D01*
X14753515Y-11836079D02*
X14753515Y-11855127D01*
X14753515Y-11855127D02*
X14743991Y-11883698D01*
X14743991Y-11883698D02*
X14629706Y-11997984D01*
X14629706Y-11997984D02*
X14753515Y-11997984D01*
X14934468Y-11797984D02*
X14839229Y-11797984D01*
X14839229Y-11797984D02*
X14829706Y-11893222D01*
X14829706Y-11893222D02*
X14839229Y-11883698D01*
X14839229Y-11883698D02*
X14858277Y-11874174D01*
X14858277Y-11874174D02*
X14905896Y-11874174D01*
X14905896Y-11874174D02*
X14924944Y-11883698D01*
X14924944Y-11883698D02*
X14934468Y-11893222D01*
X14934468Y-11893222D02*
X14943991Y-11912269D01*
X14943991Y-11912269D02*
X14943991Y-11959888D01*
X14943991Y-11959888D02*
X14934468Y-11978936D01*
X14934468Y-11978936D02*
X14924944Y-11988460D01*
X14924944Y-11988460D02*
X14905896Y-11997984D01*
X14905896Y-11997984D02*
X14858277Y-11997984D01*
X14858277Y-11997984D02*
X14839229Y-11988460D01*
X14839229Y-11988460D02*
X14829706Y-11978936D01*
X15182087Y-11997984D02*
X15182087Y-11797984D01*
X15267801Y-11997984D02*
X15267801Y-11893222D01*
X15267801Y-11893222D02*
X15258277Y-11874174D01*
X15258277Y-11874174D02*
X15239230Y-11864650D01*
X15239230Y-11864650D02*
X15210658Y-11864650D01*
X15210658Y-11864650D02*
X15191610Y-11874174D01*
X15191610Y-11874174D02*
X15182087Y-11883698D01*
X15391610Y-11997984D02*
X15372563Y-11988460D01*
X15372563Y-11988460D02*
X15363039Y-11978936D01*
X15363039Y-11978936D02*
X15353515Y-11959888D01*
X15353515Y-11959888D02*
X15353515Y-11902746D01*
X15353515Y-11902746D02*
X15363039Y-11883698D01*
X15363039Y-11883698D02*
X15372563Y-11874174D01*
X15372563Y-11874174D02*
X15391610Y-11864650D01*
X15391610Y-11864650D02*
X15420182Y-11864650D01*
X15420182Y-11864650D02*
X15439230Y-11874174D01*
X15439230Y-11874174D02*
X15448753Y-11883698D01*
X15448753Y-11883698D02*
X15458277Y-11902746D01*
X15458277Y-11902746D02*
X15458277Y-11959888D01*
X15458277Y-11959888D02*
X15448753Y-11978936D01*
X15448753Y-11978936D02*
X15439230Y-11988460D01*
X15439230Y-11988460D02*
X15420182Y-11997984D01*
X15420182Y-11997984D02*
X15391610Y-11997984D01*
X15572563Y-11997984D02*
X15553515Y-11988460D01*
X15553515Y-11988460D02*
X15543991Y-11969412D01*
X15543991Y-11969412D02*
X15543991Y-11797984D01*
X15724944Y-11988460D02*
X15705896Y-11997984D01*
X15705896Y-11997984D02*
X15667801Y-11997984D01*
X15667801Y-11997984D02*
X15648753Y-11988460D01*
X15648753Y-11988460D02*
X15639230Y-11969412D01*
X15639230Y-11969412D02*
X15639230Y-11893222D01*
X15639230Y-11893222D02*
X15648753Y-11874174D01*
X15648753Y-11874174D02*
X15667801Y-11864650D01*
X15667801Y-11864650D02*
X15705896Y-11864650D01*
X15705896Y-11864650D02*
X15724944Y-11874174D01*
X15724944Y-11874174D02*
X15734468Y-11893222D01*
X15734468Y-11893222D02*
X15734468Y-11912269D01*
X15734468Y-11912269D02*
X15639230Y-11931317D01*
X15810658Y-11988460D02*
X15829706Y-11997984D01*
X15829706Y-11997984D02*
X15867801Y-11997984D01*
X15867801Y-11997984D02*
X15886849Y-11988460D01*
X15886849Y-11988460D02*
X15896372Y-11969412D01*
X15896372Y-11969412D02*
X15896372Y-11959888D01*
X15896372Y-11959888D02*
X15886849Y-11940841D01*
X15886849Y-11940841D02*
X15867801Y-11931317D01*
X15867801Y-11931317D02*
X15839230Y-11931317D01*
X15839230Y-11931317D02*
X15820182Y-11921793D01*
X15820182Y-11921793D02*
X15810658Y-11902746D01*
X15810658Y-11902746D02*
X15810658Y-11893222D01*
X15810658Y-11893222D02*
X15820182Y-11874174D01*
X15820182Y-11874174D02*
X15839230Y-11864650D01*
X15839230Y-11864650D02*
X15867801Y-11864650D01*
X15867801Y-11864650D02*
X15886849Y-11874174D01*
X15963039Y-12074174D02*
X15972563Y-12064650D01*
X15972563Y-12064650D02*
X15991611Y-12036079D01*
X15991611Y-12036079D02*
X16001134Y-12017031D01*
X16001134Y-12017031D02*
X16010658Y-11988460D01*
X16010658Y-11988460D02*
X16020182Y-11940841D01*
X16020182Y-11940841D02*
X16020182Y-11902746D01*
X16020182Y-11902746D02*
X16010658Y-11855127D01*
X16010658Y-11855127D02*
X16001134Y-11826555D01*
X16001134Y-11826555D02*
X15991611Y-11807508D01*
X15991611Y-11807508D02*
X15972563Y-11778936D01*
X15972563Y-11778936D02*
X15963039Y-11769412D01*
D12*
X10972500Y-12145500D02*
X10972500Y-12195500D01*
X10947500Y-12170500D02*
X10997500Y-12170500D01*
D11*
X11296372Y-12061984D02*
X11315420Y-12061984D01*
X11315420Y-12061984D02*
X11334467Y-12071508D01*
X11334467Y-12071508D02*
X11343991Y-12081031D01*
X11343991Y-12081031D02*
X11353515Y-12100079D01*
X11353515Y-12100079D02*
X11363039Y-12138174D01*
X11363039Y-12138174D02*
X11363039Y-12185793D01*
X11363039Y-12185793D02*
X11353515Y-12223888D01*
X11353515Y-12223888D02*
X11343991Y-12242936D01*
X11343991Y-12242936D02*
X11334467Y-12252460D01*
X11334467Y-12252460D02*
X11315420Y-12261984D01*
X11315420Y-12261984D02*
X11296372Y-12261984D01*
X11296372Y-12261984D02*
X11277324Y-12252460D01*
X11277324Y-12252460D02*
X11267801Y-12242936D01*
X11267801Y-12242936D02*
X11258277Y-12223888D01*
X11258277Y-12223888D02*
X11248753Y-12185793D01*
X11248753Y-12185793D02*
X11248753Y-12138174D01*
X11248753Y-12138174D02*
X11258277Y-12100079D01*
X11258277Y-12100079D02*
X11267801Y-12081031D01*
X11267801Y-12081031D02*
X11277324Y-12071508D01*
X11277324Y-12071508D02*
X11296372Y-12061984D01*
X11448753Y-12242936D02*
X11458277Y-12252460D01*
X11458277Y-12252460D02*
X11448753Y-12261984D01*
X11448753Y-12261984D02*
X11439229Y-12252460D01*
X11439229Y-12252460D02*
X11448753Y-12242936D01*
X11448753Y-12242936D02*
X11448753Y-12261984D01*
X11639229Y-12061984D02*
X11543991Y-12061984D01*
X11543991Y-12061984D02*
X11534467Y-12157222D01*
X11534467Y-12157222D02*
X11543991Y-12147698D01*
X11543991Y-12147698D02*
X11563039Y-12138174D01*
X11563039Y-12138174D02*
X11610658Y-12138174D01*
X11610658Y-12138174D02*
X11629705Y-12147698D01*
X11629705Y-12147698D02*
X11639229Y-12157222D01*
X11639229Y-12157222D02*
X11648753Y-12176269D01*
X11648753Y-12176269D02*
X11648753Y-12223888D01*
X11648753Y-12223888D02*
X11639229Y-12242936D01*
X11639229Y-12242936D02*
X11629705Y-12252460D01*
X11629705Y-12252460D02*
X11610658Y-12261984D01*
X11610658Y-12261984D02*
X11563039Y-12261984D01*
X11563039Y-12261984D02*
X11543991Y-12252460D01*
X11543991Y-12252460D02*
X11534467Y-12242936D01*
X11772562Y-12061984D02*
X11791610Y-12061984D01*
X11791610Y-12061984D02*
X11810658Y-12071508D01*
X11810658Y-12071508D02*
X11820182Y-12081031D01*
X11820182Y-12081031D02*
X11829705Y-12100079D01*
X11829705Y-12100079D02*
X11839229Y-12138174D01*
X11839229Y-12138174D02*
X11839229Y-12185793D01*
X11839229Y-12185793D02*
X11829705Y-12223888D01*
X11829705Y-12223888D02*
X11820182Y-12242936D01*
X11820182Y-12242936D02*
X11810658Y-12252460D01*
X11810658Y-12252460D02*
X11791610Y-12261984D01*
X11791610Y-12261984D02*
X11772562Y-12261984D01*
X11772562Y-12261984D02*
X11753515Y-12252460D01*
X11753515Y-12252460D02*
X11743991Y-12242936D01*
X11743991Y-12242936D02*
X11734467Y-12223888D01*
X11734467Y-12223888D02*
X11724943Y-12185793D01*
X11724943Y-12185793D02*
X11724943Y-12138174D01*
X11724943Y-12138174D02*
X11734467Y-12100079D01*
X11734467Y-12100079D02*
X11743991Y-12081031D01*
X11743991Y-12081031D02*
X11753515Y-12071508D01*
X11753515Y-12071508D02*
X11772562Y-12061984D01*
X11963039Y-12061984D02*
X11982086Y-12061984D01*
X11982086Y-12061984D02*
X12001134Y-12071508D01*
X12001134Y-12071508D02*
X12010658Y-12081031D01*
X12010658Y-12081031D02*
X12020182Y-12100079D01*
X12020182Y-12100079D02*
X12029705Y-12138174D01*
X12029705Y-12138174D02*
X12029705Y-12185793D01*
X12029705Y-12185793D02*
X12020182Y-12223888D01*
X12020182Y-12223888D02*
X12010658Y-12242936D01*
X12010658Y-12242936D02*
X12001134Y-12252460D01*
X12001134Y-12252460D02*
X11982086Y-12261984D01*
X11982086Y-12261984D02*
X11963039Y-12261984D01*
X11963039Y-12261984D02*
X11943991Y-12252460D01*
X11943991Y-12252460D02*
X11934467Y-12242936D01*
X11934467Y-12242936D02*
X11924943Y-12223888D01*
X11924943Y-12223888D02*
X11915420Y-12185793D01*
X11915420Y-12185793D02*
X11915420Y-12138174D01*
X11915420Y-12138174D02*
X11924943Y-12100079D01*
X11924943Y-12100079D02*
X11934467Y-12081031D01*
X11934467Y-12081031D02*
X11943991Y-12071508D01*
X11943991Y-12071508D02*
X11963039Y-12061984D01*
X12115420Y-12261984D02*
X12115420Y-12128650D01*
X12115420Y-12147698D02*
X12124943Y-12138174D01*
X12124943Y-12138174D02*
X12143991Y-12128650D01*
X12143991Y-12128650D02*
X12172563Y-12128650D01*
X12172563Y-12128650D02*
X12191610Y-12138174D01*
X12191610Y-12138174D02*
X12201134Y-12157222D01*
X12201134Y-12157222D02*
X12201134Y-12261984D01*
X12201134Y-12157222D02*
X12210658Y-12138174D01*
X12210658Y-12138174D02*
X12229705Y-12128650D01*
X12229705Y-12128650D02*
X12258277Y-12128650D01*
X12258277Y-12128650D02*
X12277324Y-12138174D01*
X12277324Y-12138174D02*
X12286848Y-12157222D01*
X12286848Y-12157222D02*
X12286848Y-12261984D01*
X12382086Y-12261984D02*
X12382086Y-12128650D01*
X12382086Y-12147698D02*
X12391610Y-12138174D01*
X12391610Y-12138174D02*
X12410658Y-12128650D01*
X12410658Y-12128650D02*
X12439229Y-12128650D01*
X12439229Y-12128650D02*
X12458277Y-12138174D01*
X12458277Y-12138174D02*
X12467801Y-12157222D01*
X12467801Y-12157222D02*
X12467801Y-12261984D01*
X12467801Y-12157222D02*
X12477324Y-12138174D01*
X12477324Y-12138174D02*
X12496372Y-12128650D01*
X12496372Y-12128650D02*
X12524943Y-12128650D01*
X12524943Y-12128650D02*
X12543991Y-12138174D01*
X12543991Y-12138174D02*
X12553515Y-12157222D01*
X12553515Y-12157222D02*
X12553515Y-12261984D01*
X12943991Y-12052460D02*
X12772563Y-12309603D01*
X13201134Y-12061984D02*
X13220182Y-12061984D01*
X13220182Y-12061984D02*
X13239229Y-12071508D01*
X13239229Y-12071508D02*
X13248753Y-12081031D01*
X13248753Y-12081031D02*
X13258277Y-12100079D01*
X13258277Y-12100079D02*
X13267801Y-12138174D01*
X13267801Y-12138174D02*
X13267801Y-12185793D01*
X13267801Y-12185793D02*
X13258277Y-12223888D01*
X13258277Y-12223888D02*
X13248753Y-12242936D01*
X13248753Y-12242936D02*
X13239229Y-12252460D01*
X13239229Y-12252460D02*
X13220182Y-12261984D01*
X13220182Y-12261984D02*
X13201134Y-12261984D01*
X13201134Y-12261984D02*
X13182086Y-12252460D01*
X13182086Y-12252460D02*
X13172563Y-12242936D01*
X13172563Y-12242936D02*
X13163039Y-12223888D01*
X13163039Y-12223888D02*
X13153515Y-12185793D01*
X13153515Y-12185793D02*
X13153515Y-12138174D01*
X13153515Y-12138174D02*
X13163039Y-12100079D01*
X13163039Y-12100079D02*
X13172563Y-12081031D01*
X13172563Y-12081031D02*
X13182086Y-12071508D01*
X13182086Y-12071508D02*
X13201134Y-12061984D01*
X13353515Y-12242936D02*
X13363039Y-12252460D01*
X13363039Y-12252460D02*
X13353515Y-12261984D01*
X13353515Y-12261984D02*
X13343991Y-12252460D01*
X13343991Y-12252460D02*
X13353515Y-12242936D01*
X13353515Y-12242936D02*
X13353515Y-12261984D01*
X13486848Y-12061984D02*
X13505896Y-12061984D01*
X13505896Y-12061984D02*
X13524944Y-12071508D01*
X13524944Y-12071508D02*
X13534467Y-12081031D01*
X13534467Y-12081031D02*
X13543991Y-12100079D01*
X13543991Y-12100079D02*
X13553515Y-12138174D01*
X13553515Y-12138174D02*
X13553515Y-12185793D01*
X13553515Y-12185793D02*
X13543991Y-12223888D01*
X13543991Y-12223888D02*
X13534467Y-12242936D01*
X13534467Y-12242936D02*
X13524944Y-12252460D01*
X13524944Y-12252460D02*
X13505896Y-12261984D01*
X13505896Y-12261984D02*
X13486848Y-12261984D01*
X13486848Y-12261984D02*
X13467801Y-12252460D01*
X13467801Y-12252460D02*
X13458277Y-12242936D01*
X13458277Y-12242936D02*
X13448753Y-12223888D01*
X13448753Y-12223888D02*
X13439229Y-12185793D01*
X13439229Y-12185793D02*
X13439229Y-12138174D01*
X13439229Y-12138174D02*
X13448753Y-12100079D01*
X13448753Y-12100079D02*
X13458277Y-12081031D01*
X13458277Y-12081031D02*
X13467801Y-12071508D01*
X13467801Y-12071508D02*
X13486848Y-12061984D01*
X13743991Y-12261984D02*
X13629706Y-12261984D01*
X13686848Y-12261984D02*
X13686848Y-12061984D01*
X13686848Y-12061984D02*
X13667801Y-12090555D01*
X13667801Y-12090555D02*
X13648753Y-12109603D01*
X13648753Y-12109603D02*
X13629706Y-12119127D01*
X13839229Y-12261984D02*
X13877325Y-12261984D01*
X13877325Y-12261984D02*
X13896372Y-12252460D01*
X13896372Y-12252460D02*
X13905896Y-12242936D01*
X13905896Y-12242936D02*
X13924944Y-12214365D01*
X13924944Y-12214365D02*
X13934467Y-12176269D01*
X13934467Y-12176269D02*
X13934467Y-12100079D01*
X13934467Y-12100079D02*
X13924944Y-12081031D01*
X13924944Y-12081031D02*
X13915420Y-12071508D01*
X13915420Y-12071508D02*
X13896372Y-12061984D01*
X13896372Y-12061984D02*
X13858277Y-12061984D01*
X13858277Y-12061984D02*
X13839229Y-12071508D01*
X13839229Y-12071508D02*
X13829706Y-12081031D01*
X13829706Y-12081031D02*
X13820182Y-12100079D01*
X13820182Y-12100079D02*
X13820182Y-12147698D01*
X13820182Y-12147698D02*
X13829706Y-12166746D01*
X13829706Y-12166746D02*
X13839229Y-12176269D01*
X13839229Y-12176269D02*
X13858277Y-12185793D01*
X13858277Y-12185793D02*
X13896372Y-12185793D01*
X13896372Y-12185793D02*
X13915420Y-12176269D01*
X13915420Y-12176269D02*
X13924944Y-12166746D01*
X13924944Y-12166746D02*
X13934467Y-12147698D01*
X14001134Y-12061984D02*
X14134467Y-12061984D01*
X14134467Y-12061984D02*
X14048753Y-12261984D01*
X14201134Y-12061984D02*
X14201134Y-12100079D01*
X14277325Y-12061984D02*
X14277325Y-12100079D01*
X14572563Y-12338174D02*
X14563039Y-12328650D01*
X14563039Y-12328650D02*
X14543991Y-12300079D01*
X14543991Y-12300079D02*
X14534468Y-12281031D01*
X14534468Y-12281031D02*
X14524944Y-12252460D01*
X14524944Y-12252460D02*
X14515420Y-12204841D01*
X14515420Y-12204841D02*
X14515420Y-12166746D01*
X14515420Y-12166746D02*
X14524944Y-12119127D01*
X14524944Y-12119127D02*
X14534468Y-12090555D01*
X14534468Y-12090555D02*
X14543991Y-12071508D01*
X14543991Y-12071508D02*
X14563039Y-12042936D01*
X14563039Y-12042936D02*
X14572563Y-12033412D01*
X14629706Y-12061984D02*
X14753515Y-12061984D01*
X14753515Y-12061984D02*
X14686848Y-12138174D01*
X14686848Y-12138174D02*
X14715420Y-12138174D01*
X14715420Y-12138174D02*
X14734468Y-12147698D01*
X14734468Y-12147698D02*
X14743991Y-12157222D01*
X14743991Y-12157222D02*
X14753515Y-12176269D01*
X14753515Y-12176269D02*
X14753515Y-12223888D01*
X14753515Y-12223888D02*
X14743991Y-12242936D01*
X14743991Y-12242936D02*
X14734468Y-12252460D01*
X14734468Y-12252460D02*
X14715420Y-12261984D01*
X14715420Y-12261984D02*
X14658277Y-12261984D01*
X14658277Y-12261984D02*
X14639229Y-12252460D01*
X14639229Y-12252460D02*
X14629706Y-12242936D01*
X14991610Y-12261984D02*
X14991610Y-12061984D01*
X15077325Y-12261984D02*
X15077325Y-12157222D01*
X15077325Y-12157222D02*
X15067801Y-12138174D01*
X15067801Y-12138174D02*
X15048753Y-12128650D01*
X15048753Y-12128650D02*
X15020182Y-12128650D01*
X15020182Y-12128650D02*
X15001134Y-12138174D01*
X15001134Y-12138174D02*
X14991610Y-12147698D01*
X15201134Y-12261984D02*
X15182087Y-12252460D01*
X15182087Y-12252460D02*
X15172563Y-12242936D01*
X15172563Y-12242936D02*
X15163039Y-12223888D01*
X15163039Y-12223888D02*
X15163039Y-12166746D01*
X15163039Y-12166746D02*
X15172563Y-12147698D01*
X15172563Y-12147698D02*
X15182087Y-12138174D01*
X15182087Y-12138174D02*
X15201134Y-12128650D01*
X15201134Y-12128650D02*
X15229706Y-12128650D01*
X15229706Y-12128650D02*
X15248753Y-12138174D01*
X15248753Y-12138174D02*
X15258277Y-12147698D01*
X15258277Y-12147698D02*
X15267801Y-12166746D01*
X15267801Y-12166746D02*
X15267801Y-12223888D01*
X15267801Y-12223888D02*
X15258277Y-12242936D01*
X15258277Y-12242936D02*
X15248753Y-12252460D01*
X15248753Y-12252460D02*
X15229706Y-12261984D01*
X15229706Y-12261984D02*
X15201134Y-12261984D01*
X15382087Y-12261984D02*
X15363039Y-12252460D01*
X15363039Y-12252460D02*
X15353515Y-12233412D01*
X15353515Y-12233412D02*
X15353515Y-12061984D01*
X15534468Y-12252460D02*
X15515420Y-12261984D01*
X15515420Y-12261984D02*
X15477325Y-12261984D01*
X15477325Y-12261984D02*
X15458277Y-12252460D01*
X15458277Y-12252460D02*
X15448753Y-12233412D01*
X15448753Y-12233412D02*
X15448753Y-12157222D01*
X15448753Y-12157222D02*
X15458277Y-12138174D01*
X15458277Y-12138174D02*
X15477325Y-12128650D01*
X15477325Y-12128650D02*
X15515420Y-12128650D01*
X15515420Y-12128650D02*
X15534468Y-12138174D01*
X15534468Y-12138174D02*
X15543991Y-12157222D01*
X15543991Y-12157222D02*
X15543991Y-12176269D01*
X15543991Y-12176269D02*
X15448753Y-12195317D01*
X15620182Y-12252460D02*
X15639230Y-12261984D01*
X15639230Y-12261984D02*
X15677325Y-12261984D01*
X15677325Y-12261984D02*
X15696372Y-12252460D01*
X15696372Y-12252460D02*
X15705896Y-12233412D01*
X15705896Y-12233412D02*
X15705896Y-12223888D01*
X15705896Y-12223888D02*
X15696372Y-12204841D01*
X15696372Y-12204841D02*
X15677325Y-12195317D01*
X15677325Y-12195317D02*
X15648753Y-12195317D01*
X15648753Y-12195317D02*
X15629706Y-12185793D01*
X15629706Y-12185793D02*
X15620182Y-12166746D01*
X15620182Y-12166746D02*
X15620182Y-12157222D01*
X15620182Y-12157222D02*
X15629706Y-12138174D01*
X15629706Y-12138174D02*
X15648753Y-12128650D01*
X15648753Y-12128650D02*
X15677325Y-12128650D01*
X15677325Y-12128650D02*
X15696372Y-12138174D01*
X15772563Y-12338174D02*
X15782087Y-12328650D01*
X15782087Y-12328650D02*
X15801134Y-12300079D01*
X15801134Y-12300079D02*
X15810658Y-12281031D01*
X15810658Y-12281031D02*
X15820182Y-12252460D01*
X15820182Y-12252460D02*
X15829706Y-12204841D01*
X15829706Y-12204841D02*
X15829706Y-12166746D01*
X15829706Y-12166746D02*
X15820182Y-12119127D01*
X15820182Y-12119127D02*
X15810658Y-12090555D01*
X15810658Y-12090555D02*
X15801134Y-12071508D01*
X15801134Y-12071508D02*
X15782087Y-12042936D01*
X15782087Y-12042936D02*
X15772563Y-12033412D01*
D12*
X10987981Y-12457481D02*
X10987981Y-12411519D01*
X10942019Y-12411519D01*
X10942019Y-12457481D01*
X10987981Y-12457481D01*
D11*
X11296372Y-12325984D02*
X11315420Y-12325984D01*
X11315420Y-12325984D02*
X11334467Y-12335508D01*
X11334467Y-12335508D02*
X11343991Y-12345031D01*
X11343991Y-12345031D02*
X11353515Y-12364079D01*
X11353515Y-12364079D02*
X11363039Y-12402174D01*
X11363039Y-12402174D02*
X11363039Y-12449793D01*
X11363039Y-12449793D02*
X11353515Y-12487888D01*
X11353515Y-12487888D02*
X11343991Y-12506936D01*
X11343991Y-12506936D02*
X11334467Y-12516460D01*
X11334467Y-12516460D02*
X11315420Y-12525984D01*
X11315420Y-12525984D02*
X11296372Y-12525984D01*
X11296372Y-12525984D02*
X11277324Y-12516460D01*
X11277324Y-12516460D02*
X11267801Y-12506936D01*
X11267801Y-12506936D02*
X11258277Y-12487888D01*
X11258277Y-12487888D02*
X11248753Y-12449793D01*
X11248753Y-12449793D02*
X11248753Y-12402174D01*
X11248753Y-12402174D02*
X11258277Y-12364079D01*
X11258277Y-12364079D02*
X11267801Y-12345031D01*
X11267801Y-12345031D02*
X11277324Y-12335508D01*
X11277324Y-12335508D02*
X11296372Y-12325984D01*
X11448753Y-12506936D02*
X11458277Y-12516460D01*
X11458277Y-12516460D02*
X11448753Y-12525984D01*
X11448753Y-12525984D02*
X11439229Y-12516460D01*
X11439229Y-12516460D02*
X11448753Y-12506936D01*
X11448753Y-12506936D02*
X11448753Y-12525984D01*
X11629705Y-12325984D02*
X11591610Y-12325984D01*
X11591610Y-12325984D02*
X11572562Y-12335508D01*
X11572562Y-12335508D02*
X11563039Y-12345031D01*
X11563039Y-12345031D02*
X11543991Y-12373603D01*
X11543991Y-12373603D02*
X11534467Y-12411698D01*
X11534467Y-12411698D02*
X11534467Y-12487888D01*
X11534467Y-12487888D02*
X11543991Y-12506936D01*
X11543991Y-12506936D02*
X11553515Y-12516460D01*
X11553515Y-12516460D02*
X11572562Y-12525984D01*
X11572562Y-12525984D02*
X11610658Y-12525984D01*
X11610658Y-12525984D02*
X11629705Y-12516460D01*
X11629705Y-12516460D02*
X11639229Y-12506936D01*
X11639229Y-12506936D02*
X11648753Y-12487888D01*
X11648753Y-12487888D02*
X11648753Y-12440269D01*
X11648753Y-12440269D02*
X11639229Y-12421222D01*
X11639229Y-12421222D02*
X11629705Y-12411698D01*
X11629705Y-12411698D02*
X11610658Y-12402174D01*
X11610658Y-12402174D02*
X11572562Y-12402174D01*
X11572562Y-12402174D02*
X11553515Y-12411698D01*
X11553515Y-12411698D02*
X11543991Y-12421222D01*
X11543991Y-12421222D02*
X11534467Y-12440269D01*
X11829705Y-12325984D02*
X11734467Y-12325984D01*
X11734467Y-12325984D02*
X11724943Y-12421222D01*
X11724943Y-12421222D02*
X11734467Y-12411698D01*
X11734467Y-12411698D02*
X11753515Y-12402174D01*
X11753515Y-12402174D02*
X11801134Y-12402174D01*
X11801134Y-12402174D02*
X11820182Y-12411698D01*
X11820182Y-12411698D02*
X11829705Y-12421222D01*
X11829705Y-12421222D02*
X11839229Y-12440269D01*
X11839229Y-12440269D02*
X11839229Y-12487888D01*
X11839229Y-12487888D02*
X11829705Y-12506936D01*
X11829705Y-12506936D02*
X11820182Y-12516460D01*
X11820182Y-12516460D02*
X11801134Y-12525984D01*
X11801134Y-12525984D02*
X11753515Y-12525984D01*
X11753515Y-12525984D02*
X11734467Y-12516460D01*
X11734467Y-12516460D02*
X11724943Y-12506936D01*
X11963039Y-12325984D02*
X11982086Y-12325984D01*
X11982086Y-12325984D02*
X12001134Y-12335508D01*
X12001134Y-12335508D02*
X12010658Y-12345031D01*
X12010658Y-12345031D02*
X12020182Y-12364079D01*
X12020182Y-12364079D02*
X12029705Y-12402174D01*
X12029705Y-12402174D02*
X12029705Y-12449793D01*
X12029705Y-12449793D02*
X12020182Y-12487888D01*
X12020182Y-12487888D02*
X12010658Y-12506936D01*
X12010658Y-12506936D02*
X12001134Y-12516460D01*
X12001134Y-12516460D02*
X11982086Y-12525984D01*
X11982086Y-12525984D02*
X11963039Y-12525984D01*
X11963039Y-12525984D02*
X11943991Y-12516460D01*
X11943991Y-12516460D02*
X11934467Y-12506936D01*
X11934467Y-12506936D02*
X11924943Y-12487888D01*
X11924943Y-12487888D02*
X11915420Y-12449793D01*
X11915420Y-12449793D02*
X11915420Y-12402174D01*
X11915420Y-12402174D02*
X11924943Y-12364079D01*
X11924943Y-12364079D02*
X11934467Y-12345031D01*
X11934467Y-12345031D02*
X11943991Y-12335508D01*
X11943991Y-12335508D02*
X11963039Y-12325984D01*
X12115420Y-12525984D02*
X12115420Y-12392650D01*
X12115420Y-12411698D02*
X12124943Y-12402174D01*
X12124943Y-12402174D02*
X12143991Y-12392650D01*
X12143991Y-12392650D02*
X12172563Y-12392650D01*
X12172563Y-12392650D02*
X12191610Y-12402174D01*
X12191610Y-12402174D02*
X12201134Y-12421222D01*
X12201134Y-12421222D02*
X12201134Y-12525984D01*
X12201134Y-12421222D02*
X12210658Y-12402174D01*
X12210658Y-12402174D02*
X12229705Y-12392650D01*
X12229705Y-12392650D02*
X12258277Y-12392650D01*
X12258277Y-12392650D02*
X12277324Y-12402174D01*
X12277324Y-12402174D02*
X12286848Y-12421222D01*
X12286848Y-12421222D02*
X12286848Y-12525984D01*
X12382086Y-12525984D02*
X12382086Y-12392650D01*
X12382086Y-12411698D02*
X12391610Y-12402174D01*
X12391610Y-12402174D02*
X12410658Y-12392650D01*
X12410658Y-12392650D02*
X12439229Y-12392650D01*
X12439229Y-12392650D02*
X12458277Y-12402174D01*
X12458277Y-12402174D02*
X12467801Y-12421222D01*
X12467801Y-12421222D02*
X12467801Y-12525984D01*
X12467801Y-12421222D02*
X12477324Y-12402174D01*
X12477324Y-12402174D02*
X12496372Y-12392650D01*
X12496372Y-12392650D02*
X12524943Y-12392650D01*
X12524943Y-12392650D02*
X12543991Y-12402174D01*
X12543991Y-12402174D02*
X12553515Y-12421222D01*
X12553515Y-12421222D02*
X12553515Y-12525984D01*
X12943991Y-12316460D02*
X12772563Y-12573603D01*
X13201134Y-12325984D02*
X13220182Y-12325984D01*
X13220182Y-12325984D02*
X13239229Y-12335508D01*
X13239229Y-12335508D02*
X13248753Y-12345031D01*
X13248753Y-12345031D02*
X13258277Y-12364079D01*
X13258277Y-12364079D02*
X13267801Y-12402174D01*
X13267801Y-12402174D02*
X13267801Y-12449793D01*
X13267801Y-12449793D02*
X13258277Y-12487888D01*
X13258277Y-12487888D02*
X13248753Y-12506936D01*
X13248753Y-12506936D02*
X13239229Y-12516460D01*
X13239229Y-12516460D02*
X13220182Y-12525984D01*
X13220182Y-12525984D02*
X13201134Y-12525984D01*
X13201134Y-12525984D02*
X13182086Y-12516460D01*
X13182086Y-12516460D02*
X13172563Y-12506936D01*
X13172563Y-12506936D02*
X13163039Y-12487888D01*
X13163039Y-12487888D02*
X13153515Y-12449793D01*
X13153515Y-12449793D02*
X13153515Y-12402174D01*
X13153515Y-12402174D02*
X13163039Y-12364079D01*
X13163039Y-12364079D02*
X13172563Y-12345031D01*
X13172563Y-12345031D02*
X13182086Y-12335508D01*
X13182086Y-12335508D02*
X13201134Y-12325984D01*
X13353515Y-12506936D02*
X13363039Y-12516460D01*
X13363039Y-12516460D02*
X13353515Y-12525984D01*
X13353515Y-12525984D02*
X13343991Y-12516460D01*
X13343991Y-12516460D02*
X13353515Y-12506936D01*
X13353515Y-12506936D02*
X13353515Y-12525984D01*
X13486848Y-12325984D02*
X13505896Y-12325984D01*
X13505896Y-12325984D02*
X13524944Y-12335508D01*
X13524944Y-12335508D02*
X13534467Y-12345031D01*
X13534467Y-12345031D02*
X13543991Y-12364079D01*
X13543991Y-12364079D02*
X13553515Y-12402174D01*
X13553515Y-12402174D02*
X13553515Y-12449793D01*
X13553515Y-12449793D02*
X13543991Y-12487888D01*
X13543991Y-12487888D02*
X13534467Y-12506936D01*
X13534467Y-12506936D02*
X13524944Y-12516460D01*
X13524944Y-12516460D02*
X13505896Y-12525984D01*
X13505896Y-12525984D02*
X13486848Y-12525984D01*
X13486848Y-12525984D02*
X13467801Y-12516460D01*
X13467801Y-12516460D02*
X13458277Y-12506936D01*
X13458277Y-12506936D02*
X13448753Y-12487888D01*
X13448753Y-12487888D02*
X13439229Y-12449793D01*
X13439229Y-12449793D02*
X13439229Y-12402174D01*
X13439229Y-12402174D02*
X13448753Y-12364079D01*
X13448753Y-12364079D02*
X13458277Y-12345031D01*
X13458277Y-12345031D02*
X13467801Y-12335508D01*
X13467801Y-12335508D02*
X13486848Y-12325984D01*
X13629706Y-12345031D02*
X13639229Y-12335508D01*
X13639229Y-12335508D02*
X13658277Y-12325984D01*
X13658277Y-12325984D02*
X13705896Y-12325984D01*
X13705896Y-12325984D02*
X13724944Y-12335508D01*
X13724944Y-12335508D02*
X13734467Y-12345031D01*
X13734467Y-12345031D02*
X13743991Y-12364079D01*
X13743991Y-12364079D02*
X13743991Y-12383127D01*
X13743991Y-12383127D02*
X13734467Y-12411698D01*
X13734467Y-12411698D02*
X13620182Y-12525984D01*
X13620182Y-12525984D02*
X13743991Y-12525984D01*
X13924944Y-12325984D02*
X13829706Y-12325984D01*
X13829706Y-12325984D02*
X13820182Y-12421222D01*
X13820182Y-12421222D02*
X13829706Y-12411698D01*
X13829706Y-12411698D02*
X13848753Y-12402174D01*
X13848753Y-12402174D02*
X13896372Y-12402174D01*
X13896372Y-12402174D02*
X13915420Y-12411698D01*
X13915420Y-12411698D02*
X13924944Y-12421222D01*
X13924944Y-12421222D02*
X13934467Y-12440269D01*
X13934467Y-12440269D02*
X13934467Y-12487888D01*
X13934467Y-12487888D02*
X13924944Y-12506936D01*
X13924944Y-12506936D02*
X13915420Y-12516460D01*
X13915420Y-12516460D02*
X13896372Y-12525984D01*
X13896372Y-12525984D02*
X13848753Y-12525984D01*
X13848753Y-12525984D02*
X13829706Y-12516460D01*
X13829706Y-12516460D02*
X13820182Y-12506936D01*
X14105896Y-12325984D02*
X14067801Y-12325984D01*
X14067801Y-12325984D02*
X14048753Y-12335508D01*
X14048753Y-12335508D02*
X14039229Y-12345031D01*
X14039229Y-12345031D02*
X14020182Y-12373603D01*
X14020182Y-12373603D02*
X14010658Y-12411698D01*
X14010658Y-12411698D02*
X14010658Y-12487888D01*
X14010658Y-12487888D02*
X14020182Y-12506936D01*
X14020182Y-12506936D02*
X14029706Y-12516460D01*
X14029706Y-12516460D02*
X14048753Y-12525984D01*
X14048753Y-12525984D02*
X14086848Y-12525984D01*
X14086848Y-12525984D02*
X14105896Y-12516460D01*
X14105896Y-12516460D02*
X14115420Y-12506936D01*
X14115420Y-12506936D02*
X14124944Y-12487888D01*
X14124944Y-12487888D02*
X14124944Y-12440269D01*
X14124944Y-12440269D02*
X14115420Y-12421222D01*
X14115420Y-12421222D02*
X14105896Y-12411698D01*
X14105896Y-12411698D02*
X14086848Y-12402174D01*
X14086848Y-12402174D02*
X14048753Y-12402174D01*
X14048753Y-12402174D02*
X14029706Y-12411698D01*
X14029706Y-12411698D02*
X14020182Y-12421222D01*
X14020182Y-12421222D02*
X14010658Y-12440269D01*
X14201134Y-12325984D02*
X14201134Y-12364079D01*
X14277325Y-12325984D02*
X14277325Y-12364079D01*
X14572563Y-12602174D02*
X14563039Y-12592650D01*
X14563039Y-12592650D02*
X14543991Y-12564079D01*
X14543991Y-12564079D02*
X14534468Y-12545031D01*
X14534468Y-12545031D02*
X14524944Y-12516460D01*
X14524944Y-12516460D02*
X14515420Y-12468841D01*
X14515420Y-12468841D02*
X14515420Y-12430746D01*
X14515420Y-12430746D02*
X14524944Y-12383127D01*
X14524944Y-12383127D02*
X14534468Y-12354555D01*
X14534468Y-12354555D02*
X14543991Y-12335508D01*
X14543991Y-12335508D02*
X14563039Y-12306936D01*
X14563039Y-12306936D02*
X14572563Y-12297412D01*
X14734468Y-12392650D02*
X14734468Y-12525984D01*
X14686848Y-12316460D02*
X14639229Y-12459317D01*
X14639229Y-12459317D02*
X14763039Y-12459317D01*
X14991610Y-12525984D02*
X14991610Y-12325984D01*
X15077325Y-12525984D02*
X15077325Y-12421222D01*
X15077325Y-12421222D02*
X15067801Y-12402174D01*
X15067801Y-12402174D02*
X15048753Y-12392650D01*
X15048753Y-12392650D02*
X15020182Y-12392650D01*
X15020182Y-12392650D02*
X15001134Y-12402174D01*
X15001134Y-12402174D02*
X14991610Y-12411698D01*
X15201134Y-12525984D02*
X15182087Y-12516460D01*
X15182087Y-12516460D02*
X15172563Y-12506936D01*
X15172563Y-12506936D02*
X15163039Y-12487888D01*
X15163039Y-12487888D02*
X15163039Y-12430746D01*
X15163039Y-12430746D02*
X15172563Y-12411698D01*
X15172563Y-12411698D02*
X15182087Y-12402174D01*
X15182087Y-12402174D02*
X15201134Y-12392650D01*
X15201134Y-12392650D02*
X15229706Y-12392650D01*
X15229706Y-12392650D02*
X15248753Y-12402174D01*
X15248753Y-12402174D02*
X15258277Y-12411698D01*
X15258277Y-12411698D02*
X15267801Y-12430746D01*
X15267801Y-12430746D02*
X15267801Y-12487888D01*
X15267801Y-12487888D02*
X15258277Y-12506936D01*
X15258277Y-12506936D02*
X15248753Y-12516460D01*
X15248753Y-12516460D02*
X15229706Y-12525984D01*
X15229706Y-12525984D02*
X15201134Y-12525984D01*
X15382087Y-12525984D02*
X15363039Y-12516460D01*
X15363039Y-12516460D02*
X15353515Y-12497412D01*
X15353515Y-12497412D02*
X15353515Y-12325984D01*
X15534468Y-12516460D02*
X15515420Y-12525984D01*
X15515420Y-12525984D02*
X15477325Y-12525984D01*
X15477325Y-12525984D02*
X15458277Y-12516460D01*
X15458277Y-12516460D02*
X15448753Y-12497412D01*
X15448753Y-12497412D02*
X15448753Y-12421222D01*
X15448753Y-12421222D02*
X15458277Y-12402174D01*
X15458277Y-12402174D02*
X15477325Y-12392650D01*
X15477325Y-12392650D02*
X15515420Y-12392650D01*
X15515420Y-12392650D02*
X15534468Y-12402174D01*
X15534468Y-12402174D02*
X15543991Y-12421222D01*
X15543991Y-12421222D02*
X15543991Y-12440269D01*
X15543991Y-12440269D02*
X15448753Y-12459317D01*
X15620182Y-12516460D02*
X15639230Y-12525984D01*
X15639230Y-12525984D02*
X15677325Y-12525984D01*
X15677325Y-12525984D02*
X15696372Y-12516460D01*
X15696372Y-12516460D02*
X15705896Y-12497412D01*
X15705896Y-12497412D02*
X15705896Y-12487888D01*
X15705896Y-12487888D02*
X15696372Y-12468841D01*
X15696372Y-12468841D02*
X15677325Y-12459317D01*
X15677325Y-12459317D02*
X15648753Y-12459317D01*
X15648753Y-12459317D02*
X15629706Y-12449793D01*
X15629706Y-12449793D02*
X15620182Y-12430746D01*
X15620182Y-12430746D02*
X15620182Y-12421222D01*
X15620182Y-12421222D02*
X15629706Y-12402174D01*
X15629706Y-12402174D02*
X15648753Y-12392650D01*
X15648753Y-12392650D02*
X15677325Y-12392650D01*
X15677325Y-12392650D02*
X15696372Y-12402174D01*
X15772563Y-12602174D02*
X15782087Y-12592650D01*
X15782087Y-12592650D02*
X15801134Y-12564079D01*
X15801134Y-12564079D02*
X15810658Y-12545031D01*
X15810658Y-12545031D02*
X15820182Y-12516460D01*
X15820182Y-12516460D02*
X15829706Y-12468841D01*
X15829706Y-12468841D02*
X15829706Y-12430746D01*
X15829706Y-12430746D02*
X15820182Y-12383127D01*
X15820182Y-12383127D02*
X15810658Y-12354555D01*
X15810658Y-12354555D02*
X15801134Y-12335508D01*
X15801134Y-12335508D02*
X15782087Y-12306936D01*
X15782087Y-12306936D02*
X15772563Y-12297412D01*
D12*
X10957500Y-12738500D02*
X10997500Y-12698500D01*
X10957500Y-12658500D01*
X10917500Y-12698500D01*
X10957500Y-12738500D01*
D11*
X11296372Y-12589984D02*
X11315420Y-12589984D01*
X11315420Y-12589984D02*
X11334467Y-12599508D01*
X11334467Y-12599508D02*
X11343991Y-12609031D01*
X11343991Y-12609031D02*
X11353515Y-12628079D01*
X11353515Y-12628079D02*
X11363039Y-12666174D01*
X11363039Y-12666174D02*
X11363039Y-12713793D01*
X11363039Y-12713793D02*
X11353515Y-12751888D01*
X11353515Y-12751888D02*
X11343991Y-12770936D01*
X11343991Y-12770936D02*
X11334467Y-12780460D01*
X11334467Y-12780460D02*
X11315420Y-12789984D01*
X11315420Y-12789984D02*
X11296372Y-12789984D01*
X11296372Y-12789984D02*
X11277324Y-12780460D01*
X11277324Y-12780460D02*
X11267801Y-12770936D01*
X11267801Y-12770936D02*
X11258277Y-12751888D01*
X11258277Y-12751888D02*
X11248753Y-12713793D01*
X11248753Y-12713793D02*
X11248753Y-12666174D01*
X11248753Y-12666174D02*
X11258277Y-12628079D01*
X11258277Y-12628079D02*
X11267801Y-12609031D01*
X11267801Y-12609031D02*
X11277324Y-12599508D01*
X11277324Y-12599508D02*
X11296372Y-12589984D01*
X11448753Y-12770936D02*
X11458277Y-12780460D01*
X11458277Y-12780460D02*
X11448753Y-12789984D01*
X11448753Y-12789984D02*
X11439229Y-12780460D01*
X11439229Y-12780460D02*
X11448753Y-12770936D01*
X11448753Y-12770936D02*
X11448753Y-12789984D01*
X11572562Y-12675698D02*
X11553515Y-12666174D01*
X11553515Y-12666174D02*
X11543991Y-12656650D01*
X11543991Y-12656650D02*
X11534467Y-12637603D01*
X11534467Y-12637603D02*
X11534467Y-12628079D01*
X11534467Y-12628079D02*
X11543991Y-12609031D01*
X11543991Y-12609031D02*
X11553515Y-12599508D01*
X11553515Y-12599508D02*
X11572562Y-12589984D01*
X11572562Y-12589984D02*
X11610658Y-12589984D01*
X11610658Y-12589984D02*
X11629705Y-12599508D01*
X11629705Y-12599508D02*
X11639229Y-12609031D01*
X11639229Y-12609031D02*
X11648753Y-12628079D01*
X11648753Y-12628079D02*
X11648753Y-12637603D01*
X11648753Y-12637603D02*
X11639229Y-12656650D01*
X11639229Y-12656650D02*
X11629705Y-12666174D01*
X11629705Y-12666174D02*
X11610658Y-12675698D01*
X11610658Y-12675698D02*
X11572562Y-12675698D01*
X11572562Y-12675698D02*
X11553515Y-12685222D01*
X11553515Y-12685222D02*
X11543991Y-12694746D01*
X11543991Y-12694746D02*
X11534467Y-12713793D01*
X11534467Y-12713793D02*
X11534467Y-12751888D01*
X11534467Y-12751888D02*
X11543991Y-12770936D01*
X11543991Y-12770936D02*
X11553515Y-12780460D01*
X11553515Y-12780460D02*
X11572562Y-12789984D01*
X11572562Y-12789984D02*
X11610658Y-12789984D01*
X11610658Y-12789984D02*
X11629705Y-12780460D01*
X11629705Y-12780460D02*
X11639229Y-12770936D01*
X11639229Y-12770936D02*
X11648753Y-12751888D01*
X11648753Y-12751888D02*
X11648753Y-12713793D01*
X11648753Y-12713793D02*
X11639229Y-12694746D01*
X11639229Y-12694746D02*
X11629705Y-12685222D01*
X11629705Y-12685222D02*
X11610658Y-12675698D01*
X11772562Y-12589984D02*
X11791610Y-12589984D01*
X11791610Y-12589984D02*
X11810658Y-12599508D01*
X11810658Y-12599508D02*
X11820182Y-12609031D01*
X11820182Y-12609031D02*
X11829705Y-12628079D01*
X11829705Y-12628079D02*
X11839229Y-12666174D01*
X11839229Y-12666174D02*
X11839229Y-12713793D01*
X11839229Y-12713793D02*
X11829705Y-12751888D01*
X11829705Y-12751888D02*
X11820182Y-12770936D01*
X11820182Y-12770936D02*
X11810658Y-12780460D01*
X11810658Y-12780460D02*
X11791610Y-12789984D01*
X11791610Y-12789984D02*
X11772562Y-12789984D01*
X11772562Y-12789984D02*
X11753515Y-12780460D01*
X11753515Y-12780460D02*
X11743991Y-12770936D01*
X11743991Y-12770936D02*
X11734467Y-12751888D01*
X11734467Y-12751888D02*
X11724943Y-12713793D01*
X11724943Y-12713793D02*
X11724943Y-12666174D01*
X11724943Y-12666174D02*
X11734467Y-12628079D01*
X11734467Y-12628079D02*
X11743991Y-12609031D01*
X11743991Y-12609031D02*
X11753515Y-12599508D01*
X11753515Y-12599508D02*
X11772562Y-12589984D01*
X11963039Y-12589984D02*
X11982086Y-12589984D01*
X11982086Y-12589984D02*
X12001134Y-12599508D01*
X12001134Y-12599508D02*
X12010658Y-12609031D01*
X12010658Y-12609031D02*
X12020182Y-12628079D01*
X12020182Y-12628079D02*
X12029705Y-12666174D01*
X12029705Y-12666174D02*
X12029705Y-12713793D01*
X12029705Y-12713793D02*
X12020182Y-12751888D01*
X12020182Y-12751888D02*
X12010658Y-12770936D01*
X12010658Y-12770936D02*
X12001134Y-12780460D01*
X12001134Y-12780460D02*
X11982086Y-12789984D01*
X11982086Y-12789984D02*
X11963039Y-12789984D01*
X11963039Y-12789984D02*
X11943991Y-12780460D01*
X11943991Y-12780460D02*
X11934467Y-12770936D01*
X11934467Y-12770936D02*
X11924943Y-12751888D01*
X11924943Y-12751888D02*
X11915420Y-12713793D01*
X11915420Y-12713793D02*
X11915420Y-12666174D01*
X11915420Y-12666174D02*
X11924943Y-12628079D01*
X11924943Y-12628079D02*
X11934467Y-12609031D01*
X11934467Y-12609031D02*
X11943991Y-12599508D01*
X11943991Y-12599508D02*
X11963039Y-12589984D01*
X12115420Y-12789984D02*
X12115420Y-12656650D01*
X12115420Y-12675698D02*
X12124943Y-12666174D01*
X12124943Y-12666174D02*
X12143991Y-12656650D01*
X12143991Y-12656650D02*
X12172563Y-12656650D01*
X12172563Y-12656650D02*
X12191610Y-12666174D01*
X12191610Y-12666174D02*
X12201134Y-12685222D01*
X12201134Y-12685222D02*
X12201134Y-12789984D01*
X12201134Y-12685222D02*
X12210658Y-12666174D01*
X12210658Y-12666174D02*
X12229705Y-12656650D01*
X12229705Y-12656650D02*
X12258277Y-12656650D01*
X12258277Y-12656650D02*
X12277324Y-12666174D01*
X12277324Y-12666174D02*
X12286848Y-12685222D01*
X12286848Y-12685222D02*
X12286848Y-12789984D01*
X12382086Y-12789984D02*
X12382086Y-12656650D01*
X12382086Y-12675698D02*
X12391610Y-12666174D01*
X12391610Y-12666174D02*
X12410658Y-12656650D01*
X12410658Y-12656650D02*
X12439229Y-12656650D01*
X12439229Y-12656650D02*
X12458277Y-12666174D01*
X12458277Y-12666174D02*
X12467801Y-12685222D01*
X12467801Y-12685222D02*
X12467801Y-12789984D01*
X12467801Y-12685222D02*
X12477324Y-12666174D01*
X12477324Y-12666174D02*
X12496372Y-12656650D01*
X12496372Y-12656650D02*
X12524943Y-12656650D01*
X12524943Y-12656650D02*
X12543991Y-12666174D01*
X12543991Y-12666174D02*
X12553515Y-12685222D01*
X12553515Y-12685222D02*
X12553515Y-12789984D01*
X12943991Y-12580460D02*
X12772563Y-12837603D01*
X13201134Y-12589984D02*
X13220182Y-12589984D01*
X13220182Y-12589984D02*
X13239229Y-12599508D01*
X13239229Y-12599508D02*
X13248753Y-12609031D01*
X13248753Y-12609031D02*
X13258277Y-12628079D01*
X13258277Y-12628079D02*
X13267801Y-12666174D01*
X13267801Y-12666174D02*
X13267801Y-12713793D01*
X13267801Y-12713793D02*
X13258277Y-12751888D01*
X13258277Y-12751888D02*
X13248753Y-12770936D01*
X13248753Y-12770936D02*
X13239229Y-12780460D01*
X13239229Y-12780460D02*
X13220182Y-12789984D01*
X13220182Y-12789984D02*
X13201134Y-12789984D01*
X13201134Y-12789984D02*
X13182086Y-12780460D01*
X13182086Y-12780460D02*
X13172563Y-12770936D01*
X13172563Y-12770936D02*
X13163039Y-12751888D01*
X13163039Y-12751888D02*
X13153515Y-12713793D01*
X13153515Y-12713793D02*
X13153515Y-12666174D01*
X13153515Y-12666174D02*
X13163039Y-12628079D01*
X13163039Y-12628079D02*
X13172563Y-12609031D01*
X13172563Y-12609031D02*
X13182086Y-12599508D01*
X13182086Y-12599508D02*
X13201134Y-12589984D01*
X13353515Y-12770936D02*
X13363039Y-12780460D01*
X13363039Y-12780460D02*
X13353515Y-12789984D01*
X13353515Y-12789984D02*
X13343991Y-12780460D01*
X13343991Y-12780460D02*
X13353515Y-12770936D01*
X13353515Y-12770936D02*
X13353515Y-12789984D01*
X13486848Y-12589984D02*
X13505896Y-12589984D01*
X13505896Y-12589984D02*
X13524944Y-12599508D01*
X13524944Y-12599508D02*
X13534467Y-12609031D01*
X13534467Y-12609031D02*
X13543991Y-12628079D01*
X13543991Y-12628079D02*
X13553515Y-12666174D01*
X13553515Y-12666174D02*
X13553515Y-12713793D01*
X13553515Y-12713793D02*
X13543991Y-12751888D01*
X13543991Y-12751888D02*
X13534467Y-12770936D01*
X13534467Y-12770936D02*
X13524944Y-12780460D01*
X13524944Y-12780460D02*
X13505896Y-12789984D01*
X13505896Y-12789984D02*
X13486848Y-12789984D01*
X13486848Y-12789984D02*
X13467801Y-12780460D01*
X13467801Y-12780460D02*
X13458277Y-12770936D01*
X13458277Y-12770936D02*
X13448753Y-12751888D01*
X13448753Y-12751888D02*
X13439229Y-12713793D01*
X13439229Y-12713793D02*
X13439229Y-12666174D01*
X13439229Y-12666174D02*
X13448753Y-12628079D01*
X13448753Y-12628079D02*
X13458277Y-12609031D01*
X13458277Y-12609031D02*
X13467801Y-12599508D01*
X13467801Y-12599508D02*
X13486848Y-12589984D01*
X13620182Y-12589984D02*
X13743991Y-12589984D01*
X13743991Y-12589984D02*
X13677325Y-12666174D01*
X13677325Y-12666174D02*
X13705896Y-12666174D01*
X13705896Y-12666174D02*
X13724944Y-12675698D01*
X13724944Y-12675698D02*
X13734467Y-12685222D01*
X13734467Y-12685222D02*
X13743991Y-12704269D01*
X13743991Y-12704269D02*
X13743991Y-12751888D01*
X13743991Y-12751888D02*
X13734467Y-12770936D01*
X13734467Y-12770936D02*
X13724944Y-12780460D01*
X13724944Y-12780460D02*
X13705896Y-12789984D01*
X13705896Y-12789984D02*
X13648753Y-12789984D01*
X13648753Y-12789984D02*
X13629706Y-12780460D01*
X13629706Y-12780460D02*
X13620182Y-12770936D01*
X13934467Y-12789984D02*
X13820182Y-12789984D01*
X13877325Y-12789984D02*
X13877325Y-12589984D01*
X13877325Y-12589984D02*
X13858277Y-12618555D01*
X13858277Y-12618555D02*
X13839229Y-12637603D01*
X13839229Y-12637603D02*
X13820182Y-12647127D01*
X14115420Y-12589984D02*
X14020182Y-12589984D01*
X14020182Y-12589984D02*
X14010658Y-12685222D01*
X14010658Y-12685222D02*
X14020182Y-12675698D01*
X14020182Y-12675698D02*
X14039229Y-12666174D01*
X14039229Y-12666174D02*
X14086848Y-12666174D01*
X14086848Y-12666174D02*
X14105896Y-12675698D01*
X14105896Y-12675698D02*
X14115420Y-12685222D01*
X14115420Y-12685222D02*
X14124944Y-12704269D01*
X14124944Y-12704269D02*
X14124944Y-12751888D01*
X14124944Y-12751888D02*
X14115420Y-12770936D01*
X14115420Y-12770936D02*
X14105896Y-12780460D01*
X14105896Y-12780460D02*
X14086848Y-12789984D01*
X14086848Y-12789984D02*
X14039229Y-12789984D01*
X14039229Y-12789984D02*
X14020182Y-12780460D01*
X14020182Y-12780460D02*
X14010658Y-12770936D01*
X14201134Y-12589984D02*
X14201134Y-12628079D01*
X14277325Y-12589984D02*
X14277325Y-12628079D01*
X14572563Y-12866174D02*
X14563039Y-12856650D01*
X14563039Y-12856650D02*
X14543991Y-12828079D01*
X14543991Y-12828079D02*
X14534468Y-12809031D01*
X14534468Y-12809031D02*
X14524944Y-12780460D01*
X14524944Y-12780460D02*
X14515420Y-12732841D01*
X14515420Y-12732841D02*
X14515420Y-12694746D01*
X14515420Y-12694746D02*
X14524944Y-12647127D01*
X14524944Y-12647127D02*
X14534468Y-12618555D01*
X14534468Y-12618555D02*
X14543991Y-12599508D01*
X14543991Y-12599508D02*
X14563039Y-12570936D01*
X14563039Y-12570936D02*
X14572563Y-12561412D01*
X14639229Y-12609031D02*
X14648753Y-12599508D01*
X14648753Y-12599508D02*
X14667801Y-12589984D01*
X14667801Y-12589984D02*
X14715420Y-12589984D01*
X14715420Y-12589984D02*
X14734468Y-12599508D01*
X14734468Y-12599508D02*
X14743991Y-12609031D01*
X14743991Y-12609031D02*
X14753515Y-12628079D01*
X14753515Y-12628079D02*
X14753515Y-12647127D01*
X14753515Y-12647127D02*
X14743991Y-12675698D01*
X14743991Y-12675698D02*
X14629706Y-12789984D01*
X14629706Y-12789984D02*
X14753515Y-12789984D01*
X14877325Y-12589984D02*
X14896372Y-12589984D01*
X14896372Y-12589984D02*
X14915420Y-12599508D01*
X14915420Y-12599508D02*
X14924944Y-12609031D01*
X14924944Y-12609031D02*
X14934468Y-12628079D01*
X14934468Y-12628079D02*
X14943991Y-12666174D01*
X14943991Y-12666174D02*
X14943991Y-12713793D01*
X14943991Y-12713793D02*
X14934468Y-12751888D01*
X14934468Y-12751888D02*
X14924944Y-12770936D01*
X14924944Y-12770936D02*
X14915420Y-12780460D01*
X14915420Y-12780460D02*
X14896372Y-12789984D01*
X14896372Y-12789984D02*
X14877325Y-12789984D01*
X14877325Y-12789984D02*
X14858277Y-12780460D01*
X14858277Y-12780460D02*
X14848753Y-12770936D01*
X14848753Y-12770936D02*
X14839229Y-12751888D01*
X14839229Y-12751888D02*
X14829706Y-12713793D01*
X14829706Y-12713793D02*
X14829706Y-12666174D01*
X14829706Y-12666174D02*
X14839229Y-12628079D01*
X14839229Y-12628079D02*
X14848753Y-12609031D01*
X14848753Y-12609031D02*
X14858277Y-12599508D01*
X14858277Y-12599508D02*
X14877325Y-12589984D01*
X15058277Y-12675698D02*
X15039229Y-12666174D01*
X15039229Y-12666174D02*
X15029706Y-12656650D01*
X15029706Y-12656650D02*
X15020182Y-12637603D01*
X15020182Y-12637603D02*
X15020182Y-12628079D01*
X15020182Y-12628079D02*
X15029706Y-12609031D01*
X15029706Y-12609031D02*
X15039229Y-12599508D01*
X15039229Y-12599508D02*
X15058277Y-12589984D01*
X15058277Y-12589984D02*
X15096372Y-12589984D01*
X15096372Y-12589984D02*
X15115420Y-12599508D01*
X15115420Y-12599508D02*
X15124944Y-12609031D01*
X15124944Y-12609031D02*
X15134468Y-12628079D01*
X15134468Y-12628079D02*
X15134468Y-12637603D01*
X15134468Y-12637603D02*
X15124944Y-12656650D01*
X15124944Y-12656650D02*
X15115420Y-12666174D01*
X15115420Y-12666174D02*
X15096372Y-12675698D01*
X15096372Y-12675698D02*
X15058277Y-12675698D01*
X15058277Y-12675698D02*
X15039229Y-12685222D01*
X15039229Y-12685222D02*
X15029706Y-12694746D01*
X15029706Y-12694746D02*
X15020182Y-12713793D01*
X15020182Y-12713793D02*
X15020182Y-12751888D01*
X15020182Y-12751888D02*
X15029706Y-12770936D01*
X15029706Y-12770936D02*
X15039229Y-12780460D01*
X15039229Y-12780460D02*
X15058277Y-12789984D01*
X15058277Y-12789984D02*
X15096372Y-12789984D01*
X15096372Y-12789984D02*
X15115420Y-12780460D01*
X15115420Y-12780460D02*
X15124944Y-12770936D01*
X15124944Y-12770936D02*
X15134468Y-12751888D01*
X15134468Y-12751888D02*
X15134468Y-12713793D01*
X15134468Y-12713793D02*
X15124944Y-12694746D01*
X15124944Y-12694746D02*
X15115420Y-12685222D01*
X15115420Y-12685222D02*
X15096372Y-12675698D01*
X15372563Y-12789984D02*
X15372563Y-12589984D01*
X15458277Y-12789984D02*
X15458277Y-12685222D01*
X15458277Y-12685222D02*
X15448753Y-12666174D01*
X15448753Y-12666174D02*
X15429706Y-12656650D01*
X15429706Y-12656650D02*
X15401134Y-12656650D01*
X15401134Y-12656650D02*
X15382087Y-12666174D01*
X15382087Y-12666174D02*
X15372563Y-12675698D01*
X15582087Y-12789984D02*
X15563039Y-12780460D01*
X15563039Y-12780460D02*
X15553515Y-12770936D01*
X15553515Y-12770936D02*
X15543991Y-12751888D01*
X15543991Y-12751888D02*
X15543991Y-12694746D01*
X15543991Y-12694746D02*
X15553515Y-12675698D01*
X15553515Y-12675698D02*
X15563039Y-12666174D01*
X15563039Y-12666174D02*
X15582087Y-12656650D01*
X15582087Y-12656650D02*
X15610658Y-12656650D01*
X15610658Y-12656650D02*
X15629706Y-12666174D01*
X15629706Y-12666174D02*
X15639230Y-12675698D01*
X15639230Y-12675698D02*
X15648753Y-12694746D01*
X15648753Y-12694746D02*
X15648753Y-12751888D01*
X15648753Y-12751888D02*
X15639230Y-12770936D01*
X15639230Y-12770936D02*
X15629706Y-12780460D01*
X15629706Y-12780460D02*
X15610658Y-12789984D01*
X15610658Y-12789984D02*
X15582087Y-12789984D01*
X15763039Y-12789984D02*
X15743991Y-12780460D01*
X15743991Y-12780460D02*
X15734468Y-12761412D01*
X15734468Y-12761412D02*
X15734468Y-12589984D01*
X15915420Y-12780460D02*
X15896372Y-12789984D01*
X15896372Y-12789984D02*
X15858277Y-12789984D01*
X15858277Y-12789984D02*
X15839230Y-12780460D01*
X15839230Y-12780460D02*
X15829706Y-12761412D01*
X15829706Y-12761412D02*
X15829706Y-12685222D01*
X15829706Y-12685222D02*
X15839230Y-12666174D01*
X15839230Y-12666174D02*
X15858277Y-12656650D01*
X15858277Y-12656650D02*
X15896372Y-12656650D01*
X15896372Y-12656650D02*
X15915420Y-12666174D01*
X15915420Y-12666174D02*
X15924944Y-12685222D01*
X15924944Y-12685222D02*
X15924944Y-12704269D01*
X15924944Y-12704269D02*
X15829706Y-12723317D01*
X16001134Y-12780460D02*
X16020182Y-12789984D01*
X16020182Y-12789984D02*
X16058277Y-12789984D01*
X16058277Y-12789984D02*
X16077325Y-12780460D01*
X16077325Y-12780460D02*
X16086849Y-12761412D01*
X16086849Y-12761412D02*
X16086849Y-12751888D01*
X16086849Y-12751888D02*
X16077325Y-12732841D01*
X16077325Y-12732841D02*
X16058277Y-12723317D01*
X16058277Y-12723317D02*
X16029706Y-12723317D01*
X16029706Y-12723317D02*
X16010658Y-12713793D01*
X16010658Y-12713793D02*
X16001134Y-12694746D01*
X16001134Y-12694746D02*
X16001134Y-12685222D01*
X16001134Y-12685222D02*
X16010658Y-12666174D01*
X16010658Y-12666174D02*
X16029706Y-12656650D01*
X16029706Y-12656650D02*
X16058277Y-12656650D01*
X16058277Y-12656650D02*
X16077325Y-12666174D01*
X16153515Y-12866174D02*
X16163039Y-12856650D01*
X16163039Y-12856650D02*
X16182087Y-12828079D01*
X16182087Y-12828079D02*
X16191611Y-12809031D01*
X16191611Y-12809031D02*
X16201134Y-12780460D01*
X16201134Y-12780460D02*
X16210658Y-12732841D01*
X16210658Y-12732841D02*
X16210658Y-12694746D01*
X16210658Y-12694746D02*
X16201134Y-12647127D01*
X16201134Y-12647127D02*
X16191611Y-12618555D01*
X16191611Y-12618555D02*
X16182087Y-12599508D01*
X16182087Y-12599508D02*
X16163039Y-12570936D01*
X16163039Y-12570936D02*
X16153515Y-12561412D01*
D13*
X10837500Y-12882500D02*
X10997500Y-13042500D01*
X10997500Y-12882500D02*
X10837500Y-13042500D01*
X10997500Y-12962500D02*
G75*
G02*
X10837500Y-12962500I-80000J0D01*
G01*
X10837500Y-12962500D02*
G75*
G02*
X10997500Y-12962500I80000J0D01*
G01*
D11*
X11363039Y-13053984D02*
X11248753Y-13053984D01*
X11305896Y-13053984D02*
X11305896Y-12853984D01*
X11305896Y-12853984D02*
X11286848Y-12882555D01*
X11286848Y-12882555D02*
X11267801Y-12901603D01*
X11267801Y-12901603D02*
X11248753Y-12911127D01*
X11448753Y-13034936D02*
X11458277Y-13044460D01*
X11458277Y-13044460D02*
X11448753Y-13053984D01*
X11448753Y-13053984D02*
X11439229Y-13044460D01*
X11439229Y-13044460D02*
X11448753Y-13034936D01*
X11448753Y-13034936D02*
X11448753Y-13053984D01*
X11629705Y-12853984D02*
X11591610Y-12853984D01*
X11591610Y-12853984D02*
X11572562Y-12863508D01*
X11572562Y-12863508D02*
X11563039Y-12873031D01*
X11563039Y-12873031D02*
X11543991Y-12901603D01*
X11543991Y-12901603D02*
X11534467Y-12939698D01*
X11534467Y-12939698D02*
X11534467Y-13015888D01*
X11534467Y-13015888D02*
X11543991Y-13034936D01*
X11543991Y-13034936D02*
X11553515Y-13044460D01*
X11553515Y-13044460D02*
X11572562Y-13053984D01*
X11572562Y-13053984D02*
X11610658Y-13053984D01*
X11610658Y-13053984D02*
X11629705Y-13044460D01*
X11629705Y-13044460D02*
X11639229Y-13034936D01*
X11639229Y-13034936D02*
X11648753Y-13015888D01*
X11648753Y-13015888D02*
X11648753Y-12968269D01*
X11648753Y-12968269D02*
X11639229Y-12949222D01*
X11639229Y-12949222D02*
X11629705Y-12939698D01*
X11629705Y-12939698D02*
X11610658Y-12930174D01*
X11610658Y-12930174D02*
X11572562Y-12930174D01*
X11572562Y-12930174D02*
X11553515Y-12939698D01*
X11553515Y-12939698D02*
X11543991Y-12949222D01*
X11543991Y-12949222D02*
X11534467Y-12968269D01*
X11772562Y-12853984D02*
X11791610Y-12853984D01*
X11791610Y-12853984D02*
X11810658Y-12863508D01*
X11810658Y-12863508D02*
X11820182Y-12873031D01*
X11820182Y-12873031D02*
X11829705Y-12892079D01*
X11829705Y-12892079D02*
X11839229Y-12930174D01*
X11839229Y-12930174D02*
X11839229Y-12977793D01*
X11839229Y-12977793D02*
X11829705Y-13015888D01*
X11829705Y-13015888D02*
X11820182Y-13034936D01*
X11820182Y-13034936D02*
X11810658Y-13044460D01*
X11810658Y-13044460D02*
X11791610Y-13053984D01*
X11791610Y-13053984D02*
X11772562Y-13053984D01*
X11772562Y-13053984D02*
X11753515Y-13044460D01*
X11753515Y-13044460D02*
X11743991Y-13034936D01*
X11743991Y-13034936D02*
X11734467Y-13015888D01*
X11734467Y-13015888D02*
X11724943Y-12977793D01*
X11724943Y-12977793D02*
X11724943Y-12930174D01*
X11724943Y-12930174D02*
X11734467Y-12892079D01*
X11734467Y-12892079D02*
X11743991Y-12873031D01*
X11743991Y-12873031D02*
X11753515Y-12863508D01*
X11753515Y-12863508D02*
X11772562Y-12853984D01*
X11963039Y-12853984D02*
X11982086Y-12853984D01*
X11982086Y-12853984D02*
X12001134Y-12863508D01*
X12001134Y-12863508D02*
X12010658Y-12873031D01*
X12010658Y-12873031D02*
X12020182Y-12892079D01*
X12020182Y-12892079D02*
X12029705Y-12930174D01*
X12029705Y-12930174D02*
X12029705Y-12977793D01*
X12029705Y-12977793D02*
X12020182Y-13015888D01*
X12020182Y-13015888D02*
X12010658Y-13034936D01*
X12010658Y-13034936D02*
X12001134Y-13044460D01*
X12001134Y-13044460D02*
X11982086Y-13053984D01*
X11982086Y-13053984D02*
X11963039Y-13053984D01*
X11963039Y-13053984D02*
X11943991Y-13044460D01*
X11943991Y-13044460D02*
X11934467Y-13034936D01*
X11934467Y-13034936D02*
X11924943Y-13015888D01*
X11924943Y-13015888D02*
X11915420Y-12977793D01*
X11915420Y-12977793D02*
X11915420Y-12930174D01*
X11915420Y-12930174D02*
X11924943Y-12892079D01*
X11924943Y-12892079D02*
X11934467Y-12873031D01*
X11934467Y-12873031D02*
X11943991Y-12863508D01*
X11943991Y-12863508D02*
X11963039Y-12853984D01*
X12115420Y-13053984D02*
X12115420Y-12920650D01*
X12115420Y-12939698D02*
X12124943Y-12930174D01*
X12124943Y-12930174D02*
X12143991Y-12920650D01*
X12143991Y-12920650D02*
X12172563Y-12920650D01*
X12172563Y-12920650D02*
X12191610Y-12930174D01*
X12191610Y-12930174D02*
X12201134Y-12949222D01*
X12201134Y-12949222D02*
X12201134Y-13053984D01*
X12201134Y-12949222D02*
X12210658Y-12930174D01*
X12210658Y-12930174D02*
X12229705Y-12920650D01*
X12229705Y-12920650D02*
X12258277Y-12920650D01*
X12258277Y-12920650D02*
X12277324Y-12930174D01*
X12277324Y-12930174D02*
X12286848Y-12949222D01*
X12286848Y-12949222D02*
X12286848Y-13053984D01*
X12382086Y-13053984D02*
X12382086Y-12920650D01*
X12382086Y-12939698D02*
X12391610Y-12930174D01*
X12391610Y-12930174D02*
X12410658Y-12920650D01*
X12410658Y-12920650D02*
X12439229Y-12920650D01*
X12439229Y-12920650D02*
X12458277Y-12930174D01*
X12458277Y-12930174D02*
X12467801Y-12949222D01*
X12467801Y-12949222D02*
X12467801Y-13053984D01*
X12467801Y-12949222D02*
X12477324Y-12930174D01*
X12477324Y-12930174D02*
X12496372Y-12920650D01*
X12496372Y-12920650D02*
X12524943Y-12920650D01*
X12524943Y-12920650D02*
X12543991Y-12930174D01*
X12543991Y-12930174D02*
X12553515Y-12949222D01*
X12553515Y-12949222D02*
X12553515Y-13053984D01*
X12943991Y-12844460D02*
X12772563Y-13101603D01*
X13201134Y-12853984D02*
X13220182Y-12853984D01*
X13220182Y-12853984D02*
X13239229Y-12863508D01*
X13239229Y-12863508D02*
X13248753Y-12873031D01*
X13248753Y-12873031D02*
X13258277Y-12892079D01*
X13258277Y-12892079D02*
X13267801Y-12930174D01*
X13267801Y-12930174D02*
X13267801Y-12977793D01*
X13267801Y-12977793D02*
X13258277Y-13015888D01*
X13258277Y-13015888D02*
X13248753Y-13034936D01*
X13248753Y-13034936D02*
X13239229Y-13044460D01*
X13239229Y-13044460D02*
X13220182Y-13053984D01*
X13220182Y-13053984D02*
X13201134Y-13053984D01*
X13201134Y-13053984D02*
X13182086Y-13044460D01*
X13182086Y-13044460D02*
X13172563Y-13034936D01*
X13172563Y-13034936D02*
X13163039Y-13015888D01*
X13163039Y-13015888D02*
X13153515Y-12977793D01*
X13153515Y-12977793D02*
X13153515Y-12930174D01*
X13153515Y-12930174D02*
X13163039Y-12892079D01*
X13163039Y-12892079D02*
X13172563Y-12873031D01*
X13172563Y-12873031D02*
X13182086Y-12863508D01*
X13182086Y-12863508D02*
X13201134Y-12853984D01*
X13353515Y-13034936D02*
X13363039Y-13044460D01*
X13363039Y-13044460D02*
X13353515Y-13053984D01*
X13353515Y-13053984D02*
X13343991Y-13044460D01*
X13343991Y-13044460D02*
X13353515Y-13034936D01*
X13353515Y-13034936D02*
X13353515Y-13053984D01*
X13486848Y-12853984D02*
X13505896Y-12853984D01*
X13505896Y-12853984D02*
X13524944Y-12863508D01*
X13524944Y-12863508D02*
X13534467Y-12873031D01*
X13534467Y-12873031D02*
X13543991Y-12892079D01*
X13543991Y-12892079D02*
X13553515Y-12930174D01*
X13553515Y-12930174D02*
X13553515Y-12977793D01*
X13553515Y-12977793D02*
X13543991Y-13015888D01*
X13543991Y-13015888D02*
X13534467Y-13034936D01*
X13534467Y-13034936D02*
X13524944Y-13044460D01*
X13524944Y-13044460D02*
X13505896Y-13053984D01*
X13505896Y-13053984D02*
X13486848Y-13053984D01*
X13486848Y-13053984D02*
X13467801Y-13044460D01*
X13467801Y-13044460D02*
X13458277Y-13034936D01*
X13458277Y-13034936D02*
X13448753Y-13015888D01*
X13448753Y-13015888D02*
X13439229Y-12977793D01*
X13439229Y-12977793D02*
X13439229Y-12930174D01*
X13439229Y-12930174D02*
X13448753Y-12892079D01*
X13448753Y-12892079D02*
X13458277Y-12873031D01*
X13458277Y-12873031D02*
X13467801Y-12863508D01*
X13467801Y-12863508D02*
X13486848Y-12853984D01*
X13724944Y-12853984D02*
X13686848Y-12853984D01*
X13686848Y-12853984D02*
X13667801Y-12863508D01*
X13667801Y-12863508D02*
X13658277Y-12873031D01*
X13658277Y-12873031D02*
X13639229Y-12901603D01*
X13639229Y-12901603D02*
X13629706Y-12939698D01*
X13629706Y-12939698D02*
X13629706Y-13015888D01*
X13629706Y-13015888D02*
X13639229Y-13034936D01*
X13639229Y-13034936D02*
X13648753Y-13044460D01*
X13648753Y-13044460D02*
X13667801Y-13053984D01*
X13667801Y-13053984D02*
X13705896Y-13053984D01*
X13705896Y-13053984D02*
X13724944Y-13044460D01*
X13724944Y-13044460D02*
X13734467Y-13034936D01*
X13734467Y-13034936D02*
X13743991Y-13015888D01*
X13743991Y-13015888D02*
X13743991Y-12968269D01*
X13743991Y-12968269D02*
X13734467Y-12949222D01*
X13734467Y-12949222D02*
X13724944Y-12939698D01*
X13724944Y-12939698D02*
X13705896Y-12930174D01*
X13705896Y-12930174D02*
X13667801Y-12930174D01*
X13667801Y-12930174D02*
X13648753Y-12939698D01*
X13648753Y-12939698D02*
X13639229Y-12949222D01*
X13639229Y-12949222D02*
X13629706Y-12968269D01*
X13810658Y-12853984D02*
X13934467Y-12853984D01*
X13934467Y-12853984D02*
X13867801Y-12930174D01*
X13867801Y-12930174D02*
X13896372Y-12930174D01*
X13896372Y-12930174D02*
X13915420Y-12939698D01*
X13915420Y-12939698D02*
X13924944Y-12949222D01*
X13924944Y-12949222D02*
X13934467Y-12968269D01*
X13934467Y-12968269D02*
X13934467Y-13015888D01*
X13934467Y-13015888D02*
X13924944Y-13034936D01*
X13924944Y-13034936D02*
X13915420Y-13044460D01*
X13915420Y-13044460D02*
X13896372Y-13053984D01*
X13896372Y-13053984D02*
X13839229Y-13053984D01*
X13839229Y-13053984D02*
X13820182Y-13044460D01*
X13820182Y-13044460D02*
X13810658Y-13034936D01*
X14058277Y-12853984D02*
X14077325Y-12853984D01*
X14077325Y-12853984D02*
X14096372Y-12863508D01*
X14096372Y-12863508D02*
X14105896Y-12873031D01*
X14105896Y-12873031D02*
X14115420Y-12892079D01*
X14115420Y-12892079D02*
X14124944Y-12930174D01*
X14124944Y-12930174D02*
X14124944Y-12977793D01*
X14124944Y-12977793D02*
X14115420Y-13015888D01*
X14115420Y-13015888D02*
X14105896Y-13034936D01*
X14105896Y-13034936D02*
X14096372Y-13044460D01*
X14096372Y-13044460D02*
X14077325Y-13053984D01*
X14077325Y-13053984D02*
X14058277Y-13053984D01*
X14058277Y-13053984D02*
X14039229Y-13044460D01*
X14039229Y-13044460D02*
X14029706Y-13034936D01*
X14029706Y-13034936D02*
X14020182Y-13015888D01*
X14020182Y-13015888D02*
X14010658Y-12977793D01*
X14010658Y-12977793D02*
X14010658Y-12930174D01*
X14010658Y-12930174D02*
X14020182Y-12892079D01*
X14020182Y-12892079D02*
X14029706Y-12873031D01*
X14029706Y-12873031D02*
X14039229Y-12863508D01*
X14039229Y-12863508D02*
X14058277Y-12853984D01*
X14201134Y-12853984D02*
X14201134Y-12892079D01*
X14277325Y-12853984D02*
X14277325Y-12892079D01*
X14572563Y-13130174D02*
X14563039Y-13120650D01*
X14563039Y-13120650D02*
X14543991Y-13092079D01*
X14543991Y-13092079D02*
X14534468Y-13073031D01*
X14534468Y-13073031D02*
X14524944Y-13044460D01*
X14524944Y-13044460D02*
X14515420Y-12996841D01*
X14515420Y-12996841D02*
X14515420Y-12958746D01*
X14515420Y-12958746D02*
X14524944Y-12911127D01*
X14524944Y-12911127D02*
X14534468Y-12882555D01*
X14534468Y-12882555D02*
X14543991Y-12863508D01*
X14543991Y-12863508D02*
X14563039Y-12834936D01*
X14563039Y-12834936D02*
X14572563Y-12825412D01*
X14743991Y-12853984D02*
X14648753Y-12853984D01*
X14648753Y-12853984D02*
X14639229Y-12949222D01*
X14639229Y-12949222D02*
X14648753Y-12939698D01*
X14648753Y-12939698D02*
X14667801Y-12930174D01*
X14667801Y-12930174D02*
X14715420Y-12930174D01*
X14715420Y-12930174D02*
X14734468Y-12939698D01*
X14734468Y-12939698D02*
X14743991Y-12949222D01*
X14743991Y-12949222D02*
X14753515Y-12968269D01*
X14753515Y-12968269D02*
X14753515Y-13015888D01*
X14753515Y-13015888D02*
X14743991Y-13034936D01*
X14743991Y-13034936D02*
X14734468Y-13044460D01*
X14734468Y-13044460D02*
X14715420Y-13053984D01*
X14715420Y-13053984D02*
X14667801Y-13053984D01*
X14667801Y-13053984D02*
X14648753Y-13044460D01*
X14648753Y-13044460D02*
X14639229Y-13034936D01*
X14991610Y-13053984D02*
X14991610Y-12853984D01*
X15077325Y-13053984D02*
X15077325Y-12949222D01*
X15077325Y-12949222D02*
X15067801Y-12930174D01*
X15067801Y-12930174D02*
X15048753Y-12920650D01*
X15048753Y-12920650D02*
X15020182Y-12920650D01*
X15020182Y-12920650D02*
X15001134Y-12930174D01*
X15001134Y-12930174D02*
X14991610Y-12939698D01*
X15201134Y-13053984D02*
X15182087Y-13044460D01*
X15182087Y-13044460D02*
X15172563Y-13034936D01*
X15172563Y-13034936D02*
X15163039Y-13015888D01*
X15163039Y-13015888D02*
X15163039Y-12958746D01*
X15163039Y-12958746D02*
X15172563Y-12939698D01*
X15172563Y-12939698D02*
X15182087Y-12930174D01*
X15182087Y-12930174D02*
X15201134Y-12920650D01*
X15201134Y-12920650D02*
X15229706Y-12920650D01*
X15229706Y-12920650D02*
X15248753Y-12930174D01*
X15248753Y-12930174D02*
X15258277Y-12939698D01*
X15258277Y-12939698D02*
X15267801Y-12958746D01*
X15267801Y-12958746D02*
X15267801Y-13015888D01*
X15267801Y-13015888D02*
X15258277Y-13034936D01*
X15258277Y-13034936D02*
X15248753Y-13044460D01*
X15248753Y-13044460D02*
X15229706Y-13053984D01*
X15229706Y-13053984D02*
X15201134Y-13053984D01*
X15382087Y-13053984D02*
X15363039Y-13044460D01*
X15363039Y-13044460D02*
X15353515Y-13025412D01*
X15353515Y-13025412D02*
X15353515Y-12853984D01*
X15534468Y-13044460D02*
X15515420Y-13053984D01*
X15515420Y-13053984D02*
X15477325Y-13053984D01*
X15477325Y-13053984D02*
X15458277Y-13044460D01*
X15458277Y-13044460D02*
X15448753Y-13025412D01*
X15448753Y-13025412D02*
X15448753Y-12949222D01*
X15448753Y-12949222D02*
X15458277Y-12930174D01*
X15458277Y-12930174D02*
X15477325Y-12920650D01*
X15477325Y-12920650D02*
X15515420Y-12920650D01*
X15515420Y-12920650D02*
X15534468Y-12930174D01*
X15534468Y-12930174D02*
X15543991Y-12949222D01*
X15543991Y-12949222D02*
X15543991Y-12968269D01*
X15543991Y-12968269D02*
X15448753Y-12987317D01*
X15620182Y-13044460D02*
X15639230Y-13053984D01*
X15639230Y-13053984D02*
X15677325Y-13053984D01*
X15677325Y-13053984D02*
X15696372Y-13044460D01*
X15696372Y-13044460D02*
X15705896Y-13025412D01*
X15705896Y-13025412D02*
X15705896Y-13015888D01*
X15705896Y-13015888D02*
X15696372Y-12996841D01*
X15696372Y-12996841D02*
X15677325Y-12987317D01*
X15677325Y-12987317D02*
X15648753Y-12987317D01*
X15648753Y-12987317D02*
X15629706Y-12977793D01*
X15629706Y-12977793D02*
X15620182Y-12958746D01*
X15620182Y-12958746D02*
X15620182Y-12949222D01*
X15620182Y-12949222D02*
X15629706Y-12930174D01*
X15629706Y-12930174D02*
X15648753Y-12920650D01*
X15648753Y-12920650D02*
X15677325Y-12920650D01*
X15677325Y-12920650D02*
X15696372Y-12930174D01*
X15772563Y-13130174D02*
X15782087Y-13120650D01*
X15782087Y-13120650D02*
X15801134Y-13092079D01*
X15801134Y-13092079D02*
X15810658Y-13073031D01*
X15810658Y-13073031D02*
X15820182Y-13044460D01*
X15820182Y-13044460D02*
X15829706Y-12996841D01*
X15829706Y-12996841D02*
X15829706Y-12958746D01*
X15829706Y-12958746D02*
X15820182Y-12911127D01*
X15820182Y-12911127D02*
X15810658Y-12882555D01*
X15810658Y-12882555D02*
X15801134Y-12863508D01*
X15801134Y-12863508D02*
X15782087Y-12834936D01*
X15782087Y-12834936D02*
X15772563Y-12825412D01*
M02*
