%TF.GenerationSoftware,KiCad,Pcbnew,8.0.3*%
%TF.CreationDate,2024-06-13T00:50:03+02:00*%
%TF.ProjectId,can-proto,63616e2d-7072-46f7-946f-2e6b69636164,1*%
%TF.SameCoordinates,Original*%
%TF.FileFunction,Drillmap*%
%TF.FilePolarity,Positive*%
%FSLAX45Y45*%
G04 Gerber Fmt 4.5, Leading zero omitted, Abs format (unit mm)*
G04 Created by KiCad (PCBNEW 8.0.3) date 2024-06-13 00:50:03*
%MOMM*%
%LPD*%
G01*
G04 APERTURE LIST*
%ADD10C,0.050000*%
%ADD11C,0.200000*%
%ADD12C,0.320000*%
G04 APERTURE END LIST*
D10*
X15700000Y-6000000D02*
G75*
G02*
X16000000Y-6300000I0J-300000D01*
G01*
X11000000Y-6300000D02*
X11000000Y-10700000D01*
X11300000Y-11000000D02*
G75*
G02*
X11000000Y-10700000I0J300000D01*
G01*
X11000000Y-6300000D02*
G75*
G02*
X11300000Y-6000000I300000J0D01*
G01*
X15700000Y-6000000D02*
X11300000Y-6000000D01*
X11300000Y-11000000D02*
X15700000Y-11000000D01*
X16000000Y-10700000D02*
G75*
G02*
X15700000Y-11000000I-300000J0D01*
G01*
X16000000Y-10700000D02*
X16000000Y-6300000D01*
D11*
D12*
X11140000Y-6140000D02*
X11460000Y-6460000D01*
X11460000Y-6140000D02*
X11140000Y-6460000D01*
X11140000Y-10540000D02*
X11460000Y-10860000D01*
X11460000Y-10540000D02*
X11140000Y-10860000D01*
X15540000Y-6140000D02*
X15860000Y-6460000D01*
X15860000Y-6140000D02*
X15540000Y-6460000D01*
X15540000Y-10540000D02*
X15860000Y-10860000D01*
X15860000Y-10540000D02*
X15540000Y-10860000D01*
D11*
X11258277Y-11313984D02*
X11258277Y-11113984D01*
X11258277Y-11113984D02*
X11305896Y-11113984D01*
X11305896Y-11113984D02*
X11334467Y-11123508D01*
X11334467Y-11123508D02*
X11353515Y-11142555D01*
X11353515Y-11142555D02*
X11363039Y-11161603D01*
X11363039Y-11161603D02*
X11372562Y-11199698D01*
X11372562Y-11199698D02*
X11372562Y-11228269D01*
X11372562Y-11228269D02*
X11363039Y-11266365D01*
X11363039Y-11266365D02*
X11353515Y-11285412D01*
X11353515Y-11285412D02*
X11334467Y-11304460D01*
X11334467Y-11304460D02*
X11305896Y-11313984D01*
X11305896Y-11313984D02*
X11258277Y-11313984D01*
X11458277Y-11313984D02*
X11458277Y-11180650D01*
X11458277Y-11218746D02*
X11467801Y-11199698D01*
X11467801Y-11199698D02*
X11477324Y-11190174D01*
X11477324Y-11190174D02*
X11496372Y-11180650D01*
X11496372Y-11180650D02*
X11515420Y-11180650D01*
X11582086Y-11313984D02*
X11582086Y-11180650D01*
X11582086Y-11113984D02*
X11572562Y-11123508D01*
X11572562Y-11123508D02*
X11582086Y-11133031D01*
X11582086Y-11133031D02*
X11591610Y-11123508D01*
X11591610Y-11123508D02*
X11582086Y-11113984D01*
X11582086Y-11113984D02*
X11582086Y-11133031D01*
X11705896Y-11313984D02*
X11686848Y-11304460D01*
X11686848Y-11304460D02*
X11677324Y-11285412D01*
X11677324Y-11285412D02*
X11677324Y-11113984D01*
X11810658Y-11313984D02*
X11791610Y-11304460D01*
X11791610Y-11304460D02*
X11782086Y-11285412D01*
X11782086Y-11285412D02*
X11782086Y-11113984D01*
X12039229Y-11313984D02*
X12039229Y-11113984D01*
X12039229Y-11113984D02*
X12105896Y-11256841D01*
X12105896Y-11256841D02*
X12172562Y-11113984D01*
X12172562Y-11113984D02*
X12172562Y-11313984D01*
X12353515Y-11313984D02*
X12353515Y-11209222D01*
X12353515Y-11209222D02*
X12343991Y-11190174D01*
X12343991Y-11190174D02*
X12324943Y-11180650D01*
X12324943Y-11180650D02*
X12286848Y-11180650D01*
X12286848Y-11180650D02*
X12267801Y-11190174D01*
X12353515Y-11304460D02*
X12334467Y-11313984D01*
X12334467Y-11313984D02*
X12286848Y-11313984D01*
X12286848Y-11313984D02*
X12267801Y-11304460D01*
X12267801Y-11304460D02*
X12258277Y-11285412D01*
X12258277Y-11285412D02*
X12258277Y-11266365D01*
X12258277Y-11266365D02*
X12267801Y-11247317D01*
X12267801Y-11247317D02*
X12286848Y-11237793D01*
X12286848Y-11237793D02*
X12334467Y-11237793D01*
X12334467Y-11237793D02*
X12353515Y-11228269D01*
X12448753Y-11180650D02*
X12448753Y-11380650D01*
X12448753Y-11190174D02*
X12467801Y-11180650D01*
X12467801Y-11180650D02*
X12505896Y-11180650D01*
X12505896Y-11180650D02*
X12524943Y-11190174D01*
X12524943Y-11190174D02*
X12534467Y-11199698D01*
X12534467Y-11199698D02*
X12543991Y-11218746D01*
X12543991Y-11218746D02*
X12543991Y-11275888D01*
X12543991Y-11275888D02*
X12534467Y-11294936D01*
X12534467Y-11294936D02*
X12524943Y-11304460D01*
X12524943Y-11304460D02*
X12505896Y-11313984D01*
X12505896Y-11313984D02*
X12467801Y-11313984D01*
X12467801Y-11313984D02*
X12448753Y-11304460D01*
X12629705Y-11294936D02*
X12639229Y-11304460D01*
X12639229Y-11304460D02*
X12629705Y-11313984D01*
X12629705Y-11313984D02*
X12620182Y-11304460D01*
X12620182Y-11304460D02*
X12629705Y-11294936D01*
X12629705Y-11294936D02*
X12629705Y-11313984D01*
X12629705Y-11190174D02*
X12639229Y-11199698D01*
X12639229Y-11199698D02*
X12629705Y-11209222D01*
X12629705Y-11209222D02*
X12620182Y-11199698D01*
X12620182Y-11199698D02*
X12629705Y-11190174D01*
X12629705Y-11190174D02*
X12629705Y-11209222D01*
X10797500Y-11542500D02*
X10997500Y-11742500D01*
X10997500Y-11542500D02*
X10797500Y-11742500D01*
X11239229Y-11533984D02*
X11363039Y-11533984D01*
X11363039Y-11533984D02*
X11296372Y-11610174D01*
X11296372Y-11610174D02*
X11324943Y-11610174D01*
X11324943Y-11610174D02*
X11343991Y-11619698D01*
X11343991Y-11619698D02*
X11353515Y-11629222D01*
X11353515Y-11629222D02*
X11363039Y-11648269D01*
X11363039Y-11648269D02*
X11363039Y-11695888D01*
X11363039Y-11695888D02*
X11353515Y-11714936D01*
X11353515Y-11714936D02*
X11343991Y-11724460D01*
X11343991Y-11724460D02*
X11324943Y-11733984D01*
X11324943Y-11733984D02*
X11267801Y-11733984D01*
X11267801Y-11733984D02*
X11248753Y-11724460D01*
X11248753Y-11724460D02*
X11239229Y-11714936D01*
X11448753Y-11714936D02*
X11458277Y-11724460D01*
X11458277Y-11724460D02*
X11448753Y-11733984D01*
X11448753Y-11733984D02*
X11439229Y-11724460D01*
X11439229Y-11724460D02*
X11448753Y-11714936D01*
X11448753Y-11714936D02*
X11448753Y-11733984D01*
X11534467Y-11553031D02*
X11543991Y-11543508D01*
X11543991Y-11543508D02*
X11563039Y-11533984D01*
X11563039Y-11533984D02*
X11610658Y-11533984D01*
X11610658Y-11533984D02*
X11629705Y-11543508D01*
X11629705Y-11543508D02*
X11639229Y-11553031D01*
X11639229Y-11553031D02*
X11648753Y-11572079D01*
X11648753Y-11572079D02*
X11648753Y-11591127D01*
X11648753Y-11591127D02*
X11639229Y-11619698D01*
X11639229Y-11619698D02*
X11524943Y-11733984D01*
X11524943Y-11733984D02*
X11648753Y-11733984D01*
X11772562Y-11533984D02*
X11791610Y-11533984D01*
X11791610Y-11533984D02*
X11810658Y-11543508D01*
X11810658Y-11543508D02*
X11820182Y-11553031D01*
X11820182Y-11553031D02*
X11829705Y-11572079D01*
X11829705Y-11572079D02*
X11839229Y-11610174D01*
X11839229Y-11610174D02*
X11839229Y-11657793D01*
X11839229Y-11657793D02*
X11829705Y-11695888D01*
X11829705Y-11695888D02*
X11820182Y-11714936D01*
X11820182Y-11714936D02*
X11810658Y-11724460D01*
X11810658Y-11724460D02*
X11791610Y-11733984D01*
X11791610Y-11733984D02*
X11772562Y-11733984D01*
X11772562Y-11733984D02*
X11753515Y-11724460D01*
X11753515Y-11724460D02*
X11743991Y-11714936D01*
X11743991Y-11714936D02*
X11734467Y-11695888D01*
X11734467Y-11695888D02*
X11724943Y-11657793D01*
X11724943Y-11657793D02*
X11724943Y-11610174D01*
X11724943Y-11610174D02*
X11734467Y-11572079D01*
X11734467Y-11572079D02*
X11743991Y-11553031D01*
X11743991Y-11553031D02*
X11753515Y-11543508D01*
X11753515Y-11543508D02*
X11772562Y-11533984D01*
X11963039Y-11533984D02*
X11982086Y-11533984D01*
X11982086Y-11533984D02*
X12001134Y-11543508D01*
X12001134Y-11543508D02*
X12010658Y-11553031D01*
X12010658Y-11553031D02*
X12020182Y-11572079D01*
X12020182Y-11572079D02*
X12029705Y-11610174D01*
X12029705Y-11610174D02*
X12029705Y-11657793D01*
X12029705Y-11657793D02*
X12020182Y-11695888D01*
X12020182Y-11695888D02*
X12010658Y-11714936D01*
X12010658Y-11714936D02*
X12001134Y-11724460D01*
X12001134Y-11724460D02*
X11982086Y-11733984D01*
X11982086Y-11733984D02*
X11963039Y-11733984D01*
X11963039Y-11733984D02*
X11943991Y-11724460D01*
X11943991Y-11724460D02*
X11934467Y-11714936D01*
X11934467Y-11714936D02*
X11924943Y-11695888D01*
X11924943Y-11695888D02*
X11915420Y-11657793D01*
X11915420Y-11657793D02*
X11915420Y-11610174D01*
X11915420Y-11610174D02*
X11924943Y-11572079D01*
X11924943Y-11572079D02*
X11934467Y-11553031D01*
X11934467Y-11553031D02*
X11943991Y-11543508D01*
X11943991Y-11543508D02*
X11963039Y-11533984D01*
X12115420Y-11733984D02*
X12115420Y-11600650D01*
X12115420Y-11619698D02*
X12124943Y-11610174D01*
X12124943Y-11610174D02*
X12143991Y-11600650D01*
X12143991Y-11600650D02*
X12172563Y-11600650D01*
X12172563Y-11600650D02*
X12191610Y-11610174D01*
X12191610Y-11610174D02*
X12201134Y-11629222D01*
X12201134Y-11629222D02*
X12201134Y-11733984D01*
X12201134Y-11629222D02*
X12210658Y-11610174D01*
X12210658Y-11610174D02*
X12229705Y-11600650D01*
X12229705Y-11600650D02*
X12258277Y-11600650D01*
X12258277Y-11600650D02*
X12277324Y-11610174D01*
X12277324Y-11610174D02*
X12286848Y-11629222D01*
X12286848Y-11629222D02*
X12286848Y-11733984D01*
X12382086Y-11733984D02*
X12382086Y-11600650D01*
X12382086Y-11619698D02*
X12391610Y-11610174D01*
X12391610Y-11610174D02*
X12410658Y-11600650D01*
X12410658Y-11600650D02*
X12439229Y-11600650D01*
X12439229Y-11600650D02*
X12458277Y-11610174D01*
X12458277Y-11610174D02*
X12467801Y-11629222D01*
X12467801Y-11629222D02*
X12467801Y-11733984D01*
X12467801Y-11629222D02*
X12477324Y-11610174D01*
X12477324Y-11610174D02*
X12496372Y-11600650D01*
X12496372Y-11600650D02*
X12524943Y-11600650D01*
X12524943Y-11600650D02*
X12543991Y-11610174D01*
X12543991Y-11610174D02*
X12553515Y-11629222D01*
X12553515Y-11629222D02*
X12553515Y-11733984D01*
X12943991Y-11524460D02*
X12772563Y-11781603D01*
X13201134Y-11533984D02*
X13220182Y-11533984D01*
X13220182Y-11533984D02*
X13239229Y-11543508D01*
X13239229Y-11543508D02*
X13248753Y-11553031D01*
X13248753Y-11553031D02*
X13258277Y-11572079D01*
X13258277Y-11572079D02*
X13267801Y-11610174D01*
X13267801Y-11610174D02*
X13267801Y-11657793D01*
X13267801Y-11657793D02*
X13258277Y-11695888D01*
X13258277Y-11695888D02*
X13248753Y-11714936D01*
X13248753Y-11714936D02*
X13239229Y-11724460D01*
X13239229Y-11724460D02*
X13220182Y-11733984D01*
X13220182Y-11733984D02*
X13201134Y-11733984D01*
X13201134Y-11733984D02*
X13182086Y-11724460D01*
X13182086Y-11724460D02*
X13172563Y-11714936D01*
X13172563Y-11714936D02*
X13163039Y-11695888D01*
X13163039Y-11695888D02*
X13153515Y-11657793D01*
X13153515Y-11657793D02*
X13153515Y-11610174D01*
X13153515Y-11610174D02*
X13163039Y-11572079D01*
X13163039Y-11572079D02*
X13172563Y-11553031D01*
X13172563Y-11553031D02*
X13182086Y-11543508D01*
X13182086Y-11543508D02*
X13201134Y-11533984D01*
X13353515Y-11714936D02*
X13363039Y-11724460D01*
X13363039Y-11724460D02*
X13353515Y-11733984D01*
X13353515Y-11733984D02*
X13343991Y-11724460D01*
X13343991Y-11724460D02*
X13353515Y-11714936D01*
X13353515Y-11714936D02*
X13353515Y-11733984D01*
X13553515Y-11733984D02*
X13439229Y-11733984D01*
X13496372Y-11733984D02*
X13496372Y-11533984D01*
X13496372Y-11533984D02*
X13477325Y-11562555D01*
X13477325Y-11562555D02*
X13458277Y-11581603D01*
X13458277Y-11581603D02*
X13439229Y-11591127D01*
X13629706Y-11553031D02*
X13639229Y-11543508D01*
X13639229Y-11543508D02*
X13658277Y-11533984D01*
X13658277Y-11533984D02*
X13705896Y-11533984D01*
X13705896Y-11533984D02*
X13724944Y-11543508D01*
X13724944Y-11543508D02*
X13734467Y-11553031D01*
X13734467Y-11553031D02*
X13743991Y-11572079D01*
X13743991Y-11572079D02*
X13743991Y-11591127D01*
X13743991Y-11591127D02*
X13734467Y-11619698D01*
X13734467Y-11619698D02*
X13620182Y-11733984D01*
X13620182Y-11733984D02*
X13743991Y-11733984D01*
X13915420Y-11533984D02*
X13877325Y-11533984D01*
X13877325Y-11533984D02*
X13858277Y-11543508D01*
X13858277Y-11543508D02*
X13848753Y-11553031D01*
X13848753Y-11553031D02*
X13829706Y-11581603D01*
X13829706Y-11581603D02*
X13820182Y-11619698D01*
X13820182Y-11619698D02*
X13820182Y-11695888D01*
X13820182Y-11695888D02*
X13829706Y-11714936D01*
X13829706Y-11714936D02*
X13839229Y-11724460D01*
X13839229Y-11724460D02*
X13858277Y-11733984D01*
X13858277Y-11733984D02*
X13896372Y-11733984D01*
X13896372Y-11733984D02*
X13915420Y-11724460D01*
X13915420Y-11724460D02*
X13924944Y-11714936D01*
X13924944Y-11714936D02*
X13934467Y-11695888D01*
X13934467Y-11695888D02*
X13934467Y-11648269D01*
X13934467Y-11648269D02*
X13924944Y-11629222D01*
X13924944Y-11629222D02*
X13915420Y-11619698D01*
X13915420Y-11619698D02*
X13896372Y-11610174D01*
X13896372Y-11610174D02*
X13858277Y-11610174D01*
X13858277Y-11610174D02*
X13839229Y-11619698D01*
X13839229Y-11619698D02*
X13829706Y-11629222D01*
X13829706Y-11629222D02*
X13820182Y-11648269D01*
X14058277Y-11533984D02*
X14077325Y-11533984D01*
X14077325Y-11533984D02*
X14096372Y-11543508D01*
X14096372Y-11543508D02*
X14105896Y-11553031D01*
X14105896Y-11553031D02*
X14115420Y-11572079D01*
X14115420Y-11572079D02*
X14124944Y-11610174D01*
X14124944Y-11610174D02*
X14124944Y-11657793D01*
X14124944Y-11657793D02*
X14115420Y-11695888D01*
X14115420Y-11695888D02*
X14105896Y-11714936D01*
X14105896Y-11714936D02*
X14096372Y-11724460D01*
X14096372Y-11724460D02*
X14077325Y-11733984D01*
X14077325Y-11733984D02*
X14058277Y-11733984D01*
X14058277Y-11733984D02*
X14039229Y-11724460D01*
X14039229Y-11724460D02*
X14029706Y-11714936D01*
X14029706Y-11714936D02*
X14020182Y-11695888D01*
X14020182Y-11695888D02*
X14010658Y-11657793D01*
X14010658Y-11657793D02*
X14010658Y-11610174D01*
X14010658Y-11610174D02*
X14020182Y-11572079D01*
X14020182Y-11572079D02*
X14029706Y-11553031D01*
X14029706Y-11553031D02*
X14039229Y-11543508D01*
X14039229Y-11543508D02*
X14058277Y-11533984D01*
X14201134Y-11533984D02*
X14201134Y-11572079D01*
X14277325Y-11533984D02*
X14277325Y-11572079D01*
X14572563Y-11810174D02*
X14563039Y-11800650D01*
X14563039Y-11800650D02*
X14543991Y-11772079D01*
X14543991Y-11772079D02*
X14534468Y-11753031D01*
X14534468Y-11753031D02*
X14524944Y-11724460D01*
X14524944Y-11724460D02*
X14515420Y-11676841D01*
X14515420Y-11676841D02*
X14515420Y-11638746D01*
X14515420Y-11638746D02*
X14524944Y-11591127D01*
X14524944Y-11591127D02*
X14534468Y-11562555D01*
X14534468Y-11562555D02*
X14543991Y-11543508D01*
X14543991Y-11543508D02*
X14563039Y-11514936D01*
X14563039Y-11514936D02*
X14572563Y-11505412D01*
X14734468Y-11600650D02*
X14734468Y-11733984D01*
X14686848Y-11524460D02*
X14639229Y-11667317D01*
X14639229Y-11667317D02*
X14763039Y-11667317D01*
X14991610Y-11733984D02*
X14991610Y-11533984D01*
X15077325Y-11733984D02*
X15077325Y-11629222D01*
X15077325Y-11629222D02*
X15067801Y-11610174D01*
X15067801Y-11610174D02*
X15048753Y-11600650D01*
X15048753Y-11600650D02*
X15020182Y-11600650D01*
X15020182Y-11600650D02*
X15001134Y-11610174D01*
X15001134Y-11610174D02*
X14991610Y-11619698D01*
X15201134Y-11733984D02*
X15182087Y-11724460D01*
X15182087Y-11724460D02*
X15172563Y-11714936D01*
X15172563Y-11714936D02*
X15163039Y-11695888D01*
X15163039Y-11695888D02*
X15163039Y-11638746D01*
X15163039Y-11638746D02*
X15172563Y-11619698D01*
X15172563Y-11619698D02*
X15182087Y-11610174D01*
X15182087Y-11610174D02*
X15201134Y-11600650D01*
X15201134Y-11600650D02*
X15229706Y-11600650D01*
X15229706Y-11600650D02*
X15248753Y-11610174D01*
X15248753Y-11610174D02*
X15258277Y-11619698D01*
X15258277Y-11619698D02*
X15267801Y-11638746D01*
X15267801Y-11638746D02*
X15267801Y-11695888D01*
X15267801Y-11695888D02*
X15258277Y-11714936D01*
X15258277Y-11714936D02*
X15248753Y-11724460D01*
X15248753Y-11724460D02*
X15229706Y-11733984D01*
X15229706Y-11733984D02*
X15201134Y-11733984D01*
X15382087Y-11733984D02*
X15363039Y-11724460D01*
X15363039Y-11724460D02*
X15353515Y-11705412D01*
X15353515Y-11705412D02*
X15353515Y-11533984D01*
X15534468Y-11724460D02*
X15515420Y-11733984D01*
X15515420Y-11733984D02*
X15477325Y-11733984D01*
X15477325Y-11733984D02*
X15458277Y-11724460D01*
X15458277Y-11724460D02*
X15448753Y-11705412D01*
X15448753Y-11705412D02*
X15448753Y-11629222D01*
X15448753Y-11629222D02*
X15458277Y-11610174D01*
X15458277Y-11610174D02*
X15477325Y-11600650D01*
X15477325Y-11600650D02*
X15515420Y-11600650D01*
X15515420Y-11600650D02*
X15534468Y-11610174D01*
X15534468Y-11610174D02*
X15543991Y-11629222D01*
X15543991Y-11629222D02*
X15543991Y-11648269D01*
X15543991Y-11648269D02*
X15448753Y-11667317D01*
X15620182Y-11724460D02*
X15639230Y-11733984D01*
X15639230Y-11733984D02*
X15677325Y-11733984D01*
X15677325Y-11733984D02*
X15696372Y-11724460D01*
X15696372Y-11724460D02*
X15705896Y-11705412D01*
X15705896Y-11705412D02*
X15705896Y-11695888D01*
X15705896Y-11695888D02*
X15696372Y-11676841D01*
X15696372Y-11676841D02*
X15677325Y-11667317D01*
X15677325Y-11667317D02*
X15648753Y-11667317D01*
X15648753Y-11667317D02*
X15629706Y-11657793D01*
X15629706Y-11657793D02*
X15620182Y-11638746D01*
X15620182Y-11638746D02*
X15620182Y-11629222D01*
X15620182Y-11629222D02*
X15629706Y-11610174D01*
X15629706Y-11610174D02*
X15648753Y-11600650D01*
X15648753Y-11600650D02*
X15677325Y-11600650D01*
X15677325Y-11600650D02*
X15696372Y-11610174D01*
X15772563Y-11810174D02*
X15782087Y-11800650D01*
X15782087Y-11800650D02*
X15801134Y-11772079D01*
X15801134Y-11772079D02*
X15810658Y-11753031D01*
X15810658Y-11753031D02*
X15820182Y-11724460D01*
X15820182Y-11724460D02*
X15829706Y-11676841D01*
X15829706Y-11676841D02*
X15829706Y-11638746D01*
X15829706Y-11638746D02*
X15820182Y-11591127D01*
X15820182Y-11591127D02*
X15810658Y-11562555D01*
X15810658Y-11562555D02*
X15801134Y-11543508D01*
X15801134Y-11543508D02*
X15782087Y-11514936D01*
X15782087Y-11514936D02*
X15772563Y-11505412D01*
X16134468Y-11810174D02*
X16124944Y-11800650D01*
X16124944Y-11800650D02*
X16105896Y-11772079D01*
X16105896Y-11772079D02*
X16096372Y-11753031D01*
X16096372Y-11753031D02*
X16086849Y-11724460D01*
X16086849Y-11724460D02*
X16077325Y-11676841D01*
X16077325Y-11676841D02*
X16077325Y-11638746D01*
X16077325Y-11638746D02*
X16086849Y-11591127D01*
X16086849Y-11591127D02*
X16096372Y-11562555D01*
X16096372Y-11562555D02*
X16105896Y-11543508D01*
X16105896Y-11543508D02*
X16124944Y-11514936D01*
X16124944Y-11514936D02*
X16134468Y-11505412D01*
X16210658Y-11600650D02*
X16210658Y-11733984D01*
X16210658Y-11619698D02*
X16220182Y-11610174D01*
X16220182Y-11610174D02*
X16239230Y-11600650D01*
X16239230Y-11600650D02*
X16267801Y-11600650D01*
X16267801Y-11600650D02*
X16286849Y-11610174D01*
X16286849Y-11610174D02*
X16296372Y-11629222D01*
X16296372Y-11629222D02*
X16296372Y-11733984D01*
X16420182Y-11733984D02*
X16401134Y-11724460D01*
X16401134Y-11724460D02*
X16391611Y-11714936D01*
X16391611Y-11714936D02*
X16382087Y-11695888D01*
X16382087Y-11695888D02*
X16382087Y-11638746D01*
X16382087Y-11638746D02*
X16391611Y-11619698D01*
X16391611Y-11619698D02*
X16401134Y-11610174D01*
X16401134Y-11610174D02*
X16420182Y-11600650D01*
X16420182Y-11600650D02*
X16448753Y-11600650D01*
X16448753Y-11600650D02*
X16467801Y-11610174D01*
X16467801Y-11610174D02*
X16477325Y-11619698D01*
X16477325Y-11619698D02*
X16486849Y-11638746D01*
X16486849Y-11638746D02*
X16486849Y-11695888D01*
X16486849Y-11695888D02*
X16477325Y-11714936D01*
X16477325Y-11714936D02*
X16467801Y-11724460D01*
X16467801Y-11724460D02*
X16448753Y-11733984D01*
X16448753Y-11733984D02*
X16420182Y-11733984D01*
X16543992Y-11600650D02*
X16620182Y-11600650D01*
X16572563Y-11533984D02*
X16572563Y-11705412D01*
X16572563Y-11705412D02*
X16582087Y-11724460D01*
X16582087Y-11724460D02*
X16601134Y-11733984D01*
X16601134Y-11733984D02*
X16620182Y-11733984D01*
X16839230Y-11600650D02*
X16839230Y-11800650D01*
X16839230Y-11610174D02*
X16858277Y-11600650D01*
X16858277Y-11600650D02*
X16896373Y-11600650D01*
X16896373Y-11600650D02*
X16915420Y-11610174D01*
X16915420Y-11610174D02*
X16924944Y-11619698D01*
X16924944Y-11619698D02*
X16934468Y-11638746D01*
X16934468Y-11638746D02*
X16934468Y-11695888D01*
X16934468Y-11695888D02*
X16924944Y-11714936D01*
X16924944Y-11714936D02*
X16915420Y-11724460D01*
X16915420Y-11724460D02*
X16896373Y-11733984D01*
X16896373Y-11733984D02*
X16858277Y-11733984D01*
X16858277Y-11733984D02*
X16839230Y-11724460D01*
X17048754Y-11733984D02*
X17029706Y-11724460D01*
X17029706Y-11724460D02*
X17020182Y-11705412D01*
X17020182Y-11705412D02*
X17020182Y-11533984D01*
X17210658Y-11733984D02*
X17210658Y-11629222D01*
X17210658Y-11629222D02*
X17201135Y-11610174D01*
X17201135Y-11610174D02*
X17182087Y-11600650D01*
X17182087Y-11600650D02*
X17143992Y-11600650D01*
X17143992Y-11600650D02*
X17124944Y-11610174D01*
X17210658Y-11724460D02*
X17191611Y-11733984D01*
X17191611Y-11733984D02*
X17143992Y-11733984D01*
X17143992Y-11733984D02*
X17124944Y-11724460D01*
X17124944Y-11724460D02*
X17115420Y-11705412D01*
X17115420Y-11705412D02*
X17115420Y-11686365D01*
X17115420Y-11686365D02*
X17124944Y-11667317D01*
X17124944Y-11667317D02*
X17143992Y-11657793D01*
X17143992Y-11657793D02*
X17191611Y-11657793D01*
X17191611Y-11657793D02*
X17210658Y-11648269D01*
X17277325Y-11600650D02*
X17353515Y-11600650D01*
X17305896Y-11533984D02*
X17305896Y-11705412D01*
X17305896Y-11705412D02*
X17315420Y-11724460D01*
X17315420Y-11724460D02*
X17334468Y-11733984D01*
X17334468Y-11733984D02*
X17353515Y-11733984D01*
X17496373Y-11724460D02*
X17477325Y-11733984D01*
X17477325Y-11733984D02*
X17439230Y-11733984D01*
X17439230Y-11733984D02*
X17420182Y-11724460D01*
X17420182Y-11724460D02*
X17410658Y-11705412D01*
X17410658Y-11705412D02*
X17410658Y-11629222D01*
X17410658Y-11629222D02*
X17420182Y-11610174D01*
X17420182Y-11610174D02*
X17439230Y-11600650D01*
X17439230Y-11600650D02*
X17477325Y-11600650D01*
X17477325Y-11600650D02*
X17496373Y-11610174D01*
X17496373Y-11610174D02*
X17505896Y-11629222D01*
X17505896Y-11629222D02*
X17505896Y-11648269D01*
X17505896Y-11648269D02*
X17410658Y-11667317D01*
X17677325Y-11733984D02*
X17677325Y-11533984D01*
X17677325Y-11724460D02*
X17658277Y-11733984D01*
X17658277Y-11733984D02*
X17620182Y-11733984D01*
X17620182Y-11733984D02*
X17601135Y-11724460D01*
X17601135Y-11724460D02*
X17591611Y-11714936D01*
X17591611Y-11714936D02*
X17582087Y-11695888D01*
X17582087Y-11695888D02*
X17582087Y-11638746D01*
X17582087Y-11638746D02*
X17591611Y-11619698D01*
X17591611Y-11619698D02*
X17601135Y-11610174D01*
X17601135Y-11610174D02*
X17620182Y-11600650D01*
X17620182Y-11600650D02*
X17658277Y-11600650D01*
X17658277Y-11600650D02*
X17677325Y-11610174D01*
X17753516Y-11810174D02*
X17763039Y-11800650D01*
X17763039Y-11800650D02*
X17782087Y-11772079D01*
X17782087Y-11772079D02*
X17791611Y-11753031D01*
X17791611Y-11753031D02*
X17801135Y-11724460D01*
X17801135Y-11724460D02*
X17810658Y-11676841D01*
X17810658Y-11676841D02*
X17810658Y-11638746D01*
X17810658Y-11638746D02*
X17801135Y-11591127D01*
X17801135Y-11591127D02*
X17791611Y-11562555D01*
X17791611Y-11562555D02*
X17782087Y-11543508D01*
X17782087Y-11543508D02*
X17763039Y-11514936D01*
X17763039Y-11514936D02*
X17753516Y-11505412D01*
M02*
