M48
; DRILL file {KiCad 8.0.3} date 2024-06-13T00:50:02+0200
; FORMAT={-:-/ absolute / inch / decimal}
; #@! TF.CreationDate,2024-06-13T00:50:02+02:00
; #@! TF.GenerationSoftware,Kicad,Pcbnew,8.0.3
; #@! TF.FileFunction,Plated,1,2,PTH
FMAT,2
INCH
; #@! TA.AperFunction,Plated,PTH,ViaDrill
T1C0.0118
; #@! TA.AperFunction,Plated,PTH,ViaDrill
T2C0.0157
; #@! TA.AperFunction,Plated,PTH,ViaDrill
T3C0.0197
; #@! TA.AperFunction,Plated,PTH,ComponentDrill
T4C0.0256
; #@! TA.AperFunction,Plated,PTH,ComponentDrill
T5C0.0315
; #@! TA.AperFunction,Plated,PTH,ComponentDrill
T6C0.0630
%
G90
G05
T1
X4.7244Y-2.9134
T2
X4.5544Y-2.936
X4.5827Y-2.6693
X4.6161Y-4.0653
X4.6161Y-4.2424
X4.628Y-2.8563
X4.6949Y-2.6181
X4.6949Y-3.7106
X4.7047Y-4.0653
X4.7047Y-4.2424
X4.7211Y-3.8476
X4.7343Y-2.7165
X4.7441Y-3.7106
X4.7441Y-3.75
X4.7874Y-3.122
X4.7874Y-3.1929
X4.7933Y-2.6575
X4.8061Y-2.7972
X4.811Y-2.752
X4.8228Y-2.8839
X4.8311Y-3.8476
X4.8366Y-3.5497
X4.8622Y-2.8839
X4.9094Y-3.3602
X4.9094Y-3.498
X4.9094Y-3.5571
T3
X4.6851Y-3.3466
X4.7061Y-3.2626
X4.7911Y-3.2926
T4
X4.4587Y-2.6614
X4.4587Y-2.7114
X4.4587Y-2.7614
X4.4587Y-2.8114
T5
X5.0811Y-2.5126
X5.0811Y-2.6126
X5.0811Y-2.7126
X5.0811Y-2.8126
X5.0811Y-2.9126
X5.0811Y-3.0126
X5.0811Y-3.1126
X5.0811Y-3.2126
X5.0811Y-3.3126
X5.0811Y-3.4126
X5.0811Y-3.5126
X5.0811Y-3.6126
X5.0811Y-3.7126
X5.0811Y-3.8126
X5.0811Y-3.9126
X5.0811Y-4.0126
X5.0811Y-4.1126
X5.0811Y-4.2126
X5.1811Y-2.5126
X5.1811Y-2.6126
X5.1811Y-2.7126
X5.1811Y-2.8126
X5.1811Y-2.9126
X5.1811Y-3.0126
X5.1811Y-3.1126
X5.1811Y-3.2126
X5.1811Y-3.3126
X5.1811Y-3.4126
X5.1811Y-3.5126
X5.1811Y-3.6126
X5.1811Y-3.7126
X5.1811Y-3.8126
X5.1811Y-3.9126
X5.1811Y-4.0126
X5.1811Y-4.1126
X5.1811Y-4.2126
X5.2811Y-2.5126
X5.2811Y-2.6126
X5.2811Y-2.7126
X5.2811Y-2.8126
X5.2811Y-2.9126
X5.2811Y-3.0126
X5.2811Y-3.1126
X5.2811Y-3.2126
X5.2811Y-3.3126
X5.2811Y-3.4126
X5.2811Y-3.5126
X5.2811Y-3.6126
X5.2811Y-3.7126
X5.2811Y-3.8126
X5.2811Y-3.9126
X5.2811Y-4.0126
X5.2811Y-4.1126
X5.2811Y-4.2126
X5.3811Y-2.5126
X5.3811Y-2.6126
X5.3811Y-2.7126
X5.3811Y-2.8126
X5.3811Y-2.9126
X5.3811Y-3.0126
X5.3811Y-3.1126
X5.3811Y-3.2126
X5.3811Y-3.3126
X5.3811Y-3.4126
X5.3811Y-3.5126
X5.3811Y-3.6126
X5.3811Y-3.7126
X5.3811Y-3.8126
X5.3811Y-3.9126
X5.3811Y-4.0126
X5.3811Y-4.1126
X5.3811Y-4.2126
X5.4811Y-2.5126
X5.4811Y-2.6126
X5.4811Y-2.7126
X5.4811Y-2.8126
X5.4811Y-2.9126
X5.4811Y-3.0126
X5.4811Y-3.1126
X5.4811Y-3.2126
X5.4811Y-3.3126
X5.4811Y-3.4126
X5.4811Y-3.5126
X5.4811Y-3.6126
X5.4811Y-3.7126
X5.4811Y-3.8126
X5.4811Y-3.9126
X5.4811Y-4.0126
X5.4811Y-4.1126
X5.4811Y-4.2126
X5.5811Y-2.5126
X5.5811Y-2.6126
X5.5811Y-2.7126
X5.5811Y-2.8126
X5.5811Y-2.9126
X5.5811Y-3.0126
X5.5811Y-3.1126
X5.5811Y-3.2126
X5.5811Y-3.3126
X5.5811Y-3.4126
X5.5811Y-3.5126
X5.5811Y-3.6126
X5.5811Y-3.7126
X5.5811Y-3.8126
X5.5811Y-3.9126
X5.5811Y-4.0126
X5.5811Y-4.1126
X5.5811Y-4.2126
X5.6811Y-2.5126
X5.6811Y-2.6126
X5.6811Y-2.7126
X5.6811Y-2.8126
X5.6811Y-2.9126
X5.6811Y-3.0126
X5.6811Y-3.1126
X5.6811Y-3.2126
X5.6811Y-3.3126
X5.6811Y-3.4126
X5.6811Y-3.5126
X5.6811Y-3.6126
X5.6811Y-3.7126
X5.6811Y-3.8126
X5.6811Y-3.9126
X5.6811Y-4.0126
X5.6811Y-4.1126
X5.6811Y-4.2126
X5.7811Y-2.5126
X5.7811Y-2.6126
X5.7811Y-2.7126
X5.7811Y-2.8126
X5.7811Y-2.9126
X5.7811Y-3.0126
X5.7811Y-3.1126
X5.7811Y-3.2126
X5.7811Y-3.3126
X5.7811Y-3.4126
X5.7811Y-3.5126
X5.7811Y-3.6126
X5.7811Y-3.7126
X5.7811Y-3.8126
X5.7811Y-3.9126
X5.7811Y-4.0126
X5.7811Y-4.1126
X5.7811Y-4.2126
X5.8811Y-2.5126
X5.8811Y-2.6126
X5.8811Y-2.7126
X5.8811Y-2.8126
X5.8811Y-2.9126
X5.8811Y-3.0126
X5.8811Y-3.1126
X5.8811Y-3.2126
X5.8811Y-3.3126
X5.8811Y-3.4126
X5.8811Y-3.5126
X5.8811Y-3.6126
X5.8811Y-3.7126
X5.8811Y-3.8126
X5.8811Y-3.9126
X5.8811Y-4.0126
X5.8811Y-4.1126
X5.8811Y-4.2126
X5.9811Y-2.5126
X5.9811Y-2.6126
X5.9811Y-2.7126
X5.9811Y-2.8126
X5.9811Y-2.9126
X5.9811Y-3.0126
X5.9811Y-3.1126
X5.9811Y-3.2126
X5.9811Y-3.3126
X5.9811Y-3.4126
X5.9811Y-3.5126
X5.9811Y-3.6126
X5.9811Y-3.7126
X5.9811Y-3.8126
X5.9811Y-3.9126
X5.9811Y-4.0126
X5.9811Y-4.1126
X5.9811Y-4.2126
X6.0811Y-2.7126
X6.0811Y-2.8126
X6.0811Y-2.9126
X6.0811Y-3.0126
X6.0811Y-3.1126
X6.0811Y-3.2126
X6.0811Y-3.3126
X6.0811Y-3.4126
X6.0811Y-3.5126
X6.0811Y-3.6126
X6.0811Y-3.7126
X6.0811Y-3.8126
X6.0811Y-3.9126
X6.0811Y-4.0126
X6.1811Y-2.7126
X6.1811Y-2.8126
X6.1811Y-2.9126
X6.1811Y-3.0126
X6.1811Y-3.1126
X6.1811Y-3.2126
X6.1811Y-3.3126
X6.1811Y-3.4126
X6.1811Y-3.5126
X6.1811Y-3.6126
X6.1811Y-3.7126
X6.1811Y-3.8126
X6.1811Y-3.9126
X6.1811Y-4.0126
T6
X4.5236Y-3.1654
X4.5236Y-3.3031
X4.5236Y-3.5886
X4.5236Y-3.7264
X4.5236Y-3.8642
M30
