%TF.GenerationSoftware,KiCad,Pcbnew,8.0.3*%
%TF.CreationDate,2024-06-13T00:49:58+02:00*%
%TF.ProjectId,can-proto,63616e2d-7072-46f7-946f-2e6b69636164,1*%
%TF.SameCoordinates,Original*%
%TF.FileFunction,Legend,Top*%
%TF.FilePolarity,Positive*%
%FSLAX46Y46*%
G04 Gerber Fmt 4.6, Leading zero omitted, Abs format (unit mm)*
G04 Created by KiCad (PCBNEW 8.0.3) date 2024-06-13 00:49:58*
%MOMM*%
%LPD*%
G01*
G04 APERTURE LIST*
%ADD10C,0.150000*%
%ADD11C,0.642961*%
%ADD12C,0.120000*%
G04 APERTURE END LIST*
D10*
X130330000Y-100650000D02*
X126520000Y-100650000D01*
X125631000Y-92649000D02*
X125631000Y-89347000D01*
X130330000Y-95570000D02*
X126520000Y-95570000D01*
X130330000Y-85410000D02*
X127790000Y-85410000D01*
D11*
X111601480Y-67630000D02*
G75*
G02*
X110958520Y-67630000I-321480J0D01*
G01*
X110958520Y-67630000D02*
G75*
G02*
X111601480Y-67630000I321480J0D01*
G01*
D10*
X130330000Y-90490000D02*
X127790000Y-90490000D01*
X130330000Y-65090000D02*
X127790000Y-65090000D01*
X130330000Y-105730000D02*
X127790000Y-105730000D01*
X125631000Y-89347000D02*
X125504000Y-89093000D01*
X130330000Y-62550000D02*
X130330000Y-108270000D01*
X127274104Y-72154285D02*
X127274104Y-71678095D01*
X127559819Y-72249523D02*
X126559819Y-71916190D01*
X126559819Y-71916190D02*
X127559819Y-71582857D01*
X126559819Y-70773333D02*
X126559819Y-71249523D01*
X126559819Y-71249523D02*
X127036009Y-71297142D01*
X127036009Y-71297142D02*
X126988390Y-71249523D01*
X126988390Y-71249523D02*
X126940771Y-71154285D01*
X126940771Y-71154285D02*
X126940771Y-70916190D01*
X126940771Y-70916190D02*
X126988390Y-70820952D01*
X126988390Y-70820952D02*
X127036009Y-70773333D01*
X127036009Y-70773333D02*
X127131247Y-70725714D01*
X127131247Y-70725714D02*
X127369342Y-70725714D01*
X127369342Y-70725714D02*
X127464580Y-70773333D01*
X127464580Y-70773333D02*
X127512200Y-70820952D01*
X127512200Y-70820952D02*
X127559819Y-70916190D01*
X127559819Y-70916190D02*
X127559819Y-71154285D01*
X127559819Y-71154285D02*
X127512200Y-71249523D01*
X127512200Y-71249523D02*
X127464580Y-71297142D01*
X127115438Y-98871904D02*
X127067819Y-98967142D01*
X127067819Y-98967142D02*
X127067819Y-99109999D01*
X127067819Y-99109999D02*
X127115438Y-99252856D01*
X127115438Y-99252856D02*
X127210676Y-99348094D01*
X127210676Y-99348094D02*
X127305914Y-99395713D01*
X127305914Y-99395713D02*
X127496390Y-99443332D01*
X127496390Y-99443332D02*
X127639247Y-99443332D01*
X127639247Y-99443332D02*
X127829723Y-99395713D01*
X127829723Y-99395713D02*
X127924961Y-99348094D01*
X127924961Y-99348094D02*
X128020200Y-99252856D01*
X128020200Y-99252856D02*
X128067819Y-99109999D01*
X128067819Y-99109999D02*
X128067819Y-99014761D01*
X128067819Y-99014761D02*
X128020200Y-98871904D01*
X128020200Y-98871904D02*
X127972580Y-98824285D01*
X127972580Y-98824285D02*
X127639247Y-98824285D01*
X127639247Y-98824285D02*
X127639247Y-99014761D01*
X128067819Y-98395713D02*
X127067819Y-98395713D01*
X127067819Y-98395713D02*
X128067819Y-97824285D01*
X128067819Y-97824285D02*
X127067819Y-97824285D01*
X128067819Y-97348094D02*
X127067819Y-97348094D01*
X127067819Y-97348094D02*
X127067819Y-97109999D01*
X127067819Y-97109999D02*
X127115438Y-96967142D01*
X127115438Y-96967142D02*
X127210676Y-96871904D01*
X127210676Y-96871904D02*
X127305914Y-96824285D01*
X127305914Y-96824285D02*
X127496390Y-96776666D01*
X127496390Y-96776666D02*
X127639247Y-96776666D01*
X127639247Y-96776666D02*
X127829723Y-96824285D01*
X127829723Y-96824285D02*
X127924961Y-96871904D01*
X127924961Y-96871904D02*
X128020200Y-96967142D01*
X128020200Y-96967142D02*
X128067819Y-97109999D01*
X128067819Y-97109999D02*
X128067819Y-97348094D01*
X126607438Y-107761904D02*
X126559819Y-107857142D01*
X126559819Y-107857142D02*
X126559819Y-107999999D01*
X126559819Y-107999999D02*
X126607438Y-108142856D01*
X126607438Y-108142856D02*
X126702676Y-108238094D01*
X126702676Y-108238094D02*
X126797914Y-108285713D01*
X126797914Y-108285713D02*
X126988390Y-108333332D01*
X126988390Y-108333332D02*
X127131247Y-108333332D01*
X127131247Y-108333332D02*
X127321723Y-108285713D01*
X127321723Y-108285713D02*
X127416961Y-108238094D01*
X127416961Y-108238094D02*
X127512200Y-108142856D01*
X127512200Y-108142856D02*
X127559819Y-107999999D01*
X127559819Y-107999999D02*
X127559819Y-107904761D01*
X127559819Y-107904761D02*
X127512200Y-107761904D01*
X127512200Y-107761904D02*
X127464580Y-107714285D01*
X127464580Y-107714285D02*
X127131247Y-107714285D01*
X127131247Y-107714285D02*
X127131247Y-107904761D01*
X127559819Y-107285713D02*
X126559819Y-107285713D01*
X126559819Y-107285713D02*
X127559819Y-106714285D01*
X127559819Y-106714285D02*
X126559819Y-106714285D01*
X127559819Y-106238094D02*
X126559819Y-106238094D01*
X126559819Y-106238094D02*
X126559819Y-105999999D01*
X126559819Y-105999999D02*
X126607438Y-105857142D01*
X126607438Y-105857142D02*
X126702676Y-105761904D01*
X126702676Y-105761904D02*
X126797914Y-105714285D01*
X126797914Y-105714285D02*
X126988390Y-105666666D01*
X126988390Y-105666666D02*
X127131247Y-105666666D01*
X127131247Y-105666666D02*
X127321723Y-105714285D01*
X127321723Y-105714285D02*
X127416961Y-105761904D01*
X127416961Y-105761904D02*
X127512200Y-105857142D01*
X127512200Y-105857142D02*
X127559819Y-105999999D01*
X127559819Y-105999999D02*
X127559819Y-106238094D01*
X127036009Y-94704761D02*
X127083628Y-94561904D01*
X127083628Y-94561904D02*
X127131247Y-94514285D01*
X127131247Y-94514285D02*
X127226485Y-94466666D01*
X127226485Y-94466666D02*
X127369342Y-94466666D01*
X127369342Y-94466666D02*
X127464580Y-94514285D01*
X127464580Y-94514285D02*
X127512200Y-94561904D01*
X127512200Y-94561904D02*
X127559819Y-94657142D01*
X127559819Y-94657142D02*
X127559819Y-95038094D01*
X127559819Y-95038094D02*
X126559819Y-95038094D01*
X126559819Y-95038094D02*
X126559819Y-94704761D01*
X126559819Y-94704761D02*
X126607438Y-94609523D01*
X126607438Y-94609523D02*
X126655057Y-94561904D01*
X126655057Y-94561904D02*
X126750295Y-94514285D01*
X126750295Y-94514285D02*
X126845533Y-94514285D01*
X126845533Y-94514285D02*
X126940771Y-94561904D01*
X126940771Y-94561904D02*
X126988390Y-94609523D01*
X126988390Y-94609523D02*
X127036009Y-94704761D01*
X127036009Y-94704761D02*
X127036009Y-95038094D01*
X127559819Y-93514285D02*
X127559819Y-94085713D01*
X127559819Y-93799999D02*
X126559819Y-93799999D01*
X126559819Y-93799999D02*
X126702676Y-93895237D01*
X126702676Y-93895237D02*
X126797914Y-93990475D01*
X126797914Y-93990475D02*
X126845533Y-94085713D01*
X127274104Y-84854285D02*
X127274104Y-84378095D01*
X127559819Y-84949523D02*
X126559819Y-84616190D01*
X126559819Y-84616190D02*
X127559819Y-84282857D01*
X126559819Y-83759047D02*
X126559819Y-83663809D01*
X126559819Y-83663809D02*
X126607438Y-83568571D01*
X126607438Y-83568571D02*
X126655057Y-83520952D01*
X126655057Y-83520952D02*
X126750295Y-83473333D01*
X126750295Y-83473333D02*
X126940771Y-83425714D01*
X126940771Y-83425714D02*
X127178866Y-83425714D01*
X127178866Y-83425714D02*
X127369342Y-83473333D01*
X127369342Y-83473333D02*
X127464580Y-83520952D01*
X127464580Y-83520952D02*
X127512200Y-83568571D01*
X127512200Y-83568571D02*
X127559819Y-83663809D01*
X127559819Y-83663809D02*
X127559819Y-83759047D01*
X127559819Y-83759047D02*
X127512200Y-83854285D01*
X127512200Y-83854285D02*
X127464580Y-83901904D01*
X127464580Y-83901904D02*
X127369342Y-83949523D01*
X127369342Y-83949523D02*
X127178866Y-83997142D01*
X127178866Y-83997142D02*
X126940771Y-83997142D01*
X126940771Y-83997142D02*
X126750295Y-83949523D01*
X126750295Y-83949523D02*
X126655057Y-83901904D01*
X126655057Y-83901904D02*
X126607438Y-83854285D01*
X126607438Y-83854285D02*
X126559819Y-83759047D01*
X127036009Y-92164761D02*
X127083628Y-92021904D01*
X127083628Y-92021904D02*
X127131247Y-91974285D01*
X127131247Y-91974285D02*
X127226485Y-91926666D01*
X127226485Y-91926666D02*
X127369342Y-91926666D01*
X127369342Y-91926666D02*
X127464580Y-91974285D01*
X127464580Y-91974285D02*
X127512200Y-92021904D01*
X127512200Y-92021904D02*
X127559819Y-92117142D01*
X127559819Y-92117142D02*
X127559819Y-92498094D01*
X127559819Y-92498094D02*
X126559819Y-92498094D01*
X126559819Y-92498094D02*
X126559819Y-92164761D01*
X126559819Y-92164761D02*
X126607438Y-92069523D01*
X126607438Y-92069523D02*
X126655057Y-92021904D01*
X126655057Y-92021904D02*
X126750295Y-91974285D01*
X126750295Y-91974285D02*
X126845533Y-91974285D01*
X126845533Y-91974285D02*
X126940771Y-92021904D01*
X126940771Y-92021904D02*
X126988390Y-92069523D01*
X126988390Y-92069523D02*
X127036009Y-92164761D01*
X127036009Y-92164761D02*
X127036009Y-92498094D01*
X126988390Y-91355237D02*
X126940771Y-91450475D01*
X126940771Y-91450475D02*
X126893152Y-91498094D01*
X126893152Y-91498094D02*
X126797914Y-91545713D01*
X126797914Y-91545713D02*
X126750295Y-91545713D01*
X126750295Y-91545713D02*
X126655057Y-91498094D01*
X126655057Y-91498094D02*
X126607438Y-91450475D01*
X126607438Y-91450475D02*
X126559819Y-91355237D01*
X126559819Y-91355237D02*
X126559819Y-91164761D01*
X126559819Y-91164761D02*
X126607438Y-91069523D01*
X126607438Y-91069523D02*
X126655057Y-91021904D01*
X126655057Y-91021904D02*
X126750295Y-90974285D01*
X126750295Y-90974285D02*
X126797914Y-90974285D01*
X126797914Y-90974285D02*
X126893152Y-91021904D01*
X126893152Y-91021904D02*
X126940771Y-91069523D01*
X126940771Y-91069523D02*
X126988390Y-91164761D01*
X126988390Y-91164761D02*
X126988390Y-91355237D01*
X126988390Y-91355237D02*
X127036009Y-91450475D01*
X127036009Y-91450475D02*
X127083628Y-91498094D01*
X127083628Y-91498094D02*
X127178866Y-91545713D01*
X127178866Y-91545713D02*
X127369342Y-91545713D01*
X127369342Y-91545713D02*
X127464580Y-91498094D01*
X127464580Y-91498094D02*
X127512200Y-91450475D01*
X127512200Y-91450475D02*
X127559819Y-91355237D01*
X127559819Y-91355237D02*
X127559819Y-91164761D01*
X127559819Y-91164761D02*
X127512200Y-91069523D01*
X127512200Y-91069523D02*
X127464580Y-91021904D01*
X127464580Y-91021904D02*
X127369342Y-90974285D01*
X127369342Y-90974285D02*
X127178866Y-90974285D01*
X127178866Y-90974285D02*
X127083628Y-91021904D01*
X127083628Y-91021904D02*
X127036009Y-91069523D01*
X127036009Y-91069523D02*
X126988390Y-91164761D01*
X127412200Y-87751428D02*
X127455057Y-87622857D01*
X127455057Y-87622857D02*
X127455057Y-87408571D01*
X127455057Y-87408571D02*
X127412200Y-87322857D01*
X127412200Y-87322857D02*
X127369342Y-87279999D01*
X127369342Y-87279999D02*
X127283628Y-87237142D01*
X127283628Y-87237142D02*
X127197914Y-87237142D01*
X127197914Y-87237142D02*
X127112200Y-87279999D01*
X127112200Y-87279999D02*
X127069342Y-87322857D01*
X127069342Y-87322857D02*
X127026485Y-87408571D01*
X127026485Y-87408571D02*
X126983628Y-87579999D01*
X126983628Y-87579999D02*
X126940771Y-87665714D01*
X126940771Y-87665714D02*
X126897914Y-87708571D01*
X126897914Y-87708571D02*
X126812200Y-87751428D01*
X126812200Y-87751428D02*
X126726485Y-87751428D01*
X126726485Y-87751428D02*
X126640771Y-87708571D01*
X126640771Y-87708571D02*
X126597914Y-87665714D01*
X126597914Y-87665714D02*
X126555057Y-87579999D01*
X126555057Y-87579999D02*
X126555057Y-87365714D01*
X126555057Y-87365714D02*
X126597914Y-87237142D01*
X127369342Y-86337142D02*
X127412200Y-86379999D01*
X127412200Y-86379999D02*
X127455057Y-86508571D01*
X127455057Y-86508571D02*
X127455057Y-86594285D01*
X127455057Y-86594285D02*
X127412200Y-86722856D01*
X127412200Y-86722856D02*
X127326485Y-86808571D01*
X127326485Y-86808571D02*
X127240771Y-86851428D01*
X127240771Y-86851428D02*
X127069342Y-86894285D01*
X127069342Y-86894285D02*
X126940771Y-86894285D01*
X126940771Y-86894285D02*
X126769342Y-86851428D01*
X126769342Y-86851428D02*
X126683628Y-86808571D01*
X126683628Y-86808571D02*
X126597914Y-86722856D01*
X126597914Y-86722856D02*
X126555057Y-86594285D01*
X126555057Y-86594285D02*
X126555057Y-86508571D01*
X126555057Y-86508571D02*
X126597914Y-86379999D01*
X126597914Y-86379999D02*
X126640771Y-86337142D01*
X127455057Y-85522856D02*
X127455057Y-85951428D01*
X127455057Y-85951428D02*
X126555057Y-85951428D01*
X126607438Y-64581904D02*
X126559819Y-64677142D01*
X126559819Y-64677142D02*
X126559819Y-64819999D01*
X126559819Y-64819999D02*
X126607438Y-64962856D01*
X126607438Y-64962856D02*
X126702676Y-65058094D01*
X126702676Y-65058094D02*
X126797914Y-65105713D01*
X126797914Y-65105713D02*
X126988390Y-65153332D01*
X126988390Y-65153332D02*
X127131247Y-65153332D01*
X127131247Y-65153332D02*
X127321723Y-65105713D01*
X127321723Y-65105713D02*
X127416961Y-65058094D01*
X127416961Y-65058094D02*
X127512200Y-64962856D01*
X127512200Y-64962856D02*
X127559819Y-64819999D01*
X127559819Y-64819999D02*
X127559819Y-64724761D01*
X127559819Y-64724761D02*
X127512200Y-64581904D01*
X127512200Y-64581904D02*
X127464580Y-64534285D01*
X127464580Y-64534285D02*
X127131247Y-64534285D01*
X127131247Y-64534285D02*
X127131247Y-64724761D01*
X127559819Y-64105713D02*
X126559819Y-64105713D01*
X126559819Y-64105713D02*
X127559819Y-63534285D01*
X127559819Y-63534285D02*
X126559819Y-63534285D01*
X127559819Y-63058094D02*
X126559819Y-63058094D01*
X126559819Y-63058094D02*
X126559819Y-62819999D01*
X126559819Y-62819999D02*
X126607438Y-62677142D01*
X126607438Y-62677142D02*
X126702676Y-62581904D01*
X126702676Y-62581904D02*
X126797914Y-62534285D01*
X126797914Y-62534285D02*
X126988390Y-62486666D01*
X126988390Y-62486666D02*
X127131247Y-62486666D01*
X127131247Y-62486666D02*
X127321723Y-62534285D01*
X127321723Y-62534285D02*
X127416961Y-62581904D01*
X127416961Y-62581904D02*
X127512200Y-62677142D01*
X127512200Y-62677142D02*
X127559819Y-62819999D01*
X127559819Y-62819999D02*
X127559819Y-63058094D01*
X127274104Y-67074285D02*
X127274104Y-66598095D01*
X127559819Y-67169523D02*
X126559819Y-66836190D01*
X126559819Y-66836190D02*
X127559819Y-66502857D01*
X126559819Y-66264761D02*
X126559819Y-65598095D01*
X126559819Y-65598095D02*
X127559819Y-66026666D01*
X126559819Y-104523332D02*
X127559819Y-104189999D01*
X127559819Y-104189999D02*
X126559819Y-103856666D01*
X127559819Y-103523332D02*
X126559819Y-103523332D01*
X126559819Y-103523332D02*
X126559819Y-103285237D01*
X126559819Y-103285237D02*
X126607438Y-103142380D01*
X126607438Y-103142380D02*
X126702676Y-103047142D01*
X126702676Y-103047142D02*
X126797914Y-102999523D01*
X126797914Y-102999523D02*
X126988390Y-102951904D01*
X126988390Y-102951904D02*
X127131247Y-102951904D01*
X127131247Y-102951904D02*
X127321723Y-102999523D01*
X127321723Y-102999523D02*
X127416961Y-103047142D01*
X127416961Y-103047142D02*
X127512200Y-103142380D01*
X127512200Y-103142380D02*
X127559819Y-103285237D01*
X127559819Y-103285237D02*
X127559819Y-103523332D01*
X127559819Y-102523332D02*
X126559819Y-102523332D01*
X126559819Y-102523332D02*
X126559819Y-102285237D01*
X126559819Y-102285237D02*
X126607438Y-102142380D01*
X126607438Y-102142380D02*
X126702676Y-102047142D01*
X126702676Y-102047142D02*
X126797914Y-101999523D01*
X126797914Y-101999523D02*
X126988390Y-101951904D01*
X126988390Y-101951904D02*
X127131247Y-101951904D01*
X127131247Y-101951904D02*
X127321723Y-101999523D01*
X127321723Y-101999523D02*
X127416961Y-102047142D01*
X127416961Y-102047142D02*
X127512200Y-102142380D01*
X127512200Y-102142380D02*
X127559819Y-102285237D01*
X127559819Y-102285237D02*
X127559819Y-102523332D01*
X127274104Y-69614285D02*
X127274104Y-69138095D01*
X127559819Y-69709523D02*
X126559819Y-69376190D01*
X126559819Y-69376190D02*
X127559819Y-69042857D01*
X126559819Y-68280952D02*
X126559819Y-68471428D01*
X126559819Y-68471428D02*
X126607438Y-68566666D01*
X126607438Y-68566666D02*
X126655057Y-68614285D01*
X126655057Y-68614285D02*
X126797914Y-68709523D01*
X126797914Y-68709523D02*
X126988390Y-68757142D01*
X126988390Y-68757142D02*
X127369342Y-68757142D01*
X127369342Y-68757142D02*
X127464580Y-68709523D01*
X127464580Y-68709523D02*
X127512200Y-68661904D01*
X127512200Y-68661904D02*
X127559819Y-68566666D01*
X127559819Y-68566666D02*
X127559819Y-68376190D01*
X127559819Y-68376190D02*
X127512200Y-68280952D01*
X127512200Y-68280952D02*
X127464580Y-68233333D01*
X127464580Y-68233333D02*
X127369342Y-68185714D01*
X127369342Y-68185714D02*
X127131247Y-68185714D01*
X127131247Y-68185714D02*
X127036009Y-68233333D01*
X127036009Y-68233333D02*
X126988390Y-68280952D01*
X126988390Y-68280952D02*
X126940771Y-68376190D01*
X126940771Y-68376190D02*
X126940771Y-68566666D01*
X126940771Y-68566666D02*
X126988390Y-68661904D01*
X126988390Y-68661904D02*
X127036009Y-68709523D01*
X127036009Y-68709523D02*
X127131247Y-68757142D01*
X127274104Y-82314285D02*
X127274104Y-81838095D01*
X127559819Y-82409523D02*
X126559819Y-82076190D01*
X126559819Y-82076190D02*
X127559819Y-81742857D01*
X127559819Y-80885714D02*
X127559819Y-81457142D01*
X127559819Y-81171428D02*
X126559819Y-81171428D01*
X126559819Y-81171428D02*
X126702676Y-81266666D01*
X126702676Y-81266666D02*
X126797914Y-81361904D01*
X126797914Y-81361904D02*
X126845533Y-81457142D01*
X127412200Y-90312857D02*
X127455057Y-90184286D01*
X127455057Y-90184286D02*
X127455057Y-89970000D01*
X127455057Y-89970000D02*
X127412200Y-89884286D01*
X127412200Y-89884286D02*
X127369342Y-89841428D01*
X127369342Y-89841428D02*
X127283628Y-89798571D01*
X127283628Y-89798571D02*
X127197914Y-89798571D01*
X127197914Y-89798571D02*
X127112200Y-89841428D01*
X127112200Y-89841428D02*
X127069342Y-89884286D01*
X127069342Y-89884286D02*
X127026485Y-89970000D01*
X127026485Y-89970000D02*
X126983628Y-90141428D01*
X126983628Y-90141428D02*
X126940771Y-90227143D01*
X126940771Y-90227143D02*
X126897914Y-90270000D01*
X126897914Y-90270000D02*
X126812200Y-90312857D01*
X126812200Y-90312857D02*
X126726485Y-90312857D01*
X126726485Y-90312857D02*
X126640771Y-90270000D01*
X126640771Y-90270000D02*
X126597914Y-90227143D01*
X126597914Y-90227143D02*
X126555057Y-90141428D01*
X126555057Y-90141428D02*
X126555057Y-89927143D01*
X126555057Y-89927143D02*
X126597914Y-89798571D01*
X127455057Y-89412857D02*
X126555057Y-89412857D01*
X126555057Y-89412857D02*
X126555057Y-89198571D01*
X126555057Y-89198571D02*
X126597914Y-89070000D01*
X126597914Y-89070000D02*
X126683628Y-88984285D01*
X126683628Y-88984285D02*
X126769342Y-88941428D01*
X126769342Y-88941428D02*
X126940771Y-88898571D01*
X126940771Y-88898571D02*
X127069342Y-88898571D01*
X127069342Y-88898571D02*
X127240771Y-88941428D01*
X127240771Y-88941428D02*
X127326485Y-88984285D01*
X127326485Y-88984285D02*
X127412200Y-89070000D01*
X127412200Y-89070000D02*
X127455057Y-89198571D01*
X127455057Y-89198571D02*
X127455057Y-89412857D01*
X127197914Y-88555714D02*
X127197914Y-88127143D01*
X127455057Y-88641428D02*
X126555057Y-88341428D01*
X126555057Y-88341428D02*
X127455057Y-88041428D01*
X127274104Y-77234285D02*
X127274104Y-76758095D01*
X127559819Y-77329523D02*
X126559819Y-76996190D01*
X126559819Y-76996190D02*
X127559819Y-76662857D01*
X126559819Y-76424761D02*
X126559819Y-75805714D01*
X126559819Y-75805714D02*
X126940771Y-76139047D01*
X126940771Y-76139047D02*
X126940771Y-75996190D01*
X126940771Y-75996190D02*
X126988390Y-75900952D01*
X126988390Y-75900952D02*
X127036009Y-75853333D01*
X127036009Y-75853333D02*
X127131247Y-75805714D01*
X127131247Y-75805714D02*
X127369342Y-75805714D01*
X127369342Y-75805714D02*
X127464580Y-75853333D01*
X127464580Y-75853333D02*
X127512200Y-75900952D01*
X127512200Y-75900952D02*
X127559819Y-75996190D01*
X127559819Y-75996190D02*
X127559819Y-76281904D01*
X127559819Y-76281904D02*
X127512200Y-76377142D01*
X127512200Y-76377142D02*
X127464580Y-76424761D01*
X135778493Y-60657819D02*
X135778493Y-61372104D01*
X135778493Y-61372104D02*
X135730874Y-61514961D01*
X135730874Y-61514961D02*
X135635636Y-61610200D01*
X135635636Y-61610200D02*
X135492779Y-61657819D01*
X135492779Y-61657819D02*
X135397541Y-61657819D01*
X136730874Y-61657819D02*
X136254684Y-61657819D01*
X136254684Y-61657819D02*
X136254684Y-60657819D01*
X137635636Y-61562580D02*
X137588017Y-61610200D01*
X137588017Y-61610200D02*
X137445160Y-61657819D01*
X137445160Y-61657819D02*
X137349922Y-61657819D01*
X137349922Y-61657819D02*
X137207065Y-61610200D01*
X137207065Y-61610200D02*
X137111827Y-61514961D01*
X137111827Y-61514961D02*
X137064208Y-61419723D01*
X137064208Y-61419723D02*
X137016589Y-61229247D01*
X137016589Y-61229247D02*
X137016589Y-61086390D01*
X137016589Y-61086390D02*
X137064208Y-60895914D01*
X137064208Y-60895914D02*
X137111827Y-60800676D01*
X137111827Y-60800676D02*
X137207065Y-60705438D01*
X137207065Y-60705438D02*
X137349922Y-60657819D01*
X137349922Y-60657819D02*
X137445160Y-60657819D01*
X137445160Y-60657819D02*
X137588017Y-60705438D01*
X137588017Y-60705438D02*
X137635636Y-60753057D01*
X138349922Y-60657819D02*
X138349922Y-61372104D01*
X138349922Y-61372104D02*
X138302303Y-61514961D01*
X138302303Y-61514961D02*
X138207065Y-61610200D01*
X138207065Y-61610200D02*
X138064208Y-61657819D01*
X138064208Y-61657819D02*
X137968970Y-61657819D01*
X139302303Y-61657819D02*
X138826113Y-61657819D01*
X138826113Y-61657819D02*
X138826113Y-60657819D01*
X140207065Y-61562580D02*
X140159446Y-61610200D01*
X140159446Y-61610200D02*
X140016589Y-61657819D01*
X140016589Y-61657819D02*
X139921351Y-61657819D01*
X139921351Y-61657819D02*
X139778494Y-61610200D01*
X139778494Y-61610200D02*
X139683256Y-61514961D01*
X139683256Y-61514961D02*
X139635637Y-61419723D01*
X139635637Y-61419723D02*
X139588018Y-61229247D01*
X139588018Y-61229247D02*
X139588018Y-61086390D01*
X139588018Y-61086390D02*
X139635637Y-60895914D01*
X139635637Y-60895914D02*
X139683256Y-60800676D01*
X139683256Y-60800676D02*
X139778494Y-60705438D01*
X139778494Y-60705438D02*
X139921351Y-60657819D01*
X139921351Y-60657819D02*
X140016589Y-60657819D01*
X140016589Y-60657819D02*
X140159446Y-60705438D01*
X140159446Y-60705438D02*
X140207065Y-60753057D01*
X140921351Y-60657819D02*
X140921351Y-61372104D01*
X140921351Y-61372104D02*
X140873732Y-61514961D01*
X140873732Y-61514961D02*
X140778494Y-61610200D01*
X140778494Y-61610200D02*
X140635637Y-61657819D01*
X140635637Y-61657819D02*
X140540399Y-61657819D01*
X141873732Y-61657819D02*
X141397542Y-61657819D01*
X141397542Y-61657819D02*
X141397542Y-60657819D01*
X142778494Y-61562580D02*
X142730875Y-61610200D01*
X142730875Y-61610200D02*
X142588018Y-61657819D01*
X142588018Y-61657819D02*
X142492780Y-61657819D01*
X142492780Y-61657819D02*
X142349923Y-61610200D01*
X142349923Y-61610200D02*
X142254685Y-61514961D01*
X142254685Y-61514961D02*
X142207066Y-61419723D01*
X142207066Y-61419723D02*
X142159447Y-61229247D01*
X142159447Y-61229247D02*
X142159447Y-61086390D01*
X142159447Y-61086390D02*
X142207066Y-60895914D01*
X142207066Y-60895914D02*
X142254685Y-60800676D01*
X142254685Y-60800676D02*
X142349923Y-60705438D01*
X142349923Y-60705438D02*
X142492780Y-60657819D01*
X142492780Y-60657819D02*
X142588018Y-60657819D01*
X142588018Y-60657819D02*
X142730875Y-60705438D01*
X142730875Y-60705438D02*
X142778494Y-60753057D01*
X143492780Y-60657819D02*
X143492780Y-61372104D01*
X143492780Y-61372104D02*
X143445161Y-61514961D01*
X143445161Y-61514961D02*
X143349923Y-61610200D01*
X143349923Y-61610200D02*
X143207066Y-61657819D01*
X143207066Y-61657819D02*
X143111828Y-61657819D01*
X144445161Y-61657819D02*
X143968971Y-61657819D01*
X143968971Y-61657819D02*
X143968971Y-60657819D01*
X145349923Y-61562580D02*
X145302304Y-61610200D01*
X145302304Y-61610200D02*
X145159447Y-61657819D01*
X145159447Y-61657819D02*
X145064209Y-61657819D01*
X145064209Y-61657819D02*
X144921352Y-61610200D01*
X144921352Y-61610200D02*
X144826114Y-61514961D01*
X144826114Y-61514961D02*
X144778495Y-61419723D01*
X144778495Y-61419723D02*
X144730876Y-61229247D01*
X144730876Y-61229247D02*
X144730876Y-61086390D01*
X144730876Y-61086390D02*
X144778495Y-60895914D01*
X144778495Y-60895914D02*
X144826114Y-60800676D01*
X144826114Y-60800676D02*
X144921352Y-60705438D01*
X144921352Y-60705438D02*
X145064209Y-60657819D01*
X145064209Y-60657819D02*
X145159447Y-60657819D01*
X145159447Y-60657819D02*
X145302304Y-60705438D01*
X145302304Y-60705438D02*
X145349923Y-60753057D01*
X127274104Y-79774285D02*
X127274104Y-79298095D01*
X127559819Y-79869523D02*
X126559819Y-79536190D01*
X126559819Y-79536190D02*
X127559819Y-79202857D01*
X126655057Y-78917142D02*
X126607438Y-78869523D01*
X126607438Y-78869523D02*
X126559819Y-78774285D01*
X126559819Y-78774285D02*
X126559819Y-78536190D01*
X126559819Y-78536190D02*
X126607438Y-78440952D01*
X126607438Y-78440952D02*
X126655057Y-78393333D01*
X126655057Y-78393333D02*
X126750295Y-78345714D01*
X126750295Y-78345714D02*
X126845533Y-78345714D01*
X126845533Y-78345714D02*
X126988390Y-78393333D01*
X126988390Y-78393333D02*
X127559819Y-78964761D01*
X127559819Y-78964761D02*
X127559819Y-78345714D01*
X127274104Y-74694285D02*
X127274104Y-74218095D01*
X127559819Y-74789523D02*
X126559819Y-74456190D01*
X126559819Y-74456190D02*
X127559819Y-74122857D01*
X126893152Y-73360952D02*
X127559819Y-73360952D01*
X126512200Y-73599047D02*
X127226485Y-73837142D01*
X127226485Y-73837142D02*
X127226485Y-73218095D01*
X112604819Y-74266666D02*
X112128628Y-74599999D01*
X112604819Y-74838094D02*
X111604819Y-74838094D01*
X111604819Y-74838094D02*
X111604819Y-74457142D01*
X111604819Y-74457142D02*
X111652438Y-74361904D01*
X111652438Y-74361904D02*
X111700057Y-74314285D01*
X111700057Y-74314285D02*
X111795295Y-74266666D01*
X111795295Y-74266666D02*
X111938152Y-74266666D01*
X111938152Y-74266666D02*
X112033390Y-74314285D01*
X112033390Y-74314285D02*
X112081009Y-74361904D01*
X112081009Y-74361904D02*
X112128628Y-74457142D01*
X112128628Y-74457142D02*
X112128628Y-74838094D01*
X112604819Y-73314285D02*
X112604819Y-73885713D01*
X112604819Y-73599999D02*
X111604819Y-73599999D01*
X111604819Y-73599999D02*
X111747676Y-73695237D01*
X111747676Y-73695237D02*
X111842914Y-73790475D01*
X111842914Y-73790475D02*
X111890533Y-73885713D01*
X124720580Y-93831666D02*
X124768200Y-93879285D01*
X124768200Y-93879285D02*
X124815819Y-94022142D01*
X124815819Y-94022142D02*
X124815819Y-94117380D01*
X124815819Y-94117380D02*
X124768200Y-94260237D01*
X124768200Y-94260237D02*
X124672961Y-94355475D01*
X124672961Y-94355475D02*
X124577723Y-94403094D01*
X124577723Y-94403094D02*
X124387247Y-94450713D01*
X124387247Y-94450713D02*
X124244390Y-94450713D01*
X124244390Y-94450713D02*
X124053914Y-94403094D01*
X124053914Y-94403094D02*
X123958676Y-94355475D01*
X123958676Y-94355475D02*
X123863438Y-94260237D01*
X123863438Y-94260237D02*
X123815819Y-94117380D01*
X123815819Y-94117380D02*
X123815819Y-94022142D01*
X123815819Y-94022142D02*
X123863438Y-93879285D01*
X123863438Y-93879285D02*
X123911057Y-93831666D01*
X123815819Y-92974523D02*
X123815819Y-93164999D01*
X123815819Y-93164999D02*
X123863438Y-93260237D01*
X123863438Y-93260237D02*
X123911057Y-93307856D01*
X123911057Y-93307856D02*
X124053914Y-93403094D01*
X124053914Y-93403094D02*
X124244390Y-93450713D01*
X124244390Y-93450713D02*
X124625342Y-93450713D01*
X124625342Y-93450713D02*
X124720580Y-93403094D01*
X124720580Y-93403094D02*
X124768200Y-93355475D01*
X124768200Y-93355475D02*
X124815819Y-93260237D01*
X124815819Y-93260237D02*
X124815819Y-93069761D01*
X124815819Y-93069761D02*
X124768200Y-92974523D01*
X124768200Y-92974523D02*
X124720580Y-92926904D01*
X124720580Y-92926904D02*
X124625342Y-92879285D01*
X124625342Y-92879285D02*
X124387247Y-92879285D01*
X124387247Y-92879285D02*
X124292009Y-92926904D01*
X124292009Y-92926904D02*
X124244390Y-92974523D01*
X124244390Y-92974523D02*
X124196771Y-93069761D01*
X124196771Y-93069761D02*
X124196771Y-93260237D01*
X124196771Y-93260237D02*
X124244390Y-93355475D01*
X124244390Y-93355475D02*
X124292009Y-93403094D01*
X124292009Y-93403094D02*
X124387247Y-93450713D01*
X124829333Y-109264580D02*
X124781714Y-109312200D01*
X124781714Y-109312200D02*
X124638857Y-109359819D01*
X124638857Y-109359819D02*
X124543619Y-109359819D01*
X124543619Y-109359819D02*
X124400762Y-109312200D01*
X124400762Y-109312200D02*
X124305524Y-109216961D01*
X124305524Y-109216961D02*
X124257905Y-109121723D01*
X124257905Y-109121723D02*
X124210286Y-108931247D01*
X124210286Y-108931247D02*
X124210286Y-108788390D01*
X124210286Y-108788390D02*
X124257905Y-108597914D01*
X124257905Y-108597914D02*
X124305524Y-108502676D01*
X124305524Y-108502676D02*
X124400762Y-108407438D01*
X124400762Y-108407438D02*
X124543619Y-108359819D01*
X124543619Y-108359819D02*
X124638857Y-108359819D01*
X124638857Y-108359819D02*
X124781714Y-108407438D01*
X124781714Y-108407438D02*
X124829333Y-108455057D01*
X125162667Y-108359819D02*
X125829333Y-108359819D01*
X125829333Y-108359819D02*
X125400762Y-109359819D01*
X125204819Y-75690476D02*
X124728628Y-76023809D01*
X125204819Y-76261904D02*
X124204819Y-76261904D01*
X124204819Y-76261904D02*
X124204819Y-75880952D01*
X124204819Y-75880952D02*
X124252438Y-75785714D01*
X124252438Y-75785714D02*
X124300057Y-75738095D01*
X124300057Y-75738095D02*
X124395295Y-75690476D01*
X124395295Y-75690476D02*
X124538152Y-75690476D01*
X124538152Y-75690476D02*
X124633390Y-75738095D01*
X124633390Y-75738095D02*
X124681009Y-75785714D01*
X124681009Y-75785714D02*
X124728628Y-75880952D01*
X124728628Y-75880952D02*
X124728628Y-76261904D01*
X125204819Y-75261904D02*
X124204819Y-75261904D01*
X124204819Y-75261904D02*
X125204819Y-74690476D01*
X125204819Y-74690476D02*
X124204819Y-74690476D01*
X125204819Y-73690476D02*
X125204819Y-74261904D01*
X125204819Y-73976190D02*
X124204819Y-73976190D01*
X124204819Y-73976190D02*
X124347676Y-74071428D01*
X124347676Y-74071428D02*
X124442914Y-74166666D01*
X124442914Y-74166666D02*
X124490533Y-74261904D01*
X115459580Y-72716666D02*
X115507200Y-72764285D01*
X115507200Y-72764285D02*
X115554819Y-72907142D01*
X115554819Y-72907142D02*
X115554819Y-73002380D01*
X115554819Y-73002380D02*
X115507200Y-73145237D01*
X115507200Y-73145237D02*
X115411961Y-73240475D01*
X115411961Y-73240475D02*
X115316723Y-73288094D01*
X115316723Y-73288094D02*
X115126247Y-73335713D01*
X115126247Y-73335713D02*
X114983390Y-73335713D01*
X114983390Y-73335713D02*
X114792914Y-73288094D01*
X114792914Y-73288094D02*
X114697676Y-73240475D01*
X114697676Y-73240475D02*
X114602438Y-73145237D01*
X114602438Y-73145237D02*
X114554819Y-73002380D01*
X114554819Y-73002380D02*
X114554819Y-72907142D01*
X114554819Y-72907142D02*
X114602438Y-72764285D01*
X114602438Y-72764285D02*
X114650057Y-72716666D01*
X114650057Y-72335713D02*
X114602438Y-72288094D01*
X114602438Y-72288094D02*
X114554819Y-72192856D01*
X114554819Y-72192856D02*
X114554819Y-71954761D01*
X114554819Y-71954761D02*
X114602438Y-71859523D01*
X114602438Y-71859523D02*
X114650057Y-71811904D01*
X114650057Y-71811904D02*
X114745295Y-71764285D01*
X114745295Y-71764285D02*
X114840533Y-71764285D01*
X114840533Y-71764285D02*
X114983390Y-71811904D01*
X114983390Y-71811904D02*
X115554819Y-72383332D01*
X115554819Y-72383332D02*
X115554819Y-71764285D01*
X121133333Y-84059580D02*
X121085714Y-84107200D01*
X121085714Y-84107200D02*
X120942857Y-84154819D01*
X120942857Y-84154819D02*
X120847619Y-84154819D01*
X120847619Y-84154819D02*
X120704762Y-84107200D01*
X120704762Y-84107200D02*
X120609524Y-84011961D01*
X120609524Y-84011961D02*
X120561905Y-83916723D01*
X120561905Y-83916723D02*
X120514286Y-83726247D01*
X120514286Y-83726247D02*
X120514286Y-83583390D01*
X120514286Y-83583390D02*
X120561905Y-83392914D01*
X120561905Y-83392914D02*
X120609524Y-83297676D01*
X120609524Y-83297676D02*
X120704762Y-83202438D01*
X120704762Y-83202438D02*
X120847619Y-83154819D01*
X120847619Y-83154819D02*
X120942857Y-83154819D01*
X120942857Y-83154819D02*
X121085714Y-83202438D01*
X121085714Y-83202438D02*
X121133333Y-83250057D01*
X121990476Y-83488152D02*
X121990476Y-84154819D01*
X121752381Y-83107200D02*
X121514286Y-83821485D01*
X121514286Y-83821485D02*
X122133333Y-83821485D01*
X114954819Y-102833333D02*
X115669104Y-102833333D01*
X115669104Y-102833333D02*
X115811961Y-102880952D01*
X115811961Y-102880952D02*
X115907200Y-102976190D01*
X115907200Y-102976190D02*
X115954819Y-103119047D01*
X115954819Y-103119047D02*
X115954819Y-103214285D01*
X114954819Y-102452380D02*
X114954819Y-101833333D01*
X114954819Y-101833333D02*
X115335771Y-102166666D01*
X115335771Y-102166666D02*
X115335771Y-102023809D01*
X115335771Y-102023809D02*
X115383390Y-101928571D01*
X115383390Y-101928571D02*
X115431009Y-101880952D01*
X115431009Y-101880952D02*
X115526247Y-101833333D01*
X115526247Y-101833333D02*
X115764342Y-101833333D01*
X115764342Y-101833333D02*
X115859580Y-101880952D01*
X115859580Y-101880952D02*
X115907200Y-101928571D01*
X115907200Y-101928571D02*
X115954819Y-102023809D01*
X115954819Y-102023809D02*
X115954819Y-102309523D01*
X115954819Y-102309523D02*
X115907200Y-102404761D01*
X115907200Y-102404761D02*
X115859580Y-102452380D01*
X125043666Y-101851009D02*
X124710333Y-101851009D01*
X124710333Y-102374819D02*
X124710333Y-101374819D01*
X124710333Y-101374819D02*
X125186523Y-101374819D01*
X126091285Y-102374819D02*
X125519857Y-102374819D01*
X125805571Y-102374819D02*
X125805571Y-101374819D01*
X125805571Y-101374819D02*
X125710333Y-101517676D01*
X125710333Y-101517676D02*
X125615095Y-101612914D01*
X125615095Y-101612914D02*
X125519857Y-101660533D01*
X125990580Y-93831666D02*
X126038200Y-93879285D01*
X126038200Y-93879285D02*
X126085819Y-94022142D01*
X126085819Y-94022142D02*
X126085819Y-94117380D01*
X126085819Y-94117380D02*
X126038200Y-94260237D01*
X126038200Y-94260237D02*
X125942961Y-94355475D01*
X125942961Y-94355475D02*
X125847723Y-94403094D01*
X125847723Y-94403094D02*
X125657247Y-94450713D01*
X125657247Y-94450713D02*
X125514390Y-94450713D01*
X125514390Y-94450713D02*
X125323914Y-94403094D01*
X125323914Y-94403094D02*
X125228676Y-94355475D01*
X125228676Y-94355475D02*
X125133438Y-94260237D01*
X125133438Y-94260237D02*
X125085819Y-94117380D01*
X125085819Y-94117380D02*
X125085819Y-94022142D01*
X125085819Y-94022142D02*
X125133438Y-93879285D01*
X125133438Y-93879285D02*
X125181057Y-93831666D01*
X125085819Y-92926904D02*
X125085819Y-93403094D01*
X125085819Y-93403094D02*
X125562009Y-93450713D01*
X125562009Y-93450713D02*
X125514390Y-93403094D01*
X125514390Y-93403094D02*
X125466771Y-93307856D01*
X125466771Y-93307856D02*
X125466771Y-93069761D01*
X125466771Y-93069761D02*
X125514390Y-92974523D01*
X125514390Y-92974523D02*
X125562009Y-92926904D01*
X125562009Y-92926904D02*
X125657247Y-92879285D01*
X125657247Y-92879285D02*
X125895342Y-92879285D01*
X125895342Y-92879285D02*
X125990580Y-92926904D01*
X125990580Y-92926904D02*
X126038200Y-92974523D01*
X126038200Y-92974523D02*
X126085819Y-93069761D01*
X126085819Y-93069761D02*
X126085819Y-93307856D01*
X126085819Y-93307856D02*
X126038200Y-93403094D01*
X126038200Y-93403094D02*
X125990580Y-93450713D01*
X123853095Y-94770819D02*
X123853095Y-95580342D01*
X123853095Y-95580342D02*
X123900714Y-95675580D01*
X123900714Y-95675580D02*
X123948333Y-95723200D01*
X123948333Y-95723200D02*
X124043571Y-95770819D01*
X124043571Y-95770819D02*
X124234047Y-95770819D01*
X124234047Y-95770819D02*
X124329285Y-95723200D01*
X124329285Y-95723200D02*
X124376904Y-95675580D01*
X124376904Y-95675580D02*
X124424523Y-95580342D01*
X124424523Y-95580342D02*
X124424523Y-94770819D01*
X125329285Y-95104152D02*
X125329285Y-95770819D01*
X125091190Y-94723200D02*
X124853095Y-95437485D01*
X124853095Y-95437485D02*
X125472142Y-95437485D01*
X119704819Y-95011904D02*
X120514342Y-95011904D01*
X120514342Y-95011904D02*
X120609580Y-94964285D01*
X120609580Y-94964285D02*
X120657200Y-94916666D01*
X120657200Y-94916666D02*
X120704819Y-94821428D01*
X120704819Y-94821428D02*
X120704819Y-94630952D01*
X120704819Y-94630952D02*
X120657200Y-94535714D01*
X120657200Y-94535714D02*
X120609580Y-94488095D01*
X120609580Y-94488095D02*
X120514342Y-94440476D01*
X120514342Y-94440476D02*
X119704819Y-94440476D01*
X119704819Y-94059523D02*
X119704819Y-93440476D01*
X119704819Y-93440476D02*
X120085771Y-93773809D01*
X120085771Y-93773809D02*
X120085771Y-93630952D01*
X120085771Y-93630952D02*
X120133390Y-93535714D01*
X120133390Y-93535714D02*
X120181009Y-93488095D01*
X120181009Y-93488095D02*
X120276247Y-93440476D01*
X120276247Y-93440476D02*
X120514342Y-93440476D01*
X120514342Y-93440476D02*
X120609580Y-93488095D01*
X120609580Y-93488095D02*
X120657200Y-93535714D01*
X120657200Y-93535714D02*
X120704819Y-93630952D01*
X120704819Y-93630952D02*
X120704819Y-93916666D01*
X120704819Y-93916666D02*
X120657200Y-94011904D01*
X120657200Y-94011904D02*
X120609580Y-94059523D01*
X125109580Y-81666666D02*
X125157200Y-81714285D01*
X125157200Y-81714285D02*
X125204819Y-81857142D01*
X125204819Y-81857142D02*
X125204819Y-81952380D01*
X125204819Y-81952380D02*
X125157200Y-82095237D01*
X125157200Y-82095237D02*
X125061961Y-82190475D01*
X125061961Y-82190475D02*
X124966723Y-82238094D01*
X124966723Y-82238094D02*
X124776247Y-82285713D01*
X124776247Y-82285713D02*
X124633390Y-82285713D01*
X124633390Y-82285713D02*
X124442914Y-82238094D01*
X124442914Y-82238094D02*
X124347676Y-82190475D01*
X124347676Y-82190475D02*
X124252438Y-82095237D01*
X124252438Y-82095237D02*
X124204819Y-81952380D01*
X124204819Y-81952380D02*
X124204819Y-81857142D01*
X124204819Y-81857142D02*
X124252438Y-81714285D01*
X124252438Y-81714285D02*
X124300057Y-81666666D01*
X124204819Y-81333332D02*
X124204819Y-80714285D01*
X124204819Y-80714285D02*
X124585771Y-81047618D01*
X124585771Y-81047618D02*
X124585771Y-80904761D01*
X124585771Y-80904761D02*
X124633390Y-80809523D01*
X124633390Y-80809523D02*
X124681009Y-80761904D01*
X124681009Y-80761904D02*
X124776247Y-80714285D01*
X124776247Y-80714285D02*
X125014342Y-80714285D01*
X125014342Y-80714285D02*
X125109580Y-80761904D01*
X125109580Y-80761904D02*
X125157200Y-80809523D01*
X125157200Y-80809523D02*
X125204819Y-80904761D01*
X125204819Y-80904761D02*
X125204819Y-81190475D01*
X125204819Y-81190475D02*
X125157200Y-81285713D01*
X125157200Y-81285713D02*
X125109580Y-81333332D01*
X113804819Y-66733333D02*
X114519104Y-66733333D01*
X114519104Y-66733333D02*
X114661961Y-66780952D01*
X114661961Y-66780952D02*
X114757200Y-66876190D01*
X114757200Y-66876190D02*
X114804819Y-67019047D01*
X114804819Y-67019047D02*
X114804819Y-67114285D01*
X114804819Y-65733333D02*
X114804819Y-66304761D01*
X114804819Y-66019047D02*
X113804819Y-66019047D01*
X113804819Y-66019047D02*
X113947676Y-66114285D01*
X113947676Y-66114285D02*
X114042914Y-66209523D01*
X114042914Y-66209523D02*
X114090533Y-66304761D01*
X119954819Y-82333333D02*
X120669104Y-82333333D01*
X120669104Y-82333333D02*
X120811961Y-82380952D01*
X120811961Y-82380952D02*
X120907200Y-82476190D01*
X120907200Y-82476190D02*
X120954819Y-82619047D01*
X120954819Y-82619047D02*
X120954819Y-82714285D01*
X120050057Y-81904761D02*
X120002438Y-81857142D01*
X120002438Y-81857142D02*
X119954819Y-81761904D01*
X119954819Y-81761904D02*
X119954819Y-81523809D01*
X119954819Y-81523809D02*
X120002438Y-81428571D01*
X120002438Y-81428571D02*
X120050057Y-81380952D01*
X120050057Y-81380952D02*
X120145295Y-81333333D01*
X120145295Y-81333333D02*
X120240533Y-81333333D01*
X120240533Y-81333333D02*
X120383390Y-81380952D01*
X120383390Y-81380952D02*
X120954819Y-81952380D01*
X120954819Y-81952380D02*
X120954819Y-81333333D01*
X120488095Y-71904819D02*
X120488095Y-72714342D01*
X120488095Y-72714342D02*
X120535714Y-72809580D01*
X120535714Y-72809580D02*
X120583333Y-72857200D01*
X120583333Y-72857200D02*
X120678571Y-72904819D01*
X120678571Y-72904819D02*
X120869047Y-72904819D01*
X120869047Y-72904819D02*
X120964285Y-72857200D01*
X120964285Y-72857200D02*
X121011904Y-72809580D01*
X121011904Y-72809580D02*
X121059523Y-72714342D01*
X121059523Y-72714342D02*
X121059523Y-71904819D01*
X122059523Y-72904819D02*
X121488095Y-72904819D01*
X121773809Y-72904819D02*
X121773809Y-71904819D01*
X121773809Y-71904819D02*
X121678571Y-72047676D01*
X121678571Y-72047676D02*
X121583333Y-72142914D01*
X121583333Y-72142914D02*
X121488095Y-72190533D01*
X123454819Y-83166666D02*
X123454819Y-83642856D01*
X123454819Y-83642856D02*
X122454819Y-83642856D01*
X123454819Y-82309523D02*
X123454819Y-82880951D01*
X123454819Y-82595237D02*
X122454819Y-82595237D01*
X122454819Y-82595237D02*
X122597676Y-82690475D01*
X122597676Y-82690475D02*
X122692914Y-82785713D01*
X122692914Y-82785713D02*
X122740533Y-82880951D01*
X124304819Y-80088094D02*
X123304819Y-80088094D01*
X123304819Y-80088094D02*
X123304819Y-79849999D01*
X123304819Y-79849999D02*
X123352438Y-79707142D01*
X123352438Y-79707142D02*
X123447676Y-79611904D01*
X123447676Y-79611904D02*
X123542914Y-79564285D01*
X123542914Y-79564285D02*
X123733390Y-79516666D01*
X123733390Y-79516666D02*
X123876247Y-79516666D01*
X123876247Y-79516666D02*
X124066723Y-79564285D01*
X124066723Y-79564285D02*
X124161961Y-79611904D01*
X124161961Y-79611904D02*
X124257200Y-79707142D01*
X124257200Y-79707142D02*
X124304819Y-79849999D01*
X124304819Y-79849999D02*
X124304819Y-80088094D01*
X124304819Y-78564285D02*
X124304819Y-79135713D01*
X124304819Y-78849999D02*
X123304819Y-78849999D01*
X123304819Y-78849999D02*
X123447676Y-78945237D01*
X123447676Y-78945237D02*
X123542914Y-79040475D01*
X123542914Y-79040475D02*
X123590533Y-79135713D01*
X116222080Y-70591666D02*
X116269700Y-70639285D01*
X116269700Y-70639285D02*
X116317319Y-70782142D01*
X116317319Y-70782142D02*
X116317319Y-70877380D01*
X116317319Y-70877380D02*
X116269700Y-71020237D01*
X116269700Y-71020237D02*
X116174461Y-71115475D01*
X116174461Y-71115475D02*
X116079223Y-71163094D01*
X116079223Y-71163094D02*
X115888747Y-71210713D01*
X115888747Y-71210713D02*
X115745890Y-71210713D01*
X115745890Y-71210713D02*
X115555414Y-71163094D01*
X115555414Y-71163094D02*
X115460176Y-71115475D01*
X115460176Y-71115475D02*
X115364938Y-71020237D01*
X115364938Y-71020237D02*
X115317319Y-70877380D01*
X115317319Y-70877380D02*
X115317319Y-70782142D01*
X115317319Y-70782142D02*
X115364938Y-70639285D01*
X115364938Y-70639285D02*
X115412557Y-70591666D01*
X116317319Y-69639285D02*
X116317319Y-70210713D01*
X116317319Y-69924999D02*
X115317319Y-69924999D01*
X115317319Y-69924999D02*
X115460176Y-70020237D01*
X115460176Y-70020237D02*
X115555414Y-70115475D01*
X115555414Y-70115475D02*
X115603033Y-70210713D01*
X117100595Y-72029819D02*
X117100595Y-72839342D01*
X117100595Y-72839342D02*
X117148214Y-72934580D01*
X117148214Y-72934580D02*
X117195833Y-72982200D01*
X117195833Y-72982200D02*
X117291071Y-73029819D01*
X117291071Y-73029819D02*
X117481547Y-73029819D01*
X117481547Y-73029819D02*
X117576785Y-72982200D01*
X117576785Y-72982200D02*
X117624404Y-72934580D01*
X117624404Y-72934580D02*
X117672023Y-72839342D01*
X117672023Y-72839342D02*
X117672023Y-72029819D01*
X118100595Y-72125057D02*
X118148214Y-72077438D01*
X118148214Y-72077438D02*
X118243452Y-72029819D01*
X118243452Y-72029819D02*
X118481547Y-72029819D01*
X118481547Y-72029819D02*
X118576785Y-72077438D01*
X118576785Y-72077438D02*
X118624404Y-72125057D01*
X118624404Y-72125057D02*
X118672023Y-72220295D01*
X118672023Y-72220295D02*
X118672023Y-72315533D01*
X118672023Y-72315533D02*
X118624404Y-72458390D01*
X118624404Y-72458390D02*
X118052976Y-73029819D01*
X118052976Y-73029819D02*
X118672023Y-73029819D01*
X124765905Y-100596819D02*
X124765905Y-99596819D01*
X124765905Y-99596819D02*
X125004000Y-99596819D01*
X125004000Y-99596819D02*
X125146857Y-99644438D01*
X125146857Y-99644438D02*
X125242095Y-99739676D01*
X125242095Y-99739676D02*
X125289714Y-99834914D01*
X125289714Y-99834914D02*
X125337333Y-100025390D01*
X125337333Y-100025390D02*
X125337333Y-100168247D01*
X125337333Y-100168247D02*
X125289714Y-100358723D01*
X125289714Y-100358723D02*
X125242095Y-100453961D01*
X125242095Y-100453961D02*
X125146857Y-100549200D01*
X125146857Y-100549200D02*
X125004000Y-100596819D01*
X125004000Y-100596819D02*
X124765905Y-100596819D01*
X125718286Y-99692057D02*
X125765905Y-99644438D01*
X125765905Y-99644438D02*
X125861143Y-99596819D01*
X125861143Y-99596819D02*
X126099238Y-99596819D01*
X126099238Y-99596819D02*
X126194476Y-99644438D01*
X126194476Y-99644438D02*
X126242095Y-99692057D01*
X126242095Y-99692057D02*
X126289714Y-99787295D01*
X126289714Y-99787295D02*
X126289714Y-99882533D01*
X126289714Y-99882533D02*
X126242095Y-100025390D01*
X126242095Y-100025390D02*
X125670667Y-100596819D01*
X125670667Y-100596819D02*
X126289714Y-100596819D01*
D12*
%TO.C,R1*%
X112927500Y-74387258D02*
X112927500Y-73912742D01*
X113972500Y-74387258D02*
X113972500Y-73912742D01*
%TO.C,C6*%
X123965000Y-91038748D02*
X123965000Y-91561252D01*
X125435000Y-91038748D02*
X125435000Y-91561252D01*
%TO.C,C7*%
X117640000Y-102198000D02*
X117640000Y-104548000D01*
X117640000Y-109018000D02*
X117640000Y-106668000D01*
X123395563Y-102198000D02*
X117640000Y-102198000D01*
X123395563Y-109018000D02*
X117640000Y-109018000D01*
X124460000Y-103262437D02*
X123395563Y-102198000D01*
X124460000Y-103262437D02*
X124460000Y-104548000D01*
X124460000Y-107953563D02*
X123395563Y-109018000D01*
X124460000Y-107953563D02*
X124460000Y-106668000D01*
X125093750Y-107849250D02*
X125093750Y-107061750D01*
X125487500Y-107455500D02*
X124700000Y-107455500D01*
%TO.C,RN1*%
X122030000Y-75500000D02*
X122030000Y-74500000D01*
X123970000Y-75500000D02*
X123970000Y-74500000D01*
%TO.C,C2*%
X114490000Y-74834420D02*
X114490000Y-75115580D01*
X115510000Y-74834420D02*
X115510000Y-75115580D01*
%TO.C,C4*%
X121159420Y-84490000D02*
X121440580Y-84490000D01*
X121159420Y-85510000D02*
X121440580Y-85510000D01*
%TO.C,J3*%
X110340000Y-101360000D02*
X110340000Y-98950000D01*
X110640000Y-87940000D02*
X110640000Y-101060000D01*
X110640000Y-101060000D02*
X119360000Y-101060000D01*
X112250000Y-88550000D02*
X112250000Y-100450000D01*
X112250000Y-100450000D02*
X117750000Y-100450000D01*
X112750000Y-101360000D02*
X110340000Y-101360000D01*
X117750000Y-91150000D02*
X118750000Y-91150000D01*
X117750000Y-95550000D02*
X117750000Y-91150000D01*
X117750000Y-98150000D02*
X118750000Y-98150000D01*
X117750000Y-100450000D02*
X117750000Y-98150000D01*
X118750000Y-88550000D02*
X112250000Y-88550000D01*
X118750000Y-91150000D02*
X118750000Y-88550000D01*
X118750000Y-95550000D02*
X117750000Y-95550000D01*
X118750000Y-98150000D02*
X118750000Y-95550000D01*
X119360000Y-87940000D02*
X110640000Y-87940000D01*
X119360000Y-101060000D02*
X119360000Y-87940000D01*
%TO.C,F1*%
X121647936Y-99867000D02*
X122852064Y-99867000D01*
X121647936Y-101687000D02*
X122852064Y-101687000D01*
%TO.C,C5*%
X123965000Y-88161252D02*
X123965000Y-87638748D01*
X125435000Y-88161252D02*
X125435000Y-87638748D01*
%TO.C,U4*%
X121300000Y-93590000D02*
X123300000Y-93590000D01*
X121300000Y-95810000D02*
X123300000Y-95810000D01*
X121060000Y-93690000D02*
X120780000Y-93690000D01*
X121060000Y-93410000D01*
X121060000Y-93690000D01*
G36*
X121060000Y-93690000D02*
G01*
X120780000Y-93690000D01*
X121060000Y-93410000D01*
X121060000Y-93690000D01*
G37*
%TO.C,U3*%
X120340000Y-91300000D02*
X120340000Y-90500000D01*
X120340000Y-91300000D02*
X120340000Y-92100000D01*
X123460000Y-91300000D02*
X123460000Y-90500000D01*
X123460000Y-91300000D02*
X123460000Y-92100000D01*
X120390000Y-92600000D02*
X120060000Y-92840000D01*
X120060000Y-92360000D01*
X120390000Y-92600000D01*
G36*
X120390000Y-92600000D02*
G01*
X120060000Y-92840000D01*
X120060000Y-92360000D01*
X120390000Y-92600000D01*
G37*
%TO.C,C3*%
X123965000Y-84661252D02*
X123965000Y-84138748D01*
X125435000Y-84661252D02*
X125435000Y-84138748D01*
%TO.C,J1*%
X112140000Y-66840000D02*
X113250000Y-66840000D01*
X112140000Y-67600000D02*
X112140000Y-66840000D01*
X112140000Y-68360000D02*
X112140000Y-72105000D01*
X112140000Y-68360000D02*
X112686529Y-68360000D01*
X112140000Y-72105000D02*
X112942470Y-72105000D01*
X113557530Y-72105000D02*
X114360000Y-72105000D01*
X113813471Y-68360000D02*
X114360000Y-68360000D01*
X114360000Y-68360000D02*
X114360000Y-72105000D01*
%TO.C,J2*%
X110340000Y-87110000D02*
X110340000Y-84700000D01*
X110640000Y-77190000D02*
X110640000Y-86810000D01*
X110640000Y-86810000D02*
X119360000Y-86810000D01*
X112250000Y-77800000D02*
X112250000Y-86200000D01*
X112250000Y-86200000D02*
X117750000Y-86200000D01*
X112750000Y-87110000D02*
X110340000Y-87110000D01*
X117750000Y-80400000D02*
X118750000Y-80400000D01*
X117750000Y-81300000D02*
X117750000Y-80400000D01*
X117750000Y-83900000D02*
X118750000Y-83900000D01*
X117750000Y-86200000D02*
X117750000Y-83900000D01*
X118750000Y-77800000D02*
X112250000Y-77800000D01*
X118750000Y-80400000D02*
X118750000Y-77800000D01*
X118750000Y-81300000D02*
X117750000Y-81300000D01*
X118750000Y-83900000D02*
X118750000Y-81300000D01*
X119360000Y-77190000D02*
X110640000Y-77190000D01*
X119360000Y-86810000D02*
X119360000Y-77190000D01*
%TO.C,U1*%
X120500000Y-64865000D02*
X118300000Y-64865000D01*
X120500000Y-64865000D02*
X122700000Y-64865000D01*
X120500000Y-71635000D02*
X118300000Y-71635000D01*
X120500000Y-71635000D02*
X122700000Y-71635000D01*
X124690000Y-71415000D02*
X124360000Y-71175000D01*
X124690000Y-70935000D01*
X124690000Y-71415000D01*
G36*
X124690000Y-71415000D02*
G01*
X124360000Y-71175000D01*
X124690000Y-70935000D01*
X124690000Y-71415000D01*
G37*
%TO.C,L1*%
X123200000Y-85800000D02*
X120200000Y-85800000D01*
X123200000Y-89200000D02*
X120200000Y-89200000D01*
%TO.C,D1*%
X120440000Y-78720000D02*
X120440000Y-80130000D01*
X121100000Y-80130000D02*
X120440000Y-80130000D01*
X122760000Y-78720000D02*
X122760000Y-80130000D01*
X122760000Y-80130000D02*
X122100000Y-80130000D01*
X123070000Y-78590000D02*
X122740000Y-78350000D01*
X123070000Y-78110000D01*
X123070000Y-78590000D01*
G36*
X123070000Y-78590000D02*
G01*
X122740000Y-78350000D01*
X123070000Y-78110000D01*
X123070000Y-78590000D01*
G37*
%TO.C,C1*%
X115240000Y-68109420D02*
X115240000Y-68390580D01*
X116260000Y-68109420D02*
X116260000Y-68390580D01*
%TO.C,U2*%
X117862500Y-73415000D02*
X117062500Y-73415000D01*
X117862500Y-73415000D02*
X118662500Y-73415000D01*
X117862500Y-76535000D02*
X117062500Y-76535000D01*
X117862500Y-76535000D02*
X118662500Y-76535000D01*
X116562500Y-73490000D02*
X116322500Y-73160000D01*
X116802500Y-73160000D01*
X116562500Y-73490000D01*
G36*
X116562500Y-73490000D02*
G01*
X116322500Y-73160000D01*
X116802500Y-73160000D01*
X116562500Y-73490000D01*
G37*
%TO.C,D2*%
X126855000Y-96079000D02*
X121345000Y-96079000D01*
X126855000Y-99379000D02*
X121345000Y-99379000D01*
X126855000Y-99379000D02*
X126855000Y-96079000D01*
%TD*%
M02*
