%TF.GenerationSoftware,KiCad,Pcbnew,8.0.3*%
%TF.CreationDate,2024-06-13T00:49:58+02:00*%
%TF.ProjectId,can-proto,63616e2d-7072-46f7-946f-2e6b69636164,1*%
%TF.SameCoordinates,Original*%
%TF.FileFunction,Copper,L1,Top*%
%TF.FilePolarity,Positive*%
%FSLAX46Y46*%
G04 Gerber Fmt 4.6, Leading zero omitted, Abs format (unit mm)*
G04 Created by KiCad (PCBNEW 8.0.3) date 2024-06-13 00:49:58*
%MOMM*%
%LPD*%
G01*
G04 APERTURE LIST*
G04 Aperture macros list*
%AMRoundRect*
0 Rectangle with rounded corners*
0 $1 Rounding radius*
0 $2 $3 $4 $5 $6 $7 $8 $9 X,Y pos of 4 corners*
0 Add a 4 corners polygon primitive as box body*
4,1,4,$2,$3,$4,$5,$6,$7,$8,$9,$2,$3,0*
0 Add four circle primitives for the rounded corners*
1,1,$1+$1,$2,$3*
1,1,$1+$1,$4,$5*
1,1,$1+$1,$6,$7*
1,1,$1+$1,$8,$9*
0 Add four rect primitives between the rounded corners*
20,1,$1+$1,$2,$3,$4,$5,0*
20,1,$1+$1,$4,$5,$6,$7,0*
20,1,$1+$1,$6,$7,$8,$9,0*
20,1,$1+$1,$8,$9,$2,$3,0*%
G04 Aperture macros list end*
%TA.AperFunction,ComponentPad*%
%ADD10RoundRect,0.360000X-0.540000X-0.540000X0.540000X-0.540000X0.540000X0.540000X-0.540000X0.540000X0*%
%TD*%
%TA.AperFunction,SMDPad,CuDef*%
%ADD11RoundRect,0.200000X0.275000X-0.200000X0.275000X0.200000X-0.275000X0.200000X-0.275000X-0.200000X0*%
%TD*%
%TA.AperFunction,SMDPad,CuDef*%
%ADD12RoundRect,0.250000X-0.475000X0.250000X-0.475000X-0.250000X0.475000X-0.250000X0.475000X0.250000X0*%
%TD*%
%TA.AperFunction,SMDPad,CuDef*%
%ADD13RoundRect,0.250000X1.500000X0.550000X-1.500000X0.550000X-1.500000X-0.550000X1.500000X-0.550000X0*%
%TD*%
%TA.AperFunction,SMDPad,CuDef*%
%ADD14R,0.500000X0.800000*%
%TD*%
%TA.AperFunction,SMDPad,CuDef*%
%ADD15RoundRect,0.225000X-0.250000X0.225000X-0.250000X-0.225000X0.250000X-0.225000X0.250000X0.225000X0*%
%TD*%
%TA.AperFunction,SMDPad,CuDef*%
%ADD16RoundRect,0.225000X-0.225000X-0.250000X0.225000X-0.250000X0.225000X0.250000X-0.225000X0.250000X0*%
%TD*%
%TA.AperFunction,ComponentPad*%
%ADD17RoundRect,0.250000X1.050000X-0.750000X1.050000X0.750000X-1.050000X0.750000X-1.050000X-0.750000X0*%
%TD*%
%TA.AperFunction,ComponentPad*%
%ADD18O,2.600000X2.000000*%
%TD*%
%TA.AperFunction,SMDPad,CuDef*%
%ADD19RoundRect,0.250000X-0.375000X-0.625000X0.375000X-0.625000X0.375000X0.625000X-0.375000X0.625000X0*%
%TD*%
%TA.AperFunction,SMDPad,CuDef*%
%ADD20RoundRect,0.250000X0.475000X-0.250000X0.475000X0.250000X-0.475000X0.250000X-0.475000X-0.250000X0*%
%TD*%
%TA.AperFunction,SMDPad,CuDef*%
%ADD21RoundRect,0.093750X-0.093750X-0.106250X0.093750X-0.106250X0.093750X0.106250X-0.093750X0.106250X0*%
%TD*%
%TA.AperFunction,HeatsinkPad*%
%ADD22R,1.000000X1.600000*%
%TD*%
%TA.AperFunction,SMDPad,CuDef*%
%ADD23RoundRect,0.150000X0.150000X-0.512500X0.150000X0.512500X-0.150000X0.512500X-0.150000X-0.512500X0*%
%TD*%
%TA.AperFunction,ComponentPad*%
%ADD24R,1.000000X1.000000*%
%TD*%
%TA.AperFunction,ComponentPad*%
%ADD25O,1.000000X1.000000*%
%TD*%
%TA.AperFunction,SMDPad,CuDef*%
%ADD26RoundRect,0.100000X0.637500X0.100000X-0.637500X0.100000X-0.637500X-0.100000X0.637500X-0.100000X0*%
%TD*%
%TA.AperFunction,SMDPad,CuDef*%
%ADD27R,1.000000X2.700000*%
%TD*%
%TA.AperFunction,SMDPad,CuDef*%
%ADD28RoundRect,0.112500X0.112500X0.237500X-0.112500X0.237500X-0.112500X-0.237500X0.112500X-0.237500X0*%
%TD*%
%TA.AperFunction,SMDPad,CuDef*%
%ADD29RoundRect,0.125000X-0.537500X-0.125000X0.537500X-0.125000X0.537500X0.125000X-0.537500X0.125000X0*%
%TD*%
%TA.AperFunction,SMDPad,CuDef*%
%ADD30RoundRect,0.250000X1.000000X0.650000X-1.000000X0.650000X-1.000000X-0.650000X1.000000X-0.650000X0*%
%TD*%
%TA.AperFunction,ViaPad*%
%ADD31C,0.700000*%
%TD*%
%TA.AperFunction,ViaPad*%
%ADD32C,1.000000*%
%TD*%
%TA.AperFunction,ViaPad*%
%ADD33C,0.500000*%
%TD*%
%TA.AperFunction,ViaPad*%
%ADD34C,0.800000*%
%TD*%
%TA.AperFunction,Conductor*%
%ADD35C,0.350000*%
%TD*%
%TA.AperFunction,Conductor*%
%ADD36C,0.250000*%
%TD*%
%TA.AperFunction,Conductor*%
%ADD37C,0.750000*%
%TD*%
%TA.AperFunction,Conductor*%
%ADD38C,1.250000*%
%TD*%
G04 APERTURE END LIST*
D10*
%TO.P,TP28,1,1*%
%TO.N,unconnected-(TP28-Pad1)*%
X146840000Y-68900000D03*
%TD*%
%TO.P,TP102,1,1*%
%TO.N,unconnected-(TP102-Pad1)*%
X151920000Y-84140000D03*
%TD*%
%TO.P,TP121,1,1*%
%TO.N,unconnected-(TP121-Pad1)*%
X139220000Y-89220000D03*
%TD*%
%TO.P,TP113,1,1*%
%TO.N,unconnected-(TP113-Pad1)*%
X149380000Y-86680000D03*
%TD*%
%TO.P,TP160,1,1*%
%TO.N,unconnected-(TP160-Pad1)*%
X146840000Y-96840000D03*
%TD*%
%TO.P,TP139,1,1*%
%TO.N,unconnected-(TP139-Pad1)*%
X154460000Y-91760000D03*
%TD*%
%TO.P,TP166,1,1*%
%TO.N,unconnected-(TP166-Pad1)*%
X131600000Y-99380000D03*
%TD*%
%TO.P,TP45,1,1*%
%TO.N,/PA4*%
X129060000Y-73980000D03*
%TD*%
%TO.P,TP23,1,1*%
%TO.N,unconnected-(TP23-Pad1)*%
X134140000Y-68900000D03*
%TD*%
%TO.P,TP193,1,1*%
%TO.N,unconnected-(TP193-Pad1)*%
X139220000Y-104460000D03*
%TD*%
%TO.P,TP135,1,1*%
%TO.N,unconnected-(TP135-Pad1)*%
X144300000Y-91760000D03*
%TD*%
%TO.P,TP119,1,1*%
%TO.N,unconnected-(TP119-Pad1)*%
X134140000Y-89220000D03*
%TD*%
%TO.P,TP131,1,1*%
%TO.N,unconnected-(TP131-Pad1)*%
X134140000Y-91760000D03*
%TD*%
%TO.P,TP59,1,1*%
%TO.N,unconnected-(TP59-Pad1)*%
X134140000Y-76520000D03*
%TD*%
%TO.P,TP12,1,1*%
%TO.N,unconnected-(TP12-Pad1)*%
X131600000Y-66360000D03*
%TD*%
%TO.P,TP3,1,1*%
%TO.N,unconnected-(TP3-Pad1)*%
X134140000Y-63820000D03*
%TD*%
%TO.P,TP73,1,1*%
%TO.N,unconnected-(TP73-Pad1)*%
X139220000Y-79060000D03*
%TD*%
%TO.P,TP180,1,1*%
%TO.N,unconnected-(TP180-Pad1)*%
X136680000Y-101920000D03*
%TD*%
D11*
%TO.P,R1,1*%
%TO.N,VDD*%
X113450000Y-74975000D03*
%TO.P,R1,2*%
%TO.N,/~{RST}*%
X113450000Y-73325000D03*
%TD*%
D10*
%TO.P,TP55,1,1*%
%TO.N,unconnected-(TP55-Pad1)*%
X154460000Y-73980000D03*
%TD*%
%TO.P,TP107,1,1*%
%TO.N,unconnected-(TP107-Pad1)*%
X134140000Y-86680000D03*
%TD*%
%TO.P,TP6,1,1*%
%TO.N,unconnected-(TP6-Pad1)*%
X141760000Y-63820000D03*
%TD*%
%TO.P,TP154,1,1*%
%TO.N,unconnected-(TP154-Pad1)*%
X131600000Y-96840000D03*
%TD*%
%TO.P,TP42,1,1*%
%TO.N,unconnected-(TP42-Pad1)*%
X151920000Y-71440000D03*
%TD*%
%TO.P,TP4,1,1*%
%TO.N,unconnected-(TP4-Pad1)*%
X136680000Y-63820000D03*
%TD*%
%TO.P,TP82,1,1*%
%TO.N,unconnected-(TP82-Pad1)*%
X131600000Y-81600000D03*
%TD*%
%TO.P,TP79,1,1*%
%TO.N,unconnected-(TP79-Pad1)*%
X154460000Y-79060000D03*
%TD*%
%TO.P,TP10,1,1*%
%TO.N,unconnected-(TP10-Pad1)*%
X151920000Y-63820000D03*
%TD*%
%TO.P,TP208,1,1*%
%TO.N,unconnected-(TP208-Pad1)*%
X151920000Y-107000000D03*
%TD*%
%TO.P,TP56,1,1*%
%TO.N,unconnected-(TP56-Pad1)*%
X157000000Y-73980000D03*
%TD*%
%TO.P,TP182,1,1*%
%TO.N,unconnected-(TP182-Pad1)*%
X141760000Y-101920000D03*
%TD*%
%TO.P,TP167,1,1*%
%TO.N,unconnected-(TP167-Pad1)*%
X134140000Y-99380000D03*
%TD*%
%TO.P,TP101,1,1*%
%TO.N,unconnected-(TP101-Pad1)*%
X149380000Y-84140000D03*
%TD*%
%TO.P,TP36,1,1*%
%TO.N,unconnected-(TP36-Pad1)*%
X136680000Y-71440000D03*
%TD*%
%TO.P,TP70,1,1*%
%TO.N,unconnected-(TP70-Pad1)*%
X131600000Y-79060000D03*
%TD*%
%TO.P,TP57,1,1*%
%TO.N,/PA3*%
X129060000Y-76520000D03*
%TD*%
%TO.P,TP48,1,1*%
%TO.N,unconnected-(TP48-Pad1)*%
X136680000Y-73980000D03*
%TD*%
%TO.P,TP26,1,1*%
%TO.N,unconnected-(TP26-Pad1)*%
X141760000Y-68900000D03*
%TD*%
%TO.P,TP99,1,1*%
%TO.N,unconnected-(TP99-Pad1)*%
X144300000Y-84140000D03*
%TD*%
%TO.P,TP72,1,1*%
%TO.N,unconnected-(TP72-Pad1)*%
X136680000Y-79060000D03*
%TD*%
%TO.P,TP138,1,1*%
%TO.N,unconnected-(TP138-Pad1)*%
X151920000Y-91760000D03*
%TD*%
%TO.P,TP1,1,1*%
%TO.N,GND*%
X129060000Y-63820000D03*
%TD*%
%TO.P,TP69,1,1*%
%TO.N,/PA2*%
X129060000Y-79060000D03*
%TD*%
%TO.P,TP71,1,1*%
%TO.N,unconnected-(TP71-Pad1)*%
X134140000Y-79060000D03*
%TD*%
%TO.P,TP137,1,1*%
%TO.N,unconnected-(TP137-Pad1)*%
X149380000Y-91760000D03*
%TD*%
%TO.P,TP123,1,1*%
%TO.N,unconnected-(TP123-Pad1)*%
X144300000Y-89220000D03*
%TD*%
%TO.P,TP58,1,1*%
%TO.N,unconnected-(TP58-Pad1)*%
X131600000Y-76520000D03*
%TD*%
%TO.P,TP186,1,1*%
%TO.N,unconnected-(TP186-Pad1)*%
X151920000Y-101920000D03*
%TD*%
%TO.P,TP130,1,1*%
%TO.N,unconnected-(TP130-Pad1)*%
X131600000Y-91760000D03*
%TD*%
%TO.P,TP87,1,1*%
%TO.N,unconnected-(TP87-Pad1)*%
X144300000Y-81600000D03*
%TD*%
%TO.P,TP192,1,1*%
%TO.N,unconnected-(TP192-Pad1)*%
X136680000Y-104460000D03*
%TD*%
%TO.P,TP37,1,1*%
%TO.N,unconnected-(TP37-Pad1)*%
X139220000Y-71440000D03*
%TD*%
%TO.P,TP91,1,1*%
%TO.N,unconnected-(TP91-Pad1)*%
X154460000Y-81600000D03*
%TD*%
%TO.P,TP9,1,1*%
%TO.N,unconnected-(TP9-Pad1)*%
X149380000Y-63820000D03*
%TD*%
%TO.P,TP32,1,1*%
%TO.N,unconnected-(TP32-Pad1)*%
X157000000Y-68900000D03*
%TD*%
%TO.P,TP44,1,1*%
%TO.N,unconnected-(TP44-Pad1)*%
X157000000Y-71440000D03*
%TD*%
%TO.P,TP7,1,1*%
%TO.N,unconnected-(TP7-Pad1)*%
X144300000Y-63820000D03*
%TD*%
%TO.P,TP142,1,1*%
%TO.N,unconnected-(TP142-Pad1)*%
X131600000Y-94300000D03*
%TD*%
%TO.P,TP176,1,1*%
%TO.N,unconnected-(TP176-Pad1)*%
X157000000Y-99380000D03*
%TD*%
%TO.P,TP199,1,1*%
%TO.N,GND*%
X129060000Y-107000000D03*
%TD*%
%TO.P,TP153,1,1*%
%TO.N,GND*%
X129060000Y-96840000D03*
%TD*%
%TO.P,TP21,1,1*%
%TO.N,/PA6*%
X129060000Y-68900000D03*
%TD*%
%TO.P,TP179,1,1*%
%TO.N,unconnected-(TP179-Pad1)*%
X134140000Y-101920000D03*
%TD*%
%TO.P,TP183,1,1*%
%TO.N,unconnected-(TP183-Pad1)*%
X144300000Y-101920000D03*
%TD*%
%TO.P,TP76,1,1*%
%TO.N,unconnected-(TP76-Pad1)*%
X146840000Y-79060000D03*
%TD*%
%TO.P,TP110,1,1*%
%TO.N,unconnected-(TP110-Pad1)*%
X141760000Y-86680000D03*
%TD*%
D12*
%TO.P,C6,1*%
%TO.N,GND*%
X124700000Y-90350000D03*
%TO.P,C6,2*%
%TO.N,VIN_Fused*%
X124700000Y-92250000D03*
%TD*%
D10*
%TO.P,TP118,1,1*%
%TO.N,unconnected-(TP118-Pad1)*%
X131600000Y-89220000D03*
%TD*%
%TO.P,TP158,1,1*%
%TO.N,unconnected-(TP158-Pad1)*%
X141760000Y-96840000D03*
%TD*%
%TO.P,TP207,1,1*%
%TO.N,unconnected-(TP207-Pad1)*%
X149380000Y-107000000D03*
%TD*%
%TO.P,TP15,1,1*%
%TO.N,unconnected-(TP15-Pad1)*%
X139220000Y-66360000D03*
%TD*%
%TO.P,TP126,1,1*%
%TO.N,unconnected-(TP126-Pad1)*%
X151920000Y-89220000D03*
%TD*%
%TO.P,TP155,1,1*%
%TO.N,unconnected-(TP155-Pad1)*%
X134140000Y-96840000D03*
%TD*%
%TO.P,TP185,1,1*%
%TO.N,unconnected-(TP185-Pad1)*%
X149380000Y-101920000D03*
%TD*%
%TO.P,TP108,1,1*%
%TO.N,unconnected-(TP108-Pad1)*%
X136680000Y-86680000D03*
%TD*%
%TO.P,TP189,1,1*%
%TO.N,VDD*%
X129060000Y-104460000D03*
%TD*%
%TO.P,TP146,1,1*%
%TO.N,unconnected-(TP146-Pad1)*%
X141760000Y-94300000D03*
%TD*%
%TO.P,TP112,1,1*%
%TO.N,unconnected-(TP112-Pad1)*%
X146840000Y-86680000D03*
%TD*%
%TO.P,TP116,1,1*%
%TO.N,unconnected-(TP116-Pad1)*%
X157000000Y-86680000D03*
%TD*%
%TO.P,TP114,1,1*%
%TO.N,unconnected-(TP114-Pad1)*%
X151920000Y-86680000D03*
%TD*%
%TO.P,TP197,1,1*%
%TO.N,unconnected-(TP197-Pad1)*%
X149380000Y-104460000D03*
%TD*%
%TO.P,TP2,1,1*%
%TO.N,unconnected-(TP2-Pad1)*%
X131600000Y-63820000D03*
%TD*%
D13*
%TO.P,C7,1*%
%TO.N,VIN_Fused*%
X123750000Y-105608000D03*
%TO.P,C7,2*%
%TO.N,GND*%
X118350000Y-105608000D03*
%TD*%
D10*
%TO.P,TP163,1,1*%
%TO.N,unconnected-(TP163-Pad1)*%
X154460000Y-96840000D03*
%TD*%
%TO.P,TP191,1,1*%
%TO.N,unconnected-(TP191-Pad1)*%
X134140000Y-104460000D03*
%TD*%
%TO.P,TP177,1,1*%
%TO.N,VDD*%
X129060000Y-101920000D03*
%TD*%
D14*
%TO.P,RN1,1,R1.1*%
%TO.N,/SDA*%
X123500000Y-74100000D03*
%TO.P,RN1,2,R2.1*%
%TO.N,/SCL*%
X122500000Y-74100000D03*
%TO.P,RN1,3,R2.2*%
%TO.N,VDD*%
X122500000Y-75900000D03*
%TO.P,RN1,4,R1.2*%
X123500000Y-75900000D03*
%TD*%
D10*
%TO.P,TP156,1,1*%
%TO.N,unconnected-(TP156-Pad1)*%
X136680000Y-96840000D03*
%TD*%
%TO.P,TP173,1,1*%
%TO.N,unconnected-(TP173-Pad1)*%
X149380000Y-99380000D03*
%TD*%
%TO.P,TP14,1,1*%
%TO.N,unconnected-(TP14-Pad1)*%
X136680000Y-66360000D03*
%TD*%
%TO.P,TP11,1,1*%
%TO.N,/PA7*%
X129060000Y-66360000D03*
%TD*%
D15*
%TO.P,C2,1*%
%TO.N,GND*%
X115000000Y-74200000D03*
%TO.P,C2,2*%
%TO.N,VDD*%
X115000000Y-75750000D03*
%TD*%
D16*
%TO.P,C4,1*%
%TO.N,/BST*%
X120525000Y-85000000D03*
%TO.P,C4,2*%
%TO.N,/SW*%
X122075000Y-85000000D03*
%TD*%
D10*
%TO.P,TP50,1,1*%
%TO.N,unconnected-(TP50-Pad1)*%
X141760000Y-73980000D03*
%TD*%
%TO.P,TP96,1,1*%
%TO.N,unconnected-(TP96-Pad1)*%
X136680000Y-84140000D03*
%TD*%
%TO.P,TP94,1,1*%
%TO.N,unconnected-(TP94-Pad1)*%
X131600000Y-84140000D03*
%TD*%
%TO.P,TP19,1,1*%
%TO.N,unconnected-(TP19-Pad1)*%
X149380000Y-66360000D03*
%TD*%
%TO.P,TP98,1,1*%
%TO.N,unconnected-(TP98-Pad1)*%
X141760000Y-84140000D03*
%TD*%
%TO.P,TP105,1,1*%
%TO.N,/SCL*%
X129060000Y-86680000D03*
%TD*%
%TO.P,TP111,1,1*%
%TO.N,unconnected-(TP111-Pad1)*%
X144300000Y-86680000D03*
%TD*%
%TO.P,TP143,1,1*%
%TO.N,unconnected-(TP143-Pad1)*%
X134140000Y-94300000D03*
%TD*%
%TO.P,TP198,1,1*%
%TO.N,unconnected-(TP198-Pad1)*%
X151920000Y-104460000D03*
%TD*%
%TO.P,TP190,1,1*%
%TO.N,unconnected-(TP190-Pad1)*%
X131600000Y-104460000D03*
%TD*%
%TO.P,TP145,1,1*%
%TO.N,unconnected-(TP145-Pad1)*%
X139220000Y-94300000D03*
%TD*%
%TO.P,TP49,1,1*%
%TO.N,unconnected-(TP49-Pad1)*%
X139220000Y-73980000D03*
%TD*%
%TO.P,TP51,1,1*%
%TO.N,unconnected-(TP51-Pad1)*%
X144300000Y-73980000D03*
%TD*%
D17*
%TO.P,J3,1,Pin_1*%
%TO.N,GND*%
X114900000Y-98150000D03*
D18*
%TO.P,J3,2,Pin_2*%
%TO.N,/VIN*%
X114900000Y-94650000D03*
%TO.P,J3,3,Pin_3*%
%TO.N,GND*%
X114900000Y-91150000D03*
%TD*%
D10*
%TO.P,TP128,1,1*%
%TO.N,unconnected-(TP128-Pad1)*%
X157000000Y-89220000D03*
%TD*%
%TO.P,TP16,1,1*%
%TO.N,unconnected-(TP16-Pad1)*%
X141760000Y-66360000D03*
%TD*%
%TO.P,TP133,1,1*%
%TO.N,unconnected-(TP133-Pad1)*%
X139220000Y-91760000D03*
%TD*%
%TO.P,TP93,1,1*%
%TO.N,/PA0*%
X129060000Y-84140000D03*
%TD*%
%TO.P,TP35,1,1*%
%TO.N,unconnected-(TP35-Pad1)*%
X134140000Y-71440000D03*
%TD*%
%TO.P,TP106,1,1*%
%TO.N,unconnected-(TP106-Pad1)*%
X131600000Y-86680000D03*
%TD*%
%TO.P,TP169,1,1*%
%TO.N,unconnected-(TP169-Pad1)*%
X139220000Y-99380000D03*
%TD*%
%TO.P,TP88,1,1*%
%TO.N,unconnected-(TP88-Pad1)*%
X146840000Y-81600000D03*
%TD*%
%TO.P,TP41,1,1*%
%TO.N,unconnected-(TP41-Pad1)*%
X149380000Y-71440000D03*
%TD*%
%TO.P,TP30,1,1*%
%TO.N,unconnected-(TP30-Pad1)*%
X151920000Y-68900000D03*
%TD*%
%TO.P,TP206,1,1*%
%TO.N,unconnected-(TP206-Pad1)*%
X146840000Y-107000000D03*
%TD*%
%TO.P,TP201,1,1*%
%TO.N,unconnected-(TP201-Pad1)*%
X134140000Y-107000000D03*
%TD*%
%TO.P,TP81,1,1*%
%TO.N,/PA1*%
X129060000Y-81600000D03*
%TD*%
%TO.P,TP115,1,1*%
%TO.N,unconnected-(TP115-Pad1)*%
X154460000Y-86680000D03*
%TD*%
%TO.P,TP5,1,1*%
%TO.N,unconnected-(TP5-Pad1)*%
X139220000Y-63820000D03*
%TD*%
%TO.P,TP175,1,1*%
%TO.N,unconnected-(TP175-Pad1)*%
X154460000Y-99380000D03*
%TD*%
%TO.P,TP67,1,1*%
%TO.N,unconnected-(TP67-Pad1)*%
X154460000Y-76520000D03*
%TD*%
%TO.P,TP151,1,1*%
%TO.N,unconnected-(TP151-Pad1)*%
X154460000Y-94300000D03*
%TD*%
%TO.P,TP24,1,1*%
%TO.N,unconnected-(TP24-Pad1)*%
X136680000Y-68900000D03*
%TD*%
%TO.P,TP22,1,1*%
%TO.N,unconnected-(TP22-Pad1)*%
X131600000Y-68900000D03*
%TD*%
%TO.P,TP178,1,1*%
%TO.N,unconnected-(TP178-Pad1)*%
X131600000Y-101920000D03*
%TD*%
%TO.P,TP92,1,1*%
%TO.N,unconnected-(TP92-Pad1)*%
X157000000Y-81600000D03*
%TD*%
D19*
%TO.P,F1,1*%
%TO.N,/VIN*%
X120850000Y-100777000D03*
%TO.P,F1,2*%
%TO.N,VIN_Fused*%
X123650000Y-100777000D03*
%TD*%
D10*
%TO.P,TP132,1,1*%
%TO.N,unconnected-(TP132-Pad1)*%
X136680000Y-91760000D03*
%TD*%
%TO.P,TP66,1,1*%
%TO.N,unconnected-(TP66-Pad1)*%
X151920000Y-76520000D03*
%TD*%
%TO.P,TP122,1,1*%
%TO.N,unconnected-(TP122-Pad1)*%
X141760000Y-89220000D03*
%TD*%
%TO.P,TP140,1,1*%
%TO.N,unconnected-(TP140-Pad1)*%
X157000000Y-91760000D03*
%TD*%
%TO.P,TP38,1,1*%
%TO.N,unconnected-(TP38-Pad1)*%
X141760000Y-71440000D03*
%TD*%
%TO.P,TP84,1,1*%
%TO.N,unconnected-(TP84-Pad1)*%
X136680000Y-81600000D03*
%TD*%
%TO.P,TP85,1,1*%
%TO.N,unconnected-(TP85-Pad1)*%
X139220000Y-81600000D03*
%TD*%
%TO.P,TP127,1,1*%
%TO.N,unconnected-(TP127-Pad1)*%
X154460000Y-89220000D03*
%TD*%
%TO.P,TP204,1,1*%
%TO.N,unconnected-(TP204-Pad1)*%
X141760000Y-107000000D03*
%TD*%
%TO.P,TP195,1,1*%
%TO.N,unconnected-(TP195-Pad1)*%
X144300000Y-104460000D03*
%TD*%
%TO.P,TP17,1,1*%
%TO.N,unconnected-(TP17-Pad1)*%
X144300000Y-66360000D03*
%TD*%
%TO.P,TP144,1,1*%
%TO.N,unconnected-(TP144-Pad1)*%
X136680000Y-94300000D03*
%TD*%
%TO.P,TP149,1,1*%
%TO.N,unconnected-(TP149-Pad1)*%
X149380000Y-94300000D03*
%TD*%
%TO.P,TP46,1,1*%
%TO.N,unconnected-(TP46-Pad1)*%
X131600000Y-73980000D03*
%TD*%
%TO.P,TP47,1,1*%
%TO.N,unconnected-(TP47-Pad1)*%
X134140000Y-73980000D03*
%TD*%
%TO.P,TP150,1,1*%
%TO.N,unconnected-(TP150-Pad1)*%
X151920000Y-94300000D03*
%TD*%
%TO.P,TP97,1,1*%
%TO.N,unconnected-(TP97-Pad1)*%
X139220000Y-84140000D03*
%TD*%
%TO.P,TP159,1,1*%
%TO.N,unconnected-(TP159-Pad1)*%
X144300000Y-96840000D03*
%TD*%
%TO.P,TP74,1,1*%
%TO.N,unconnected-(TP74-Pad1)*%
X141760000Y-79060000D03*
%TD*%
%TO.P,TP90,1,1*%
%TO.N,unconnected-(TP90-Pad1)*%
X151920000Y-81600000D03*
%TD*%
%TO.P,TP62,1,1*%
%TO.N,unconnected-(TP62-Pad1)*%
X141760000Y-76520000D03*
%TD*%
%TO.P,TP78,1,1*%
%TO.N,unconnected-(TP78-Pad1)*%
X151920000Y-79060000D03*
%TD*%
%TO.P,TP40,1,1*%
%TO.N,unconnected-(TP40-Pad1)*%
X146840000Y-71440000D03*
%TD*%
%TO.P,TP13,1,1*%
%TO.N,unconnected-(TP13-Pad1)*%
X134140000Y-66360000D03*
%TD*%
%TO.P,TP18,1,1*%
%TO.N,unconnected-(TP18-Pad1)*%
X146840000Y-66360000D03*
%TD*%
D20*
%TO.P,C5,1*%
%TO.N,GND*%
X124700000Y-88850000D03*
%TO.P,C5,2*%
%TO.N,VDD*%
X124700000Y-86950000D03*
%TD*%
D10*
%TO.P,TP43,1,1*%
%TO.N,unconnected-(TP43-Pad1)*%
X154460000Y-71440000D03*
%TD*%
%TO.P,TP29,1,1*%
%TO.N,unconnected-(TP29-Pad1)*%
X149380000Y-68900000D03*
%TD*%
D21*
%TO.P,U4,1,GND*%
%TO.N,GND*%
X121412500Y-94050000D03*
%TO.P,U4,2,GND*%
X121412500Y-94700000D03*
%TO.P,U4,3,GND*%
X121412500Y-95350000D03*
%TO.P,U4,4,IN*%
%TO.N,VIN_Fused*%
X123187500Y-95350000D03*
%TO.P,U4,5,IN*%
X123187500Y-94700000D03*
%TO.P,U4,6,IN*%
X123187500Y-94050000D03*
D22*
%TO.P,U4,7,GND*%
%TO.N,GND*%
X122300000Y-94700000D03*
%TD*%
D10*
%TO.P,TP95,1,1*%
%TO.N,unconnected-(TP95-Pad1)*%
X134140000Y-84140000D03*
%TD*%
%TO.P,TP75,1,1*%
%TO.N,unconnected-(TP75-Pad1)*%
X144300000Y-79060000D03*
%TD*%
%TO.P,TP202,1,1*%
%TO.N,unconnected-(TP202-Pad1)*%
X136680000Y-107000000D03*
%TD*%
%TO.P,TP27,1,1*%
%TO.N,unconnected-(TP27-Pad1)*%
X144300000Y-68900000D03*
%TD*%
%TO.P,TP53,1,1*%
%TO.N,unconnected-(TP53-Pad1)*%
X149380000Y-73980000D03*
%TD*%
%TO.P,TP152,1,1*%
%TO.N,unconnected-(TP152-Pad1)*%
X157000000Y-94300000D03*
%TD*%
%TO.P,TP161,1,1*%
%TO.N,unconnected-(TP161-Pad1)*%
X149380000Y-96840000D03*
%TD*%
%TO.P,TP184,1,1*%
%TO.N,unconnected-(TP184-Pad1)*%
X146840000Y-101920000D03*
%TD*%
D23*
%TO.P,U3,1,FB*%
%TO.N,VDD*%
X120950000Y-92437500D03*
%TO.P,U3,2,EN*%
%TO.N,VIN_Fused*%
X121900000Y-92437500D03*
%TO.P,U3,3,IN*%
X122850000Y-92437500D03*
%TO.P,U3,4,GND*%
%TO.N,GND*%
X122850000Y-90162500D03*
%TO.P,U3,5,SW*%
%TO.N,/SW*%
X121900000Y-90162500D03*
%TO.P,U3,6,BST*%
%TO.N,/BST*%
X120950000Y-90162500D03*
%TD*%
D10*
%TO.P,TP141,1,1*%
%TO.N,/PB1*%
X129060000Y-94300000D03*
%TD*%
D20*
%TO.P,C3,1*%
%TO.N,GND*%
X124700000Y-85350000D03*
%TO.P,C3,2*%
%TO.N,VDD*%
X124700000Y-83450000D03*
%TD*%
D10*
%TO.P,TP147,1,1*%
%TO.N,unconnected-(TP147-Pad1)*%
X144300000Y-94300000D03*
%TD*%
D24*
%TO.P,J1,1,Pin_1*%
%TO.N,GND*%
X113250000Y-67600000D03*
D25*
%TO.P,J1,2,Pin_2*%
%TO.N,/~{RST}*%
X113250000Y-68870000D03*
%TO.P,J1,3,Pin_3*%
%TO.N,/SWCLK*%
X113250000Y-70140000D03*
%TO.P,J1,4,Pin_4*%
%TO.N,/SWDIO*%
X113250000Y-71410000D03*
%TD*%
D17*
%TO.P,J2,1,Pin_1*%
%TO.N,/CAN+*%
X114900000Y-83900000D03*
D18*
%TO.P,J2,2,Pin_2*%
%TO.N,/CAN-*%
X114900000Y-80400000D03*
%TD*%
D10*
%TO.P,TP187,1,1*%
%TO.N,unconnected-(TP187-Pad1)*%
X154460000Y-101920000D03*
%TD*%
D26*
%TO.P,U1,1,PB8*%
%TO.N,/PB8*%
X123362500Y-71175000D03*
%TO.P,U1,2,PF0*%
%TO.N,/SDA*%
X123362500Y-70525000D03*
%TO.P,U1,3,PF1*%
%TO.N,/SCL*%
X123362500Y-69875000D03*
%TO.P,U1,4,NRST*%
%TO.N,/~{RST}*%
X123362500Y-69225000D03*
%TO.P,U1,5,VDDA*%
%TO.N,VDD*%
X123362500Y-68575000D03*
%TO.P,U1,6,PA0*%
%TO.N,/PA0*%
X123362500Y-67925000D03*
%TO.P,U1,7,PA1*%
%TO.N,/PA1*%
X123362500Y-67275000D03*
%TO.P,U1,8,PA2*%
%TO.N,/PA2*%
X123362500Y-66625000D03*
%TO.P,U1,9,PA3*%
%TO.N,/PA3*%
X123362500Y-65975000D03*
%TO.P,U1,10,PA4*%
%TO.N,/PA4*%
X123362500Y-65325000D03*
%TO.P,U1,11,PA5*%
%TO.N,/PA5*%
X117637500Y-65325000D03*
%TO.P,U1,12,PA6*%
%TO.N,/PA6*%
X117637500Y-65975000D03*
%TO.P,U1,13,PA7*%
%TO.N,/PA7*%
X117637500Y-66625000D03*
%TO.P,U1,14,PB1*%
%TO.N,/PB1*%
X117637500Y-67275000D03*
%TO.P,U1,15,VSSA*%
%TO.N,GND*%
X117637500Y-67925000D03*
%TO.P,U1,16,VDD*%
%TO.N,VDD*%
X117637500Y-68575000D03*
%TO.P,U1,17,PA9/PA11*%
%TO.N,/CAN_RX*%
X117637500Y-69225000D03*
%TO.P,U1,18,PA10/PA12*%
%TO.N,/CAN_TX*%
X117637500Y-69875000D03*
%TO.P,U1,19,PA13*%
%TO.N,/SWDIO*%
X117637500Y-70525000D03*
%TO.P,U1,20,PA14*%
%TO.N,/SWCLK*%
X117637500Y-71175000D03*
%TD*%
D10*
%TO.P,TP196,1,1*%
%TO.N,unconnected-(TP196-Pad1)*%
X146840000Y-104460000D03*
%TD*%
%TO.P,TP129,1,1*%
%TO.N,/PB8*%
X129060000Y-91760000D03*
%TD*%
%TO.P,TP109,1,1*%
%TO.N,unconnected-(TP109-Pad1)*%
X139220000Y-86680000D03*
%TD*%
%TO.P,TP120,1,1*%
%TO.N,unconnected-(TP120-Pad1)*%
X136680000Y-89220000D03*
%TD*%
D27*
%TO.P,L1,1,1*%
%TO.N,/SW*%
X120600000Y-87500000D03*
%TO.P,L1,2,2*%
%TO.N,VDD*%
X122800000Y-87500000D03*
%TD*%
D10*
%TO.P,TP31,1,1*%
%TO.N,unconnected-(TP31-Pad1)*%
X154460000Y-68900000D03*
%TD*%
%TO.P,TP77,1,1*%
%TO.N,unconnected-(TP77-Pad1)*%
X149380000Y-79060000D03*
%TD*%
D28*
%TO.P,D1,1,K*%
%TO.N,/CAN+*%
X122250000Y-78400000D03*
%TO.P,D1,2,K*%
%TO.N,/CAN-*%
X120950000Y-78400000D03*
%TO.P,D1,3,A*%
%TO.N,GND*%
X121600000Y-80400000D03*
%TD*%
D10*
%TO.P,TP20,1,1*%
%TO.N,unconnected-(TP20-Pad1)*%
X151920000Y-66360000D03*
%TD*%
%TO.P,TP117,1,1*%
%TO.N,/SDA*%
X129060000Y-89220000D03*
%TD*%
%TO.P,TP89,1,1*%
%TO.N,unconnected-(TP89-Pad1)*%
X149380000Y-81600000D03*
%TD*%
%TO.P,TP33,1,1*%
%TO.N,/PA5*%
X129060000Y-71440000D03*
%TD*%
%TO.P,TP125,1,1*%
%TO.N,unconnected-(TP125-Pad1)*%
X149380000Y-89220000D03*
%TD*%
%TO.P,TP25,1,1*%
%TO.N,unconnected-(TP25-Pad1)*%
X139220000Y-68900000D03*
%TD*%
%TO.P,TP205,1,1*%
%TO.N,unconnected-(TP205-Pad1)*%
X144300000Y-107000000D03*
%TD*%
%TO.P,TP165,1,1*%
%TO.N,GND*%
X129060000Y-99380000D03*
%TD*%
%TO.P,TP83,1,1*%
%TO.N,unconnected-(TP83-Pad1)*%
X134140000Y-81600000D03*
%TD*%
%TO.P,TP64,1,1*%
%TO.N,unconnected-(TP64-Pad1)*%
X146840000Y-76520000D03*
%TD*%
%TO.P,TP188,1,1*%
%TO.N,unconnected-(TP188-Pad1)*%
X157000000Y-101920000D03*
%TD*%
%TO.P,TP134,1,1*%
%TO.N,unconnected-(TP134-Pad1)*%
X141760000Y-91760000D03*
%TD*%
%TO.P,TP34,1,1*%
%TO.N,unconnected-(TP34-Pad1)*%
X131600000Y-71440000D03*
%TD*%
D15*
%TO.P,C1,1*%
%TO.N,GND*%
X115750000Y-67475000D03*
%TO.P,C1,2*%
%TO.N,VDD*%
X115750000Y-69025000D03*
%TD*%
D10*
%TO.P,TP164,1,1*%
%TO.N,unconnected-(TP164-Pad1)*%
X157000000Y-96840000D03*
%TD*%
%TO.P,TP100,1,1*%
%TO.N,unconnected-(TP100-Pad1)*%
X146840000Y-84140000D03*
%TD*%
%TO.P,TP148,1,1*%
%TO.N,unconnected-(TP148-Pad1)*%
X146840000Y-94300000D03*
%TD*%
%TO.P,TP86,1,1*%
%TO.N,unconnected-(TP86-Pad1)*%
X141760000Y-81600000D03*
%TD*%
%TO.P,TP162,1,1*%
%TO.N,unconnected-(TP162-Pad1)*%
X151920000Y-96840000D03*
%TD*%
%TO.P,TP174,1,1*%
%TO.N,unconnected-(TP174-Pad1)*%
X151920000Y-99380000D03*
%TD*%
%TO.P,TP203,1,1*%
%TO.N,unconnected-(TP203-Pad1)*%
X139220000Y-107000000D03*
%TD*%
%TO.P,TP65,1,1*%
%TO.N,unconnected-(TP65-Pad1)*%
X149380000Y-76520000D03*
%TD*%
%TO.P,TP172,1,1*%
%TO.N,unconnected-(TP172-Pad1)*%
X146840000Y-99380000D03*
%TD*%
%TO.P,TP8,1,1*%
%TO.N,unconnected-(TP8-Pad1)*%
X146840000Y-63820000D03*
%TD*%
D29*
%TO.P,U2,1,TXD*%
%TO.N,/CAN_TX*%
X116725000Y-74000000D03*
%TO.P,U2,2,GND*%
%TO.N,GND*%
X116725000Y-74650000D03*
%TO.P,U2,3,VCC*%
%TO.N,VDD*%
X116725000Y-75300000D03*
%TO.P,U2,4,RXD*%
%TO.N,/CAN_RX*%
X116725000Y-75950000D03*
%TO.P,U2,5,SHDN*%
%TO.N,VDD*%
X119000000Y-75950000D03*
%TO.P,U2,6,CANL*%
%TO.N,/CAN-*%
X119000000Y-75300000D03*
%TO.P,U2,7,CANH*%
%TO.N,/CAN+*%
X119000000Y-74650000D03*
%TO.P,U2,8,S*%
%TO.N,GND*%
X119000000Y-74000000D03*
%TD*%
D10*
%TO.P,TP68,1,1*%
%TO.N,unconnected-(TP68-Pad1)*%
X157000000Y-76520000D03*
%TD*%
%TO.P,TP61,1,1*%
%TO.N,unconnected-(TP61-Pad1)*%
X139220000Y-76520000D03*
%TD*%
%TO.P,TP103,1,1*%
%TO.N,unconnected-(TP103-Pad1)*%
X154460000Y-84140000D03*
%TD*%
%TO.P,TP80,1,1*%
%TO.N,unconnected-(TP80-Pad1)*%
X157000000Y-79060000D03*
%TD*%
%TO.P,TP200,1,1*%
%TO.N,unconnected-(TP200-Pad1)*%
X131600000Y-107000000D03*
%TD*%
%TO.P,TP60,1,1*%
%TO.N,unconnected-(TP60-Pad1)*%
X136680000Y-76520000D03*
%TD*%
%TO.P,TP136,1,1*%
%TO.N,unconnected-(TP136-Pad1)*%
X146840000Y-91760000D03*
%TD*%
%TO.P,TP168,1,1*%
%TO.N,unconnected-(TP168-Pad1)*%
X136680000Y-99380000D03*
%TD*%
%TO.P,TP194,1,1*%
%TO.N,unconnected-(TP194-Pad1)*%
X141760000Y-104460000D03*
%TD*%
%TO.P,TP124,1,1*%
%TO.N,unconnected-(TP124-Pad1)*%
X146840000Y-89220000D03*
%TD*%
%TO.P,TP170,1,1*%
%TO.N,unconnected-(TP170-Pad1)*%
X141760000Y-99380000D03*
%TD*%
%TO.P,TP157,1,1*%
%TO.N,unconnected-(TP157-Pad1)*%
X139220000Y-96840000D03*
%TD*%
%TO.P,TP39,1,1*%
%TO.N,unconnected-(TP39-Pad1)*%
X144300000Y-71440000D03*
%TD*%
%TO.P,TP63,1,1*%
%TO.N,unconnected-(TP63-Pad1)*%
X144300000Y-76520000D03*
%TD*%
%TO.P,TP104,1,1*%
%TO.N,unconnected-(TP104-Pad1)*%
X157000000Y-84140000D03*
%TD*%
D30*
%TO.P,D2,1,K*%
%TO.N,VIN_Fused*%
X125345000Y-97729000D03*
%TO.P,D2,2,A*%
%TO.N,GND*%
X121345000Y-97729000D03*
%TD*%
D10*
%TO.P,TP54,1,1*%
%TO.N,unconnected-(TP54-Pad1)*%
X151920000Y-73980000D03*
%TD*%
%TO.P,TP52,1,1*%
%TO.N,unconnected-(TP52-Pad1)*%
X146840000Y-73980000D03*
%TD*%
%TO.P,TP171,1,1*%
%TO.N,unconnected-(TP171-Pad1)*%
X144300000Y-99380000D03*
%TD*%
%TO.P,TP181,1,1*%
%TO.N,unconnected-(TP181-Pad1)*%
X139220000Y-101920000D03*
%TD*%
D31*
%TO.N,VDD*%
X120250000Y-69000000D03*
D32*
X121694002Y-83632000D03*
D31*
X121750000Y-67500000D03*
D32*
X119001600Y-85003600D03*
X119535000Y-82870000D03*
D31*
%TO.N,/~{RST}*%
X117550000Y-72550000D03*
X119250000Y-66500000D03*
%TO.N,/SDA*%
X122075228Y-71049285D03*
X123500000Y-73250000D03*
%TO.N,/SCL*%
X122200006Y-69900000D03*
X122500000Y-73250000D03*
%TO.N,GND*%
X115681464Y-74575000D03*
X124700000Y-85350000D03*
X120500000Y-95250000D03*
X117250000Y-107758000D03*
X119500000Y-107758000D03*
X121600000Y-79300000D03*
X119250000Y-94250000D03*
D33*
X120000000Y-74000000D03*
D31*
X124700000Y-90350000D03*
X120500000Y-94250000D03*
X117250000Y-103258000D03*
X124700000Y-88850000D03*
X116400000Y-67800000D03*
X122850000Y-90162500D03*
X121600000Y-81100000D03*
X119500000Y-103258000D03*
D34*
X119916000Y-97729000D03*
X122710000Y-97729000D03*
%TD*%
D35*
%TO.N,VDD*%
X123362500Y-68575000D02*
X122600478Y-68575000D01*
X121750000Y-67724522D02*
X121750000Y-67500000D01*
X117637500Y-68575000D02*
X118925000Y-68575000D01*
X115000000Y-75750000D02*
X114225000Y-75750000D01*
D36*
X118050000Y-75950000D02*
X117475000Y-76525000D01*
X119000000Y-75950000D02*
X118050000Y-75950000D01*
D35*
X117637500Y-68575000D02*
X116200000Y-68575000D01*
X122600478Y-68575000D02*
X121750000Y-67724522D01*
X119000000Y-68500000D02*
X118925000Y-68575000D01*
X116725000Y-75300000D02*
X115450000Y-75300000D01*
X115450000Y-75300000D02*
X115000000Y-75750000D01*
D36*
X115775000Y-76525000D02*
X115000000Y-75750000D01*
D35*
X116200000Y-68575000D02*
X115750000Y-69025000D01*
X114225000Y-75750000D02*
X113450000Y-74975000D01*
D36*
X117475000Y-76525000D02*
X115775000Y-76525000D01*
D35*
%TO.N,/BST*%
X119725000Y-85800000D02*
X119725000Y-89237499D01*
X119725000Y-89237499D02*
X120650001Y-90162500D01*
X120650001Y-90162500D02*
X120950000Y-90162500D01*
X120525000Y-85000000D02*
X119725000Y-85800000D01*
%TO.N,/SW*%
X121400000Y-85700000D02*
X121400000Y-87300000D01*
X121400000Y-87300000D02*
X121200000Y-87500000D01*
X122075000Y-85025000D02*
X121400000Y-85700000D01*
X122075000Y-85000000D02*
X122075000Y-85025000D01*
X121200000Y-87500000D02*
X120600000Y-87500000D01*
%TO.N,/CAN-*%
X114900000Y-80400000D02*
X115200000Y-80400000D01*
X116850001Y-80400000D02*
X117776707Y-81326706D01*
X119772182Y-75300000D02*
X119000000Y-75300000D01*
X114900000Y-80400000D02*
X116850001Y-80400000D01*
X117776707Y-81326706D02*
X120881200Y-81326706D01*
X120881200Y-81326706D02*
X120881200Y-76409018D01*
X120881200Y-76409018D02*
X119772182Y-75300000D01*
%TO.N,/CAN+*%
X122329000Y-81434852D02*
X122329000Y-77079000D01*
X119900000Y-74650000D02*
X119000000Y-74650000D01*
X114900000Y-83900000D02*
X119863852Y-83900000D01*
X119863852Y-83900000D02*
X122329000Y-81434852D01*
X122329000Y-77079000D02*
X119900000Y-74650000D01*
%TO.N,/SWCLK*%
X114285000Y-71175000D02*
X113250000Y-70140000D01*
X117637500Y-71175000D02*
X114285000Y-71175000D01*
%TO.N,/~{RST}*%
X112375000Y-69745000D02*
X112375000Y-72250000D01*
X123312500Y-69175000D02*
X122298834Y-69175000D01*
X122298834Y-69175000D02*
X119623834Y-66500000D01*
X113450000Y-73325000D02*
X113475000Y-73325000D01*
X113250000Y-68870000D02*
X112375000Y-69745000D01*
X113475000Y-73325000D02*
X114200000Y-72600000D01*
X117500000Y-72600000D02*
X117550000Y-72550000D01*
X112375000Y-72250000D02*
X113450000Y-73325000D01*
X119623834Y-66500000D02*
X119250000Y-66500000D01*
X114200000Y-72600000D02*
X117500000Y-72600000D01*
X123362500Y-69225000D02*
X123312500Y-69175000D01*
%TO.N,/SWDIO*%
X113615000Y-71775000D02*
X113250000Y-71410000D01*
X118579137Y-71775000D02*
X113615000Y-71775000D01*
X118800000Y-70793502D02*
X118800000Y-71554137D01*
X118531498Y-70525000D02*
X118800000Y-70793502D01*
X117637500Y-70525000D02*
X118531498Y-70525000D01*
X118800000Y-71554137D02*
X118579137Y-71775000D01*
D36*
%TO.N,/CAN_TX*%
X116725000Y-74000000D02*
X117226256Y-73498744D01*
X117226256Y-73498744D02*
X117562500Y-73498744D01*
X119300000Y-71761244D02*
X119300000Y-70586396D01*
X117562500Y-73498744D02*
X119300000Y-71761244D01*
X119300000Y-70586396D02*
X118588604Y-69875000D01*
X118588604Y-69875000D02*
X117637500Y-69875000D01*
%TO.N,/CAN_RX*%
X119750000Y-71947640D02*
X119750000Y-70400000D01*
X118012500Y-75324999D02*
X118012500Y-73685140D01*
X119750000Y-70400000D02*
X118575000Y-69225000D01*
X116725000Y-75950000D02*
X117387499Y-75950000D01*
X118012500Y-73685140D02*
X119750000Y-71947640D01*
X117387499Y-75950000D02*
X118012500Y-75324999D01*
X118575000Y-69225000D02*
X117637500Y-69225000D01*
D35*
%TO.N,/SDA*%
X123500000Y-74100000D02*
X123500000Y-73250000D01*
X122599513Y-70525000D02*
X122075228Y-71049285D01*
X123362500Y-70525000D02*
X122599513Y-70525000D01*
%TO.N,/SCL*%
X122500000Y-74100000D02*
X122500000Y-73250000D01*
X122225006Y-69875000D02*
X123362500Y-69875000D01*
X122200006Y-69900000D02*
X122225006Y-69875000D01*
%TO.N,/PA7*%
X126200000Y-63500000D02*
X129060000Y-66360000D01*
X115950000Y-64550000D02*
X117000000Y-63500000D01*
X117000000Y-63500000D02*
X126200000Y-63500000D01*
X117637500Y-66625000D02*
X116747661Y-66625000D01*
X115950000Y-65827339D02*
X115950000Y-64550000D01*
X116747661Y-66625000D02*
X115950000Y-65827339D01*
%TO.N,/PA2*%
X123362500Y-66625000D02*
X124491546Y-66625000D01*
X125585000Y-67718454D02*
X125585000Y-70029364D01*
X126600000Y-71044364D02*
X126600000Y-76600000D01*
X126600000Y-76600000D02*
X129060000Y-79060000D01*
X125585000Y-70029364D02*
X126600000Y-71044364D01*
X124491546Y-66625000D02*
X125585000Y-67718454D01*
%TO.N,/PA4*%
X127700000Y-73519999D02*
X128160001Y-73980000D01*
X126685000Y-69573728D02*
X127700000Y-70588728D01*
X128160001Y-73980000D02*
X129060000Y-73980000D01*
X126685000Y-67262818D02*
X126685000Y-69573728D01*
X127700000Y-70588728D02*
X127700000Y-73519999D01*
X123362500Y-65325000D02*
X124747182Y-65325000D01*
X124747182Y-65325000D02*
X126685000Y-67262818D01*
%TO.N,/PA3*%
X124619364Y-65975000D02*
X126135000Y-67490636D01*
X123362500Y-65975000D02*
X124619364Y-65975000D01*
X127150000Y-70816546D02*
X127150000Y-75509999D01*
X127150000Y-75509999D02*
X128160001Y-76520000D01*
X128160001Y-76520000D02*
X129060000Y-76520000D01*
X126135000Y-69801546D02*
X127150000Y-70816546D01*
X126135000Y-67490636D02*
X126135000Y-69801546D01*
%TO.N,/PA5*%
X129060000Y-71170910D02*
X129060000Y-71440000D01*
X117637500Y-65325000D02*
X118212500Y-64750000D01*
X127235000Y-67035000D02*
X127235000Y-69345910D01*
X124950000Y-64750000D02*
X127235000Y-67035000D01*
X118212500Y-64750000D02*
X124950000Y-64750000D01*
X127235000Y-69345910D02*
X129060000Y-71170910D01*
%TO.N,/PB1*%
X127250000Y-88132735D02*
X127235000Y-88147734D01*
X121300000Y-68953984D02*
X121300000Y-71850000D01*
X121800000Y-72350000D02*
X123700000Y-72350000D01*
X124400000Y-73050000D02*
X124400000Y-81105636D01*
X124400000Y-81105636D02*
X127235000Y-83940636D01*
X123700000Y-72350000D02*
X124400000Y-73050000D01*
X117637500Y-67275000D02*
X119621016Y-67275000D01*
X127250000Y-87767266D02*
X127250000Y-88132735D01*
X127235000Y-87752266D02*
X127250000Y-87767266D01*
X127235000Y-88147734D02*
X127235000Y-92475000D01*
X127235000Y-83940636D02*
X127235000Y-87752266D01*
X119621016Y-67275000D02*
X121300000Y-68953984D01*
X127235000Y-92475000D02*
X129060000Y-94300000D01*
X121300000Y-71850000D02*
X121800000Y-72350000D01*
%TO.N,/PA0*%
X125500000Y-71500000D02*
X125500000Y-80650000D01*
X124485000Y-68185000D02*
X124485000Y-70485000D01*
X128990000Y-84140000D02*
X129060000Y-84140000D01*
X125500000Y-80650000D02*
X128990000Y-84140000D01*
X123362500Y-67925000D02*
X124225000Y-67925000D01*
X124485000Y-70485000D02*
X125500000Y-71500000D01*
X124225000Y-67925000D02*
X124485000Y-68185000D01*
%TO.N,/PA1*%
X126050000Y-78590000D02*
X129060000Y-81600000D01*
X125035000Y-70257182D02*
X126050000Y-71272182D01*
X125035000Y-67946272D02*
X125035000Y-70257182D01*
X124363728Y-67275000D02*
X125035000Y-67946272D01*
X123362500Y-67275000D02*
X124363728Y-67275000D01*
X126050000Y-71272182D02*
X126050000Y-78590000D01*
%TO.N,/PB8*%
X124175000Y-71175000D02*
X123362500Y-71175000D01*
X127800000Y-84999448D02*
X127785000Y-84984448D01*
X127785000Y-90064448D02*
X127785000Y-88375552D01*
X129060000Y-91760000D02*
X129060000Y-91339448D01*
X127800000Y-85820552D02*
X127800000Y-84999448D01*
X127785000Y-85835552D02*
X127800000Y-85820552D01*
X124950000Y-71950000D02*
X124175000Y-71175000D01*
X127800000Y-88360552D02*
X127800000Y-87539448D01*
X129060000Y-91339448D02*
X127785000Y-90064448D01*
X127785000Y-84984448D02*
X127785000Y-83712818D01*
X124950000Y-80877818D02*
X124950000Y-71950000D01*
X127785000Y-83712818D02*
X124950000Y-80877818D01*
X127785000Y-87524448D02*
X127785000Y-85835552D01*
X127800000Y-87539448D02*
X127785000Y-87524448D01*
X127785000Y-88375552D02*
X127800000Y-88360552D01*
%TO.N,/PA6*%
X117637500Y-65975000D02*
X116875478Y-65975000D01*
X116500000Y-65599522D02*
X116500000Y-65050478D01*
X117500478Y-64050000D02*
X125027818Y-64050000D01*
X125027818Y-64050000D02*
X127785000Y-66807182D01*
X127785000Y-67625000D02*
X129060000Y-68900000D01*
X116500000Y-65050478D02*
X117500478Y-64050000D01*
X127785000Y-66807182D02*
X127785000Y-67625000D01*
X116875478Y-65975000D02*
X116500000Y-65599522D01*
%TO.N,GND*%
X115681464Y-74575000D02*
X115375000Y-74575000D01*
X116525000Y-67925000D02*
X116400000Y-67800000D01*
X116275000Y-67925000D02*
X116200000Y-67925000D01*
X115375000Y-74575000D02*
X115000000Y-74200000D01*
X115756464Y-74650000D02*
X115681464Y-74575000D01*
X121600000Y-79300000D02*
X121600000Y-81100000D01*
X116725000Y-74650000D02*
X115756464Y-74650000D01*
X116400000Y-67800000D02*
X116275000Y-67925000D01*
D37*
X121345000Y-97729000D02*
X119916000Y-97729000D01*
D35*
X116200000Y-67925000D02*
X115750000Y-67475000D01*
X117637500Y-67925000D02*
X116525000Y-67925000D01*
D37*
X121345000Y-97729000D02*
X122710000Y-97729000D01*
D35*
X119000000Y-74000000D02*
X120000000Y-74000000D01*
D38*
%TO.N,/VIN*%
X120850000Y-100777000D02*
X119662000Y-100777000D01*
X117825000Y-96616422D02*
X115858578Y-94650000D01*
X119662000Y-100777000D02*
X117825000Y-98940000D01*
X115858578Y-94650000D02*
X114900000Y-94650000D01*
X117825000Y-98940000D02*
X117825000Y-96616422D01*
%TD*%
%TA.AperFunction,Conductor*%
%TO.N,VIN_Fused*%
G36*
X125943039Y-91419685D02*
G01*
X125988794Y-91472489D01*
X126000000Y-91524000D01*
X126000000Y-106615000D01*
X125980315Y-106682039D01*
X125927511Y-106727794D01*
X125876000Y-106739000D01*
X121124000Y-106739000D01*
X121056961Y-106719315D01*
X121011206Y-106666511D01*
X121000000Y-106615000D01*
X121000000Y-102776499D01*
X121019685Y-102709460D01*
X121072489Y-102663705D01*
X121124000Y-102652499D01*
X121289208Y-102652499D01*
X121289216Y-102652499D01*
X121421412Y-102642096D01*
X121639683Y-102587096D01*
X121844626Y-102494007D01*
X122029654Y-102365819D01*
X122188819Y-102206654D01*
X122317007Y-102021626D01*
X122410096Y-101816683D01*
X122465096Y-101598412D01*
X122475500Y-101466217D01*
X122475500Y-100904930D01*
X122475500Y-100649070D01*
X122475500Y-100641475D01*
X122475499Y-100641457D01*
X122475499Y-100087791D01*
X122475498Y-100087776D01*
X122465096Y-99955588D01*
X122410096Y-99737317D01*
X122317007Y-99532374D01*
X122188819Y-99347346D01*
X122032653Y-99191180D01*
X121999168Y-99129857D01*
X122004152Y-99060165D01*
X122046024Y-99004232D01*
X122111488Y-98979815D01*
X122120334Y-98979499D01*
X122384363Y-98979499D01*
X122501753Y-98964046D01*
X122501757Y-98964044D01*
X122501762Y-98964044D01*
X122647841Y-98903536D01*
X122773282Y-98807282D01*
X122869536Y-98681841D01*
X122930044Y-98535762D01*
X122932317Y-98518494D01*
X122960579Y-98454603D01*
X123014301Y-98417640D01*
X123037690Y-98409456D01*
X123037693Y-98409453D01*
X123037697Y-98409452D01*
X123180884Y-98319481D01*
X123180885Y-98319480D01*
X123180890Y-98319477D01*
X123300477Y-98199890D01*
X123300481Y-98199884D01*
X123390452Y-98056697D01*
X123390454Y-98056694D01*
X123390454Y-98056692D01*
X123390456Y-98056690D01*
X123446313Y-97897059D01*
X123446313Y-97897058D01*
X123446314Y-97897056D01*
X123465249Y-97729002D01*
X123465249Y-97728997D01*
X123446314Y-97560943D01*
X123390454Y-97401305D01*
X123390452Y-97401302D01*
X123300481Y-97258115D01*
X123300476Y-97258109D01*
X123180890Y-97138523D01*
X123180884Y-97138518D01*
X123037699Y-97048548D01*
X123037695Y-97048546D01*
X123037690Y-97048544D01*
X123014297Y-97040358D01*
X122957523Y-96999635D01*
X122932316Y-96939500D01*
X122930044Y-96922239D01*
X122930044Y-96922238D01*
X122869536Y-96776159D01*
X122773282Y-96650718D01*
X122665561Y-96568061D01*
X122624360Y-96511634D01*
X122620205Y-96441888D01*
X122654418Y-96380967D01*
X122714687Y-96348521D01*
X122753081Y-96340169D01*
X122810464Y-96322497D01*
X122910314Y-96261463D01*
X122963118Y-96215708D01*
X123020411Y-96152525D01*
X123071414Y-96047198D01*
X123091099Y-95980159D01*
X123105500Y-95880000D01*
X123105500Y-95779410D01*
X123105314Y-95767917D01*
X123105055Y-95759910D01*
X123101036Y-95739156D01*
X123107615Y-95669598D01*
X123111366Y-95661134D01*
X123140573Y-95601393D01*
X123150500Y-95533260D01*
X123150500Y-93866740D01*
X123140573Y-93798607D01*
X123089198Y-93693517D01*
X123089196Y-93693515D01*
X123089196Y-93693514D01*
X123006482Y-93610800D01*
X122892743Y-93555197D01*
X122893464Y-93553722D01*
X122859246Y-93534215D01*
X122799006Y-93479591D01*
X122799004Y-93479589D01*
X122799000Y-93479587D01*
X122798997Y-93479585D01*
X122693677Y-93428586D01*
X122693674Y-93428585D01*
X122626639Y-93408901D01*
X122626633Y-93408899D01*
X122536584Y-93395952D01*
X122526479Y-93394500D01*
X122526478Y-93394500D01*
X121640175Y-93394500D01*
X121573136Y-93374815D01*
X121527381Y-93322011D01*
X121517437Y-93252853D01*
X121540908Y-93196190D01*
X121543793Y-93192335D01*
X121543792Y-93192335D01*
X121543796Y-93192331D01*
X121594091Y-93057483D01*
X121600500Y-92997873D01*
X121600499Y-91877128D01*
X121594091Y-91817517D01*
X121543796Y-91682669D01*
X121543795Y-91682668D01*
X121543793Y-91682664D01*
X121480646Y-91598311D01*
X121456228Y-91532847D01*
X121471079Y-91464574D01*
X121520484Y-91415168D01*
X121579912Y-91400000D01*
X125876000Y-91400000D01*
X125943039Y-91419685D01*
G37*
%TD.AperFunction*%
%TD*%
%TA.AperFunction,Conductor*%
%TO.N,GND*%
G36*
X119910620Y-102519100D02*
G01*
X120060317Y-102587096D01*
X120060321Y-102587097D01*
X120278579Y-102642094D01*
X120278580Y-102642094D01*
X120278588Y-102642096D01*
X120285724Y-102642657D01*
X120351013Y-102667538D01*
X120392486Y-102723767D01*
X120400000Y-102766275D01*
X120400000Y-108384000D01*
X120380315Y-108451039D01*
X120327511Y-108496794D01*
X120276000Y-108508000D01*
X116374000Y-108508000D01*
X116306961Y-108488315D01*
X116261206Y-108435511D01*
X116250000Y-108384000D01*
X116250000Y-102632000D01*
X116269685Y-102564961D01*
X116322489Y-102519206D01*
X116374000Y-102508000D01*
X119859340Y-102508000D01*
X119910620Y-102519100D01*
G37*
%TD.AperFunction*%
%TD*%
%TA.AperFunction,Conductor*%
%TO.N,VDD*%
G36*
X119419024Y-67820185D02*
G01*
X119439666Y-67836819D01*
X120738181Y-69135334D01*
X120771666Y-69196657D01*
X120774500Y-69223015D01*
X120774500Y-71773204D01*
X120774499Y-71773222D01*
X120774499Y-71780817D01*
X120774499Y-71919183D01*
X120801295Y-72019184D01*
X120801294Y-72019184D01*
X120810310Y-72052831D01*
X120810313Y-72052838D01*
X120879492Y-72172661D01*
X120879494Y-72172664D01*
X120879495Y-72172665D01*
X120977335Y-72270505D01*
X120977336Y-72270506D01*
X121477335Y-72770505D01*
X121477336Y-72770506D01*
X121477338Y-72770507D01*
X121597161Y-72839687D01*
X121597162Y-72839687D01*
X121597165Y-72839689D01*
X121730817Y-72875501D01*
X121730820Y-72875501D01*
X121738668Y-72877604D01*
X121738266Y-72879103D01*
X121793724Y-72903631D01*
X121832200Y-72961952D01*
X121833037Y-73031817D01*
X121829593Y-73042279D01*
X121814860Y-73081126D01*
X121814859Y-73081130D01*
X121794355Y-73250000D01*
X121814859Y-73418869D01*
X121814860Y-73418874D01*
X121875182Y-73577931D01*
X121875184Y-73577934D01*
X121878266Y-73582399D01*
X121900148Y-73648754D01*
X121899408Y-73662227D01*
X121899824Y-73662258D01*
X121899500Y-73666733D01*
X121899500Y-74533260D01*
X121909426Y-74601391D01*
X121960803Y-74706485D01*
X122043514Y-74789196D01*
X122043515Y-74789196D01*
X122043517Y-74789198D01*
X122148607Y-74840573D01*
X122182673Y-74845536D01*
X122216739Y-74850500D01*
X122216740Y-74850500D01*
X122783261Y-74850500D01*
X122817326Y-74845536D01*
X122851393Y-74840573D01*
X122896600Y-74818473D01*
X122945540Y-74794548D01*
X123014413Y-74782788D01*
X123054460Y-74794548D01*
X123148604Y-74840572D01*
X123148607Y-74840573D01*
X123216739Y-74850500D01*
X123750500Y-74850500D01*
X123817539Y-74870185D01*
X123863294Y-74922989D01*
X123874500Y-74974500D01*
X123874500Y-81028840D01*
X123874499Y-81028858D01*
X123874499Y-81174821D01*
X123889825Y-81232014D01*
X123889825Y-81232016D01*
X123889826Y-81232016D01*
X123910312Y-81308473D01*
X123910313Y-81308474D01*
X123979492Y-81428297D01*
X123979496Y-81428302D01*
X124084400Y-81533206D01*
X124084406Y-81533211D01*
X126673181Y-84121986D01*
X126706666Y-84183309D01*
X126709500Y-84209667D01*
X126709500Y-87675470D01*
X126709499Y-87675488D01*
X126709499Y-87821451D01*
X126720274Y-87861660D01*
X126724500Y-87893755D01*
X126724500Y-88006238D01*
X126720274Y-88038335D01*
X126709502Y-88078530D01*
X126709501Y-88078538D01*
X126709500Y-88078555D01*
X126709500Y-88133883D01*
X126709497Y-88225140D01*
X126709500Y-88225185D01*
X126709500Y-92398204D01*
X126709499Y-92398222D01*
X126709499Y-92544182D01*
X126737718Y-92649498D01*
X126745311Y-92677835D01*
X126745313Y-92677839D01*
X126814492Y-92797661D01*
X126814496Y-92797666D01*
X126919400Y-92902570D01*
X126919406Y-92902575D01*
X127773181Y-93756350D01*
X127806666Y-93817673D01*
X127809500Y-93844031D01*
X127809500Y-94897426D01*
X127816004Y-94969008D01*
X127816006Y-94969015D01*
X127838474Y-95041116D01*
X127867337Y-95133740D01*
X127956599Y-95281397D01*
X127956601Y-95281400D01*
X128078597Y-95403396D01*
X128078599Y-95403397D01*
X128078603Y-95403401D01*
X128178654Y-95463884D01*
X128225840Y-95515412D01*
X128237678Y-95584271D01*
X128210409Y-95648600D01*
X128178654Y-95676115D01*
X128078603Y-95736599D01*
X128078602Y-95736599D01*
X128078597Y-95736603D01*
X127956601Y-95858599D01*
X127867337Y-96006259D01*
X127816005Y-96170991D01*
X127809500Y-96242583D01*
X127809500Y-97437426D01*
X127816004Y-97509008D01*
X127816006Y-97509015D01*
X127867336Y-97673737D01*
X127867337Y-97673740D01*
X127956599Y-97821397D01*
X127956601Y-97821400D01*
X128078597Y-97943396D01*
X128078599Y-97943397D01*
X128078603Y-97943401D01*
X128178654Y-98003884D01*
X128225840Y-98055412D01*
X128237678Y-98124271D01*
X128210409Y-98188600D01*
X128178654Y-98216115D01*
X128078603Y-98276599D01*
X128078602Y-98276599D01*
X128078597Y-98276603D01*
X127956601Y-98398599D01*
X127867337Y-98546259D01*
X127816005Y-98710991D01*
X127809500Y-98782583D01*
X127809500Y-99977426D01*
X127816004Y-100049008D01*
X127816006Y-100049015D01*
X127867336Y-100213737D01*
X127867337Y-100213740D01*
X127956599Y-100361397D01*
X128062923Y-100467721D01*
X128096407Y-100529042D01*
X128091423Y-100598734D01*
X128052928Y-100652048D01*
X127908302Y-100768301D01*
X127908301Y-100768302D01*
X127791106Y-100914100D01*
X127707993Y-101081681D01*
X127662848Y-101263210D01*
X127660000Y-101305217D01*
X127660000Y-101670000D01*
X128744314Y-101670000D01*
X128739920Y-101674394D01*
X128687259Y-101765606D01*
X128660000Y-101867339D01*
X128660000Y-101972661D01*
X128687259Y-102074394D01*
X128739920Y-102165606D01*
X128744314Y-102170000D01*
X127660000Y-102170000D01*
X127660000Y-102534782D01*
X127662848Y-102576789D01*
X127707993Y-102758318D01*
X127791106Y-102925899D01*
X127908301Y-103071697D01*
X127908302Y-103071698D01*
X127935242Y-103093353D01*
X127975161Y-103150696D01*
X127977741Y-103220518D01*
X127942162Y-103280651D01*
X127935242Y-103286647D01*
X127908302Y-103308301D01*
X127908301Y-103308302D01*
X127791106Y-103454100D01*
X127707993Y-103621681D01*
X127662848Y-103803210D01*
X127660000Y-103845217D01*
X127660000Y-104210000D01*
X128744314Y-104210000D01*
X128739920Y-104214394D01*
X128687259Y-104305606D01*
X128660000Y-104407339D01*
X128660000Y-104512661D01*
X128687259Y-104614394D01*
X128739920Y-104705606D01*
X128744314Y-104710000D01*
X127660000Y-104710000D01*
X127660000Y-105074782D01*
X127662848Y-105116789D01*
X127707993Y-105298318D01*
X127791106Y-105465899D01*
X127908299Y-105611695D01*
X128052928Y-105727949D01*
X128092847Y-105785292D01*
X128095427Y-105855114D01*
X128062923Y-105912278D01*
X127956600Y-106018601D01*
X127867337Y-106166259D01*
X127816005Y-106330991D01*
X127809500Y-106402583D01*
X127809500Y-107597426D01*
X127816004Y-107669008D01*
X127816006Y-107669015D01*
X127863122Y-107820214D01*
X127867337Y-107833740D01*
X127894799Y-107879167D01*
X127956601Y-107981400D01*
X128078599Y-108103398D01*
X128078601Y-108103399D01*
X128078603Y-108103401D01*
X128226260Y-108192663D01*
X128390988Y-108243994D01*
X128462581Y-108250500D01*
X129657418Y-108250499D01*
X129657426Y-108250499D01*
X129729008Y-108243995D01*
X129729015Y-108243993D01*
X129747972Y-108238086D01*
X129862374Y-108202437D01*
X129932234Y-108201285D01*
X129991627Y-108238086D01*
X130021695Y-108301155D01*
X130023263Y-108321439D01*
X130018019Y-109376117D01*
X129998002Y-109443057D01*
X129944971Y-109488549D01*
X129894021Y-109499500D01*
X113003751Y-109499500D01*
X112996264Y-109499274D01*
X112706205Y-109481728D01*
X112691340Y-109479923D01*
X112409201Y-109428219D01*
X112394663Y-109424635D01*
X112120832Y-109339306D01*
X112106831Y-109333997D01*
X111845263Y-109216275D01*
X111832004Y-109209316D01*
X111586540Y-109060928D01*
X111574217Y-109052422D01*
X111348426Y-108875526D01*
X111337218Y-108865596D01*
X111134403Y-108662781D01*
X111124473Y-108651573D01*
X111059361Y-108568464D01*
X110947573Y-108425776D01*
X110939075Y-108413465D01*
X110790680Y-108167989D01*
X110783727Y-108154743D01*
X110666000Y-107893163D01*
X110660693Y-107879167D01*
X110646537Y-107833740D01*
X110575363Y-107605335D01*
X110571780Y-107590798D01*
X110557752Y-107514250D01*
X110520075Y-107308657D01*
X110518271Y-107293794D01*
X110507836Y-107121288D01*
X110500726Y-107003736D01*
X110500500Y-106996249D01*
X110500500Y-106878711D01*
X111149500Y-106878711D01*
X111149500Y-107121288D01*
X111181161Y-107361785D01*
X111243947Y-107596104D01*
X111274145Y-107669008D01*
X111336776Y-107820212D01*
X111458064Y-108030289D01*
X111458066Y-108030292D01*
X111458067Y-108030293D01*
X111605733Y-108222736D01*
X111605739Y-108222743D01*
X111777256Y-108394260D01*
X111777263Y-108394266D01*
X111818336Y-108425782D01*
X111969711Y-108541936D01*
X112179788Y-108663224D01*
X112403900Y-108756054D01*
X112638211Y-108818838D01*
X112818586Y-108842584D01*
X112878711Y-108850500D01*
X112878712Y-108850500D01*
X113121289Y-108850500D01*
X113169388Y-108844167D01*
X113361789Y-108818838D01*
X113596100Y-108756054D01*
X113820212Y-108663224D01*
X114030289Y-108541936D01*
X114222738Y-108394265D01*
X114394265Y-108222738D01*
X114541936Y-108030289D01*
X114663224Y-107820212D01*
X114756054Y-107596100D01*
X114818838Y-107361789D01*
X114850500Y-107121288D01*
X114850500Y-106878712D01*
X114818838Y-106638211D01*
X114756054Y-106403900D01*
X114755508Y-106402583D01*
X114663226Y-106179794D01*
X114663224Y-106179788D01*
X114541936Y-105969711D01*
X114394265Y-105777262D01*
X114394260Y-105777256D01*
X114222743Y-105605739D01*
X114222736Y-105605733D01*
X114030293Y-105458067D01*
X114030292Y-105458066D01*
X114030289Y-105458064D01*
X113820212Y-105336776D01*
X113820205Y-105336773D01*
X113596104Y-105243947D01*
X113361785Y-105181161D01*
X113121289Y-105149500D01*
X113121288Y-105149500D01*
X112878712Y-105149500D01*
X112878711Y-105149500D01*
X112638214Y-105181161D01*
X112403895Y-105243947D01*
X112179794Y-105336773D01*
X112179785Y-105336777D01*
X111969706Y-105458067D01*
X111777263Y-105605733D01*
X111777256Y-105605739D01*
X111605739Y-105777256D01*
X111605733Y-105777263D01*
X111458067Y-105969706D01*
X111336777Y-106179785D01*
X111336773Y-106179794D01*
X111243947Y-106403895D01*
X111181161Y-106638214D01*
X111149500Y-106878711D01*
X110500500Y-106878711D01*
X110500500Y-73536500D01*
X110520185Y-73469461D01*
X110572989Y-73423706D01*
X110624500Y-73412500D01*
X112500500Y-73412500D01*
X112567539Y-73432185D01*
X112613294Y-73484989D01*
X112624500Y-73536500D01*
X112624500Y-73568102D01*
X112625681Y-73577934D01*
X112635122Y-73656561D01*
X112635122Y-73656563D01*
X112635123Y-73656564D01*
X112639133Y-73666733D01*
X112690639Y-73797343D01*
X112782077Y-73917922D01*
X112902656Y-74009360D01*
X112902657Y-74009360D01*
X112902658Y-74009361D01*
X113043436Y-74064877D01*
X113131898Y-74075500D01*
X113131903Y-74075500D01*
X113768097Y-74075500D01*
X113768102Y-74075500D01*
X113856564Y-74064877D01*
X113997342Y-74009361D01*
X113997342Y-74009360D01*
X114005010Y-74006337D01*
X114074596Y-74000055D01*
X114136533Y-74032391D01*
X114171154Y-74093080D01*
X114174500Y-74121691D01*
X114174500Y-74462727D01*
X114189313Y-74575235D01*
X114189313Y-74575236D01*
X114243677Y-74706483D01*
X114247302Y-74715233D01*
X114339549Y-74835451D01*
X114459767Y-74927698D01*
X114599764Y-74985687D01*
X114712280Y-75000500D01*
X115027761Y-75000500D01*
X115089761Y-75017113D01*
X115177614Y-75067835D01*
X115197840Y-75082406D01*
X115280611Y-75155734D01*
X115280613Y-75155735D01*
X115410669Y-75223994D01*
X115431239Y-75234790D01*
X115596408Y-75275500D01*
X115758264Y-75275500D01*
X115825303Y-75295185D01*
X115871058Y-75347989D01*
X115881002Y-75417147D01*
X115853117Y-75478206D01*
X115853128Y-75478214D01*
X115853091Y-75478263D01*
X115851977Y-75480703D01*
X115848344Y-75484604D01*
X115765873Y-75594771D01*
X115718087Y-75722889D01*
X115712000Y-75779499D01*
X115712000Y-76120480D01*
X115712001Y-76120490D01*
X115718087Y-76177114D01*
X115765872Y-76305226D01*
X115847813Y-76414687D01*
X115957274Y-76496628D01*
X116085386Y-76544412D01*
X116142015Y-76550500D01*
X117307984Y-76550499D01*
X117364614Y-76544412D01*
X117492726Y-76496628D01*
X117602187Y-76414687D01*
X117639124Y-76365343D01*
X117676398Y-76332264D01*
X117679463Y-76330495D01*
X118125712Y-75884244D01*
X118187032Y-75850762D01*
X118256719Y-75855745D01*
X118360386Y-75894412D01*
X118417015Y-75900500D01*
X119578150Y-75900499D01*
X119645189Y-75920184D01*
X119665831Y-75936818D01*
X120319381Y-76590368D01*
X120352866Y-76651691D01*
X120355700Y-76678049D01*
X120355700Y-80677206D01*
X120336015Y-80744245D01*
X120283211Y-80790000D01*
X120231700Y-80801206D01*
X118045738Y-80801206D01*
X117978699Y-80781521D01*
X117958057Y-80764887D01*
X117277576Y-80084406D01*
X117277574Y-80084403D01*
X117172667Y-79979496D01*
X117172662Y-79979492D01*
X117052841Y-79910313D01*
X117024593Y-79902743D01*
X117024592Y-79902743D01*
X116919184Y-79874499D01*
X116780818Y-79874499D01*
X116773222Y-79874499D01*
X116773206Y-79874500D01*
X116523933Y-79874500D01*
X116456894Y-79854815D01*
X116413448Y-79806795D01*
X116404300Y-79788841D01*
X116355051Y-79692184D01*
X116292676Y-79606331D01*
X116230109Y-79520213D01*
X116079786Y-79369890D01*
X115907820Y-79244951D01*
X115718414Y-79148444D01*
X115718413Y-79148443D01*
X115718412Y-79148443D01*
X115516243Y-79082754D01*
X115516241Y-79082753D01*
X115516240Y-79082753D01*
X115354957Y-79057208D01*
X115306287Y-79049500D01*
X114493713Y-79049500D01*
X114445042Y-79057208D01*
X114283760Y-79082753D01*
X114081585Y-79148444D01*
X113892179Y-79244951D01*
X113720213Y-79369890D01*
X113569890Y-79520213D01*
X113444951Y-79692179D01*
X113348444Y-79881585D01*
X113282753Y-80083760D01*
X113256002Y-80252663D01*
X113249500Y-80293713D01*
X113249500Y-80506287D01*
X113282754Y-80716243D01*
X113310360Y-80801206D01*
X113348444Y-80918414D01*
X113444951Y-81107820D01*
X113569890Y-81279786D01*
X113720213Y-81430109D01*
X113892179Y-81555048D01*
X113892181Y-81555049D01*
X113892184Y-81555051D01*
X114081588Y-81651557D01*
X114283757Y-81717246D01*
X114493713Y-81750500D01*
X114493714Y-81750500D01*
X115306286Y-81750500D01*
X115306287Y-81750500D01*
X115516243Y-81717246D01*
X115718412Y-81651557D01*
X115907816Y-81555051D01*
X115947606Y-81526142D01*
X116079786Y-81430109D01*
X116079788Y-81430106D01*
X116079792Y-81430104D01*
X116230104Y-81279792D01*
X116230106Y-81279788D01*
X116230109Y-81279786D01*
X116328739Y-81144031D01*
X116355051Y-81107816D01*
X116413448Y-80993205D01*
X116461423Y-80942409D01*
X116523933Y-80925500D01*
X116580970Y-80925500D01*
X116648009Y-80945185D01*
X116668651Y-80961819D01*
X117351861Y-81645029D01*
X117351871Y-81645040D01*
X117356201Y-81649370D01*
X117356202Y-81649371D01*
X117454042Y-81747211D01*
X117454044Y-81747212D01*
X117454045Y-81747213D01*
X117471896Y-81757519D01*
X117573871Y-81816394D01*
X117707524Y-81852206D01*
X117707526Y-81852206D01*
X120869113Y-81852206D01*
X120936152Y-81871891D01*
X120981907Y-81924695D01*
X120991851Y-81993853D01*
X120962826Y-82057409D01*
X120956794Y-82063887D01*
X119682502Y-83338181D01*
X119621179Y-83371666D01*
X119594821Y-83374500D01*
X116674499Y-83374500D01*
X116607460Y-83354815D01*
X116561705Y-83302011D01*
X116550499Y-83250500D01*
X116550499Y-83110636D01*
X116535046Y-82993246D01*
X116535044Y-82993239D01*
X116535044Y-82993238D01*
X116474536Y-82847159D01*
X116378282Y-82721718D01*
X116252841Y-82625464D01*
X116106762Y-82564956D01*
X116106760Y-82564955D01*
X115989370Y-82549501D01*
X115989367Y-82549500D01*
X115989361Y-82549500D01*
X115989354Y-82549500D01*
X113810636Y-82549500D01*
X113693246Y-82564953D01*
X113693237Y-82564956D01*
X113547160Y-82625463D01*
X113421718Y-82721718D01*
X113325463Y-82847160D01*
X113264956Y-82993237D01*
X113264955Y-82993239D01*
X113259247Y-83036599D01*
X113249501Y-83110636D01*
X113249500Y-83110645D01*
X113249500Y-84689363D01*
X113264953Y-84806753D01*
X113264956Y-84806762D01*
X113321489Y-84943246D01*
X113325464Y-84952841D01*
X113421718Y-85078282D01*
X113547159Y-85174536D01*
X113693238Y-85235044D01*
X113810639Y-85250500D01*
X115989360Y-85250499D01*
X115989363Y-85250499D01*
X116106753Y-85235046D01*
X116106757Y-85235044D01*
X116106762Y-85235044D01*
X116252841Y-85174536D01*
X116378282Y-85078282D01*
X116474536Y-84952841D01*
X116535044Y-84806762D01*
X116550500Y-84689361D01*
X116550500Y-84549500D01*
X116570185Y-84482461D01*
X116622989Y-84436706D01*
X116674500Y-84425500D01*
X119625917Y-84425500D01*
X119692956Y-84445185D01*
X119738711Y-84497989D01*
X119748655Y-84567147D01*
X119740478Y-84596949D01*
X119739777Y-84598643D01*
X119739312Y-84599765D01*
X119724500Y-84712272D01*
X119724500Y-85005968D01*
X119704815Y-85073007D01*
X119688181Y-85093649D01*
X119304496Y-85477333D01*
X119304492Y-85477338D01*
X119235311Y-85597163D01*
X119235312Y-85597163D01*
X119235312Y-85597165D01*
X119199499Y-85730818D01*
X119199499Y-85879172D01*
X119199500Y-85879185D01*
X119199500Y-89160703D01*
X119199499Y-89160721D01*
X119199499Y-89168316D01*
X119199499Y-89306682D01*
X119225911Y-89405250D01*
X119225910Y-89405250D01*
X119235310Y-89440330D01*
X119235313Y-89440337D01*
X119304492Y-89560160D01*
X119304496Y-89560165D01*
X119409400Y-89665069D01*
X119409406Y-89665074D01*
X120225155Y-90480823D01*
X120225176Y-90480846D01*
X120263180Y-90518849D01*
X120296666Y-90580171D01*
X120299500Y-90606530D01*
X120299500Y-90722869D01*
X120299501Y-90722876D01*
X120305908Y-90782483D01*
X120356202Y-90917328D01*
X120356206Y-90917335D01*
X120442452Y-91032544D01*
X120442455Y-91032547D01*
X120557664Y-91118793D01*
X120557671Y-91118797D01*
X120586612Y-91129591D01*
X120692517Y-91169091D01*
X120752127Y-91175500D01*
X121025906Y-91175499D01*
X121092944Y-91195183D01*
X121138699Y-91247987D01*
X121148643Y-91317146D01*
X121141081Y-91345438D01*
X121123704Y-91389004D01*
X121123701Y-91389011D01*
X121108850Y-91457282D01*
X121108849Y-91457292D01*
X121100850Y-91542201D01*
X121100850Y-91542204D01*
X121123142Y-91657079D01*
X121123144Y-91657087D01*
X121147562Y-91722551D01*
X121196055Y-91811357D01*
X121217889Y-91840524D01*
X121234797Y-91871484D01*
X121237176Y-91877863D01*
X121244999Y-91921208D01*
X121244999Y-92953790D01*
X121237181Y-92997123D01*
X121219454Y-93044652D01*
X121213902Y-93056535D01*
X121214171Y-93056667D01*
X121212471Y-93060140D01*
X121189001Y-93116801D01*
X121188999Y-93116806D01*
X121168193Y-93186451D01*
X121166236Y-93273295D01*
X121145045Y-93339873D01*
X121091223Y-93384427D01*
X121042267Y-93394500D01*
X118123991Y-93394500D01*
X118048429Y-93402625D01*
X117996917Y-93413831D01*
X117939536Y-93431502D01*
X117939534Y-93431503D01*
X117882674Y-93466260D01*
X117839686Y-93492537D01*
X117839683Y-93492539D01*
X117839678Y-93492543D01*
X117786895Y-93538279D01*
X117786879Y-93538295D01*
X117729591Y-93601472D01*
X117729585Y-93601481D01*
X117678586Y-93706801D01*
X117678585Y-93706804D01*
X117658901Y-93773839D01*
X117658899Y-93773846D01*
X117646679Y-93858844D01*
X117617654Y-93922400D01*
X117558876Y-93960174D01*
X117489006Y-93960174D01*
X117436260Y-93928878D01*
X116917518Y-93410136D01*
X116917513Y-93410132D01*
X116710524Y-93259747D01*
X116710523Y-93259746D01*
X116581952Y-93194235D01*
X116550566Y-93171432D01*
X116521860Y-93142726D01*
X116521851Y-93142718D01*
X116313803Y-92983075D01*
X116086700Y-92851958D01*
X116086690Y-92851953D01*
X115844428Y-92751605D01*
X115844421Y-92751603D01*
X115844422Y-92751603D01*
X115844419Y-92751602D01*
X115591116Y-92683730D01*
X115591113Y-92683729D01*
X115589286Y-92683240D01*
X115529626Y-92646875D01*
X115499097Y-92584028D01*
X115507392Y-92514652D01*
X115551877Y-92460774D01*
X115583055Y-92445537D01*
X115718412Y-92401557D01*
X115907816Y-92305051D01*
X115973499Y-92257330D01*
X116079786Y-92180109D01*
X116079788Y-92180106D01*
X116079792Y-92180104D01*
X116230104Y-92029792D01*
X116230106Y-92029788D01*
X116230109Y-92029786D01*
X116355048Y-91857820D01*
X116355047Y-91857820D01*
X116355051Y-91857816D01*
X116451557Y-91668412D01*
X116517246Y-91466243D01*
X116550500Y-91256287D01*
X116550500Y-91043713D01*
X116517246Y-90833757D01*
X116451557Y-90631588D01*
X116355051Y-90442184D01*
X116355049Y-90442181D01*
X116355048Y-90442179D01*
X116230109Y-90270213D01*
X116079786Y-90119890D01*
X115907820Y-89994951D01*
X115718414Y-89898444D01*
X115718413Y-89898443D01*
X115718412Y-89898443D01*
X115516243Y-89832754D01*
X115516241Y-89832753D01*
X115516240Y-89832753D01*
X115354957Y-89807208D01*
X115306287Y-89799500D01*
X114493713Y-89799500D01*
X114445042Y-89807208D01*
X114283760Y-89832753D01*
X114283757Y-89832754D01*
X114110614Y-89889012D01*
X114081585Y-89898444D01*
X113892179Y-89994951D01*
X113720213Y-90119890D01*
X113569890Y-90270213D01*
X113444951Y-90442179D01*
X113348444Y-90631585D01*
X113282753Y-90833760D01*
X113249500Y-91043713D01*
X113249500Y-91256286D01*
X113281334Y-91457282D01*
X113282754Y-91466243D01*
X113344763Y-91657087D01*
X113348444Y-91668414D01*
X113444951Y-91857820D01*
X113569890Y-92029786D01*
X113720213Y-92180109D01*
X113892179Y-92305048D01*
X113892181Y-92305049D01*
X113892184Y-92305051D01*
X114081588Y-92401557D01*
X114216939Y-92445535D01*
X114274612Y-92484971D01*
X114301811Y-92549330D01*
X114289896Y-92618176D01*
X114242652Y-92669652D01*
X114210713Y-92683240D01*
X114208884Y-92683729D01*
X114208884Y-92683730D01*
X113955581Y-92751602D01*
X113955579Y-92751602D01*
X113955578Y-92751603D01*
X113955571Y-92751605D01*
X113713309Y-92851953D01*
X113713299Y-92851958D01*
X113486196Y-92983075D01*
X113278148Y-93142718D01*
X113092718Y-93328148D01*
X112933075Y-93536196D01*
X112801958Y-93763299D01*
X112801953Y-93763309D01*
X112701605Y-94005571D01*
X112701602Y-94005581D01*
X112633730Y-94258885D01*
X112599500Y-94518872D01*
X112599500Y-94781127D01*
X112624237Y-94969012D01*
X112633730Y-95041116D01*
X112698113Y-95281397D01*
X112701602Y-95294418D01*
X112701605Y-95294428D01*
X112801953Y-95536690D01*
X112801958Y-95536700D01*
X112933075Y-95763803D01*
X113092718Y-95971851D01*
X113092726Y-95971860D01*
X113278140Y-96157274D01*
X113278148Y-96157281D01*
X113486196Y-96316924D01*
X113713299Y-96448041D01*
X113713309Y-96448046D01*
X113955571Y-96548394D01*
X113955581Y-96548398D01*
X113982932Y-96555726D01*
X114042589Y-96592088D01*
X114073120Y-96654934D01*
X114064826Y-96724310D01*
X114020342Y-96778189D01*
X113953791Y-96799465D01*
X113950838Y-96799500D01*
X113810637Y-96799500D01*
X113693246Y-96814953D01*
X113693237Y-96814956D01*
X113547160Y-96875463D01*
X113421718Y-96971718D01*
X113325463Y-97097160D01*
X113264956Y-97243237D01*
X113264955Y-97243239D01*
X113249501Y-97360629D01*
X113249500Y-97360645D01*
X113249500Y-98939363D01*
X113264953Y-99056753D01*
X113264956Y-99056762D01*
X113325464Y-99202841D01*
X113421718Y-99328282D01*
X113547159Y-99424536D01*
X113693238Y-99485044D01*
X113810639Y-99500500D01*
X115989360Y-99500499D01*
X115989363Y-99500499D01*
X116106753Y-99485046D01*
X116106756Y-99485044D01*
X116106762Y-99485044D01*
X116146927Y-99468406D01*
X116216395Y-99460938D01*
X116278875Y-99492213D01*
X116312310Y-99544649D01*
X116318590Y-99563976D01*
X116318589Y-99563976D01*
X116434750Y-99791950D01*
X116585132Y-99998935D01*
X116585136Y-99998940D01*
X118527015Y-101940819D01*
X118560500Y-102002142D01*
X118555516Y-102071834D01*
X118513644Y-102127767D01*
X118448180Y-102152184D01*
X118439334Y-102152500D01*
X116373991Y-102152500D01*
X116298429Y-102160625D01*
X116246917Y-102171831D01*
X116189536Y-102189502D01*
X116189534Y-102189503D01*
X116106793Y-102240080D01*
X116089686Y-102250537D01*
X116089683Y-102250539D01*
X116089678Y-102250543D01*
X116036895Y-102296279D01*
X116036879Y-102296295D01*
X115979591Y-102359472D01*
X115979585Y-102359481D01*
X115928586Y-102464801D01*
X115928585Y-102464804D01*
X115908901Y-102531839D01*
X115908899Y-102531845D01*
X115894500Y-102632000D01*
X115894500Y-108384008D01*
X115902625Y-108459570D01*
X115913831Y-108511082D01*
X115931502Y-108568463D01*
X115931503Y-108568465D01*
X115960675Y-108616189D01*
X115992537Y-108668314D01*
X115992542Y-108668320D01*
X115992543Y-108668321D01*
X116038279Y-108721104D01*
X116038285Y-108721110D01*
X116038292Y-108721118D01*
X116101475Y-108778411D01*
X116206802Y-108829414D01*
X116273841Y-108849099D01*
X116273842Y-108849099D01*
X116273845Y-108849100D01*
X116303709Y-108853393D01*
X116374000Y-108863500D01*
X116374001Y-108863500D01*
X120275991Y-108863500D01*
X120276000Y-108863500D01*
X120351570Y-108855375D01*
X120403081Y-108844169D01*
X120460464Y-108826497D01*
X120560314Y-108765463D01*
X120613118Y-108719708D01*
X120670411Y-108656525D01*
X120721414Y-108551198D01*
X120741099Y-108484159D01*
X120755500Y-108384000D01*
X120755500Y-107160754D01*
X120775185Y-107093715D01*
X120827989Y-107047960D01*
X120897147Y-107038016D01*
X120933540Y-107049149D01*
X120956802Y-107060414D01*
X121023841Y-107080099D01*
X121023842Y-107080099D01*
X121023845Y-107080100D01*
X121053709Y-107084393D01*
X121124000Y-107094500D01*
X121124001Y-107094500D01*
X125875991Y-107094500D01*
X125876000Y-107094500D01*
X125951570Y-107086375D01*
X126003081Y-107075169D01*
X126060464Y-107057497D01*
X126160314Y-106996463D01*
X126213118Y-106950708D01*
X126270411Y-106887525D01*
X126321414Y-106782198D01*
X126341099Y-106715159D01*
X126355500Y-106615000D01*
X126355500Y-99092044D01*
X126375185Y-99025005D01*
X126427989Y-98979250D01*
X126463312Y-98969105D01*
X126501762Y-98964044D01*
X126647841Y-98903536D01*
X126773282Y-98807282D01*
X126869536Y-98681841D01*
X126930044Y-98535762D01*
X126945500Y-98418361D01*
X126945499Y-97039640D01*
X126945499Y-97039636D01*
X126930046Y-96922246D01*
X126930044Y-96922241D01*
X126930044Y-96922238D01*
X126869536Y-96776159D01*
X126773282Y-96650718D01*
X126647841Y-96554464D01*
X126633196Y-96548398D01*
X126605054Y-96536741D01*
X126501762Y-96493956D01*
X126482940Y-96491478D01*
X126463313Y-96488894D01*
X126399417Y-96460627D01*
X126360947Y-96402302D01*
X126355500Y-96365955D01*
X126355500Y-91524008D01*
X126355499Y-91523991D01*
X126347375Y-91448430D01*
X126336169Y-91396919D01*
X126318497Y-91339536D01*
X126257463Y-91239686D01*
X126218901Y-91195183D01*
X126211720Y-91186895D01*
X126211714Y-91186889D01*
X126211708Y-91186882D01*
X126148525Y-91129589D01*
X126148521Y-91129587D01*
X126148518Y-91129585D01*
X126043198Y-91078586D01*
X126043195Y-91078585D01*
X125976160Y-91058901D01*
X125976154Y-91058899D01*
X125886105Y-91045952D01*
X125876000Y-91044500D01*
X125875999Y-91044500D01*
X125826438Y-91044500D01*
X125759399Y-91024815D01*
X125713644Y-90972011D01*
X125703700Y-90902853D01*
X125711877Y-90873047D01*
X125728150Y-90833760D01*
X125760044Y-90756762D01*
X125775500Y-90639361D01*
X125775499Y-90060640D01*
X125775499Y-90060639D01*
X125775499Y-90060636D01*
X125760046Y-89943246D01*
X125760044Y-89943241D01*
X125760044Y-89943238D01*
X125699536Y-89797159D01*
X125606171Y-89675484D01*
X125580979Y-89610317D01*
X125595017Y-89541873D01*
X125606167Y-89524521D01*
X125699536Y-89402841D01*
X125760044Y-89256762D01*
X125775500Y-89139361D01*
X125775499Y-88560640D01*
X125775499Y-88560638D01*
X125775499Y-88560636D01*
X125760046Y-88443246D01*
X125760044Y-88443239D01*
X125760044Y-88443238D01*
X125699536Y-88297159D01*
X125603282Y-88171718D01*
X125477841Y-88075464D01*
X125331762Y-88014956D01*
X125331760Y-88014955D01*
X125214370Y-87999501D01*
X125214367Y-87999500D01*
X125214361Y-87999500D01*
X125214354Y-87999500D01*
X124185636Y-87999500D01*
X124068246Y-88014953D01*
X124068237Y-88014956D01*
X123922160Y-88075463D01*
X123796718Y-88171718D01*
X123700463Y-88297160D01*
X123639956Y-88443237D01*
X123639955Y-88443239D01*
X123624500Y-88560638D01*
X123624500Y-89139363D01*
X123639953Y-89256753D01*
X123639957Y-89256764D01*
X123645096Y-89269172D01*
X123652563Y-89338641D01*
X123621287Y-89401120D01*
X123561198Y-89436771D01*
X123491372Y-89434276D01*
X123433981Y-89394426D01*
X123431267Y-89390933D01*
X123357546Y-89292454D01*
X123326445Y-89269172D01*
X123242335Y-89206206D01*
X123242328Y-89206202D01*
X123107486Y-89155910D01*
X123107485Y-89155909D01*
X123107483Y-89155909D01*
X123047873Y-89149500D01*
X123047864Y-89149500D01*
X122699689Y-89149500D01*
X122632650Y-89129815D01*
X122595251Y-89089125D01*
X122593980Y-89089940D01*
X122553530Y-89026790D01*
X122499241Y-88961004D01*
X122499240Y-88961003D01*
X122402342Y-88895383D01*
X122397869Y-88892866D01*
X122398128Y-88892404D01*
X122374541Y-88880873D01*
X122322958Y-88833746D01*
X122305000Y-88769472D01*
X122305000Y-86274008D01*
X122304999Y-86273991D01*
X122296875Y-86198430D01*
X122285669Y-86146919D01*
X122267997Y-86089536D01*
X122267996Y-86089534D01*
X122221930Y-86014171D01*
X122203762Y-85946705D01*
X122224952Y-85880126D01*
X122278774Y-85835573D01*
X122327730Y-85825500D01*
X122337713Y-85825500D01*
X122337720Y-85825500D01*
X122450236Y-85810687D01*
X122590233Y-85752698D01*
X122710451Y-85660451D01*
X122802698Y-85540233D01*
X122860687Y-85400236D01*
X122875500Y-85287720D01*
X122875500Y-85060638D01*
X123624500Y-85060638D01*
X123624500Y-85639363D01*
X123639953Y-85756753D01*
X123639956Y-85756762D01*
X123686523Y-85869186D01*
X123700464Y-85902841D01*
X123796718Y-86028282D01*
X123922159Y-86124536D01*
X124068238Y-86185044D01*
X124185639Y-86200500D01*
X125214360Y-86200499D01*
X125214363Y-86200499D01*
X125331753Y-86185046D01*
X125331757Y-86185044D01*
X125331762Y-86185044D01*
X125477841Y-86124536D01*
X125603282Y-86028282D01*
X125699536Y-85902841D01*
X125760044Y-85756762D01*
X125775500Y-85639361D01*
X125775499Y-85060640D01*
X125775499Y-85060638D01*
X125775499Y-85060636D01*
X125760046Y-84943246D01*
X125760044Y-84943239D01*
X125760044Y-84943238D01*
X125699536Y-84797159D01*
X125603282Y-84671718D01*
X125477841Y-84575464D01*
X125474217Y-84573963D01*
X125331762Y-84514956D01*
X125331760Y-84514955D01*
X125214370Y-84499501D01*
X125214367Y-84499500D01*
X125214361Y-84499500D01*
X125214354Y-84499500D01*
X124185636Y-84499500D01*
X124068246Y-84514953D01*
X124068237Y-84514956D01*
X123922160Y-84575463D01*
X123796718Y-84671718D01*
X123700463Y-84797160D01*
X123639956Y-84943237D01*
X123639955Y-84943239D01*
X123624500Y-85060638D01*
X122875500Y-85060638D01*
X122875500Y-84712280D01*
X122860687Y-84599764D01*
X122802698Y-84459767D01*
X122710451Y-84339549D01*
X122590233Y-84247302D01*
X122590229Y-84247300D01*
X122526801Y-84221027D01*
X122450236Y-84189313D01*
X122436171Y-84187461D01*
X122337727Y-84174500D01*
X122337720Y-84174500D01*
X121812280Y-84174500D01*
X121812272Y-84174500D01*
X121699764Y-84189313D01*
X121699763Y-84189313D01*
X121559770Y-84247300D01*
X121559767Y-84247301D01*
X121559767Y-84247302D01*
X121439549Y-84339549D01*
X121439548Y-84339550D01*
X121439547Y-84339551D01*
X121398375Y-84393207D01*
X121341947Y-84434410D01*
X121272201Y-84438564D01*
X121211281Y-84404351D01*
X121201625Y-84393207D01*
X121180702Y-84365941D01*
X121160451Y-84339549D01*
X121040233Y-84247302D01*
X121040229Y-84247300D01*
X120976801Y-84221027D01*
X120900236Y-84189313D01*
X120886171Y-84187461D01*
X120787727Y-84174500D01*
X120787720Y-84174500D01*
X120631883Y-84174500D01*
X120564844Y-84154815D01*
X120519089Y-84102011D01*
X120509145Y-84032853D01*
X120538170Y-83969297D01*
X120544202Y-83962819D01*
X121513784Y-82993237D01*
X122749505Y-81757517D01*
X122818689Y-81637687D01*
X122854501Y-81504035D01*
X122854501Y-81365668D01*
X122854501Y-81358073D01*
X122854500Y-81358055D01*
X122854500Y-77158186D01*
X122854501Y-77158173D01*
X122854501Y-77009819D01*
X122854501Y-77009817D01*
X122818689Y-76876165D01*
X122749505Y-76756335D01*
X120502209Y-74509040D01*
X120468725Y-74447718D01*
X120473709Y-74378026D01*
X120491512Y-74345877D01*
X120524536Y-74302841D01*
X120585044Y-74156762D01*
X120605682Y-74000000D01*
X120585044Y-73843238D01*
X120524536Y-73697159D01*
X120428282Y-73571718D01*
X120302841Y-73475464D01*
X120295207Y-73472302D01*
X120156762Y-73414956D01*
X120156760Y-73414955D01*
X120000001Y-73394318D01*
X119999999Y-73394318D01*
X119843235Y-73414956D01*
X119803730Y-73431319D01*
X119734261Y-73438786D01*
X119712947Y-73432939D01*
X119639618Y-73405589D01*
X119639610Y-73405587D01*
X119583001Y-73399500D01*
X119582985Y-73399500D01*
X119269960Y-73399500D01*
X119202921Y-73379815D01*
X119157166Y-73327011D01*
X119147222Y-73257853D01*
X119176247Y-73194297D01*
X119182279Y-73187819D01*
X119530411Y-72839687D01*
X120130495Y-72239604D01*
X120193095Y-72131176D01*
X120225500Y-72010241D01*
X120225500Y-71885039D01*
X120225500Y-70337399D01*
X120193095Y-70216464D01*
X120130495Y-70108036D01*
X120041964Y-70019505D01*
X118866964Y-68844505D01*
X118758536Y-68781905D01*
X118758537Y-68781905D01*
X118718224Y-68771103D01*
X118637601Y-68749500D01*
X118637599Y-68749500D01*
X118565666Y-68749500D01*
X118498627Y-68729815D01*
X118492042Y-68725277D01*
X118487882Y-68722207D01*
X118487880Y-68722206D01*
X118401673Y-68692041D01*
X118344897Y-68651319D01*
X118319150Y-68586367D01*
X118332606Y-68517805D01*
X118380994Y-68467402D01*
X118401673Y-68457959D01*
X118426410Y-68449302D01*
X118487882Y-68427793D01*
X118597150Y-68347150D01*
X118677793Y-68237882D01*
X118714402Y-68133260D01*
X118722646Y-68109701D01*
X118722646Y-68109699D01*
X118725500Y-68079269D01*
X118725500Y-67924500D01*
X118745185Y-67857461D01*
X118797989Y-67811706D01*
X118849500Y-67800500D01*
X119351985Y-67800500D01*
X119419024Y-67820185D01*
G37*
%TD.AperFunction*%
%TA.AperFunction,Conductor*%
G36*
X129310000Y-104144314D02*
G01*
X129305606Y-104139920D01*
X129214394Y-104087259D01*
X129112661Y-104060000D01*
X129007339Y-104060000D01*
X128905606Y-104087259D01*
X128814394Y-104139920D01*
X128810000Y-104144314D01*
X128810000Y-102235686D01*
X128814394Y-102240080D01*
X128905606Y-102292741D01*
X129007339Y-102320000D01*
X129112661Y-102320000D01*
X129214394Y-102292741D01*
X129305606Y-102240080D01*
X129310000Y-102235686D01*
X129310000Y-104144314D01*
G37*
%TD.AperFunction*%
%TD*%
%TA.AperFunction,Conductor*%
%TO.N,/SW*%
G36*
X121892539Y-86169685D02*
G01*
X121938294Y-86222489D01*
X121949500Y-86274000D01*
X121949500Y-88883260D01*
X121959426Y-88951391D01*
X122010803Y-89056485D01*
X122093514Y-89139196D01*
X122093515Y-89139196D01*
X122093517Y-89139198D01*
X122194397Y-89188515D01*
X122198609Y-89190574D01*
X122207807Y-89193416D01*
X122206762Y-89196796D01*
X122254174Y-89218535D01*
X122291860Y-89277370D01*
X122291756Y-89347239D01*
X122272098Y-89386436D01*
X122256206Y-89407664D01*
X122256202Y-89407671D01*
X122205908Y-89542517D01*
X122199501Y-89602116D01*
X122199501Y-89602123D01*
X122199500Y-89602135D01*
X122199500Y-89879564D01*
X122191442Y-89923534D01*
X122164861Y-89993622D01*
X122164859Y-89993630D01*
X122144355Y-90162500D01*
X122164859Y-90331369D01*
X122164861Y-90331377D01*
X122191442Y-90401465D01*
X122199500Y-90445435D01*
X122199501Y-90701000D01*
X122179817Y-90768039D01*
X122127013Y-90813794D01*
X122075501Y-90825000D01*
X121724500Y-90825000D01*
X121657461Y-90805315D01*
X121611706Y-90752511D01*
X121600500Y-90701000D01*
X121600499Y-89602129D01*
X121600498Y-89602123D01*
X121600497Y-89602116D01*
X121594091Y-89542517D01*
X121543796Y-89407669D01*
X121543795Y-89407668D01*
X121543793Y-89407664D01*
X121457547Y-89292455D01*
X121457544Y-89292452D01*
X121342335Y-89206206D01*
X121342328Y-89206202D01*
X121207486Y-89155910D01*
X121207485Y-89155909D01*
X121207483Y-89155909D01*
X121147873Y-89149500D01*
X121147863Y-89149500D01*
X120752129Y-89149500D01*
X120752123Y-89149501D01*
X120692516Y-89155908D01*
X120549359Y-89209303D01*
X120548535Y-89207095D01*
X120492719Y-89219231D01*
X120427258Y-89194806D01*
X120413899Y-89183229D01*
X120286819Y-89056149D01*
X120253334Y-88994826D01*
X120250500Y-88968468D01*
X120250500Y-86274000D01*
X120270185Y-86206961D01*
X120322989Y-86161206D01*
X120374500Y-86150000D01*
X121825500Y-86150000D01*
X121892539Y-86169685D01*
G37*
%TD.AperFunction*%
%TD*%
%TA.AperFunction,Conductor*%
%TO.N,GND*%
G36*
X122593518Y-93769685D02*
G01*
X122639273Y-93822489D01*
X122649936Y-93885580D01*
X122649500Y-93890236D01*
X122649500Y-93890240D01*
X122649500Y-94209768D01*
X122652313Y-94239769D01*
X122652314Y-94239774D01*
X122685301Y-94334045D01*
X122688862Y-94403824D01*
X122685301Y-94415955D01*
X122652314Y-94510225D01*
X122652313Y-94510230D01*
X122649500Y-94540231D01*
X122649500Y-94859768D01*
X122652313Y-94889769D01*
X122652314Y-94889774D01*
X122685301Y-94984045D01*
X122688862Y-95053824D01*
X122685301Y-95065955D01*
X122652314Y-95160225D01*
X122652313Y-95160230D01*
X122649500Y-95190231D01*
X122649500Y-95509768D01*
X122652313Y-95539769D01*
X122652315Y-95539781D01*
X122696544Y-95666177D01*
X122696545Y-95666179D01*
X122725770Y-95705777D01*
X122749741Y-95771403D01*
X122750000Y-95779410D01*
X122750000Y-95880000D01*
X122730315Y-95947039D01*
X122677511Y-95992794D01*
X122626000Y-96004000D01*
X119413284Y-96004000D01*
X119346245Y-95984315D01*
X119302799Y-95936295D01*
X119215252Y-95764475D01*
X119174905Y-95708942D01*
X119064867Y-95557486D01*
X119064863Y-95557481D01*
X118036319Y-94528937D01*
X118002834Y-94467614D01*
X118000000Y-94441256D01*
X118000000Y-93874000D01*
X118019685Y-93806961D01*
X118072489Y-93761206D01*
X118124000Y-93750000D01*
X122526479Y-93750000D01*
X122593518Y-93769685D01*
G37*
%TD.AperFunction*%
%TD*%
M02*
